%TF.GenerationSoftware,KiCad,Pcbnew,(6.0.2)*%
%TF.CreationDate,2023-04-06T22:37:42-04:00*%
%TF.ProjectId,skydiving-altimeter,736b7964-6976-4696-9e67-2d616c74696d,rev?*%
%TF.SameCoordinates,Original*%
%TF.FileFunction,Legend,Top*%
%TF.FilePolarity,Positive*%
%FSLAX46Y46*%
G04 Gerber Fmt 4.6, Leading zero omitted, Abs format (unit mm)*
G04 Created by KiCad (PCBNEW (6.0.2)) date 2023-04-06 22:37:42*
%MOMM*%
%LPD*%
G01*
G04 APERTURE LIST*
G04 Aperture macros list*
%AMRoundRect*
0 Rectangle with rounded corners*
0 $1 Rounding radius*
0 $2 $3 $4 $5 $6 $7 $8 $9 X,Y pos of 4 corners*
0 Add a 4 corners polygon primitive as box body*
4,1,4,$2,$3,$4,$5,$6,$7,$8,$9,$2,$3,0*
0 Add four circle primitives for the rounded corners*
1,1,$1+$1,$2,$3*
1,1,$1+$1,$4,$5*
1,1,$1+$1,$6,$7*
1,1,$1+$1,$8,$9*
0 Add four rect primitives between the rounded corners*
20,1,$1+$1,$2,$3,$4,$5,0*
20,1,$1+$1,$4,$5,$6,$7,0*
20,1,$1+$1,$6,$7,$8,$9,0*
20,1,$1+$1,$8,$9,$2,$3,0*%
G04 Aperture macros list end*
%ADD10C,0.300000*%
%ADD11C,0.150000*%
%ADD12C,0.120000*%
%ADD13C,0.127000*%
%ADD14C,0.200000*%
%ADD15R,2.000000X1.500000*%
%ADD16R,2.000000X3.800000*%
%ADD17RoundRect,0.150000X-0.512500X-0.150000X0.512500X-0.150000X0.512500X0.150000X-0.512500X0.150000X0*%
%ADD18R,2.350000X3.500000*%
%ADD19R,1.700000X1.700000*%
%ADD20O,1.700000X1.700000*%
%ADD21C,1.308000*%
%ADD22R,1.308000X1.308000*%
%ADD23R,1.100000X1.100000*%
%ADD24RoundRect,0.250000X0.250000X0.475000X-0.250000X0.475000X-0.250000X-0.475000X0.250000X-0.475000X0*%
%ADD25RoundRect,0.250000X-0.475000X0.250000X-0.475000X-0.250000X0.475000X-0.250000X0.475000X0.250000X0*%
%ADD26R,1.000000X1.500000*%
%ADD27RoundRect,0.250000X-0.250000X-0.475000X0.250000X-0.475000X0.250000X0.475000X-0.250000X0.475000X0*%
%ADD28RoundRect,0.135000X-0.135000X-0.185000X0.135000X-0.185000X0.135000X0.185000X-0.135000X0.185000X0*%
%ADD29RoundRect,0.135000X0.135000X0.185000X-0.135000X0.185000X-0.135000X-0.185000X0.135000X-0.185000X0*%
%ADD30RoundRect,0.250000X0.475000X-0.250000X0.475000X0.250000X-0.475000X0.250000X-0.475000X-0.250000X0*%
%ADD31R,0.325000X0.300000*%
%ADD32R,0.300000X0.325000*%
%ADD33RoundRect,0.250000X-0.262500X-0.450000X0.262500X-0.450000X0.262500X0.450000X-0.262500X0.450000X0*%
%ADD34RoundRect,0.075000X-0.662500X-0.075000X0.662500X-0.075000X0.662500X0.075000X-0.662500X0.075000X0*%
%ADD35RoundRect,0.075000X-0.075000X-0.662500X0.075000X-0.662500X0.075000X0.662500X-0.075000X0.662500X0*%
%ADD36RoundRect,0.250000X0.750000X-0.250000X0.750000X0.250000X-0.750000X0.250000X-0.750000X-0.250000X0*%
%ADD37R,2.400000X0.740000*%
G04 APERTURE END LIST*
D10*
X102298571Y-58527142D02*
X103441428Y-58527142D01*
X108648571Y-58527142D02*
X109791428Y-58527142D01*
X109220000Y-59098571D02*
X109220000Y-57955714D01*
D11*
%TO.C,U5*%
X119253095Y-67342380D02*
X119253095Y-68151904D01*
X119300714Y-68247142D01*
X119348333Y-68294761D01*
X119443571Y-68342380D01*
X119634047Y-68342380D01*
X119729285Y-68294761D01*
X119776904Y-68247142D01*
X119824523Y-68151904D01*
X119824523Y-67342380D01*
X120776904Y-67342380D02*
X120300714Y-67342380D01*
X120253095Y-67818571D01*
X120300714Y-67770952D01*
X120395952Y-67723333D01*
X120634047Y-67723333D01*
X120729285Y-67770952D01*
X120776904Y-67818571D01*
X120824523Y-67913809D01*
X120824523Y-68151904D01*
X120776904Y-68247142D01*
X120729285Y-68294761D01*
X120634047Y-68342380D01*
X120395952Y-68342380D01*
X120300714Y-68294761D01*
X120253095Y-68247142D01*
%TO.C,U4*%
X104648095Y-68807380D02*
X104648095Y-69616904D01*
X104695714Y-69712142D01*
X104743333Y-69759761D01*
X104838571Y-69807380D01*
X105029047Y-69807380D01*
X105124285Y-69759761D01*
X105171904Y-69712142D01*
X105219523Y-69616904D01*
X105219523Y-68807380D01*
X106124285Y-69140714D02*
X106124285Y-69807380D01*
X105886190Y-68759761D02*
X105648095Y-69474047D01*
X106267142Y-69474047D01*
%TO.C,L1*%
X97320333Y-61488123D02*
X97015571Y-61488123D01*
X97015571Y-60848123D01*
X97868904Y-61488123D02*
X97503190Y-61488123D01*
X97686047Y-61488123D02*
X97686047Y-60848123D01*
X97625095Y-60939552D01*
X97564142Y-61000504D01*
X97503190Y-61030980D01*
%TO.C,J3*%
X124126666Y-60837380D02*
X124126666Y-61551666D01*
X124079047Y-61694523D01*
X123983809Y-61789761D01*
X123840952Y-61837380D01*
X123745714Y-61837380D01*
X124507619Y-60837380D02*
X125126666Y-60837380D01*
X124793333Y-61218333D01*
X124936190Y-61218333D01*
X125031428Y-61265952D01*
X125079047Y-61313571D01*
X125126666Y-61408809D01*
X125126666Y-61646904D01*
X125079047Y-61742142D01*
X125031428Y-61789761D01*
X124936190Y-61837380D01*
X124650476Y-61837380D01*
X124555238Y-61789761D01*
X124507619Y-61742142D01*
D12*
%TO.C,J2*%
X107661000Y-61104442D02*
X107661000Y-61447300D01*
X107638142Y-61515871D01*
X107592428Y-61561585D01*
X107523857Y-61584442D01*
X107478142Y-61584442D01*
X107866714Y-61150157D02*
X107889571Y-61127300D01*
X107935285Y-61104442D01*
X108049571Y-61104442D01*
X108095285Y-61127300D01*
X108118142Y-61150157D01*
X108141000Y-61195871D01*
X108141000Y-61241585D01*
X108118142Y-61310157D01*
X107843857Y-61584442D01*
X108141000Y-61584442D01*
D11*
%TO.C,D6*%
X109878904Y-72842380D02*
X109878904Y-71842380D01*
X110117000Y-71842380D01*
X110259857Y-71890000D01*
X110355095Y-71985238D01*
X110402714Y-72080476D01*
X110450333Y-72270952D01*
X110450333Y-72413809D01*
X110402714Y-72604285D01*
X110355095Y-72699523D01*
X110259857Y-72794761D01*
X110117000Y-72842380D01*
X109878904Y-72842380D01*
X111307476Y-71842380D02*
X111117000Y-71842380D01*
X111021761Y-71890000D01*
X110974142Y-71937619D01*
X110878904Y-72080476D01*
X110831285Y-72270952D01*
X110831285Y-72651904D01*
X110878904Y-72747142D01*
X110926523Y-72794761D01*
X111021761Y-72842380D01*
X111212238Y-72842380D01*
X111307476Y-72794761D01*
X111355095Y-72747142D01*
X111402714Y-72651904D01*
X111402714Y-72413809D01*
X111355095Y-72318571D01*
X111307476Y-72270952D01*
X111212238Y-72223333D01*
X111021761Y-72223333D01*
X110926523Y-72270952D01*
X110878904Y-72318571D01*
X110831285Y-72413809D01*
%TO.C,C16*%
X126357142Y-74427142D02*
X126309523Y-74474761D01*
X126166666Y-74522380D01*
X126071428Y-74522380D01*
X125928571Y-74474761D01*
X125833333Y-74379523D01*
X125785714Y-74284285D01*
X125738095Y-74093809D01*
X125738095Y-73950952D01*
X125785714Y-73760476D01*
X125833333Y-73665238D01*
X125928571Y-73570000D01*
X126071428Y-73522380D01*
X126166666Y-73522380D01*
X126309523Y-73570000D01*
X126357142Y-73617619D01*
X127309523Y-74522380D02*
X126738095Y-74522380D01*
X127023809Y-74522380D02*
X127023809Y-73522380D01*
X126928571Y-73665238D01*
X126833333Y-73760476D01*
X126738095Y-73808095D01*
X128166666Y-73522380D02*
X127976190Y-73522380D01*
X127880952Y-73570000D01*
X127833333Y-73617619D01*
X127738095Y-73760476D01*
X127690476Y-73950952D01*
X127690476Y-74331904D01*
X127738095Y-74427142D01*
X127785714Y-74474761D01*
X127880952Y-74522380D01*
X128071428Y-74522380D01*
X128166666Y-74474761D01*
X128214285Y-74427142D01*
X128261904Y-74331904D01*
X128261904Y-74093809D01*
X128214285Y-73998571D01*
X128166666Y-73950952D01*
X128071428Y-73903333D01*
X127880952Y-73903333D01*
X127785714Y-73950952D01*
X127738095Y-73998571D01*
X127690476Y-74093809D01*
%TO.C,C15*%
X113022142Y-78462142D02*
X112974523Y-78509761D01*
X112831666Y-78557380D01*
X112736428Y-78557380D01*
X112593571Y-78509761D01*
X112498333Y-78414523D01*
X112450714Y-78319285D01*
X112403095Y-78128809D01*
X112403095Y-77985952D01*
X112450714Y-77795476D01*
X112498333Y-77700238D01*
X112593571Y-77605000D01*
X112736428Y-77557380D01*
X112831666Y-77557380D01*
X112974523Y-77605000D01*
X113022142Y-77652619D01*
X113974523Y-78557380D02*
X113403095Y-78557380D01*
X113688809Y-78557380D02*
X113688809Y-77557380D01*
X113593571Y-77700238D01*
X113498333Y-77795476D01*
X113403095Y-77843095D01*
X114879285Y-77557380D02*
X114403095Y-77557380D01*
X114355476Y-78033571D01*
X114403095Y-77985952D01*
X114498333Y-77938333D01*
X114736428Y-77938333D01*
X114831666Y-77985952D01*
X114879285Y-78033571D01*
X114926904Y-78128809D01*
X114926904Y-78366904D01*
X114879285Y-78462142D01*
X114831666Y-78509761D01*
X114736428Y-78557380D01*
X114498333Y-78557380D01*
X114403095Y-78509761D01*
X114355476Y-78462142D01*
%TO.C,C14*%
X109847142Y-78462142D02*
X109799523Y-78509761D01*
X109656666Y-78557380D01*
X109561428Y-78557380D01*
X109418571Y-78509761D01*
X109323333Y-78414523D01*
X109275714Y-78319285D01*
X109228095Y-78128809D01*
X109228095Y-77985952D01*
X109275714Y-77795476D01*
X109323333Y-77700238D01*
X109418571Y-77605000D01*
X109561428Y-77557380D01*
X109656666Y-77557380D01*
X109799523Y-77605000D01*
X109847142Y-77652619D01*
X110799523Y-78557380D02*
X110228095Y-78557380D01*
X110513809Y-78557380D02*
X110513809Y-77557380D01*
X110418571Y-77700238D01*
X110323333Y-77795476D01*
X110228095Y-77843095D01*
X111656666Y-77890714D02*
X111656666Y-78557380D01*
X111418571Y-77509761D02*
X111180476Y-78224047D01*
X111799523Y-78224047D01*
%TO.C,C13*%
X97147142Y-72747142D02*
X97099523Y-72794761D01*
X96956666Y-72842380D01*
X96861428Y-72842380D01*
X96718571Y-72794761D01*
X96623333Y-72699523D01*
X96575714Y-72604285D01*
X96528095Y-72413809D01*
X96528095Y-72270952D01*
X96575714Y-72080476D01*
X96623333Y-71985238D01*
X96718571Y-71890000D01*
X96861428Y-71842380D01*
X96956666Y-71842380D01*
X97099523Y-71890000D01*
X97147142Y-71937619D01*
X98099523Y-72842380D02*
X97528095Y-72842380D01*
X97813809Y-72842380D02*
X97813809Y-71842380D01*
X97718571Y-71985238D01*
X97623333Y-72080476D01*
X97528095Y-72128095D01*
X98432857Y-71842380D02*
X99051904Y-71842380D01*
X98718571Y-72223333D01*
X98861428Y-72223333D01*
X98956666Y-72270952D01*
X99004285Y-72318571D01*
X99051904Y-72413809D01*
X99051904Y-72651904D01*
X99004285Y-72747142D01*
X98956666Y-72794761D01*
X98861428Y-72842380D01*
X98575714Y-72842380D01*
X98480476Y-72794761D01*
X98432857Y-72747142D01*
%TO.C,D1*%
X119507380Y-118848095D02*
X118507380Y-118848095D01*
X118507380Y-118610000D01*
X118555000Y-118467142D01*
X118650238Y-118371904D01*
X118745476Y-118324285D01*
X118935952Y-118276666D01*
X119078809Y-118276666D01*
X119269285Y-118324285D01*
X119364523Y-118371904D01*
X119459761Y-118467142D01*
X119507380Y-118610000D01*
X119507380Y-118848095D01*
X119507380Y-117324285D02*
X119507380Y-117895714D01*
X119507380Y-117610000D02*
X118507380Y-117610000D01*
X118650238Y-117705238D01*
X118745476Y-117800476D01*
X118793095Y-117895714D01*
%TO.C,C4*%
X123658333Y-97922142D02*
X123610714Y-97969761D01*
X123467857Y-98017380D01*
X123372619Y-98017380D01*
X123229761Y-97969761D01*
X123134523Y-97874523D01*
X123086904Y-97779285D01*
X123039285Y-97588809D01*
X123039285Y-97445952D01*
X123086904Y-97255476D01*
X123134523Y-97160238D01*
X123229761Y-97065000D01*
X123372619Y-97017380D01*
X123467857Y-97017380D01*
X123610714Y-97065000D01*
X123658333Y-97112619D01*
X124515476Y-97350714D02*
X124515476Y-98017380D01*
X124277380Y-96969761D02*
X124039285Y-97684047D01*
X124658333Y-97684047D01*
%TO.C,C1*%
X106513333Y-86942142D02*
X106465714Y-86989761D01*
X106322857Y-87037380D01*
X106227619Y-87037380D01*
X106084761Y-86989761D01*
X105989523Y-86894523D01*
X105941904Y-86799285D01*
X105894285Y-86608809D01*
X105894285Y-86465952D01*
X105941904Y-86275476D01*
X105989523Y-86180238D01*
X106084761Y-86085000D01*
X106227619Y-86037380D01*
X106322857Y-86037380D01*
X106465714Y-86085000D01*
X106513333Y-86132619D01*
X107465714Y-87037380D02*
X106894285Y-87037380D01*
X107180000Y-87037380D02*
X107180000Y-86037380D01*
X107084761Y-86180238D01*
X106989523Y-86275476D01*
X106894285Y-86323095D01*
%TO.C,R1*%
X118453333Y-91992380D02*
X118120000Y-91516190D01*
X117881904Y-91992380D02*
X117881904Y-90992380D01*
X118262857Y-90992380D01*
X118358095Y-91040000D01*
X118405714Y-91087619D01*
X118453333Y-91182857D01*
X118453333Y-91325714D01*
X118405714Y-91420952D01*
X118358095Y-91468571D01*
X118262857Y-91516190D01*
X117881904Y-91516190D01*
X119405714Y-91992380D02*
X118834285Y-91992380D01*
X119120000Y-91992380D02*
X119120000Y-90992380D01*
X119024761Y-91135238D01*
X118929523Y-91230476D01*
X118834285Y-91278095D01*
%TO.C,R2*%
X114768333Y-90522380D02*
X114435000Y-90046190D01*
X114196904Y-90522380D02*
X114196904Y-89522380D01*
X114577857Y-89522380D01*
X114673095Y-89570000D01*
X114720714Y-89617619D01*
X114768333Y-89712857D01*
X114768333Y-89855714D01*
X114720714Y-89950952D01*
X114673095Y-89998571D01*
X114577857Y-90046190D01*
X114196904Y-90046190D01*
X115149285Y-89617619D02*
X115196904Y-89570000D01*
X115292142Y-89522380D01*
X115530238Y-89522380D01*
X115625476Y-89570000D01*
X115673095Y-89617619D01*
X115720714Y-89712857D01*
X115720714Y-89808095D01*
X115673095Y-89950952D01*
X115101666Y-90522380D01*
X115720714Y-90522380D01*
%TO.C,C11*%
X88622142Y-67579109D02*
X88669761Y-67626728D01*
X88717380Y-67769585D01*
X88717380Y-67864823D01*
X88669761Y-68007680D01*
X88574523Y-68102918D01*
X88479285Y-68150537D01*
X88288809Y-68198156D01*
X88145952Y-68198156D01*
X87955476Y-68150537D01*
X87860238Y-68102918D01*
X87765000Y-68007680D01*
X87717380Y-67864823D01*
X87717380Y-67769585D01*
X87765000Y-67626728D01*
X87812619Y-67579109D01*
X88717380Y-66626728D02*
X88717380Y-67198156D01*
X88717380Y-66912442D02*
X87717380Y-66912442D01*
X87860238Y-67007680D01*
X87955476Y-67102918D01*
X88003095Y-67198156D01*
X88717380Y-65674347D02*
X88717380Y-66245775D01*
X88717380Y-65960061D02*
X87717380Y-65960061D01*
X87860238Y-66055299D01*
X87955476Y-66150537D01*
X88003095Y-66245775D01*
%TO.C,C10*%
X88622142Y-71127857D02*
X88669761Y-71175476D01*
X88717380Y-71318333D01*
X88717380Y-71413571D01*
X88669761Y-71556428D01*
X88574523Y-71651666D01*
X88479285Y-71699285D01*
X88288809Y-71746904D01*
X88145952Y-71746904D01*
X87955476Y-71699285D01*
X87860238Y-71651666D01*
X87765000Y-71556428D01*
X87717380Y-71413571D01*
X87717380Y-71318333D01*
X87765000Y-71175476D01*
X87812619Y-71127857D01*
X88717380Y-70175476D02*
X88717380Y-70746904D01*
X88717380Y-70461190D02*
X87717380Y-70461190D01*
X87860238Y-70556428D01*
X87955476Y-70651666D01*
X88003095Y-70746904D01*
X87717380Y-69556428D02*
X87717380Y-69461190D01*
X87765000Y-69365952D01*
X87812619Y-69318333D01*
X87907857Y-69270714D01*
X88098333Y-69223095D01*
X88336428Y-69223095D01*
X88526904Y-69270714D01*
X88622142Y-69318333D01*
X88669761Y-69365952D01*
X88717380Y-69461190D01*
X88717380Y-69556428D01*
X88669761Y-69651666D01*
X88622142Y-69699285D01*
X88526904Y-69746904D01*
X88336428Y-69794523D01*
X88098333Y-69794523D01*
X87907857Y-69746904D01*
X87812619Y-69699285D01*
X87765000Y-69651666D01*
X87717380Y-69556428D01*
%TO.C,C12*%
X88622142Y-63507857D02*
X88669761Y-63555476D01*
X88717380Y-63698333D01*
X88717380Y-63793571D01*
X88669761Y-63936428D01*
X88574523Y-64031666D01*
X88479285Y-64079285D01*
X88288809Y-64126904D01*
X88145952Y-64126904D01*
X87955476Y-64079285D01*
X87860238Y-64031666D01*
X87765000Y-63936428D01*
X87717380Y-63793571D01*
X87717380Y-63698333D01*
X87765000Y-63555476D01*
X87812619Y-63507857D01*
X88717380Y-62555476D02*
X88717380Y-63126904D01*
X88717380Y-62841190D02*
X87717380Y-62841190D01*
X87860238Y-62936428D01*
X87955476Y-63031666D01*
X88003095Y-63126904D01*
X87812619Y-62174523D02*
X87765000Y-62126904D01*
X87717380Y-62031666D01*
X87717380Y-61793571D01*
X87765000Y-61698333D01*
X87812619Y-61650714D01*
X87907857Y-61603095D01*
X88003095Y-61603095D01*
X88145952Y-61650714D01*
X88717380Y-62222142D01*
X88717380Y-61603095D01*
%TO.C,C2*%
X108418333Y-98147142D02*
X108370714Y-98194761D01*
X108227857Y-98242380D01*
X108132619Y-98242380D01*
X107989761Y-98194761D01*
X107894523Y-98099523D01*
X107846904Y-98004285D01*
X107799285Y-97813809D01*
X107799285Y-97670952D01*
X107846904Y-97480476D01*
X107894523Y-97385238D01*
X107989761Y-97290000D01*
X108132619Y-97242380D01*
X108227857Y-97242380D01*
X108370714Y-97290000D01*
X108418333Y-97337619D01*
X108799285Y-97337619D02*
X108846904Y-97290000D01*
X108942142Y-97242380D01*
X109180238Y-97242380D01*
X109275476Y-97290000D01*
X109323095Y-97337619D01*
X109370714Y-97432857D01*
X109370714Y-97528095D01*
X109323095Y-97670952D01*
X108751666Y-98242380D01*
X109370714Y-98242380D01*
%TO.C,U2*%
X120523095Y-78851380D02*
X120523095Y-79660904D01*
X120570714Y-79756142D01*
X120618333Y-79803761D01*
X120713571Y-79851380D01*
X120904047Y-79851380D01*
X120999285Y-79803761D01*
X121046904Y-79756142D01*
X121094523Y-79660904D01*
X121094523Y-78851380D01*
X121523095Y-78946619D02*
X121570714Y-78899000D01*
X121665952Y-78851380D01*
X121904047Y-78851380D01*
X121999285Y-78899000D01*
X122046904Y-78946619D01*
X122094523Y-79041857D01*
X122094523Y-79137095D01*
X122046904Y-79279952D01*
X121475476Y-79851380D01*
X122094523Y-79851380D01*
%TO.C,D4*%
X94742380Y-118848095D02*
X93742380Y-118848095D01*
X93742380Y-118610000D01*
X93790000Y-118467142D01*
X93885238Y-118371904D01*
X93980476Y-118324285D01*
X94170952Y-118276666D01*
X94313809Y-118276666D01*
X94504285Y-118324285D01*
X94599523Y-118371904D01*
X94694761Y-118467142D01*
X94742380Y-118610000D01*
X94742380Y-118848095D01*
X94075714Y-117419523D02*
X94742380Y-117419523D01*
X93694761Y-117657619D02*
X94409047Y-117895714D01*
X94409047Y-117276666D01*
%TO.C,R4*%
X109688333Y-106752380D02*
X109355000Y-106276190D01*
X109116904Y-106752380D02*
X109116904Y-105752380D01*
X109497857Y-105752380D01*
X109593095Y-105800000D01*
X109640714Y-105847619D01*
X109688333Y-105942857D01*
X109688333Y-106085714D01*
X109640714Y-106180952D01*
X109593095Y-106228571D01*
X109497857Y-106276190D01*
X109116904Y-106276190D01*
X110545476Y-106085714D02*
X110545476Y-106752380D01*
X110307380Y-105704761D02*
X110069285Y-106419047D01*
X110688333Y-106419047D01*
%TO.C,D5*%
X86487380Y-118848095D02*
X85487380Y-118848095D01*
X85487380Y-118610000D01*
X85535000Y-118467142D01*
X85630238Y-118371904D01*
X85725476Y-118324285D01*
X85915952Y-118276666D01*
X86058809Y-118276666D01*
X86249285Y-118324285D01*
X86344523Y-118371904D01*
X86439761Y-118467142D01*
X86487380Y-118610000D01*
X86487380Y-118848095D01*
X85487380Y-117371904D02*
X85487380Y-117848095D01*
X85963571Y-117895714D01*
X85915952Y-117848095D01*
X85868333Y-117752857D01*
X85868333Y-117514761D01*
X85915952Y-117419523D01*
X85963571Y-117371904D01*
X86058809Y-117324285D01*
X86296904Y-117324285D01*
X86392142Y-117371904D01*
X86439761Y-117419523D01*
X86487380Y-117514761D01*
X86487380Y-117752857D01*
X86439761Y-117848095D01*
X86392142Y-117895714D01*
%TO.C,C6*%
X106513333Y-101867142D02*
X106465714Y-101914761D01*
X106322857Y-101962380D01*
X106227619Y-101962380D01*
X106084761Y-101914761D01*
X105989523Y-101819523D01*
X105941904Y-101724285D01*
X105894285Y-101533809D01*
X105894285Y-101390952D01*
X105941904Y-101200476D01*
X105989523Y-101105238D01*
X106084761Y-101010000D01*
X106227619Y-100962380D01*
X106322857Y-100962380D01*
X106465714Y-101010000D01*
X106513333Y-101057619D01*
X107370476Y-100962380D02*
X107180000Y-100962380D01*
X107084761Y-101010000D01*
X107037142Y-101057619D01*
X106941904Y-101200476D01*
X106894285Y-101390952D01*
X106894285Y-101771904D01*
X106941904Y-101867142D01*
X106989523Y-101914761D01*
X107084761Y-101962380D01*
X107275238Y-101962380D01*
X107370476Y-101914761D01*
X107418095Y-101867142D01*
X107465714Y-101771904D01*
X107465714Y-101533809D01*
X107418095Y-101438571D01*
X107370476Y-101390952D01*
X107275238Y-101343333D01*
X107084761Y-101343333D01*
X106989523Y-101390952D01*
X106941904Y-101438571D01*
X106894285Y-101533809D01*
%TO.C,D2*%
X111252380Y-118848095D02*
X110252380Y-118848095D01*
X110252380Y-118610000D01*
X110300000Y-118467142D01*
X110395238Y-118371904D01*
X110490476Y-118324285D01*
X110680952Y-118276666D01*
X110823809Y-118276666D01*
X111014285Y-118324285D01*
X111109523Y-118371904D01*
X111204761Y-118467142D01*
X111252380Y-118610000D01*
X111252380Y-118848095D01*
X110347619Y-117895714D02*
X110300000Y-117848095D01*
X110252380Y-117752857D01*
X110252380Y-117514761D01*
X110300000Y-117419523D01*
X110347619Y-117371904D01*
X110442857Y-117324285D01*
X110538095Y-117324285D01*
X110680952Y-117371904D01*
X111252380Y-117943333D01*
X111252380Y-117324285D01*
%TO.C,C7*%
X120483333Y-86942142D02*
X120435714Y-86989761D01*
X120292857Y-87037380D01*
X120197619Y-87037380D01*
X120054761Y-86989761D01*
X119959523Y-86894523D01*
X119911904Y-86799285D01*
X119864285Y-86608809D01*
X119864285Y-86465952D01*
X119911904Y-86275476D01*
X119959523Y-86180238D01*
X120054761Y-86085000D01*
X120197619Y-86037380D01*
X120292857Y-86037380D01*
X120435714Y-86085000D01*
X120483333Y-86132619D01*
X120816666Y-86037380D02*
X121483333Y-86037380D01*
X121054761Y-87037380D01*
%TO.C,C5*%
X115702142Y-92241666D02*
X115749761Y-92289285D01*
X115797380Y-92432142D01*
X115797380Y-92527380D01*
X115749761Y-92670238D01*
X115654523Y-92765476D01*
X115559285Y-92813095D01*
X115368809Y-92860714D01*
X115225952Y-92860714D01*
X115035476Y-92813095D01*
X114940238Y-92765476D01*
X114845000Y-92670238D01*
X114797380Y-92527380D01*
X114797380Y-92432142D01*
X114845000Y-92289285D01*
X114892619Y-92241666D01*
X114797380Y-91336904D02*
X114797380Y-91813095D01*
X115273571Y-91860714D01*
X115225952Y-91813095D01*
X115178333Y-91717857D01*
X115178333Y-91479761D01*
X115225952Y-91384523D01*
X115273571Y-91336904D01*
X115368809Y-91289285D01*
X115606904Y-91289285D01*
X115702142Y-91336904D01*
X115749761Y-91384523D01*
X115797380Y-91479761D01*
X115797380Y-91717857D01*
X115749761Y-91813095D01*
X115702142Y-91860714D01*
%TO.C,U1*%
X115443095Y-93297380D02*
X115443095Y-94106904D01*
X115490714Y-94202142D01*
X115538333Y-94249761D01*
X115633571Y-94297380D01*
X115824047Y-94297380D01*
X115919285Y-94249761D01*
X115966904Y-94202142D01*
X116014523Y-94106904D01*
X116014523Y-93297380D01*
X117014523Y-94297380D02*
X116443095Y-94297380D01*
X116728809Y-94297380D02*
X116728809Y-93297380D01*
X116633571Y-93440238D01*
X116538333Y-93535476D01*
X116443095Y-93583095D01*
%TO.C,U3*%
X74049380Y-75056904D02*
X74858904Y-75056904D01*
X74954142Y-75009285D01*
X75001761Y-74961666D01*
X75049380Y-74866428D01*
X75049380Y-74675952D01*
X75001761Y-74580714D01*
X74954142Y-74533095D01*
X74858904Y-74485476D01*
X74049380Y-74485476D01*
X74049380Y-74104523D02*
X74049380Y-73485476D01*
X74430333Y-73818809D01*
X74430333Y-73675952D01*
X74477952Y-73580714D01*
X74525571Y-73533095D01*
X74620809Y-73485476D01*
X74858904Y-73485476D01*
X74954142Y-73533095D01*
X75001761Y-73580714D01*
X75049380Y-73675952D01*
X75049380Y-73961666D01*
X75001761Y-74056904D01*
X74954142Y-74104523D01*
%TO.C,J1*%
X87296666Y-100627380D02*
X87296666Y-101341666D01*
X87249047Y-101484523D01*
X87153809Y-101579761D01*
X87010952Y-101627380D01*
X86915714Y-101627380D01*
X88296666Y-101627380D02*
X87725238Y-101627380D01*
X88010952Y-101627380D02*
X88010952Y-100627380D01*
X87915714Y-100770238D01*
X87820476Y-100865476D01*
X87725238Y-100913095D01*
%TO.C,R3*%
X105878333Y-106752380D02*
X105545000Y-106276190D01*
X105306904Y-106752380D02*
X105306904Y-105752380D01*
X105687857Y-105752380D01*
X105783095Y-105800000D01*
X105830714Y-105847619D01*
X105878333Y-105942857D01*
X105878333Y-106085714D01*
X105830714Y-106180952D01*
X105783095Y-106228571D01*
X105687857Y-106276190D01*
X105306904Y-106276190D01*
X106211666Y-105752380D02*
X106830714Y-105752380D01*
X106497380Y-106133333D01*
X106640238Y-106133333D01*
X106735476Y-106180952D01*
X106783095Y-106228571D01*
X106830714Y-106323809D01*
X106830714Y-106561904D01*
X106783095Y-106657142D01*
X106735476Y-106704761D01*
X106640238Y-106752380D01*
X106354523Y-106752380D01*
X106259285Y-106704761D01*
X106211666Y-106657142D01*
%TO.C,C9*%
X85558333Y-75697142D02*
X85510714Y-75744761D01*
X85367857Y-75792380D01*
X85272619Y-75792380D01*
X85129761Y-75744761D01*
X85034523Y-75649523D01*
X84986904Y-75554285D01*
X84939285Y-75363809D01*
X84939285Y-75220952D01*
X84986904Y-75030476D01*
X85034523Y-74935238D01*
X85129761Y-74840000D01*
X85272619Y-74792380D01*
X85367857Y-74792380D01*
X85510714Y-74840000D01*
X85558333Y-74887619D01*
X86034523Y-75792380D02*
X86225000Y-75792380D01*
X86320238Y-75744761D01*
X86367857Y-75697142D01*
X86463095Y-75554285D01*
X86510714Y-75363809D01*
X86510714Y-74982857D01*
X86463095Y-74887619D01*
X86415476Y-74840000D01*
X86320238Y-74792380D01*
X86129761Y-74792380D01*
X86034523Y-74840000D01*
X85986904Y-74887619D01*
X85939285Y-74982857D01*
X85939285Y-75220952D01*
X85986904Y-75316190D01*
X86034523Y-75363809D01*
X86129761Y-75411428D01*
X86320238Y-75411428D01*
X86415476Y-75363809D01*
X86463095Y-75316190D01*
X86510714Y-75220952D01*
%TO.C,C3*%
X117422142Y-108116666D02*
X117469761Y-108164285D01*
X117517380Y-108307142D01*
X117517380Y-108402380D01*
X117469761Y-108545238D01*
X117374523Y-108640476D01*
X117279285Y-108688095D01*
X117088809Y-108735714D01*
X116945952Y-108735714D01*
X116755476Y-108688095D01*
X116660238Y-108640476D01*
X116565000Y-108545238D01*
X116517380Y-108402380D01*
X116517380Y-108307142D01*
X116565000Y-108164285D01*
X116612619Y-108116666D01*
X116517380Y-107783333D02*
X116517380Y-107164285D01*
X116898333Y-107497619D01*
X116898333Y-107354761D01*
X116945952Y-107259523D01*
X116993571Y-107211904D01*
X117088809Y-107164285D01*
X117326904Y-107164285D01*
X117422142Y-107211904D01*
X117469761Y-107259523D01*
X117517380Y-107354761D01*
X117517380Y-107640476D01*
X117469761Y-107735714D01*
X117422142Y-107783333D01*
%TO.C,D3*%
X102997380Y-118848095D02*
X101997380Y-118848095D01*
X101997380Y-118610000D01*
X102045000Y-118467142D01*
X102140238Y-118371904D01*
X102235476Y-118324285D01*
X102425952Y-118276666D01*
X102568809Y-118276666D01*
X102759285Y-118324285D01*
X102854523Y-118371904D01*
X102949761Y-118467142D01*
X102997380Y-118610000D01*
X102997380Y-118848095D01*
X101997380Y-117943333D02*
X101997380Y-117324285D01*
X102378333Y-117657619D01*
X102378333Y-117514761D01*
X102425952Y-117419523D01*
X102473571Y-117371904D01*
X102568809Y-117324285D01*
X102806904Y-117324285D01*
X102902142Y-117371904D01*
X102949761Y-117419523D01*
X102997380Y-117514761D01*
X102997380Y-117800476D01*
X102949761Y-117895714D01*
X102902142Y-117943333D01*
%TO.C,C8*%
X125563333Y-86942142D02*
X125515714Y-86989761D01*
X125372857Y-87037380D01*
X125277619Y-87037380D01*
X125134761Y-86989761D01*
X125039523Y-86894523D01*
X124991904Y-86799285D01*
X124944285Y-86608809D01*
X124944285Y-86465952D01*
X124991904Y-86275476D01*
X125039523Y-86180238D01*
X125134761Y-86085000D01*
X125277619Y-86037380D01*
X125372857Y-86037380D01*
X125515714Y-86085000D01*
X125563333Y-86132619D01*
X126134761Y-86465952D02*
X126039523Y-86418333D01*
X125991904Y-86370714D01*
X125944285Y-86275476D01*
X125944285Y-86227857D01*
X125991904Y-86132619D01*
X126039523Y-86085000D01*
X126134761Y-86037380D01*
X126325238Y-86037380D01*
X126420476Y-86085000D01*
X126468095Y-86132619D01*
X126515714Y-86227857D01*
X126515714Y-86275476D01*
X126468095Y-86370714D01*
X126420476Y-86418333D01*
X126325238Y-86465952D01*
X126134761Y-86465952D01*
X126039523Y-86513571D01*
X125991904Y-86561190D01*
X125944285Y-86656428D01*
X125944285Y-86846904D01*
X125991904Y-86942142D01*
X126039523Y-86989761D01*
X126134761Y-87037380D01*
X126325238Y-87037380D01*
X126420476Y-86989761D01*
X126468095Y-86942142D01*
X126515714Y-86846904D01*
X126515714Y-86656428D01*
X126468095Y-86561190D01*
X126420476Y-86513571D01*
X126325238Y-86465952D01*
D12*
%TO.C,U5*%
X115915000Y-68980000D02*
X121925000Y-68980000D01*
X121925000Y-68980000D02*
X121925000Y-70240000D01*
X121925000Y-75800000D02*
X121925000Y-74540000D01*
X118165000Y-75800000D02*
X121925000Y-75800000D01*
%TO.C,U4*%
X105410000Y-73315000D02*
X104610000Y-73315000D01*
X105410000Y-70195000D02*
X103610000Y-70195000D01*
X105410000Y-70195000D02*
X106210000Y-70195000D01*
X105410000Y-73315000D02*
X106210000Y-73315000D01*
D13*
%TO.C,L1*%
X96295000Y-62105000D02*
X103395000Y-62105000D01*
X96295000Y-68705000D02*
X103395000Y-68705000D01*
D12*
%TO.C,J3*%
X125790000Y-59055000D02*
X125790000Y-60385000D01*
X125790000Y-55185000D02*
X123130000Y-55185000D01*
X125790000Y-57785000D02*
X125790000Y-55185000D01*
X125790000Y-57785000D02*
X123130000Y-57785000D01*
X125790000Y-60385000D02*
X124460000Y-60385000D01*
X123130000Y-57785000D02*
X123130000Y-55185000D01*
D13*
%TO.C,J2*%
X108995000Y-60077500D02*
X103095000Y-60077500D01*
X103095000Y-60077500D02*
X103095000Y-52477500D01*
X108995000Y-52477500D02*
X108995000Y-60077500D01*
D14*
X107145000Y-60627500D02*
G75*
G03*
X107145000Y-60627500I-100000J0D01*
G01*
D13*
X103095000Y-52477500D02*
X108995000Y-52477500D01*
D12*
%TO.C,D6*%
X112690000Y-71485000D02*
X108840000Y-71485000D01*
X112690000Y-69485000D02*
X108840000Y-69485000D01*
X112690000Y-71485000D02*
X112690000Y-69485000D01*
%TO.C,C16*%
X127261252Y-71655000D02*
X126738748Y-71655000D01*
X127261252Y-73125000D02*
X126738748Y-73125000D01*
%TO.C,C15*%
X112930000Y-75303748D02*
X112930000Y-75826252D01*
X114400000Y-75303748D02*
X114400000Y-75826252D01*
%TO.C,C14*%
X109755000Y-75303748D02*
X109755000Y-75826252D01*
X111225000Y-75303748D02*
X111225000Y-75826252D01*
%TO.C,C13*%
X101226252Y-71655000D02*
X100703748Y-71655000D01*
X101226252Y-73125000D02*
X100703748Y-73125000D01*
%TO.C,D1*%
X119805000Y-121760000D02*
X119805000Y-114460000D01*
X120955000Y-121760000D02*
X119805000Y-121760000D01*
X125305000Y-121760000D02*
X125305000Y-114460000D01*
%TO.C,C4*%
X124086252Y-96620000D02*
X123563748Y-96620000D01*
X124086252Y-95150000D02*
X123563748Y-95150000D01*
%TO.C,C1*%
X106418748Y-89000000D02*
X106941252Y-89000000D01*
X106418748Y-87530000D02*
X106941252Y-87530000D01*
%TO.C,R1*%
X118466359Y-92330000D02*
X118773641Y-92330000D01*
X118466359Y-93090000D02*
X118773641Y-93090000D01*
%TO.C,R2*%
X115088641Y-89280000D02*
X114781359Y-89280000D01*
X115088641Y-88520000D02*
X114781359Y-88520000D01*
%TO.C,C11*%
X85625000Y-66936252D02*
X85625000Y-66413748D01*
X87095000Y-66936252D02*
X87095000Y-66413748D01*
%TO.C,C10*%
X87095000Y-70746252D02*
X87095000Y-70223748D01*
X85625000Y-70746252D02*
X85625000Y-70223748D01*
%TO.C,C12*%
X85625000Y-63126252D02*
X85625000Y-62603748D01*
X87095000Y-63126252D02*
X87095000Y-62603748D01*
%TO.C,C2*%
X108846252Y-98960000D02*
X108323748Y-98960000D01*
X108846252Y-100430000D02*
X108323748Y-100430000D01*
%TO.C,U2*%
X120485001Y-83655000D02*
G75*
G03*
X120485001Y-83655000I-1J0D01*
G01*
%TO.C,D4*%
X100540000Y-121760000D02*
X100540000Y-114460000D01*
X96190000Y-121760000D02*
X95040000Y-121760000D01*
X95040000Y-121760000D02*
X95040000Y-114460000D01*
%TO.C,R4*%
X109627936Y-107215000D02*
X110082064Y-107215000D01*
X109627936Y-108685000D02*
X110082064Y-108685000D01*
%TO.C,D5*%
X86785000Y-121760000D02*
X86785000Y-114460000D01*
X92285000Y-121760000D02*
X92285000Y-114460000D01*
X87935000Y-121760000D02*
X86785000Y-121760000D01*
%TO.C,C6*%
X106418748Y-102455000D02*
X106941252Y-102455000D01*
X106418748Y-103925000D02*
X106941252Y-103925000D01*
%TO.C,D2*%
X111550000Y-121760000D02*
X111550000Y-114460000D01*
X112700000Y-121760000D02*
X111550000Y-121760000D01*
X117050000Y-121760000D02*
X117050000Y-114460000D01*
%TO.C,C7*%
X120388748Y-87530000D02*
X120911252Y-87530000D01*
X120388748Y-89000000D02*
X120911252Y-89000000D01*
%TO.C,C5*%
X114400000Y-91813748D02*
X114400000Y-92336252D01*
X112930000Y-91813748D02*
X112930000Y-92336252D01*
%TO.C,U1*%
X119815000Y-96085000D02*
X119815000Y-96535000D01*
X112595000Y-96535000D02*
X111305000Y-96535000D01*
X119365000Y-96085000D02*
X119815000Y-96085000D01*
X119815000Y-103305000D02*
X119815000Y-102855000D01*
X112595000Y-96085000D02*
X112595000Y-96535000D01*
X112595000Y-103305000D02*
X112595000Y-102855000D01*
X119365000Y-103305000D02*
X119815000Y-103305000D01*
X113045000Y-103305000D02*
X112595000Y-103305000D01*
X113045000Y-96085000D02*
X112595000Y-96085000D01*
%TO.C,J1*%
X84540000Y-102240000D02*
X85865000Y-102240000D01*
X85865000Y-102175000D02*
X89395000Y-102175000D01*
X85865000Y-108580000D02*
X85865000Y-108645000D01*
X85865000Y-108645000D02*
X89395000Y-108645000D01*
X85865000Y-102175000D02*
X85865000Y-102240000D01*
X89395000Y-108580000D02*
X89395000Y-108645000D01*
X89395000Y-102175000D02*
X89395000Y-102240000D01*
%TO.C,R3*%
X105817936Y-108685000D02*
X106272064Y-108685000D01*
X105817936Y-107215000D02*
X106272064Y-107215000D01*
%TO.C,C9*%
X85986252Y-74395000D02*
X85463748Y-74395000D01*
X85986252Y-72925000D02*
X85463748Y-72925000D01*
%TO.C,C3*%
X118010000Y-108211252D02*
X118010000Y-107688748D01*
X119480000Y-108211252D02*
X119480000Y-107688748D01*
%TO.C,D3*%
X108795000Y-121760000D02*
X108795000Y-114460000D01*
X104445000Y-121760000D02*
X103295000Y-121760000D01*
X103295000Y-121760000D02*
X103295000Y-114460000D01*
%TO.C,C8*%
X125468748Y-87530000D02*
X125991252Y-87530000D01*
X125468748Y-89000000D02*
X125991252Y-89000000D01*
%TD*%
%LPC*%
D15*
%TO.C,U5*%
X116865000Y-70090000D03*
X116865000Y-72390000D03*
X116865000Y-74690000D03*
D16*
X123165000Y-72390000D03*
%TD*%
D17*
%TO.C,U4*%
X104272500Y-70805000D03*
X104272500Y-71755000D03*
X104272500Y-72705000D03*
X106547500Y-72705000D03*
X106547500Y-70805000D03*
%TD*%
D18*
%TO.C,L1*%
X96820000Y-65405000D03*
X102870000Y-65405000D03*
%TD*%
D19*
%TO.C,J3*%
X124460000Y-59055000D03*
D20*
X124460000Y-56515000D03*
%TD*%
D21*
%TO.C,J2*%
X105045000Y-58727500D03*
D22*
X107045000Y-58727500D03*
%TD*%
D23*
%TO.C,D6*%
X111890000Y-70485000D03*
X109090000Y-70485000D03*
%TD*%
D24*
%TO.C,C16*%
X127950000Y-72390000D03*
X126050000Y-72390000D03*
%TD*%
D25*
%TO.C,C15*%
X113665000Y-74615000D03*
X113665000Y-76515000D03*
%TD*%
%TO.C,C14*%
X110490000Y-74615000D03*
X110490000Y-76515000D03*
%TD*%
D24*
%TO.C,C13*%
X101915000Y-72390000D03*
X100015000Y-72390000D03*
%TD*%
D26*
%TO.C,D1*%
X120955000Y-120560000D03*
X122555000Y-120560000D03*
X124155000Y-120560000D03*
X124155000Y-115660000D03*
X122555000Y-115660000D03*
X120955000Y-115660000D03*
%TD*%
D24*
%TO.C,C4*%
X124775000Y-95885000D03*
X122875000Y-95885000D03*
%TD*%
D27*
%TO.C,C1*%
X105730000Y-88265000D03*
X107630000Y-88265000D03*
%TD*%
D28*
%TO.C,R1*%
X118110000Y-92710000D03*
X119130000Y-92710000D03*
%TD*%
D29*
%TO.C,R2*%
X115445000Y-88900000D03*
X114425000Y-88900000D03*
%TD*%
D30*
%TO.C,C11*%
X86360000Y-67625000D03*
X86360000Y-65725000D03*
%TD*%
%TO.C,C10*%
X86360000Y-71435000D03*
X86360000Y-69535000D03*
%TD*%
%TO.C,C12*%
X86360000Y-63815000D03*
X86360000Y-61915000D03*
%TD*%
D24*
%TO.C,C2*%
X109535000Y-99695000D03*
X107635000Y-99695000D03*
%TD*%
D31*
%TO.C,U2*%
X120535000Y-84205000D03*
X120535000Y-84705000D03*
D32*
X120785000Y-85230000D03*
X121285000Y-85230000D03*
X121785000Y-85230000D03*
D31*
X122035000Y-84705000D03*
X122035000Y-84205000D03*
X121785000Y-83680000D03*
X121285000Y-83680000D03*
X120785000Y-83680000D03*
%TD*%
D26*
%TO.C,D4*%
X96190000Y-120560000D03*
X97790000Y-120560000D03*
X99390000Y-120560000D03*
X99390000Y-115660000D03*
X97790000Y-115660000D03*
X96190000Y-115660000D03*
%TD*%
D33*
%TO.C,R4*%
X108942500Y-107950000D03*
X110767500Y-107950000D03*
%TD*%
D26*
%TO.C,D5*%
X87935000Y-120560000D03*
X89535000Y-120560000D03*
X91135000Y-120560000D03*
X91135000Y-115660000D03*
X89535000Y-115660000D03*
X87935000Y-115660000D03*
%TD*%
D27*
%TO.C,C6*%
X105730000Y-103190000D03*
X107630000Y-103190000D03*
%TD*%
D26*
%TO.C,D2*%
X112700000Y-120560000D03*
X114300000Y-120560000D03*
X115900000Y-120560000D03*
X115900000Y-115660000D03*
X114300000Y-115660000D03*
X112700000Y-115660000D03*
%TD*%
D27*
%TO.C,C7*%
X119700000Y-88265000D03*
X121600000Y-88265000D03*
%TD*%
D25*
%TO.C,C5*%
X113665000Y-91125000D03*
X113665000Y-93025000D03*
%TD*%
D34*
%TO.C,U1*%
X112042500Y-96945000D03*
X112042500Y-97445000D03*
X112042500Y-97945000D03*
X112042500Y-98445000D03*
X112042500Y-98945000D03*
X112042500Y-99445000D03*
X112042500Y-99945000D03*
X112042500Y-100445000D03*
X112042500Y-100945000D03*
X112042500Y-101445000D03*
X112042500Y-101945000D03*
X112042500Y-102445000D03*
D35*
X113455000Y-103857500D03*
X113955000Y-103857500D03*
X114455000Y-103857500D03*
X114955000Y-103857500D03*
X115455000Y-103857500D03*
X115955000Y-103857500D03*
X116455000Y-103857500D03*
X116955000Y-103857500D03*
X117455000Y-103857500D03*
X117955000Y-103857500D03*
X118455000Y-103857500D03*
X118955000Y-103857500D03*
D34*
X120367500Y-102445000D03*
X120367500Y-101945000D03*
X120367500Y-101445000D03*
X120367500Y-100945000D03*
X120367500Y-100445000D03*
X120367500Y-99945000D03*
X120367500Y-99445000D03*
X120367500Y-98945000D03*
X120367500Y-98445000D03*
X120367500Y-97945000D03*
X120367500Y-97445000D03*
X120367500Y-96945000D03*
D35*
X118955000Y-95532500D03*
X118455000Y-95532500D03*
X117955000Y-95532500D03*
X117455000Y-95532500D03*
X116955000Y-95532500D03*
X116455000Y-95532500D03*
X115955000Y-95532500D03*
X115455000Y-95532500D03*
X114955000Y-95532500D03*
X114455000Y-95532500D03*
X113955000Y-95532500D03*
X113455000Y-95532500D03*
%TD*%
D36*
%TO.C,U3*%
X81915000Y-92075000D03*
X81915000Y-90805000D03*
X81915000Y-89535000D03*
X81915000Y-88265000D03*
X81915000Y-86995000D03*
X81915000Y-85725000D03*
X81915000Y-84455000D03*
X81915000Y-83185000D03*
X81915000Y-81915000D03*
X81915000Y-80645000D03*
X81915000Y-79375000D03*
X81915000Y-78105000D03*
X81915000Y-76835000D03*
X81915000Y-75565000D03*
X81915000Y-74295000D03*
X81915000Y-73025000D03*
X81915000Y-71755000D03*
X81915000Y-70485000D03*
X81915000Y-69215000D03*
X81915000Y-67945000D03*
X81915000Y-66675000D03*
X81915000Y-65405000D03*
X81915000Y-64135000D03*
X81915000Y-62865000D03*
X81915000Y-61595000D03*
X81915000Y-60325000D03*
X81915000Y-59055000D03*
X81915000Y-57785000D03*
%TD*%
D37*
%TO.C,J1*%
X85680000Y-102870000D03*
X89580000Y-102870000D03*
X85680000Y-104140000D03*
X89580000Y-104140000D03*
X85680000Y-105410000D03*
X89580000Y-105410000D03*
X85680000Y-106680000D03*
X89580000Y-106680000D03*
X85680000Y-107950000D03*
X89580000Y-107950000D03*
%TD*%
D33*
%TO.C,R3*%
X105132500Y-107950000D03*
X106957500Y-107950000D03*
%TD*%
D24*
%TO.C,C9*%
X86675000Y-73660000D03*
X84775000Y-73660000D03*
%TD*%
D30*
%TO.C,C3*%
X118745000Y-108900000D03*
X118745000Y-107000000D03*
%TD*%
D26*
%TO.C,D3*%
X104445000Y-120560000D03*
X106045000Y-120560000D03*
X107645000Y-120560000D03*
X107645000Y-115660000D03*
X106045000Y-115660000D03*
X104445000Y-115660000D03*
%TD*%
D27*
%TO.C,C8*%
X124780000Y-88265000D03*
X126680000Y-88265000D03*
%TD*%
M02*
