%TF.GenerationSoftware,KiCad,Pcbnew,(6.0.2)*%
%TF.CreationDate,2023-04-06T22:37:41-04:00*%
%TF.ProjectId,skydiving-altimeter,736b7964-6976-4696-9e67-2d616c74696d,rev?*%
%TF.SameCoordinates,Original*%
%TF.FileFunction,Copper,L1,Top*%
%TF.FilePolarity,Positive*%
%FSLAX46Y46*%
G04 Gerber Fmt 4.6, Leading zero omitted, Abs format (unit mm)*
G04 Created by KiCad (PCBNEW (6.0.2)) date 2023-04-06 22:37:41*
%MOMM*%
%LPD*%
G01*
G04 APERTURE LIST*
G04 Aperture macros list*
%AMRoundRect*
0 Rectangle with rounded corners*
0 $1 Rounding radius*
0 $2 $3 $4 $5 $6 $7 $8 $9 X,Y pos of 4 corners*
0 Add a 4 corners polygon primitive as box body*
4,1,4,$2,$3,$4,$5,$6,$7,$8,$9,$2,$3,0*
0 Add four circle primitives for the rounded corners*
1,1,$1+$1,$2,$3*
1,1,$1+$1,$4,$5*
1,1,$1+$1,$6,$7*
1,1,$1+$1,$8,$9*
0 Add four rect primitives between the rounded corners*
20,1,$1+$1,$2,$3,$4,$5,0*
20,1,$1+$1,$4,$5,$6,$7,0*
20,1,$1+$1,$6,$7,$8,$9,0*
20,1,$1+$1,$8,$9,$2,$3,0*%
G04 Aperture macros list end*
%TA.AperFunction,SMDPad,CuDef*%
%ADD10R,2.000000X1.500000*%
%TD*%
%TA.AperFunction,SMDPad,CuDef*%
%ADD11R,2.000000X3.800000*%
%TD*%
%TA.AperFunction,SMDPad,CuDef*%
%ADD12RoundRect,0.150000X-0.512500X-0.150000X0.512500X-0.150000X0.512500X0.150000X-0.512500X0.150000X0*%
%TD*%
%TA.AperFunction,SMDPad,CuDef*%
%ADD13R,2.350000X3.500000*%
%TD*%
%TA.AperFunction,ComponentPad*%
%ADD14R,1.700000X1.700000*%
%TD*%
%TA.AperFunction,ComponentPad*%
%ADD15O,1.700000X1.700000*%
%TD*%
%TA.AperFunction,ComponentPad*%
%ADD16C,1.308000*%
%TD*%
%TA.AperFunction,ComponentPad*%
%ADD17R,1.308000X1.308000*%
%TD*%
%TA.AperFunction,SMDPad,CuDef*%
%ADD18R,1.100000X1.100000*%
%TD*%
%TA.AperFunction,SMDPad,CuDef*%
%ADD19RoundRect,0.250000X0.250000X0.475000X-0.250000X0.475000X-0.250000X-0.475000X0.250000X-0.475000X0*%
%TD*%
%TA.AperFunction,SMDPad,CuDef*%
%ADD20RoundRect,0.250000X-0.475000X0.250000X-0.475000X-0.250000X0.475000X-0.250000X0.475000X0.250000X0*%
%TD*%
%TA.AperFunction,SMDPad,CuDef*%
%ADD21R,1.000000X1.500000*%
%TD*%
%TA.AperFunction,SMDPad,CuDef*%
%ADD22RoundRect,0.250000X-0.250000X-0.475000X0.250000X-0.475000X0.250000X0.475000X-0.250000X0.475000X0*%
%TD*%
%TA.AperFunction,SMDPad,CuDef*%
%ADD23RoundRect,0.135000X-0.135000X-0.185000X0.135000X-0.185000X0.135000X0.185000X-0.135000X0.185000X0*%
%TD*%
%TA.AperFunction,SMDPad,CuDef*%
%ADD24RoundRect,0.135000X0.135000X0.185000X-0.135000X0.185000X-0.135000X-0.185000X0.135000X-0.185000X0*%
%TD*%
%TA.AperFunction,SMDPad,CuDef*%
%ADD25RoundRect,0.250000X0.475000X-0.250000X0.475000X0.250000X-0.475000X0.250000X-0.475000X-0.250000X0*%
%TD*%
%TA.AperFunction,SMDPad,CuDef*%
%ADD26R,0.325000X0.300000*%
%TD*%
%TA.AperFunction,SMDPad,CuDef*%
%ADD27R,0.300000X0.325000*%
%TD*%
%TA.AperFunction,SMDPad,CuDef*%
%ADD28RoundRect,0.250000X-0.262500X-0.450000X0.262500X-0.450000X0.262500X0.450000X-0.262500X0.450000X0*%
%TD*%
%TA.AperFunction,SMDPad,CuDef*%
%ADD29RoundRect,0.075000X-0.662500X-0.075000X0.662500X-0.075000X0.662500X0.075000X-0.662500X0.075000X0*%
%TD*%
%TA.AperFunction,SMDPad,CuDef*%
%ADD30RoundRect,0.075000X-0.075000X-0.662500X0.075000X-0.662500X0.075000X0.662500X-0.075000X0.662500X0*%
%TD*%
%TA.AperFunction,SMDPad,CuDef*%
%ADD31RoundRect,0.250000X0.750000X-0.250000X0.750000X0.250000X-0.750000X0.250000X-0.750000X-0.250000X0*%
%TD*%
%TA.AperFunction,SMDPad,CuDef*%
%ADD32R,2.400000X0.740000*%
%TD*%
%TA.AperFunction,ViaPad*%
%ADD33C,0.800000*%
%TD*%
%TA.AperFunction,Conductor*%
%ADD34C,0.250000*%
%TD*%
G04 APERTURE END LIST*
D10*
%TO.P,U5,1,GND*%
%TO.N,GND*%
X116865000Y-70090000D03*
%TO.P,U5,2,VOUT*%
%TO.N,+3V3*%
X116865000Y-72390000D03*
%TO.P,U5,3,VIN*%
%TO.N,+5V*%
X116865000Y-74690000D03*
D11*
%TO.P,U5,4,VOUT*%
%TO.N,+3V3*%
X123165000Y-72390000D03*
%TD*%
D12*
%TO.P,U4,1,CE*%
%TO.N,/Power/VIN*%
X104272500Y-70805000D03*
%TO.P,U4,2,GND*%
%TO.N,GND*%
X104272500Y-71755000D03*
%TO.P,U4,3,VIN*%
%TO.N,/Power/VIN*%
X104272500Y-72705000D03*
%TO.P,U4,4,VOUT*%
%TO.N,+5V*%
X106547500Y-72705000D03*
%TO.P,U4,5,LX*%
%TO.N,Net-(D6-Pad2)*%
X106547500Y-70805000D03*
%TD*%
D13*
%TO.P,L1,1,1*%
%TO.N,/Power/VIN*%
X96820000Y-65405000D03*
%TO.P,L1,2,2*%
%TO.N,Net-(D6-Pad2)*%
X102870000Y-65405000D03*
%TD*%
D14*
%TO.P,J3,1,Pin_1*%
%TO.N,/Power/VIN*%
X124460000Y-59055000D03*
D15*
%TO.P,J3,2,Pin_2*%
%TO.N,Net-(J2-Pad1)*%
X124460000Y-56515000D03*
%TD*%
D16*
%TO.P,J2,2,Pin_2*%
%TO.N,GND*%
X105045000Y-58727500D03*
D17*
%TO.P,J2,1,Pin_1*%
%TO.N,Net-(J2-Pad1)*%
X107045000Y-58727500D03*
%TD*%
D18*
%TO.P,D6,1,K*%
%TO.N,+5V*%
X111890000Y-70485000D03*
%TO.P,D6,2,A*%
%TO.N,Net-(D6-Pad2)*%
X109090000Y-70485000D03*
%TD*%
D19*
%TO.P,C16,1*%
%TO.N,GND*%
X127950000Y-72390000D03*
%TO.P,C16,2*%
%TO.N,+3V3*%
X126050000Y-72390000D03*
%TD*%
D20*
%TO.P,C15,1*%
%TO.N,unconnected-(C15-Pad1)*%
X113665000Y-74615000D03*
%TO.P,C15,2*%
%TO.N,GND*%
X113665000Y-76515000D03*
%TD*%
%TO.P,C14,1*%
%TO.N,+5V*%
X110490000Y-74615000D03*
%TO.P,C14,2*%
%TO.N,GND*%
X110490000Y-76515000D03*
%TD*%
D19*
%TO.P,C13,1*%
%TO.N,/Power/VIN*%
X101915000Y-72390000D03*
%TO.P,C13,2*%
%TO.N,GND*%
X100015000Y-72390000D03*
%TD*%
D21*
%TO.P,D1,1,BO*%
%TO.N,Net-(D1-Pad1)*%
X120955000Y-120560000D03*
%TO.P,D1,2,VCC*%
%TO.N,+5V*%
X122555000Y-120560000D03*
%TO.P,D1,3,DO*%
%TO.N,Net-(D1-Pad3)*%
X124155000Y-120560000D03*
%TO.P,D1,4,DI*%
%TO.N,/LED_DI*%
X124155000Y-115660000D03*
%TO.P,D1,5,GND*%
%TO.N,GND*%
X122555000Y-115660000D03*
%TO.P,D1,6,BI*%
%TO.N,/LED_DI*%
X120955000Y-115660000D03*
%TD*%
D19*
%TO.P,C4,1*%
%TO.N,GND*%
X124775000Y-95885000D03*
%TO.P,C4,2*%
%TO.N,+3V3*%
X122875000Y-95885000D03*
%TD*%
D22*
%TO.P,C1,1*%
%TO.N,GND*%
X105730000Y-88265000D03*
%TO.P,C1,2*%
%TO.N,+3V3*%
X107630000Y-88265000D03*
%TD*%
D23*
%TO.P,R1,1*%
%TO.N,/Baro Sensor/SCL*%
X118110000Y-92710000D03*
%TO.P,R1,2*%
%TO.N,+3V3*%
X119130000Y-92710000D03*
%TD*%
D24*
%TO.P,R2,1*%
%TO.N,/Baro Sensor/SDA*%
X115445000Y-88900000D03*
%TO.P,R2,2*%
%TO.N,+3V3*%
X114425000Y-88900000D03*
%TD*%
D25*
%TO.P,C11,1*%
%TO.N,Net-(C10-Pad2)*%
X86360000Y-67625000D03*
%TO.P,C11,2*%
%TO.N,Net-(C11-Pad2)*%
X86360000Y-65725000D03*
%TD*%
%TO.P,C10,1*%
%TO.N,Net-(C10-Pad1)*%
X86360000Y-71435000D03*
%TO.P,C10,2*%
%TO.N,Net-(C10-Pad2)*%
X86360000Y-69535000D03*
%TD*%
%TO.P,C12,1*%
%TO.N,Net-(C12-Pad1)*%
X86360000Y-63815000D03*
%TO.P,C12,2*%
%TO.N,Net-(C12-Pad2)*%
X86360000Y-61915000D03*
%TD*%
D19*
%TO.P,C2,1*%
%TO.N,Net-(C2-Pad1)*%
X109535000Y-99695000D03*
%TO.P,C2,2*%
%TO.N,GND*%
X107635000Y-99695000D03*
%TD*%
D26*
%TO.P,U2,1,VDDIO*%
%TO.N,+3V3*%
X120535000Y-84205000D03*
%TO.P,U2,2,SCK*%
%TO.N,/Baro Sensor/SCL*%
X120535000Y-84705000D03*
D27*
%TO.P,U2,3,VSS*%
%TO.N,GND*%
X120785000Y-85230000D03*
%TO.P,U2,4,SDI*%
%TO.N,/Baro Sensor/SDA*%
X121285000Y-85230000D03*
%TO.P,U2,5,SDO*%
%TO.N,+3V3*%
X121785000Y-85230000D03*
D26*
%TO.P,U2,6,CSB*%
%TO.N,unconnected-(U2-Pad6)*%
X122035000Y-84705000D03*
%TO.P,U2,7,INT*%
%TO.N,unconnected-(U2-Pad7)*%
X122035000Y-84205000D03*
%TO.P,U2,8,VSS*%
%TO.N,GND*%
X121785000Y-83680000D03*
%TO.P,U2,9,VSS*%
X121285000Y-83680000D03*
%TO.P,U2,10,VDD*%
%TO.N,+3V3*%
X120785000Y-83680000D03*
%TD*%
D21*
%TO.P,D4,1,BO*%
%TO.N,Net-(D4-Pad1)*%
X96190000Y-120560000D03*
%TO.P,D4,2,VCC*%
%TO.N,+5V*%
X97790000Y-120560000D03*
%TO.P,D4,3,DO*%
%TO.N,Net-(D4-Pad3)*%
X99390000Y-120560000D03*
%TO.P,D4,4,DI*%
%TO.N,Net-(D3-Pad3)*%
X99390000Y-115660000D03*
%TO.P,D4,5,GND*%
%TO.N,GND*%
X97790000Y-115660000D03*
%TO.P,D4,6,BI*%
%TO.N,Net-(D3-Pad1)*%
X96190000Y-115660000D03*
%TD*%
D28*
%TO.P,R4,1*%
%TO.N,Net-(R3-Pad2)*%
X108942500Y-107950000D03*
%TO.P,R4,2*%
%TO.N,GND*%
X110767500Y-107950000D03*
%TD*%
D21*
%TO.P,D5,1,BO*%
%TO.N,unconnected-(D5-Pad1)*%
X87935000Y-120560000D03*
%TO.P,D5,2,VCC*%
%TO.N,+5V*%
X89535000Y-120560000D03*
%TO.P,D5,3,DO*%
%TO.N,unconnected-(D5-Pad3)*%
X91135000Y-120560000D03*
%TO.P,D5,4,DI*%
%TO.N,Net-(D4-Pad3)*%
X91135000Y-115660000D03*
%TO.P,D5,5,GND*%
%TO.N,GND*%
X89535000Y-115660000D03*
%TO.P,D5,6,BI*%
%TO.N,Net-(D4-Pad1)*%
X87935000Y-115660000D03*
%TD*%
D22*
%TO.P,C6,1*%
%TO.N,GND*%
X105730000Y-103190000D03*
%TO.P,C6,2*%
%TO.N,+3V3*%
X107630000Y-103190000D03*
%TD*%
D21*
%TO.P,D2,1,BO*%
%TO.N,Net-(D2-Pad1)*%
X112700000Y-120560000D03*
%TO.P,D2,2,VCC*%
%TO.N,+5V*%
X114300000Y-120560000D03*
%TO.P,D2,3,DO*%
%TO.N,Net-(D2-Pad3)*%
X115900000Y-120560000D03*
%TO.P,D2,4,DI*%
%TO.N,Net-(D1-Pad3)*%
X115900000Y-115660000D03*
%TO.P,D2,5,GND*%
%TO.N,GND*%
X114300000Y-115660000D03*
%TO.P,D2,6,BI*%
%TO.N,Net-(D1-Pad1)*%
X112700000Y-115660000D03*
%TD*%
D22*
%TO.P,C7,1*%
%TO.N,GND*%
X119700000Y-88265000D03*
%TO.P,C7,2*%
%TO.N,+3V3*%
X121600000Y-88265000D03*
%TD*%
D20*
%TO.P,C5,1*%
%TO.N,GND*%
X113665000Y-91125000D03*
%TO.P,C5,2*%
%TO.N,+3V3*%
X113665000Y-93025000D03*
%TD*%
D29*
%TO.P,U1,1,VBAT*%
%TO.N,unconnected-(U1-Pad1)*%
X112042500Y-96945000D03*
%TO.P,U1,2,PC13*%
%TO.N,unconnected-(U1-Pad2)*%
X112042500Y-97445000D03*
%TO.P,U1,3,PC14*%
%TO.N,unconnected-(U1-Pad3)*%
X112042500Y-97945000D03*
%TO.P,U1,4,PC15*%
%TO.N,unconnected-(U1-Pad4)*%
X112042500Y-98445000D03*
%TO.P,U1,5,PD0*%
%TO.N,unconnected-(U1-Pad5)*%
X112042500Y-98945000D03*
%TO.P,U1,6,PD1*%
%TO.N,unconnected-(U1-Pad6)*%
X112042500Y-99445000D03*
%TO.P,U1,7,NRST*%
%TO.N,Net-(C2-Pad1)*%
X112042500Y-99945000D03*
%TO.P,U1,8,VSSA*%
%TO.N,GND*%
X112042500Y-100445000D03*
%TO.P,U1,9,VDDA*%
%TO.N,+3V3*%
X112042500Y-100945000D03*
%TO.P,U1,10,PA0*%
%TO.N,Net-(R3-Pad2)*%
X112042500Y-101445000D03*
%TO.P,U1,11,PA1*%
%TO.N,/LED_DI*%
X112042500Y-101945000D03*
%TO.P,U1,12,PA2*%
%TO.N,/Display/WR*%
X112042500Y-102445000D03*
D30*
%TO.P,U1,13,PA3*%
%TO.N,/STM_32/PA3*%
X113455000Y-103857500D03*
%TO.P,U1,14,PA4*%
%TO.N,/Display/COMMAND_MODE*%
X113955000Y-103857500D03*
%TO.P,U1,15,PA5*%
%TO.N,/Display/RD*%
X114455000Y-103857500D03*
%TO.P,U1,16,PA6*%
%TO.N,unconnected-(U1-Pad16)*%
X114955000Y-103857500D03*
%TO.P,U1,17,PA7*%
%TO.N,unconnected-(U1-Pad17)*%
X115455000Y-103857500D03*
%TO.P,U1,18,PB0*%
%TO.N,unconnected-(U1-Pad18)*%
X115955000Y-103857500D03*
%TO.P,U1,19,PB1*%
%TO.N,unconnected-(U1-Pad19)*%
X116455000Y-103857500D03*
%TO.P,U1,20,PB2*%
%TO.N,unconnected-(U1-Pad20)*%
X116955000Y-103857500D03*
%TO.P,U1,21,PB10*%
%TO.N,/Display/DB2*%
X117455000Y-103857500D03*
%TO.P,U1,22,PB11*%
%TO.N,/Display/DB3*%
X117955000Y-103857500D03*
%TO.P,U1,23,VSS*%
%TO.N,GND*%
X118455000Y-103857500D03*
%TO.P,U1,24,VDD*%
%TO.N,+3V3*%
X118955000Y-103857500D03*
D29*
%TO.P,U1,25,PB12*%
%TO.N,/Display/DB4*%
X120367500Y-102445000D03*
%TO.P,U1,26,PB13*%
%TO.N,/Display/DB5*%
X120367500Y-101945000D03*
%TO.P,U1,27,PB14*%
%TO.N,/Display/DB6*%
X120367500Y-101445000D03*
%TO.P,U1,28,PB15*%
%TO.N,/Display/DB7*%
X120367500Y-100945000D03*
%TO.P,U1,29,PA8*%
%TO.N,unconnected-(U1-Pad29)*%
X120367500Y-100445000D03*
%TO.P,U1,30,PA9*%
%TO.N,unconnected-(U1-Pad30)*%
X120367500Y-99945000D03*
%TO.P,U1,31,PA10*%
%TO.N,unconnected-(U1-Pad31)*%
X120367500Y-99445000D03*
%TO.P,U1,32,PA11*%
%TO.N,unconnected-(U1-Pad32)*%
X120367500Y-98945000D03*
%TO.P,U1,33,PA12*%
%TO.N,unconnected-(U1-Pad33)*%
X120367500Y-98445000D03*
%TO.P,U1,34,PA13*%
%TO.N,/STM_32/SWDIO*%
X120367500Y-97945000D03*
%TO.P,U1,35,VSS*%
%TO.N,GND*%
X120367500Y-97445000D03*
%TO.P,U1,36,VDD*%
%TO.N,+3V3*%
X120367500Y-96945000D03*
D30*
%TO.P,U1,37,PA14*%
%TO.N,/STM_32/SWCLK*%
X118955000Y-95532500D03*
%TO.P,U1,38,PA15*%
%TO.N,unconnected-(U1-Pad38)*%
X118455000Y-95532500D03*
%TO.P,U1,39,PB3*%
%TO.N,unconnected-(U1-Pad39)*%
X117955000Y-95532500D03*
%TO.P,U1,40,PB4*%
%TO.N,unconnected-(U1-Pad40)*%
X117455000Y-95532500D03*
%TO.P,U1,41,PB5*%
%TO.N,unconnected-(U1-Pad41)*%
X116955000Y-95532500D03*
%TO.P,U1,42,PB6*%
%TO.N,/Baro Sensor/SCL*%
X116455000Y-95532500D03*
%TO.P,U1,43,PB7*%
%TO.N,/Baro Sensor/SDA*%
X115955000Y-95532500D03*
%TO.P,U1,44,BOOT0*%
%TO.N,GND*%
X115455000Y-95532500D03*
%TO.P,U1,45,PB8*%
%TO.N,/Display/DB0*%
X114955000Y-95532500D03*
%TO.P,U1,46,PB9*%
%TO.N,/Display/DB1*%
X114455000Y-95532500D03*
%TO.P,U1,47,VSS*%
%TO.N,GND*%
X113955000Y-95532500D03*
%TO.P,U1,48,VDD*%
%TO.N,+3V3*%
X113455000Y-95532500D03*
%TD*%
D31*
%TO.P,U3,1,CS1*%
%TO.N,+3V3*%
X81915000Y-92075000D03*
%TO.P,U3,2,RST*%
X81915000Y-90805000D03*
%TO.P,U3,3,A0*%
%TO.N,/Display/COMMAND_MODE*%
X81915000Y-89535000D03*
%TO.P,U3,4,WR*%
%TO.N,/Display/WR*%
X81915000Y-88265000D03*
%TO.P,U3,5,RD*%
%TO.N,/Display/RD*%
X81915000Y-86995000D03*
%TO.P,U3,6,DB0*%
%TO.N,/Display/DB0*%
X81915000Y-85725000D03*
%TO.P,U3,7,DB1*%
%TO.N,/Display/DB1*%
X81915000Y-84455000D03*
%TO.P,U3,8,DB2*%
%TO.N,/Display/DB2*%
X81915000Y-83185000D03*
%TO.P,U3,9,DB3*%
%TO.N,/Display/DB3*%
X81915000Y-81915000D03*
%TO.P,U3,10,DB4*%
%TO.N,/Display/DB4*%
X81915000Y-80645000D03*
%TO.P,U3,11,DB5*%
%TO.N,/Display/DB5*%
X81915000Y-79375000D03*
%TO.P,U3,12,DB6*%
%TO.N,/Display/DB6*%
X81915000Y-78105000D03*
%TO.P,U3,13,DB7*%
%TO.N,/Display/DB7*%
X81915000Y-76835000D03*
%TO.P,U3,14,VDD*%
%TO.N,+3V3*%
X81915000Y-75565000D03*
%TO.P,U3,15,VSS*%
%TO.N,GND*%
X81915000Y-74295000D03*
%TO.P,U3,16,VOUT*%
%TO.N,Net-(C9-Pad2)*%
X81915000Y-73025000D03*
%TO.P,U3,17,CAP3P*%
%TO.N,Net-(C10-Pad1)*%
X81915000Y-71755000D03*
%TO.P,U3,18,CAP1N*%
%TO.N,Net-(C10-Pad2)*%
X81915000Y-70485000D03*
%TO.P,U3,19,CAP1P*%
%TO.N,Net-(C11-Pad2)*%
X81915000Y-69215000D03*
%TO.P,U3,20,CAP2P*%
%TO.N,Net-(C12-Pad1)*%
X81915000Y-67945000D03*
%TO.P,U3,21,CAP2N*%
%TO.N,Net-(C12-Pad2)*%
X81915000Y-66675000D03*
%TO.P,U3,22,V4*%
%TO.N,GND*%
X81915000Y-65405000D03*
%TO.P,U3,23,V3*%
X81915000Y-64135000D03*
%TO.P,U3,24,V2*%
X81915000Y-62865000D03*
%TO.P,U3,25,V1*%
X81915000Y-61595000D03*
%TO.P,U3,26,V0*%
X81915000Y-60325000D03*
%TO.P,U3,27,C86*%
X81915000Y-59055000D03*
%TO.P,U3,28,P/S*%
%TO.N,+3V3*%
X81915000Y-57785000D03*
%TD*%
D32*
%TO.P,J1,1,VTref*%
%TO.N,+3V3*%
X85680000Y-102870000D03*
%TO.P,J1,2,SWDIO/TMS*%
%TO.N,/STM_32/SWDIO*%
X89580000Y-102870000D03*
%TO.P,J1,3,GND*%
%TO.N,GND*%
X85680000Y-104140000D03*
%TO.P,J1,4,SWDCLK/TCK*%
%TO.N,/STM_32/SWCLK*%
X89580000Y-104140000D03*
%TO.P,J1,5,GND*%
%TO.N,GND*%
X85680000Y-105410000D03*
%TO.P,J1,6,SWO/TDO*%
%TO.N,unconnected-(J1-Pad6)*%
X89580000Y-105410000D03*
%TO.P,J1,7,KEY*%
%TO.N,unconnected-(J1-Pad7)*%
X85680000Y-106680000D03*
%TO.P,J1,8,NC/TDI*%
%TO.N,unconnected-(J1-Pad8)*%
X89580000Y-106680000D03*
%TO.P,J1,9,GNDDetect*%
%TO.N,GND*%
X85680000Y-107950000D03*
%TO.P,J1,10,~{RESET}*%
X89580000Y-107950000D03*
%TD*%
D28*
%TO.P,R3,1*%
%TO.N,/STM_32/VBAT*%
X105132500Y-107950000D03*
%TO.P,R3,2*%
%TO.N,Net-(R3-Pad2)*%
X106957500Y-107950000D03*
%TD*%
D19*
%TO.P,C9,1*%
%TO.N,GND*%
X86675000Y-73660000D03*
%TO.P,C9,2*%
%TO.N,Net-(C9-Pad2)*%
X84775000Y-73660000D03*
%TD*%
D25*
%TO.P,C3,1*%
%TO.N,GND*%
X118745000Y-108900000D03*
%TO.P,C3,2*%
%TO.N,+3V3*%
X118745000Y-107000000D03*
%TD*%
D21*
%TO.P,D3,1,BO*%
%TO.N,Net-(D3-Pad1)*%
X104445000Y-120560000D03*
%TO.P,D3,2,VCC*%
%TO.N,+5V*%
X106045000Y-120560000D03*
%TO.P,D3,3,DO*%
%TO.N,Net-(D3-Pad3)*%
X107645000Y-120560000D03*
%TO.P,D3,4,DI*%
%TO.N,Net-(D2-Pad3)*%
X107645000Y-115660000D03*
%TO.P,D3,5,GND*%
%TO.N,GND*%
X106045000Y-115660000D03*
%TO.P,D3,6,BI*%
%TO.N,Net-(D2-Pad1)*%
X104445000Y-115660000D03*
%TD*%
D22*
%TO.P,C8,1*%
%TO.N,GND*%
X124780000Y-88265000D03*
%TO.P,C8,2*%
%TO.N,+3V3*%
X126680000Y-88265000D03*
%TD*%
D33*
%TO.N,GND*%
X107315000Y-98425000D03*
X105410000Y-99695000D03*
%TO.N,/STM_32/SWCLK*%
X92075000Y-106045000D03*
X120015000Y-95250000D03*
%TO.N,GND*%
X84455000Y-60960000D03*
X88900000Y-64770000D03*
%TO.N,/Display/RD*%
X95250000Y-90805000D03*
X109220000Y-106045000D03*
X113030000Y-106045000D03*
%TO.N,/Display/COMMAND_MODE*%
X85725000Y-90805000D03*
%TO.N,/Display/RD*%
X114935000Y-105410000D03*
%TO.N,/Display/COMMAND_MODE*%
X107950000Y-109220000D03*
%TO.N,GND*%
X81915000Y-74295000D03*
%TO.N,/Display/DB2*%
X85725000Y-83185000D03*
X88265000Y-90170000D03*
X93345000Y-91440000D03*
X103505359Y-106680359D03*
%TO.N,/Display/DB3*%
X90805000Y-81915000D03*
X102870000Y-107950000D03*
%TO.N,GND*%
X119700000Y-88265000D03*
X125095000Y-82550000D03*
%TO.N,+5V*%
X118110000Y-79375000D03*
X124460000Y-79375000D03*
%TO.N,GND*%
X110490000Y-107950000D03*
%TO.N,/Display/WR*%
X92710000Y-88900000D03*
X109783245Y-104846755D03*
%TO.N,/Display/DB1*%
X90805000Y-84455000D03*
X103505000Y-109855000D03*
X116645201Y-108390201D03*
X116205000Y-102235000D03*
%TO.N,GND*%
X114300000Y-97790000D03*
X116205000Y-97790000D03*
%TO.N,/Display/DB4*%
X88900000Y-80645000D03*
%TO.N,/Display/DB5*%
X89535000Y-78740000D03*
%TO.N,/Display/DB6*%
X89535000Y-76835000D03*
%TO.N,/Display/DB7*%
X90170000Y-75565000D03*
%TO.N,/STM_32/SWDIO*%
X93980000Y-104775000D03*
X123190000Y-98425000D03*
%TO.N,/Display/DB6*%
X123825000Y-100330000D03*
%TO.N,/Display/DB7*%
X122555000Y-100330000D03*
%TO.N,/Display/DB4*%
X122555000Y-102870000D03*
%TO.N,/Display/DB5*%
X124460000Y-102235000D03*
%TO.N,/LED_DI*%
X114300000Y-102235000D03*
X116205000Y-110490000D03*
%TO.N,GND*%
X118110000Y-97790000D03*
X121920000Y-82550000D03*
X104140000Y-71755000D03*
X118110000Y-101600000D03*
%TO.N,/Baro Sensor/SDA*%
X116205000Y-86995000D03*
X120650000Y-86995000D03*
%TD*%
D34*
%TO.N,Net-(J2-Pad1)*%
X109257500Y-56515000D02*
X107045000Y-58727500D01*
X124460000Y-56515000D02*
X109257500Y-56515000D01*
%TO.N,+3V3*%
X114425000Y-84965000D02*
X114425000Y-88900000D01*
X117610000Y-81780000D02*
X99166547Y-81780000D01*
X117610000Y-81780000D02*
X114425000Y-84965000D01*
X120785000Y-81780000D02*
X117610000Y-81780000D01*
%TO.N,GND*%
X110322493Y-100445000D02*
X112042500Y-100445000D01*
X110022973Y-100744520D02*
X110322493Y-100445000D01*
X108684520Y-100744520D02*
X110022973Y-100744520D01*
X107635000Y-99695000D02*
X108684520Y-100744520D01*
%TO.N,/STM_32/SWCLK*%
X90529022Y-104140000D02*
X89580000Y-104140000D01*
X92075000Y-105685978D02*
X90529022Y-104140000D01*
X92075000Y-106045000D02*
X92075000Y-105685978D01*
X119732500Y-95532500D02*
X120015000Y-95250000D01*
X118955000Y-95532500D02*
X119732500Y-95532500D01*
%TO.N,+3V3*%
X121285000Y-96027500D02*
X121285000Y-94865000D01*
X120367500Y-96945000D02*
X121285000Y-96027500D01*
X121285000Y-94865000D02*
X119130000Y-92710000D01*
X83767493Y-57785000D02*
X81915000Y-57785000D01*
X92227036Y-66244543D02*
X83767493Y-57785000D01*
X92227036Y-74840489D02*
X92227036Y-66244543D01*
X83091775Y-75565000D02*
X81915000Y-75565000D01*
X83816286Y-74840489D02*
X83091775Y-75565000D01*
X99166547Y-81780000D02*
X92227036Y-74840489D01*
X92227036Y-74840489D02*
X83816286Y-74840489D01*
%TO.N,/Display/RD*%
X92075000Y-86995000D02*
X81915000Y-86995000D01*
X95250000Y-90170000D02*
X92075000Y-86995000D01*
X95250000Y-90805000D02*
X95250000Y-90170000D01*
X112940489Y-105955489D02*
X109309511Y-105955489D01*
X109309511Y-105955489D02*
X109220000Y-106045000D01*
X113030000Y-106045000D02*
X112940489Y-105955489D01*
%TO.N,/Display/WR*%
X112042500Y-103678478D02*
X112042500Y-102445000D01*
X110856467Y-104864511D02*
X112042500Y-103678478D01*
X109783245Y-104846755D02*
X110172141Y-104846755D01*
X110172141Y-104846755D02*
X110189897Y-104864511D01*
X110189897Y-104864511D02*
X110856467Y-104864511D01*
%TO.N,/Display/COMMAND_MODE*%
X84455000Y-89535000D02*
X85725000Y-90805000D01*
X81915000Y-89535000D02*
X84455000Y-89535000D01*
%TO.N,/STM_32/SWDIO*%
X92075000Y-102870000D02*
X89580000Y-102870000D01*
X93980000Y-104775000D02*
X92075000Y-102870000D01*
%TO.N,/Display/RD*%
X114455000Y-104930000D02*
X114935000Y-105410000D01*
X114455000Y-103857500D02*
X114455000Y-104930000D01*
%TO.N,/Display/COMMAND_MODE*%
X113955000Y-106388565D02*
X111123565Y-109220000D01*
X111123565Y-109220000D02*
X107950000Y-109220000D01*
X113955000Y-103857500D02*
X113955000Y-106388565D01*
%TO.N,+3V3*%
X81372507Y-75565000D02*
X81915000Y-75565000D01*
X80590480Y-58567027D02*
X80590480Y-74782973D01*
X81372507Y-57785000D02*
X80590480Y-58567027D01*
X81915000Y-57785000D02*
X81372507Y-57785000D01*
X80590480Y-74782973D02*
X81372507Y-75565000D01*
X81372507Y-90805000D02*
X81915000Y-90805000D01*
X80590480Y-76347027D02*
X80590480Y-90022973D01*
X80590480Y-90022973D02*
X81372507Y-90805000D01*
X81372507Y-75565000D02*
X80590480Y-76347027D01*
X81915000Y-92075000D02*
X81915000Y-90805000D01*
%TO.N,/Display/DB2*%
X85725000Y-83185000D02*
X81915000Y-83185000D01*
X89535000Y-91440000D02*
X88265000Y-90170000D01*
X93345000Y-91440000D02*
X89535000Y-91440000D01*
%TO.N,+3V3*%
X105410000Y-105410000D02*
X107630000Y-103190000D01*
X102870000Y-105410000D02*
X105410000Y-105410000D01*
X100965000Y-107315000D02*
X102870000Y-105410000D01*
X100965000Y-108585000D02*
X100965000Y-107315000D01*
%TO.N,/Display/DB2*%
X104140000Y-107315000D02*
X103505359Y-106680359D01*
X104140000Y-108482493D02*
X104140000Y-107315000D01*
X105697987Y-110040480D02*
X104140000Y-108482493D01*
X110938803Y-110040480D02*
X106045000Y-110040480D01*
X113903277Y-107076006D02*
X110938803Y-110040480D01*
X114299282Y-106680000D02*
X113903277Y-107076006D01*
X116840000Y-106680000D02*
X114299282Y-106680000D01*
X117455000Y-106065000D02*
X116840000Y-106680000D01*
X106045000Y-110040480D02*
X105697987Y-110040480D01*
X117455000Y-103857500D02*
X117455000Y-106065000D01*
%TO.N,/Display/DB3*%
X90805000Y-81915000D02*
X81915000Y-81915000D01*
X105410000Y-110490000D02*
X102870000Y-107950000D01*
X114352797Y-107262203D02*
X111125000Y-110490000D01*
X117955000Y-106252507D02*
X116945304Y-107262203D01*
X116945304Y-107262203D02*
X114352797Y-107262203D01*
X111125000Y-110490000D02*
X105410000Y-110490000D01*
X117955000Y-103857500D02*
X117955000Y-106252507D01*
%TO.N,/Display/DB1*%
X104775000Y-111125000D02*
X103505000Y-109855000D01*
X114494799Y-108390201D02*
X111760000Y-111125000D01*
X116645201Y-108390201D02*
X114494799Y-108390201D01*
X111760000Y-111125000D02*
X104775000Y-111125000D01*
%TO.N,+3V3*%
X118745000Y-107315000D02*
X116840000Y-109220000D01*
X118745000Y-107000000D02*
X118745000Y-107315000D01*
X102870000Y-111760000D02*
X100965000Y-109855000D01*
X100965000Y-109855000D02*
X100965000Y-108585000D01*
X112395000Y-111760000D02*
X102870000Y-111760000D01*
X114935000Y-109220000D02*
X112395000Y-111760000D01*
X116840000Y-109220000D02*
X114935000Y-109220000D01*
%TO.N,GND*%
X119700000Y-86315000D02*
X119700000Y-88265000D01*
X120785000Y-85230000D02*
X119700000Y-86315000D01*
%TO.N,+5V*%
X112155000Y-76595000D02*
X112155000Y-74690000D01*
X114935000Y-79375000D02*
X112155000Y-76595000D01*
X118110000Y-79375000D02*
X114935000Y-79375000D01*
X131445000Y-86360000D02*
X124460000Y-79375000D01*
X131445000Y-103505000D02*
X131445000Y-86360000D01*
X124979511Y-121634511D02*
X131445000Y-115169022D01*
X121730489Y-121634511D02*
X124979511Y-121634511D01*
X131445000Y-115169022D02*
X131445000Y-103505000D01*
%TO.N,/Display/WR*%
X92075000Y-88265000D02*
X81915000Y-88265000D01*
X92710000Y-88900000D02*
X92075000Y-88265000D01*
%TO.N,+3V3*%
X88055489Y-108644511D02*
X87630000Y-108219022D01*
X87630000Y-108219022D02*
X87630000Y-103505000D01*
X86995000Y-102870000D02*
X85680000Y-102870000D01*
X100905489Y-108644511D02*
X88055489Y-108644511D01*
X100965000Y-108585000D02*
X100905489Y-108644511D01*
X87630000Y-103505000D02*
X86995000Y-102870000D01*
%TO.N,/Display/DB1*%
X90805000Y-84455000D02*
X81915000Y-84455000D01*
X114455000Y-96920386D02*
X114455000Y-95532500D01*
X115024511Y-97489897D02*
X114455000Y-96920386D01*
X116205000Y-102235000D02*
X115024511Y-101054511D01*
X115024511Y-101054511D02*
X115024511Y-97489897D01*
%TO.N,/Display/DB0*%
X109855000Y-85725000D02*
X81915000Y-85725000D01*
X114955000Y-90825000D02*
X109855000Y-85725000D01*
X114955000Y-95532500D02*
X114955000Y-90825000D01*
%TO.N,GND*%
X115455000Y-97040000D02*
X115455000Y-95532500D01*
X116205000Y-97790000D02*
X115455000Y-97040000D01*
X113955000Y-97445000D02*
X114300000Y-97790000D01*
X113955000Y-95532500D02*
X113955000Y-97445000D01*
%TO.N,/Display/DB4*%
X88900000Y-80645000D02*
X81915000Y-80645000D01*
%TO.N,/Display/DB5*%
X88900000Y-79375000D02*
X81915000Y-79375000D01*
X89535000Y-78740000D02*
X88900000Y-79375000D01*
%TO.N,/Display/DB6*%
X88265000Y-78105000D02*
X81915000Y-78105000D01*
X89535000Y-76835000D02*
X88265000Y-78105000D01*
%TO.N,/Display/DB7*%
X83727493Y-75565000D02*
X82457493Y-76835000D01*
X90170000Y-75565000D02*
X83727493Y-75565000D01*
X82457493Y-76835000D02*
X81915000Y-76835000D01*
%TO.N,/Display/DB6*%
X120367500Y-101445000D02*
X122710000Y-101445000D01*
X122710000Y-101445000D02*
X123825000Y-100330000D01*
%TO.N,/Display/DB7*%
X121940000Y-100945000D02*
X122555000Y-100330000D01*
X120367500Y-100945000D02*
X121940000Y-100945000D01*
%TO.N,/Display/DB4*%
X122130000Y-102445000D02*
X122555000Y-102870000D01*
X120367500Y-102445000D02*
X122130000Y-102445000D01*
%TO.N,/Display/DB5*%
X124170000Y-101945000D02*
X124460000Y-102235000D01*
X120367500Y-101945000D02*
X124170000Y-101945000D01*
%TO.N,+3V3*%
X120965000Y-107000000D02*
X118745000Y-107000000D01*
X125730000Y-102235000D02*
X120965000Y-107000000D01*
X125730000Y-98740000D02*
X125730000Y-102235000D01*
X122875000Y-95885000D02*
X125730000Y-98740000D01*
%TO.N,/STM_32/SWDIO*%
X122710000Y-97945000D02*
X123190000Y-98425000D01*
X120367500Y-97945000D02*
X122710000Y-97945000D01*
%TO.N,/LED_DI*%
X120955000Y-115410000D02*
X120955000Y-115660000D01*
X121779511Y-114585489D02*
X120955000Y-115410000D01*
X123379511Y-114585489D02*
X121779511Y-114585489D01*
X124155000Y-115360978D02*
X123379511Y-114585489D01*
X124155000Y-115660000D02*
X124155000Y-115360978D01*
X114010000Y-101945000D02*
X114300000Y-102235000D01*
X112042500Y-101945000D02*
X114010000Y-101945000D01*
%TO.N,Net-(R3-Pad2)*%
X110980480Y-101704514D02*
X111239994Y-101445000D01*
X111239994Y-101445000D02*
X112042500Y-101445000D01*
X110980480Y-101744520D02*
X110980480Y-101704514D01*
X107950000Y-104775000D02*
X110980480Y-101744520D01*
X107950000Y-107950000D02*
X107950000Y-104775000D01*
%TO.N,/LED_DI*%
X120955000Y-115240000D02*
X116205000Y-110490000D01*
X120955000Y-115660000D02*
X120955000Y-115240000D01*
%TO.N,GND*%
X118455000Y-97445000D02*
X118110000Y-97790000D01*
X120367500Y-97445000D02*
X118455000Y-97445000D01*
%TO.N,+3V3*%
X121600000Y-88265000D02*
X121600000Y-90240000D01*
X121600000Y-90240000D02*
X119130000Y-92710000D01*
X123190000Y-85090000D02*
X126365000Y-88265000D01*
X126365000Y-88265000D02*
X126680000Y-88265000D01*
X123190000Y-85090000D02*
X123190000Y-86675000D01*
X123190000Y-84455000D02*
X123190000Y-85090000D01*
X123190000Y-86675000D02*
X121600000Y-88265000D01*
%TO.N,GND*%
X121285000Y-83185000D02*
X121920000Y-82550000D01*
X121285000Y-83680000D02*
X121285000Y-83185000D01*
%TO.N,+3V3*%
X122415000Y-85230000D02*
X121785000Y-85230000D01*
X123190000Y-84455000D02*
X122415000Y-85230000D01*
X123190000Y-82550000D02*
X123190000Y-84455000D01*
X122420000Y-81780000D02*
X123190000Y-82550000D01*
X120785000Y-81780000D02*
X122420000Y-81780000D01*
%TO.N,GND*%
X121285000Y-83680000D02*
X121785000Y-83680000D01*
%TO.N,+3V3*%
X120785000Y-81780000D02*
X120785000Y-83680000D01*
X120785000Y-76700000D02*
X120785000Y-81780000D01*
X120785000Y-83955000D02*
X120535000Y-84205000D01*
X120785000Y-83680000D02*
X120785000Y-83955000D01*
X125095000Y-72390000D02*
X120785000Y-76700000D01*
X125095000Y-72390000D02*
X126050000Y-72390000D01*
X123165000Y-72390000D02*
X125095000Y-72390000D01*
%TO.N,/Power/VIN*%
X105606072Y-71755000D02*
X104656072Y-70805000D01*
X104656072Y-70805000D02*
X104272500Y-70805000D01*
X109569022Y-71755000D02*
X105606072Y-71755000D01*
X109964511Y-71359511D02*
X109569022Y-71755000D01*
X121570978Y-59055000D02*
X109964511Y-70661467D01*
X124460000Y-59055000D02*
X121570978Y-59055000D01*
X109964511Y-70661467D02*
X109964511Y-71359511D01*
X103500000Y-70805000D02*
X104272500Y-70805000D01*
X101915000Y-72390000D02*
X103500000Y-70805000D01*
X101915000Y-70500000D02*
X96820000Y-65405000D01*
X101915000Y-72390000D02*
X101915000Y-70500000D01*
%TO.N,Net-(D6-Pad2)*%
X106547500Y-69082500D02*
X102870000Y-65405000D01*
X106547500Y-70805000D02*
X106547500Y-69082500D01*
%TO.N,Net-(C12-Pad2)*%
X85310480Y-62964520D02*
X86360000Y-61915000D01*
X85310480Y-63822013D02*
X85310480Y-62964520D01*
X82457493Y-66675000D02*
X85310480Y-63822013D01*
X81915000Y-66675000D02*
X82457493Y-66675000D01*
%TO.N,Net-(C12-Pad1)*%
X86360000Y-64042493D02*
X86360000Y-63815000D01*
X82457493Y-67945000D02*
X86360000Y-64042493D01*
X81915000Y-67945000D02*
X82457493Y-67945000D01*
%TO.N,Net-(C10-Pad2)*%
X86360000Y-69535000D02*
X86360000Y-67625000D01*
%TO.N,Net-(C11-Pad2)*%
X82457493Y-69215000D02*
X85947493Y-65725000D01*
X85947493Y-65725000D02*
X86360000Y-65725000D01*
X81915000Y-69215000D02*
X82457493Y-69215000D01*
%TO.N,Net-(C10-Pad2)*%
X85410000Y-70485000D02*
X86360000Y-69535000D01*
X81915000Y-70485000D02*
X85410000Y-70485000D01*
%TO.N,Net-(C10-Pad1)*%
X86040000Y-71755000D02*
X86360000Y-71435000D01*
X81915000Y-71755000D02*
X86040000Y-71755000D01*
%TO.N,Net-(C9-Pad2)*%
X84140000Y-73025000D02*
X84775000Y-73660000D01*
X81915000Y-73025000D02*
X84140000Y-73025000D01*
%TO.N,+3V3*%
X107630000Y-91115000D02*
X107630000Y-88265000D01*
X109540000Y-93025000D02*
X107630000Y-91115000D01*
X109540000Y-93025000D02*
X113665000Y-93025000D01*
X104140000Y-98425000D02*
X109540000Y-93025000D01*
X104140000Y-99700000D02*
X104140000Y-98425000D01*
X107630000Y-103190000D02*
X104140000Y-99700000D01*
X123165000Y-72390000D02*
X116865000Y-72390000D01*
%TO.N,+5V*%
X112155000Y-74690000D02*
X116865000Y-74690000D01*
X111890000Y-74425000D02*
X112155000Y-74690000D01*
X111890000Y-70485000D02*
X111890000Y-74425000D01*
X108532500Y-74690000D02*
X112155000Y-74690000D01*
%TO.N,Net-(D6-Pad2)*%
X106867500Y-70485000D02*
X109090000Y-70485000D01*
X106547500Y-70805000D02*
X106867500Y-70485000D01*
%TO.N,+5V*%
X106547500Y-72705000D02*
X108532500Y-74690000D01*
%TO.N,/Power/VIN*%
X102230000Y-72705000D02*
X101915000Y-72390000D01*
X104272500Y-72705000D02*
X102230000Y-72705000D01*
%TO.N,Net-(D4-Pad3)*%
X92209511Y-116734511D02*
X91135000Y-115660000D01*
X99390000Y-120260978D02*
X95863533Y-116734511D01*
X99390000Y-120560000D02*
X99390000Y-120260978D01*
X95863533Y-116734511D02*
X92209511Y-116734511D01*
%TO.N,Net-(D4-Pad1)*%
X87935000Y-115875000D02*
X87935000Y-115660000D01*
X91545489Y-119485489D02*
X87935000Y-115875000D01*
X95115489Y-119485489D02*
X91545489Y-119485489D01*
X96190000Y-120560000D02*
X95115489Y-119485489D01*
%TO.N,Net-(D3-Pad3)*%
X100180718Y-115660000D02*
X99390000Y-115660000D01*
X101995718Y-117475000D02*
X100180718Y-115660000D01*
X104859022Y-117475000D02*
X101995718Y-117475000D01*
X107645000Y-120260978D02*
X104859022Y-117475000D01*
X107645000Y-120560000D02*
X107645000Y-120260978D01*
%TO.N,Net-(D3-Pad1)*%
X96190000Y-115959022D02*
X96190000Y-115660000D01*
X100619511Y-116734511D02*
X96965489Y-116734511D01*
X104445000Y-120560000D02*
X100619511Y-116734511D01*
X96965489Y-116734511D02*
X96190000Y-115959022D01*
%TO.N,Net-(D1-Pad3)*%
X116690718Y-115660000D02*
X115900000Y-115660000D01*
X124155000Y-120345000D02*
X120544511Y-116734511D01*
X117765229Y-116734511D02*
X116690718Y-115660000D01*
X124155000Y-120560000D02*
X124155000Y-120345000D01*
X120544511Y-116734511D02*
X117765229Y-116734511D01*
%TO.N,Net-(D1-Pad1)*%
X112700000Y-115959022D02*
X112700000Y-115660000D01*
X113475489Y-116734511D02*
X112700000Y-115959022D01*
X117129511Y-116734511D02*
X113475489Y-116734511D01*
X120955000Y-120560000D02*
X117129511Y-116734511D01*
%TO.N,Net-(D2-Pad3)*%
X108675000Y-115660000D02*
X107645000Y-115660000D01*
X109855000Y-116840000D02*
X108675000Y-115660000D01*
X112479022Y-116840000D02*
X109855000Y-116840000D01*
X115900000Y-120260978D02*
X112479022Y-116840000D01*
X115900000Y-120560000D02*
X115900000Y-120260978D01*
%TO.N,Net-(D2-Pad1)*%
X104445000Y-116510000D02*
X104445000Y-115660000D01*
X108874511Y-116734511D02*
X104669511Y-116734511D01*
X112700000Y-120560000D02*
X108874511Y-116734511D01*
X104669511Y-116734511D02*
X104445000Y-116510000D01*
%TO.N,+5V*%
X89535000Y-120859022D02*
X89535000Y-120560000D01*
X90310489Y-121634511D02*
X89535000Y-120859022D01*
X98565489Y-121634511D02*
X90310489Y-121634511D01*
X97790000Y-120859022D02*
X97790000Y-120560000D01*
X98565489Y-121634511D02*
X97790000Y-120859022D01*
X106820489Y-121634511D02*
X98565489Y-121634511D01*
X106045000Y-120859022D02*
X106045000Y-120560000D01*
X106820489Y-121634511D02*
X106045000Y-120859022D01*
X114649511Y-121634511D02*
X106820489Y-121634511D01*
X121730489Y-121634511D02*
X114649511Y-121634511D01*
X114649511Y-121634511D02*
X114300000Y-121285000D01*
X122555000Y-120810000D02*
X121730489Y-121634511D01*
X114300000Y-121285000D02*
X114300000Y-120560000D01*
X122555000Y-120560000D02*
X122555000Y-120810000D01*
%TO.N,GND*%
X118455000Y-101945000D02*
X118110000Y-101600000D01*
X118455000Y-103857500D02*
X118455000Y-101945000D01*
%TO.N,+3V3*%
X113455000Y-95532500D02*
X113455000Y-93235000D01*
X112042500Y-100945000D02*
X110458211Y-100945000D01*
X118955000Y-106790000D02*
X118745000Y-107000000D01*
X108770480Y-102049520D02*
X107630000Y-103190000D01*
X120367500Y-96945000D02*
X121815000Y-96945000D01*
X121815000Y-96945000D02*
X122875000Y-95885000D01*
X113455000Y-93235000D02*
X113665000Y-93025000D01*
X118955000Y-103857500D02*
X118955000Y-106790000D01*
X109353690Y-102049520D02*
X108770480Y-102049520D01*
X110458211Y-100945000D02*
X109353690Y-102049520D01*
%TO.N,Net-(C2-Pad1)*%
X109785000Y-99945000D02*
X109535000Y-99695000D01*
X112042500Y-99945000D02*
X109785000Y-99945000D01*
%TO.N,Net-(R3-Pad2)*%
X108942500Y-107950000D02*
X107950000Y-107950000D01*
X107950000Y-107950000D02*
X106957500Y-107950000D01*
%TO.N,/Baro Sensor/SCL*%
X117475000Y-86360000D02*
X117475000Y-92075000D01*
X116455000Y-94365000D02*
X118110000Y-92710000D01*
X116455000Y-95532500D02*
X116455000Y-94365000D01*
X120535000Y-84705000D02*
X119130000Y-84705000D01*
X117475000Y-92075000D02*
X118110000Y-92710000D01*
X119130000Y-84705000D02*
X117475000Y-86360000D01*
%TO.N,/Baro Sensor/SDA*%
X116205000Y-88140000D02*
X115445000Y-88900000D01*
X115955000Y-89410000D02*
X115445000Y-88900000D01*
X121285000Y-85691522D02*
X120650000Y-86326522D01*
X115955000Y-95532500D02*
X115955000Y-89410000D01*
X116205000Y-86995000D02*
X116205000Y-88140000D01*
X121285000Y-85230000D02*
X121285000Y-85691522D01*
X120650000Y-86326522D02*
X120650000Y-86995000D01*
%TD*%
%TA.AperFunction,Conductor*%
%TO.N,GND*%
G36*
X133419121Y-53233002D02*
G01*
X133465614Y-53286658D01*
X133477000Y-53339000D01*
X133477000Y-122556000D01*
X133456998Y-122624121D01*
X133403342Y-122670614D01*
X133351000Y-122682000D01*
X79374000Y-122682000D01*
X79305879Y-122661998D01*
X79259386Y-122608342D01*
X79248000Y-122556000D01*
X79248000Y-108364669D01*
X83972001Y-108364669D01*
X83972371Y-108371490D01*
X83977895Y-108422352D01*
X83981521Y-108437604D01*
X84026676Y-108558054D01*
X84035214Y-108573649D01*
X84111715Y-108675724D01*
X84124276Y-108688285D01*
X84226351Y-108764786D01*
X84241946Y-108773324D01*
X84362394Y-108818478D01*
X84377649Y-108822105D01*
X84428514Y-108827631D01*
X84435328Y-108828000D01*
X85407885Y-108828000D01*
X85423124Y-108823525D01*
X85424329Y-108822135D01*
X85426000Y-108814452D01*
X85426000Y-108222115D01*
X85421525Y-108206876D01*
X85420135Y-108205671D01*
X85412452Y-108204000D01*
X83990116Y-108204000D01*
X83974877Y-108208475D01*
X83973672Y-108209865D01*
X83972001Y-108217548D01*
X83972001Y-108364669D01*
X79248000Y-108364669D01*
X79248000Y-105137885D01*
X83972000Y-105137885D01*
X83976475Y-105153124D01*
X83977865Y-105154329D01*
X83985548Y-105156000D01*
X85407885Y-105156000D01*
X85423124Y-105151525D01*
X85424329Y-105150135D01*
X85426000Y-105142452D01*
X85426000Y-104412115D01*
X85421525Y-104396876D01*
X85420135Y-104395671D01*
X85412452Y-104394000D01*
X83990116Y-104394000D01*
X83974877Y-104398475D01*
X83973672Y-104399865D01*
X83972001Y-104407548D01*
X83972001Y-104554669D01*
X83972371Y-104561490D01*
X83977895Y-104612352D01*
X83981522Y-104627606D01*
X84020196Y-104730771D01*
X84025379Y-104801578D01*
X84020196Y-104819229D01*
X83981522Y-104922391D01*
X83977895Y-104937649D01*
X83972369Y-104988514D01*
X83972000Y-104995328D01*
X83972000Y-105137885D01*
X79248000Y-105137885D01*
X79248000Y-76326970D01*
X79952260Y-76326970D01*
X79953006Y-76334862D01*
X79956421Y-76370988D01*
X79956980Y-76382846D01*
X79956980Y-89944206D01*
X79956453Y-89955389D01*
X79954778Y-89962882D01*
X79955027Y-89970808D01*
X79955027Y-89970809D01*
X79956918Y-90030959D01*
X79956980Y-90034918D01*
X79956980Y-90062829D01*
X79957477Y-90066763D01*
X79957477Y-90066764D01*
X79957485Y-90066829D01*
X79958418Y-90078666D01*
X79959807Y-90122862D01*
X79965458Y-90142312D01*
X79969467Y-90161673D01*
X79970330Y-90168500D01*
X79972006Y-90181770D01*
X79974925Y-90189141D01*
X79974925Y-90189143D01*
X79988284Y-90222885D01*
X79992129Y-90234115D01*
X80000645Y-90263427D01*
X80004462Y-90276566D01*
X80008495Y-90283385D01*
X80008497Y-90283390D01*
X80014773Y-90294001D01*
X80023468Y-90311749D01*
X80030928Y-90330590D01*
X80035590Y-90337006D01*
X80035590Y-90337007D01*
X80056916Y-90366360D01*
X80063432Y-90376280D01*
X80076771Y-90398834D01*
X80085938Y-90414335D01*
X80100259Y-90428656D01*
X80113099Y-90443689D01*
X80125008Y-90460080D01*
X80131114Y-90465131D01*
X80159085Y-90488271D01*
X80167864Y-90496261D01*
X80369595Y-90697992D01*
X80403621Y-90760304D01*
X80406500Y-90787087D01*
X80406500Y-91105400D01*
X80406837Y-91108646D01*
X80406837Y-91108650D01*
X80414477Y-91182279D01*
X80417474Y-91211166D01*
X80419655Y-91217702D01*
X80419655Y-91217704D01*
X80471133Y-91372003D01*
X80471135Y-91372008D01*
X80473450Y-91378946D01*
X80477301Y-91385169D01*
X80477939Y-91386531D01*
X80488722Y-91456704D01*
X80478033Y-91493228D01*
X80476726Y-91496031D01*
X80472885Y-91502262D01*
X80470581Y-91509210D01*
X80470579Y-91509213D01*
X80440864Y-91598803D01*
X80417203Y-91670139D01*
X80406500Y-91774600D01*
X80406500Y-92375400D01*
X80406837Y-92378646D01*
X80406837Y-92378650D01*
X80415230Y-92459535D01*
X80417474Y-92481166D01*
X80419653Y-92487697D01*
X80419655Y-92487704D01*
X80425657Y-92505694D01*
X80473450Y-92648946D01*
X80566522Y-92799348D01*
X80691697Y-92924305D01*
X80697927Y-92928145D01*
X80697928Y-92928146D01*
X80835090Y-93012694D01*
X80842262Y-93017115D01*
X80912443Y-93040393D01*
X81003611Y-93070632D01*
X81003613Y-93070632D01*
X81010139Y-93072797D01*
X81016975Y-93073497D01*
X81016978Y-93073498D01*
X81060031Y-93077909D01*
X81114600Y-93083500D01*
X82715400Y-93083500D01*
X82718646Y-93083163D01*
X82718650Y-93083163D01*
X82814308Y-93073238D01*
X82814312Y-93073237D01*
X82821166Y-93072526D01*
X82827702Y-93070345D01*
X82827704Y-93070345D01*
X82963618Y-93025000D01*
X82988946Y-93016550D01*
X83139348Y-92923478D01*
X83264305Y-92798303D01*
X83357115Y-92647738D01*
X83412797Y-92479861D01*
X83423500Y-92375400D01*
X83423500Y-91774600D01*
X83421518Y-91755500D01*
X83413238Y-91675692D01*
X83413237Y-91675688D01*
X83412526Y-91668834D01*
X83410345Y-91662296D01*
X83358867Y-91507997D01*
X83358865Y-91507992D01*
X83356550Y-91501054D01*
X83352699Y-91494831D01*
X83352061Y-91493469D01*
X83341278Y-91423296D01*
X83351967Y-91386772D01*
X83353274Y-91383969D01*
X83357115Y-91377738D01*
X83360149Y-91368593D01*
X83410632Y-91216389D01*
X83410632Y-91216387D01*
X83412797Y-91209861D01*
X83416210Y-91176556D01*
X83418839Y-91150892D01*
X83423500Y-91105400D01*
X83423500Y-90504600D01*
X83418881Y-90460080D01*
X83413238Y-90405692D01*
X83413237Y-90405688D01*
X83412526Y-90398834D01*
X83405002Y-90376280D01*
X83391021Y-90334376D01*
X83388437Y-90263427D01*
X83424620Y-90202343D01*
X83488084Y-90170518D01*
X83510545Y-90168500D01*
X84140406Y-90168500D01*
X84208527Y-90188502D01*
X84229501Y-90205405D01*
X84777878Y-90753782D01*
X84811904Y-90816094D01*
X84814092Y-90829703D01*
X84816515Y-90852749D01*
X84830565Y-90986427D01*
X84831458Y-90994928D01*
X84890473Y-91176556D01*
X84893776Y-91182278D01*
X84893777Y-91182279D01*
X84909702Y-91209861D01*
X84985960Y-91341944D01*
X84990378Y-91346851D01*
X84990379Y-91346852D01*
X85074250Y-91440000D01*
X85113747Y-91483866D01*
X85268248Y-91596118D01*
X85274276Y-91598802D01*
X85274278Y-91598803D01*
X85436681Y-91671109D01*
X85442712Y-91673794D01*
X85527348Y-91691784D01*
X85623056Y-91712128D01*
X85623061Y-91712128D01*
X85629513Y-91713500D01*
X85820487Y-91713500D01*
X85826939Y-91712128D01*
X85826944Y-91712128D01*
X85922652Y-91691784D01*
X86007288Y-91673794D01*
X86013319Y-91671109D01*
X86175722Y-91598803D01*
X86175724Y-91598802D01*
X86181752Y-91596118D01*
X86336253Y-91483866D01*
X86375750Y-91440000D01*
X86459621Y-91346852D01*
X86459622Y-91346851D01*
X86464040Y-91341944D01*
X86540298Y-91209861D01*
X86556223Y-91182279D01*
X86556224Y-91182278D01*
X86559527Y-91176556D01*
X86618542Y-90994928D01*
X86619436Y-90986427D01*
X86637814Y-90811565D01*
X86638504Y-90805000D01*
X86634783Y-90769595D01*
X86619232Y-90621635D01*
X86619232Y-90621633D01*
X86618542Y-90615072D01*
X86559527Y-90433444D01*
X86548495Y-90414335D01*
X86489469Y-90312101D01*
X86464040Y-90268056D01*
X86433480Y-90234115D01*
X86340675Y-90131045D01*
X86340674Y-90131044D01*
X86336253Y-90126134D01*
X86219268Y-90041139D01*
X86187094Y-90017763D01*
X86187093Y-90017762D01*
X86181752Y-90013882D01*
X86175724Y-90011198D01*
X86175722Y-90011197D01*
X86013319Y-89938891D01*
X86013318Y-89938891D01*
X86007288Y-89936206D01*
X85913888Y-89916353D01*
X85826944Y-89897872D01*
X85826939Y-89897872D01*
X85820487Y-89896500D01*
X85764595Y-89896500D01*
X85696474Y-89876498D01*
X85675500Y-89859595D01*
X84958652Y-89142747D01*
X84951112Y-89134461D01*
X84947000Y-89127982D01*
X84934614Y-89116351D01*
X84898648Y-89055138D01*
X84901485Y-88984198D01*
X84942225Y-88926054D01*
X85007933Y-88899165D01*
X85020866Y-88898500D01*
X91682887Y-88898500D01*
X91751008Y-88918502D01*
X91797501Y-88972158D01*
X91808197Y-89011329D01*
X91814360Y-89069962D01*
X91816458Y-89089928D01*
X91875473Y-89271556D01*
X91970960Y-89436944D01*
X91975378Y-89441851D01*
X91975379Y-89441852D01*
X92025631Y-89497662D01*
X92098747Y-89578866D01*
X92142751Y-89610837D01*
X92238316Y-89680269D01*
X92253248Y-89691118D01*
X92259276Y-89693802D01*
X92259278Y-89693803D01*
X92404890Y-89758633D01*
X92427712Y-89768794D01*
X92521112Y-89788647D01*
X92608056Y-89807128D01*
X92608061Y-89807128D01*
X92614513Y-89808500D01*
X92805487Y-89808500D01*
X92811939Y-89807128D01*
X92811944Y-89807128D01*
X92898888Y-89788647D01*
X92992288Y-89768794D01*
X93015110Y-89758633D01*
X93160722Y-89693803D01*
X93160724Y-89693802D01*
X93166752Y-89691118D01*
X93181685Y-89680269D01*
X93277249Y-89610837D01*
X93321253Y-89578866D01*
X93441688Y-89445109D01*
X93502134Y-89407869D01*
X93573117Y-89409221D01*
X93624419Y-89440324D01*
X94421069Y-90236974D01*
X94455095Y-90299286D01*
X94450030Y-90370101D01*
X94441093Y-90389069D01*
X94426506Y-90414335D01*
X94415473Y-90433444D01*
X94356458Y-90615072D01*
X94355768Y-90621633D01*
X94355768Y-90621635D01*
X94340217Y-90769595D01*
X94336496Y-90805000D01*
X94337186Y-90811565D01*
X94343320Y-90869930D01*
X94330547Y-90939768D01*
X94282045Y-90991615D01*
X94213212Y-91009009D01*
X94145903Y-90986427D01*
X94108893Y-90946102D01*
X94084040Y-90903056D01*
X94038744Y-90852749D01*
X93960675Y-90766045D01*
X93960674Y-90766044D01*
X93956253Y-90761134D01*
X93801752Y-90648882D01*
X93795724Y-90646198D01*
X93795722Y-90646197D01*
X93633319Y-90573891D01*
X93633318Y-90573891D01*
X93627288Y-90571206D01*
X93514721Y-90547279D01*
X93446944Y-90532872D01*
X93446939Y-90532872D01*
X93440487Y-90531500D01*
X93249513Y-90531500D01*
X93243061Y-90532872D01*
X93243056Y-90532872D01*
X93175279Y-90547279D01*
X93062712Y-90571206D01*
X93056682Y-90573891D01*
X93056681Y-90573891D01*
X92894278Y-90646197D01*
X92894276Y-90646198D01*
X92888248Y-90648882D01*
X92882907Y-90652762D01*
X92882906Y-90652763D01*
X92799020Y-90713710D01*
X92733747Y-90761134D01*
X92729332Y-90766037D01*
X92724420Y-90770460D01*
X92723295Y-90769211D01*
X92669986Y-90802051D01*
X92636800Y-90806500D01*
X89849595Y-90806500D01*
X89781474Y-90786498D01*
X89760500Y-90769595D01*
X89212122Y-90221217D01*
X89178096Y-90158905D01*
X89175907Y-90145292D01*
X89174316Y-90130149D01*
X89164960Y-90041139D01*
X89159232Y-89986635D01*
X89159232Y-89986633D01*
X89158542Y-89980072D01*
X89099527Y-89798444D01*
X89084853Y-89773027D01*
X89031298Y-89680269D01*
X89004040Y-89633056D01*
X88958744Y-89582749D01*
X88880675Y-89496045D01*
X88880674Y-89496044D01*
X88876253Y-89491134D01*
X88761649Y-89407869D01*
X88727094Y-89382763D01*
X88727093Y-89382762D01*
X88721752Y-89378882D01*
X88715724Y-89376198D01*
X88715722Y-89376197D01*
X88553319Y-89303891D01*
X88553318Y-89303891D01*
X88547288Y-89301206D01*
X88434721Y-89277279D01*
X88366944Y-89262872D01*
X88366939Y-89262872D01*
X88360487Y-89261500D01*
X88169513Y-89261500D01*
X88163061Y-89262872D01*
X88163056Y-89262872D01*
X88095279Y-89277279D01*
X87982712Y-89301206D01*
X87976682Y-89303891D01*
X87976681Y-89303891D01*
X87814278Y-89376197D01*
X87814276Y-89376198D01*
X87808248Y-89378882D01*
X87802907Y-89382762D01*
X87802906Y-89382763D01*
X87768351Y-89407869D01*
X87653747Y-89491134D01*
X87649326Y-89496044D01*
X87649325Y-89496045D01*
X87571257Y-89582749D01*
X87525960Y-89633056D01*
X87498702Y-89680269D01*
X87445148Y-89773027D01*
X87430473Y-89798444D01*
X87371458Y-89980072D01*
X87370768Y-89986633D01*
X87370768Y-89986635D01*
X87356515Y-90122251D01*
X87351496Y-90170000D01*
X87352186Y-90176565D01*
X87367265Y-90320030D01*
X87371458Y-90359928D01*
X87430473Y-90541556D01*
X87525960Y-90706944D01*
X87530378Y-90711851D01*
X87530379Y-90711852D01*
X87620161Y-90811565D01*
X87653747Y-90848866D01*
X87808248Y-90961118D01*
X87814276Y-90963802D01*
X87814278Y-90963803D01*
X87915813Y-91009009D01*
X87982712Y-91038794D01*
X88058527Y-91054909D01*
X88163056Y-91077128D01*
X88163061Y-91077128D01*
X88169513Y-91078500D01*
X88225406Y-91078500D01*
X88293527Y-91098502D01*
X88314501Y-91115405D01*
X89031343Y-91832247D01*
X89038887Y-91840537D01*
X89043000Y-91847018D01*
X89048777Y-91852443D01*
X89092667Y-91893658D01*
X89095509Y-91896413D01*
X89115230Y-91916134D01*
X89118425Y-91918612D01*
X89127447Y-91926318D01*
X89159679Y-91956586D01*
X89170858Y-91962732D01*
X89177432Y-91966346D01*
X89193956Y-91977199D01*
X89209959Y-91989613D01*
X89250543Y-92007176D01*
X89261173Y-92012383D01*
X89299940Y-92033695D01*
X89307617Y-92035666D01*
X89307622Y-92035668D01*
X89319558Y-92038732D01*
X89338266Y-92045137D01*
X89356855Y-92053181D01*
X89364683Y-92054421D01*
X89364690Y-92054423D01*
X89400524Y-92060099D01*
X89412144Y-92062505D01*
X89447289Y-92071528D01*
X89454970Y-92073500D01*
X89475224Y-92073500D01*
X89494934Y-92075051D01*
X89514943Y-92078220D01*
X89522835Y-92077474D01*
X89558961Y-92074059D01*
X89570819Y-92073500D01*
X92636800Y-92073500D01*
X92704921Y-92093502D01*
X92724147Y-92109843D01*
X92724420Y-92109540D01*
X92729332Y-92113963D01*
X92733747Y-92118866D01*
X92888248Y-92231118D01*
X92894276Y-92233802D01*
X92894278Y-92233803D01*
X93056681Y-92306109D01*
X93062712Y-92308794D01*
X93155858Y-92328593D01*
X93243056Y-92347128D01*
X93243061Y-92347128D01*
X93249513Y-92348500D01*
X93440487Y-92348500D01*
X93446939Y-92347128D01*
X93446944Y-92347128D01*
X93534142Y-92328593D01*
X93627288Y-92308794D01*
X93633319Y-92306109D01*
X93795722Y-92233803D01*
X93795724Y-92233802D01*
X93801752Y-92231118D01*
X93956253Y-92118866D01*
X93988142Y-92083450D01*
X94079621Y-91981852D01*
X94079622Y-91981851D01*
X94084040Y-91976944D01*
X94161484Y-91842807D01*
X94176223Y-91817279D01*
X94176224Y-91817278D01*
X94179527Y-91811556D01*
X94238542Y-91629928D01*
X94241814Y-91598803D01*
X94257814Y-91446565D01*
X94258504Y-91440000D01*
X94254698Y-91403787D01*
X94251680Y-91375070D01*
X94264453Y-91305232D01*
X94312955Y-91253385D01*
X94381788Y-91235991D01*
X94449097Y-91258573D01*
X94486107Y-91298898D01*
X94510960Y-91341944D01*
X94515378Y-91346851D01*
X94515379Y-91346852D01*
X94599250Y-91440000D01*
X94638747Y-91483866D01*
X94793248Y-91596118D01*
X94799276Y-91598802D01*
X94799278Y-91598803D01*
X94961681Y-91671109D01*
X94967712Y-91673794D01*
X95052348Y-91691784D01*
X95148056Y-91712128D01*
X95148061Y-91712128D01*
X95154513Y-91713500D01*
X95345487Y-91713500D01*
X95351939Y-91712128D01*
X95351944Y-91712128D01*
X95447652Y-91691784D01*
X95532288Y-91673794D01*
X95538319Y-91671109D01*
X95700722Y-91598803D01*
X95700724Y-91598802D01*
X95706752Y-91596118D01*
X95861253Y-91483866D01*
X95900750Y-91440000D01*
X95984621Y-91346852D01*
X95984622Y-91346851D01*
X95989040Y-91341944D01*
X96065298Y-91209861D01*
X96081223Y-91182279D01*
X96081224Y-91182278D01*
X96084527Y-91176556D01*
X96143542Y-90994928D01*
X96144436Y-90986427D01*
X96162814Y-90811565D01*
X96163504Y-90805000D01*
X96159783Y-90769595D01*
X96144232Y-90621635D01*
X96144232Y-90621633D01*
X96143542Y-90615072D01*
X96084527Y-90433444D01*
X96073495Y-90414335D01*
X96014469Y-90312101D01*
X95989040Y-90268056D01*
X95914053Y-90184774D01*
X95883336Y-90120767D01*
X95881752Y-90104425D01*
X95880922Y-90078030D01*
X95880673Y-90070111D01*
X95875021Y-90050657D01*
X95871013Y-90031300D01*
X95869468Y-90019070D01*
X95869468Y-90019069D01*
X95868474Y-90011203D01*
X95861475Y-89993526D01*
X95852196Y-89970088D01*
X95848351Y-89958858D01*
X95838229Y-89924017D01*
X95838229Y-89924016D01*
X95836018Y-89916407D01*
X95831985Y-89909588D01*
X95831983Y-89909583D01*
X95825707Y-89898972D01*
X95817012Y-89881224D01*
X95809552Y-89862383D01*
X95783564Y-89826613D01*
X95777048Y-89816693D01*
X95758580Y-89785465D01*
X95758578Y-89785462D01*
X95754542Y-89778638D01*
X95740221Y-89764317D01*
X95727380Y-89749283D01*
X95720131Y-89739306D01*
X95715472Y-89732893D01*
X95681395Y-89704702D01*
X95672616Y-89696712D01*
X94763000Y-88787095D01*
X104722001Y-88787095D01*
X104722338Y-88793614D01*
X104732257Y-88889206D01*
X104735149Y-88902600D01*
X104786588Y-89056784D01*
X104792761Y-89069962D01*
X104878063Y-89207807D01*
X104887099Y-89219208D01*
X105001829Y-89333739D01*
X105013240Y-89342751D01*
X105151243Y-89427816D01*
X105164424Y-89433963D01*
X105318710Y-89485138D01*
X105332086Y-89488005D01*
X105426438Y-89497672D01*
X105432854Y-89498000D01*
X105457885Y-89498000D01*
X105473124Y-89493525D01*
X105474329Y-89492135D01*
X105476000Y-89484452D01*
X105476000Y-88537115D01*
X105471525Y-88521876D01*
X105470135Y-88520671D01*
X105462452Y-88519000D01*
X104740116Y-88519000D01*
X104724877Y-88523475D01*
X104723672Y-88524865D01*
X104722001Y-88532548D01*
X104722001Y-88787095D01*
X94763000Y-88787095D01*
X93968790Y-87992885D01*
X104722000Y-87992885D01*
X104726475Y-88008124D01*
X104727865Y-88009329D01*
X104735548Y-88011000D01*
X105457885Y-88011000D01*
X105473124Y-88006525D01*
X105474329Y-88005135D01*
X105476000Y-87997452D01*
X105476000Y-87050116D01*
X105471525Y-87034877D01*
X105470135Y-87033672D01*
X105462452Y-87032001D01*
X105432905Y-87032001D01*
X105426386Y-87032338D01*
X105330794Y-87042257D01*
X105317400Y-87045149D01*
X105163216Y-87096588D01*
X105150038Y-87102761D01*
X105012193Y-87188063D01*
X105000792Y-87197099D01*
X104886261Y-87311829D01*
X104877249Y-87323240D01*
X104792184Y-87461243D01*
X104786037Y-87474424D01*
X104734862Y-87628710D01*
X104731995Y-87642086D01*
X104722328Y-87736438D01*
X104722000Y-87742855D01*
X104722000Y-87992885D01*
X93968790Y-87992885D01*
X92578652Y-86602747D01*
X92571112Y-86594461D01*
X92567000Y-86587982D01*
X92554614Y-86576351D01*
X92518648Y-86515138D01*
X92521485Y-86444198D01*
X92562225Y-86386054D01*
X92627933Y-86359165D01*
X92640866Y-86358500D01*
X109540406Y-86358500D01*
X109608527Y-86378502D01*
X109629501Y-86395405D01*
X113144106Y-89910010D01*
X113178132Y-89972322D01*
X113173067Y-90043137D01*
X113130520Y-90099973D01*
X113068016Y-90124432D01*
X113040793Y-90127257D01*
X113027400Y-90130149D01*
X112873216Y-90181588D01*
X112860038Y-90187761D01*
X112722193Y-90273063D01*
X112710792Y-90282099D01*
X112596261Y-90396829D01*
X112587249Y-90408240D01*
X112502184Y-90546243D01*
X112496037Y-90559424D01*
X112444862Y-90713710D01*
X112441995Y-90727086D01*
X112432328Y-90821438D01*
X112432000Y-90827855D01*
X112432000Y-90852885D01*
X112436475Y-90868124D01*
X112437865Y-90869329D01*
X112445548Y-90871000D01*
X113793000Y-90871000D01*
X113861121Y-90891002D01*
X113907614Y-90944658D01*
X113919000Y-90997000D01*
X113919000Y-91253000D01*
X113898998Y-91321121D01*
X113845342Y-91367614D01*
X113793000Y-91379000D01*
X112450116Y-91379000D01*
X112434877Y-91383475D01*
X112433672Y-91384865D01*
X112432001Y-91392548D01*
X112432001Y-91422095D01*
X112432338Y-91428614D01*
X112442257Y-91524206D01*
X112445149Y-91537600D01*
X112496588Y-91691784D01*
X112502761Y-91704962D01*
X112588063Y-91842807D01*
X112597099Y-91854208D01*
X112711828Y-91968738D01*
X112720762Y-91975794D01*
X112761823Y-92033712D01*
X112765053Y-92104635D01*
X112729426Y-92166046D01*
X112721593Y-92172846D01*
X112715652Y-92176522D01*
X112590695Y-92301697D01*
X112585475Y-92310166D01*
X112572251Y-92331618D01*
X112519478Y-92379110D01*
X112464992Y-92391500D01*
X109854594Y-92391500D01*
X109786473Y-92371498D01*
X109765499Y-92354595D01*
X108300405Y-90889500D01*
X108266379Y-90827188D01*
X108263500Y-90800405D01*
X108263500Y-89464899D01*
X108283502Y-89396778D01*
X108323197Y-89357755D01*
X108348120Y-89342332D01*
X108354348Y-89338478D01*
X108479305Y-89213303D01*
X108509112Y-89164947D01*
X108568275Y-89068968D01*
X108568276Y-89068966D01*
X108572115Y-89062738D01*
X108617451Y-88926054D01*
X108625632Y-88901389D01*
X108625632Y-88901387D01*
X108627797Y-88894861D01*
X108638500Y-88790400D01*
X108638500Y-87739600D01*
X108638163Y-87736350D01*
X108628238Y-87640692D01*
X108628237Y-87640688D01*
X108627526Y-87633834D01*
X108618844Y-87607809D01*
X108573868Y-87473002D01*
X108571550Y-87466054D01*
X108478478Y-87315652D01*
X108353303Y-87190695D01*
X108343947Y-87184928D01*
X108208968Y-87101725D01*
X108208966Y-87101724D01*
X108202738Y-87097885D01*
X108112046Y-87067804D01*
X108041389Y-87044368D01*
X108041387Y-87044368D01*
X108034861Y-87042203D01*
X108028025Y-87041503D01*
X108028022Y-87041502D01*
X107984969Y-87037091D01*
X107930400Y-87031500D01*
X107329600Y-87031500D01*
X107326354Y-87031837D01*
X107326350Y-87031837D01*
X107230692Y-87041762D01*
X107230688Y-87041763D01*
X107223834Y-87042474D01*
X107217298Y-87044655D01*
X107217296Y-87044655D01*
X107113426Y-87079309D01*
X107056054Y-87098450D01*
X106905652Y-87191522D01*
X106780695Y-87316697D01*
X106777898Y-87321235D01*
X106720647Y-87361824D01*
X106649724Y-87365054D01*
X106588313Y-87329428D01*
X106580938Y-87320932D01*
X106572902Y-87310793D01*
X106458171Y-87196261D01*
X106446760Y-87187249D01*
X106308757Y-87102184D01*
X106295576Y-87096037D01*
X106141290Y-87044862D01*
X106127914Y-87041995D01*
X106033562Y-87032328D01*
X106027145Y-87032000D01*
X106002115Y-87032000D01*
X105986876Y-87036475D01*
X105985671Y-87037865D01*
X105984000Y-87045548D01*
X105984000Y-89479884D01*
X105988475Y-89495123D01*
X105989865Y-89496328D01*
X105997548Y-89497999D01*
X106027095Y-89497999D01*
X106033614Y-89497662D01*
X106129206Y-89487743D01*
X106142600Y-89484851D01*
X106296784Y-89433412D01*
X106309962Y-89427239D01*
X106447807Y-89341937D01*
X106459208Y-89332901D01*
X106573738Y-89218172D01*
X106580794Y-89209238D01*
X106638712Y-89168177D01*
X106709635Y-89164947D01*
X106771046Y-89200574D01*
X106777846Y-89208407D01*
X106781522Y-89214348D01*
X106906697Y-89339305D01*
X106926038Y-89351227D01*
X106936618Y-89357749D01*
X106984110Y-89410522D01*
X106996500Y-89465008D01*
X106996500Y-91036233D01*
X106995973Y-91047416D01*
X106994298Y-91054909D01*
X106994547Y-91062835D01*
X106994547Y-91062836D01*
X106996438Y-91122986D01*
X106996500Y-91126945D01*
X106996500Y-91154856D01*
X106996997Y-91158790D01*
X106996997Y-91158791D01*
X106997005Y-91158856D01*
X106997938Y-91170693D01*
X106999327Y-91214889D01*
X107004978Y-91234339D01*
X107008987Y-91253700D01*
X107011526Y-91273797D01*
X107014445Y-91281168D01*
X107014445Y-91281170D01*
X107027804Y-91314912D01*
X107031649Y-91326142D01*
X107036240Y-91341944D01*
X107043982Y-91368593D01*
X107048015Y-91375412D01*
X107048017Y-91375417D01*
X107054293Y-91386028D01*
X107062988Y-91403776D01*
X107070448Y-91422617D01*
X107075110Y-91429033D01*
X107075110Y-91429034D01*
X107096436Y-91458387D01*
X107102952Y-91468307D01*
X107112154Y-91483866D01*
X107125458Y-91506362D01*
X107139779Y-91520683D01*
X107152619Y-91535716D01*
X107164528Y-91552107D01*
X107170634Y-91557158D01*
X107198605Y-91580298D01*
X107207384Y-91588288D01*
X108555000Y-92935905D01*
X108589026Y-92998217D01*
X108583961Y-93069033D01*
X108555000Y-93114095D01*
X103747747Y-97921348D01*
X103739461Y-97928888D01*
X103732982Y-97933000D01*
X103727557Y-97938777D01*
X103686357Y-97982651D01*
X103683602Y-97985493D01*
X103663865Y-98005230D01*
X103661385Y-98008427D01*
X103653682Y-98017447D01*
X103623414Y-98049679D01*
X103619595Y-98056625D01*
X103619593Y-98056628D01*
X103613652Y-98067434D01*
X103602801Y-98083953D01*
X103590386Y-98099959D01*
X103587241Y-98107228D01*
X103587238Y-98107232D01*
X103572826Y-98140537D01*
X103567609Y-98151187D01*
X103546305Y-98189940D01*
X103544334Y-98197615D01*
X103544334Y-98197616D01*
X103541267Y-98209562D01*
X103534863Y-98228266D01*
X103526819Y-98246855D01*
X103525580Y-98254678D01*
X103525577Y-98254688D01*
X103519901Y-98290524D01*
X103517495Y-98302144D01*
X103514333Y-98314461D01*
X103506500Y-98344970D01*
X103506500Y-98365224D01*
X103504949Y-98384934D01*
X103501780Y-98404943D01*
X103502526Y-98412835D01*
X103505941Y-98448961D01*
X103506500Y-98460819D01*
X103506500Y-99621233D01*
X103505973Y-99632416D01*
X103504298Y-99639909D01*
X103504547Y-99647835D01*
X103504547Y-99647836D01*
X103506438Y-99707986D01*
X103506500Y-99711945D01*
X103506500Y-99739856D01*
X103506997Y-99743790D01*
X103506997Y-99743791D01*
X103507005Y-99743856D01*
X103507938Y-99755693D01*
X103509327Y-99799889D01*
X103514978Y-99819339D01*
X103518987Y-99838700D01*
X103521526Y-99858797D01*
X103524445Y-99866168D01*
X103524445Y-99866170D01*
X103537804Y-99899912D01*
X103541649Y-99911142D01*
X103553982Y-99953593D01*
X103558015Y-99960412D01*
X103558017Y-99960417D01*
X103564293Y-99971028D01*
X103572988Y-99988776D01*
X103580448Y-100007617D01*
X103585110Y-100014033D01*
X103585110Y-100014034D01*
X103606436Y-100043387D01*
X103612952Y-100053307D01*
X103635458Y-100091362D01*
X103649779Y-100105683D01*
X103662619Y-100120716D01*
X103674528Y-100137107D01*
X103708605Y-100165298D01*
X103717384Y-100173288D01*
X105320884Y-101776788D01*
X105354910Y-101839100D01*
X105349845Y-101909915D01*
X105307298Y-101966751D01*
X105271665Y-101985407D01*
X105163216Y-102021588D01*
X105150038Y-102027761D01*
X105012193Y-102113063D01*
X105000792Y-102122099D01*
X104886261Y-102236829D01*
X104877249Y-102248240D01*
X104792184Y-102386243D01*
X104786037Y-102399424D01*
X104734862Y-102553710D01*
X104731995Y-102567086D01*
X104722328Y-102661438D01*
X104722000Y-102667855D01*
X104722000Y-102917885D01*
X104726475Y-102933124D01*
X104727865Y-102934329D01*
X104735548Y-102936000D01*
X105858000Y-102936000D01*
X105926121Y-102956002D01*
X105972614Y-103009658D01*
X105984000Y-103062000D01*
X105984000Y-103318000D01*
X105963998Y-103386121D01*
X105910342Y-103432614D01*
X105858000Y-103444000D01*
X104740116Y-103444000D01*
X104724877Y-103448475D01*
X104723672Y-103449865D01*
X104722001Y-103457548D01*
X104722001Y-103712095D01*
X104722338Y-103718614D01*
X104732257Y-103814206D01*
X104735149Y-103827600D01*
X104786588Y-103981784D01*
X104792761Y-103994962D01*
X104878063Y-104132807D01*
X104887099Y-104144208D01*
X105001829Y-104258739D01*
X105013240Y-104267751D01*
X105151243Y-104352816D01*
X105164424Y-104358963D01*
X105271501Y-104394479D01*
X105329860Y-104434910D01*
X105357097Y-104500474D01*
X105344563Y-104570356D01*
X105320928Y-104603167D01*
X105184500Y-104739595D01*
X105122188Y-104773621D01*
X105095405Y-104776500D01*
X102948767Y-104776500D01*
X102937584Y-104775973D01*
X102930091Y-104774298D01*
X102922165Y-104774547D01*
X102922164Y-104774547D01*
X102862001Y-104776438D01*
X102858043Y-104776500D01*
X102830144Y-104776500D01*
X102826154Y-104777004D01*
X102814320Y-104777936D01*
X102770111Y-104779326D01*
X102762497Y-104781538D01*
X102762492Y-104781539D01*
X102750659Y-104784977D01*
X102731296Y-104788988D01*
X102711203Y-104791526D01*
X102703836Y-104794443D01*
X102703831Y-104794444D01*
X102670092Y-104807802D01*
X102658865Y-104811646D01*
X102616407Y-104823982D01*
X102609581Y-104828019D01*
X102598972Y-104834293D01*
X102581224Y-104842988D01*
X102562383Y-104850448D01*
X102555967Y-104855110D01*
X102555966Y-104855110D01*
X102526613Y-104876436D01*
X102516693Y-104882952D01*
X102485465Y-104901420D01*
X102485462Y-104901422D01*
X102478638Y-104905458D01*
X102464317Y-104919779D01*
X102449284Y-104932619D01*
X102432893Y-104944528D01*
X102427842Y-104950634D01*
X102404702Y-104978605D01*
X102396712Y-104987384D01*
X100572747Y-106811348D01*
X100564461Y-106818888D01*
X100557982Y-106823000D01*
X100552557Y-106828777D01*
X100511357Y-106872651D01*
X100508602Y-106875493D01*
X100488865Y-106895230D01*
X100486385Y-106898427D01*
X100478682Y-106907447D01*
X100448414Y-106939679D01*
X100444595Y-106946625D01*
X100444593Y-106946628D01*
X100438652Y-106957434D01*
X100427801Y-106973953D01*
X100415386Y-106989959D01*
X100412241Y-106997228D01*
X100412238Y-106997232D01*
X100397826Y-107030537D01*
X100392609Y-107041187D01*
X100371305Y-107079940D01*
X100369334Y-107087615D01*
X100369334Y-107087616D01*
X100366267Y-107099562D01*
X100359863Y-107118266D01*
X100351819Y-107136855D01*
X100350580Y-107144678D01*
X100350577Y-107144688D01*
X100344901Y-107180524D01*
X100342495Y-107192144D01*
X100331500Y-107234970D01*
X100331500Y-107255224D01*
X100329949Y-107274934D01*
X100326780Y-107294943D01*
X100327526Y-107302835D01*
X100330941Y-107338961D01*
X100331500Y-107350819D01*
X100331500Y-107885011D01*
X100311498Y-107953132D01*
X100257842Y-107999625D01*
X100205500Y-108011011D01*
X89452000Y-108011011D01*
X89383879Y-107991009D01*
X89337386Y-107937353D01*
X89326000Y-107885011D01*
X89326000Y-107822000D01*
X89346002Y-107753879D01*
X89399658Y-107707386D01*
X89452000Y-107696000D01*
X91269884Y-107696000D01*
X91285123Y-107691525D01*
X91286328Y-107690135D01*
X91287999Y-107682452D01*
X91287999Y-107535331D01*
X91287629Y-107528510D01*
X91282105Y-107477648D01*
X91278478Y-107462393D01*
X91240071Y-107359941D01*
X91234888Y-107289134D01*
X91240071Y-107271483D01*
X91278971Y-107167718D01*
X91278973Y-107167712D01*
X91281745Y-107160316D01*
X91288500Y-107098134D01*
X91288500Y-106843830D01*
X91308502Y-106775709D01*
X91362158Y-106729216D01*
X91432432Y-106719112D01*
X91488559Y-106741893D01*
X91618248Y-106836118D01*
X91624276Y-106838802D01*
X91624278Y-106838803D01*
X91786681Y-106911109D01*
X91792712Y-106913794D01*
X91886113Y-106933647D01*
X91973056Y-106952128D01*
X91973061Y-106952128D01*
X91979513Y-106953500D01*
X92170487Y-106953500D01*
X92176939Y-106952128D01*
X92176944Y-106952128D01*
X92263888Y-106933647D01*
X92357288Y-106913794D01*
X92363319Y-106911109D01*
X92525722Y-106838803D01*
X92525724Y-106838802D01*
X92531752Y-106836118D01*
X92549808Y-106823000D01*
X92594457Y-106790560D01*
X92686253Y-106723866D01*
X92814040Y-106581944D01*
X92909527Y-106416556D01*
X92968542Y-106234928D01*
X92980306Y-106123005D01*
X92987814Y-106051565D01*
X92988504Y-106045000D01*
X92978198Y-105946944D01*
X92969232Y-105861635D01*
X92969232Y-105861633D01*
X92968542Y-105855072D01*
X92909527Y-105673444D01*
X92904075Y-105664000D01*
X92817341Y-105513774D01*
X92814040Y-105508056D01*
X92768744Y-105457749D01*
X92690675Y-105371045D01*
X92690674Y-105371044D01*
X92686253Y-105366134D01*
X92574075Y-105284631D01*
X92546205Y-105256761D01*
X92545131Y-105255283D01*
X92545130Y-105255282D01*
X92540472Y-105248871D01*
X92506395Y-105220680D01*
X92497616Y-105212690D01*
X91325405Y-104040478D01*
X91291379Y-103978166D01*
X91288500Y-103951383D01*
X91288500Y-103721866D01*
X91281745Y-103659684D01*
X91280591Y-103656605D01*
X91284187Y-103587745D01*
X91325633Y-103530102D01*
X91391665Y-103504017D01*
X91403067Y-103503500D01*
X91760406Y-103503500D01*
X91828527Y-103523502D01*
X91849501Y-103540405D01*
X93032878Y-104723783D01*
X93066904Y-104786095D01*
X93069093Y-104799706D01*
X93072728Y-104834293D01*
X93084956Y-104950634D01*
X93086458Y-104964928D01*
X93145473Y-105146556D01*
X93148776Y-105152278D01*
X93148777Y-105152279D01*
X93160643Y-105172832D01*
X93240960Y-105311944D01*
X93245378Y-105316851D01*
X93245379Y-105316852D01*
X93286260Y-105362255D01*
X93368747Y-105453866D01*
X93523248Y-105566118D01*
X93529276Y-105568802D01*
X93529278Y-105568803D01*
X93691681Y-105641109D01*
X93697712Y-105643794D01*
X93791113Y-105663647D01*
X93878056Y-105682128D01*
X93878061Y-105682128D01*
X93884513Y-105683500D01*
X94075487Y-105683500D01*
X94081939Y-105682128D01*
X94081944Y-105682128D01*
X94168887Y-105663647D01*
X94262288Y-105643794D01*
X94268319Y-105641109D01*
X94430722Y-105568803D01*
X94430724Y-105568802D01*
X94436752Y-105566118D01*
X94591253Y-105453866D01*
X94673740Y-105362255D01*
X94714621Y-105316852D01*
X94714622Y-105316851D01*
X94719040Y-105311944D01*
X94799357Y-105172832D01*
X94811223Y-105152279D01*
X94811224Y-105152278D01*
X94814527Y-105146556D01*
X94873542Y-104964928D01*
X94875045Y-104950634D01*
X94892814Y-104781565D01*
X94893504Y-104775000D01*
X94883514Y-104679954D01*
X94874232Y-104591635D01*
X94874232Y-104591633D01*
X94873542Y-104585072D01*
X94814527Y-104403444D01*
X94809075Y-104394000D01*
X94722341Y-104243774D01*
X94719040Y-104238056D01*
X94710105Y-104228132D01*
X94595675Y-104101045D01*
X94595674Y-104101044D01*
X94591253Y-104096134D01*
X94436752Y-103983882D01*
X94430724Y-103981198D01*
X94430722Y-103981197D01*
X94268319Y-103908891D01*
X94268318Y-103908891D01*
X94262288Y-103906206D01*
X94167227Y-103886000D01*
X94081944Y-103867872D01*
X94081939Y-103867872D01*
X94075487Y-103866500D01*
X94019594Y-103866500D01*
X93951473Y-103846498D01*
X93930499Y-103829595D01*
X93266468Y-103165563D01*
X92578647Y-102477742D01*
X92571112Y-102469461D01*
X92567000Y-102462982D01*
X92517348Y-102416356D01*
X92514507Y-102413602D01*
X92494770Y-102393865D01*
X92491573Y-102391385D01*
X92482551Y-102383680D01*
X92482550Y-102383679D01*
X92450321Y-102353414D01*
X92443375Y-102349595D01*
X92443372Y-102349593D01*
X92432566Y-102343652D01*
X92416047Y-102332801D01*
X92414700Y-102331756D01*
X92400041Y-102320386D01*
X92392772Y-102317241D01*
X92392768Y-102317238D01*
X92359463Y-102302826D01*
X92348813Y-102297609D01*
X92310060Y-102276305D01*
X92290437Y-102271267D01*
X92271734Y-102264863D01*
X92260420Y-102259967D01*
X92260419Y-102259967D01*
X92253145Y-102256819D01*
X92245322Y-102255580D01*
X92245312Y-102255577D01*
X92209476Y-102249901D01*
X92197856Y-102247495D01*
X92162711Y-102238472D01*
X92162710Y-102238472D01*
X92155030Y-102236500D01*
X92134776Y-102236500D01*
X92115065Y-102234949D01*
X92102886Y-102233020D01*
X92095057Y-102231780D01*
X92087165Y-102232526D01*
X92051039Y-102235941D01*
X92039181Y-102236500D01*
X91281055Y-102236500D01*
X91212934Y-102216498D01*
X91180229Y-102186065D01*
X91148643Y-102143920D01*
X91148642Y-102143919D01*
X91143261Y-102136739D01*
X91026705Y-102049385D01*
X90890316Y-101998255D01*
X90828134Y-101991500D01*
X88331866Y-101991500D01*
X88269684Y-101998255D01*
X88133295Y-102049385D01*
X88016739Y-102136739D01*
X87929385Y-102253295D01*
X87878255Y-102389684D01*
X87871500Y-102451866D01*
X87871500Y-102546404D01*
X87851498Y-102614525D01*
X87797842Y-102661018D01*
X87727568Y-102671122D01*
X87662988Y-102641628D01*
X87656405Y-102635499D01*
X87498648Y-102477742D01*
X87491113Y-102469462D01*
X87487000Y-102462982D01*
X87437348Y-102416356D01*
X87434507Y-102413602D01*
X87414770Y-102393865D01*
X87411573Y-102391385D01*
X87402550Y-102383679D01*
X87388383Y-102370375D01*
X87356655Y-102322756D01*
X87334952Y-102264863D01*
X87330615Y-102253295D01*
X87243261Y-102136739D01*
X87126705Y-102049385D01*
X86990316Y-101998255D01*
X86928134Y-101991500D01*
X84431866Y-101991500D01*
X84369684Y-101998255D01*
X84233295Y-102049385D01*
X84116739Y-102136739D01*
X84029385Y-102253295D01*
X83978255Y-102389684D01*
X83971500Y-102451866D01*
X83971500Y-103288134D01*
X83978255Y-103350316D01*
X83981027Y-103357712D01*
X83981029Y-103357718D01*
X84019929Y-103461483D01*
X84025112Y-103532290D01*
X84019929Y-103549941D01*
X83981522Y-103652391D01*
X83977895Y-103667649D01*
X83972369Y-103718514D01*
X83972000Y-103725328D01*
X83972000Y-103867885D01*
X83976475Y-103883124D01*
X83977865Y-103884329D01*
X83985548Y-103886000D01*
X85808000Y-103886000D01*
X85876121Y-103906002D01*
X85922614Y-103959658D01*
X85934000Y-104012000D01*
X85934000Y-105538000D01*
X85913998Y-105606121D01*
X85860342Y-105652614D01*
X85808000Y-105664000D01*
X83990116Y-105664000D01*
X83974877Y-105668475D01*
X83973672Y-105669865D01*
X83972001Y-105677548D01*
X83972001Y-105824669D01*
X83972371Y-105831490D01*
X83977895Y-105882352D01*
X83981522Y-105897607D01*
X84019929Y-106000059D01*
X84025112Y-106070866D01*
X84019929Y-106088517D01*
X83981029Y-106192282D01*
X83981027Y-106192288D01*
X83978255Y-106199684D01*
X83971500Y-106261866D01*
X83971500Y-107098134D01*
X83978255Y-107160316D01*
X83981027Y-107167712D01*
X83981029Y-107167718D01*
X84019929Y-107271483D01*
X84025112Y-107342290D01*
X84019929Y-107359941D01*
X83981522Y-107462391D01*
X83977895Y-107477649D01*
X83972369Y-107528514D01*
X83972000Y-107535328D01*
X83972000Y-107677885D01*
X83976475Y-107693124D01*
X83977865Y-107694329D01*
X83985548Y-107696000D01*
X85808000Y-107696000D01*
X85876121Y-107716002D01*
X85922614Y-107769658D01*
X85934000Y-107822000D01*
X85934000Y-108809884D01*
X85938475Y-108825123D01*
X85939865Y-108826328D01*
X85947548Y-108827999D01*
X86924669Y-108827999D01*
X86931490Y-108827629D01*
X86982352Y-108822105D01*
X86997604Y-108818479D01*
X87118054Y-108773324D01*
X87141517Y-108760478D01*
X87142794Y-108762810D01*
X87196326Y-108742815D01*
X87265707Y-108757874D01*
X87294469Y-108779395D01*
X87551832Y-109036758D01*
X87559376Y-109045048D01*
X87563489Y-109051529D01*
X87569266Y-109056954D01*
X87613156Y-109098169D01*
X87615998Y-109100924D01*
X87635719Y-109120645D01*
X87638914Y-109123123D01*
X87647936Y-109130829D01*
X87680168Y-109161097D01*
X87687117Y-109164917D01*
X87697921Y-109170857D01*
X87714445Y-109181710D01*
X87730448Y-109194124D01*
X87771032Y-109211687D01*
X87781662Y-109216894D01*
X87820429Y-109238206D01*
X87828106Y-109240177D01*
X87828111Y-109240179D01*
X87840047Y-109243243D01*
X87858755Y-109249648D01*
X87877344Y-109257692D01*
X87885172Y-109258932D01*
X87885179Y-109258934D01*
X87921013Y-109264610D01*
X87932633Y-109267016D01*
X87967778Y-109276039D01*
X87975459Y-109278011D01*
X87995713Y-109278011D01*
X88015423Y-109279562D01*
X88035432Y-109282731D01*
X88043324Y-109281985D01*
X88079450Y-109278570D01*
X88091308Y-109278011D01*
X100205500Y-109278011D01*
X100273621Y-109298013D01*
X100320114Y-109351669D01*
X100331500Y-109404011D01*
X100331500Y-109776233D01*
X100330973Y-109787416D01*
X100329298Y-109794909D01*
X100329547Y-109802835D01*
X100329547Y-109802836D01*
X100331438Y-109862986D01*
X100331500Y-109866945D01*
X100331500Y-109894856D01*
X100331997Y-109898790D01*
X100331997Y-109898791D01*
X100332005Y-109898856D01*
X100332938Y-109910693D01*
X100334327Y-109954889D01*
X100339978Y-109974339D01*
X100343987Y-109993700D01*
X100344459Y-109997432D01*
X100346526Y-110013797D01*
X100349445Y-110021168D01*
X100349445Y-110021170D01*
X100362804Y-110054912D01*
X100366649Y-110066142D01*
X100378982Y-110108593D01*
X100383015Y-110115412D01*
X100383017Y-110115417D01*
X100389293Y-110126028D01*
X100397988Y-110143776D01*
X100405448Y-110162617D01*
X100410110Y-110169033D01*
X100410110Y-110169034D01*
X100431436Y-110198387D01*
X100437952Y-110208307D01*
X100448745Y-110226556D01*
X100460458Y-110246362D01*
X100474779Y-110260683D01*
X100487619Y-110275716D01*
X100499528Y-110292107D01*
X100533605Y-110320298D01*
X100542384Y-110328288D01*
X102366348Y-112152253D01*
X102373888Y-112160539D01*
X102378000Y-112167018D01*
X102383777Y-112172443D01*
X102427651Y-112213643D01*
X102430493Y-112216398D01*
X102450230Y-112236135D01*
X102453427Y-112238615D01*
X102462447Y-112246318D01*
X102494679Y-112276586D01*
X102501625Y-112280405D01*
X102501628Y-112280407D01*
X102512434Y-112286348D01*
X102528953Y-112297199D01*
X102544959Y-112309614D01*
X102552228Y-112312759D01*
X102552232Y-112312762D01*
X102585537Y-112327174D01*
X102596187Y-112332391D01*
X102634940Y-112353695D01*
X102642615Y-112355666D01*
X102642616Y-112355666D01*
X102654562Y-112358733D01*
X102673267Y-112365137D01*
X102691855Y-112373181D01*
X102699678Y-112374420D01*
X102699688Y-112374423D01*
X102735524Y-112380099D01*
X102747144Y-112382505D01*
X102778959Y-112390673D01*
X102789970Y-112393500D01*
X102810224Y-112393500D01*
X102829934Y-112395051D01*
X102849943Y-112398220D01*
X102857835Y-112397474D01*
X102876580Y-112395702D01*
X102893962Y-112394059D01*
X102905819Y-112393500D01*
X112316233Y-112393500D01*
X112327416Y-112394027D01*
X112334909Y-112395702D01*
X112342835Y-112395453D01*
X112342836Y-112395453D01*
X112402986Y-112393562D01*
X112406945Y-112393500D01*
X112434856Y-112393500D01*
X112438791Y-112393003D01*
X112438856Y-112392995D01*
X112450693Y-112392062D01*
X112482951Y-112391048D01*
X112486970Y-112390922D01*
X112494889Y-112390673D01*
X112514343Y-112385021D01*
X112533700Y-112381013D01*
X112545930Y-112379468D01*
X112545931Y-112379468D01*
X112553797Y-112378474D01*
X112561168Y-112375555D01*
X112561170Y-112375555D01*
X112594912Y-112362196D01*
X112606142Y-112358351D01*
X112640983Y-112348229D01*
X112640984Y-112348229D01*
X112648593Y-112346018D01*
X112655412Y-112341985D01*
X112655417Y-112341983D01*
X112666028Y-112335707D01*
X112683776Y-112327012D01*
X112702617Y-112319552D01*
X112738387Y-112293564D01*
X112748307Y-112287048D01*
X112779535Y-112268580D01*
X112779538Y-112268578D01*
X112786362Y-112264542D01*
X112800683Y-112250221D01*
X112815717Y-112237380D01*
X112825694Y-112230131D01*
X112832107Y-112225472D01*
X112860298Y-112191395D01*
X112868288Y-112182616D01*
X115160499Y-109890405D01*
X115222811Y-109856379D01*
X115249594Y-109853500D01*
X115305200Y-109853500D01*
X115373321Y-109873502D01*
X115419814Y-109927158D01*
X115429918Y-109997432D01*
X115414319Y-110042500D01*
X115380554Y-110100983D01*
X115370473Y-110118444D01*
X115311458Y-110300072D01*
X115291496Y-110490000D01*
X115292186Y-110496565D01*
X115308187Y-110648803D01*
X115311458Y-110679928D01*
X115370473Y-110861556D01*
X115465960Y-111026944D01*
X115470378Y-111031851D01*
X115470379Y-111031852D01*
X115589325Y-111163955D01*
X115593747Y-111168866D01*
X115748248Y-111281118D01*
X115754276Y-111283802D01*
X115754278Y-111283803D01*
X115916681Y-111356109D01*
X115922712Y-111358794D01*
X116016112Y-111378647D01*
X116103056Y-111397128D01*
X116103061Y-111397128D01*
X116109513Y-111398500D01*
X116165406Y-111398500D01*
X116233527Y-111418502D01*
X116254501Y-111435405D01*
X119909595Y-115090499D01*
X119943621Y-115152811D01*
X119946500Y-115179594D01*
X119946500Y-115975011D01*
X119926498Y-116043132D01*
X119872842Y-116089625D01*
X119820500Y-116101011D01*
X118079824Y-116101011D01*
X118011703Y-116081009D01*
X117990728Y-116064106D01*
X117599302Y-115672679D01*
X117194365Y-115267742D01*
X117186831Y-115259463D01*
X117182718Y-115252982D01*
X117133066Y-115206356D01*
X117130225Y-115203602D01*
X117110488Y-115183865D01*
X117107291Y-115181385D01*
X117098269Y-115173680D01*
X117071818Y-115148841D01*
X117066039Y-115143414D01*
X117059093Y-115139595D01*
X117059090Y-115139593D01*
X117048284Y-115133652D01*
X117031765Y-115122801D01*
X117031301Y-115122441D01*
X117015759Y-115110386D01*
X116984458Y-115096841D01*
X116929884Y-115051429D01*
X116908500Y-114981204D01*
X116908500Y-114861866D01*
X116901745Y-114799684D01*
X116850615Y-114663295D01*
X116763261Y-114546739D01*
X116646705Y-114459385D01*
X116510316Y-114408255D01*
X116448134Y-114401500D01*
X115351866Y-114401500D01*
X115289684Y-114408255D01*
X115270230Y-114415548D01*
X115161699Y-114456234D01*
X115161696Y-114456236D01*
X115153295Y-114459385D01*
X115153036Y-114458693D01*
X115090626Y-114472343D01*
X115046615Y-114459420D01*
X115046462Y-114459828D01*
X115040888Y-114457738D01*
X115038966Y-114457174D01*
X115038061Y-114456679D01*
X114917606Y-114411522D01*
X114902351Y-114407895D01*
X114851486Y-114402369D01*
X114844672Y-114402000D01*
X114572115Y-114402000D01*
X114556876Y-114406475D01*
X114555671Y-114407865D01*
X114554000Y-114415548D01*
X114554000Y-115788000D01*
X114533998Y-115856121D01*
X114480342Y-115902614D01*
X114428000Y-115914000D01*
X114172000Y-115914000D01*
X114103879Y-115893998D01*
X114057386Y-115840342D01*
X114046000Y-115788000D01*
X114046000Y-114420116D01*
X114041525Y-114404877D01*
X114040135Y-114403672D01*
X114032452Y-114402001D01*
X113755331Y-114402001D01*
X113748510Y-114402371D01*
X113697648Y-114407895D01*
X113682396Y-114411521D01*
X113561939Y-114456679D01*
X113561034Y-114457174D01*
X113560034Y-114457393D01*
X113553538Y-114459828D01*
X113553186Y-114458890D01*
X113491677Y-114472343D01*
X113446788Y-114459162D01*
X113446705Y-114459385D01*
X113443663Y-114458244D01*
X113443656Y-114458242D01*
X113438304Y-114456236D01*
X113438301Y-114456234D01*
X113329770Y-114415548D01*
X113310316Y-114408255D01*
X113248134Y-114401500D01*
X112151866Y-114401500D01*
X112089684Y-114408255D01*
X111953295Y-114459385D01*
X111836739Y-114546739D01*
X111749385Y-114663295D01*
X111698255Y-114799684D01*
X111691500Y-114861866D01*
X111691500Y-116080500D01*
X111671498Y-116148621D01*
X111617842Y-116195114D01*
X111565500Y-116206500D01*
X110169595Y-116206500D01*
X110101474Y-116186498D01*
X110080499Y-116169595D01*
X109631311Y-115720406D01*
X109178647Y-115267742D01*
X109171113Y-115259463D01*
X109167000Y-115252982D01*
X109117348Y-115206356D01*
X109114507Y-115203602D01*
X109094770Y-115183865D01*
X109091573Y-115181385D01*
X109082551Y-115173680D01*
X109056100Y-115148841D01*
X109050321Y-115143414D01*
X109043375Y-115139595D01*
X109043372Y-115139593D01*
X109032566Y-115133652D01*
X109016047Y-115122801D01*
X109015583Y-115122441D01*
X109000041Y-115110386D01*
X108992772Y-115107241D01*
X108992768Y-115107238D01*
X108959463Y-115092826D01*
X108948813Y-115087609D01*
X108910060Y-115066305D01*
X108890437Y-115061267D01*
X108871734Y-115054863D01*
X108860420Y-115049967D01*
X108860419Y-115049967D01*
X108853145Y-115046819D01*
X108845322Y-115045580D01*
X108845312Y-115045577D01*
X108809476Y-115039901D01*
X108797856Y-115037495D01*
X108755031Y-115026500D01*
X108755421Y-115024983D01*
X108698633Y-115000217D01*
X108659231Y-114941158D01*
X108653500Y-114903591D01*
X108653500Y-114861866D01*
X108646745Y-114799684D01*
X108595615Y-114663295D01*
X108508261Y-114546739D01*
X108391705Y-114459385D01*
X108255316Y-114408255D01*
X108193134Y-114401500D01*
X107096866Y-114401500D01*
X107034684Y-114408255D01*
X107015230Y-114415548D01*
X106906699Y-114456234D01*
X106906696Y-114456236D01*
X106898295Y-114459385D01*
X106898036Y-114458693D01*
X106835626Y-114472343D01*
X106791615Y-114459420D01*
X106791462Y-114459828D01*
X106785888Y-114457738D01*
X106783966Y-114457174D01*
X106783061Y-114456679D01*
X106662606Y-114411522D01*
X106647351Y-114407895D01*
X106596486Y-114402369D01*
X106589672Y-114402000D01*
X106317115Y-114402000D01*
X106301876Y-114406475D01*
X106300671Y-114407865D01*
X106299000Y-114415548D01*
X106299000Y-115788000D01*
X106278998Y-115856121D01*
X106225342Y-115902614D01*
X106173000Y-115914000D01*
X105917000Y-115914000D01*
X105848879Y-115893998D01*
X105802386Y-115840342D01*
X105791000Y-115788000D01*
X105791000Y-114420116D01*
X105786525Y-114404877D01*
X105785135Y-114403672D01*
X105777452Y-114402001D01*
X105500331Y-114402001D01*
X105493510Y-114402371D01*
X105442648Y-114407895D01*
X105427396Y-114411521D01*
X105306939Y-114456679D01*
X105306034Y-114457174D01*
X105305034Y-114457393D01*
X105298538Y-114459828D01*
X105298186Y-114458890D01*
X105236677Y-114472343D01*
X105191788Y-114459162D01*
X105191705Y-114459385D01*
X105188663Y-114458244D01*
X105188656Y-114458242D01*
X105183304Y-114456236D01*
X105183301Y-114456234D01*
X105074770Y-114415548D01*
X105055316Y-114408255D01*
X104993134Y-114401500D01*
X103896866Y-114401500D01*
X103834684Y-114408255D01*
X103698295Y-114459385D01*
X103581739Y-114546739D01*
X103494385Y-114663295D01*
X103443255Y-114799684D01*
X103436500Y-114861866D01*
X103436500Y-116458134D01*
X103443255Y-116520316D01*
X103494385Y-116656705D01*
X103495638Y-116658377D01*
X103510066Y-116724350D01*
X103485329Y-116790897D01*
X103428540Y-116833507D01*
X103384377Y-116841500D01*
X102310312Y-116841500D01*
X102242191Y-116821498D01*
X102221217Y-116804595D01*
X101459755Y-116043132D01*
X100684365Y-115267742D01*
X100676830Y-115259461D01*
X100672718Y-115252982D01*
X100623066Y-115206356D01*
X100620225Y-115203602D01*
X100600488Y-115183865D01*
X100597291Y-115181385D01*
X100588269Y-115173680D01*
X100561818Y-115148841D01*
X100556039Y-115143414D01*
X100549093Y-115139595D01*
X100549090Y-115139593D01*
X100538284Y-115133652D01*
X100521765Y-115122801D01*
X100521301Y-115122441D01*
X100505759Y-115110386D01*
X100474458Y-115096841D01*
X100419884Y-115051429D01*
X100398500Y-114981204D01*
X100398500Y-114861866D01*
X100391745Y-114799684D01*
X100340615Y-114663295D01*
X100253261Y-114546739D01*
X100136705Y-114459385D01*
X100000316Y-114408255D01*
X99938134Y-114401500D01*
X98841866Y-114401500D01*
X98779684Y-114408255D01*
X98760230Y-114415548D01*
X98651699Y-114456234D01*
X98651696Y-114456236D01*
X98643295Y-114459385D01*
X98643036Y-114458693D01*
X98580626Y-114472343D01*
X98536615Y-114459420D01*
X98536462Y-114459828D01*
X98530888Y-114457738D01*
X98528966Y-114457174D01*
X98528061Y-114456679D01*
X98407606Y-114411522D01*
X98392351Y-114407895D01*
X98341486Y-114402369D01*
X98334672Y-114402000D01*
X98062115Y-114402000D01*
X98046876Y-114406475D01*
X98045671Y-114407865D01*
X98044000Y-114415548D01*
X98044000Y-115788000D01*
X98023998Y-115856121D01*
X97970342Y-115902614D01*
X97918000Y-115914000D01*
X97662000Y-115914000D01*
X97593879Y-115893998D01*
X97547386Y-115840342D01*
X97536000Y-115788000D01*
X97536000Y-114420116D01*
X97531525Y-114404877D01*
X97530135Y-114403672D01*
X97522452Y-114402001D01*
X97245331Y-114402001D01*
X97238510Y-114402371D01*
X97187648Y-114407895D01*
X97172396Y-114411521D01*
X97051939Y-114456679D01*
X97051034Y-114457174D01*
X97050034Y-114457393D01*
X97043538Y-114459828D01*
X97043186Y-114458890D01*
X96981677Y-114472343D01*
X96936788Y-114459162D01*
X96936705Y-114459385D01*
X96933663Y-114458244D01*
X96933656Y-114458242D01*
X96928304Y-114456236D01*
X96928301Y-114456234D01*
X96819770Y-114415548D01*
X96800316Y-114408255D01*
X96738134Y-114401500D01*
X95641866Y-114401500D01*
X95579684Y-114408255D01*
X95443295Y-114459385D01*
X95326739Y-114546739D01*
X95239385Y-114663295D01*
X95188255Y-114799684D01*
X95181500Y-114861866D01*
X95181500Y-115975011D01*
X95161498Y-116043132D01*
X95107842Y-116089625D01*
X95055500Y-116101011D01*
X92524105Y-116101011D01*
X92455984Y-116081009D01*
X92435010Y-116064106D01*
X92180405Y-115809501D01*
X92146379Y-115747189D01*
X92143500Y-115720406D01*
X92143500Y-114861866D01*
X92136745Y-114799684D01*
X92085615Y-114663295D01*
X91998261Y-114546739D01*
X91881705Y-114459385D01*
X91745316Y-114408255D01*
X91683134Y-114401500D01*
X90586866Y-114401500D01*
X90524684Y-114408255D01*
X90505230Y-114415548D01*
X90396699Y-114456234D01*
X90396696Y-114456236D01*
X90388295Y-114459385D01*
X90388036Y-114458693D01*
X90325626Y-114472343D01*
X90281615Y-114459420D01*
X90281462Y-114459828D01*
X90275888Y-114457738D01*
X90273966Y-114457174D01*
X90273061Y-114456679D01*
X90152606Y-114411522D01*
X90137351Y-114407895D01*
X90086486Y-114402369D01*
X90079672Y-114402000D01*
X89807115Y-114402000D01*
X89791876Y-114406475D01*
X89790671Y-114407865D01*
X89789000Y-114415548D01*
X89789000Y-115788000D01*
X89768998Y-115856121D01*
X89715342Y-115902614D01*
X89663000Y-115914000D01*
X89407000Y-115914000D01*
X89338879Y-115893998D01*
X89292386Y-115840342D01*
X89281000Y-115788000D01*
X89281000Y-114420116D01*
X89276525Y-114404877D01*
X89275135Y-114403672D01*
X89267452Y-114402001D01*
X88990331Y-114402001D01*
X88983510Y-114402371D01*
X88932648Y-114407895D01*
X88917396Y-114411521D01*
X88796939Y-114456679D01*
X88796034Y-114457174D01*
X88795034Y-114457393D01*
X88788538Y-114459828D01*
X88788186Y-114458890D01*
X88726677Y-114472343D01*
X88681788Y-114459162D01*
X88681705Y-114459385D01*
X88678663Y-114458244D01*
X88678656Y-114458242D01*
X88673304Y-114456236D01*
X88673301Y-114456234D01*
X88564770Y-114415548D01*
X88545316Y-114408255D01*
X88483134Y-114401500D01*
X87386866Y-114401500D01*
X87324684Y-114408255D01*
X87188295Y-114459385D01*
X87071739Y-114546739D01*
X86984385Y-114663295D01*
X86933255Y-114799684D01*
X86926500Y-114861866D01*
X86926500Y-116458134D01*
X86933255Y-116520316D01*
X86984385Y-116656705D01*
X87071739Y-116773261D01*
X87188295Y-116860615D01*
X87324684Y-116911745D01*
X87386866Y-116918500D01*
X88030406Y-116918500D01*
X88098527Y-116938502D01*
X88119501Y-116955405D01*
X90261104Y-119097008D01*
X90295130Y-119159320D01*
X90290065Y-119230135D01*
X90247518Y-119286971D01*
X90180998Y-119311782D01*
X90147461Y-119309059D01*
X90145316Y-119308255D01*
X90083134Y-119301500D01*
X88986866Y-119301500D01*
X88924684Y-119308255D01*
X88915276Y-119311782D01*
X88796699Y-119356234D01*
X88796696Y-119356236D01*
X88788295Y-119359385D01*
X88787976Y-119358534D01*
X88726151Y-119372055D01*
X88681834Y-119359042D01*
X88681705Y-119359385D01*
X88677019Y-119357628D01*
X88677015Y-119357627D01*
X88673304Y-119356236D01*
X88673301Y-119356234D01*
X88554724Y-119311782D01*
X88545316Y-119308255D01*
X88483134Y-119301500D01*
X87386866Y-119301500D01*
X87324684Y-119308255D01*
X87188295Y-119359385D01*
X87071739Y-119446739D01*
X86984385Y-119563295D01*
X86933255Y-119699684D01*
X86926500Y-119761866D01*
X86926500Y-121358134D01*
X86933255Y-121420316D01*
X86984385Y-121556705D01*
X87071739Y-121673261D01*
X87188295Y-121760615D01*
X87324684Y-121811745D01*
X87386866Y-121818500D01*
X88483134Y-121818500D01*
X88545316Y-121811745D01*
X88592586Y-121794024D01*
X88673301Y-121763766D01*
X88673304Y-121763764D01*
X88681705Y-121760615D01*
X88682024Y-121761466D01*
X88743849Y-121747945D01*
X88788166Y-121760958D01*
X88788295Y-121760615D01*
X88792981Y-121762372D01*
X88792985Y-121762373D01*
X88796696Y-121763764D01*
X88796699Y-121763766D01*
X88877414Y-121794024D01*
X88924684Y-121811745D01*
X88986866Y-121818500D01*
X89546383Y-121818500D01*
X89614504Y-121838502D01*
X89635478Y-121855405D01*
X89806837Y-122026764D01*
X89814377Y-122035050D01*
X89818489Y-122041529D01*
X89824266Y-122046954D01*
X89868140Y-122088154D01*
X89870982Y-122090909D01*
X89890719Y-122110646D01*
X89893916Y-122113126D01*
X89902936Y-122120829D01*
X89935168Y-122151097D01*
X89942114Y-122154916D01*
X89942117Y-122154918D01*
X89952923Y-122160859D01*
X89969442Y-122171710D01*
X89985448Y-122184125D01*
X89992717Y-122187270D01*
X89992721Y-122187273D01*
X90026026Y-122201685D01*
X90036676Y-122206902D01*
X90075429Y-122228206D01*
X90083104Y-122230177D01*
X90083105Y-122230177D01*
X90095051Y-122233244D01*
X90113756Y-122239648D01*
X90132344Y-122247692D01*
X90140167Y-122248931D01*
X90140177Y-122248934D01*
X90176013Y-122254610D01*
X90187633Y-122257016D01*
X90219448Y-122265184D01*
X90230459Y-122268011D01*
X90250713Y-122268011D01*
X90270423Y-122269562D01*
X90290432Y-122272731D01*
X90298324Y-122271985D01*
X90317069Y-122270213D01*
X90334451Y-122268570D01*
X90346308Y-122268011D01*
X98505713Y-122268011D01*
X98525423Y-122269562D01*
X98545432Y-122272731D01*
X98553324Y-122271985D01*
X98572069Y-122270213D01*
X98589451Y-122268570D01*
X98601308Y-122268011D01*
X106760713Y-122268011D01*
X106780423Y-122269562D01*
X106800432Y-122272731D01*
X106808324Y-122271985D01*
X106827069Y-122270213D01*
X106844451Y-122268570D01*
X106856308Y-122268011D01*
X114589735Y-122268011D01*
X114609445Y-122269562D01*
X114629454Y-122272731D01*
X114637346Y-122271985D01*
X114656091Y-122270213D01*
X114673473Y-122268570D01*
X114685330Y-122268011D01*
X121651722Y-122268011D01*
X121662905Y-122268538D01*
X121670398Y-122270213D01*
X121678324Y-122269964D01*
X121678325Y-122269964D01*
X121738475Y-122268073D01*
X121742434Y-122268011D01*
X124900744Y-122268011D01*
X124911927Y-122268538D01*
X124919420Y-122270213D01*
X124927346Y-122269964D01*
X124927347Y-122269964D01*
X124987497Y-122268073D01*
X124991456Y-122268011D01*
X125019367Y-122268011D01*
X125023302Y-122267514D01*
X125023367Y-122267506D01*
X125035204Y-122266573D01*
X125067462Y-122265559D01*
X125071481Y-122265433D01*
X125079400Y-122265184D01*
X125098854Y-122259532D01*
X125118211Y-122255524D01*
X125130441Y-122253979D01*
X125130442Y-122253979D01*
X125138308Y-122252985D01*
X125145679Y-122250066D01*
X125145681Y-122250066D01*
X125179423Y-122236707D01*
X125190653Y-122232862D01*
X125225494Y-122222740D01*
X125225495Y-122222740D01*
X125233104Y-122220529D01*
X125239923Y-122216496D01*
X125239928Y-122216494D01*
X125250539Y-122210218D01*
X125268287Y-122201523D01*
X125287128Y-122194063D01*
X125322898Y-122168075D01*
X125332818Y-122161559D01*
X125364046Y-122143091D01*
X125364049Y-122143089D01*
X125370873Y-122139053D01*
X125385194Y-122124732D01*
X125400228Y-122111891D01*
X125410205Y-122104642D01*
X125416618Y-122099983D01*
X125444809Y-122065906D01*
X125452799Y-122057127D01*
X131837247Y-115672679D01*
X131845537Y-115665135D01*
X131852018Y-115661022D01*
X131898659Y-115611354D01*
X131901413Y-115608513D01*
X131921134Y-115588792D01*
X131923612Y-115585597D01*
X131931318Y-115576575D01*
X131956158Y-115550123D01*
X131961586Y-115544343D01*
X131971346Y-115526590D01*
X131982199Y-115510067D01*
X131989753Y-115500328D01*
X131994613Y-115494063D01*
X132012176Y-115453479D01*
X132017383Y-115442849D01*
X132038695Y-115404082D01*
X132040666Y-115396405D01*
X132040668Y-115396400D01*
X132043732Y-115384464D01*
X132050138Y-115365752D01*
X132055033Y-115354441D01*
X132058181Y-115347167D01*
X132059421Y-115339339D01*
X132059423Y-115339332D01*
X132065099Y-115303498D01*
X132067505Y-115291878D01*
X132076528Y-115256733D01*
X132076528Y-115256732D01*
X132078500Y-115249052D01*
X132078500Y-115228798D01*
X132080051Y-115209087D01*
X132081980Y-115196908D01*
X132083220Y-115189079D01*
X132079059Y-115145060D01*
X132078500Y-115133203D01*
X132078500Y-86438768D01*
X132079027Y-86427585D01*
X132080702Y-86420092D01*
X132078562Y-86352001D01*
X132078500Y-86348044D01*
X132078500Y-86320144D01*
X132077994Y-86316134D01*
X132077063Y-86304311D01*
X132076976Y-86301523D01*
X132075674Y-86260111D01*
X132073462Y-86252497D01*
X132073461Y-86252492D01*
X132070023Y-86240659D01*
X132066012Y-86221295D01*
X132064467Y-86209064D01*
X132063474Y-86201203D01*
X132060557Y-86193836D01*
X132060556Y-86193831D01*
X132047198Y-86160092D01*
X132043354Y-86148865D01*
X132037811Y-86129788D01*
X132031018Y-86106407D01*
X132026683Y-86099077D01*
X132020707Y-86088972D01*
X132012012Y-86071224D01*
X132004552Y-86052383D01*
X131983077Y-86022824D01*
X131978564Y-86016613D01*
X131972048Y-86006693D01*
X131953580Y-85975465D01*
X131953578Y-85975462D01*
X131949542Y-85968638D01*
X131935221Y-85954317D01*
X131922380Y-85939283D01*
X131915131Y-85929306D01*
X131910472Y-85922893D01*
X131876395Y-85894702D01*
X131867616Y-85886712D01*
X125407122Y-79426217D01*
X125373096Y-79363905D01*
X125370907Y-79350292D01*
X125354232Y-79191635D01*
X125354232Y-79191633D01*
X125353542Y-79185072D01*
X125294527Y-79003444D01*
X125199040Y-78838056D01*
X125109400Y-78738500D01*
X125075675Y-78701045D01*
X125075674Y-78701044D01*
X125071253Y-78696134D01*
X124916752Y-78583882D01*
X124910724Y-78581198D01*
X124910722Y-78581197D01*
X124748319Y-78508891D01*
X124748318Y-78508891D01*
X124742288Y-78506206D01*
X124648888Y-78486353D01*
X124561944Y-78467872D01*
X124561939Y-78467872D01*
X124555487Y-78466500D01*
X124364513Y-78466500D01*
X124358061Y-78467872D01*
X124358056Y-78467872D01*
X124271112Y-78486353D01*
X124177712Y-78506206D01*
X124171682Y-78508891D01*
X124171681Y-78508891D01*
X124009278Y-78581197D01*
X124009276Y-78581198D01*
X124003248Y-78583882D01*
X123848747Y-78696134D01*
X123844326Y-78701044D01*
X123844325Y-78701045D01*
X123810601Y-78738500D01*
X123720960Y-78838056D01*
X123625473Y-79003444D01*
X123566458Y-79185072D01*
X123546496Y-79375000D01*
X123547186Y-79381565D01*
X123563187Y-79533803D01*
X123566458Y-79564928D01*
X123625473Y-79746556D01*
X123628776Y-79752278D01*
X123628777Y-79752279D01*
X123645947Y-79782018D01*
X123720960Y-79911944D01*
X123725378Y-79916851D01*
X123725379Y-79916852D01*
X123812149Y-80013220D01*
X123848747Y-80053866D01*
X124003248Y-80166118D01*
X124009276Y-80168802D01*
X124009278Y-80168803D01*
X124171681Y-80241109D01*
X124177712Y-80243794D01*
X124271113Y-80263647D01*
X124358056Y-80282128D01*
X124358061Y-80282128D01*
X124364513Y-80283500D01*
X124420406Y-80283500D01*
X124488527Y-80303502D01*
X124509501Y-80320405D01*
X130774595Y-86585500D01*
X130808621Y-86647812D01*
X130811500Y-86674595D01*
X130811500Y-114854427D01*
X130791498Y-114922548D01*
X130774595Y-114943522D01*
X125378595Y-120339522D01*
X125316283Y-120373548D01*
X125245468Y-120368483D01*
X125188632Y-120325936D01*
X125163821Y-120259416D01*
X125163500Y-120250427D01*
X125163500Y-119761866D01*
X125156745Y-119699684D01*
X125105615Y-119563295D01*
X125018261Y-119446739D01*
X124901705Y-119359385D01*
X124765316Y-119308255D01*
X124703134Y-119301500D01*
X124059594Y-119301500D01*
X123991473Y-119281498D01*
X123970499Y-119264595D01*
X121828216Y-117122311D01*
X121794190Y-117059999D01*
X121799255Y-116989183D01*
X121841802Y-116932348D01*
X121908322Y-116907537D01*
X121946459Y-116910634D01*
X121952645Y-116912105D01*
X122003514Y-116917631D01*
X122010328Y-116918000D01*
X122282885Y-116918000D01*
X122298124Y-116913525D01*
X122299329Y-116912135D01*
X122301000Y-116904452D01*
X122301000Y-115532000D01*
X122321002Y-115463879D01*
X122374658Y-115417386D01*
X122427000Y-115406000D01*
X122683000Y-115406000D01*
X122751121Y-115426002D01*
X122797614Y-115479658D01*
X122809000Y-115532000D01*
X122809000Y-116899884D01*
X122813475Y-116915123D01*
X122814865Y-116916328D01*
X122822548Y-116917999D01*
X123099669Y-116917999D01*
X123106490Y-116917629D01*
X123157352Y-116912105D01*
X123172604Y-116908479D01*
X123293061Y-116863321D01*
X123293966Y-116862826D01*
X123294966Y-116862607D01*
X123301462Y-116860172D01*
X123301814Y-116861110D01*
X123363323Y-116847657D01*
X123408212Y-116860838D01*
X123408295Y-116860615D01*
X123411337Y-116861756D01*
X123411344Y-116861758D01*
X123416696Y-116863764D01*
X123416699Y-116863766D01*
X123497414Y-116894024D01*
X123544684Y-116911745D01*
X123606866Y-116918500D01*
X124703134Y-116918500D01*
X124765316Y-116911745D01*
X124901705Y-116860615D01*
X125018261Y-116773261D01*
X125105615Y-116656705D01*
X125156745Y-116520316D01*
X125163500Y-116458134D01*
X125163500Y-114861866D01*
X125156745Y-114799684D01*
X125105615Y-114663295D01*
X125018261Y-114546739D01*
X124901705Y-114459385D01*
X124765316Y-114408255D01*
X124703134Y-114401500D01*
X124143617Y-114401500D01*
X124075496Y-114381498D01*
X124054522Y-114364595D01*
X123883163Y-114193236D01*
X123875623Y-114184950D01*
X123871511Y-114178471D01*
X123845545Y-114154087D01*
X123821860Y-114131846D01*
X123819018Y-114129091D01*
X123799281Y-114109354D01*
X123796084Y-114106874D01*
X123787062Y-114099169D01*
X123782908Y-114095268D01*
X123754832Y-114068903D01*
X123747886Y-114065084D01*
X123747883Y-114065082D01*
X123737077Y-114059141D01*
X123720558Y-114048290D01*
X123720094Y-114047930D01*
X123704552Y-114035875D01*
X123697283Y-114032730D01*
X123697279Y-114032727D01*
X123663974Y-114018315D01*
X123653324Y-114013098D01*
X123614571Y-113991794D01*
X123594948Y-113986756D01*
X123576245Y-113980352D01*
X123564931Y-113975456D01*
X123564930Y-113975456D01*
X123557656Y-113972308D01*
X123549833Y-113971069D01*
X123549823Y-113971066D01*
X123513987Y-113965390D01*
X123502367Y-113962984D01*
X123467222Y-113953961D01*
X123467221Y-113953961D01*
X123459541Y-113951989D01*
X123439287Y-113951989D01*
X123419576Y-113950438D01*
X123407397Y-113948509D01*
X123399568Y-113947269D01*
X123370297Y-113950036D01*
X123355550Y-113951430D01*
X123343692Y-113951989D01*
X121858279Y-113951989D01*
X121847096Y-113951462D01*
X121839603Y-113949787D01*
X121831677Y-113950036D01*
X121831676Y-113950036D01*
X121771513Y-113951927D01*
X121767555Y-113951989D01*
X121739655Y-113951989D01*
X121735665Y-113952493D01*
X121723831Y-113953425D01*
X121679622Y-113954815D01*
X121672006Y-113957028D01*
X121672004Y-113957028D01*
X121660163Y-113960468D01*
X121640804Y-113964477D01*
X121639494Y-113964643D01*
X121620714Y-113967015D01*
X121613348Y-113969931D01*
X121613342Y-113969933D01*
X121579609Y-113983289D01*
X121568379Y-113987134D01*
X121552339Y-113991794D01*
X121525918Y-113999470D01*
X121519095Y-114003505D01*
X121508477Y-114009784D01*
X121490724Y-114018481D01*
X121483079Y-114021508D01*
X121471894Y-114025937D01*
X121458216Y-114035875D01*
X121436123Y-114051926D01*
X121426206Y-114058440D01*
X121388149Y-114080947D01*
X121373828Y-114095268D01*
X121358795Y-114108108D01*
X121342404Y-114120017D01*
X121337353Y-114126122D01*
X121337348Y-114126127D01*
X121314217Y-114154087D01*
X121306230Y-114162865D01*
X121129096Y-114340000D01*
X121066784Y-114374025D01*
X120995968Y-114368961D01*
X120950905Y-114340000D01*
X117152122Y-110541217D01*
X117118096Y-110478905D01*
X117115907Y-110465292D01*
X117099232Y-110306635D01*
X117099232Y-110306633D01*
X117098542Y-110300072D01*
X117039527Y-110118444D01*
X117009331Y-110066142D01*
X116973369Y-110003855D01*
X116956631Y-109934860D01*
X116979851Y-109867768D01*
X117036112Y-109823700D01*
X117039919Y-109822193D01*
X117051142Y-109818351D01*
X117085983Y-109808229D01*
X117085984Y-109808229D01*
X117093593Y-109806018D01*
X117100412Y-109801985D01*
X117100417Y-109801983D01*
X117111028Y-109795707D01*
X117128776Y-109787012D01*
X117147617Y-109779552D01*
X117183387Y-109753564D01*
X117193307Y-109747048D01*
X117224535Y-109728580D01*
X117224538Y-109728578D01*
X117231362Y-109724542D01*
X117245683Y-109710221D01*
X117260717Y-109697380D01*
X117270694Y-109690131D01*
X117277107Y-109685472D01*
X117305298Y-109651395D01*
X117313288Y-109642616D01*
X117429417Y-109526487D01*
X117491729Y-109492461D01*
X117562544Y-109497526D01*
X117619380Y-109540073D01*
X117625656Y-109549278D01*
X117668066Y-109617810D01*
X117677099Y-109629208D01*
X117791829Y-109743739D01*
X117803240Y-109752751D01*
X117941243Y-109837816D01*
X117954424Y-109843963D01*
X118108710Y-109895138D01*
X118122086Y-109898005D01*
X118216438Y-109907672D01*
X118222854Y-109908000D01*
X118472885Y-109908000D01*
X118488124Y-109903525D01*
X118489329Y-109902135D01*
X118491000Y-109894452D01*
X118491000Y-109889884D01*
X118999000Y-109889884D01*
X119003475Y-109905123D01*
X119004865Y-109906328D01*
X119012548Y-109907999D01*
X119267095Y-109907999D01*
X119273614Y-109907662D01*
X119369206Y-109897743D01*
X119382600Y-109894851D01*
X119536784Y-109843412D01*
X119549962Y-109837239D01*
X119687807Y-109751937D01*
X119699208Y-109742901D01*
X119813739Y-109628171D01*
X119822751Y-109616760D01*
X119907816Y-109478757D01*
X119913963Y-109465576D01*
X119965138Y-109311290D01*
X119968005Y-109297914D01*
X119977672Y-109203562D01*
X119978000Y-109197146D01*
X119978000Y-109172115D01*
X119973525Y-109156876D01*
X119972135Y-109155671D01*
X119964452Y-109154000D01*
X119017115Y-109154000D01*
X119001876Y-109158475D01*
X119000671Y-109159865D01*
X118999000Y-109167548D01*
X118999000Y-109889884D01*
X118491000Y-109889884D01*
X118491000Y-108772000D01*
X118511002Y-108703879D01*
X118564658Y-108657386D01*
X118617000Y-108646000D01*
X119959884Y-108646000D01*
X119975123Y-108641525D01*
X119976328Y-108640135D01*
X119977999Y-108632452D01*
X119977999Y-108602905D01*
X119977662Y-108596386D01*
X119967743Y-108500794D01*
X119964851Y-108487400D01*
X119913412Y-108333216D01*
X119907239Y-108320038D01*
X119821937Y-108182193D01*
X119812901Y-108170792D01*
X119698172Y-108056262D01*
X119689238Y-108049206D01*
X119648177Y-107991288D01*
X119644947Y-107920365D01*
X119680574Y-107858954D01*
X119688407Y-107852154D01*
X119694348Y-107848478D01*
X119819305Y-107723303D01*
X119837749Y-107693382D01*
X119890522Y-107645890D01*
X119945008Y-107633500D01*
X120886233Y-107633500D01*
X120897416Y-107634027D01*
X120904909Y-107635702D01*
X120912835Y-107635453D01*
X120912836Y-107635453D01*
X120972986Y-107633562D01*
X120976945Y-107633500D01*
X121004856Y-107633500D01*
X121008791Y-107633003D01*
X121008856Y-107632995D01*
X121020693Y-107632062D01*
X121052951Y-107631048D01*
X121056970Y-107630922D01*
X121064889Y-107630673D01*
X121084343Y-107625021D01*
X121103700Y-107621013D01*
X121115930Y-107619468D01*
X121115931Y-107619468D01*
X121123797Y-107618474D01*
X121131168Y-107615555D01*
X121131170Y-107615555D01*
X121164912Y-107602196D01*
X121176142Y-107598351D01*
X121210983Y-107588229D01*
X121210984Y-107588229D01*
X121218593Y-107586018D01*
X121225412Y-107581985D01*
X121225417Y-107581983D01*
X121236028Y-107575707D01*
X121253776Y-107567012D01*
X121272617Y-107559552D01*
X121308387Y-107533564D01*
X121318307Y-107527048D01*
X121349535Y-107508580D01*
X121349538Y-107508578D01*
X121356362Y-107504542D01*
X121370683Y-107490221D01*
X121385717Y-107477380D01*
X121395694Y-107470131D01*
X121402107Y-107465472D01*
X121430298Y-107431395D01*
X121438288Y-107422616D01*
X126122247Y-102738657D01*
X126130537Y-102731113D01*
X126137018Y-102727000D01*
X126183659Y-102677332D01*
X126186413Y-102674491D01*
X126206135Y-102654769D01*
X126208612Y-102651576D01*
X126216317Y-102642555D01*
X126246586Y-102610321D01*
X126250407Y-102603371D01*
X126256346Y-102592568D01*
X126267202Y-102576041D01*
X126274757Y-102566302D01*
X126274758Y-102566300D01*
X126279614Y-102560040D01*
X126297174Y-102519460D01*
X126302391Y-102508812D01*
X126319875Y-102477009D01*
X126319876Y-102477007D01*
X126323695Y-102470060D01*
X126328733Y-102450437D01*
X126335137Y-102431734D01*
X126340033Y-102420420D01*
X126340033Y-102420419D01*
X126343181Y-102413145D01*
X126344420Y-102405322D01*
X126344423Y-102405312D01*
X126350099Y-102369476D01*
X126352505Y-102357856D01*
X126361528Y-102322711D01*
X126361528Y-102322710D01*
X126363500Y-102315030D01*
X126363500Y-102294776D01*
X126365051Y-102275065D01*
X126366980Y-102262886D01*
X126368220Y-102255057D01*
X126364059Y-102211038D01*
X126363500Y-102199181D01*
X126363500Y-98818768D01*
X126364027Y-98807585D01*
X126365702Y-98800092D01*
X126364230Y-98753240D01*
X126363562Y-98732002D01*
X126363500Y-98728044D01*
X126363500Y-98700144D01*
X126362996Y-98696153D01*
X126362063Y-98684311D01*
X126361687Y-98672324D01*
X126360674Y-98640111D01*
X126358462Y-98632497D01*
X126358461Y-98632492D01*
X126355023Y-98620659D01*
X126351012Y-98601295D01*
X126349467Y-98589064D01*
X126348474Y-98581203D01*
X126345557Y-98573836D01*
X126345556Y-98573831D01*
X126332198Y-98540092D01*
X126328354Y-98528865D01*
X126318230Y-98494022D01*
X126316018Y-98486407D01*
X126305707Y-98468972D01*
X126297012Y-98451224D01*
X126289552Y-98432383D01*
X126263564Y-98396613D01*
X126257048Y-98386693D01*
X126238580Y-98355465D01*
X126238578Y-98355462D01*
X126234542Y-98348638D01*
X126220221Y-98334317D01*
X126207380Y-98319283D01*
X126195472Y-98302893D01*
X126161395Y-98274702D01*
X126152626Y-98266722D01*
X125184115Y-97298211D01*
X125150091Y-97235900D01*
X125155156Y-97165084D01*
X125197703Y-97108249D01*
X125233336Y-97089593D01*
X125341784Y-97053412D01*
X125354962Y-97047239D01*
X125492807Y-96961937D01*
X125504208Y-96952901D01*
X125618739Y-96838171D01*
X125627751Y-96826760D01*
X125712816Y-96688757D01*
X125718963Y-96675576D01*
X125770138Y-96521290D01*
X125773005Y-96507914D01*
X125782672Y-96413562D01*
X125783000Y-96407146D01*
X125783000Y-96157115D01*
X125778525Y-96141876D01*
X125777135Y-96140671D01*
X125769452Y-96139000D01*
X124647000Y-96139000D01*
X124578879Y-96118998D01*
X124532386Y-96065342D01*
X124521000Y-96013000D01*
X124521000Y-95612885D01*
X125029000Y-95612885D01*
X125033475Y-95628124D01*
X125034865Y-95629329D01*
X125042548Y-95631000D01*
X125764884Y-95631000D01*
X125780123Y-95626525D01*
X125781328Y-95625135D01*
X125782999Y-95617452D01*
X125782999Y-95362905D01*
X125782662Y-95356386D01*
X125772743Y-95260794D01*
X125769851Y-95247400D01*
X125718412Y-95093216D01*
X125712239Y-95080038D01*
X125626937Y-94942193D01*
X125617901Y-94930792D01*
X125503171Y-94816261D01*
X125491760Y-94807249D01*
X125353757Y-94722184D01*
X125340576Y-94716037D01*
X125186290Y-94664862D01*
X125172914Y-94661995D01*
X125078562Y-94652328D01*
X125072145Y-94652000D01*
X125047115Y-94652000D01*
X125031876Y-94656475D01*
X125030671Y-94657865D01*
X125029000Y-94665548D01*
X125029000Y-95612885D01*
X124521000Y-95612885D01*
X124521000Y-94670116D01*
X124516525Y-94654877D01*
X124515135Y-94653672D01*
X124507452Y-94652001D01*
X124477905Y-94652001D01*
X124471386Y-94652338D01*
X124375794Y-94662257D01*
X124362400Y-94665149D01*
X124208216Y-94716588D01*
X124195038Y-94722761D01*
X124057193Y-94808063D01*
X124045792Y-94817099D01*
X123931262Y-94931828D01*
X123924206Y-94940762D01*
X123866288Y-94981823D01*
X123795365Y-94985053D01*
X123733954Y-94949426D01*
X123727154Y-94941593D01*
X123723478Y-94935652D01*
X123598303Y-94810695D01*
X123523660Y-94764684D01*
X123453968Y-94721725D01*
X123453966Y-94721724D01*
X123447738Y-94717885D01*
X123367995Y-94691436D01*
X123286389Y-94664368D01*
X123286387Y-94664368D01*
X123279861Y-94662203D01*
X123273025Y-94661503D01*
X123273022Y-94661502D01*
X123229969Y-94657091D01*
X123175400Y-94651500D01*
X122574600Y-94651500D01*
X122571354Y-94651837D01*
X122571350Y-94651837D01*
X122475692Y-94661762D01*
X122475688Y-94661763D01*
X122468834Y-94662474D01*
X122462298Y-94664655D01*
X122462296Y-94664655D01*
X122445928Y-94670116D01*
X122301054Y-94718450D01*
X122150652Y-94811522D01*
X122145479Y-94816704D01*
X122128221Y-94833992D01*
X122065938Y-94868071D01*
X121995118Y-94863068D01*
X121938245Y-94820571D01*
X121915745Y-94767392D01*
X121915673Y-94765110D01*
X121910022Y-94745658D01*
X121906014Y-94726306D01*
X121904467Y-94714063D01*
X121903474Y-94706203D01*
X121900556Y-94698832D01*
X121887200Y-94665097D01*
X121883355Y-94653870D01*
X121882666Y-94651500D01*
X121871018Y-94611407D01*
X121866984Y-94604585D01*
X121866981Y-94604579D01*
X121860706Y-94593968D01*
X121852010Y-94576218D01*
X121847472Y-94564756D01*
X121847469Y-94564751D01*
X121844552Y-94557383D01*
X121818573Y-94521625D01*
X121812057Y-94511707D01*
X121793575Y-94480457D01*
X121789542Y-94473637D01*
X121775218Y-94459313D01*
X121762376Y-94444278D01*
X121750472Y-94427893D01*
X121716406Y-94399711D01*
X121707627Y-94391722D01*
X120115000Y-92799095D01*
X120080974Y-92736783D01*
X120086039Y-92665968D01*
X120115000Y-92620905D01*
X121992247Y-90743657D01*
X122000537Y-90736113D01*
X122007018Y-90732000D01*
X122053659Y-90682332D01*
X122056413Y-90679491D01*
X122076134Y-90659770D01*
X122078612Y-90656575D01*
X122086318Y-90647553D01*
X122111158Y-90621101D01*
X122116586Y-90615321D01*
X122126346Y-90597568D01*
X122137199Y-90581045D01*
X122144753Y-90571306D01*
X122149613Y-90565041D01*
X122167176Y-90524457D01*
X122172383Y-90513827D01*
X122193695Y-90475060D01*
X122195666Y-90467383D01*
X122195668Y-90467378D01*
X122198732Y-90455442D01*
X122205138Y-90436730D01*
X122210034Y-90425417D01*
X122213181Y-90418145D01*
X122215154Y-90405692D01*
X122220097Y-90374481D01*
X122222504Y-90362860D01*
X122231528Y-90327711D01*
X122231528Y-90327710D01*
X122233500Y-90320030D01*
X122233500Y-90299769D01*
X122235051Y-90280058D01*
X122236810Y-90268956D01*
X122238219Y-90260057D01*
X122234059Y-90216046D01*
X122233500Y-90204189D01*
X122233500Y-89464899D01*
X122253502Y-89396778D01*
X122293197Y-89357755D01*
X122318120Y-89342332D01*
X122324348Y-89338478D01*
X122449305Y-89213303D01*
X122479112Y-89164947D01*
X122538275Y-89068968D01*
X122538276Y-89068966D01*
X122542115Y-89062738D01*
X122587451Y-88926054D01*
X122595632Y-88901389D01*
X122595632Y-88901387D01*
X122597797Y-88894861D01*
X122608500Y-88790400D01*
X122608500Y-88787095D01*
X123772001Y-88787095D01*
X123772338Y-88793614D01*
X123782257Y-88889206D01*
X123785149Y-88902600D01*
X123836588Y-89056784D01*
X123842761Y-89069962D01*
X123928063Y-89207807D01*
X123937099Y-89219208D01*
X124051829Y-89333739D01*
X124063240Y-89342751D01*
X124201243Y-89427816D01*
X124214424Y-89433963D01*
X124368710Y-89485138D01*
X124382086Y-89488005D01*
X124476438Y-89497672D01*
X124482854Y-89498000D01*
X124507885Y-89498000D01*
X124523124Y-89493525D01*
X124524329Y-89492135D01*
X124526000Y-89484452D01*
X124526000Y-88537115D01*
X124521525Y-88521876D01*
X124520135Y-88520671D01*
X124512452Y-88519000D01*
X123790116Y-88519000D01*
X123774877Y-88523475D01*
X123773672Y-88524865D01*
X123772001Y-88532548D01*
X123772001Y-88787095D01*
X122608500Y-88787095D01*
X122608500Y-88204594D01*
X122628502Y-88136473D01*
X122645405Y-88115499D01*
X123582247Y-87178657D01*
X123590537Y-87171113D01*
X123597018Y-87167000D01*
X123643659Y-87117332D01*
X123646413Y-87114491D01*
X123666135Y-87094769D01*
X123668612Y-87091576D01*
X123676317Y-87082555D01*
X123679365Y-87079309D01*
X123706586Y-87050321D01*
X123711163Y-87041995D01*
X123716346Y-87032568D01*
X123727202Y-87016041D01*
X123734757Y-87006302D01*
X123734758Y-87006300D01*
X123739614Y-87000040D01*
X123757174Y-86959460D01*
X123762391Y-86948812D01*
X123779875Y-86917009D01*
X123779876Y-86917007D01*
X123783695Y-86910060D01*
X123788733Y-86890437D01*
X123795137Y-86871734D01*
X123800034Y-86860418D01*
X123800035Y-86860416D01*
X123803181Y-86853145D01*
X123804259Y-86853611D01*
X123838351Y-86800233D01*
X123902849Y-86770558D01*
X123973151Y-86780465D01*
X124010226Y-86806130D01*
X124153513Y-86949417D01*
X124187539Y-87011729D01*
X124182474Y-87082544D01*
X124139927Y-87139380D01*
X124130722Y-87145656D01*
X124062190Y-87188066D01*
X124050792Y-87197099D01*
X123936261Y-87311829D01*
X123927249Y-87323240D01*
X123842184Y-87461243D01*
X123836037Y-87474424D01*
X123784862Y-87628710D01*
X123781995Y-87642086D01*
X123772328Y-87736438D01*
X123772000Y-87742855D01*
X123772000Y-87992885D01*
X123776475Y-88008124D01*
X123777865Y-88009329D01*
X123785548Y-88011000D01*
X124908000Y-88011000D01*
X124976121Y-88031002D01*
X125022614Y-88084658D01*
X125034000Y-88137000D01*
X125034000Y-89479884D01*
X125038475Y-89495123D01*
X125039865Y-89496328D01*
X125047548Y-89497999D01*
X125077095Y-89497999D01*
X125083614Y-89497662D01*
X125179206Y-89487743D01*
X125192600Y-89484851D01*
X125346784Y-89433412D01*
X125359962Y-89427239D01*
X125497807Y-89341937D01*
X125509208Y-89332901D01*
X125623738Y-89218172D01*
X125630794Y-89209238D01*
X125688712Y-89168177D01*
X125759635Y-89164947D01*
X125821046Y-89200574D01*
X125827846Y-89208407D01*
X125831522Y-89214348D01*
X125956697Y-89339305D01*
X125962927Y-89343145D01*
X125962928Y-89343146D01*
X126100288Y-89427816D01*
X126107262Y-89432115D01*
X126146438Y-89445109D01*
X126268611Y-89485632D01*
X126268613Y-89485632D01*
X126275139Y-89487797D01*
X126281975Y-89488497D01*
X126281978Y-89488498D01*
X126325031Y-89492909D01*
X126379600Y-89498500D01*
X126980400Y-89498500D01*
X126983646Y-89498163D01*
X126983650Y-89498163D01*
X127079308Y-89488238D01*
X127079312Y-89488237D01*
X127086166Y-89487526D01*
X127092702Y-89485345D01*
X127092704Y-89485345D01*
X127237778Y-89436944D01*
X127253946Y-89431550D01*
X127404348Y-89338478D01*
X127529305Y-89213303D01*
X127559112Y-89164947D01*
X127618275Y-89068968D01*
X127618276Y-89068966D01*
X127622115Y-89062738D01*
X127667451Y-88926054D01*
X127675632Y-88901389D01*
X127675632Y-88901387D01*
X127677797Y-88894861D01*
X127688500Y-88790400D01*
X127688500Y-87739600D01*
X127688163Y-87736350D01*
X127678238Y-87640692D01*
X127678237Y-87640688D01*
X127677526Y-87633834D01*
X127668844Y-87607809D01*
X127623868Y-87473002D01*
X127621550Y-87466054D01*
X127528478Y-87315652D01*
X127403303Y-87190695D01*
X127393947Y-87184928D01*
X127258968Y-87101725D01*
X127258966Y-87101724D01*
X127252738Y-87097885D01*
X127162046Y-87067804D01*
X127091389Y-87044368D01*
X127091387Y-87044368D01*
X127084861Y-87042203D01*
X127078025Y-87041503D01*
X127078022Y-87041502D01*
X127034969Y-87037091D01*
X126980400Y-87031500D01*
X126379600Y-87031500D01*
X126376354Y-87031837D01*
X126376350Y-87031837D01*
X126280692Y-87041762D01*
X126280688Y-87041763D01*
X126273834Y-87042474D01*
X126267298Y-87044655D01*
X126267287Y-87044657D01*
X126171172Y-87076724D01*
X126100223Y-87079309D01*
X126042201Y-87046296D01*
X123860405Y-84864500D01*
X123826379Y-84802188D01*
X123823500Y-84775405D01*
X123823500Y-84514776D01*
X123825051Y-84495065D01*
X123826980Y-84482886D01*
X123828220Y-84475057D01*
X123824059Y-84431038D01*
X123823500Y-84419181D01*
X123823500Y-82628763D01*
X123824027Y-82617579D01*
X123825701Y-82610091D01*
X123824908Y-82584843D01*
X123823562Y-82542033D01*
X123823500Y-82538075D01*
X123823500Y-82510144D01*
X123822994Y-82506138D01*
X123822061Y-82494292D01*
X123820922Y-82458037D01*
X123820673Y-82450110D01*
X123815022Y-82430658D01*
X123811014Y-82411306D01*
X123809468Y-82399068D01*
X123809467Y-82399066D01*
X123808474Y-82391203D01*
X123792194Y-82350086D01*
X123788359Y-82338885D01*
X123776018Y-82296406D01*
X123771985Y-82289587D01*
X123771983Y-82289582D01*
X123765707Y-82278971D01*
X123757010Y-82261221D01*
X123749552Y-82242383D01*
X123723571Y-82206623D01*
X123717053Y-82196701D01*
X123698578Y-82165460D01*
X123698574Y-82165455D01*
X123694542Y-82158637D01*
X123680218Y-82144313D01*
X123667376Y-82129278D01*
X123655472Y-82112893D01*
X123621406Y-82084711D01*
X123612627Y-82076722D01*
X122923652Y-81387747D01*
X122916112Y-81379461D01*
X122912000Y-81372982D01*
X122862348Y-81326356D01*
X122859507Y-81323602D01*
X122839770Y-81303865D01*
X122836573Y-81301385D01*
X122827551Y-81293680D01*
X122801100Y-81268841D01*
X122795321Y-81263414D01*
X122788375Y-81259595D01*
X122788372Y-81259593D01*
X122777566Y-81253652D01*
X122761047Y-81242801D01*
X122758783Y-81241045D01*
X122745041Y-81230386D01*
X122737772Y-81227241D01*
X122737768Y-81227238D01*
X122704463Y-81212826D01*
X122693813Y-81207609D01*
X122655060Y-81186305D01*
X122635437Y-81181267D01*
X122616734Y-81174863D01*
X122605420Y-81169967D01*
X122605419Y-81169967D01*
X122598145Y-81166819D01*
X122590322Y-81165580D01*
X122590312Y-81165577D01*
X122554476Y-81159901D01*
X122542856Y-81157495D01*
X122507711Y-81148472D01*
X122507710Y-81148472D01*
X122500030Y-81146500D01*
X122479776Y-81146500D01*
X122460065Y-81144949D01*
X122447886Y-81143020D01*
X122440057Y-81141780D01*
X122410786Y-81144547D01*
X122396039Y-81145941D01*
X122384181Y-81146500D01*
X121544500Y-81146500D01*
X121476379Y-81126498D01*
X121429886Y-81072842D01*
X121418500Y-81020500D01*
X121418500Y-77014594D01*
X121438502Y-76946473D01*
X121455405Y-76925499D01*
X123545499Y-74835405D01*
X123607811Y-74801379D01*
X123634594Y-74798500D01*
X124213134Y-74798500D01*
X124275316Y-74791745D01*
X124411705Y-74740615D01*
X124528261Y-74653261D01*
X124615615Y-74536705D01*
X124666745Y-74400316D01*
X124673500Y-74338134D01*
X124673500Y-73759594D01*
X124693502Y-73691473D01*
X124710405Y-73670499D01*
X125032451Y-73348453D01*
X125094763Y-73314427D01*
X125165578Y-73319492D01*
X125210563Y-73348375D01*
X125321512Y-73459130D01*
X125321517Y-73459134D01*
X125326697Y-73464305D01*
X125332927Y-73468145D01*
X125332928Y-73468146D01*
X125470288Y-73552816D01*
X125477262Y-73557115D01*
X125536427Y-73576739D01*
X125638611Y-73610632D01*
X125638613Y-73610632D01*
X125645139Y-73612797D01*
X125651975Y-73613497D01*
X125651978Y-73613498D01*
X125688141Y-73617203D01*
X125749600Y-73623500D01*
X126350400Y-73623500D01*
X126353646Y-73623163D01*
X126353650Y-73623163D01*
X126449308Y-73613238D01*
X126449312Y-73613237D01*
X126456166Y-73612526D01*
X126462702Y-73610345D01*
X126462704Y-73610345D01*
X126614342Y-73559754D01*
X126623946Y-73556550D01*
X126774348Y-73463478D01*
X126899305Y-73338303D01*
X126902102Y-73333765D01*
X126959353Y-73293176D01*
X127030276Y-73289946D01*
X127091687Y-73325572D01*
X127099062Y-73334068D01*
X127107098Y-73344207D01*
X127221829Y-73458739D01*
X127233240Y-73467751D01*
X127371243Y-73552816D01*
X127384424Y-73558963D01*
X127538710Y-73610138D01*
X127552086Y-73613005D01*
X127646438Y-73622672D01*
X127652854Y-73623000D01*
X127677885Y-73623000D01*
X127693124Y-73618525D01*
X127694329Y-73617135D01*
X127696000Y-73609452D01*
X127696000Y-73604884D01*
X128204000Y-73604884D01*
X128208475Y-73620123D01*
X128209865Y-73621328D01*
X128217548Y-73622999D01*
X128247095Y-73622999D01*
X128253614Y-73622662D01*
X128349206Y-73612743D01*
X128362600Y-73609851D01*
X128516784Y-73558412D01*
X128529962Y-73552239D01*
X128667807Y-73466937D01*
X128679208Y-73457901D01*
X128793739Y-73343171D01*
X128802751Y-73331760D01*
X128887816Y-73193757D01*
X128893963Y-73180576D01*
X128945138Y-73026290D01*
X128948005Y-73012914D01*
X128957672Y-72918562D01*
X128958000Y-72912146D01*
X128958000Y-72662115D01*
X128953525Y-72646876D01*
X128952135Y-72645671D01*
X128944452Y-72644000D01*
X128222115Y-72644000D01*
X128206876Y-72648475D01*
X128205671Y-72649865D01*
X128204000Y-72657548D01*
X128204000Y-73604884D01*
X127696000Y-73604884D01*
X127696000Y-72117885D01*
X128204000Y-72117885D01*
X128208475Y-72133124D01*
X128209865Y-72134329D01*
X128217548Y-72136000D01*
X128939884Y-72136000D01*
X128955123Y-72131525D01*
X128956328Y-72130135D01*
X128957999Y-72122452D01*
X128957999Y-71867905D01*
X128957662Y-71861386D01*
X128947743Y-71765794D01*
X128944851Y-71752400D01*
X128893412Y-71598216D01*
X128887239Y-71585038D01*
X128801937Y-71447193D01*
X128792901Y-71435792D01*
X128678171Y-71321261D01*
X128666760Y-71312249D01*
X128528757Y-71227184D01*
X128515576Y-71221037D01*
X128361290Y-71169862D01*
X128347914Y-71166995D01*
X128253562Y-71157328D01*
X128247145Y-71157000D01*
X128222115Y-71157000D01*
X128206876Y-71161475D01*
X128205671Y-71162865D01*
X128204000Y-71170548D01*
X128204000Y-72117885D01*
X127696000Y-72117885D01*
X127696000Y-71175116D01*
X127691525Y-71159877D01*
X127690135Y-71158672D01*
X127682452Y-71157001D01*
X127652905Y-71157001D01*
X127646386Y-71157338D01*
X127550794Y-71167257D01*
X127537400Y-71170149D01*
X127383216Y-71221588D01*
X127370038Y-71227761D01*
X127232193Y-71313063D01*
X127220792Y-71322099D01*
X127106262Y-71436828D01*
X127099206Y-71445762D01*
X127041288Y-71486823D01*
X126970365Y-71490053D01*
X126908954Y-71454426D01*
X126902154Y-71446593D01*
X126898478Y-71440652D01*
X126773303Y-71315695D01*
X126729819Y-71288891D01*
X126628968Y-71226725D01*
X126628966Y-71226724D01*
X126622738Y-71222885D01*
X126491209Y-71179259D01*
X126461389Y-71169368D01*
X126461387Y-71169368D01*
X126454861Y-71167203D01*
X126448025Y-71166503D01*
X126448022Y-71166502D01*
X126404969Y-71162091D01*
X126350400Y-71156500D01*
X125749600Y-71156500D01*
X125746354Y-71156837D01*
X125746350Y-71156837D01*
X125650692Y-71166762D01*
X125650688Y-71166763D01*
X125643834Y-71167474D01*
X125637298Y-71169655D01*
X125637296Y-71169655D01*
X125505194Y-71213728D01*
X125476054Y-71223450D01*
X125325652Y-71316522D01*
X125200695Y-71441697D01*
X125196855Y-71447927D01*
X125196854Y-71447928D01*
X125151020Y-71522285D01*
X125107885Y-71592262D01*
X125092541Y-71638522D01*
X125082045Y-71670167D01*
X125041614Y-71728527D01*
X124976050Y-71755764D01*
X124962452Y-71756500D01*
X124799500Y-71756500D01*
X124731379Y-71736498D01*
X124684886Y-71682842D01*
X124673500Y-71630500D01*
X124673500Y-70441866D01*
X124666745Y-70379684D01*
X124615615Y-70243295D01*
X124528261Y-70126739D01*
X124411705Y-70039385D01*
X124275316Y-69988255D01*
X124213134Y-69981500D01*
X122116866Y-69981500D01*
X122054684Y-69988255D01*
X121918295Y-70039385D01*
X121801739Y-70126739D01*
X121714385Y-70243295D01*
X121663255Y-70379684D01*
X121656500Y-70441866D01*
X121656500Y-71630500D01*
X121636498Y-71698621D01*
X121582842Y-71745114D01*
X121530500Y-71756500D01*
X118499500Y-71756500D01*
X118431379Y-71736498D01*
X118384886Y-71682842D01*
X118373500Y-71630500D01*
X118373500Y-71591866D01*
X118366745Y-71529684D01*
X118315615Y-71393295D01*
X118257047Y-71315148D01*
X118232199Y-71248642D01*
X118247252Y-71179259D01*
X118257047Y-71164018D01*
X118309786Y-71093648D01*
X118318324Y-71078054D01*
X118363478Y-70957606D01*
X118367105Y-70942351D01*
X118372631Y-70891486D01*
X118373000Y-70884672D01*
X118373000Y-70362115D01*
X118368525Y-70346876D01*
X118367135Y-70345671D01*
X118359452Y-70344000D01*
X115375116Y-70344000D01*
X115359877Y-70348475D01*
X115358672Y-70349865D01*
X115357001Y-70357548D01*
X115357001Y-70884669D01*
X115357371Y-70891490D01*
X115362895Y-70942352D01*
X115366521Y-70957604D01*
X115411676Y-71078054D01*
X115420214Y-71093648D01*
X115472953Y-71164018D01*
X115497801Y-71230524D01*
X115482748Y-71299907D01*
X115472953Y-71315148D01*
X115414385Y-71393295D01*
X115363255Y-71529684D01*
X115356500Y-71591866D01*
X115356500Y-73188134D01*
X115363255Y-73250316D01*
X115414385Y-73386705D01*
X115419770Y-73393890D01*
X115419771Y-73393892D01*
X115472640Y-73464435D01*
X115497488Y-73530942D01*
X115482435Y-73600324D01*
X115472640Y-73615565D01*
X115419771Y-73686108D01*
X115414385Y-73693295D01*
X115363255Y-73829684D01*
X115356500Y-73891866D01*
X115356500Y-73930500D01*
X115336498Y-73998621D01*
X115282842Y-74045114D01*
X115230500Y-74056500D01*
X114911311Y-74056500D01*
X114843190Y-74036498D01*
X114804167Y-73996804D01*
X114785445Y-73966550D01*
X114738478Y-73890652D01*
X114613303Y-73765695D01*
X114607072Y-73761854D01*
X114468968Y-73676725D01*
X114468966Y-73676724D01*
X114462738Y-73672885D01*
X114382995Y-73646436D01*
X114301389Y-73619368D01*
X114301387Y-73619368D01*
X114294861Y-73617203D01*
X114288025Y-73616503D01*
X114288022Y-73616502D01*
X114244969Y-73612091D01*
X114190400Y-73606500D01*
X113139600Y-73606500D01*
X113136354Y-73606837D01*
X113136350Y-73606837D01*
X113040692Y-73616762D01*
X113040688Y-73616763D01*
X113033834Y-73617474D01*
X113027298Y-73619655D01*
X113027296Y-73619655D01*
X112904816Y-73660518D01*
X112866054Y-73673450D01*
X112859826Y-73677304D01*
X112859824Y-73677305D01*
X112857890Y-73678502D01*
X112715802Y-73766429D01*
X112647351Y-73785267D01*
X112579582Y-73764106D01*
X112534011Y-73709665D01*
X112523500Y-73659285D01*
X112523500Y-71634126D01*
X112543502Y-71566005D01*
X112597158Y-71519512D01*
X112605270Y-71516144D01*
X112678297Y-71488767D01*
X112686705Y-71485615D01*
X112803261Y-71398261D01*
X112890615Y-71281705D01*
X112941745Y-71145316D01*
X112948500Y-71083134D01*
X112948500Y-69886866D01*
X112941745Y-69824684D01*
X112939196Y-69817885D01*
X115357000Y-69817885D01*
X115361475Y-69833124D01*
X115362865Y-69834329D01*
X115370548Y-69836000D01*
X116592885Y-69836000D01*
X116608124Y-69831525D01*
X116609329Y-69830135D01*
X116611000Y-69822452D01*
X116611000Y-69817885D01*
X117119000Y-69817885D01*
X117123475Y-69833124D01*
X117124865Y-69834329D01*
X117132548Y-69836000D01*
X118354884Y-69836000D01*
X118370123Y-69831525D01*
X118371328Y-69830135D01*
X118372999Y-69822452D01*
X118372999Y-69295331D01*
X118372629Y-69288510D01*
X118367105Y-69237648D01*
X118363479Y-69222396D01*
X118318324Y-69101946D01*
X118309786Y-69086351D01*
X118233285Y-68984276D01*
X118220724Y-68971715D01*
X118118649Y-68895214D01*
X118103054Y-68886676D01*
X117982606Y-68841522D01*
X117967351Y-68837895D01*
X117916486Y-68832369D01*
X117909672Y-68832000D01*
X117137115Y-68832000D01*
X117121876Y-68836475D01*
X117120671Y-68837865D01*
X117119000Y-68845548D01*
X117119000Y-69817885D01*
X116611000Y-69817885D01*
X116611000Y-68850116D01*
X116606525Y-68834877D01*
X116605135Y-68833672D01*
X116597452Y-68832001D01*
X115820331Y-68832001D01*
X115813510Y-68832371D01*
X115762648Y-68837895D01*
X115747396Y-68841521D01*
X115626946Y-68886676D01*
X115611351Y-68895214D01*
X115509276Y-68971715D01*
X115496715Y-68984276D01*
X115420214Y-69086351D01*
X115411676Y-69101946D01*
X115366522Y-69222394D01*
X115362895Y-69237649D01*
X115357369Y-69288514D01*
X115357000Y-69295328D01*
X115357000Y-69817885D01*
X112939196Y-69817885D01*
X112890615Y-69688295D01*
X112803261Y-69571739D01*
X112686705Y-69484385D01*
X112550316Y-69433255D01*
X112488134Y-69426500D01*
X112399572Y-69426500D01*
X112331451Y-69406498D01*
X112284958Y-69352842D01*
X112274854Y-69282568D01*
X112304348Y-69217988D01*
X112310477Y-69211405D01*
X116978400Y-64543483D01*
X121796478Y-59725405D01*
X121858790Y-59691379D01*
X121885573Y-59688500D01*
X122975500Y-59688500D01*
X123043621Y-59708502D01*
X123090114Y-59762158D01*
X123101500Y-59814500D01*
X123101500Y-59953134D01*
X123108255Y-60015316D01*
X123159385Y-60151705D01*
X123246739Y-60268261D01*
X123363295Y-60355615D01*
X123499684Y-60406745D01*
X123561866Y-60413500D01*
X125358134Y-60413500D01*
X125420316Y-60406745D01*
X125556705Y-60355615D01*
X125673261Y-60268261D01*
X125760615Y-60151705D01*
X125811745Y-60015316D01*
X125818500Y-59953134D01*
X125818500Y-58156866D01*
X125811745Y-58094684D01*
X125760615Y-57958295D01*
X125673261Y-57841739D01*
X125556705Y-57754385D01*
X125536411Y-57746777D01*
X125438203Y-57709960D01*
X125381439Y-57667318D01*
X125356739Y-57600756D01*
X125371947Y-57531408D01*
X125393493Y-57502727D01*
X125411251Y-57485031D01*
X125498096Y-57398489D01*
X125506368Y-57386978D01*
X125625435Y-57221277D01*
X125628453Y-57217077D01*
X125632611Y-57208665D01*
X125725136Y-57021453D01*
X125725137Y-57021451D01*
X125727430Y-57016811D01*
X125792370Y-56803069D01*
X125821529Y-56581590D01*
X125823156Y-56515000D01*
X125804852Y-56292361D01*
X125750431Y-56075702D01*
X125661354Y-55870840D01*
X125540014Y-55683277D01*
X125389670Y-55518051D01*
X125385619Y-55514852D01*
X125385615Y-55514848D01*
X125218414Y-55382800D01*
X125218410Y-55382798D01*
X125214359Y-55379598D01*
X125018789Y-55271638D01*
X125013920Y-55269914D01*
X125013916Y-55269912D01*
X124813087Y-55198795D01*
X124813083Y-55198794D01*
X124808212Y-55197069D01*
X124803119Y-55196162D01*
X124803116Y-55196161D01*
X124593373Y-55158800D01*
X124593367Y-55158799D01*
X124588284Y-55157894D01*
X124514452Y-55156992D01*
X124370081Y-55155228D01*
X124370079Y-55155228D01*
X124364911Y-55155165D01*
X124144091Y-55188955D01*
X123931756Y-55258357D01*
X123733607Y-55361507D01*
X123729474Y-55364610D01*
X123729471Y-55364612D01*
X123705247Y-55382800D01*
X123554965Y-55495635D01*
X123400629Y-55657138D01*
X123397715Y-55661410D01*
X123397714Y-55661411D01*
X123285095Y-55826504D01*
X123230184Y-55871507D01*
X123181007Y-55881500D01*
X109336268Y-55881500D01*
X109325085Y-55880973D01*
X109317592Y-55879298D01*
X109309666Y-55879547D01*
X109309665Y-55879547D01*
X109249502Y-55881438D01*
X109245544Y-55881500D01*
X109217644Y-55881500D01*
X109213654Y-55882004D01*
X109201820Y-55882936D01*
X109157611Y-55884326D01*
X109149995Y-55886539D01*
X109149993Y-55886539D01*
X109138152Y-55889979D01*
X109118793Y-55893988D01*
X109117483Y-55894154D01*
X109098703Y-55896526D01*
X109091337Y-55899442D01*
X109091331Y-55899444D01*
X109057598Y-55912800D01*
X109046368Y-55916645D01*
X109011517Y-55926770D01*
X109003907Y-55928981D01*
X108997084Y-55933016D01*
X108986466Y-55939295D01*
X108968713Y-55947992D01*
X108961068Y-55951019D01*
X108949883Y-55955448D01*
X108943468Y-55960109D01*
X108914112Y-55981437D01*
X108904195Y-55987951D01*
X108866138Y-56010458D01*
X108851817Y-56024779D01*
X108836784Y-56037619D01*
X108820393Y-56049528D01*
X108815342Y-56055634D01*
X108792202Y-56083605D01*
X108784212Y-56092384D01*
X107348500Y-57528095D01*
X107286188Y-57562121D01*
X107259405Y-57565000D01*
X106342866Y-57565000D01*
X106280684Y-57571755D01*
X106144295Y-57622885D01*
X106027739Y-57710239D01*
X106000355Y-57746777D01*
X105959581Y-57801182D01*
X105902722Y-57843697D01*
X105831903Y-57848723D01*
X105773226Y-57818142D01*
X105759651Y-57805593D01*
X105750526Y-57798592D01*
X105579680Y-57690796D01*
X105569436Y-57685576D01*
X105381808Y-57610720D01*
X105370770Y-57607450D01*
X105172650Y-57568042D01*
X105161203Y-57566839D01*
X104959222Y-57564195D01*
X104947742Y-57565098D01*
X104748661Y-57599307D01*
X104737541Y-57602287D01*
X104548019Y-57672205D01*
X104537642Y-57677155D01*
X104437987Y-57736444D01*
X104428389Y-57746777D01*
X104431876Y-57755166D01*
X105315115Y-58638405D01*
X105349141Y-58700717D01*
X105344076Y-58771532D01*
X105315115Y-58816595D01*
X104435328Y-59696382D01*
X104429132Y-59707728D01*
X104439014Y-59720217D01*
X104483362Y-59749850D01*
X104493472Y-59755340D01*
X104679077Y-59835082D01*
X104690020Y-59838637D01*
X104887042Y-59883219D01*
X104898452Y-59884721D01*
X105100307Y-59892652D01*
X105111789Y-59892050D01*
X105311712Y-59863063D01*
X105322894Y-59860378D01*
X105514185Y-59795443D01*
X105524688Y-59790767D01*
X105700950Y-59692056D01*
X105710422Y-59685546D01*
X105776652Y-59630463D01*
X105841816Y-59602282D01*
X105911871Y-59613806D01*
X105958047Y-59651772D01*
X105991481Y-59696382D01*
X106027739Y-59744761D01*
X106144295Y-59832115D01*
X106280684Y-59883245D01*
X106342866Y-59890000D01*
X107747134Y-59890000D01*
X107809316Y-59883245D01*
X107945705Y-59832115D01*
X108062261Y-59744761D01*
X108149615Y-59628205D01*
X108200745Y-59491816D01*
X108207500Y-59429634D01*
X108207500Y-58513094D01*
X108227502Y-58444973D01*
X108244405Y-58423999D01*
X109482999Y-57185405D01*
X109545311Y-57151379D01*
X109572094Y-57148500D01*
X123184274Y-57148500D01*
X123252395Y-57168502D01*
X123291707Y-57208665D01*
X123359987Y-57320088D01*
X123506250Y-57488938D01*
X123510230Y-57492242D01*
X123514981Y-57496187D01*
X123554616Y-57555090D01*
X123556113Y-57626071D01*
X123518997Y-57686593D01*
X123478725Y-57711112D01*
X123383589Y-57746777D01*
X123363295Y-57754385D01*
X123246739Y-57841739D01*
X123159385Y-57958295D01*
X123108255Y-58094684D01*
X123101500Y-58156866D01*
X123101500Y-58295500D01*
X123081498Y-58363621D01*
X123027842Y-58410114D01*
X122975500Y-58421500D01*
X121649745Y-58421500D01*
X121638562Y-58420973D01*
X121631069Y-58419298D01*
X121623143Y-58419547D01*
X121623142Y-58419547D01*
X121562992Y-58421438D01*
X121559033Y-58421500D01*
X121531122Y-58421500D01*
X121527188Y-58421997D01*
X121527187Y-58421997D01*
X121527122Y-58422005D01*
X121515285Y-58422938D01*
X121483027Y-58423952D01*
X121479008Y-58424078D01*
X121471089Y-58424327D01*
X121451635Y-58429979D01*
X121432278Y-58433987D01*
X121420048Y-58435532D01*
X121420047Y-58435532D01*
X121412181Y-58436526D01*
X121404810Y-58439445D01*
X121404808Y-58439445D01*
X121371066Y-58452804D01*
X121359836Y-58456649D01*
X121324995Y-58466771D01*
X121324994Y-58466771D01*
X121317385Y-58468982D01*
X121310566Y-58473015D01*
X121310561Y-58473017D01*
X121299950Y-58479293D01*
X121282202Y-58487988D01*
X121263361Y-58495448D01*
X121256945Y-58500110D01*
X121256944Y-58500110D01*
X121227591Y-58521436D01*
X121217671Y-58527952D01*
X121186443Y-58546420D01*
X121186440Y-58546422D01*
X121179616Y-58550458D01*
X121165295Y-58564779D01*
X121150262Y-58577619D01*
X121133871Y-58589528D01*
X121105680Y-58623605D01*
X121097690Y-58632384D01*
X110168992Y-69561082D01*
X110106682Y-69595107D01*
X110035867Y-69590042D01*
X110004603Y-69569949D01*
X110003261Y-69571739D01*
X109886705Y-69484385D01*
X109750316Y-69433255D01*
X109688134Y-69426500D01*
X108491866Y-69426500D01*
X108429684Y-69433255D01*
X108293295Y-69484385D01*
X108176739Y-69571739D01*
X108089385Y-69688295D01*
X108086233Y-69696703D01*
X108058856Y-69769730D01*
X108016214Y-69826494D01*
X107949652Y-69851194D01*
X107940874Y-69851500D01*
X107307000Y-69851500D01*
X107238879Y-69831498D01*
X107192386Y-69777842D01*
X107181000Y-69725500D01*
X107181000Y-69161263D01*
X107181527Y-69150079D01*
X107183201Y-69142591D01*
X107181062Y-69074532D01*
X107181000Y-69070575D01*
X107181000Y-69042644D01*
X107180494Y-69038638D01*
X107179561Y-69026792D01*
X107178422Y-68990537D01*
X107178173Y-68982610D01*
X107172522Y-68963158D01*
X107168514Y-68943806D01*
X107166968Y-68931568D01*
X107166967Y-68931566D01*
X107165974Y-68923703D01*
X107149694Y-68882586D01*
X107145859Y-68871385D01*
X107133518Y-68828906D01*
X107129485Y-68822087D01*
X107129483Y-68822082D01*
X107123207Y-68811471D01*
X107114510Y-68793721D01*
X107107052Y-68774883D01*
X107081071Y-68739123D01*
X107074553Y-68729201D01*
X107056078Y-68697960D01*
X107056074Y-68697955D01*
X107052042Y-68691137D01*
X107037718Y-68676813D01*
X107024876Y-68661778D01*
X107012972Y-68645393D01*
X106978906Y-68617211D01*
X106970127Y-68609222D01*
X104590405Y-66229500D01*
X104556379Y-66167188D01*
X104553500Y-66140405D01*
X104553500Y-63606866D01*
X104546745Y-63544684D01*
X104495615Y-63408295D01*
X104408261Y-63291739D01*
X104291705Y-63204385D01*
X104155316Y-63153255D01*
X104093134Y-63146500D01*
X101646866Y-63146500D01*
X101584684Y-63153255D01*
X101448295Y-63204385D01*
X101331739Y-63291739D01*
X101244385Y-63408295D01*
X101193255Y-63544684D01*
X101186500Y-63606866D01*
X101186500Y-67203134D01*
X101193255Y-67265316D01*
X101244385Y-67401705D01*
X101331739Y-67518261D01*
X101448295Y-67605615D01*
X101584684Y-67656745D01*
X101646866Y-67663500D01*
X104093134Y-67663500D01*
X104103555Y-67662368D01*
X104155316Y-67656745D01*
X104155595Y-67659313D01*
X104213921Y-67662368D01*
X104261243Y-67692147D01*
X105877095Y-69307999D01*
X105911121Y-69370311D01*
X105914000Y-69397094D01*
X105914000Y-69909822D01*
X105893998Y-69977943D01*
X105840342Y-70024436D01*
X105823153Y-70030819D01*
X105779012Y-70043643D01*
X105779010Y-70043644D01*
X105771399Y-70045855D01*
X105764572Y-70049892D01*
X105764573Y-70049892D01*
X105635020Y-70126509D01*
X105635017Y-70126511D01*
X105628193Y-70130547D01*
X105510547Y-70248193D01*
X105508294Y-70252002D01*
X105452004Y-70292655D01*
X105381112Y-70296506D01*
X105319391Y-70261418D01*
X105312724Y-70253724D01*
X105309453Y-70248193D01*
X105191807Y-70130547D01*
X105184983Y-70126511D01*
X105184980Y-70126509D01*
X105055427Y-70049892D01*
X105055428Y-70049892D01*
X105048601Y-70045855D01*
X105040990Y-70043644D01*
X105040988Y-70043643D01*
X104982710Y-70026712D01*
X104888831Y-69999438D01*
X104882426Y-69998934D01*
X104882421Y-69998933D01*
X104853958Y-69996693D01*
X104853950Y-69996693D01*
X104851502Y-69996500D01*
X103693498Y-69996500D01*
X103691050Y-69996693D01*
X103691042Y-69996693D01*
X103662579Y-69998933D01*
X103662574Y-69998934D01*
X103656169Y-69999438D01*
X103562290Y-70026712D01*
X103504012Y-70043643D01*
X103504010Y-70043644D01*
X103496399Y-70045855D01*
X103489572Y-70049892D01*
X103489573Y-70049892D01*
X103360020Y-70126509D01*
X103360017Y-70126511D01*
X103353193Y-70130547D01*
X103293847Y-70189893D01*
X103254795Y-70216434D01*
X103254016Y-70216771D01*
X103246406Y-70218982D01*
X103239583Y-70223017D01*
X103239581Y-70223018D01*
X103228971Y-70229293D01*
X103211221Y-70237990D01*
X103192383Y-70245448D01*
X103185967Y-70250109D01*
X103185966Y-70250110D01*
X103156625Y-70271428D01*
X103146701Y-70277947D01*
X103115460Y-70296422D01*
X103115455Y-70296426D01*
X103108637Y-70300458D01*
X103094313Y-70314782D01*
X103079281Y-70327621D01*
X103062893Y-70339528D01*
X103036744Y-70371137D01*
X103034712Y-70373593D01*
X103026722Y-70382373D01*
X102765678Y-70643417D01*
X102703366Y-70677443D01*
X102632551Y-70672378D01*
X102575715Y-70629831D01*
X102550645Y-70558281D01*
X102548562Y-70492014D01*
X102548500Y-70488055D01*
X102548500Y-70460144D01*
X102547995Y-70456144D01*
X102547062Y-70444301D01*
X102546986Y-70441866D01*
X102545673Y-70400110D01*
X102540022Y-70380658D01*
X102536014Y-70361306D01*
X102534467Y-70349063D01*
X102533474Y-70341203D01*
X102528098Y-70327624D01*
X102517200Y-70300097D01*
X102513355Y-70288870D01*
X102504474Y-70258303D01*
X102501018Y-70246407D01*
X102496043Y-70237994D01*
X102490707Y-70228972D01*
X102482012Y-70211224D01*
X102474552Y-70192383D01*
X102448564Y-70156613D01*
X102442048Y-70146693D01*
X102423580Y-70115465D01*
X102423578Y-70115462D01*
X102419542Y-70108638D01*
X102405221Y-70094317D01*
X102392380Y-70079283D01*
X102385131Y-70069306D01*
X102380472Y-70062893D01*
X102346395Y-70034702D01*
X102337616Y-70026712D01*
X98540405Y-66229500D01*
X98506379Y-66167188D01*
X98503500Y-66140405D01*
X98503500Y-63606866D01*
X98496745Y-63544684D01*
X98445615Y-63408295D01*
X98358261Y-63291739D01*
X98241705Y-63204385D01*
X98105316Y-63153255D01*
X98043134Y-63146500D01*
X95596866Y-63146500D01*
X95534684Y-63153255D01*
X95398295Y-63204385D01*
X95281739Y-63291739D01*
X95194385Y-63408295D01*
X95143255Y-63544684D01*
X95136500Y-63606866D01*
X95136500Y-67203134D01*
X95143255Y-67265316D01*
X95194385Y-67401705D01*
X95281739Y-67518261D01*
X95398295Y-67605615D01*
X95534684Y-67656745D01*
X95596866Y-67663500D01*
X98043134Y-67663500D01*
X98053555Y-67662368D01*
X98105316Y-67656745D01*
X98105595Y-67659313D01*
X98163921Y-67662368D01*
X98211243Y-67692147D01*
X101244595Y-70725500D01*
X101278621Y-70787812D01*
X101281500Y-70814595D01*
X101281500Y-71190101D01*
X101261498Y-71258222D01*
X101221803Y-71297245D01*
X101190652Y-71316522D01*
X101065695Y-71441697D01*
X101062898Y-71446235D01*
X101005647Y-71486824D01*
X100934724Y-71490054D01*
X100873313Y-71454428D01*
X100865938Y-71445932D01*
X100857902Y-71435793D01*
X100743171Y-71321261D01*
X100731760Y-71312249D01*
X100593757Y-71227184D01*
X100580576Y-71221037D01*
X100426290Y-71169862D01*
X100412914Y-71166995D01*
X100318562Y-71157328D01*
X100312145Y-71157000D01*
X100287115Y-71157000D01*
X100271876Y-71161475D01*
X100270671Y-71162865D01*
X100269000Y-71170548D01*
X100269000Y-73604884D01*
X100273475Y-73620123D01*
X100274865Y-73621328D01*
X100282548Y-73622999D01*
X100312095Y-73622999D01*
X100318614Y-73622662D01*
X100414206Y-73612743D01*
X100427600Y-73609851D01*
X100581784Y-73558412D01*
X100594962Y-73552239D01*
X100732807Y-73466937D01*
X100744208Y-73457901D01*
X100858738Y-73343172D01*
X100865794Y-73334238D01*
X100923712Y-73293177D01*
X100994635Y-73289947D01*
X101056046Y-73325574D01*
X101062846Y-73333407D01*
X101066522Y-73339348D01*
X101191697Y-73464305D01*
X101197927Y-73468145D01*
X101197928Y-73468146D01*
X101335288Y-73552816D01*
X101342262Y-73557115D01*
X101401427Y-73576739D01*
X101503611Y-73610632D01*
X101503613Y-73610632D01*
X101510139Y-73612797D01*
X101516975Y-73613497D01*
X101516978Y-73613498D01*
X101553141Y-73617203D01*
X101614600Y-73623500D01*
X102215400Y-73623500D01*
X102218646Y-73623163D01*
X102218650Y-73623163D01*
X102314308Y-73613238D01*
X102314312Y-73613237D01*
X102321166Y-73612526D01*
X102327702Y-73610345D01*
X102327704Y-73610345D01*
X102479342Y-73559754D01*
X102488946Y-73556550D01*
X102639348Y-73463478D01*
X102708813Y-73393892D01*
X102727191Y-73375482D01*
X102789474Y-73341403D01*
X102816364Y-73338500D01*
X103260050Y-73338500D01*
X103328171Y-73358502D01*
X103341271Y-73369059D01*
X103341325Y-73368989D01*
X103347584Y-73373844D01*
X103353193Y-73379453D01*
X103360017Y-73383489D01*
X103360020Y-73383491D01*
X103398081Y-73406000D01*
X103496399Y-73464145D01*
X103504010Y-73466356D01*
X103504012Y-73466357D01*
X103556231Y-73481528D01*
X103656169Y-73510562D01*
X103662574Y-73511066D01*
X103662579Y-73511067D01*
X103691042Y-73513307D01*
X103691050Y-73513307D01*
X103693498Y-73513500D01*
X104851502Y-73513500D01*
X104853950Y-73513307D01*
X104853958Y-73513307D01*
X104882421Y-73511067D01*
X104882426Y-73511066D01*
X104888831Y-73510562D01*
X104988769Y-73481528D01*
X105040988Y-73466357D01*
X105040990Y-73466356D01*
X105048601Y-73464145D01*
X105146919Y-73406000D01*
X105184980Y-73383491D01*
X105184983Y-73383489D01*
X105191807Y-73379453D01*
X105309453Y-73261807D01*
X105311706Y-73257998D01*
X105367996Y-73217345D01*
X105438888Y-73213494D01*
X105500609Y-73248582D01*
X105507276Y-73256276D01*
X105510547Y-73261807D01*
X105628193Y-73379453D01*
X105635017Y-73383489D01*
X105635020Y-73383491D01*
X105673081Y-73406000D01*
X105771399Y-73464145D01*
X105779010Y-73466356D01*
X105779012Y-73466357D01*
X105831231Y-73481528D01*
X105931169Y-73510562D01*
X105937574Y-73511066D01*
X105937579Y-73511067D01*
X105966042Y-73513307D01*
X105966050Y-73513307D01*
X105968498Y-73513500D01*
X106407906Y-73513500D01*
X106476027Y-73533502D01*
X106497001Y-73550405D01*
X107281312Y-74334717D01*
X108028848Y-75082253D01*
X108036388Y-75090539D01*
X108040500Y-75097018D01*
X108046277Y-75102443D01*
X108090151Y-75143643D01*
X108092993Y-75146398D01*
X108112730Y-75166135D01*
X108115927Y-75168615D01*
X108124947Y-75176318D01*
X108157179Y-75206586D01*
X108164125Y-75210405D01*
X108164128Y-75210407D01*
X108174934Y-75216348D01*
X108191453Y-75227199D01*
X108207459Y-75239614D01*
X108214728Y-75242759D01*
X108214732Y-75242762D01*
X108248037Y-75257174D01*
X108258687Y-75262391D01*
X108297440Y-75283695D01*
X108305115Y-75285666D01*
X108305116Y-75285666D01*
X108317062Y-75288733D01*
X108335767Y-75295137D01*
X108354355Y-75303181D01*
X108362178Y-75304420D01*
X108362188Y-75304423D01*
X108398024Y-75310099D01*
X108409644Y-75312505D01*
X108444789Y-75321528D01*
X108452470Y-75323500D01*
X108472724Y-75323500D01*
X108492434Y-75325051D01*
X108512443Y-75328220D01*
X108520335Y-75327474D01*
X108556461Y-75324059D01*
X108568319Y-75323500D01*
X109348520Y-75323500D01*
X109416641Y-75343502D01*
X109437536Y-75360325D01*
X109541697Y-75464305D01*
X109546235Y-75467102D01*
X109586824Y-75524353D01*
X109590054Y-75595276D01*
X109554428Y-75656687D01*
X109545932Y-75664062D01*
X109535793Y-75672098D01*
X109421261Y-75786829D01*
X109412249Y-75798240D01*
X109327184Y-75936243D01*
X109321037Y-75949424D01*
X109269862Y-76103710D01*
X109266995Y-76117086D01*
X109257328Y-76211438D01*
X109257000Y-76217855D01*
X109257000Y-76242885D01*
X109261475Y-76258124D01*
X109262865Y-76259329D01*
X109270548Y-76261000D01*
X110618000Y-76261000D01*
X110686121Y-76281002D01*
X110732614Y-76334658D01*
X110744000Y-76387000D01*
X110744000Y-77504884D01*
X110748475Y-77520123D01*
X110749865Y-77521328D01*
X110757548Y-77522999D01*
X111012095Y-77522999D01*
X111018614Y-77522662D01*
X111114206Y-77512743D01*
X111127600Y-77509851D01*
X111281784Y-77458412D01*
X111294962Y-77452239D01*
X111432807Y-77366937D01*
X111444208Y-77357901D01*
X111558739Y-77243171D01*
X111567751Y-77231760D01*
X111609230Y-77164468D01*
X111662002Y-77116975D01*
X111732074Y-77105551D01*
X111797197Y-77133825D01*
X111805585Y-77141489D01*
X114431343Y-79767247D01*
X114438887Y-79775537D01*
X114443000Y-79782018D01*
X114448777Y-79787443D01*
X114492667Y-79828658D01*
X114495509Y-79831413D01*
X114515231Y-79851135D01*
X114518373Y-79853572D01*
X114518433Y-79853619D01*
X114527445Y-79861317D01*
X114553036Y-79885347D01*
X114559679Y-79891586D01*
X114566622Y-79895403D01*
X114577431Y-79901345D01*
X114593953Y-79912198D01*
X114609959Y-79924614D01*
X114617237Y-79927764D01*
X114617238Y-79927764D01*
X114650537Y-79942174D01*
X114661187Y-79947391D01*
X114699940Y-79968695D01*
X114707615Y-79970666D01*
X114707616Y-79970666D01*
X114719562Y-79973733D01*
X114738267Y-79980137D01*
X114756855Y-79988181D01*
X114764678Y-79989420D01*
X114764688Y-79989423D01*
X114800524Y-79995099D01*
X114812144Y-79997505D01*
X114847289Y-80006528D01*
X114854970Y-80008500D01*
X114875224Y-80008500D01*
X114894934Y-80010051D01*
X114914943Y-80013220D01*
X114922835Y-80012474D01*
X114958961Y-80009059D01*
X114970819Y-80008500D01*
X117401800Y-80008500D01*
X117469921Y-80028502D01*
X117489147Y-80044843D01*
X117489420Y-80044540D01*
X117494332Y-80048963D01*
X117498747Y-80053866D01*
X117520329Y-80069546D01*
X117566578Y-80103148D01*
X117653248Y-80166118D01*
X117659276Y-80168802D01*
X117659278Y-80168803D01*
X117821681Y-80241109D01*
X117827712Y-80243794D01*
X117921113Y-80263647D01*
X118008056Y-80282128D01*
X118008061Y-80282128D01*
X118014513Y-80283500D01*
X118205487Y-80283500D01*
X118211939Y-80282128D01*
X118211944Y-80282128D01*
X118298887Y-80263647D01*
X118392288Y-80243794D01*
X118398319Y-80241109D01*
X118560722Y-80168803D01*
X118560724Y-80168802D01*
X118566752Y-80166118D01*
X118721253Y-80053866D01*
X118757851Y-80013220D01*
X118844621Y-79916852D01*
X118844622Y-79916851D01*
X118849040Y-79911944D01*
X118924053Y-79782018D01*
X118941223Y-79752279D01*
X118941224Y-79752278D01*
X118944527Y-79746556D01*
X119003542Y-79564928D01*
X119006814Y-79533803D01*
X119022814Y-79381565D01*
X119023504Y-79375000D01*
X119003542Y-79185072D01*
X118944527Y-79003444D01*
X118849040Y-78838056D01*
X118759400Y-78738500D01*
X118725675Y-78701045D01*
X118725674Y-78701044D01*
X118721253Y-78696134D01*
X118566752Y-78583882D01*
X118560724Y-78581198D01*
X118560722Y-78581197D01*
X118398319Y-78508891D01*
X118398318Y-78508891D01*
X118392288Y-78506206D01*
X118298888Y-78486353D01*
X118211944Y-78467872D01*
X118211939Y-78467872D01*
X118205487Y-78466500D01*
X118014513Y-78466500D01*
X118008061Y-78467872D01*
X118008056Y-78467872D01*
X117921112Y-78486353D01*
X117827712Y-78506206D01*
X117821682Y-78508891D01*
X117821681Y-78508891D01*
X117659278Y-78581197D01*
X117659276Y-78581198D01*
X117653248Y-78583882D01*
X117498747Y-78696134D01*
X117494332Y-78701037D01*
X117489420Y-78705460D01*
X117488295Y-78704211D01*
X117434986Y-78737051D01*
X117401800Y-78741500D01*
X115249594Y-78741500D01*
X115181473Y-78721498D01*
X115160499Y-78704595D01*
X114185894Y-77729990D01*
X114151868Y-77667678D01*
X114156933Y-77596863D01*
X114199480Y-77540027D01*
X114261984Y-77515568D01*
X114289207Y-77512743D01*
X114302600Y-77509851D01*
X114456784Y-77458412D01*
X114469962Y-77452239D01*
X114607807Y-77366937D01*
X114619208Y-77357901D01*
X114733739Y-77243171D01*
X114742751Y-77231760D01*
X114827816Y-77093757D01*
X114833963Y-77080576D01*
X114885138Y-76926290D01*
X114888005Y-76912914D01*
X114897672Y-76818562D01*
X114898000Y-76812146D01*
X114898000Y-76787115D01*
X114893525Y-76771876D01*
X114892135Y-76770671D01*
X114884452Y-76769000D01*
X113537000Y-76769000D01*
X113468879Y-76748998D01*
X113422386Y-76695342D01*
X113411000Y-76643000D01*
X113411000Y-76387000D01*
X113431002Y-76318879D01*
X113484658Y-76272386D01*
X113537000Y-76261000D01*
X114879884Y-76261000D01*
X114895123Y-76256525D01*
X114896328Y-76255135D01*
X114897999Y-76247452D01*
X114897999Y-76217905D01*
X114897662Y-76211386D01*
X114887743Y-76115794D01*
X114884851Y-76102400D01*
X114833412Y-75948216D01*
X114827239Y-75935038D01*
X114741937Y-75797193D01*
X114732901Y-75785792D01*
X114618172Y-75671262D01*
X114609238Y-75664206D01*
X114568177Y-75606288D01*
X114564947Y-75535365D01*
X114600574Y-75473954D01*
X114608407Y-75467154D01*
X114614348Y-75463478D01*
X114628302Y-75449500D01*
X114717165Y-75360482D01*
X114779448Y-75326403D01*
X114806338Y-75323500D01*
X115230500Y-75323500D01*
X115298621Y-75343502D01*
X115345114Y-75397158D01*
X115356500Y-75449500D01*
X115356500Y-75488134D01*
X115363255Y-75550316D01*
X115414385Y-75686705D01*
X115501739Y-75803261D01*
X115618295Y-75890615D01*
X115754684Y-75941745D01*
X115816866Y-75948500D01*
X117913134Y-75948500D01*
X117975316Y-75941745D01*
X118111705Y-75890615D01*
X118228261Y-75803261D01*
X118315615Y-75686705D01*
X118366745Y-75550316D01*
X118373500Y-75488134D01*
X118373500Y-73891866D01*
X118366745Y-73829684D01*
X118315615Y-73693295D01*
X118310229Y-73686108D01*
X118257360Y-73615565D01*
X118232512Y-73549058D01*
X118247565Y-73479676D01*
X118257360Y-73464435D01*
X118310229Y-73393892D01*
X118310230Y-73393890D01*
X118315615Y-73386705D01*
X118366745Y-73250316D01*
X118373500Y-73188134D01*
X118373500Y-73149500D01*
X118393502Y-73081379D01*
X118447158Y-73034886D01*
X118499500Y-73023500D01*
X121530500Y-73023500D01*
X121598621Y-73043502D01*
X121645114Y-73097158D01*
X121656500Y-73149500D01*
X121656500Y-74338134D01*
X121663255Y-74400316D01*
X121714385Y-74536705D01*
X121793672Y-74642498D01*
X121818519Y-74709001D01*
X121803466Y-74778383D01*
X121781940Y-74807155D01*
X120392747Y-76196348D01*
X120384461Y-76203888D01*
X120377982Y-76208000D01*
X120372557Y-76213777D01*
X120352247Y-76235405D01*
X120340656Y-76247749D01*
X120331357Y-76257651D01*
X120328602Y-76260493D01*
X120308865Y-76280230D01*
X120306385Y-76283427D01*
X120298682Y-76292447D01*
X120268414Y-76324679D01*
X120264595Y-76331625D01*
X120264593Y-76331628D01*
X120258652Y-76342434D01*
X120247801Y-76358953D01*
X120235386Y-76374959D01*
X120232241Y-76382228D01*
X120232238Y-76382232D01*
X120217826Y-76415537D01*
X120212609Y-76426187D01*
X120191305Y-76464940D01*
X120189334Y-76472615D01*
X120189334Y-76472616D01*
X120186267Y-76484562D01*
X120179863Y-76503266D01*
X120178394Y-76506662D01*
X120171819Y-76521855D01*
X120170580Y-76529678D01*
X120170577Y-76529688D01*
X120164901Y-76565524D01*
X120162495Y-76577144D01*
X120155354Y-76604958D01*
X120151500Y-76619970D01*
X120151500Y-76640224D01*
X120149949Y-76659934D01*
X120146780Y-76679943D01*
X120147526Y-76687835D01*
X120150941Y-76723961D01*
X120151500Y-76735819D01*
X120151500Y-81020500D01*
X120131498Y-81088621D01*
X120077842Y-81135114D01*
X120025500Y-81146500D01*
X117688767Y-81146500D01*
X117677584Y-81145973D01*
X117670091Y-81144298D01*
X117662165Y-81144547D01*
X117662164Y-81144547D01*
X117602014Y-81146438D01*
X117598055Y-81146500D01*
X99481141Y-81146500D01*
X99413020Y-81126498D01*
X99392046Y-81109595D01*
X95094547Y-76812095D01*
X109257001Y-76812095D01*
X109257338Y-76818614D01*
X109267257Y-76914206D01*
X109270149Y-76927600D01*
X109321588Y-77081784D01*
X109327761Y-77094962D01*
X109413063Y-77232807D01*
X109422099Y-77244208D01*
X109536829Y-77358739D01*
X109548240Y-77367751D01*
X109686243Y-77452816D01*
X109699424Y-77458963D01*
X109853710Y-77510138D01*
X109867086Y-77513005D01*
X109961438Y-77522672D01*
X109967854Y-77523000D01*
X110217885Y-77523000D01*
X110233124Y-77518525D01*
X110234329Y-77517135D01*
X110236000Y-77509452D01*
X110236000Y-76787115D01*
X110231525Y-76771876D01*
X110230135Y-76770671D01*
X110222452Y-76769000D01*
X109275116Y-76769000D01*
X109259877Y-76773475D01*
X109258672Y-76774865D01*
X109257001Y-76782548D01*
X109257001Y-76812095D01*
X95094547Y-76812095D01*
X92897441Y-74614989D01*
X92863415Y-74552677D01*
X92860536Y-74525894D01*
X92860536Y-72912095D01*
X99007001Y-72912095D01*
X99007338Y-72918614D01*
X99017257Y-73014206D01*
X99020149Y-73027600D01*
X99071588Y-73181784D01*
X99077761Y-73194962D01*
X99163063Y-73332807D01*
X99172099Y-73344208D01*
X99286829Y-73458739D01*
X99298240Y-73467751D01*
X99436243Y-73552816D01*
X99449424Y-73558963D01*
X99603710Y-73610138D01*
X99617086Y-73613005D01*
X99711438Y-73622672D01*
X99717854Y-73623000D01*
X99742885Y-73623000D01*
X99758124Y-73618525D01*
X99759329Y-73617135D01*
X99761000Y-73609452D01*
X99761000Y-72662115D01*
X99756525Y-72646876D01*
X99755135Y-72645671D01*
X99747452Y-72644000D01*
X99025116Y-72644000D01*
X99009877Y-72648475D01*
X99008672Y-72649865D01*
X99007001Y-72657548D01*
X99007001Y-72912095D01*
X92860536Y-72912095D01*
X92860536Y-72117885D01*
X99007000Y-72117885D01*
X99011475Y-72133124D01*
X99012865Y-72134329D01*
X99020548Y-72136000D01*
X99742885Y-72136000D01*
X99758124Y-72131525D01*
X99759329Y-72130135D01*
X99761000Y-72122452D01*
X99761000Y-71175116D01*
X99756525Y-71159877D01*
X99755135Y-71158672D01*
X99747452Y-71157001D01*
X99717905Y-71157001D01*
X99711386Y-71157338D01*
X99615794Y-71167257D01*
X99602400Y-71170149D01*
X99448216Y-71221588D01*
X99435038Y-71227761D01*
X99297193Y-71313063D01*
X99285792Y-71322099D01*
X99171261Y-71436829D01*
X99162249Y-71448240D01*
X99077184Y-71586243D01*
X99071037Y-71599424D01*
X99019862Y-71753710D01*
X99016995Y-71767086D01*
X99007328Y-71861438D01*
X99007000Y-71867855D01*
X99007000Y-72117885D01*
X92860536Y-72117885D01*
X92860536Y-66323306D01*
X92861063Y-66312122D01*
X92862737Y-66304634D01*
X92860598Y-66236575D01*
X92860536Y-66232618D01*
X92860536Y-66204687D01*
X92860030Y-66200681D01*
X92859097Y-66188835D01*
X92857958Y-66152580D01*
X92857709Y-66144653D01*
X92852058Y-66125201D01*
X92848050Y-66105849D01*
X92846504Y-66093611D01*
X92846503Y-66093609D01*
X92845510Y-66085746D01*
X92829230Y-66044629D01*
X92825395Y-66033428D01*
X92813054Y-65990949D01*
X92809021Y-65984130D01*
X92809019Y-65984125D01*
X92802743Y-65973514D01*
X92794046Y-65955764D01*
X92786588Y-65936926D01*
X92760607Y-65901166D01*
X92754089Y-65891244D01*
X92735614Y-65860003D01*
X92735610Y-65859998D01*
X92731578Y-65853180D01*
X92717254Y-65838856D01*
X92704412Y-65823821D01*
X92692508Y-65807436D01*
X92658442Y-65779254D01*
X92649663Y-65771265D01*
X85581116Y-58702718D01*
X103878800Y-58702718D01*
X103892011Y-58904289D01*
X103893811Y-58915656D01*
X103943537Y-59111450D01*
X103947375Y-59122288D01*
X104031950Y-59305746D01*
X104037698Y-59315702D01*
X104052042Y-59335999D01*
X104062630Y-59344387D01*
X104075931Y-59337359D01*
X104672978Y-58740312D01*
X104680592Y-58726368D01*
X104680461Y-58724535D01*
X104676210Y-58717920D01*
X104073558Y-58115268D01*
X104061178Y-58108508D01*
X104055212Y-58112974D01*
X103969546Y-58275798D01*
X103965138Y-58286441D01*
X103905235Y-58479357D01*
X103902845Y-58490601D01*
X103879101Y-58691217D01*
X103878800Y-58702718D01*
X85581116Y-58702718D01*
X84271145Y-57392747D01*
X84263605Y-57384461D01*
X84259493Y-57377982D01*
X84209841Y-57331356D01*
X84207000Y-57328602D01*
X84187263Y-57308865D01*
X84184066Y-57306385D01*
X84175044Y-57298680D01*
X84148593Y-57273841D01*
X84142814Y-57268414D01*
X84135868Y-57264595D01*
X84135865Y-57264593D01*
X84125059Y-57258652D01*
X84108540Y-57247801D01*
X84108076Y-57247441D01*
X84092534Y-57235386D01*
X84085265Y-57232241D01*
X84085261Y-57232238D01*
X84051956Y-57217826D01*
X84041306Y-57212609D01*
X84002553Y-57191305D01*
X83982930Y-57186267D01*
X83964227Y-57179863D01*
X83952913Y-57174967D01*
X83952912Y-57174967D01*
X83945638Y-57171819D01*
X83937815Y-57170580D01*
X83937805Y-57170577D01*
X83901969Y-57164901D01*
X83890349Y-57162495D01*
X83855204Y-57153472D01*
X83855203Y-57153472D01*
X83847523Y-57151500D01*
X83827269Y-57151500D01*
X83807558Y-57149949D01*
X83795379Y-57148020D01*
X83787550Y-57146780D01*
X83779658Y-57147526D01*
X83743532Y-57150941D01*
X83731674Y-57151500D01*
X83389899Y-57151500D01*
X83321778Y-57131498D01*
X83282755Y-57091803D01*
X83267332Y-57066880D01*
X83263478Y-57060652D01*
X83138303Y-56935695D01*
X83132072Y-56931854D01*
X82993968Y-56846725D01*
X82993966Y-56846724D01*
X82987738Y-56842885D01*
X82867696Y-56803069D01*
X82826389Y-56789368D01*
X82826387Y-56789368D01*
X82819861Y-56787203D01*
X82813025Y-56786503D01*
X82813022Y-56786502D01*
X82769969Y-56782091D01*
X82715400Y-56776500D01*
X81114600Y-56776500D01*
X81111354Y-56776837D01*
X81111350Y-56776837D01*
X81015692Y-56786762D01*
X81015688Y-56786763D01*
X81008834Y-56787474D01*
X81002298Y-56789655D01*
X81002296Y-56789655D01*
X80962090Y-56803069D01*
X80841054Y-56843450D01*
X80690652Y-56936522D01*
X80565695Y-57061697D01*
X80561855Y-57067927D01*
X80561854Y-57067928D01*
X80488909Y-57186267D01*
X80472885Y-57212262D01*
X80417203Y-57380139D01*
X80406500Y-57484600D01*
X80406500Y-57802912D01*
X80386498Y-57871033D01*
X80369595Y-57892007D01*
X80198227Y-58063375D01*
X80189941Y-58070915D01*
X80183462Y-58075027D01*
X80178037Y-58080804D01*
X80136837Y-58124678D01*
X80134082Y-58127520D01*
X80114345Y-58147257D01*
X80111865Y-58150454D01*
X80104162Y-58159474D01*
X80073894Y-58191706D01*
X80070075Y-58198652D01*
X80070073Y-58198655D01*
X80064132Y-58209461D01*
X80053281Y-58225980D01*
X80040866Y-58241986D01*
X80037721Y-58249255D01*
X80037718Y-58249259D01*
X80023306Y-58282564D01*
X80018089Y-58293214D01*
X79996785Y-58331967D01*
X79994814Y-58339642D01*
X79994814Y-58339643D01*
X79991747Y-58351589D01*
X79985343Y-58370293D01*
X79977299Y-58388882D01*
X79976060Y-58396705D01*
X79976057Y-58396715D01*
X79970381Y-58432551D01*
X79967975Y-58444171D01*
X79963679Y-58460904D01*
X79956980Y-58486997D01*
X79956980Y-58507251D01*
X79955429Y-58526961D01*
X79952260Y-58546970D01*
X79953006Y-58554862D01*
X79956421Y-58590988D01*
X79956980Y-58602846D01*
X79956980Y-74704206D01*
X79956453Y-74715389D01*
X79954778Y-74722882D01*
X79955027Y-74730808D01*
X79955027Y-74730809D01*
X79956918Y-74790959D01*
X79956980Y-74794918D01*
X79956980Y-74822829D01*
X79957477Y-74826763D01*
X79957477Y-74826764D01*
X79957485Y-74826829D01*
X79958418Y-74838666D01*
X79959807Y-74882862D01*
X79965458Y-74902312D01*
X79969467Y-74921673D01*
X79972006Y-74941770D01*
X79974925Y-74949141D01*
X79974925Y-74949143D01*
X79988284Y-74982885D01*
X79992129Y-74994115D01*
X80004462Y-75036566D01*
X80008495Y-75043385D01*
X80008497Y-75043390D01*
X80014773Y-75054001D01*
X80023468Y-75071749D01*
X80030928Y-75090590D01*
X80035590Y-75097006D01*
X80035590Y-75097007D01*
X80056916Y-75126360D01*
X80063432Y-75136280D01*
X80068580Y-75144984D01*
X80085938Y-75174335D01*
X80100259Y-75188656D01*
X80113099Y-75203689D01*
X80125008Y-75220080D01*
X80152426Y-75242762D01*
X80159085Y-75248271D01*
X80167864Y-75256261D01*
X80369595Y-75457992D01*
X80403621Y-75520304D01*
X80406500Y-75547087D01*
X80406500Y-75582912D01*
X80386498Y-75651033D01*
X80369595Y-75672007D01*
X80198227Y-75843375D01*
X80189941Y-75850915D01*
X80183462Y-75855027D01*
X80178037Y-75860804D01*
X80136837Y-75904678D01*
X80134082Y-75907520D01*
X80114345Y-75927257D01*
X80111865Y-75930454D01*
X80104162Y-75939474D01*
X80073894Y-75971706D01*
X80070075Y-75978652D01*
X80070073Y-75978655D01*
X80064132Y-75989461D01*
X80053281Y-76005980D01*
X80040866Y-76021986D01*
X80037721Y-76029255D01*
X80037718Y-76029259D01*
X80023306Y-76062564D01*
X80018089Y-76073214D01*
X79996785Y-76111967D01*
X79994814Y-76119642D01*
X79994814Y-76119643D01*
X79991747Y-76131589D01*
X79985343Y-76150293D01*
X79977299Y-76168882D01*
X79976060Y-76176705D01*
X79976057Y-76176715D01*
X79970381Y-76212551D01*
X79967975Y-76224171D01*
X79959258Y-76258124D01*
X79956980Y-76266997D01*
X79956980Y-76287251D01*
X79955429Y-76306961D01*
X79952260Y-76326970D01*
X79248000Y-76326970D01*
X79248000Y-53339000D01*
X79268002Y-53270879D01*
X79321658Y-53224386D01*
X79374000Y-53213000D01*
X133351000Y-53213000D01*
X133419121Y-53233002D01*
G37*
%TD.AperFunction*%
%TA.AperFunction,Conductor*%
G36*
X115514065Y-96651892D02*
G01*
X115531705Y-96663229D01*
X115558908Y-96684103D01*
X115600775Y-96741442D01*
X115603099Y-96748567D01*
X115609044Y-96768813D01*
X115622583Y-96770842D01*
X115682194Y-96762994D01*
X115682427Y-96764765D01*
X115727507Y-96764766D01*
X115727676Y-96763481D01*
X115837669Y-96777962D01*
X115837670Y-96777962D01*
X115841756Y-96778500D01*
X116068244Y-96778500D01*
X116072330Y-96777962D01*
X116072331Y-96777962D01*
X116182324Y-96763481D01*
X116182527Y-96765026D01*
X116227473Y-96765026D01*
X116227676Y-96763481D01*
X116337669Y-96777962D01*
X116337670Y-96777962D01*
X116341756Y-96778500D01*
X116568244Y-96778500D01*
X116572330Y-96777962D01*
X116572331Y-96777962D01*
X116682324Y-96763481D01*
X116682527Y-96765026D01*
X116727473Y-96765026D01*
X116727676Y-96763481D01*
X116837669Y-96777962D01*
X116837670Y-96777962D01*
X116841756Y-96778500D01*
X117068244Y-96778500D01*
X117072330Y-96777962D01*
X117072331Y-96777962D01*
X117182324Y-96763481D01*
X117182527Y-96765026D01*
X117227473Y-96765026D01*
X117227676Y-96763481D01*
X117337669Y-96777962D01*
X117337670Y-96777962D01*
X117341756Y-96778500D01*
X117568244Y-96778500D01*
X117572330Y-96777962D01*
X117572331Y-96777962D01*
X117682324Y-96763481D01*
X117682527Y-96765026D01*
X117727473Y-96765026D01*
X117727676Y-96763481D01*
X117837669Y-96777962D01*
X117837670Y-96777962D01*
X117841756Y-96778500D01*
X118068244Y-96778500D01*
X118072330Y-96777962D01*
X118072331Y-96777962D01*
X118182324Y-96763481D01*
X118182527Y-96765026D01*
X118227473Y-96765026D01*
X118227676Y-96763481D01*
X118337669Y-96777962D01*
X118337670Y-96777962D01*
X118341756Y-96778500D01*
X118568244Y-96778500D01*
X118572330Y-96777962D01*
X118572331Y-96777962D01*
X118682324Y-96763481D01*
X118682527Y-96765026D01*
X118727473Y-96765026D01*
X118727676Y-96763481D01*
X118837669Y-96777962D01*
X118837670Y-96777962D01*
X118841756Y-96778500D01*
X118995500Y-96778500D01*
X119063621Y-96798502D01*
X119110114Y-96852158D01*
X119121500Y-96904500D01*
X119121500Y-97058244D01*
X119122038Y-97062330D01*
X119122038Y-97062331D01*
X119136519Y-97172324D01*
X119135234Y-97172493D01*
X119135235Y-97217573D01*
X119137006Y-97217806D01*
X119129208Y-97277040D01*
X119131419Y-97291222D01*
X119150784Y-97296783D01*
X119210737Y-97334811D01*
X119215967Y-97341184D01*
X119236771Y-97368296D01*
X119262372Y-97434516D01*
X119248108Y-97504065D01*
X119236771Y-97521705D01*
X119215897Y-97548908D01*
X119158558Y-97590775D01*
X119151433Y-97593099D01*
X119131187Y-97599044D01*
X119129158Y-97612583D01*
X119137006Y-97672194D01*
X119135235Y-97672427D01*
X119135234Y-97717507D01*
X119136519Y-97717676D01*
X119125090Y-97804491D01*
X119121500Y-97831756D01*
X119121500Y-98058244D01*
X119122038Y-98062330D01*
X119122038Y-98062331D01*
X119136519Y-98172324D01*
X119134974Y-98172527D01*
X119134974Y-98217473D01*
X119136519Y-98217676D01*
X119125399Y-98302144D01*
X119121500Y-98331756D01*
X119121500Y-98558244D01*
X119122038Y-98562330D01*
X119122038Y-98562331D01*
X119136519Y-98672324D01*
X119134974Y-98672527D01*
X119134974Y-98717473D01*
X119136519Y-98717676D01*
X119121500Y-98831756D01*
X119121500Y-99058244D01*
X119122038Y-99062330D01*
X119122038Y-99062331D01*
X119136519Y-99172324D01*
X119134974Y-99172527D01*
X119134974Y-99217473D01*
X119136519Y-99217676D01*
X119121500Y-99331756D01*
X119121500Y-99558244D01*
X119122038Y-99562330D01*
X119122038Y-99562331D01*
X119136519Y-99672324D01*
X119134974Y-99672527D01*
X119134974Y-99717473D01*
X119136519Y-99717676D01*
X119121500Y-99831756D01*
X119121500Y-100058244D01*
X119122038Y-100062330D01*
X119122038Y-100062331D01*
X119136519Y-100172324D01*
X119134974Y-100172527D01*
X119134974Y-100217473D01*
X119136519Y-100217676D01*
X119121500Y-100331756D01*
X119121500Y-100558244D01*
X119122038Y-100562330D01*
X119122038Y-100562331D01*
X119136519Y-100672324D01*
X119134974Y-100672527D01*
X119134974Y-100717473D01*
X119136519Y-100717676D01*
X119121500Y-100831756D01*
X119121500Y-101058244D01*
X119122038Y-101062330D01*
X119122038Y-101062331D01*
X119136519Y-101172324D01*
X119134974Y-101172527D01*
X119134974Y-101217473D01*
X119136519Y-101217676D01*
X119121500Y-101331756D01*
X119121500Y-101558244D01*
X119122038Y-101562330D01*
X119122038Y-101562331D01*
X119136519Y-101672324D01*
X119134974Y-101672527D01*
X119134974Y-101717473D01*
X119136519Y-101717676D01*
X119121500Y-101831756D01*
X119121500Y-102058244D01*
X119122038Y-102062330D01*
X119122038Y-102062331D01*
X119136519Y-102172324D01*
X119134974Y-102172527D01*
X119134974Y-102217473D01*
X119136519Y-102217676D01*
X119126369Y-102294776D01*
X119121500Y-102331756D01*
X119121500Y-102485500D01*
X119101498Y-102553621D01*
X119047842Y-102600114D01*
X118995500Y-102611500D01*
X118841756Y-102611500D01*
X118837670Y-102612038D01*
X118837669Y-102612038D01*
X118727676Y-102626519D01*
X118727507Y-102625234D01*
X118682427Y-102625235D01*
X118682194Y-102627006D01*
X118622960Y-102619208D01*
X118608778Y-102621419D01*
X118603217Y-102640784D01*
X118565189Y-102700737D01*
X118558816Y-102705967D01*
X118531704Y-102726771D01*
X118465484Y-102752372D01*
X118395935Y-102738108D01*
X118378295Y-102726771D01*
X118351092Y-102705897D01*
X118309225Y-102648558D01*
X118306901Y-102641433D01*
X118300956Y-102621187D01*
X118287417Y-102619158D01*
X118227806Y-102627006D01*
X118227573Y-102625235D01*
X118182493Y-102625234D01*
X118182324Y-102626519D01*
X118072331Y-102612038D01*
X118072330Y-102612038D01*
X118068244Y-102611500D01*
X117841756Y-102611500D01*
X117837670Y-102612038D01*
X117837669Y-102612038D01*
X117727676Y-102626519D01*
X117727473Y-102624974D01*
X117682527Y-102624974D01*
X117682324Y-102626519D01*
X117572331Y-102612038D01*
X117572330Y-102612038D01*
X117568244Y-102611500D01*
X117341756Y-102611500D01*
X117337670Y-102612038D01*
X117337669Y-102612038D01*
X117227676Y-102626519D01*
X117227417Y-102624548D01*
X117167255Y-102623113D01*
X117108462Y-102583316D01*
X117080517Y-102518050D01*
X117085794Y-102464162D01*
X117093374Y-102440834D01*
X117098542Y-102424928D01*
X117099733Y-102413602D01*
X117117814Y-102241565D01*
X117118504Y-102235000D01*
X117108931Y-102143919D01*
X117099232Y-102051635D01*
X117099232Y-102051633D01*
X117098542Y-102045072D01*
X117039527Y-101863444D01*
X116944040Y-101698056D01*
X116846888Y-101590157D01*
X116820675Y-101561045D01*
X116820674Y-101561044D01*
X116816253Y-101556134D01*
X116685715Y-101461292D01*
X116667094Y-101447763D01*
X116667093Y-101447762D01*
X116661752Y-101443882D01*
X116655724Y-101441198D01*
X116655722Y-101441197D01*
X116493319Y-101368891D01*
X116493318Y-101368891D01*
X116487288Y-101366206D01*
X116393887Y-101346353D01*
X116306944Y-101327872D01*
X116306939Y-101327872D01*
X116300487Y-101326500D01*
X116244595Y-101326500D01*
X116176474Y-101306498D01*
X116155499Y-101289595D01*
X115694915Y-100829010D01*
X115660890Y-100766698D01*
X115658011Y-100739915D01*
X115658011Y-97568664D01*
X115658538Y-97557481D01*
X115660213Y-97549988D01*
X115659228Y-97518635D01*
X115658073Y-97481911D01*
X115658011Y-97477952D01*
X115658011Y-97450041D01*
X115657506Y-97446041D01*
X115656573Y-97434198D01*
X115656085Y-97418652D01*
X115655184Y-97390007D01*
X115649533Y-97370555D01*
X115645525Y-97351203D01*
X115643978Y-97338960D01*
X115642985Y-97331100D01*
X115636321Y-97314268D01*
X115626711Y-97289994D01*
X115622866Y-97278767D01*
X115619906Y-97268578D01*
X115610529Y-97236304D01*
X115606495Y-97229482D01*
X115606492Y-97229476D01*
X115600217Y-97218865D01*
X115591521Y-97201115D01*
X115586983Y-97189653D01*
X115586980Y-97189648D01*
X115584063Y-97182280D01*
X115571412Y-97164867D01*
X115558084Y-97146522D01*
X115551568Y-97136604D01*
X115533086Y-97105354D01*
X115529053Y-97098534D01*
X115514729Y-97084210D01*
X115501887Y-97069175D01*
X115489983Y-97052790D01*
X115455917Y-97024608D01*
X115447138Y-97016619D01*
X115330943Y-96900424D01*
X115296917Y-96838112D01*
X115298933Y-96776549D01*
X115306783Y-96749215D01*
X115344812Y-96689262D01*
X115351184Y-96684033D01*
X115378296Y-96663229D01*
X115444516Y-96637628D01*
X115514065Y-96651892D01*
G37*
%TD.AperFunction*%
%TA.AperFunction,Conductor*%
G36*
X112533222Y-93678502D02*
G01*
X112572245Y-93718197D01*
X112591522Y-93749348D01*
X112716697Y-93874305D01*
X112722929Y-93878147D01*
X112722931Y-93878148D01*
X112761617Y-93901995D01*
X112809110Y-93954767D01*
X112821500Y-94009254D01*
X112821500Y-94668515D01*
X112814930Y-94701560D01*
X112816817Y-94702066D01*
X112814678Y-94710051D01*
X112811519Y-94717676D01*
X112810442Y-94725860D01*
X112810441Y-94725862D01*
X112797370Y-94825144D01*
X112796500Y-94831756D01*
X112796500Y-96160500D01*
X112776498Y-96228621D01*
X112722842Y-96275114D01*
X112670500Y-96286500D01*
X111341756Y-96286500D01*
X111337670Y-96287038D01*
X111337669Y-96287038D01*
X111298847Y-96292149D01*
X111227676Y-96301519D01*
X111220049Y-96304678D01*
X111220046Y-96304679D01*
X111156704Y-96330917D01*
X111085732Y-96360314D01*
X110963843Y-96453843D01*
X110870314Y-96575733D01*
X110811519Y-96717676D01*
X110796500Y-96831756D01*
X110796500Y-97058244D01*
X110797038Y-97062330D01*
X110797038Y-97062331D01*
X110811519Y-97172324D01*
X110809974Y-97172527D01*
X110809974Y-97217473D01*
X110811519Y-97217676D01*
X110796500Y-97331756D01*
X110796500Y-97558244D01*
X110797038Y-97562330D01*
X110797038Y-97562331D01*
X110811519Y-97672324D01*
X110809974Y-97672527D01*
X110809974Y-97717473D01*
X110811519Y-97717676D01*
X110800090Y-97804491D01*
X110796500Y-97831756D01*
X110796500Y-98058244D01*
X110797038Y-98062330D01*
X110797038Y-98062331D01*
X110811519Y-98172324D01*
X110809974Y-98172527D01*
X110809974Y-98217473D01*
X110811519Y-98217676D01*
X110800399Y-98302144D01*
X110796500Y-98331756D01*
X110796500Y-98558244D01*
X110797038Y-98562330D01*
X110797038Y-98562331D01*
X110811519Y-98672324D01*
X110809974Y-98672527D01*
X110809974Y-98717473D01*
X110811519Y-98717676D01*
X110796500Y-98831756D01*
X110796500Y-99058244D01*
X110797038Y-99062330D01*
X110797038Y-99062331D01*
X110811088Y-99169054D01*
X110800148Y-99239203D01*
X110753020Y-99292301D01*
X110686166Y-99311500D01*
X110669500Y-99311500D01*
X110601379Y-99291498D01*
X110554886Y-99237842D01*
X110543500Y-99185500D01*
X110543500Y-99169600D01*
X110536170Y-99098955D01*
X110533238Y-99070692D01*
X110533237Y-99070688D01*
X110532526Y-99063834D01*
X110476550Y-98896054D01*
X110383478Y-98745652D01*
X110258303Y-98620695D01*
X110226831Y-98601295D01*
X110113968Y-98531725D01*
X110113966Y-98531724D01*
X110107738Y-98527885D01*
X109982685Y-98486407D01*
X109946389Y-98474368D01*
X109946387Y-98474368D01*
X109939861Y-98472203D01*
X109933025Y-98471503D01*
X109933022Y-98471502D01*
X109889969Y-98467091D01*
X109835400Y-98461500D01*
X109234600Y-98461500D01*
X109231354Y-98461837D01*
X109231350Y-98461837D01*
X109135692Y-98471762D01*
X109135688Y-98471763D01*
X109128834Y-98472474D01*
X109122298Y-98474655D01*
X109122296Y-98474655D01*
X109064247Y-98494022D01*
X108961054Y-98528450D01*
X108810652Y-98621522D01*
X108685695Y-98746697D01*
X108682898Y-98751235D01*
X108625647Y-98791824D01*
X108554724Y-98795054D01*
X108493313Y-98759428D01*
X108485938Y-98750932D01*
X108477902Y-98740793D01*
X108363171Y-98626261D01*
X108351760Y-98617249D01*
X108213757Y-98532184D01*
X108200576Y-98526037D01*
X108046290Y-98474862D01*
X108032914Y-98471995D01*
X107938562Y-98462328D01*
X107932145Y-98462000D01*
X107907115Y-98462000D01*
X107891876Y-98466475D01*
X107890671Y-98467865D01*
X107889000Y-98475548D01*
X107889000Y-100909884D01*
X107893475Y-100925123D01*
X107894865Y-100926328D01*
X107902548Y-100927999D01*
X107932095Y-100927999D01*
X107938614Y-100927662D01*
X108034206Y-100917743D01*
X108047600Y-100914851D01*
X108201784Y-100863412D01*
X108214962Y-100857239D01*
X108352807Y-100771937D01*
X108364208Y-100762901D01*
X108478738Y-100648172D01*
X108485794Y-100639238D01*
X108543712Y-100598177D01*
X108614635Y-100594947D01*
X108676046Y-100630574D01*
X108682846Y-100638407D01*
X108686522Y-100644348D01*
X108811697Y-100769305D01*
X108817927Y-100773145D01*
X108817928Y-100773146D01*
X108955288Y-100857816D01*
X108962262Y-100862115D01*
X109042005Y-100888564D01*
X109123611Y-100915632D01*
X109123613Y-100915632D01*
X109130139Y-100917797D01*
X109136975Y-100918497D01*
X109136978Y-100918498D01*
X109180031Y-100922909D01*
X109234600Y-100928500D01*
X109274616Y-100928500D01*
X109342737Y-100948502D01*
X109389230Y-101002158D01*
X109399334Y-101072432D01*
X109369840Y-101137012D01*
X109363717Y-101143590D01*
X109217711Y-101289595D01*
X109128190Y-101379116D01*
X109065878Y-101413141D01*
X109039095Y-101416020D01*
X108849247Y-101416020D01*
X108838064Y-101415493D01*
X108830571Y-101413818D01*
X108822645Y-101414067D01*
X108822644Y-101414067D01*
X108762494Y-101415958D01*
X108758535Y-101416020D01*
X108730624Y-101416020D01*
X108726690Y-101416517D01*
X108726689Y-101416517D01*
X108726624Y-101416525D01*
X108714787Y-101417458D01*
X108682970Y-101418458D01*
X108678509Y-101418598D01*
X108670590Y-101418847D01*
X108652934Y-101423976D01*
X108651138Y-101424498D01*
X108631786Y-101428506D01*
X108624715Y-101429400D01*
X108611683Y-101431046D01*
X108604314Y-101433963D01*
X108604312Y-101433964D01*
X108570577Y-101447320D01*
X108559349Y-101451165D01*
X108516887Y-101463502D01*
X108510065Y-101467536D01*
X108510059Y-101467539D01*
X108499448Y-101473814D01*
X108481698Y-101482510D01*
X108470236Y-101487048D01*
X108470231Y-101487051D01*
X108462863Y-101489968D01*
X108456448Y-101494629D01*
X108427105Y-101515947D01*
X108417187Y-101522463D01*
X108398499Y-101533515D01*
X108379117Y-101544978D01*
X108364793Y-101559302D01*
X108349761Y-101572141D01*
X108333373Y-101584048D01*
X108305192Y-101618113D01*
X108297202Y-101626893D01*
X108004500Y-101919595D01*
X107942188Y-101953621D01*
X107915405Y-101956500D01*
X107344595Y-101956500D01*
X107276474Y-101936498D01*
X107255500Y-101919595D01*
X105553000Y-100217095D01*
X106627001Y-100217095D01*
X106627338Y-100223614D01*
X106637257Y-100319206D01*
X106640149Y-100332600D01*
X106691588Y-100486784D01*
X106697761Y-100499962D01*
X106783063Y-100637807D01*
X106792099Y-100649208D01*
X106906829Y-100763739D01*
X106918240Y-100772751D01*
X107056243Y-100857816D01*
X107069424Y-100863963D01*
X107223710Y-100915138D01*
X107237086Y-100918005D01*
X107331438Y-100927672D01*
X107337854Y-100928000D01*
X107362885Y-100928000D01*
X107378124Y-100923525D01*
X107379329Y-100922135D01*
X107381000Y-100914452D01*
X107381000Y-99967115D01*
X107376525Y-99951876D01*
X107375135Y-99950671D01*
X107367452Y-99949000D01*
X106645116Y-99949000D01*
X106629877Y-99953475D01*
X106628672Y-99954865D01*
X106627001Y-99962548D01*
X106627001Y-100217095D01*
X105553000Y-100217095D01*
X104810405Y-99474500D01*
X104782220Y-99422885D01*
X106627000Y-99422885D01*
X106631475Y-99438124D01*
X106632865Y-99439329D01*
X106640548Y-99441000D01*
X107362885Y-99441000D01*
X107378124Y-99436525D01*
X107379329Y-99435135D01*
X107381000Y-99427452D01*
X107381000Y-98480116D01*
X107376525Y-98464877D01*
X107375135Y-98463672D01*
X107367452Y-98462001D01*
X107337905Y-98462001D01*
X107331386Y-98462338D01*
X107235794Y-98472257D01*
X107222400Y-98475149D01*
X107068216Y-98526588D01*
X107055038Y-98532761D01*
X106917193Y-98618063D01*
X106905792Y-98627099D01*
X106791261Y-98741829D01*
X106782249Y-98753240D01*
X106697184Y-98891243D01*
X106691037Y-98904424D01*
X106639862Y-99058710D01*
X106636995Y-99072086D01*
X106627328Y-99166438D01*
X106627000Y-99172855D01*
X106627000Y-99422885D01*
X104782220Y-99422885D01*
X104776379Y-99412188D01*
X104773500Y-99385405D01*
X104773500Y-98739594D01*
X104793502Y-98671473D01*
X104810405Y-98650499D01*
X109765499Y-93695405D01*
X109827811Y-93661379D01*
X109854594Y-93658500D01*
X112465101Y-93658500D01*
X112533222Y-93678502D01*
G37*
%TD.AperFunction*%
%TA.AperFunction,Conductor*%
G36*
X113747841Y-96775030D02*
G01*
X113800939Y-96822159D01*
X113820076Y-96885053D01*
X113821438Y-96928371D01*
X113821500Y-96932331D01*
X113821500Y-96960242D01*
X113821997Y-96964176D01*
X113821997Y-96964177D01*
X113822005Y-96964242D01*
X113822938Y-96976079D01*
X113824327Y-97020275D01*
X113829978Y-97039725D01*
X113833987Y-97059086D01*
X113836526Y-97079183D01*
X113839445Y-97086554D01*
X113839445Y-97086556D01*
X113852804Y-97120298D01*
X113856649Y-97131528D01*
X113861005Y-97146522D01*
X113868982Y-97173979D01*
X113873015Y-97180798D01*
X113873017Y-97180803D01*
X113879293Y-97191414D01*
X113887988Y-97209162D01*
X113895448Y-97228003D01*
X113900110Y-97234419D01*
X113900110Y-97234420D01*
X113921436Y-97263773D01*
X113927952Y-97273693D01*
X113945794Y-97303861D01*
X113950458Y-97311748D01*
X113964779Y-97326069D01*
X113977619Y-97341102D01*
X113989528Y-97357493D01*
X114002587Y-97368296D01*
X114023605Y-97385684D01*
X114032384Y-97393674D01*
X114354106Y-97715396D01*
X114388132Y-97777708D01*
X114391011Y-97804491D01*
X114391011Y-100975744D01*
X114390484Y-100986927D01*
X114388809Y-100994420D01*
X114389058Y-101002346D01*
X114389058Y-101002347D01*
X114390949Y-101062497D01*
X114391011Y-101066456D01*
X114391011Y-101094367D01*
X114391508Y-101098301D01*
X114391508Y-101098302D01*
X114391516Y-101098367D01*
X114392449Y-101110204D01*
X114393838Y-101154400D01*
X114397018Y-101165346D01*
X114397010Y-101168079D01*
X114397289Y-101169839D01*
X114397005Y-101169884D01*
X114396817Y-101236340D01*
X114358265Y-101295958D01*
X114293601Y-101325268D01*
X114276022Y-101326500D01*
X114204513Y-101326500D01*
X114198052Y-101327873D01*
X114193620Y-101328339D01*
X114160734Y-101327477D01*
X114144474Y-101324901D01*
X114132857Y-101322495D01*
X114097711Y-101313472D01*
X114097710Y-101313472D01*
X114090030Y-101311500D01*
X114069776Y-101311500D01*
X114050065Y-101309949D01*
X114037886Y-101308020D01*
X114030057Y-101306780D01*
X114022165Y-101307526D01*
X113986039Y-101310941D01*
X113974181Y-101311500D01*
X113398834Y-101311500D01*
X113330713Y-101291498D01*
X113284220Y-101237842D01*
X113273912Y-101169054D01*
X113287962Y-101062331D01*
X113287962Y-101062330D01*
X113288500Y-101058244D01*
X113288500Y-100831756D01*
X113273481Y-100717676D01*
X113274766Y-100717507D01*
X113274765Y-100672427D01*
X113272994Y-100672194D01*
X113280792Y-100612960D01*
X113278581Y-100598778D01*
X113259216Y-100593217D01*
X113199263Y-100555189D01*
X113194033Y-100548816D01*
X113173229Y-100521704D01*
X113147628Y-100455484D01*
X113161892Y-100385935D01*
X113173229Y-100368295D01*
X113194103Y-100341092D01*
X113251442Y-100299225D01*
X113258567Y-100296901D01*
X113278813Y-100290956D01*
X113280842Y-100277417D01*
X113272994Y-100217806D01*
X113274765Y-100217573D01*
X113274766Y-100172493D01*
X113273481Y-100172324D01*
X113287962Y-100062331D01*
X113287962Y-100062330D01*
X113288500Y-100058244D01*
X113288500Y-99831756D01*
X113273481Y-99717676D01*
X113275026Y-99717473D01*
X113275026Y-99672527D01*
X113273481Y-99672324D01*
X113287962Y-99562331D01*
X113287962Y-99562330D01*
X113288500Y-99558244D01*
X113288500Y-99331756D01*
X113273481Y-99217676D01*
X113275026Y-99217473D01*
X113275026Y-99172527D01*
X113273481Y-99172324D01*
X113287962Y-99062331D01*
X113287962Y-99062330D01*
X113288500Y-99058244D01*
X113288500Y-98831756D01*
X113273481Y-98717676D01*
X113275026Y-98717473D01*
X113275026Y-98672527D01*
X113273481Y-98672324D01*
X113287962Y-98562331D01*
X113287962Y-98562330D01*
X113288500Y-98558244D01*
X113288500Y-98331756D01*
X113284602Y-98302144D01*
X113273481Y-98217676D01*
X113275026Y-98217473D01*
X113275026Y-98172527D01*
X113273481Y-98172324D01*
X113287962Y-98062331D01*
X113287962Y-98062330D01*
X113288500Y-98058244D01*
X113288500Y-97831756D01*
X113284911Y-97804491D01*
X113273481Y-97717676D01*
X113275026Y-97717473D01*
X113275026Y-97672527D01*
X113273481Y-97672324D01*
X113287962Y-97562331D01*
X113287962Y-97562330D01*
X113288500Y-97558244D01*
X113288500Y-97331756D01*
X113273481Y-97217676D01*
X113275026Y-97217473D01*
X113275026Y-97172527D01*
X113273481Y-97172324D01*
X113287962Y-97062331D01*
X113287962Y-97062330D01*
X113288500Y-97058244D01*
X113288500Y-96904500D01*
X113308502Y-96836379D01*
X113362158Y-96789886D01*
X113414500Y-96778500D01*
X113568244Y-96778500D01*
X113572330Y-96777962D01*
X113572331Y-96777962D01*
X113677692Y-96764091D01*
X113747841Y-96775030D01*
G37*
%TD.AperFunction*%
%TA.AperFunction,Conductor*%
G36*
X120070978Y-85358502D02*
G01*
X120117471Y-85412158D01*
X120128120Y-85450893D01*
X120132895Y-85494853D01*
X120136521Y-85510104D01*
X120181676Y-85630554D01*
X120190214Y-85646148D01*
X120228688Y-85697484D01*
X120253536Y-85763990D01*
X120238483Y-85833373D01*
X120219713Y-85859301D01*
X120196358Y-85884172D01*
X120193602Y-85887015D01*
X120173865Y-85906752D01*
X120171385Y-85909949D01*
X120163682Y-85918969D01*
X120133414Y-85951201D01*
X120129595Y-85958147D01*
X120129593Y-85958150D01*
X120123652Y-85968956D01*
X120112801Y-85985475D01*
X120100386Y-86001481D01*
X120097241Y-86008750D01*
X120097238Y-86008754D01*
X120082826Y-86042059D01*
X120077609Y-86052709D01*
X120056305Y-86091462D01*
X120054334Y-86099137D01*
X120054334Y-86099138D01*
X120051267Y-86111084D01*
X120044863Y-86129788D01*
X120036819Y-86148377D01*
X120035580Y-86156200D01*
X120035577Y-86156210D01*
X120029901Y-86192046D01*
X120027495Y-86203666D01*
X120018472Y-86238811D01*
X120016500Y-86246492D01*
X120016500Y-86266746D01*
X120014949Y-86286456D01*
X120011780Y-86306465D01*
X120010983Y-86306339D01*
X119990835Y-86367747D01*
X119980671Y-86380634D01*
X119910960Y-86458056D01*
X119815473Y-86623444D01*
X119756458Y-86805072D01*
X119755768Y-86811633D01*
X119755768Y-86811635D01*
X119743639Y-86927039D01*
X119736496Y-86995000D01*
X119737186Y-87001565D01*
X119753967Y-87161223D01*
X119756458Y-87184928D01*
X119815473Y-87366556D01*
X119910960Y-87531944D01*
X119921638Y-87543803D01*
X119952354Y-87607809D01*
X119954000Y-87628111D01*
X119954000Y-89479884D01*
X119958475Y-89495123D01*
X119959865Y-89496328D01*
X119967548Y-89497999D01*
X119997095Y-89497999D01*
X120003614Y-89497662D01*
X120099206Y-89487743D01*
X120112600Y-89484851D01*
X120266784Y-89433412D01*
X120279962Y-89427239D01*
X120417807Y-89341937D01*
X120429208Y-89332901D01*
X120543738Y-89218172D01*
X120550794Y-89209238D01*
X120608712Y-89168177D01*
X120679635Y-89164947D01*
X120741046Y-89200574D01*
X120747846Y-89208407D01*
X120751522Y-89214348D01*
X120876697Y-89339305D01*
X120896038Y-89351227D01*
X120906618Y-89357749D01*
X120954110Y-89410522D01*
X120966500Y-89465008D01*
X120966500Y-89925405D01*
X120946498Y-89993526D01*
X120929595Y-90014500D01*
X119099499Y-91844596D01*
X119037187Y-91878622D01*
X119010404Y-91881501D01*
X118930012Y-91881501D01*
X118893534Y-91884371D01*
X118796730Y-91912495D01*
X118745017Y-91927519D01*
X118745015Y-91927520D01*
X118737404Y-91929731D01*
X118730579Y-91933767D01*
X118730575Y-91933769D01*
X118684139Y-91961231D01*
X118615323Y-91978691D01*
X118555861Y-91961231D01*
X118509425Y-91933769D01*
X118509421Y-91933767D01*
X118502596Y-91929731D01*
X118494985Y-91927520D01*
X118494983Y-91927519D01*
X118352644Y-91886166D01*
X118352645Y-91886166D01*
X118346466Y-91884371D01*
X118340059Y-91883867D01*
X118340055Y-91883866D01*
X118312444Y-91881693D01*
X118312438Y-91881693D01*
X118309989Y-91881500D01*
X118234500Y-91881500D01*
X118166379Y-91861498D01*
X118119886Y-91807842D01*
X118108500Y-91755500D01*
X118108500Y-88787095D01*
X118692001Y-88787095D01*
X118692338Y-88793614D01*
X118702257Y-88889206D01*
X118705149Y-88902600D01*
X118756588Y-89056784D01*
X118762761Y-89069962D01*
X118848063Y-89207807D01*
X118857099Y-89219208D01*
X118971829Y-89333739D01*
X118983240Y-89342751D01*
X119121243Y-89427816D01*
X119134424Y-89433963D01*
X119288710Y-89485138D01*
X119302086Y-89488005D01*
X119396438Y-89497672D01*
X119402854Y-89498000D01*
X119427885Y-89498000D01*
X119443124Y-89493525D01*
X119444329Y-89492135D01*
X119446000Y-89484452D01*
X119446000Y-88537115D01*
X119441525Y-88521876D01*
X119440135Y-88520671D01*
X119432452Y-88519000D01*
X118710116Y-88519000D01*
X118694877Y-88523475D01*
X118693672Y-88524865D01*
X118692001Y-88532548D01*
X118692001Y-88787095D01*
X118108500Y-88787095D01*
X118108500Y-87992885D01*
X118692000Y-87992885D01*
X118696475Y-88008124D01*
X118697865Y-88009329D01*
X118705548Y-88011000D01*
X119427885Y-88011000D01*
X119443124Y-88006525D01*
X119444329Y-88005135D01*
X119446000Y-87997452D01*
X119446000Y-87050116D01*
X119441525Y-87034877D01*
X119440135Y-87033672D01*
X119432452Y-87032001D01*
X119402905Y-87032001D01*
X119396386Y-87032338D01*
X119300794Y-87042257D01*
X119287400Y-87045149D01*
X119133216Y-87096588D01*
X119120038Y-87102761D01*
X118982193Y-87188063D01*
X118970792Y-87197099D01*
X118856261Y-87311829D01*
X118847249Y-87323240D01*
X118762184Y-87461243D01*
X118756037Y-87474424D01*
X118704862Y-87628710D01*
X118701995Y-87642086D01*
X118692328Y-87736438D01*
X118692000Y-87742855D01*
X118692000Y-87992885D01*
X118108500Y-87992885D01*
X118108500Y-86674594D01*
X118128502Y-86606473D01*
X118145405Y-86585499D01*
X119355499Y-85375405D01*
X119417811Y-85341379D01*
X119444594Y-85338500D01*
X120002857Y-85338500D01*
X120070978Y-85358502D01*
G37*
%TD.AperFunction*%
%TA.AperFunction,Conductor*%
G36*
X122173527Y-82433502D02*
G01*
X122194501Y-82450405D01*
X122519595Y-82775499D01*
X122553621Y-82837811D01*
X122556500Y-82864594D01*
X122556500Y-83117243D01*
X122536498Y-83185364D01*
X122482842Y-83231857D01*
X122412568Y-83241961D01*
X122347988Y-83212467D01*
X122329674Y-83192808D01*
X122315785Y-83174276D01*
X122303224Y-83161715D01*
X122201149Y-83085214D01*
X122185554Y-83076676D01*
X122065106Y-83031522D01*
X122049851Y-83027895D01*
X121998986Y-83022369D01*
X121992172Y-83022000D01*
X121953115Y-83022000D01*
X121937876Y-83026475D01*
X121936671Y-83027865D01*
X121935000Y-83035548D01*
X121935000Y-83421428D01*
X121914998Y-83489549D01*
X121861342Y-83536042D01*
X121822607Y-83546691D01*
X121774607Y-83551905D01*
X121704724Y-83539376D01*
X121652709Y-83491055D01*
X121635000Y-83426642D01*
X121635000Y-83040116D01*
X121630525Y-83024877D01*
X121629135Y-83023672D01*
X121621452Y-83022001D01*
X121577832Y-83022001D01*
X121571024Y-83022370D01*
X121558103Y-83023773D01*
X121488221Y-83011242D01*
X121436207Y-82962919D01*
X121418500Y-82898509D01*
X121418500Y-82539500D01*
X121438502Y-82471379D01*
X121492158Y-82424886D01*
X121544500Y-82413500D01*
X122105406Y-82413500D01*
X122173527Y-82433502D01*
G37*
%TD.AperFunction*%
%TA.AperFunction,Conductor*%
G36*
X87649445Y-62563579D02*
G01*
X87657832Y-62571243D01*
X91556631Y-66470042D01*
X91590657Y-66532354D01*
X91593536Y-66559137D01*
X91593536Y-74080989D01*
X91573534Y-74149110D01*
X91519878Y-74195603D01*
X91467536Y-74206989D01*
X87809000Y-74206989D01*
X87740879Y-74186987D01*
X87694386Y-74133331D01*
X87683000Y-74080989D01*
X87683000Y-73932115D01*
X87678525Y-73916876D01*
X87677135Y-73915671D01*
X87669452Y-73914000D01*
X86547000Y-73914000D01*
X86478879Y-73893998D01*
X86432386Y-73840342D01*
X86421000Y-73788000D01*
X86421000Y-73532000D01*
X86441002Y-73463879D01*
X86494658Y-73417386D01*
X86547000Y-73406000D01*
X87664884Y-73406000D01*
X87680123Y-73401525D01*
X87681328Y-73400135D01*
X87682999Y-73392452D01*
X87682999Y-73137905D01*
X87682662Y-73131386D01*
X87672743Y-73035794D01*
X87669851Y-73022400D01*
X87618412Y-72868216D01*
X87612239Y-72855038D01*
X87526937Y-72717193D01*
X87517901Y-72705792D01*
X87403171Y-72591261D01*
X87391757Y-72582247D01*
X87282267Y-72514757D01*
X87234773Y-72461985D01*
X87223349Y-72391914D01*
X87251623Y-72326790D01*
X87282078Y-72300353D01*
X87303123Y-72287330D01*
X87309348Y-72283478D01*
X87434305Y-72158303D01*
X87459219Y-72117885D01*
X87523275Y-72013968D01*
X87523276Y-72013966D01*
X87527115Y-72007738D01*
X87573512Y-71867855D01*
X87580632Y-71846389D01*
X87580632Y-71846387D01*
X87582797Y-71839861D01*
X87593500Y-71735400D01*
X87593500Y-71134600D01*
X87592141Y-71121500D01*
X87583238Y-71035692D01*
X87583237Y-71035688D01*
X87582526Y-71028834D01*
X87558763Y-70957606D01*
X87528868Y-70868002D01*
X87526550Y-70861054D01*
X87433478Y-70710652D01*
X87308303Y-70585695D01*
X87304084Y-70583094D01*
X87263583Y-70525970D01*
X87260351Y-70455047D01*
X87295976Y-70393635D01*
X87303530Y-70387078D01*
X87309348Y-70383478D01*
X87434305Y-70258303D01*
X87438373Y-70251703D01*
X87523275Y-70113968D01*
X87523276Y-70113966D01*
X87527115Y-70107738D01*
X87564011Y-69996500D01*
X87580632Y-69946389D01*
X87580632Y-69946387D01*
X87582797Y-69939861D01*
X87593500Y-69835400D01*
X87593500Y-69234600D01*
X87592234Y-69222394D01*
X87583238Y-69135692D01*
X87583237Y-69135688D01*
X87582526Y-69128834D01*
X87573556Y-69101946D01*
X87528868Y-68968002D01*
X87526550Y-68961054D01*
X87433478Y-68810652D01*
X87308303Y-68685695D01*
X87302071Y-68681853D01*
X87298326Y-68678896D01*
X87257263Y-68620980D01*
X87254031Y-68550057D01*
X87289656Y-68488645D01*
X87298155Y-68481267D01*
X87303120Y-68477332D01*
X87309348Y-68473478D01*
X87434305Y-68348303D01*
X87527115Y-68197738D01*
X87582797Y-68029861D01*
X87593500Y-67925400D01*
X87593500Y-67324600D01*
X87582526Y-67218834D01*
X87578422Y-67206531D01*
X87528868Y-67058002D01*
X87526550Y-67051054D01*
X87433478Y-66900652D01*
X87308303Y-66775695D01*
X87304084Y-66773094D01*
X87263583Y-66715970D01*
X87260351Y-66645047D01*
X87295976Y-66583635D01*
X87303530Y-66577078D01*
X87309348Y-66573478D01*
X87434305Y-66448303D01*
X87511355Y-66323306D01*
X87523275Y-66303968D01*
X87523276Y-66303966D01*
X87527115Y-66297738D01*
X87556667Y-66208642D01*
X87580632Y-66136389D01*
X87580632Y-66136387D01*
X87582797Y-66129861D01*
X87593500Y-66025400D01*
X87593500Y-65424600D01*
X87582526Y-65318834D01*
X87526550Y-65151054D01*
X87433478Y-65000652D01*
X87308303Y-64875695D01*
X87302071Y-64871853D01*
X87298326Y-64868896D01*
X87257263Y-64810980D01*
X87254031Y-64740057D01*
X87289656Y-64678645D01*
X87298155Y-64671267D01*
X87303120Y-64667332D01*
X87309348Y-64663478D01*
X87434305Y-64538303D01*
X87441825Y-64526104D01*
X87523275Y-64393968D01*
X87523276Y-64393966D01*
X87527115Y-64387738D01*
X87582797Y-64219861D01*
X87593500Y-64115400D01*
X87593500Y-63514600D01*
X87592755Y-63507419D01*
X87583238Y-63415692D01*
X87583237Y-63415688D01*
X87582526Y-63408834D01*
X87526550Y-63241054D01*
X87433478Y-63090652D01*
X87308303Y-62965695D01*
X87304084Y-62963094D01*
X87263583Y-62905970D01*
X87260351Y-62835047D01*
X87295976Y-62773635D01*
X87303530Y-62767078D01*
X87309348Y-62763478D01*
X87434305Y-62638303D01*
X87461477Y-62594222D01*
X87514249Y-62546729D01*
X87584321Y-62535305D01*
X87649445Y-62563579D01*
G37*
%TD.AperFunction*%
%TA.AperFunction,Conductor*%
G36*
X83595989Y-58516542D02*
G01*
X83624533Y-58537944D01*
X85792355Y-60705766D01*
X85826381Y-60768078D01*
X85821316Y-60838893D01*
X85778769Y-60895729D01*
X85731718Y-60917175D01*
X85728834Y-60917474D01*
X85722301Y-60919654D01*
X85722299Y-60919654D01*
X85651427Y-60943299D01*
X85561054Y-60973450D01*
X85410652Y-61066522D01*
X85285695Y-61191697D01*
X85281855Y-61197927D01*
X85281854Y-61197928D01*
X85224246Y-61291386D01*
X85192885Y-61342262D01*
X85137203Y-61510139D01*
X85126500Y-61614600D01*
X85126500Y-62200405D01*
X85106498Y-62268526D01*
X85089595Y-62289500D01*
X84918227Y-62460868D01*
X84909941Y-62468408D01*
X84903462Y-62472520D01*
X84898037Y-62478297D01*
X84856837Y-62522171D01*
X84854082Y-62525013D01*
X84834345Y-62544750D01*
X84831865Y-62547947D01*
X84824162Y-62556967D01*
X84793894Y-62589199D01*
X84790075Y-62596145D01*
X84790073Y-62596148D01*
X84784132Y-62606954D01*
X84773281Y-62623473D01*
X84760866Y-62639479D01*
X84757721Y-62646748D01*
X84757718Y-62646752D01*
X84743306Y-62680057D01*
X84738089Y-62690707D01*
X84716785Y-62729460D01*
X84714814Y-62737135D01*
X84714814Y-62737136D01*
X84711747Y-62749082D01*
X84705343Y-62767786D01*
X84697299Y-62786375D01*
X84696060Y-62794198D01*
X84696057Y-62794208D01*
X84690381Y-62830044D01*
X84687975Y-62841664D01*
X84678952Y-62876809D01*
X84676980Y-62884490D01*
X84676980Y-62904744D01*
X84675429Y-62924454D01*
X84672260Y-62944463D01*
X84673006Y-62952355D01*
X84676421Y-62988481D01*
X84676980Y-63000339D01*
X84676980Y-63507419D01*
X84656978Y-63575540D01*
X84640075Y-63596514D01*
X83630379Y-64606210D01*
X83568067Y-64640236D01*
X83497252Y-64635171D01*
X83440416Y-64592624D01*
X83415605Y-64526104D01*
X83415940Y-64504273D01*
X83422672Y-64438562D01*
X83423000Y-64432146D01*
X83423000Y-64407115D01*
X83418525Y-64391876D01*
X83417135Y-64390671D01*
X83409452Y-64389000D01*
X82187115Y-64389000D01*
X82171876Y-64393475D01*
X82170671Y-64394865D01*
X82169000Y-64402548D01*
X82169000Y-65533000D01*
X82148998Y-65601121D01*
X82095342Y-65647614D01*
X82043000Y-65659000D01*
X81787000Y-65659000D01*
X81718879Y-65638998D01*
X81672386Y-65585342D01*
X81661000Y-65533000D01*
X81661000Y-63862885D01*
X82169000Y-63862885D01*
X82173475Y-63878124D01*
X82174865Y-63879329D01*
X82182548Y-63881000D01*
X83404884Y-63881000D01*
X83420123Y-63876525D01*
X83421328Y-63875135D01*
X83422999Y-63867452D01*
X83422999Y-63837905D01*
X83422662Y-63831386D01*
X83412743Y-63735794D01*
X83409851Y-63722400D01*
X83358409Y-63568208D01*
X83351506Y-63553472D01*
X83340720Y-63483299D01*
X83351412Y-63446768D01*
X83358963Y-63430576D01*
X83410138Y-63276290D01*
X83413005Y-63262914D01*
X83422672Y-63168562D01*
X83423000Y-63162146D01*
X83423000Y-63137115D01*
X83418525Y-63121876D01*
X83417135Y-63120671D01*
X83409452Y-63119000D01*
X82187115Y-63119000D01*
X82171876Y-63123475D01*
X82170671Y-63124865D01*
X82169000Y-63132548D01*
X82169000Y-63862885D01*
X81661000Y-63862885D01*
X81661000Y-62592885D01*
X82169000Y-62592885D01*
X82173475Y-62608124D01*
X82174865Y-62609329D01*
X82182548Y-62611000D01*
X83404884Y-62611000D01*
X83420123Y-62606525D01*
X83421328Y-62605135D01*
X83422999Y-62597452D01*
X83422999Y-62567905D01*
X83422662Y-62561386D01*
X83412743Y-62465794D01*
X83409851Y-62452400D01*
X83358409Y-62298208D01*
X83351506Y-62283472D01*
X83340720Y-62213299D01*
X83351412Y-62176768D01*
X83358963Y-62160576D01*
X83410138Y-62006290D01*
X83413005Y-61992914D01*
X83422672Y-61898562D01*
X83423000Y-61892146D01*
X83423000Y-61867115D01*
X83418525Y-61851876D01*
X83417135Y-61850671D01*
X83409452Y-61849000D01*
X82187115Y-61849000D01*
X82171876Y-61853475D01*
X82170671Y-61854865D01*
X82169000Y-61862548D01*
X82169000Y-62592885D01*
X81661000Y-62592885D01*
X81661000Y-61322885D01*
X82169000Y-61322885D01*
X82173475Y-61338124D01*
X82174865Y-61339329D01*
X82182548Y-61341000D01*
X83404884Y-61341000D01*
X83420123Y-61336525D01*
X83421328Y-61335135D01*
X83422999Y-61327452D01*
X83422999Y-61297905D01*
X83422662Y-61291386D01*
X83412743Y-61195794D01*
X83409851Y-61182400D01*
X83358409Y-61028208D01*
X83351506Y-61013472D01*
X83340720Y-60943299D01*
X83351412Y-60906768D01*
X83358963Y-60890576D01*
X83410138Y-60736290D01*
X83413005Y-60722914D01*
X83422672Y-60628562D01*
X83423000Y-60622146D01*
X83423000Y-60597115D01*
X83418525Y-60581876D01*
X83417135Y-60580671D01*
X83409452Y-60579000D01*
X82187115Y-60579000D01*
X82171876Y-60583475D01*
X82170671Y-60584865D01*
X82169000Y-60592548D01*
X82169000Y-61322885D01*
X81661000Y-61322885D01*
X81661000Y-60052885D01*
X82169000Y-60052885D01*
X82173475Y-60068124D01*
X82174865Y-60069329D01*
X82182548Y-60071000D01*
X83404884Y-60071000D01*
X83420123Y-60066525D01*
X83421328Y-60065135D01*
X83422999Y-60057452D01*
X83422999Y-60027905D01*
X83422662Y-60021386D01*
X83412743Y-59925794D01*
X83409851Y-59912400D01*
X83358409Y-59758208D01*
X83351506Y-59743472D01*
X83340720Y-59673299D01*
X83351412Y-59636768D01*
X83358963Y-59620576D01*
X83410138Y-59466290D01*
X83413005Y-59452914D01*
X83422672Y-59358562D01*
X83423000Y-59352146D01*
X83423000Y-59327115D01*
X83418525Y-59311876D01*
X83417135Y-59310671D01*
X83409452Y-59309000D01*
X82187115Y-59309000D01*
X82171876Y-59313475D01*
X82170671Y-59314865D01*
X82169000Y-59322548D01*
X82169000Y-60052885D01*
X81661000Y-60052885D01*
X81661000Y-58927000D01*
X81681002Y-58858879D01*
X81734658Y-58812386D01*
X81787000Y-58801000D01*
X83404884Y-58801000D01*
X83420123Y-58796525D01*
X83421328Y-58795135D01*
X83422999Y-58787452D01*
X83422999Y-58757905D01*
X83422662Y-58751386D01*
X83412744Y-58655799D01*
X83412277Y-58653637D01*
X83412377Y-58652265D01*
X83412032Y-58648937D01*
X83412625Y-58648875D01*
X83417449Y-58582829D01*
X83460081Y-58526057D01*
X83526638Y-58501347D01*
X83595989Y-58516542D01*
G37*
%TD.AperFunction*%
%TD*%
M02*
