%TF.GenerationSoftware,KiCad,Pcbnew,(6.0.2)*%
%TF.CreationDate,2023-04-19T08:06:41-04:00*%
%TF.ProjectId,skydiving-altimeter,736b7964-6976-4696-9e67-2d616c74696d,rev?*%
%TF.SameCoordinates,Original*%
%TF.FileFunction,Copper,L2,Bot*%
%TF.FilePolarity,Positive*%
%FSLAX46Y46*%
G04 Gerber Fmt 4.6, Leading zero omitted, Abs format (unit mm)*
G04 Created by KiCad (PCBNEW (6.0.2)) date 2023-04-19 08:06:41*
%MOMM*%
%LPD*%
G01*
G04 APERTURE LIST*
%TA.AperFunction,ComponentPad*%
%ADD10R,1.700000X1.700000*%
%TD*%
%TA.AperFunction,ComponentPad*%
%ADD11O,1.700000X1.700000*%
%TD*%
%TA.AperFunction,ComponentPad*%
%ADD12R,1.308000X1.308000*%
%TD*%
%TA.AperFunction,ComponentPad*%
%ADD13C,1.308000*%
%TD*%
%TA.AperFunction,ViaPad*%
%ADD14C,0.800000*%
%TD*%
%TA.AperFunction,Conductor*%
%ADD15C,0.250000*%
%TD*%
G04 APERTURE END LIST*
D10*
%TO.P,J3,1,Pin_1*%
%TO.N,GND*%
X109220000Y-121285000D03*
D11*
%TO.P,J3,2,Pin_2*%
%TO.N,/LED_DI*%
X111760000Y-121285000D03*
%TO.P,J3,3,Pin_3*%
%TO.N,+5V*%
X114300000Y-121285000D03*
%TD*%
D12*
%TO.P,J2,1,Pin_1*%
%TO.N,/Power/VIN*%
X116824000Y-84762500D03*
D13*
%TO.P,J2,2,Pin_2*%
%TO.N,GND*%
X114824000Y-84762500D03*
%TD*%
D14*
%TO.N,GND*%
X117475000Y-111125000D03*
X120305000Y-110780000D03*
X121920000Y-100965000D03*
X126365000Y-104140000D03*
X107823000Y-95758000D03*
X116205000Y-111125000D03*
X116205000Y-113665000D03*
X129540000Y-99695000D03*
X109220000Y-114300000D03*
X109220000Y-110490000D03*
X120015000Y-114935000D03*
X121920000Y-121412000D03*
%TO.N,/STM_32/SWDIO*%
X124460000Y-112395000D03*
X121920000Y-88900000D03*
%TO.N,/STM_32/SWCLK*%
X120015000Y-107315000D03*
X120015000Y-89535000D03*
%TO.N,+5V*%
X117475000Y-99695000D03*
%TO.N,/LED_DI*%
X111760000Y-116840000D03*
%TO.N,/Baro Sensor/SCL*%
X121285000Y-104775000D03*
X123190000Y-102870000D03*
X118745000Y-104775000D03*
X125730000Y-102870000D03*
%TO.N,/Baro Sensor/SDA*%
X127635000Y-104775000D03*
X117475000Y-103505000D03*
%TD*%
D15*
%TO.N,GND*%
X126365000Y-104140000D02*
X123435386Y-104140000D01*
X123435386Y-104140000D02*
X121920000Y-102624614D01*
X121920000Y-102624614D02*
X121920000Y-100965000D01*
%TO.N,/STM_32/SWDIO*%
X128359511Y-95339511D02*
X128359511Y-108495489D01*
X121920000Y-88900000D02*
X128359511Y-95339511D01*
X128359511Y-108495489D02*
X124460000Y-112395000D01*
%TO.N,/STM_32/SWCLK*%
X116750489Y-103204897D02*
X116750489Y-104685489D01*
X120015000Y-99940386D02*
X116750489Y-103204897D01*
X120015000Y-89535000D02*
X120015000Y-99940386D01*
X116750489Y-104685489D02*
X119380000Y-107315000D01*
X119380000Y-107315000D02*
X120015000Y-107315000D01*
%TO.N,+5V*%
X114300000Y-102870000D02*
X114300000Y-121285000D01*
X117475000Y-99695000D02*
X114300000Y-102870000D01*
%TO.N,/LED_DI*%
X111760000Y-116840000D02*
X111760000Y-121285000D01*
%TO.N,/Baro Sensor/SCL*%
X121285000Y-104775000D02*
X118745000Y-104775000D01*
X125730000Y-102870000D02*
X123190000Y-102870000D01*
%TO.N,/Baro Sensor/SDA*%
X117475000Y-104529614D02*
X117475000Y-103505000D01*
X127635000Y-104775000D02*
X126910489Y-105499511D01*
X126910489Y-105499511D02*
X118444897Y-105499511D01*
X118444897Y-105499511D02*
X117475000Y-104529614D01*
%TD*%
%TA.AperFunction,Conductor*%
%TO.N,GND*%
G36*
X130244121Y-78643002D02*
G01*
X130290614Y-78696658D01*
X130302000Y-78749000D01*
X130302000Y-122556000D01*
X130281998Y-122624121D01*
X130228342Y-122670614D01*
X130176000Y-122682000D01*
X115074632Y-122682000D01*
X115006511Y-122661998D01*
X114960018Y-122608342D01*
X114949914Y-122538068D01*
X114979408Y-122473488D01*
X115001464Y-122453421D01*
X115026618Y-122435479D01*
X115179860Y-122326173D01*
X115338096Y-122168489D01*
X115350775Y-122150845D01*
X115465435Y-121991277D01*
X115468453Y-121987077D01*
X115489320Y-121944857D01*
X115565136Y-121791453D01*
X115565137Y-121791451D01*
X115567430Y-121786811D01*
X115632370Y-121573069D01*
X115661529Y-121351590D01*
X115663156Y-121285000D01*
X115644852Y-121062361D01*
X115590431Y-120845702D01*
X115501354Y-120640840D01*
X115416063Y-120509000D01*
X115382822Y-120457617D01*
X115382820Y-120457614D01*
X115380014Y-120453277D01*
X115229670Y-120288051D01*
X115225619Y-120284852D01*
X115225615Y-120284848D01*
X115058414Y-120152800D01*
X115058410Y-120152798D01*
X115054359Y-120149598D01*
X115049835Y-120147101D01*
X115049831Y-120147098D01*
X114998608Y-120118822D01*
X114948636Y-120068390D01*
X114933500Y-120008513D01*
X114933500Y-119888000D01*
X125245155Y-119888000D01*
X125245425Y-119892119D01*
X125262511Y-120152800D01*
X125264514Y-120183361D01*
X125265316Y-120187394D01*
X125265317Y-120187400D01*
X125313853Y-120431403D01*
X125322260Y-120473667D01*
X125323587Y-120477576D01*
X125323588Y-120477580D01*
X125367363Y-120606538D01*
X125417404Y-120753953D01*
X125459555Y-120839427D01*
X125520793Y-120963604D01*
X125548319Y-121019422D01*
X125712764Y-121265533D01*
X125715478Y-121268627D01*
X125715482Y-121268633D01*
X125896212Y-121474715D01*
X125907927Y-121488073D01*
X125911016Y-121490782D01*
X126127367Y-121680518D01*
X126127373Y-121680522D01*
X126130467Y-121683236D01*
X126376577Y-121847681D01*
X126380276Y-121849505D01*
X126380281Y-121849508D01*
X126481891Y-121899616D01*
X126642047Y-121978596D01*
X126645952Y-121979921D01*
X126645953Y-121979922D01*
X126918420Y-122072412D01*
X126918424Y-122072413D01*
X126922333Y-122073740D01*
X126926377Y-122074544D01*
X126926383Y-122074546D01*
X127208600Y-122130683D01*
X127208606Y-122130684D01*
X127212639Y-122131486D01*
X127216744Y-122131755D01*
X127216751Y-122131756D01*
X127503881Y-122150575D01*
X127508000Y-122150845D01*
X127512119Y-122150575D01*
X127799249Y-122131756D01*
X127799256Y-122131755D01*
X127803361Y-122131486D01*
X127807394Y-122130684D01*
X127807400Y-122130683D01*
X128089617Y-122074546D01*
X128089623Y-122074544D01*
X128093667Y-122073740D01*
X128097576Y-122072413D01*
X128097580Y-122072412D01*
X128370047Y-121979922D01*
X128370048Y-121979921D01*
X128373953Y-121978596D01*
X128534109Y-121899616D01*
X128635719Y-121849508D01*
X128635724Y-121849505D01*
X128639423Y-121847681D01*
X128885533Y-121683236D01*
X128888627Y-121680522D01*
X128888633Y-121680518D01*
X129104984Y-121490782D01*
X129108073Y-121488073D01*
X129119788Y-121474715D01*
X129300518Y-121268633D01*
X129300522Y-121268627D01*
X129303236Y-121265533D01*
X129467681Y-121019422D01*
X129495208Y-120963604D01*
X129556445Y-120839427D01*
X129598596Y-120753953D01*
X129648637Y-120606538D01*
X129692412Y-120477580D01*
X129692413Y-120477576D01*
X129693740Y-120473667D01*
X129702147Y-120431403D01*
X129750683Y-120187400D01*
X129750684Y-120187394D01*
X129751486Y-120183361D01*
X129753490Y-120152800D01*
X129770575Y-119892119D01*
X129770845Y-119888000D01*
X129769609Y-119869147D01*
X129751756Y-119596751D01*
X129751755Y-119596744D01*
X129751486Y-119592639D01*
X129693740Y-119302333D01*
X129598596Y-119022047D01*
X129536712Y-118896558D01*
X129469508Y-118760282D01*
X129469505Y-118760277D01*
X129467681Y-118756578D01*
X129303236Y-118510467D01*
X129300522Y-118507373D01*
X129300518Y-118507367D01*
X129110782Y-118291016D01*
X129108073Y-118287927D01*
X129104984Y-118285218D01*
X128888633Y-118095482D01*
X128888627Y-118095478D01*
X128885533Y-118092764D01*
X128639423Y-117928319D01*
X128635724Y-117926495D01*
X128635719Y-117926492D01*
X128499574Y-117859353D01*
X128373953Y-117797404D01*
X128370047Y-117796078D01*
X128097580Y-117703588D01*
X128097576Y-117703587D01*
X128093667Y-117702260D01*
X128089623Y-117701456D01*
X128089617Y-117701454D01*
X127807400Y-117645317D01*
X127807394Y-117645316D01*
X127803361Y-117644514D01*
X127799256Y-117644245D01*
X127799249Y-117644244D01*
X127512119Y-117625425D01*
X127508000Y-117625155D01*
X127503881Y-117625425D01*
X127216751Y-117644244D01*
X127216744Y-117644245D01*
X127212639Y-117644514D01*
X127208606Y-117645316D01*
X127208600Y-117645317D01*
X126926383Y-117701454D01*
X126926377Y-117701456D01*
X126922333Y-117702260D01*
X126918424Y-117703587D01*
X126918420Y-117703588D01*
X126645953Y-117796078D01*
X126642047Y-117797404D01*
X126516558Y-117859288D01*
X126380282Y-117926492D01*
X126380277Y-117926495D01*
X126376578Y-117928319D01*
X126130467Y-118092764D01*
X126127373Y-118095478D01*
X126127367Y-118095482D01*
X125911016Y-118285218D01*
X125907927Y-118287927D01*
X125905218Y-118291016D01*
X125715482Y-118507367D01*
X125715478Y-118507373D01*
X125712764Y-118510467D01*
X125548319Y-118756578D01*
X125546495Y-118760277D01*
X125546492Y-118760282D01*
X125479288Y-118896558D01*
X125417404Y-119022047D01*
X125322260Y-119302333D01*
X125264514Y-119592639D01*
X125264245Y-119596744D01*
X125264244Y-119596751D01*
X125246391Y-119869147D01*
X125245155Y-119888000D01*
X114933500Y-119888000D01*
X114933500Y-103184840D01*
X116112269Y-103184840D01*
X116113015Y-103192732D01*
X116116430Y-103228858D01*
X116116989Y-103240716D01*
X116116989Y-104606722D01*
X116116462Y-104617905D01*
X116114787Y-104625398D01*
X116115036Y-104633324D01*
X116115036Y-104633325D01*
X116116927Y-104693475D01*
X116116989Y-104697434D01*
X116116989Y-104725345D01*
X116117486Y-104729279D01*
X116117486Y-104729280D01*
X116117494Y-104729345D01*
X116118427Y-104741182D01*
X116119816Y-104785378D01*
X116125467Y-104804828D01*
X116129476Y-104824189D01*
X116132015Y-104844286D01*
X116134934Y-104851657D01*
X116134934Y-104851659D01*
X116148293Y-104885401D01*
X116152138Y-104896631D01*
X116164471Y-104939082D01*
X116168504Y-104945901D01*
X116168506Y-104945906D01*
X116174782Y-104956517D01*
X116183477Y-104974265D01*
X116190937Y-104993106D01*
X116195599Y-104999522D01*
X116195599Y-104999523D01*
X116216925Y-105028876D01*
X116223441Y-105038796D01*
X116245947Y-105076851D01*
X116260268Y-105091172D01*
X116273108Y-105106205D01*
X116285017Y-105122596D01*
X116291123Y-105127647D01*
X116319094Y-105150787D01*
X116327873Y-105158777D01*
X118876348Y-107707253D01*
X118883888Y-107715539D01*
X118888000Y-107722018D01*
X118893777Y-107727443D01*
X118937651Y-107768643D01*
X118940493Y-107771398D01*
X118960230Y-107791135D01*
X118963427Y-107793615D01*
X118972447Y-107801318D01*
X119004679Y-107831586D01*
X119011625Y-107835405D01*
X119011628Y-107835407D01*
X119022434Y-107841348D01*
X119038953Y-107852199D01*
X119054959Y-107864614D01*
X119062228Y-107867759D01*
X119062232Y-107867762D01*
X119095537Y-107882174D01*
X119106187Y-107887391D01*
X119144940Y-107908695D01*
X119152615Y-107910666D01*
X119152616Y-107910666D01*
X119164562Y-107913733D01*
X119183267Y-107920137D01*
X119201855Y-107928181D01*
X119209678Y-107929420D01*
X119209688Y-107929423D01*
X119245524Y-107935099D01*
X119257144Y-107937505D01*
X119292289Y-107946528D01*
X119299970Y-107948500D01*
X119307899Y-107948500D01*
X119315760Y-107949493D01*
X119315561Y-107951072D01*
X119374921Y-107968502D01*
X119394146Y-107984843D01*
X119394420Y-107984539D01*
X119399328Y-107988959D01*
X119403747Y-107993866D01*
X119558248Y-108106118D01*
X119564276Y-108108802D01*
X119564278Y-108108803D01*
X119726198Y-108180894D01*
X119732712Y-108183794D01*
X119826112Y-108203647D01*
X119913056Y-108222128D01*
X119913061Y-108222128D01*
X119919513Y-108223500D01*
X120110487Y-108223500D01*
X120116939Y-108222128D01*
X120116944Y-108222128D01*
X120203888Y-108203647D01*
X120297288Y-108183794D01*
X120303802Y-108180894D01*
X120465722Y-108108803D01*
X120465724Y-108108802D01*
X120471752Y-108106118D01*
X120626253Y-107993866D01*
X120677001Y-107937505D01*
X120749621Y-107856852D01*
X120749622Y-107856851D01*
X120754040Y-107851944D01*
X120849527Y-107686556D01*
X120908542Y-107504928D01*
X120928504Y-107315000D01*
X120908542Y-107125072D01*
X120849527Y-106943444D01*
X120754040Y-106778056D01*
X120626253Y-106636134D01*
X120471752Y-106523882D01*
X120465724Y-106521198D01*
X120465722Y-106521197D01*
X120303319Y-106448891D01*
X120303318Y-106448891D01*
X120297288Y-106446206D01*
X120203887Y-106426353D01*
X120116944Y-106407872D01*
X120116939Y-106407872D01*
X120110487Y-106406500D01*
X119919513Y-106406500D01*
X119913061Y-106407872D01*
X119913056Y-106407872D01*
X119826113Y-106426353D01*
X119732712Y-106446206D01*
X119586528Y-106511291D01*
X119516162Y-106520725D01*
X119451865Y-106490619D01*
X119446185Y-106485279D01*
X119309012Y-106348106D01*
X119274986Y-106285794D01*
X119280051Y-106214979D01*
X119322598Y-106158143D01*
X119389118Y-106133332D01*
X119398107Y-106133011D01*
X126831722Y-106133011D01*
X126842905Y-106133538D01*
X126850398Y-106135213D01*
X126858324Y-106134964D01*
X126858325Y-106134964D01*
X126918475Y-106133073D01*
X126922434Y-106133011D01*
X126950345Y-106133011D01*
X126954280Y-106132514D01*
X126954345Y-106132506D01*
X126966182Y-106131573D01*
X126998440Y-106130559D01*
X127002459Y-106130433D01*
X127010378Y-106130184D01*
X127029832Y-106124532D01*
X127049189Y-106120524D01*
X127061419Y-106118979D01*
X127061420Y-106118979D01*
X127069286Y-106117985D01*
X127076657Y-106115066D01*
X127076659Y-106115066D01*
X127110401Y-106101707D01*
X127121631Y-106097862D01*
X127156472Y-106087740D01*
X127156473Y-106087740D01*
X127164082Y-106085529D01*
X127170901Y-106081496D01*
X127170906Y-106081494D01*
X127181517Y-106075218D01*
X127199265Y-106066523D01*
X127218106Y-106059063D01*
X127253876Y-106033075D01*
X127263796Y-106026559D01*
X127295024Y-106008091D01*
X127295027Y-106008089D01*
X127301851Y-106004053D01*
X127316172Y-105989732D01*
X127331206Y-105976891D01*
X127341183Y-105969642D01*
X127347596Y-105964983D01*
X127375787Y-105930906D01*
X127383777Y-105922127D01*
X127510916Y-105794988D01*
X127573228Y-105760962D01*
X127644043Y-105766027D01*
X127700879Y-105808574D01*
X127725690Y-105875094D01*
X127726011Y-105884083D01*
X127726011Y-108180894D01*
X127706009Y-108249015D01*
X127689106Y-108269989D01*
X124509500Y-111449595D01*
X124447188Y-111483621D01*
X124420405Y-111486500D01*
X124364513Y-111486500D01*
X124358061Y-111487872D01*
X124358056Y-111487872D01*
X124271112Y-111506353D01*
X124177712Y-111526206D01*
X124171682Y-111528891D01*
X124171681Y-111528891D01*
X124009278Y-111601197D01*
X124009276Y-111601198D01*
X124003248Y-111603882D01*
X123848747Y-111716134D01*
X123720960Y-111858056D01*
X123625473Y-112023444D01*
X123566458Y-112205072D01*
X123546496Y-112395000D01*
X123566458Y-112584928D01*
X123625473Y-112766556D01*
X123720960Y-112931944D01*
X123848747Y-113073866D01*
X124003248Y-113186118D01*
X124009276Y-113188802D01*
X124009278Y-113188803D01*
X124171681Y-113261109D01*
X124177712Y-113263794D01*
X124271112Y-113283647D01*
X124358056Y-113302128D01*
X124358061Y-113302128D01*
X124364513Y-113303500D01*
X124555487Y-113303500D01*
X124561939Y-113302128D01*
X124561944Y-113302128D01*
X124648887Y-113283647D01*
X124742288Y-113263794D01*
X124748319Y-113261109D01*
X124910722Y-113188803D01*
X124910724Y-113188802D01*
X124916752Y-113186118D01*
X125071253Y-113073866D01*
X125199040Y-112931944D01*
X125294527Y-112766556D01*
X125353542Y-112584928D01*
X125370907Y-112419706D01*
X125397920Y-112354050D01*
X125407122Y-112343782D01*
X128751758Y-108999146D01*
X128760048Y-108991602D01*
X128766529Y-108987489D01*
X128813170Y-108937821D01*
X128815924Y-108934980D01*
X128835645Y-108915259D01*
X128838123Y-108912064D01*
X128845829Y-108903042D01*
X128870669Y-108876590D01*
X128876097Y-108870810D01*
X128885857Y-108853057D01*
X128896710Y-108836534D01*
X128904264Y-108826795D01*
X128909124Y-108820530D01*
X128926687Y-108779946D01*
X128931894Y-108769316D01*
X128953206Y-108730549D01*
X128955177Y-108722872D01*
X128955179Y-108722867D01*
X128958243Y-108710931D01*
X128964649Y-108692219D01*
X128969545Y-108680906D01*
X128972692Y-108673634D01*
X128979608Y-108629970D01*
X128982015Y-108618349D01*
X128991039Y-108583200D01*
X128991039Y-108583199D01*
X128993011Y-108575519D01*
X128993011Y-108555258D01*
X128994562Y-108535547D01*
X128996490Y-108523374D01*
X128997730Y-108515546D01*
X128993570Y-108471535D01*
X128993011Y-108459678D01*
X128993011Y-95418278D01*
X128993538Y-95407095D01*
X128995213Y-95399602D01*
X128993073Y-95331511D01*
X128993011Y-95327554D01*
X128993011Y-95299655D01*
X128992507Y-95295664D01*
X128991574Y-95283822D01*
X128990434Y-95247547D01*
X128990185Y-95239622D01*
X128987973Y-95232008D01*
X128987972Y-95232003D01*
X128984534Y-95220170D01*
X128980523Y-95200806D01*
X128978978Y-95188575D01*
X128977985Y-95180714D01*
X128975068Y-95173347D01*
X128975067Y-95173342D01*
X128961709Y-95139603D01*
X128957865Y-95128376D01*
X128947741Y-95093533D01*
X128945529Y-95085918D01*
X128935218Y-95068483D01*
X128926523Y-95050735D01*
X128919063Y-95031894D01*
X128893075Y-94996124D01*
X128886559Y-94986204D01*
X128868091Y-94954976D01*
X128868089Y-94954973D01*
X128864053Y-94948149D01*
X128849732Y-94933828D01*
X128836891Y-94918794D01*
X128829642Y-94908817D01*
X128824983Y-94902404D01*
X128790906Y-94874213D01*
X128782127Y-94866223D01*
X122867122Y-88951217D01*
X122833096Y-88888905D01*
X122830907Y-88875292D01*
X122828894Y-88856134D01*
X122824977Y-88818866D01*
X122814232Y-88716635D01*
X122814232Y-88716633D01*
X122813542Y-88710072D01*
X122754527Y-88528444D01*
X122659040Y-88363056D01*
X122531253Y-88221134D01*
X122376752Y-88108882D01*
X122370724Y-88106198D01*
X122370722Y-88106197D01*
X122208319Y-88033891D01*
X122208318Y-88033891D01*
X122202288Y-88031206D01*
X122108887Y-88011353D01*
X122021944Y-87992872D01*
X122021939Y-87992872D01*
X122015487Y-87991500D01*
X121824513Y-87991500D01*
X121818061Y-87992872D01*
X121818056Y-87992872D01*
X121731113Y-88011353D01*
X121637712Y-88031206D01*
X121631682Y-88033891D01*
X121631681Y-88033891D01*
X121469278Y-88106197D01*
X121469276Y-88106198D01*
X121463248Y-88108882D01*
X121308747Y-88221134D01*
X121180960Y-88363056D01*
X121085473Y-88528444D01*
X121026458Y-88710072D01*
X121025768Y-88716633D01*
X121025768Y-88716635D01*
X121011515Y-88852251D01*
X121006496Y-88900000D01*
X121007186Y-88906565D01*
X121013320Y-88964930D01*
X121000547Y-89034768D01*
X120952045Y-89086615D01*
X120883212Y-89104009D01*
X120815903Y-89081427D01*
X120778893Y-89041102D01*
X120754040Y-88998056D01*
X120626253Y-88856134D01*
X120471752Y-88743882D01*
X120465724Y-88741198D01*
X120465722Y-88741197D01*
X120303319Y-88668891D01*
X120303318Y-88668891D01*
X120297288Y-88666206D01*
X120203887Y-88646353D01*
X120116944Y-88627872D01*
X120116939Y-88627872D01*
X120110487Y-88626500D01*
X119919513Y-88626500D01*
X119913061Y-88627872D01*
X119913056Y-88627872D01*
X119826113Y-88646353D01*
X119732712Y-88666206D01*
X119726682Y-88668891D01*
X119726681Y-88668891D01*
X119564278Y-88741197D01*
X119564276Y-88741198D01*
X119558248Y-88743882D01*
X119403747Y-88856134D01*
X119275960Y-88998056D01*
X119180473Y-89163444D01*
X119121458Y-89345072D01*
X119120768Y-89351633D01*
X119120768Y-89351635D01*
X119112403Y-89431229D01*
X119101496Y-89535000D01*
X119102186Y-89541565D01*
X119118187Y-89693803D01*
X119121458Y-89724928D01*
X119180473Y-89906556D01*
X119275960Y-90071944D01*
X119349137Y-90153215D01*
X119379853Y-90217221D01*
X119381500Y-90237524D01*
X119381500Y-99625792D01*
X119361498Y-99693913D01*
X119344595Y-99714887D01*
X116358236Y-102701245D01*
X116349950Y-102708785D01*
X116343471Y-102712897D01*
X116338046Y-102718674D01*
X116296846Y-102762548D01*
X116294091Y-102765390D01*
X116274354Y-102785127D01*
X116271874Y-102788324D01*
X116264171Y-102797344D01*
X116233903Y-102829576D01*
X116230084Y-102836522D01*
X116230082Y-102836525D01*
X116224141Y-102847331D01*
X116213290Y-102863850D01*
X116200875Y-102879856D01*
X116197730Y-102887125D01*
X116197727Y-102887129D01*
X116183315Y-102920434D01*
X116178098Y-102931084D01*
X116156794Y-102969837D01*
X116154823Y-102977512D01*
X116154823Y-102977513D01*
X116151756Y-102989459D01*
X116145352Y-103008163D01*
X116137308Y-103026752D01*
X116136069Y-103034575D01*
X116136066Y-103034585D01*
X116130390Y-103070421D01*
X116127984Y-103082041D01*
X116116989Y-103124867D01*
X116116989Y-103145121D01*
X116115438Y-103164831D01*
X116112269Y-103184840D01*
X114933500Y-103184840D01*
X114933500Y-103184594D01*
X114953502Y-103116473D01*
X114970405Y-103095499D01*
X117425500Y-100640405D01*
X117487812Y-100606379D01*
X117514595Y-100603500D01*
X117570487Y-100603500D01*
X117576939Y-100602128D01*
X117576944Y-100602128D01*
X117663887Y-100583647D01*
X117757288Y-100563794D01*
X117763319Y-100561109D01*
X117925722Y-100488803D01*
X117925724Y-100488802D01*
X117931752Y-100486118D01*
X118086253Y-100373866D01*
X118138620Y-100315707D01*
X118209621Y-100236852D01*
X118209622Y-100236851D01*
X118214040Y-100231944D01*
X118309527Y-100066556D01*
X118368542Y-99884928D01*
X118388504Y-99695000D01*
X118368542Y-99505072D01*
X118309527Y-99323444D01*
X118214040Y-99158056D01*
X118086253Y-99016134D01*
X117931752Y-98903882D01*
X117925724Y-98901198D01*
X117925722Y-98901197D01*
X117763319Y-98828891D01*
X117763318Y-98828891D01*
X117757288Y-98826206D01*
X117663888Y-98806353D01*
X117576944Y-98787872D01*
X117576939Y-98787872D01*
X117570487Y-98786500D01*
X117379513Y-98786500D01*
X117373061Y-98787872D01*
X117373056Y-98787872D01*
X117286113Y-98806353D01*
X117192712Y-98826206D01*
X117186682Y-98828891D01*
X117186681Y-98828891D01*
X117024278Y-98901197D01*
X117024276Y-98901198D01*
X117018248Y-98903882D01*
X116863747Y-99016134D01*
X116735960Y-99158056D01*
X116640473Y-99323444D01*
X116581458Y-99505072D01*
X116580768Y-99511633D01*
X116580768Y-99511635D01*
X116564093Y-99670293D01*
X116537080Y-99735950D01*
X116527878Y-99746218D01*
X113907747Y-102366348D01*
X113899461Y-102373888D01*
X113892982Y-102378000D01*
X113887557Y-102383777D01*
X113846357Y-102427651D01*
X113843602Y-102430493D01*
X113823865Y-102450230D01*
X113821385Y-102453427D01*
X113813682Y-102462447D01*
X113783414Y-102494679D01*
X113779595Y-102501625D01*
X113779593Y-102501628D01*
X113773652Y-102512434D01*
X113762801Y-102528953D01*
X113750386Y-102544959D01*
X113747241Y-102552228D01*
X113747238Y-102552232D01*
X113732826Y-102585537D01*
X113727609Y-102596187D01*
X113706305Y-102634940D01*
X113704334Y-102642615D01*
X113704334Y-102642616D01*
X113701267Y-102654562D01*
X113694863Y-102673266D01*
X113686819Y-102691855D01*
X113685580Y-102699678D01*
X113685577Y-102699688D01*
X113679901Y-102735524D01*
X113677495Y-102747144D01*
X113673174Y-102763976D01*
X113666500Y-102789970D01*
X113666500Y-102810224D01*
X113664949Y-102829934D01*
X113661780Y-102849943D01*
X113662526Y-102857835D01*
X113665941Y-102893961D01*
X113666500Y-102905819D01*
X113666500Y-120006692D01*
X113646498Y-120074813D01*
X113598683Y-120118453D01*
X113573607Y-120131507D01*
X113569474Y-120134610D01*
X113569471Y-120134612D01*
X113499164Y-120187400D01*
X113394965Y-120265635D01*
X113240629Y-120427138D01*
X113133201Y-120584621D01*
X113078293Y-120629621D01*
X113007768Y-120637792D01*
X112944021Y-120606538D01*
X112923324Y-120582054D01*
X112842822Y-120457617D01*
X112842820Y-120457614D01*
X112840014Y-120453277D01*
X112689670Y-120288051D01*
X112685619Y-120284852D01*
X112685615Y-120284848D01*
X112518414Y-120152800D01*
X112518410Y-120152798D01*
X112514359Y-120149598D01*
X112509835Y-120147101D01*
X112509831Y-120147098D01*
X112458608Y-120118822D01*
X112408636Y-120068390D01*
X112393500Y-120008513D01*
X112393500Y-117542524D01*
X112413502Y-117474403D01*
X112425858Y-117458221D01*
X112499040Y-117376944D01*
X112594527Y-117211556D01*
X112653542Y-117029928D01*
X112673504Y-116840000D01*
X112653542Y-116650072D01*
X112594527Y-116468444D01*
X112499040Y-116303056D01*
X112371253Y-116161134D01*
X112216752Y-116048882D01*
X112210724Y-116046198D01*
X112210722Y-116046197D01*
X112048319Y-115973891D01*
X112048318Y-115973891D01*
X112042288Y-115971206D01*
X111948888Y-115951353D01*
X111861944Y-115932872D01*
X111861939Y-115932872D01*
X111855487Y-115931500D01*
X111664513Y-115931500D01*
X111658061Y-115932872D01*
X111658056Y-115932872D01*
X111571112Y-115951353D01*
X111477712Y-115971206D01*
X111471682Y-115973891D01*
X111471681Y-115973891D01*
X111309278Y-116046197D01*
X111309276Y-116046198D01*
X111303248Y-116048882D01*
X111148747Y-116161134D01*
X111020960Y-116303056D01*
X110925473Y-116468444D01*
X110866458Y-116650072D01*
X110846496Y-116840000D01*
X110866458Y-117029928D01*
X110925473Y-117211556D01*
X111020960Y-117376944D01*
X111094137Y-117458215D01*
X111124853Y-117522221D01*
X111126500Y-117542524D01*
X111126500Y-120006692D01*
X111106498Y-120074813D01*
X111058683Y-120118453D01*
X111033607Y-120131507D01*
X111029474Y-120134610D01*
X111029471Y-120134612D01*
X110959164Y-120187400D01*
X110854965Y-120265635D01*
X110851393Y-120269373D01*
X110773898Y-120350466D01*
X110712374Y-120385895D01*
X110641462Y-120382438D01*
X110583676Y-120341192D01*
X110564823Y-120307644D01*
X110523324Y-120196946D01*
X110514786Y-120181351D01*
X110438285Y-120079276D01*
X110425724Y-120066715D01*
X110323649Y-119990214D01*
X110308054Y-119981676D01*
X110187606Y-119936522D01*
X110172351Y-119932895D01*
X110121486Y-119927369D01*
X110114672Y-119927000D01*
X109492115Y-119927000D01*
X109476876Y-119931475D01*
X109475671Y-119932865D01*
X109474000Y-119940548D01*
X109474000Y-121413000D01*
X109453998Y-121481121D01*
X109400342Y-121527614D01*
X109348000Y-121539000D01*
X107880116Y-121539000D01*
X107864877Y-121543475D01*
X107863672Y-121544865D01*
X107862001Y-121552548D01*
X107862001Y-122179669D01*
X107862371Y-122186490D01*
X107867895Y-122237352D01*
X107871521Y-122252604D01*
X107916676Y-122373054D01*
X107925214Y-122388649D01*
X107994004Y-122480435D01*
X108018852Y-122546942D01*
X108003799Y-122616324D01*
X107953625Y-122666554D01*
X107893178Y-122682000D01*
X105119000Y-122682000D01*
X105050879Y-122661998D01*
X105004386Y-122608342D01*
X104993000Y-122556000D01*
X104993000Y-121012885D01*
X107862000Y-121012885D01*
X107866475Y-121028124D01*
X107867865Y-121029329D01*
X107875548Y-121031000D01*
X108947885Y-121031000D01*
X108963124Y-121026525D01*
X108964329Y-121025135D01*
X108966000Y-121017452D01*
X108966000Y-119945116D01*
X108961525Y-119929877D01*
X108960135Y-119928672D01*
X108952452Y-119927001D01*
X108325331Y-119927001D01*
X108318510Y-119927371D01*
X108267648Y-119932895D01*
X108252396Y-119936521D01*
X108131946Y-119981676D01*
X108116351Y-119990214D01*
X108014276Y-120066715D01*
X108001715Y-120079276D01*
X107925214Y-120181351D01*
X107916676Y-120196946D01*
X107871522Y-120317394D01*
X107867895Y-120332649D01*
X107862369Y-120383514D01*
X107862000Y-120390328D01*
X107862000Y-121012885D01*
X104993000Y-121012885D01*
X104993000Y-84737718D01*
X113657800Y-84737718D01*
X113671011Y-84939289D01*
X113672811Y-84950656D01*
X113722537Y-85146450D01*
X113726375Y-85157288D01*
X113810950Y-85340746D01*
X113816698Y-85350702D01*
X113831042Y-85370999D01*
X113841630Y-85379387D01*
X113854931Y-85372359D01*
X114451978Y-84775312D01*
X114459592Y-84761368D01*
X114459461Y-84759535D01*
X114455210Y-84752920D01*
X113852558Y-84150268D01*
X113840178Y-84143508D01*
X113834212Y-84147974D01*
X113748546Y-84310798D01*
X113744138Y-84321441D01*
X113684235Y-84514357D01*
X113681845Y-84525601D01*
X113658101Y-84726217D01*
X113657800Y-84737718D01*
X104993000Y-84737718D01*
X104993000Y-83781777D01*
X114207389Y-83781777D01*
X114210876Y-83790166D01*
X115094115Y-84673405D01*
X115128141Y-84735717D01*
X115123076Y-84806532D01*
X115094115Y-84851595D01*
X114214328Y-85731382D01*
X114208132Y-85742728D01*
X114218014Y-85755217D01*
X114262362Y-85784850D01*
X114272472Y-85790340D01*
X114458077Y-85870082D01*
X114469020Y-85873637D01*
X114666042Y-85918219D01*
X114677452Y-85919721D01*
X114879307Y-85927652D01*
X114890789Y-85927050D01*
X115090712Y-85898063D01*
X115101894Y-85895378D01*
X115293185Y-85830443D01*
X115303688Y-85825767D01*
X115479950Y-85727056D01*
X115489422Y-85720546D01*
X115555652Y-85665463D01*
X115620816Y-85637282D01*
X115690871Y-85648806D01*
X115737047Y-85686772D01*
X115770481Y-85731382D01*
X115806739Y-85779761D01*
X115923295Y-85867115D01*
X116059684Y-85918245D01*
X116121866Y-85925000D01*
X117526134Y-85925000D01*
X117588316Y-85918245D01*
X117724705Y-85867115D01*
X117841261Y-85779761D01*
X117928615Y-85663205D01*
X117979745Y-85526816D01*
X117986500Y-85464634D01*
X117986500Y-84060366D01*
X117979745Y-83998184D01*
X117928615Y-83861795D01*
X117841261Y-83745239D01*
X117724705Y-83657885D01*
X117588316Y-83606755D01*
X117526134Y-83600000D01*
X116121866Y-83600000D01*
X116059684Y-83606755D01*
X115923295Y-83657885D01*
X115806739Y-83745239D01*
X115779355Y-83781777D01*
X115738581Y-83836182D01*
X115681722Y-83878697D01*
X115610903Y-83883723D01*
X115552226Y-83853142D01*
X115538651Y-83840593D01*
X115529526Y-83833592D01*
X115358680Y-83725796D01*
X115348436Y-83720576D01*
X115160808Y-83645720D01*
X115149770Y-83642450D01*
X114951650Y-83603042D01*
X114940203Y-83601839D01*
X114738222Y-83599195D01*
X114726742Y-83600098D01*
X114527661Y-83634307D01*
X114516541Y-83637287D01*
X114327019Y-83707205D01*
X114316642Y-83712155D01*
X114216987Y-83771444D01*
X114207389Y-83781777D01*
X104993000Y-83781777D01*
X104993000Y-81427783D01*
X105013002Y-81359662D01*
X105066658Y-81313169D01*
X105136932Y-81303065D01*
X105201512Y-81332559D01*
X105238313Y-81387282D01*
X105323404Y-81637953D01*
X105325228Y-81641651D01*
X105426793Y-81847604D01*
X105454319Y-81903422D01*
X105618764Y-82149533D01*
X105621478Y-82152627D01*
X105621482Y-82152633D01*
X105811218Y-82368984D01*
X105813927Y-82372073D01*
X105817016Y-82374782D01*
X106033367Y-82564518D01*
X106033373Y-82564522D01*
X106036467Y-82567236D01*
X106282577Y-82731681D01*
X106286276Y-82733505D01*
X106286281Y-82733508D01*
X106422426Y-82800647D01*
X106548047Y-82862596D01*
X106551952Y-82863921D01*
X106551953Y-82863922D01*
X106824420Y-82956412D01*
X106824424Y-82956413D01*
X106828333Y-82957740D01*
X106832377Y-82958544D01*
X106832383Y-82958546D01*
X107114600Y-83014683D01*
X107114606Y-83014684D01*
X107118639Y-83015486D01*
X107122744Y-83015755D01*
X107122751Y-83015756D01*
X107409881Y-83034575D01*
X107414000Y-83034845D01*
X107418119Y-83034575D01*
X107705249Y-83015756D01*
X107705256Y-83015755D01*
X107709361Y-83015486D01*
X107713394Y-83014684D01*
X107713400Y-83014683D01*
X107995617Y-82958546D01*
X107995623Y-82958544D01*
X107999667Y-82957740D01*
X108003576Y-82956413D01*
X108003580Y-82956412D01*
X108276047Y-82863922D01*
X108276048Y-82863921D01*
X108279953Y-82862596D01*
X108405574Y-82800647D01*
X108541719Y-82733508D01*
X108541724Y-82733505D01*
X108545423Y-82731681D01*
X108791533Y-82567236D01*
X108794627Y-82564522D01*
X108794633Y-82564518D01*
X109010984Y-82374782D01*
X109014073Y-82372073D01*
X109016782Y-82368984D01*
X109206518Y-82152633D01*
X109206522Y-82152627D01*
X109209236Y-82149533D01*
X109373681Y-81903422D01*
X109401208Y-81847604D01*
X109502772Y-81641651D01*
X109504596Y-81637953D01*
X109599740Y-81357667D01*
X109600546Y-81353617D01*
X109656683Y-81071400D01*
X109656684Y-81071394D01*
X109657486Y-81067361D01*
X109662710Y-80987671D01*
X109676575Y-80776119D01*
X109676845Y-80772000D01*
X109675609Y-80753147D01*
X109657756Y-80480751D01*
X109657755Y-80480744D01*
X109657486Y-80476639D01*
X109605402Y-80214794D01*
X109600546Y-80190383D01*
X109600544Y-80190377D01*
X109599740Y-80186333D01*
X109597545Y-80179865D01*
X109505922Y-79909953D01*
X109505921Y-79909952D01*
X109504596Y-79906047D01*
X109442712Y-79780558D01*
X109375508Y-79644282D01*
X109375505Y-79644277D01*
X109373681Y-79640578D01*
X109209236Y-79394467D01*
X109206522Y-79391373D01*
X109206518Y-79391367D01*
X109016782Y-79175016D01*
X109014073Y-79171927D01*
X109010984Y-79169218D01*
X108794633Y-78979482D01*
X108794627Y-78979478D01*
X108791533Y-78976764D01*
X108607450Y-78853764D01*
X108561923Y-78799288D01*
X108553075Y-78728845D01*
X108583716Y-78664801D01*
X108644118Y-78627490D01*
X108677453Y-78623000D01*
X130176000Y-78623000D01*
X130244121Y-78643002D01*
G37*
%TD.AperFunction*%
%TA.AperFunction,Conductor*%
G36*
X121119097Y-89353573D02*
G01*
X121156107Y-89393898D01*
X121180960Y-89436944D01*
X121308747Y-89578866D01*
X121463248Y-89691118D01*
X121469276Y-89693802D01*
X121469278Y-89693803D01*
X121631681Y-89766109D01*
X121637712Y-89768794D01*
X121731112Y-89788647D01*
X121818056Y-89807128D01*
X121818061Y-89807128D01*
X121824513Y-89808500D01*
X121880406Y-89808500D01*
X121948527Y-89828502D01*
X121969501Y-89845405D01*
X127689106Y-95565011D01*
X127723132Y-95627323D01*
X127726011Y-95654106D01*
X127726011Y-103740500D01*
X127706009Y-103808621D01*
X127652353Y-103855114D01*
X127600011Y-103866500D01*
X127539513Y-103866500D01*
X127533061Y-103867872D01*
X127533056Y-103867872D01*
X127446112Y-103886353D01*
X127352712Y-103906206D01*
X127346682Y-103908891D01*
X127346681Y-103908891D01*
X127184278Y-103981197D01*
X127184276Y-103981198D01*
X127178248Y-103983882D01*
X127023747Y-104096134D01*
X126895960Y-104238056D01*
X126800473Y-104403444D01*
X126741458Y-104585072D01*
X126740768Y-104591633D01*
X126740768Y-104591635D01*
X126736386Y-104633325D01*
X126726295Y-104729345D01*
X126724093Y-104750292D01*
X126697080Y-104815949D01*
X126687878Y-104826217D01*
X126684989Y-104829106D01*
X126622677Y-104863132D01*
X126595894Y-104866011D01*
X122321521Y-104866011D01*
X122253400Y-104846009D01*
X122206907Y-104792353D01*
X122196211Y-104753182D01*
X122179232Y-104591634D01*
X122179231Y-104591631D01*
X122178542Y-104585072D01*
X122119527Y-104403444D01*
X122024040Y-104238056D01*
X121896253Y-104096134D01*
X121741752Y-103983882D01*
X121735724Y-103981198D01*
X121735722Y-103981197D01*
X121573319Y-103908891D01*
X121573318Y-103908891D01*
X121567288Y-103906206D01*
X121473887Y-103886353D01*
X121386944Y-103867872D01*
X121386939Y-103867872D01*
X121380487Y-103866500D01*
X121189513Y-103866500D01*
X121183061Y-103867872D01*
X121183056Y-103867872D01*
X121096112Y-103886353D01*
X121002712Y-103906206D01*
X120996682Y-103908891D01*
X120996681Y-103908891D01*
X120834278Y-103981197D01*
X120834276Y-103981198D01*
X120828248Y-103983882D01*
X120673747Y-104096134D01*
X120669332Y-104101037D01*
X120664420Y-104105460D01*
X120663295Y-104104211D01*
X120609986Y-104137051D01*
X120576800Y-104141500D01*
X119453200Y-104141500D01*
X119385079Y-104121498D01*
X119365853Y-104105157D01*
X119365580Y-104105460D01*
X119360668Y-104101037D01*
X119356253Y-104096134D01*
X119201752Y-103983882D01*
X119195724Y-103981198D01*
X119195722Y-103981197D01*
X119033319Y-103908891D01*
X119033318Y-103908891D01*
X119027288Y-103906206D01*
X118933887Y-103886353D01*
X118846944Y-103867872D01*
X118846939Y-103867872D01*
X118840487Y-103866500D01*
X118649513Y-103866500D01*
X118643061Y-103867872D01*
X118643056Y-103867872D01*
X118501284Y-103898007D01*
X118430493Y-103892605D01*
X118373861Y-103849788D01*
X118349367Y-103783150D01*
X118355254Y-103735824D01*
X118366502Y-103701206D01*
X118368542Y-103694928D01*
X118371814Y-103663803D01*
X118387814Y-103511565D01*
X118388504Y-103505000D01*
X118368542Y-103315072D01*
X118309527Y-103133444D01*
X118300141Y-103117186D01*
X118217341Y-102973774D01*
X118214040Y-102968056D01*
X118137312Y-102882841D01*
X118131150Y-102870000D01*
X122276496Y-102870000D01*
X122296458Y-103059928D01*
X122355473Y-103241556D01*
X122450960Y-103406944D01*
X122578747Y-103548866D01*
X122733248Y-103661118D01*
X122739276Y-103663802D01*
X122739278Y-103663803D01*
X122901041Y-103735824D01*
X122907712Y-103738794D01*
X123001112Y-103758647D01*
X123088056Y-103777128D01*
X123088061Y-103777128D01*
X123094513Y-103778500D01*
X123285487Y-103778500D01*
X123291939Y-103777128D01*
X123291944Y-103777128D01*
X123378887Y-103758647D01*
X123472288Y-103738794D01*
X123478959Y-103735824D01*
X123640722Y-103663803D01*
X123640724Y-103663802D01*
X123646752Y-103661118D01*
X123801253Y-103548866D01*
X123805668Y-103543963D01*
X123810580Y-103539540D01*
X123811705Y-103540789D01*
X123865014Y-103507949D01*
X123898200Y-103503500D01*
X125021800Y-103503500D01*
X125089921Y-103523502D01*
X125109147Y-103539843D01*
X125109420Y-103539540D01*
X125114332Y-103543963D01*
X125118747Y-103548866D01*
X125273248Y-103661118D01*
X125279276Y-103663802D01*
X125279278Y-103663803D01*
X125441041Y-103735824D01*
X125447712Y-103738794D01*
X125541112Y-103758647D01*
X125628056Y-103777128D01*
X125628061Y-103777128D01*
X125634513Y-103778500D01*
X125825487Y-103778500D01*
X125831939Y-103777128D01*
X125831944Y-103777128D01*
X125918887Y-103758647D01*
X126012288Y-103738794D01*
X126018959Y-103735824D01*
X126180722Y-103663803D01*
X126180724Y-103663802D01*
X126186752Y-103661118D01*
X126341253Y-103548866D01*
X126469040Y-103406944D01*
X126564527Y-103241556D01*
X126623542Y-103059928D01*
X126643504Y-102870000D01*
X126632361Y-102763976D01*
X126624232Y-102686635D01*
X126624232Y-102686633D01*
X126623542Y-102680072D01*
X126564527Y-102498444D01*
X126469040Y-102333056D01*
X126341253Y-102191134D01*
X126186752Y-102078882D01*
X126180724Y-102076198D01*
X126180722Y-102076197D01*
X126018319Y-102003891D01*
X126018318Y-102003891D01*
X126012288Y-102001206D01*
X125918887Y-101981353D01*
X125831944Y-101962872D01*
X125831939Y-101962872D01*
X125825487Y-101961500D01*
X125634513Y-101961500D01*
X125628061Y-101962872D01*
X125628056Y-101962872D01*
X125541112Y-101981353D01*
X125447712Y-102001206D01*
X125441682Y-102003891D01*
X125441681Y-102003891D01*
X125279278Y-102076197D01*
X125279276Y-102076198D01*
X125273248Y-102078882D01*
X125118747Y-102191134D01*
X125114332Y-102196037D01*
X125109420Y-102200460D01*
X125108295Y-102199211D01*
X125054986Y-102232051D01*
X125021800Y-102236500D01*
X123898200Y-102236500D01*
X123830079Y-102216498D01*
X123810853Y-102200157D01*
X123810580Y-102200460D01*
X123805668Y-102196037D01*
X123801253Y-102191134D01*
X123646752Y-102078882D01*
X123640724Y-102076198D01*
X123640722Y-102076197D01*
X123478319Y-102003891D01*
X123478318Y-102003891D01*
X123472288Y-102001206D01*
X123378887Y-101981353D01*
X123291944Y-101962872D01*
X123291939Y-101962872D01*
X123285487Y-101961500D01*
X123094513Y-101961500D01*
X123088061Y-101962872D01*
X123088056Y-101962872D01*
X123001112Y-101981353D01*
X122907712Y-102001206D01*
X122901682Y-102003891D01*
X122901681Y-102003891D01*
X122739278Y-102076197D01*
X122739276Y-102076198D01*
X122733248Y-102078882D01*
X122578747Y-102191134D01*
X122450960Y-102333056D01*
X122355473Y-102498444D01*
X122296458Y-102680072D01*
X122295768Y-102686633D01*
X122295768Y-102686635D01*
X122287639Y-102763976D01*
X122276496Y-102870000D01*
X118131150Y-102870000D01*
X118106595Y-102818833D01*
X118115360Y-102748380D01*
X118141854Y-102709436D01*
X120407253Y-100444038D01*
X120415539Y-100436498D01*
X120422018Y-100432386D01*
X120468644Y-100382734D01*
X120471398Y-100379893D01*
X120491135Y-100360156D01*
X120493615Y-100356959D01*
X120501320Y-100347937D01*
X120526159Y-100321486D01*
X120531586Y-100315707D01*
X120535405Y-100308761D01*
X120535407Y-100308758D01*
X120541348Y-100297952D01*
X120552199Y-100281433D01*
X120559758Y-100271687D01*
X120564614Y-100265427D01*
X120567759Y-100258158D01*
X120567762Y-100258154D01*
X120582174Y-100224849D01*
X120587391Y-100214199D01*
X120608695Y-100175446D01*
X120613733Y-100155823D01*
X120620137Y-100137120D01*
X120625033Y-100125806D01*
X120625033Y-100125805D01*
X120628181Y-100118531D01*
X120629420Y-100110708D01*
X120629423Y-100110698D01*
X120635099Y-100074862D01*
X120637505Y-100063242D01*
X120646528Y-100028097D01*
X120646528Y-100028096D01*
X120648500Y-100020416D01*
X120648500Y-100000162D01*
X120650051Y-99980451D01*
X120651980Y-99968272D01*
X120653220Y-99960443D01*
X120649059Y-99916424D01*
X120648500Y-99904567D01*
X120648500Y-90237524D01*
X120668502Y-90169403D01*
X120680858Y-90153221D01*
X120754040Y-90071944D01*
X120849527Y-89906556D01*
X120908542Y-89724928D01*
X120911814Y-89693803D01*
X120927814Y-89541565D01*
X120928504Y-89535000D01*
X120921680Y-89470070D01*
X120934453Y-89400232D01*
X120982955Y-89348385D01*
X121051788Y-89330991D01*
X121119097Y-89353573D01*
G37*
%TD.AperFunction*%
%TD*%
M02*
