%FSLAX45Y45*%
G04 Gerber Fmt 4.5, Leading zero omitted, Abs format (unit mm)*
G04 Created by KiCad (PCBNEW (6.0.2)) date 2023-04-06 22:38:39*
%MOMM*%
%LPD*%
G01*
G04 APERTURE LIST*
%TA.AperFunction,Profile*%
%ADD10C,0.100000*%
%TD*%
%ADD11C,0.200000*%
G04 APERTURE END LIST*
D10*
X7874000Y-5270500D02*
X13398500Y-5270500D01*
X13398500Y-5270500D02*
X13398500Y-12319000D01*
X13398500Y-12319000D02*
X7874000Y-12319000D01*
X7874000Y-12319000D02*
X7874000Y-5270500D01*
D11*
X8126619Y-12634476D02*
X8126619Y-12434476D01*
X8174238Y-12434476D01*
X8202809Y-12444000D01*
X8221857Y-12463048D01*
X8231381Y-12482095D01*
X8240905Y-12520190D01*
X8240905Y-12548762D01*
X8231381Y-12586857D01*
X8221857Y-12605905D01*
X8202809Y-12624952D01*
X8174238Y-12634476D01*
X8126619Y-12634476D01*
X8326619Y-12634476D02*
X8326619Y-12501143D01*
X8326619Y-12539238D02*
X8336143Y-12520190D01*
X8345667Y-12510667D01*
X8364714Y-12501143D01*
X8383762Y-12501143D01*
X8450429Y-12634476D02*
X8450429Y-12501143D01*
X8450429Y-12434476D02*
X8440905Y-12444000D01*
X8450429Y-12453524D01*
X8459952Y-12444000D01*
X8450429Y-12434476D01*
X8450429Y-12453524D01*
X8574238Y-12634476D02*
X8555190Y-12624952D01*
X8545667Y-12605905D01*
X8545667Y-12434476D01*
X8679000Y-12634476D02*
X8659952Y-12624952D01*
X8650429Y-12605905D01*
X8650429Y-12434476D01*
X8907571Y-12634476D02*
X8907571Y-12434476D01*
X8974238Y-12577333D01*
X9040905Y-12434476D01*
X9040905Y-12634476D01*
X9221857Y-12634476D02*
X9221857Y-12529714D01*
X9212333Y-12510667D01*
X9193286Y-12501143D01*
X9155190Y-12501143D01*
X9136143Y-12510667D01*
X9221857Y-12624952D02*
X9202810Y-12634476D01*
X9155190Y-12634476D01*
X9136143Y-12624952D01*
X9126619Y-12605905D01*
X9126619Y-12586857D01*
X9136143Y-12567809D01*
X9155190Y-12558286D01*
X9202810Y-12558286D01*
X9221857Y-12548762D01*
X9317095Y-12501143D02*
X9317095Y-12701143D01*
X9317095Y-12510667D02*
X9336143Y-12501143D01*
X9374238Y-12501143D01*
X9393286Y-12510667D01*
X9402810Y-12520190D01*
X9412333Y-12539238D01*
X9412333Y-12596381D01*
X9402810Y-12615428D01*
X9393286Y-12624952D01*
X9374238Y-12634476D01*
X9336143Y-12634476D01*
X9317095Y-12624952D01*
X9498048Y-12615428D02*
X9507571Y-12624952D01*
X9498048Y-12634476D01*
X9488524Y-12624952D01*
X9498048Y-12615428D01*
X9498048Y-12634476D01*
X9498048Y-12510667D02*
X9507571Y-12520190D01*
X9498048Y-12529714D01*
X9488524Y-12520190D01*
X9498048Y-12510667D01*
X9498048Y-12529714D01*
M02*
