%TF.GenerationSoftware,KiCad,Pcbnew,7.0.2*%
%TF.CreationDate,2023-09-04T15:16:37-04:00*%
%TF.ProjectId,skydiving-altimeter,736b7964-6976-4696-9e67-2d616c74696d,rev?*%
%TF.SameCoordinates,Original*%
%TF.FileFunction,Copper,L1,Top*%
%TF.FilePolarity,Positive*%
%FSLAX46Y46*%
G04 Gerber Fmt 4.6, Leading zero omitted, Abs format (unit mm)*
G04 Created by KiCad (PCBNEW 7.0.2) date 2023-09-04 15:16:37*
%MOMM*%
%LPD*%
G01*
G04 APERTURE LIST*
G04 Aperture macros list*
%AMRoundRect*
0 Rectangle with rounded corners*
0 $1 Rounding radius*
0 $2 $3 $4 $5 $6 $7 $8 $9 X,Y pos of 4 corners*
0 Add a 4 corners polygon primitive as box body*
4,1,4,$2,$3,$4,$5,$6,$7,$8,$9,$2,$3,0*
0 Add four circle primitives for the rounded corners*
1,1,$1+$1,$2,$3*
1,1,$1+$1,$4,$5*
1,1,$1+$1,$6,$7*
1,1,$1+$1,$8,$9*
0 Add four rect primitives between the rounded corners*
20,1,$1+$1,$2,$3,$4,$5,0*
20,1,$1+$1,$4,$5,$6,$7,0*
20,1,$1+$1,$6,$7,$8,$9,0*
20,1,$1+$1,$8,$9,$2,$3,0*%
G04 Aperture macros list end*
%TA.AperFunction,SMDPad,CuDef*%
%ADD10RoundRect,0.087500X-0.125000X-0.087500X0.125000X-0.087500X0.125000X0.087500X-0.125000X0.087500X0*%
%TD*%
%TA.AperFunction,SMDPad,CuDef*%
%ADD11RoundRect,0.087500X-0.087500X-0.125000X0.087500X-0.125000X0.087500X0.125000X-0.087500X0.125000X0*%
%TD*%
%TA.AperFunction,SMDPad,CuDef*%
%ADD12RoundRect,0.250000X-0.475000X0.250000X-0.475000X-0.250000X0.475000X-0.250000X0.475000X0.250000X0*%
%TD*%
%TA.AperFunction,ComponentPad*%
%ADD13R,1.700000X1.700000*%
%TD*%
%TA.AperFunction,ComponentPad*%
%ADD14O,1.700000X1.700000*%
%TD*%
%TA.AperFunction,SMDPad,CuDef*%
%ADD15RoundRect,0.150000X-0.512500X-0.150000X0.512500X-0.150000X0.512500X0.150000X-0.512500X0.150000X0*%
%TD*%
%TA.AperFunction,SMDPad,CuDef*%
%ADD16RoundRect,0.250000X0.250000X0.475000X-0.250000X0.475000X-0.250000X-0.475000X0.250000X-0.475000X0*%
%TD*%
%TA.AperFunction,SMDPad,CuDef*%
%ADD17RoundRect,0.250000X0.450000X-0.262500X0.450000X0.262500X-0.450000X0.262500X-0.450000X-0.262500X0*%
%TD*%
%TA.AperFunction,SMDPad,CuDef*%
%ADD18RoundRect,0.250000X-0.250000X-0.475000X0.250000X-0.475000X0.250000X0.475000X-0.250000X0.475000X0*%
%TD*%
%TA.AperFunction,SMDPad,CuDef*%
%ADD19RoundRect,0.135000X-0.135000X-0.185000X0.135000X-0.185000X0.135000X0.185000X-0.135000X0.185000X0*%
%TD*%
%TA.AperFunction,SMDPad,CuDef*%
%ADD20RoundRect,0.250000X0.262500X0.450000X-0.262500X0.450000X-0.262500X-0.450000X0.262500X-0.450000X0*%
%TD*%
%TA.AperFunction,SMDPad,CuDef*%
%ADD21RoundRect,0.218750X0.256250X-0.218750X0.256250X0.218750X-0.256250X0.218750X-0.256250X-0.218750X0*%
%TD*%
%TA.AperFunction,SMDPad,CuDef*%
%ADD22RoundRect,0.218750X-0.218750X-0.256250X0.218750X-0.256250X0.218750X0.256250X-0.218750X0.256250X0*%
%TD*%
%TA.AperFunction,ComponentPad*%
%ADD23R,1.308000X1.308000*%
%TD*%
%TA.AperFunction,ComponentPad*%
%ADD24C,1.308000*%
%TD*%
%TA.AperFunction,SMDPad,CuDef*%
%ADD25R,1.350000X0.400000*%
%TD*%
%TA.AperFunction,SMDPad,CuDef*%
%ADD26R,1.400000X1.600000*%
%TD*%
%TA.AperFunction,SMDPad,CuDef*%
%ADD27R,1.900000X1.900000*%
%TD*%
%TA.AperFunction,ComponentPad*%
%ADD28O,1.800000X0.900000*%
%TD*%
%TA.AperFunction,SMDPad,CuDef*%
%ADD29R,2.350000X3.500000*%
%TD*%
%TA.AperFunction,SMDPad,CuDef*%
%ADD30RoundRect,0.250000X-0.450000X0.262500X-0.450000X-0.262500X0.450000X-0.262500X0.450000X0.262500X0*%
%TD*%
%TA.AperFunction,SMDPad,CuDef*%
%ADD31RoundRect,0.075000X-0.662500X-0.075000X0.662500X-0.075000X0.662500X0.075000X-0.662500X0.075000X0*%
%TD*%
%TA.AperFunction,SMDPad,CuDef*%
%ADD32RoundRect,0.075000X-0.075000X-0.662500X0.075000X-0.662500X0.075000X0.662500X-0.075000X0.662500X0*%
%TD*%
%TA.AperFunction,SMDPad,CuDef*%
%ADD33R,2.400000X0.740000*%
%TD*%
%TA.AperFunction,SMDPad,CuDef*%
%ADD34R,1.100000X1.100000*%
%TD*%
%TA.AperFunction,SMDPad,CuDef*%
%ADD35R,2.000000X1.500000*%
%TD*%
%TA.AperFunction,SMDPad,CuDef*%
%ADD36R,2.000000X3.800000*%
%TD*%
%TA.AperFunction,SMDPad,CuDef*%
%ADD37RoundRect,0.250000X0.475000X-0.250000X0.475000X0.250000X-0.475000X0.250000X-0.475000X-0.250000X0*%
%TD*%
%TA.AperFunction,SMDPad,CuDef*%
%ADD38R,1.900000X0.400000*%
%TD*%
%TA.AperFunction,ViaPad*%
%ADD39C,0.800000*%
%TD*%
%TA.AperFunction,Conductor*%
%ADD40C,0.250000*%
%TD*%
G04 APERTURE END LIST*
D10*
%TO.P,U2,1,Vdd_IO*%
%TO.N,+3V3*%
X124967500Y-101350000D03*
%TO.P,U2,2,SCL*%
%TO.N,/Baro Sensor/SCL*%
X124967500Y-101850000D03*
D11*
%TO.P,U2,3,RES*%
%TO.N,GND*%
X125230000Y-102362500D03*
%TO.P,U2,4,SDA*%
%TO.N,/Baro Sensor/SDA*%
X125730000Y-102362500D03*
%TO.P,U2,5,SA0*%
%TO.N,GND*%
X126230000Y-102362500D03*
D10*
%TO.P,U2,6,~{CS}*%
%TO.N,+3V3*%
X126492500Y-101850000D03*
%TO.P,U2,7,INT_DRDY*%
%TO.N,unconnected-(U2-INT_DRDY-Pad7)*%
X126492500Y-101350000D03*
D11*
%TO.P,U2,8,GND*%
%TO.N,GND*%
X126230000Y-100837500D03*
%TO.P,U2,9,GND*%
X125730000Y-100837500D03*
%TO.P,U2,10,VDD*%
%TO.N,+3V3*%
X125230000Y-100837500D03*
%TD*%
D12*
%TO.P,C16,1*%
%TO.N,GND*%
X129540000Y-92395000D03*
%TO.P,C16,2*%
%TO.N,+3V3*%
X129540000Y-94295000D03*
%TD*%
D13*
%TO.P,J3,1,Pin_1*%
%TO.N,GND*%
X109220000Y-121285000D03*
D14*
%TO.P,J3,2,Pin_2*%
%TO.N,/LED_DI*%
X111760000Y-121285000D03*
%TO.P,J3,3,Pin_3*%
%TO.N,+5V*%
X114300000Y-121285000D03*
%TD*%
D15*
%TO.P,U4,1,CE*%
%TO.N,/Power/VIN*%
X109352500Y-95890000D03*
%TO.P,U4,2,GND*%
%TO.N,GND*%
X109352500Y-96840000D03*
%TO.P,U4,3,VIN*%
%TO.N,/Power/VIN*%
X109352500Y-97790000D03*
%TO.P,U4,4,VOUT*%
%TO.N,+5V*%
X111627500Y-97790000D03*
%TO.P,U4,5,LX*%
%TO.N,Net-(D6-A)*%
X111627500Y-95890000D03*
%TD*%
D16*
%TO.P,C4,1*%
%TO.N,GND*%
X123632000Y-105664000D03*
%TO.P,C4,2*%
%TO.N,+3V3*%
X121732000Y-105664000D03*
%TD*%
D17*
%TO.P,R3,1*%
%TO.N,+3V3*%
X106045000Y-103782500D03*
%TO.P,R3,2*%
%TO.N,Net-(D1-A)*%
X106045000Y-101957500D03*
%TD*%
D18*
%TO.P,C1,1*%
%TO.N,GND*%
X113985000Y-102235000D03*
%TO.P,C1,2*%
%TO.N,+3V3*%
X115885000Y-102235000D03*
%TD*%
D19*
%TO.P,R1,1*%
%TO.N,/Baro Sensor/SCL*%
X118745000Y-106045000D03*
%TO.P,R1,2*%
%TO.N,+3V3*%
X119765000Y-106045000D03*
%TD*%
D12*
%TO.P,C14,1*%
%TO.N,+5V*%
X113665000Y-97795000D03*
%TO.P,C14,2*%
%TO.N,GND*%
X113665000Y-99695000D03*
%TD*%
D19*
%TO.P,R2,1*%
%TO.N,/Baro Sensor/SDA*%
X118870000Y-103505000D03*
%TO.P,R2,2*%
%TO.N,+3V3*%
X119890000Y-103505000D03*
%TD*%
D20*
%TO.P,R4,1*%
%TO.N,Net-(U1-PD0)*%
X111402500Y-110490000D03*
%TO.P,R4,2*%
%TO.N,Net-(R4-Pad2)*%
X109577500Y-110490000D03*
%TD*%
D16*
%TO.P,C2,1*%
%TO.N,Net-(U1-NRST)*%
X111440000Y-113284000D03*
%TO.P,C2,2*%
%TO.N,GND*%
X109540000Y-113284000D03*
%TD*%
D21*
%TO.P,D1,1,K*%
%TO.N,GND*%
X108585000Y-103657500D03*
%TO.P,D1,2,A*%
%TO.N,Net-(D1-A)*%
X108585000Y-102082500D03*
%TD*%
D22*
%TO.P,D4,1,K*%
%TO.N,Net-(D4-K)*%
X107797500Y-86995000D03*
%TO.P,D4,2,A*%
%TO.N,Net-(D4-A)*%
X109372500Y-86995000D03*
%TD*%
D23*
%TO.P,J2,1,Pin_1*%
%TO.N,/Power/VIN*%
X116824000Y-84762500D03*
D24*
%TO.P,J2,2,Pin_2*%
%TO.N,GND*%
X114824000Y-84762500D03*
%TD*%
D16*
%TO.P,C13,1*%
%TO.N,/Power/VIN*%
X107630000Y-98745000D03*
%TO.P,C13,2*%
%TO.N,GND*%
X105730000Y-98745000D03*
%TD*%
D18*
%TO.P,C6,1*%
%TO.N,GND*%
X108270000Y-116332000D03*
%TO.P,C6,2*%
%TO.N,+3V3*%
X110170000Y-116332000D03*
%TD*%
D25*
%TO.P,J5,1,VUSB*%
%TO.N,Net-(J5-VUSB)*%
X125087000Y-112552000D03*
%TO.P,J5,2,D-*%
%TO.N,Net-(J5-D-)*%
X125087000Y-111902000D03*
%TO.P,J5,3,D+*%
%TO.N,Net-(J5-D+)*%
X125087000Y-111252000D03*
%TO.P,J5,4,ID*%
%TO.N,unconnected-(J5-ID-Pad4)*%
X125087000Y-110602000D03*
%TO.P,J5,5,GND*%
%TO.N,unconnected-(J5-GND-Pad5)*%
X125087000Y-109952000D03*
D26*
%TO.P,J5,S1,SHIELD*%
%TO.N,Net-(J5-SHIELD-PadS1)*%
X125312000Y-114452000D03*
%TO.P,J5,S2,SHIELD*%
X125312000Y-108052000D03*
D27*
%TO.P,J5,S3,SHIELD*%
X127762000Y-110052000D03*
%TO.P,J5,S4,SHIELD*%
X127762000Y-112452000D03*
D28*
%TO.P,J5,S5,SHIELD*%
X127762000Y-114552000D03*
%TO.P,J5,S6,SHIELD*%
X127762000Y-107952000D03*
%TD*%
D29*
%TO.P,L1,1,1*%
%TO.N,/Power/VIN*%
X106830000Y-91440000D03*
%TO.P,L1,2,2*%
%TO.N,Net-(D6-A)*%
X112880000Y-91440000D03*
%TD*%
D12*
%TO.P,C15,1*%
%TO.N,+5V*%
X118110000Y-94935000D03*
%TO.P,C15,2*%
%TO.N,GND*%
X118110000Y-96835000D03*
%TD*%
D30*
%TO.P,R7,1*%
%TO.N,+3V3*%
X111125000Y-79732500D03*
%TO.P,R7,2*%
%TO.N,Net-(D3-A)*%
X111125000Y-81557500D03*
%TD*%
D12*
%TO.P,C5,1*%
%TO.N,GND*%
X114935000Y-104460000D03*
%TO.P,C5,2*%
%TO.N,+3V3*%
X114935000Y-106360000D03*
%TD*%
D31*
%TO.P,U1,1,VBAT*%
%TO.N,unconnected-(U1-VBAT-Pad1)*%
X113947500Y-110280000D03*
%TO.P,U1,2,PC13*%
%TO.N,unconnected-(U1-PC13-Pad2)*%
X113947500Y-110780000D03*
%TO.P,U1,3,PC14*%
%TO.N,unconnected-(U1-PC14-Pad3)*%
X113947500Y-111280000D03*
%TO.P,U1,4,PC15*%
%TO.N,unconnected-(U1-PC15-Pad4)*%
X113947500Y-111780000D03*
%TO.P,U1,5,PD0*%
%TO.N,Net-(U1-PD0)*%
X113947500Y-112280000D03*
%TO.P,U1,6,PD1*%
%TO.N,Net-(U1-PD1)*%
X113947500Y-112780000D03*
%TO.P,U1,7,NRST*%
%TO.N,Net-(U1-NRST)*%
X113947500Y-113280000D03*
%TO.P,U1,8,VSSA*%
%TO.N,GND*%
X113947500Y-113780000D03*
%TO.P,U1,9,VDDA*%
%TO.N,+3V3*%
X113947500Y-114280000D03*
%TO.P,U1,10,PA0*%
%TO.N,unconnected-(U1-PA0-Pad10)*%
X113947500Y-114780000D03*
%TO.P,U1,11,PA1*%
%TO.N,/LED_DI*%
X113947500Y-115280000D03*
%TO.P,U1,12,PA2*%
%TO.N,unconnected-(U1-PA2-Pad12)*%
X113947500Y-115780000D03*
D32*
%TO.P,U1,13,PA3*%
%TO.N,unconnected-(U1-PA3-Pad13)*%
X115360000Y-117192500D03*
%TO.P,U1,14,PA4*%
%TO.N,unconnected-(U1-PA4-Pad14)*%
X115860000Y-117192500D03*
%TO.P,U1,15,PA5*%
%TO.N,unconnected-(U1-PA5-Pad15)*%
X116360000Y-117192500D03*
%TO.P,U1,16,PA6*%
%TO.N,unconnected-(U1-PA6-Pad16)*%
X116860000Y-117192500D03*
%TO.P,U1,17,PA7*%
%TO.N,unconnected-(U1-PA7-Pad17)*%
X117360000Y-117192500D03*
%TO.P,U1,18,PB0*%
%TO.N,unconnected-(U1-PB0-Pad18)*%
X117860000Y-117192500D03*
%TO.P,U1,19,PB1*%
%TO.N,unconnected-(U1-PB1-Pad19)*%
X118360000Y-117192500D03*
%TO.P,U1,20,PB2*%
%TO.N,unconnected-(U1-PB2-Pad20)*%
X118860000Y-117192500D03*
%TO.P,U1,21,PB10*%
%TO.N,unconnected-(U1-PB10-Pad21)*%
X119360000Y-117192500D03*
%TO.P,U1,22,PB11*%
%TO.N,unconnected-(U1-PB11-Pad22)*%
X119860000Y-117192500D03*
%TO.P,U1,23,VSS*%
%TO.N,GND*%
X120360000Y-117192500D03*
%TO.P,U1,24,VDD*%
%TO.N,+3V3*%
X120860000Y-117192500D03*
D31*
%TO.P,U1,25,PB12*%
%TO.N,unconnected-(U1-PB12-Pad25)*%
X122272500Y-115780000D03*
%TO.P,U1,26,PB13*%
%TO.N,unconnected-(U1-PB13-Pad26)*%
X122272500Y-115280000D03*
%TO.P,U1,27,PB14*%
%TO.N,unconnected-(U1-PB14-Pad27)*%
X122272500Y-114780000D03*
%TO.P,U1,28,PB15*%
%TO.N,unconnected-(U1-PB15-Pad28)*%
X122272500Y-114280000D03*
%TO.P,U1,29,PA8*%
%TO.N,unconnected-(U1-PA8-Pad29)*%
X122272500Y-113780000D03*
%TO.P,U1,30,PA9*%
%TO.N,/STM_32/M_TX*%
X122272500Y-113280000D03*
%TO.P,U1,31,PA10*%
%TO.N,/STM_32/M_RX*%
X122272500Y-112780000D03*
%TO.P,U1,32,PA11*%
%TO.N,unconnected-(U1-PA11-Pad32)*%
X122272500Y-112280000D03*
%TO.P,U1,33,PA12*%
%TO.N,unconnected-(U1-PA12-Pad33)*%
X122272500Y-111780000D03*
%TO.P,U1,34,PA13*%
%TO.N,/STM_32/SWDIO*%
X122272500Y-111280000D03*
%TO.P,U1,35,VSS*%
%TO.N,GND*%
X122272500Y-110780000D03*
%TO.P,U1,36,VDD*%
%TO.N,+3V3*%
X122272500Y-110280000D03*
D32*
%TO.P,U1,37,PA14*%
%TO.N,/STM_32/SWCLK*%
X120860000Y-108867500D03*
%TO.P,U1,38,PA15*%
%TO.N,unconnected-(U1-PA15-Pad38)*%
X120360000Y-108867500D03*
%TO.P,U1,39,PB3*%
%TO.N,unconnected-(U1-PB3-Pad39)*%
X119860000Y-108867500D03*
%TO.P,U1,40,PB4*%
%TO.N,unconnected-(U1-PB4-Pad40)*%
X119360000Y-108867500D03*
%TO.P,U1,41,PB5*%
%TO.N,unconnected-(U1-PB5-Pad41)*%
X118860000Y-108867500D03*
%TO.P,U1,42,PB6*%
%TO.N,/Baro Sensor/SCL*%
X118360000Y-108867500D03*
%TO.P,U1,43,PB7*%
%TO.N,/Baro Sensor/SDA*%
X117860000Y-108867500D03*
%TO.P,U1,44,BOOT0*%
%TO.N,GND*%
X117360000Y-108867500D03*
%TO.P,U1,45,PB8*%
%TO.N,unconnected-(U1-PB8-Pad45)*%
X116860000Y-108867500D03*
%TO.P,U1,46,PB9*%
%TO.N,unconnected-(U1-PB9-Pad46)*%
X116360000Y-108867500D03*
%TO.P,U1,47,VSS*%
%TO.N,GND*%
X115860000Y-108867500D03*
%TO.P,U1,48,VDD*%
%TO.N,+3V3*%
X115360000Y-108867500D03*
%TD*%
D33*
%TO.P,J1,1,VTref*%
%TO.N,+3V3*%
X125775000Y-86995000D03*
%TO.P,J1,2,SWDIO/TMS*%
%TO.N,/STM_32/SWDIO*%
X121875000Y-86995000D03*
%TO.P,J1,3,GND*%
%TO.N,GND*%
X125775000Y-85725000D03*
%TO.P,J1,4,SWDCLK/TCK*%
%TO.N,/STM_32/SWCLK*%
X121875000Y-85725000D03*
%TO.P,J1,5,GND*%
%TO.N,GND*%
X125775000Y-84455000D03*
%TO.P,J1,6,SWO/TDO*%
%TO.N,unconnected-(J1-SWO{slash}TDO-Pad6)*%
X121875000Y-84455000D03*
%TO.P,J1,7,KEY*%
%TO.N,unconnected-(J1-KEY-Pad7)*%
X125775000Y-83185000D03*
%TO.P,J1,8,NC/TDI*%
%TO.N,unconnected-(J1-NC{slash}TDI-Pad8)*%
X121875000Y-83185000D03*
%TO.P,J1,9,GNDDetect*%
%TO.N,GND*%
X125775000Y-81915000D03*
%TO.P,J1,10,~{RESET}*%
X121875000Y-81915000D03*
%TD*%
D34*
%TO.P,D6,1,K*%
%TO.N,+5V*%
X115570000Y-94745000D03*
%TO.P,D6,2,A*%
%TO.N,Net-(D6-A)*%
X115570000Y-91945000D03*
%TD*%
D35*
%TO.P,U5,1,GND*%
%TO.N,GND*%
X120675000Y-92315000D03*
%TO.P,U5,2,VOUT*%
%TO.N,+3V3*%
X120675000Y-94615000D03*
%TO.P,U5,3,VIN*%
%TO.N,+5V*%
X120675000Y-96915000D03*
D36*
%TO.P,U5,4,VOUT*%
%TO.N,+3V3*%
X126975000Y-94615000D03*
%TD*%
D22*
%TO.P,D3,1,K*%
%TO.N,Net-(D3-K)*%
X107797500Y-85090000D03*
%TO.P,D3,2,A*%
%TO.N,Net-(D3-A)*%
X109372500Y-85090000D03*
%TD*%
D37*
%TO.P,C3,1*%
%TO.N,GND*%
X121920000Y-121600000D03*
%TO.P,C3,2*%
%TO.N,+3V3*%
X121920000Y-119700000D03*
%TD*%
D16*
%TO.P,C7,1*%
%TO.N,+3V3*%
X123505000Y-100965000D03*
%TO.P,C7,2*%
%TO.N,GND*%
X121605000Y-100965000D03*
%TD*%
D30*
%TO.P,R8,1*%
%TO.N,+3V3*%
X111125000Y-83542500D03*
%TO.P,R8,2*%
%TO.N,Net-(D4-A)*%
X111125000Y-85367500D03*
%TD*%
D38*
%TO.P,Y1,1,1*%
%TO.N,Net-(R4-Pad2)*%
X107315000Y-110490000D03*
%TO.P,Y1,2,2*%
%TO.N,GND*%
X107315000Y-111690000D03*
%TO.P,Y1,3,3*%
%TO.N,Net-(U1-PD1)*%
X107315000Y-112890000D03*
%TD*%
D39*
%TO.N,GND*%
X121920000Y-81788000D03*
X127762000Y-91948000D03*
X122936000Y-96266000D03*
X114046000Y-102108000D03*
%TO.N,+3V3*%
X121412000Y-119888000D03*
%TO.N,GND*%
X113284000Y-116840000D03*
X121666000Y-100838000D03*
X121920000Y-121666000D03*
X124714000Y-103124000D03*
X108712000Y-103886000D03*
X117348000Y-103378000D03*
X124460000Y-118364000D03*
X110236000Y-118364000D03*
X106426000Y-117602000D03*
X119380000Y-118872000D03*
X117348000Y-101092000D03*
X118110000Y-118872000D03*
X106934000Y-111760000D03*
X127254000Y-99822000D03*
X126746000Y-103632000D03*
X107188000Y-120904000D03*
X109474000Y-113284000D03*
%TO.N,+3V3*%
X115062000Y-106426000D03*
X118110000Y-91440000D03*
X111252000Y-79756000D03*
X111252000Y-83566000D03*
%TO.N,/STM_32/SWDIO*%
X128778000Y-81026000D03*
X123952000Y-107442000D03*
%TO.N,/STM_32/SWCLK*%
X129032000Y-80010000D03*
X128016000Y-117094000D03*
%TO.N,+5V*%
X105410000Y-119634000D03*
X106684299Y-121915701D03*
%TO.N,/Baro Sensor/SCL*%
X122936000Y-99060000D03*
X118618000Y-105918000D03*
X121920000Y-103378000D03*
%TO.N,/Baro Sensor/SDA*%
X124968000Y-104902000D03*
X118872000Y-103378000D03*
%TO.N,Net-(J5-D-)*%
X124968000Y-116332000D03*
%TO.N,Net-(J5-D+)*%
X123190000Y-116586000D03*
%TO.N,Net-(D3-K)*%
X114046000Y-108712000D03*
X108712000Y-106426000D03*
X106934000Y-85090000D03*
%TO.N,Net-(D4-K)*%
X112776000Y-109220000D03*
X108712000Y-107696000D03*
X106426000Y-87122000D03*
%TO.N,Net-(J5-SHIELD-PadS1)*%
X127762000Y-112522000D03*
X125476000Y-114554000D03*
X127762000Y-109982000D03*
X125222000Y-107950000D03*
%TO.N,/STM_32/M_TX*%
X118364000Y-113538000D03*
%TO.N,/STM_32/M_RX*%
X119888000Y-112522000D03*
%TO.N,Net-(J5-VUSB)*%
X126492000Y-116332000D03*
%TD*%
D40*
%TO.N,/STM_32/SWCLK*%
X121045000Y-85725000D02*
X121875000Y-85725000D01*
X120142000Y-84822000D02*
X121045000Y-85725000D01*
X120142000Y-81428000D02*
X120142000Y-84822000D01*
X121560000Y-80010000D02*
X120142000Y-81428000D01*
X129032000Y-80010000D02*
X121560000Y-80010000D01*
%TO.N,GND*%
X123502000Y-108017305D02*
X123227000Y-107742305D01*
X123502000Y-110353685D02*
X123502000Y-108017305D01*
X123227000Y-107742305D02*
X123227000Y-106069000D01*
X123227000Y-106069000D02*
X123632000Y-105664000D01*
X123075685Y-110780000D02*
X123502000Y-110353685D01*
X122272500Y-110780000D02*
X123075685Y-110780000D01*
X127762000Y-91948000D02*
X129093000Y-91948000D01*
X129093000Y-91948000D02*
X129540000Y-92395000D01*
%TO.N,+3V3*%
X121732000Y-119888000D02*
X121920000Y-119700000D01*
X121412000Y-119888000D02*
X121732000Y-119888000D01*
X121412000Y-119888000D02*
X120860000Y-118640000D01*
%TO.N,GND*%
X124460000Y-118364000D02*
X124460000Y-121920000D01*
X126230000Y-102362500D02*
X126230000Y-103108000D01*
X120360000Y-117192500D02*
X120360000Y-120040000D01*
X107569000Y-121285000D02*
X107188000Y-120904000D01*
X126746000Y-103624000D02*
X126746000Y-103632000D01*
X120360000Y-120040000D02*
X121920000Y-121600000D01*
X115985000Y-105510000D02*
X114935000Y-104460000D01*
X125230000Y-102362500D02*
X125230000Y-102608000D01*
X108270000Y-116332000D02*
X108270000Y-116398000D01*
X117360000Y-106885000D02*
X114935000Y-104460000D01*
X121920000Y-121666000D02*
X121986000Y-121666000D01*
X115860000Y-108867500D02*
X115860000Y-106973173D01*
X121986000Y-121666000D02*
X121920000Y-121600000D01*
X125730000Y-100837500D02*
X126238500Y-100837500D01*
X112482173Y-113780000D02*
X111200173Y-115062000D01*
X117360000Y-108867500D02*
X117360000Y-106885000D01*
X126754000Y-103632000D02*
X126746000Y-103624000D01*
X121920000Y-121600000D02*
X121920000Y-121666000D01*
X115860000Y-106973173D02*
X115985000Y-106848173D01*
X108270000Y-116398000D02*
X110236000Y-118364000D01*
X111200173Y-115062000D02*
X110490000Y-115062000D01*
X125230000Y-102608000D02*
X124714000Y-103124000D01*
X126238500Y-100837500D02*
X127254000Y-99822000D01*
X109220000Y-121285000D02*
X107569000Y-121285000D01*
X126746000Y-103632000D02*
X126754000Y-103632000D01*
X115985000Y-106848173D02*
X115985000Y-105510000D01*
X126230000Y-103108000D02*
X126746000Y-103624000D01*
X113947500Y-113780000D02*
X112482173Y-113780000D01*
%TO.N,+3V3*%
X122122173Y-122936000D02*
X122970000Y-122088173D01*
X111386569Y-115512000D02*
X110990000Y-115512000D01*
X105918000Y-122174000D02*
X106680000Y-122936000D01*
X120675000Y-94615000D02*
X118110000Y-92050000D01*
X119441000Y-100899000D02*
X118105000Y-102235000D01*
X114935000Y-106360000D02*
X115062000Y-106426000D01*
X120675000Y-94615000D02*
X126975000Y-94615000D01*
X121732000Y-105664000D02*
X122272500Y-106204500D01*
X126711637Y-99060000D02*
X125230000Y-100541637D01*
X119890000Y-105920000D02*
X119765000Y-106045000D01*
X114835000Y-103285000D02*
X114393000Y-103285000D01*
X107253000Y-113415000D02*
X110170000Y-116332000D01*
X113885000Y-105310000D02*
X114935000Y-106360000D01*
X110170000Y-116332000D02*
X110961000Y-117123000D01*
X126975000Y-94615000D02*
X126975000Y-88195000D01*
X107945347Y-106167347D02*
X106045000Y-104267000D01*
X121732000Y-105347000D02*
X119890000Y-103505000D01*
X110961000Y-118664305D02*
X109737305Y-119888000D01*
X118110000Y-92050000D02*
X118110000Y-91440000D01*
X127004000Y-101850000D02*
X128270000Y-100584000D01*
X126975000Y-88195000D02*
X125775000Y-86995000D01*
X128270000Y-100584000D02*
X128270000Y-99568000D01*
X124582500Y-100965000D02*
X124967500Y-101350000D01*
X106680000Y-119888000D02*
X105918000Y-120650000D01*
X121732000Y-105664000D02*
X121732000Y-105347000D01*
X118105000Y-102235000D02*
X115885000Y-102235000D01*
X115360000Y-108867500D02*
X114935000Y-108442500D01*
X105918000Y-120650000D02*
X105918000Y-122174000D01*
X110319695Y-103793000D02*
X107945347Y-106167347D01*
X115885000Y-102235000D02*
X114835000Y-103285000D01*
X106680000Y-122936000D02*
X122122173Y-122936000D01*
X129220000Y-94615000D02*
X129540000Y-94295000D01*
X106045000Y-104267000D02*
X106045000Y-103782500D01*
X113885000Y-103793000D02*
X110319695Y-103793000D01*
X124710000Y-100837500D02*
X124582500Y-100965000D01*
X126975000Y-94615000D02*
X129220000Y-94615000D01*
X126492500Y-101850000D02*
X127004000Y-101850000D01*
X127762000Y-99060000D02*
X126711637Y-99060000D01*
X106040000Y-113415000D02*
X107253000Y-113415000D01*
X119441000Y-100899000D02*
X119890000Y-101348000D01*
X113885000Y-103793000D02*
X113885000Y-105310000D01*
X105918000Y-113293000D02*
X106040000Y-113415000D01*
X125725000Y-94615000D02*
X119441000Y-100899000D01*
X128270000Y-99568000D02*
X127762000Y-99060000D01*
X126975000Y-97495000D02*
X123505000Y-100965000D01*
X109737305Y-119888000D02*
X106680000Y-119888000D01*
X126975000Y-94615000D02*
X125725000Y-94615000D01*
X122272500Y-106204500D02*
X122272500Y-110280000D01*
X123505000Y-100965000D02*
X124582500Y-100965000D01*
X120860000Y-118640000D02*
X120860000Y-117192500D01*
X122970000Y-122088173D02*
X122970000Y-120750000D01*
X113947500Y-114280000D02*
X112618569Y-114280000D01*
X110990000Y-115512000D02*
X110170000Y-116332000D01*
X110961000Y-117123000D02*
X110961000Y-118664305D01*
X105918000Y-108194695D02*
X105918000Y-113293000D01*
X125230000Y-100541637D02*
X125230000Y-100837500D01*
X107945347Y-106167347D02*
X105918000Y-108194695D01*
X125230000Y-100837500D02*
X124710000Y-100837500D01*
X119890000Y-103505000D02*
X119890000Y-105920000D01*
X119890000Y-101348000D02*
X119890000Y-103505000D01*
X112618569Y-114280000D02*
X111386569Y-115512000D01*
X122970000Y-120750000D02*
X121920000Y-119700000D01*
X114935000Y-108442500D02*
X114935000Y-106360000D01*
X126975000Y-94615000D02*
X126975000Y-97495000D01*
X114393000Y-103285000D02*
X113885000Y-103793000D01*
%TO.N,Net-(U1-NRST)*%
X113943500Y-113284000D02*
X111440000Y-113284000D01*
X113947500Y-113280000D02*
X113943500Y-113284000D01*
%TO.N,/STM_32/SWDIO*%
X124460000Y-81026000D02*
X128778000Y-81026000D01*
X123952000Y-107442000D02*
X123952000Y-110540081D01*
X124250000Y-85852000D02*
X124250000Y-81236000D01*
X123212081Y-111280000D02*
X122272500Y-111280000D01*
X123952000Y-110540081D02*
X123212081Y-111280000D01*
X121875000Y-86995000D02*
X123107000Y-86995000D01*
X124250000Y-81236000D02*
X124460000Y-81026000D01*
X123107000Y-86995000D02*
X124250000Y-85852000D01*
%TO.N,/STM_32/SWCLK*%
X120860000Y-109670685D02*
X120860000Y-108867500D01*
X118924000Y-109930000D02*
X120600685Y-109930000D01*
X127799000Y-117311000D02*
X122281685Y-117311000D01*
X116840000Y-113792000D02*
X116840000Y-112014000D01*
X118110000Y-115062000D02*
X116840000Y-113792000D01*
X116840000Y-112014000D02*
X118924000Y-109930000D01*
X120032685Y-115062000D02*
X118110000Y-115062000D01*
X122281685Y-117311000D02*
X120032685Y-115062000D01*
X120600685Y-109930000D02*
X120860000Y-109670685D01*
X128016000Y-117094000D02*
X127799000Y-117311000D01*
%TO.N,Net-(D1-A)*%
X108460000Y-101957500D02*
X108585000Y-102082500D01*
X106045000Y-101957500D02*
X108460000Y-101957500D01*
%TO.N,Net-(D6-A)*%
X115570000Y-91945000D02*
X113385000Y-91945000D01*
X113385000Y-91945000D02*
X112880000Y-91440000D01*
X112880000Y-91440000D02*
X112880000Y-94637500D01*
X112880000Y-94637500D02*
X111627500Y-95890000D01*
%TO.N,Net-(U1-PD0)*%
X113144315Y-112280000D02*
X111402500Y-110538185D01*
X113947500Y-112280000D02*
X113144315Y-112280000D01*
X111402500Y-110538185D02*
X111402500Y-110490000D01*
%TO.N,Net-(R4-Pad2)*%
X109577500Y-110490000D02*
X107315000Y-110490000D01*
%TO.N,+5V*%
X105356827Y-101120000D02*
X105020000Y-101456827D01*
X107254598Y-122486000D02*
X113099000Y-122486000D01*
X120425000Y-96915000D02*
X116220000Y-101120000D01*
X115570000Y-94745000D02*
X115570000Y-95890000D01*
X118110000Y-94935000D02*
X120090000Y-96915000D01*
X106684299Y-121915701D02*
X107254598Y-122486000D01*
X120090000Y-96915000D02*
X120675000Y-96915000D01*
X115570000Y-94745000D02*
X117920000Y-94745000D01*
X117920000Y-94745000D02*
X118110000Y-94935000D01*
X115570000Y-95890000D02*
X113665000Y-97795000D01*
X113099000Y-122486000D02*
X114300000Y-121285000D01*
X113660000Y-97790000D02*
X113665000Y-97795000D01*
X105020000Y-101456827D02*
X105020000Y-119244000D01*
X120675000Y-96915000D02*
X120425000Y-96915000D01*
X111627500Y-97790000D02*
X113660000Y-97790000D01*
X105020000Y-119244000D02*
X105410000Y-119634000D01*
X116220000Y-101120000D02*
X105356827Y-101120000D01*
%TO.N,/LED_DI*%
X111760000Y-116664315D02*
X111760000Y-121285000D01*
X113144315Y-115280000D02*
X111760000Y-116664315D01*
X113947500Y-115280000D02*
X113144315Y-115280000D01*
%TO.N,/Baro Sensor/SCL*%
X122680000Y-102618000D02*
X122680000Y-99316000D01*
X121920000Y-103378000D02*
X122630173Y-103378000D01*
X124158173Y-101850000D02*
X124967500Y-101850000D01*
X121920000Y-103378000D02*
X122680000Y-102618000D01*
X118618000Y-105918000D02*
X118360000Y-106176000D01*
X122630173Y-103378000D02*
X124158173Y-101850000D01*
X118360000Y-106176000D02*
X118360000Y-108867500D01*
X122680000Y-99316000D02*
X122936000Y-99060000D01*
%TO.N,/Baro Sensor/SDA*%
X125730000Y-104140000D02*
X125730000Y-102362500D01*
X124968000Y-104902000D02*
X125730000Y-104140000D01*
X117860000Y-104515000D02*
X117860000Y-108867500D01*
X118870000Y-103505000D02*
X117860000Y-104515000D01*
%TO.N,Net-(J5-D-)*%
X125087000Y-111902000D02*
X124162000Y-111902000D01*
X124087000Y-111977000D02*
X124087000Y-115451000D01*
X124087000Y-115451000D02*
X124968000Y-116332000D01*
X124162000Y-111902000D02*
X124087000Y-111977000D01*
%TO.N,Net-(J5-D+)*%
X123444000Y-111970000D02*
X123444000Y-116332000D01*
X125087000Y-111252000D02*
X124162000Y-111252000D01*
X124162000Y-111252000D02*
X123444000Y-111970000D01*
X123444000Y-116332000D02*
X123190000Y-116586000D01*
%TO.N,/Power/VIN*%
X110475000Y-87795000D02*
X106830000Y-91440000D01*
X109736751Y-97790000D02*
X110490000Y-97036751D01*
X116824000Y-84762500D02*
X113791500Y-87795000D01*
X109352500Y-97790000D02*
X108585000Y-97790000D01*
X106830000Y-93367500D02*
X109352500Y-95890000D01*
X108585000Y-97790000D02*
X107630000Y-98745000D01*
X109736751Y-95890000D02*
X109352500Y-95890000D01*
X109352500Y-97790000D02*
X109736751Y-97790000D01*
X110490000Y-96643249D02*
X109736751Y-95890000D01*
X113791500Y-87795000D02*
X110475000Y-87795000D01*
X106830000Y-91440000D02*
X106830000Y-93367500D01*
X110490000Y-97036751D02*
X110490000Y-96643249D01*
%TO.N,Net-(D3-K)*%
X106934000Y-85090000D02*
X107797500Y-85090000D01*
X110430455Y-108144455D02*
X108712000Y-106426000D01*
X114046000Y-108712000D02*
X113478455Y-108144455D01*
X113478455Y-108144455D02*
X110430455Y-108144455D01*
%TO.N,Net-(D3-A)*%
X109372500Y-83310000D02*
X111125000Y-81557500D01*
X109372500Y-85090000D02*
X109372500Y-83310000D01*
%TO.N,Net-(D4-K)*%
X107670500Y-87122000D02*
X107797500Y-86995000D01*
X109728000Y-109220000D02*
X109474000Y-108966000D01*
X108712000Y-108204000D02*
X108712000Y-107696000D01*
X106426000Y-87122000D02*
X107670500Y-87122000D01*
X112776000Y-109220000D02*
X109728000Y-109220000D01*
X109474000Y-108966000D02*
X108712000Y-108204000D01*
%TO.N,Net-(U1-PD1)*%
X107315000Y-112890000D02*
X107971000Y-112234000D01*
X107971000Y-112234000D02*
X111980000Y-112234000D01*
X111980000Y-112234000D02*
X112526000Y-112780000D01*
X112526000Y-112780000D02*
X113947500Y-112780000D01*
%TO.N,Net-(D4-A)*%
X109497500Y-86995000D02*
X111125000Y-85367500D01*
X109372500Y-86995000D02*
X109497500Y-86995000D01*
%TO.N,/STM_32/M_TX*%
X118622000Y-113280000D02*
X122272500Y-113280000D01*
X118364000Y-113538000D02*
X118622000Y-113280000D01*
%TO.N,/STM_32/M_RX*%
X119888000Y-112522000D02*
X120146000Y-112780000D01*
X120146000Y-112780000D02*
X122272500Y-112780000D01*
%TO.N,Net-(J5-VUSB)*%
X125087000Y-112552000D02*
X125562000Y-112552000D01*
X125562000Y-112552000D02*
X126492000Y-113482000D01*
X126492000Y-113482000D02*
X126492000Y-116332000D01*
%TD*%
%TA.AperFunction,Conductor*%
%TO.N,GND*%
G36*
X130751621Y-78135502D02*
G01*
X130798114Y-78189158D01*
X130809500Y-78241500D01*
X130809499Y-91563335D01*
X130789497Y-91631456D01*
X130735841Y-91677949D01*
X130665567Y-91688053D01*
X130600987Y-91658559D01*
X130594403Y-91652430D01*
X130488339Y-91546365D01*
X130337522Y-91453340D01*
X130169327Y-91397606D01*
X130068692Y-91387325D01*
X130062303Y-91387000D01*
X129794000Y-91387000D01*
X129794000Y-92523000D01*
X129773998Y-92591121D01*
X129720342Y-92637614D01*
X129668000Y-92649000D01*
X129412000Y-92649000D01*
X129343879Y-92628998D01*
X129297386Y-92575342D01*
X129286000Y-92523000D01*
X129286000Y-91387000D01*
X129017697Y-91387000D01*
X129011307Y-91387325D01*
X128910672Y-91397606D01*
X128742477Y-91453340D01*
X128591657Y-91546367D01*
X128466367Y-91671657D01*
X128373340Y-91822477D01*
X128317606Y-91990672D01*
X128307325Y-92091307D01*
X128307000Y-92097697D01*
X128307000Y-92114636D01*
X128286998Y-92182757D01*
X128233342Y-92229250D01*
X128163068Y-92239354D01*
X128136968Y-92232692D01*
X128114580Y-92224341D01*
X128084201Y-92213011D01*
X128023638Y-92206500D01*
X128020269Y-92206500D01*
X127734500Y-92206500D01*
X127666379Y-92186498D01*
X127619886Y-92132842D01*
X127608500Y-92080500D01*
X127608500Y-88278853D01*
X127610795Y-88258063D01*
X127608562Y-88187013D01*
X127608500Y-88183054D01*
X127608500Y-88159107D01*
X127608500Y-88159106D01*
X127608500Y-88155144D01*
X127607994Y-88151147D01*
X127607061Y-88139297D01*
X127606905Y-88134323D01*
X127605673Y-88095110D01*
X127600020Y-88075656D01*
X127596012Y-88056298D01*
X127593474Y-88036203D01*
X127577190Y-87995077D01*
X127573359Y-87983888D01*
X127561018Y-87941407D01*
X127550704Y-87923968D01*
X127542008Y-87906216D01*
X127534552Y-87887383D01*
X127508571Y-87851624D01*
X127502050Y-87841698D01*
X127497936Y-87834742D01*
X127479542Y-87803637D01*
X127465213Y-87789308D01*
X127452376Y-87774278D01*
X127440472Y-87757893D01*
X127440471Y-87757892D01*
X127433824Y-87748743D01*
X127409966Y-87681875D01*
X127422222Y-87629172D01*
X127419557Y-87628178D01*
X127425886Y-87611206D01*
X127425889Y-87611204D01*
X127476989Y-87474201D01*
X127483500Y-87413638D01*
X127483500Y-86576362D01*
X127476989Y-86515799D01*
X127435033Y-86403313D01*
X127429969Y-86332501D01*
X127435035Y-86315251D01*
X127476494Y-86204095D01*
X127482640Y-86146936D01*
X127483000Y-86140222D01*
X127483000Y-85979000D01*
X125647000Y-85979000D01*
X125578879Y-85958998D01*
X125532386Y-85905342D01*
X125521000Y-85853000D01*
X125521000Y-84709000D01*
X126029000Y-84709000D01*
X126029000Y-85471000D01*
X127483000Y-85471000D01*
X127483000Y-85309777D01*
X127482640Y-85303063D01*
X127476494Y-85245906D01*
X127434768Y-85134031D01*
X127429704Y-85063215D01*
X127434768Y-85045967D01*
X127476494Y-84934093D01*
X127482640Y-84876936D01*
X127483000Y-84870222D01*
X127483000Y-84709000D01*
X126029000Y-84709000D01*
X125521000Y-84709000D01*
X125521000Y-84327000D01*
X125541002Y-84258879D01*
X125594658Y-84212386D01*
X125647000Y-84201000D01*
X127483000Y-84201000D01*
X127483000Y-84039777D01*
X127482640Y-84033063D01*
X127476494Y-83975908D01*
X127435034Y-83864748D01*
X127429969Y-83793932D01*
X127435035Y-83776682D01*
X127446763Y-83745238D01*
X127476989Y-83664201D01*
X127483500Y-83603638D01*
X127483500Y-82766362D01*
X127476989Y-82705799D01*
X127435033Y-82593313D01*
X127429969Y-82522501D01*
X127435035Y-82505251D01*
X127476494Y-82394095D01*
X127482640Y-82336936D01*
X127483000Y-82330222D01*
X127483000Y-82169000D01*
X125647000Y-82169000D01*
X125578879Y-82148998D01*
X125532386Y-82095342D01*
X125521000Y-82043000D01*
X125521000Y-81787000D01*
X125541002Y-81718879D01*
X125594658Y-81672386D01*
X125647000Y-81661000D01*
X127522737Y-81661000D01*
X127536691Y-81659500D01*
X128069800Y-81659500D01*
X128137921Y-81679502D01*
X128163435Y-81701188D01*
X128166746Y-81704866D01*
X128239230Y-81757528D01*
X128321248Y-81817118D01*
X128495712Y-81894794D01*
X128682513Y-81934500D01*
X128682515Y-81934500D01*
X128873485Y-81934500D01*
X128873487Y-81934500D01*
X129060288Y-81894794D01*
X129234752Y-81817118D01*
X129389253Y-81704866D01*
X129517040Y-81562944D01*
X129612527Y-81397556D01*
X129671542Y-81215928D01*
X129691504Y-81026000D01*
X129671542Y-80836072D01*
X129651373Y-80773999D01*
X129649346Y-80703031D01*
X129677568Y-80650754D01*
X129771040Y-80546944D01*
X129866527Y-80381556D01*
X129925542Y-80199928D01*
X129945504Y-80010000D01*
X129925542Y-79820072D01*
X129866527Y-79638444D01*
X129866527Y-79638443D01*
X129771041Y-79473057D01*
X129643252Y-79331133D01*
X129488753Y-79218883D01*
X129488752Y-79218882D01*
X129314288Y-79141206D01*
X129127487Y-79101500D01*
X128936513Y-79101500D01*
X128811979Y-79127970D01*
X128749711Y-79141206D01*
X128575246Y-79218883D01*
X128420746Y-79331133D01*
X128417435Y-79334812D01*
X128356988Y-79372051D01*
X128323800Y-79376500D01*
X121643853Y-79376500D01*
X121623063Y-79374204D01*
X121552001Y-79376438D01*
X121548043Y-79376500D01*
X121520144Y-79376500D01*
X121516219Y-79376995D01*
X121516198Y-79376997D01*
X121516124Y-79377007D01*
X121504313Y-79377936D01*
X121460108Y-79379325D01*
X121440651Y-79384978D01*
X121421301Y-79388986D01*
X121401202Y-79391525D01*
X121360093Y-79407802D01*
X121348865Y-79411646D01*
X121306408Y-79423981D01*
X121288964Y-79434297D01*
X121271217Y-79442990D01*
X121252384Y-79450446D01*
X121216611Y-79476437D01*
X121206693Y-79482951D01*
X121168639Y-79505457D01*
X121154312Y-79519783D01*
X121139283Y-79532618D01*
X121122894Y-79544525D01*
X121094701Y-79578604D01*
X121086713Y-79587381D01*
X119753336Y-80920757D01*
X119737016Y-80933833D01*
X119688370Y-80985635D01*
X119685621Y-80988472D01*
X119668667Y-81005427D01*
X119668660Y-81005434D01*
X119665865Y-81008230D01*
X119663442Y-81011352D01*
X119663426Y-81011371D01*
X119663365Y-81011451D01*
X119655689Y-81020436D01*
X119625414Y-81052677D01*
X119615652Y-81070434D01*
X119604801Y-81086952D01*
X119592385Y-81102959D01*
X119574824Y-81143539D01*
X119569604Y-81154195D01*
X119548304Y-81192940D01*
X119543267Y-81212559D01*
X119536864Y-81231261D01*
X119528818Y-81249855D01*
X119521901Y-81293524D01*
X119519495Y-81305144D01*
X119508500Y-81347969D01*
X119508500Y-81368223D01*
X119506949Y-81387933D01*
X119503779Y-81407942D01*
X119507941Y-81451961D01*
X119508500Y-81463819D01*
X119508500Y-84738147D01*
X119506204Y-84758935D01*
X119508438Y-84829984D01*
X119508500Y-84833943D01*
X119508500Y-84861856D01*
X119508995Y-84865774D01*
X119508997Y-84865806D01*
X119509008Y-84865888D01*
X119509937Y-84877697D01*
X119511326Y-84921892D01*
X119516977Y-84941341D01*
X119520986Y-84960696D01*
X119523525Y-84980794D01*
X119539801Y-85021903D01*
X119543644Y-85033130D01*
X119555980Y-85075590D01*
X119566294Y-85093030D01*
X119574987Y-85110774D01*
X119582448Y-85129617D01*
X119582449Y-85129619D01*
X119608431Y-85165380D01*
X119614948Y-85175301D01*
X119637458Y-85213363D01*
X119651778Y-85227683D01*
X119664618Y-85242716D01*
X119676526Y-85259105D01*
X119676527Y-85259106D01*
X119676528Y-85259107D01*
X119701698Y-85279929D01*
X119710598Y-85287292D01*
X119719378Y-85295282D01*
X120129595Y-85705499D01*
X120163621Y-85767811D01*
X120166500Y-85794593D01*
X120166500Y-86143638D01*
X120173011Y-86204201D01*
X120194156Y-86260894D01*
X120214698Y-86315968D01*
X120219762Y-86386784D01*
X120214698Y-86404032D01*
X120173011Y-86515799D01*
X120166500Y-86576362D01*
X120166500Y-87413638D01*
X120166860Y-87416986D01*
X120173011Y-87474200D01*
X120224111Y-87611205D01*
X120311738Y-87728261D01*
X120428794Y-87815888D01*
X120428795Y-87815888D01*
X120428796Y-87815889D01*
X120565799Y-87866989D01*
X120626362Y-87873500D01*
X120629731Y-87873500D01*
X123120269Y-87873500D01*
X123123638Y-87873500D01*
X123184201Y-87866989D01*
X123321204Y-87815889D01*
X123438261Y-87728261D01*
X123490153Y-87658942D01*
X123525888Y-87611206D01*
X123525889Y-87611204D01*
X123576989Y-87474201D01*
X123578656Y-87458692D01*
X123605822Y-87393102D01*
X123614829Y-87383073D01*
X123851406Y-87146497D01*
X123913717Y-87112473D01*
X123984533Y-87117538D01*
X124041368Y-87160085D01*
X124066179Y-87226606D01*
X124066500Y-87235594D01*
X124066500Y-87413638D01*
X124066860Y-87416986D01*
X124073011Y-87474200D01*
X124124111Y-87611205D01*
X124211738Y-87728261D01*
X124328794Y-87815888D01*
X124328795Y-87815888D01*
X124328796Y-87815889D01*
X124465799Y-87866989D01*
X124526362Y-87873500D01*
X125705406Y-87873500D01*
X125773527Y-87893502D01*
X125794501Y-87910405D01*
X126304595Y-88420499D01*
X126338621Y-88482811D01*
X126341500Y-88509594D01*
X126341500Y-92080500D01*
X126321498Y-92148621D01*
X126267842Y-92195114D01*
X126215500Y-92206500D01*
X125926362Y-92206500D01*
X125923013Y-92206859D01*
X125923013Y-92206860D01*
X125865799Y-92213011D01*
X125728794Y-92264111D01*
X125611738Y-92351738D01*
X125524111Y-92468794D01*
X125496196Y-92543638D01*
X125473011Y-92605799D01*
X125466500Y-92666362D01*
X125466500Y-92669729D01*
X125466500Y-92669730D01*
X125466500Y-93855500D01*
X125446498Y-93923621D01*
X125392842Y-93970114D01*
X125340500Y-93981500D01*
X122309500Y-93981500D01*
X122241379Y-93961498D01*
X122194886Y-93907842D01*
X122183500Y-93855500D01*
X122183500Y-93819730D01*
X122183500Y-93816362D01*
X122176989Y-93755799D01*
X122125889Y-93618796D01*
X122066971Y-93540091D01*
X122042161Y-93473572D01*
X122057252Y-93404198D01*
X122066972Y-93389074D01*
X122125445Y-93310962D01*
X122176494Y-93174093D01*
X122182640Y-93116936D01*
X122183000Y-93110222D01*
X122183000Y-92569000D01*
X120547000Y-92569000D01*
X120478879Y-92548998D01*
X120432386Y-92495342D01*
X120421000Y-92443000D01*
X120421000Y-91057000D01*
X120929000Y-91057000D01*
X120929000Y-92061000D01*
X122183000Y-92061000D01*
X122183000Y-91519777D01*
X122182640Y-91513063D01*
X122176494Y-91455906D01*
X122125445Y-91319037D01*
X122037904Y-91202095D01*
X121920962Y-91114554D01*
X121784093Y-91063505D01*
X121726936Y-91057359D01*
X121720223Y-91057000D01*
X120929000Y-91057000D01*
X120421000Y-91057000D01*
X119629777Y-91057000D01*
X119623063Y-91057359D01*
X119565906Y-91063505D01*
X119429037Y-91114554D01*
X119312095Y-91202095D01*
X119229694Y-91312171D01*
X119172858Y-91354718D01*
X119102043Y-91359782D01*
X119039731Y-91325757D01*
X119005705Y-91263445D01*
X119003567Y-91250150D01*
X118944527Y-91068443D01*
X118849041Y-90903057D01*
X118721252Y-90761133D01*
X118643433Y-90704594D01*
X118566752Y-90648882D01*
X118392288Y-90571206D01*
X118205487Y-90531500D01*
X118014513Y-90531500D01*
X117889979Y-90557970D01*
X117827711Y-90571206D01*
X117653246Y-90648883D01*
X117498747Y-90761133D01*
X117370958Y-90903057D01*
X117275472Y-91068443D01*
X117216458Y-91250070D01*
X117196496Y-91439999D01*
X117216458Y-91629929D01*
X117275472Y-91811556D01*
X117370958Y-91976942D01*
X117370960Y-91976944D01*
X117446644Y-92061000D01*
X117446760Y-92061128D01*
X117477477Y-92125136D01*
X117479062Y-92141477D01*
X117479326Y-92149891D01*
X117484977Y-92169341D01*
X117488986Y-92188696D01*
X117491525Y-92208794D01*
X117491525Y-92208796D01*
X117491526Y-92208797D01*
X117493194Y-92213011D01*
X117507801Y-92249903D01*
X117511644Y-92261130D01*
X117523980Y-92303590D01*
X117534294Y-92321030D01*
X117542987Y-92338774D01*
X117548121Y-92351739D01*
X117550449Y-92357619D01*
X117576431Y-92393380D01*
X117582948Y-92403301D01*
X117605458Y-92441363D01*
X117619778Y-92455683D01*
X117632618Y-92470716D01*
X117644526Y-92487105D01*
X117644527Y-92487106D01*
X117644528Y-92487107D01*
X117678598Y-92515292D01*
X117687378Y-92523282D01*
X118904579Y-93740483D01*
X118938605Y-93802795D01*
X118933540Y-93873610D01*
X118890993Y-93930446D01*
X118824473Y-93955257D01*
X118775852Y-93949183D01*
X118739423Y-93937112D01*
X118638746Y-93926826D01*
X118638725Y-93926824D01*
X118635545Y-93926500D01*
X118632339Y-93926500D01*
X117587661Y-93926500D01*
X117587641Y-93926500D01*
X117584456Y-93926501D01*
X117581279Y-93926825D01*
X117581270Y-93926826D01*
X117480573Y-93937113D01*
X117346620Y-93981500D01*
X117312262Y-93992885D01*
X117161626Y-94085799D01*
X117150371Y-94092741D01*
X117084224Y-94111500D01*
X116719058Y-94111500D01*
X116650937Y-94091498D01*
X116604444Y-94037842D01*
X116601002Y-94029532D01*
X116587333Y-93992885D01*
X116570889Y-93948796D01*
X116570888Y-93948794D01*
X116483261Y-93831738D01*
X116366205Y-93744111D01*
X116243917Y-93698500D01*
X116229201Y-93693011D01*
X116168638Y-93686500D01*
X114971362Y-93686500D01*
X114968013Y-93686859D01*
X114968013Y-93686860D01*
X114910799Y-93693011D01*
X114773794Y-93744111D01*
X114656738Y-93831738D01*
X114569111Y-93948794D01*
X114535898Y-94037842D01*
X114518011Y-94085799D01*
X114511500Y-94146362D01*
X114511500Y-95343638D01*
X114518011Y-95404201D01*
X114543561Y-95472702D01*
X114569111Y-95541205D01*
X114656737Y-95658260D01*
X114682786Y-95677760D01*
X114725332Y-95734596D01*
X114730396Y-95805412D01*
X114696371Y-95867723D01*
X114254324Y-96309770D01*
X113814498Y-96749596D01*
X113752186Y-96783621D01*
X113725403Y-96786500D01*
X113142661Y-96786500D01*
X113142641Y-96786500D01*
X113139456Y-96786501D01*
X113136279Y-96786825D01*
X113136270Y-96786826D01*
X113035573Y-96797113D01*
X112867262Y-96852885D01*
X112716346Y-96945971D01*
X112615893Y-97046424D01*
X112553581Y-97080449D01*
X112482765Y-97075383D01*
X112462659Y-97065782D01*
X112403601Y-97030855D01*
X112403600Y-97030854D01*
X112403599Y-97030854D01*
X112243832Y-96984438D01*
X112208958Y-96981693D01*
X112208950Y-96981692D01*
X112206502Y-96981500D01*
X112204033Y-96981500D01*
X111249500Y-96981500D01*
X111181379Y-96961498D01*
X111134886Y-96907842D01*
X111123500Y-96855500D01*
X111123500Y-96824500D01*
X111143502Y-96756379D01*
X111197158Y-96709886D01*
X111249500Y-96698500D01*
X112204033Y-96698500D01*
X112206502Y-96698500D01*
X112243831Y-96695562D01*
X112403601Y-96649145D01*
X112546807Y-96564453D01*
X112664453Y-96446807D01*
X112749145Y-96303601D01*
X112795562Y-96143831D01*
X112798500Y-96106502D01*
X112798500Y-95673498D01*
X112798392Y-95672128D01*
X112815669Y-95603424D01*
X112835159Y-95578243D01*
X113268658Y-95144744D01*
X113284979Y-95131670D01*
X113287014Y-95129502D01*
X113287018Y-95129500D01*
X113333676Y-95079812D01*
X113336368Y-95077034D01*
X113356134Y-95057270D01*
X113358601Y-95054088D01*
X113366308Y-95045062D01*
X113396586Y-95012821D01*
X113406343Y-94995070D01*
X113417199Y-94978543D01*
X113429613Y-94962541D01*
X113447172Y-94921961D01*
X113452392Y-94911309D01*
X113473694Y-94872561D01*
X113473695Y-94872560D01*
X113478732Y-94852939D01*
X113485138Y-94834230D01*
X113493181Y-94815645D01*
X113500096Y-94771976D01*
X113502496Y-94760381D01*
X113513500Y-94717530D01*
X113513500Y-94697269D01*
X113515051Y-94677558D01*
X113518219Y-94657555D01*
X113514059Y-94613545D01*
X113513500Y-94601688D01*
X113513500Y-93824500D01*
X113533502Y-93756379D01*
X113587158Y-93709886D01*
X113639500Y-93698500D01*
X114100269Y-93698500D01*
X114103638Y-93698500D01*
X114164201Y-93691989D01*
X114301204Y-93640889D01*
X114418261Y-93553261D01*
X114505889Y-93436204D01*
X114556989Y-93299201D01*
X114563500Y-93238638D01*
X114563499Y-93040180D01*
X114583502Y-92972059D01*
X114637158Y-92925566D01*
X114707432Y-92915462D01*
X114765009Y-92939312D01*
X114773794Y-92945888D01*
X114773795Y-92945888D01*
X114773796Y-92945889D01*
X114910799Y-92996989D01*
X114971362Y-93003500D01*
X114974731Y-93003500D01*
X116165269Y-93003500D01*
X116168638Y-93003500D01*
X116229201Y-92996989D01*
X116366204Y-92945889D01*
X116483261Y-92858261D01*
X116570889Y-92741204D01*
X116621989Y-92604201D01*
X116628500Y-92543638D01*
X116628500Y-91346362D01*
X116621989Y-91285799D01*
X116570889Y-91148796D01*
X116545256Y-91114554D01*
X116483261Y-91031738D01*
X116366205Y-90944111D01*
X116275291Y-90910202D01*
X116229201Y-90893011D01*
X116168638Y-90886500D01*
X114971362Y-90886500D01*
X114968013Y-90886859D01*
X114968013Y-90886860D01*
X114910799Y-90893011D01*
X114773792Y-90944112D01*
X114765006Y-90950689D01*
X114698486Y-90975498D01*
X114629112Y-90960405D01*
X114578911Y-90910202D01*
X114563500Y-90849819D01*
X114563500Y-89644730D01*
X114563500Y-89644729D01*
X114563500Y-89641362D01*
X114556989Y-89580799D01*
X114505889Y-89443796D01*
X114505888Y-89443794D01*
X114418261Y-89326738D01*
X114301205Y-89239111D01*
X114216554Y-89207538D01*
X114164201Y-89188011D01*
X114103638Y-89181500D01*
X111656362Y-89181500D01*
X111653013Y-89181859D01*
X111653013Y-89181860D01*
X111595799Y-89188011D01*
X111458794Y-89239111D01*
X111341738Y-89326738D01*
X111254111Y-89443794D01*
X111203010Y-89580799D01*
X111203011Y-89580799D01*
X111196500Y-89641362D01*
X111196500Y-93238638D01*
X111198220Y-93254641D01*
X111203011Y-93299200D01*
X111254111Y-93436205D01*
X111341738Y-93553261D01*
X111458794Y-93640888D01*
X111458795Y-93640888D01*
X111458796Y-93640889D01*
X111595799Y-93691989D01*
X111656362Y-93698500D01*
X112120500Y-93698500D01*
X112188621Y-93718502D01*
X112235114Y-93772158D01*
X112246500Y-93824500D01*
X112246500Y-94322905D01*
X112226498Y-94391026D01*
X112209595Y-94412000D01*
X111577000Y-95044595D01*
X111514688Y-95078621D01*
X111487905Y-95081500D01*
X111048498Y-95081500D01*
X111046050Y-95081692D01*
X111046041Y-95081693D01*
X111011167Y-95084438D01*
X110851400Y-95130854D01*
X110708189Y-95215549D01*
X110579291Y-95344448D01*
X110575810Y-95340967D01*
X110546498Y-95368307D01*
X110476641Y-95380974D01*
X110411025Y-95353862D01*
X110401865Y-95343291D01*
X110400709Y-95344448D01*
X110271810Y-95215549D01*
X110150878Y-95144030D01*
X110128601Y-95130855D01*
X110128600Y-95130854D01*
X110128599Y-95130854D01*
X109968832Y-95084438D01*
X109933958Y-95081693D01*
X109933950Y-95081692D01*
X109931502Y-95081500D01*
X109929033Y-95081500D01*
X109492094Y-95081500D01*
X109423973Y-95061498D01*
X109402999Y-95044595D01*
X108206362Y-93847957D01*
X108172336Y-93785645D01*
X108177401Y-93714829D01*
X108219948Y-93657994D01*
X108251018Y-93641028D01*
X108280717Y-93618796D01*
X108368261Y-93553261D01*
X108455889Y-93436204D01*
X108506989Y-93299201D01*
X108513500Y-93238638D01*
X108513500Y-90704590D01*
X108533501Y-90636473D01*
X108550399Y-90615504D01*
X110700499Y-88465405D01*
X110762811Y-88431379D01*
X110789594Y-88428500D01*
X113707647Y-88428500D01*
X113728435Y-88430795D01*
X113731407Y-88430701D01*
X113731409Y-88430702D01*
X113799485Y-88428562D01*
X113803445Y-88428500D01*
X113827394Y-88428500D01*
X113831356Y-88428500D01*
X113835356Y-88427994D01*
X113847199Y-88427061D01*
X113891389Y-88425673D01*
X113910838Y-88420021D01*
X113930198Y-88416012D01*
X113950297Y-88413474D01*
X113991415Y-88397193D01*
X114002617Y-88393357D01*
X114045093Y-88381018D01*
X114062539Y-88370699D01*
X114080280Y-88362009D01*
X114099117Y-88354552D01*
X114134892Y-88328558D01*
X114144803Y-88322048D01*
X114182862Y-88299542D01*
X114197191Y-88285212D01*
X114212219Y-88272377D01*
X114228607Y-88260472D01*
X114256803Y-88226386D01*
X114264772Y-88217630D01*
X116520498Y-85961905D01*
X116582811Y-85927879D01*
X116609594Y-85925000D01*
X117523269Y-85925000D01*
X117526638Y-85925000D01*
X117587201Y-85918489D01*
X117724204Y-85867389D01*
X117841261Y-85779761D01*
X117928889Y-85662704D01*
X117979989Y-85525701D01*
X117986500Y-85465138D01*
X117986500Y-84059862D01*
X117979989Y-83999299D01*
X117928889Y-83862296D01*
X117928888Y-83862294D01*
X117841261Y-83745238D01*
X117724205Y-83657611D01*
X117655702Y-83632061D01*
X117587201Y-83606511D01*
X117526638Y-83600000D01*
X116121362Y-83600000D01*
X116118013Y-83600359D01*
X116118013Y-83600360D01*
X116060799Y-83606511D01*
X115923794Y-83657611D01*
X115806738Y-83745238D01*
X115738294Y-83836670D01*
X115681459Y-83879217D01*
X115610643Y-83884282D01*
X115552541Y-83854276D01*
X115527263Y-83831232D01*
X115344168Y-83717864D01*
X115143359Y-83640071D01*
X114931673Y-83600500D01*
X114716327Y-83600500D01*
X114504640Y-83640071D01*
X114303833Y-83717864D01*
X114201769Y-83781059D01*
X114784483Y-84363772D01*
X114698852Y-84377335D01*
X114585955Y-84434859D01*
X114496359Y-84524455D01*
X114438835Y-84637352D01*
X114425273Y-84722981D01*
X113839834Y-84137543D01*
X113831815Y-84148164D01*
X113735823Y-84340942D01*
X113676891Y-84548069D01*
X113657021Y-84762499D01*
X113676891Y-84976930D01*
X113735823Y-85184057D01*
X113831815Y-85376836D01*
X113839833Y-85387454D01*
X114425272Y-84802016D01*
X114438835Y-84887648D01*
X114496359Y-85000545D01*
X114585955Y-85090141D01*
X114698852Y-85147665D01*
X114784480Y-85161226D01*
X114201768Y-85743939D01*
X114303831Y-85807135D01*
X114504640Y-85884928D01*
X114523288Y-85888414D01*
X114586573Y-85920593D01*
X114622415Y-85981878D01*
X114619434Y-86052812D01*
X114589230Y-86101364D01*
X113566000Y-87124595D01*
X113503688Y-87158620D01*
X113476905Y-87161500D01*
X110558849Y-87161500D01*
X110538056Y-87159204D01*
X110537250Y-87159230D01*
X110536485Y-87159031D01*
X110531365Y-87158466D01*
X110519558Y-87155827D01*
X110519810Y-87154697D01*
X110468536Y-87141373D01*
X110420384Y-87089202D01*
X110408082Y-87019279D01*
X110435536Y-86953805D01*
X110444186Y-86944216D01*
X110963001Y-86425401D01*
X111025311Y-86391378D01*
X111052094Y-86388499D01*
X111622338Y-86388499D01*
X111625544Y-86388499D01*
X111729426Y-86377887D01*
X111897738Y-86322115D01*
X112048652Y-86229030D01*
X112174030Y-86103652D01*
X112267115Y-85952738D01*
X112322887Y-85784426D01*
X112333500Y-85680545D01*
X112333499Y-85054456D01*
X112322887Y-84950574D01*
X112267115Y-84782262D01*
X112174030Y-84631348D01*
X112086775Y-84544093D01*
X112052752Y-84481784D01*
X112057816Y-84410968D01*
X112086775Y-84365906D01*
X112174030Y-84278652D01*
X112267115Y-84127738D01*
X112322887Y-83959426D01*
X112333500Y-83855545D01*
X112333499Y-83229456D01*
X112322887Y-83125574D01*
X112267115Y-82957262D01*
X112174030Y-82806348D01*
X112174028Y-82806346D01*
X112174027Y-82806344D01*
X112048654Y-82680971D01*
X112010181Y-82657241D01*
X111962702Y-82604456D01*
X111951299Y-82534381D01*
X111979591Y-82469265D01*
X112010181Y-82442759D01*
X112048652Y-82419030D01*
X112174030Y-82293652D01*
X112267115Y-82142738D01*
X112322887Y-81974426D01*
X112333500Y-81870545D01*
X112333499Y-81244456D01*
X112322887Y-81140574D01*
X112267115Y-80972262D01*
X112174030Y-80821348D01*
X112086775Y-80734093D01*
X112052752Y-80671784D01*
X112057816Y-80600968D01*
X112086775Y-80555906D01*
X112174030Y-80468652D01*
X112267115Y-80317738D01*
X112322887Y-80149426D01*
X112333500Y-80045545D01*
X112333499Y-79419456D01*
X112322887Y-79315574D01*
X112267115Y-79147262D01*
X112174030Y-78996348D01*
X112174028Y-78996346D01*
X112174027Y-78996344D01*
X112048655Y-78870972D01*
X112048652Y-78870970D01*
X111897738Y-78777885D01*
X111729426Y-78722113D01*
X111729423Y-78722112D01*
X111729421Y-78722112D01*
X111628746Y-78711826D01*
X111628725Y-78711824D01*
X111625545Y-78711500D01*
X111622339Y-78711500D01*
X110627661Y-78711500D01*
X110627641Y-78711500D01*
X110624456Y-78711501D01*
X110621279Y-78711825D01*
X110621270Y-78711826D01*
X110520573Y-78722113D01*
X110352262Y-78777885D01*
X110201344Y-78870972D01*
X110075972Y-78996344D01*
X110024829Y-79079259D01*
X109982885Y-79147262D01*
X109927113Y-79315574D01*
X109927112Y-79315578D01*
X109916826Y-79416253D01*
X109916825Y-79416270D01*
X109916500Y-79419455D01*
X109916500Y-79422659D01*
X109916500Y-79422660D01*
X109916500Y-80042338D01*
X109916500Y-80042357D01*
X109916501Y-80045544D01*
X109927113Y-80149426D01*
X109982885Y-80317738D01*
X110075970Y-80468652D01*
X110075972Y-80468655D01*
X110163222Y-80555905D01*
X110197248Y-80618217D01*
X110192183Y-80689032D01*
X110163222Y-80734095D01*
X110075972Y-80821344D01*
X110066889Y-80836070D01*
X109982885Y-80972262D01*
X109927113Y-81140574D01*
X109927112Y-81140578D01*
X109916826Y-81241253D01*
X109916825Y-81241270D01*
X109916500Y-81244455D01*
X109916500Y-81247660D01*
X109916500Y-81817903D01*
X109896498Y-81886024D01*
X109879595Y-81906998D01*
X108983836Y-82802757D01*
X108967516Y-82815833D01*
X108918870Y-82867635D01*
X108916121Y-82870472D01*
X108899167Y-82887427D01*
X108899160Y-82887434D01*
X108896365Y-82890230D01*
X108893942Y-82893352D01*
X108893926Y-82893371D01*
X108893865Y-82893451D01*
X108886189Y-82902436D01*
X108855914Y-82934677D01*
X108846152Y-82952434D01*
X108835301Y-82968952D01*
X108822885Y-82984959D01*
X108805324Y-83025539D01*
X108800104Y-83036195D01*
X108778804Y-83074940D01*
X108773767Y-83094559D01*
X108767364Y-83113261D01*
X108759318Y-83131855D01*
X108752401Y-83175524D01*
X108749995Y-83187144D01*
X108739000Y-83229969D01*
X108739000Y-83250223D01*
X108737449Y-83269933D01*
X108734279Y-83289942D01*
X108738441Y-83333961D01*
X108739000Y-83345819D01*
X108739000Y-84167821D01*
X108718998Y-84235942D01*
X108702094Y-84256918D01*
X108674093Y-84284918D01*
X108611780Y-84318942D01*
X108540964Y-84313876D01*
X108495904Y-84284916D01*
X108470390Y-84259402D01*
X108325689Y-84170149D01*
X108164313Y-84116675D01*
X108067912Y-84106826D01*
X108067891Y-84106824D01*
X108064711Y-84106500D01*
X108061505Y-84106500D01*
X107533495Y-84106500D01*
X107533475Y-84106500D01*
X107530290Y-84106501D01*
X107527111Y-84106825D01*
X107527106Y-84106826D01*
X107430696Y-84116675D01*
X107430686Y-84116676D01*
X107269308Y-84170151D01*
X107269306Y-84170151D01*
X107269306Y-84170152D01*
X107237123Y-84190002D01*
X107168643Y-84208737D01*
X107144783Y-84206006D01*
X107056560Y-84187254D01*
X107029487Y-84181500D01*
X106838513Y-84181500D01*
X106723222Y-84206006D01*
X106651711Y-84221206D01*
X106477246Y-84298883D01*
X106322747Y-84411133D01*
X106194958Y-84553057D01*
X106099472Y-84718443D01*
X106040458Y-84900070D01*
X106022010Y-85075593D01*
X106020496Y-85090000D01*
X106021711Y-85101563D01*
X106040458Y-85279929D01*
X106099472Y-85461556D01*
X106194958Y-85626942D01*
X106300303Y-85743939D01*
X106322747Y-85768866D01*
X106477248Y-85881118D01*
X106651712Y-85958794D01*
X106838513Y-85998500D01*
X106838515Y-85998500D01*
X106986322Y-85998500D01*
X107054443Y-86018502D01*
X107100936Y-86072158D01*
X107111040Y-86142432D01*
X107081546Y-86207012D01*
X107075417Y-86213596D01*
X106996142Y-86292870D01*
X106933829Y-86326895D01*
X106863014Y-86321829D01*
X106855799Y-86318881D01*
X106708290Y-86253207D01*
X106708288Y-86253206D01*
X106521487Y-86213500D01*
X106330513Y-86213500D01*
X106257465Y-86229027D01*
X106143711Y-86253206D01*
X106004356Y-86315251D01*
X105989582Y-86321829D01*
X105969246Y-86330883D01*
X105814747Y-86443133D01*
X105686958Y-86585057D01*
X105591472Y-86750443D01*
X105532458Y-86932070D01*
X105512496Y-87122000D01*
X105532458Y-87311929D01*
X105591472Y-87493556D01*
X105686958Y-87658942D01*
X105790807Y-87774278D01*
X105814747Y-87800866D01*
X105969248Y-87913118D01*
X106143712Y-87990794D01*
X106330513Y-88030500D01*
X106330515Y-88030500D01*
X106521485Y-88030500D01*
X106521487Y-88030500D01*
X106708288Y-87990794D01*
X106882752Y-87913118D01*
X106990627Y-87834741D01*
X107057493Y-87810884D01*
X107126645Y-87826964D01*
X107130827Y-87829433D01*
X107266498Y-87913116D01*
X107269310Y-87914850D01*
X107430686Y-87968324D01*
X107527087Y-87978173D01*
X107527089Y-87978173D01*
X107530289Y-87978500D01*
X108064710Y-87978499D01*
X108164314Y-87968324D01*
X108325692Y-87914849D01*
X108470387Y-87825600D01*
X108495905Y-87800081D01*
X108558215Y-87766057D01*
X108629031Y-87771121D01*
X108674094Y-87800081D01*
X108699613Y-87825600D01*
X108841502Y-87913118D01*
X108844310Y-87914850D01*
X109005682Y-87968323D01*
X109005683Y-87968323D01*
X109005686Y-87968324D01*
X109104902Y-87978460D01*
X109170636Y-88005283D01*
X109211435Y-88063386D01*
X109214344Y-88134323D01*
X109181190Y-88192903D01*
X108221731Y-89152362D01*
X108159419Y-89186388D01*
X108119168Y-89188545D01*
X108056988Y-89181860D01*
X108056985Y-89181859D01*
X108053638Y-89181500D01*
X105606362Y-89181500D01*
X105603013Y-89181859D01*
X105603013Y-89181860D01*
X105545799Y-89188011D01*
X105408794Y-89239111D01*
X105291738Y-89326738D01*
X105204111Y-89443794D01*
X105153010Y-89580799D01*
X105153011Y-89580799D01*
X105146500Y-89641362D01*
X105146500Y-93238638D01*
X105148220Y-93254641D01*
X105153011Y-93299200D01*
X105204111Y-93436205D01*
X105291738Y-93553261D01*
X105408794Y-93640888D01*
X105408795Y-93640888D01*
X105408796Y-93640889D01*
X105545799Y-93691989D01*
X105606362Y-93698500D01*
X106217891Y-93698500D01*
X106286012Y-93718502D01*
X106314127Y-93747681D01*
X106314202Y-93747607D01*
X106339778Y-93773183D01*
X106352618Y-93788216D01*
X106364526Y-93804605D01*
X106364527Y-93804606D01*
X106364528Y-93804607D01*
X106382809Y-93819730D01*
X106398598Y-93832792D01*
X106407378Y-93840782D01*
X108144836Y-95578240D01*
X108178862Y-95640552D01*
X108181620Y-95671973D01*
X108181500Y-95673498D01*
X108181500Y-96106502D01*
X108181692Y-96108950D01*
X108181693Y-96108958D01*
X108184438Y-96143831D01*
X108230854Y-96303599D01*
X108235296Y-96318886D01*
X108234064Y-96319243D01*
X108246985Y-96370166D01*
X108234971Y-96411087D01*
X108235759Y-96411316D01*
X108185007Y-96586000D01*
X108435158Y-96586000D01*
X108499297Y-96603547D01*
X108576399Y-96649145D01*
X108736169Y-96695562D01*
X108773498Y-96698500D01*
X109480500Y-96698500D01*
X109548621Y-96718502D01*
X109595114Y-96772158D01*
X109606500Y-96824500D01*
X109606500Y-96855500D01*
X109586498Y-96923621D01*
X109532842Y-96970114D01*
X109480500Y-96981500D01*
X108773498Y-96981500D01*
X108771050Y-96981692D01*
X108771041Y-96981693D01*
X108736167Y-96984438D01*
X108576397Y-97030855D01*
X108499297Y-97076453D01*
X108435158Y-97094000D01*
X108185007Y-97094000D01*
X108209133Y-97177044D01*
X108208930Y-97248041D01*
X108170376Y-97307657D01*
X108162202Y-97314129D01*
X108147895Y-97324524D01*
X108119701Y-97358604D01*
X108111713Y-97367381D01*
X108004499Y-97474595D01*
X107942187Y-97508621D01*
X107915404Y-97511500D01*
X107332661Y-97511500D01*
X107332641Y-97511500D01*
X107329456Y-97511501D01*
X107326279Y-97511825D01*
X107326270Y-97511826D01*
X107225573Y-97522113D01*
X107057262Y-97577885D01*
X106906344Y-97670972D01*
X106770556Y-97806761D01*
X106767735Y-97803940D01*
X106734126Y-97834152D01*
X106664047Y-97845534D01*
X106598940Y-97817222D01*
X106589639Y-97806483D01*
X106589049Y-97807074D01*
X106453342Y-97671367D01*
X106302522Y-97578340D01*
X106134327Y-97522606D01*
X106033692Y-97512325D01*
X106027303Y-97512000D01*
X105984000Y-97512000D01*
X105984000Y-99978000D01*
X106027303Y-99978000D01*
X106033692Y-99977674D01*
X106134327Y-99967393D01*
X106302522Y-99911659D01*
X106453342Y-99818632D01*
X106589049Y-99682926D01*
X106591945Y-99685822D01*
X106625205Y-99655884D01*
X106695276Y-99644454D01*
X106760403Y-99672721D01*
X106770001Y-99683793D01*
X106770556Y-99683239D01*
X106906344Y-99819027D01*
X106906346Y-99819028D01*
X106906348Y-99819030D01*
X107057262Y-99912115D01*
X107225574Y-99967887D01*
X107301637Y-99975658D01*
X107326253Y-99978173D01*
X107326255Y-99978173D01*
X107329455Y-99978500D01*
X107930544Y-99978499D01*
X108034426Y-99967887D01*
X108202738Y-99912115D01*
X108353652Y-99819030D01*
X108479030Y-99693652D01*
X108572115Y-99542738D01*
X108627887Y-99374426D01*
X108638500Y-99270545D01*
X108638499Y-98724145D01*
X108658501Y-98656025D01*
X108712156Y-98609532D01*
X108769452Y-98598243D01*
X108771012Y-98598304D01*
X108773498Y-98598500D01*
X108775985Y-98598500D01*
X109929033Y-98598500D01*
X109931502Y-98598500D01*
X109968831Y-98595562D01*
X110128601Y-98549145D01*
X110271807Y-98464453D01*
X110329762Y-98406498D01*
X110400709Y-98335552D01*
X110404192Y-98339035D01*
X110433353Y-98311767D01*
X110503194Y-98299008D01*
X110568845Y-98326033D01*
X110578113Y-98336729D01*
X110579291Y-98335552D01*
X110708189Y-98464450D01*
X110708191Y-98464451D01*
X110708193Y-98464453D01*
X110851399Y-98549145D01*
X111011169Y-98595562D01*
X111048498Y-98598500D01*
X111050967Y-98598500D01*
X112204033Y-98598500D01*
X112206502Y-98598500D01*
X112243831Y-98595562D01*
X112403601Y-98549145D01*
X112456377Y-98517933D01*
X112525190Y-98500474D01*
X112592521Y-98522990D01*
X112609609Y-98537292D01*
X112726761Y-98654444D01*
X112723939Y-98657265D01*
X112754139Y-98690844D01*
X112765538Y-98760920D01*
X112737243Y-98826034D01*
X112726481Y-98835358D01*
X112727074Y-98835951D01*
X112591367Y-98971657D01*
X112498340Y-99122477D01*
X112442606Y-99290672D01*
X112432325Y-99391307D01*
X112432000Y-99397697D01*
X112432000Y-99441000D01*
X114898000Y-99441000D01*
X114898000Y-99397697D01*
X114897674Y-99391307D01*
X114887393Y-99290672D01*
X114831659Y-99122477D01*
X114738632Y-98971657D01*
X114602926Y-98835951D01*
X114605821Y-98833055D01*
X114575869Y-98799761D01*
X114564458Y-98729687D01*
X114592744Y-98664569D01*
X114603791Y-98654996D01*
X114603239Y-98654444D01*
X114739027Y-98518655D01*
X114739026Y-98518655D01*
X114739030Y-98518652D01*
X114832115Y-98367738D01*
X114887887Y-98199426D01*
X114898500Y-98095545D01*
X114898499Y-97509593D01*
X114918501Y-97441473D01*
X114935404Y-97420499D01*
X115266903Y-97089000D01*
X116877000Y-97089000D01*
X116877000Y-97132302D01*
X116877325Y-97138692D01*
X116887606Y-97239327D01*
X116943340Y-97407522D01*
X117036367Y-97558342D01*
X117161657Y-97683632D01*
X117312477Y-97776659D01*
X117480672Y-97832393D01*
X117581307Y-97842674D01*
X117587697Y-97843000D01*
X117856000Y-97843000D01*
X117856000Y-97089000D01*
X116877000Y-97089000D01*
X115266903Y-97089000D01*
X115409933Y-96945970D01*
X115958658Y-96397245D01*
X115974980Y-96384169D01*
X115977014Y-96382001D01*
X115977018Y-96382000D01*
X116023661Y-96332328D01*
X116026353Y-96329550D01*
X116046135Y-96309770D01*
X116048613Y-96306574D01*
X116056308Y-96297563D01*
X116086586Y-96265321D01*
X116096342Y-96247571D01*
X116107195Y-96231050D01*
X116119614Y-96215041D01*
X116137175Y-96174454D01*
X116142388Y-96163813D01*
X116163695Y-96125060D01*
X116168733Y-96105434D01*
X116175137Y-96086732D01*
X116183181Y-96068145D01*
X116190096Y-96024481D01*
X116192504Y-96012853D01*
X116199785Y-95984499D01*
X116203500Y-95970030D01*
X116203500Y-95949775D01*
X116205051Y-95930063D01*
X116208220Y-95910057D01*
X116207700Y-95904557D01*
X116221202Y-95834857D01*
X116270244Y-95783521D01*
X116289106Y-95774645D01*
X116366204Y-95745889D01*
X116483261Y-95658261D01*
X116570889Y-95541204D01*
X116601002Y-95460467D01*
X116643549Y-95403632D01*
X116710069Y-95378821D01*
X116719058Y-95378500D01*
X116809075Y-95378500D01*
X116877196Y-95398502D01*
X116923689Y-95452158D01*
X116928675Y-95464856D01*
X116942885Y-95507738D01*
X117024806Y-95640552D01*
X117035972Y-95658655D01*
X117171761Y-95794444D01*
X117168939Y-95797265D01*
X117199139Y-95830844D01*
X117210538Y-95900920D01*
X117182243Y-95966034D01*
X117171481Y-95975358D01*
X117172074Y-95975951D01*
X117036367Y-96111657D01*
X116943340Y-96262477D01*
X116887606Y-96430672D01*
X116877325Y-96531307D01*
X116877000Y-96537697D01*
X116877000Y-96581000D01*
X118238000Y-96581000D01*
X118306121Y-96601002D01*
X118352614Y-96654658D01*
X118364000Y-96707000D01*
X118364000Y-97843001D01*
X118393452Y-97872453D01*
X118427478Y-97934765D01*
X118422413Y-98005580D01*
X118393452Y-98050643D01*
X115994500Y-100449595D01*
X115932188Y-100483621D01*
X115905405Y-100486500D01*
X114922351Y-100486500D01*
X114854230Y-100466498D01*
X114807737Y-100412842D01*
X114797633Y-100342568D01*
X114815110Y-100294354D01*
X114831658Y-100267524D01*
X114887393Y-100099327D01*
X114897674Y-99998692D01*
X114898000Y-99992302D01*
X114898000Y-99949000D01*
X112432000Y-99949000D01*
X112432000Y-99992302D01*
X112432325Y-99998692D01*
X112442606Y-100099327D01*
X112498341Y-100267524D01*
X112514890Y-100294354D01*
X112533627Y-100362833D01*
X112512367Y-100430572D01*
X112457860Y-100476063D01*
X112407649Y-100486500D01*
X105440680Y-100486500D01*
X105419891Y-100484204D01*
X105348841Y-100486438D01*
X105344882Y-100486500D01*
X105316971Y-100486500D01*
X105313045Y-100486995D01*
X105313027Y-100486997D01*
X105312935Y-100487009D01*
X105301130Y-100487937D01*
X105256937Y-100489326D01*
X105237484Y-100494978D01*
X105218130Y-100498986D01*
X105198031Y-100501525D01*
X105156923Y-100517801D01*
X105145697Y-100521644D01*
X105103235Y-100533981D01*
X105085791Y-100544297D01*
X105068042Y-100552991D01*
X105049211Y-100560446D01*
X105013452Y-100586427D01*
X105003533Y-100592942D01*
X104965141Y-100615648D01*
X104896325Y-100633109D01*
X104828994Y-100610594D01*
X104784523Y-100555250D01*
X104775000Y-100507196D01*
X104775000Y-99891165D01*
X104795002Y-99823044D01*
X104848658Y-99776551D01*
X104918932Y-99766447D01*
X104983512Y-99795941D01*
X104990095Y-99802070D01*
X105006657Y-99818632D01*
X105157477Y-99911659D01*
X105325672Y-99967393D01*
X105426307Y-99977674D01*
X105432697Y-99978000D01*
X105476000Y-99978000D01*
X105476000Y-97512000D01*
X105432697Y-97512000D01*
X105426307Y-97512325D01*
X105325672Y-97522606D01*
X105157477Y-97578340D01*
X105006657Y-97671367D01*
X104990095Y-97687930D01*
X104927783Y-97721956D01*
X104856968Y-97716891D01*
X104800132Y-97674344D01*
X104775321Y-97607824D01*
X104775000Y-97598835D01*
X104775000Y-80772000D01*
X105658592Y-80772000D01*
X105660322Y-80795080D01*
X105678198Y-81033631D01*
X105736580Y-81289417D01*
X105767509Y-81368223D01*
X105832432Y-81533643D01*
X105963614Y-81760857D01*
X106127195Y-81965981D01*
X106319521Y-82144433D01*
X106319523Y-82144434D01*
X106319525Y-82144436D01*
X106338854Y-82157614D01*
X106536296Y-82292228D01*
X106629133Y-82336936D01*
X106772676Y-82406063D01*
X106814715Y-82419030D01*
X107023385Y-82483396D01*
X107282818Y-82522500D01*
X107282820Y-82522500D01*
X107545180Y-82522500D01*
X107545182Y-82522500D01*
X107804615Y-82483396D01*
X108055323Y-82406063D01*
X108291704Y-82292228D01*
X108508479Y-82144433D01*
X108700805Y-81965981D01*
X108864386Y-81760857D01*
X108995568Y-81533643D01*
X109091420Y-81289416D01*
X109149802Y-81033630D01*
X109169408Y-80772000D01*
X109149802Y-80510370D01*
X109091420Y-80254584D01*
X108995568Y-80010357D01*
X108864386Y-79783143D01*
X108700805Y-79578019D01*
X108508479Y-79399567D01*
X108508476Y-79399565D01*
X108508474Y-79399563D01*
X108291704Y-79251772D01*
X108055323Y-79137936D01*
X107804618Y-79060605D01*
X107804615Y-79060604D01*
X107545182Y-79021500D01*
X107282818Y-79021500D01*
X107023385Y-79060604D01*
X107023382Y-79060604D01*
X107023381Y-79060605D01*
X106772676Y-79137936D01*
X106536295Y-79251772D01*
X106319525Y-79399563D01*
X106293209Y-79423981D01*
X106127195Y-79578019D01*
X106079008Y-79638444D01*
X105963612Y-79783146D01*
X105832432Y-80010356D01*
X105736580Y-80254582D01*
X105678198Y-80510368D01*
X105660690Y-80744000D01*
X105658592Y-80772000D01*
X104775000Y-80772000D01*
X104775000Y-78241500D01*
X104795002Y-78173379D01*
X104848658Y-78126886D01*
X104901000Y-78115500D01*
X130683500Y-78115500D01*
X130751621Y-78135502D01*
G37*
%TD.AperFunction*%
%TA.AperFunction,Conductor*%
G36*
X130727532Y-95009317D02*
G01*
X130784368Y-95051864D01*
X130809179Y-95118384D01*
X130809500Y-95127373D01*
X130809500Y-123063500D01*
X130789498Y-123131621D01*
X130735842Y-123178114D01*
X130683500Y-123189500D01*
X123068768Y-123189500D01*
X123000647Y-123169498D01*
X122954154Y-123115842D01*
X122944050Y-123045568D01*
X122973544Y-122980988D01*
X122979672Y-122974405D01*
X123078021Y-122876054D01*
X123358660Y-122595415D01*
X123374981Y-122582341D01*
X123377015Y-122580174D01*
X123377018Y-122580173D01*
X123423676Y-122530485D01*
X123426368Y-122527707D01*
X123446134Y-122507943D01*
X123448601Y-122504761D01*
X123456308Y-122495735D01*
X123486586Y-122463494D01*
X123496343Y-122445743D01*
X123507199Y-122429216D01*
X123519613Y-122413214D01*
X123537172Y-122372634D01*
X123542392Y-122361982D01*
X123558437Y-122332797D01*
X123563695Y-122323233D01*
X123568732Y-122303612D01*
X123575138Y-122284903D01*
X123579903Y-122273892D01*
X123583181Y-122266318D01*
X123590096Y-122222649D01*
X123592496Y-122211054D01*
X123603500Y-122168203D01*
X123603500Y-122147942D01*
X123605051Y-122128231D01*
X123608219Y-122108230D01*
X123604059Y-122064218D01*
X123603500Y-122052361D01*
X123603500Y-120833853D01*
X123605795Y-120813063D01*
X123605343Y-120798689D01*
X123603562Y-120742013D01*
X123603500Y-120738054D01*
X123603500Y-120714107D01*
X123603500Y-120714106D01*
X123603500Y-120710144D01*
X123602994Y-120706147D01*
X123602061Y-120694297D01*
X123600673Y-120650110D01*
X123595020Y-120630656D01*
X123591012Y-120611298D01*
X123588474Y-120591203D01*
X123572190Y-120550077D01*
X123568359Y-120538888D01*
X123556018Y-120496407D01*
X123545704Y-120478968D01*
X123537008Y-120461216D01*
X123535996Y-120458659D01*
X123529552Y-120442383D01*
X123503571Y-120406624D01*
X123497050Y-120396698D01*
X123494592Y-120392542D01*
X123474542Y-120358637D01*
X123460213Y-120344308D01*
X123447376Y-120329277D01*
X123435473Y-120312893D01*
X123401406Y-120284711D01*
X123392626Y-120276721D01*
X123190404Y-120074499D01*
X123156378Y-120012187D01*
X123153499Y-119985413D01*
X123153499Y-119399456D01*
X123142887Y-119295574D01*
X123087115Y-119127262D01*
X122994030Y-118976348D01*
X122994028Y-118976346D01*
X122994027Y-118976344D01*
X122868655Y-118850972D01*
X122823409Y-118823064D01*
X122717738Y-118757885D01*
X122549426Y-118702113D01*
X122549423Y-118702112D01*
X122549421Y-118702112D01*
X122448746Y-118691826D01*
X122448725Y-118691824D01*
X122445545Y-118691500D01*
X122442340Y-118691500D01*
X121657525Y-118691500D01*
X121589404Y-118671498D01*
X121542911Y-118617842D01*
X121542293Y-118616468D01*
X121504268Y-118530498D01*
X121493500Y-118479530D01*
X121493500Y-118056484D01*
X121503091Y-118008266D01*
X121503481Y-118007323D01*
X121504506Y-117999538D01*
X121518500Y-117893244D01*
X121518500Y-117747909D01*
X121538502Y-117679788D01*
X121592158Y-117633295D01*
X121662432Y-117623191D01*
X121727012Y-117652685D01*
X121733595Y-117658814D01*
X121774436Y-117699655D01*
X121787520Y-117715985D01*
X121839351Y-117764657D01*
X121842194Y-117767413D01*
X121861915Y-117787134D01*
X121865036Y-117789555D01*
X121865044Y-117789562D01*
X121865110Y-117789613D01*
X121874130Y-117797317D01*
X121906364Y-117827586D01*
X121924120Y-117837347D01*
X121940636Y-117848196D01*
X121956644Y-117860613D01*
X121997210Y-117878167D01*
X122007873Y-117883391D01*
X122046620Y-117904693D01*
X122046622Y-117904693D01*
X122046625Y-117904695D01*
X122066259Y-117909736D01*
X122084944Y-117916134D01*
X122103540Y-117924181D01*
X122147215Y-117931098D01*
X122158810Y-117933498D01*
X122201655Y-117944500D01*
X122221909Y-117944500D01*
X122241619Y-117946051D01*
X122261627Y-117949220D01*
X122261627Y-117949219D01*
X122261628Y-117949220D01*
X122305646Y-117945058D01*
X122317504Y-117944500D01*
X127033893Y-117944500D01*
X127102014Y-117964502D01*
X127148507Y-118018158D01*
X127158611Y-118088432D01*
X127129117Y-118153012D01*
X127071032Y-118190902D01*
X126866676Y-118253936D01*
X126630295Y-118367772D01*
X126413525Y-118515563D01*
X126370455Y-118555525D01*
X126221195Y-118694019D01*
X126067186Y-118887140D01*
X126057612Y-118899146D01*
X125926432Y-119126356D01*
X125830580Y-119370582D01*
X125772198Y-119626368D01*
X125752592Y-119888000D01*
X125772198Y-120149631D01*
X125830580Y-120405417D01*
X125910797Y-120609805D01*
X125926432Y-120649643D01*
X126057614Y-120876857D01*
X126221195Y-121081981D01*
X126413521Y-121260433D01*
X126413523Y-121260434D01*
X126413525Y-121260436D01*
X126449554Y-121285000D01*
X126630296Y-121408228D01*
X126752841Y-121467242D01*
X126866676Y-121522063D01*
X126938259Y-121544143D01*
X127117385Y-121599396D01*
X127376818Y-121638500D01*
X127376820Y-121638500D01*
X127639180Y-121638500D01*
X127639182Y-121638500D01*
X127898615Y-121599396D01*
X128149323Y-121522063D01*
X128385704Y-121408228D01*
X128602479Y-121260433D01*
X128794805Y-121081981D01*
X128958386Y-120876857D01*
X129089568Y-120649643D01*
X129185420Y-120405416D01*
X129243802Y-120149630D01*
X129263408Y-119888000D01*
X129243802Y-119626370D01*
X129185420Y-119370584D01*
X129089568Y-119126357D01*
X128958386Y-118899143D01*
X128794805Y-118694019D01*
X128602479Y-118515567D01*
X128602476Y-118515565D01*
X128602474Y-118515563D01*
X128385704Y-118367772D01*
X128149324Y-118253937D01*
X128114473Y-118243187D01*
X128055275Y-118203994D01*
X128026663Y-118139018D01*
X128037722Y-118068888D01*
X128084941Y-118015870D01*
X128125409Y-117999540D01*
X128298288Y-117962794D01*
X128472752Y-117885118D01*
X128627253Y-117772866D01*
X128755040Y-117630944D01*
X128850527Y-117465556D01*
X128909542Y-117283928D01*
X128929504Y-117094000D01*
X128909542Y-116904072D01*
X128850527Y-116722444D01*
X128850527Y-116722443D01*
X128755041Y-116557057D01*
X128648292Y-116438500D01*
X128627253Y-116415134D01*
X128585704Y-116384947D01*
X128512829Y-116332000D01*
X128472752Y-116302882D01*
X128298288Y-116225206D01*
X128111487Y-116185500D01*
X127920513Y-116185500D01*
X127733712Y-116225206D01*
X127733710Y-116225206D01*
X127733709Y-116225207D01*
X127567883Y-116299037D01*
X127497516Y-116308471D01*
X127433219Y-116278364D01*
X127395406Y-116218275D01*
X127391326Y-116197109D01*
X127385542Y-116142072D01*
X127327143Y-115962339D01*
X127326527Y-115960443D01*
X127231039Y-115795054D01*
X127164190Y-115720810D01*
X127133472Y-115656803D01*
X127142237Y-115586349D01*
X127187700Y-115531818D01*
X127255427Y-115510523D01*
X127257826Y-115510500D01*
X128257408Y-115510500D01*
X128260608Y-115510500D01*
X128405940Y-115495721D01*
X128591939Y-115437363D01*
X128762384Y-115342759D01*
X128910297Y-115215780D01*
X129029620Y-115061627D01*
X129115471Y-114886609D01*
X129164333Y-114697892D01*
X129174206Y-114503202D01*
X129144687Y-114310511D01*
X129076983Y-114127705D01*
X129050617Y-114085405D01*
X128983595Y-113977878D01*
X128964536Y-113909487D01*
X128985477Y-113841649D01*
X129015012Y-113810362D01*
X129075261Y-113765261D01*
X129107603Y-113722058D01*
X129162888Y-113648205D01*
X129162887Y-113648205D01*
X129162889Y-113648204D01*
X129213989Y-113511201D01*
X129220500Y-113450638D01*
X129220500Y-111453362D01*
X129213989Y-111392799D01*
X129177895Y-111296030D01*
X129172830Y-111225217D01*
X129177890Y-111207984D01*
X129213989Y-111111201D01*
X129220500Y-111050638D01*
X129220500Y-109053362D01*
X129213989Y-108992799D01*
X129162889Y-108855796D01*
X129162888Y-108855794D01*
X129075262Y-108738739D01*
X129013064Y-108692178D01*
X128970518Y-108635342D01*
X128965454Y-108564526D01*
X128988934Y-108514188D01*
X129029620Y-108461627D01*
X129115471Y-108286609D01*
X129164333Y-108097892D01*
X129174206Y-107903202D01*
X129144687Y-107710511D01*
X129076983Y-107527705D01*
X128973867Y-107362271D01*
X128839560Y-107220980D01*
X128727235Y-107142799D01*
X128679562Y-107109617D01*
X128500417Y-107032740D01*
X128309470Y-106993500D01*
X127263392Y-106993500D01*
X127260216Y-106993822D01*
X127260195Y-106993824D01*
X127118064Y-107008278D01*
X127118061Y-107008278D01*
X127118060Y-107008279D01*
X127069551Y-107023499D01*
X126932059Y-107066637D01*
X126761616Y-107161240D01*
X126716276Y-107200163D01*
X126651559Y-107229357D01*
X126581333Y-107218929D01*
X126527892Y-107172188D01*
X126516148Y-107148590D01*
X126513989Y-107142802D01*
X126513989Y-107142799D01*
X126462889Y-107005796D01*
X126462888Y-107005794D01*
X126375261Y-106888738D01*
X126258205Y-106801111D01*
X126189702Y-106775561D01*
X126121201Y-106750011D01*
X126060638Y-106743500D01*
X124625492Y-106743500D01*
X124557371Y-106723498D01*
X124510878Y-106669842D01*
X124500774Y-106599568D01*
X124518251Y-106551353D01*
X124573659Y-106461522D01*
X124629393Y-106293327D01*
X124639674Y-106192692D01*
X124640000Y-106186302D01*
X124640000Y-105916674D01*
X124660002Y-105848553D01*
X124713658Y-105802060D01*
X124783932Y-105791956D01*
X124792185Y-105793425D01*
X124839468Y-105803476D01*
X124872512Y-105810500D01*
X124872513Y-105810500D01*
X125063485Y-105810500D01*
X125063487Y-105810500D01*
X125250288Y-105770794D01*
X125424752Y-105693118D01*
X125579253Y-105580866D01*
X125707040Y-105438944D01*
X125802527Y-105273556D01*
X125861542Y-105091928D01*
X125878907Y-104926704D01*
X125905919Y-104861051D01*
X125915112Y-104850791D01*
X126118659Y-104647243D01*
X126134977Y-104634172D01*
X126137014Y-104632002D01*
X126137018Y-104632000D01*
X126183661Y-104582328D01*
X126186353Y-104579550D01*
X126206135Y-104559770D01*
X126208613Y-104556574D01*
X126216308Y-104547563D01*
X126246586Y-104515321D01*
X126256342Y-104497571D01*
X126267195Y-104481050D01*
X126279614Y-104465041D01*
X126297175Y-104424454D01*
X126302388Y-104413813D01*
X126323695Y-104375060D01*
X126328733Y-104355434D01*
X126335137Y-104336732D01*
X126338017Y-104330077D01*
X126343181Y-104318145D01*
X126350096Y-104274481D01*
X126352504Y-104262853D01*
X126358065Y-104241195D01*
X126363500Y-104220030D01*
X126363500Y-104199775D01*
X126365051Y-104180063D01*
X126366019Y-104173952D01*
X126368220Y-104160057D01*
X126364056Y-104116016D01*
X126363499Y-104104200D01*
X126363499Y-103192580D01*
X126383501Y-103124461D01*
X126437157Y-103077968D01*
X126472839Y-103067721D01*
X126617819Y-103007669D01*
X126742215Y-102912215D01*
X126837669Y-102787819D01*
X126897673Y-102642955D01*
X126904243Y-102593054D01*
X126932965Y-102528127D01*
X126992231Y-102489035D01*
X127029165Y-102483500D01*
X127039894Y-102483500D01*
X127043856Y-102483500D01*
X127047856Y-102482994D01*
X127059699Y-102482061D01*
X127103889Y-102480673D01*
X127123338Y-102475021D01*
X127142698Y-102471012D01*
X127162797Y-102468474D01*
X127203915Y-102452193D01*
X127215117Y-102448357D01*
X127257593Y-102436018D01*
X127275039Y-102425699D01*
X127292780Y-102417009D01*
X127311617Y-102409552D01*
X127347392Y-102383558D01*
X127357303Y-102377048D01*
X127395362Y-102354542D01*
X127409691Y-102340212D01*
X127424719Y-102327377D01*
X127441107Y-102315472D01*
X127469303Y-102281386D01*
X127477272Y-102272630D01*
X128658658Y-101091244D01*
X128674979Y-101078170D01*
X128677014Y-101076002D01*
X128677018Y-101076000D01*
X128723676Y-101026312D01*
X128726368Y-101023534D01*
X128746134Y-101003770D01*
X128748601Y-101000588D01*
X128756308Y-100991562D01*
X128786586Y-100959321D01*
X128796343Y-100941570D01*
X128807199Y-100925043D01*
X128819613Y-100909041D01*
X128837172Y-100868461D01*
X128842392Y-100857809D01*
X128859206Y-100827225D01*
X128863695Y-100819060D01*
X128868732Y-100799439D01*
X128875138Y-100780730D01*
X128883181Y-100762145D01*
X128890096Y-100718476D01*
X128892496Y-100706881D01*
X128903500Y-100664030D01*
X128903500Y-100643769D01*
X128905051Y-100624058D01*
X128906413Y-100615458D01*
X128908219Y-100604057D01*
X128907168Y-100592942D01*
X128904059Y-100560045D01*
X128903500Y-100548188D01*
X128903500Y-99651848D01*
X128905794Y-99631070D01*
X128905700Y-99628093D01*
X128905701Y-99628091D01*
X128903562Y-99560031D01*
X128903500Y-99556073D01*
X128903500Y-99532100D01*
X128903500Y-99528144D01*
X128902993Y-99524134D01*
X128902061Y-99512295D01*
X128900673Y-99468110D01*
X128895020Y-99448656D01*
X128891012Y-99429299D01*
X128888474Y-99409203D01*
X128872197Y-99368092D01*
X128868358Y-99356882D01*
X128856018Y-99314406D01*
X128845700Y-99296961D01*
X128837008Y-99279216D01*
X128829552Y-99260383D01*
X128821956Y-99249928D01*
X128803564Y-99224613D01*
X128797046Y-99214690D01*
X128787659Y-99198818D01*
X128774542Y-99176637D01*
X128760213Y-99162308D01*
X128747376Y-99147277D01*
X128735473Y-99130893D01*
X128701406Y-99102711D01*
X128692626Y-99094721D01*
X128269244Y-98671339D01*
X128256171Y-98655021D01*
X128232087Y-98632405D01*
X128204348Y-98606356D01*
X128201506Y-98603601D01*
X128184574Y-98586669D01*
X128181770Y-98583865D01*
X128178575Y-98581386D01*
X128169554Y-98573682D01*
X128137320Y-98543413D01*
X128119567Y-98533653D01*
X128103041Y-98522797D01*
X128087041Y-98510386D01*
X128046466Y-98492828D01*
X128035804Y-98487604D01*
X127997063Y-98466305D01*
X127983313Y-98462775D01*
X127977437Y-98461266D01*
X127958731Y-98454862D01*
X127940145Y-98446819D01*
X127896475Y-98439902D01*
X127884853Y-98437495D01*
X127842030Y-98426500D01*
X127842029Y-98426500D01*
X127821776Y-98426500D01*
X127802066Y-98424949D01*
X127782057Y-98421779D01*
X127738039Y-98425941D01*
X127726181Y-98426500D01*
X127243596Y-98426500D01*
X127175475Y-98406498D01*
X127128982Y-98352842D01*
X127118878Y-98282568D01*
X127148372Y-98217988D01*
X127154500Y-98211405D01*
X127273565Y-98092339D01*
X127363661Y-98002242D01*
X127379977Y-97989172D01*
X127382014Y-97987002D01*
X127382018Y-97987000D01*
X127428660Y-97937329D01*
X127431352Y-97934551D01*
X127451135Y-97914770D01*
X127453613Y-97911574D01*
X127461308Y-97902563D01*
X127491586Y-97870321D01*
X127501342Y-97852571D01*
X127512195Y-97836050D01*
X127524614Y-97820041D01*
X127542175Y-97779454D01*
X127547388Y-97768813D01*
X127568695Y-97730060D01*
X127573733Y-97710434D01*
X127580137Y-97691732D01*
X127581782Y-97687930D01*
X127588181Y-97673145D01*
X127595096Y-97629481D01*
X127597504Y-97617853D01*
X127600079Y-97607824D01*
X127608500Y-97575030D01*
X127608500Y-97554774D01*
X127610051Y-97535063D01*
X127613220Y-97515057D01*
X127609059Y-97471036D01*
X127608500Y-97459179D01*
X127608500Y-97149500D01*
X127628502Y-97081379D01*
X127682158Y-97034886D01*
X127734500Y-97023500D01*
X128020269Y-97023500D01*
X128023638Y-97023500D01*
X128084201Y-97016989D01*
X128221204Y-96965889D01*
X128338261Y-96878261D01*
X128425889Y-96761204D01*
X128476989Y-96624201D01*
X128483500Y-96563638D01*
X128483500Y-95374500D01*
X128503502Y-95306379D01*
X128557158Y-95259886D01*
X128609500Y-95248500D01*
X128756287Y-95248500D01*
X128795919Y-95254895D01*
X128910574Y-95292887D01*
X128971693Y-95299131D01*
X129011253Y-95303173D01*
X129011255Y-95303173D01*
X129014455Y-95303500D01*
X130065544Y-95303499D01*
X130169426Y-95292887D01*
X130337738Y-95237115D01*
X130488652Y-95144030D01*
X130514298Y-95118384D01*
X130594405Y-95038278D01*
X130656717Y-95004252D01*
X130727532Y-95009317D01*
G37*
%TD.AperFunction*%
%TA.AperFunction,Conductor*%
G36*
X105810827Y-114010206D02*
G01*
X105824560Y-114013732D01*
X105843267Y-114020137D01*
X105849880Y-114022998D01*
X105861854Y-114028181D01*
X105872505Y-114029867D01*
X105905530Y-114035098D01*
X105917125Y-114037498D01*
X105959970Y-114048500D01*
X105980224Y-114048500D01*
X105999934Y-114050051D01*
X106019942Y-114053220D01*
X106019942Y-114053219D01*
X106019943Y-114053220D01*
X106063961Y-114049058D01*
X106075819Y-114048500D01*
X106938406Y-114048500D01*
X107006527Y-114068502D01*
X107027501Y-114085405D01*
X107860956Y-114918860D01*
X107894982Y-114981172D01*
X107889917Y-115051987D01*
X107847370Y-115108823D01*
X107811495Y-115127559D01*
X107697476Y-115165341D01*
X107546657Y-115258367D01*
X107421367Y-115383657D01*
X107328340Y-115534477D01*
X107272606Y-115702672D01*
X107262325Y-115803307D01*
X107262000Y-115809697D01*
X107262000Y-116078000D01*
X108398000Y-116078000D01*
X108466121Y-116098002D01*
X108512614Y-116151658D01*
X108524000Y-116204000D01*
X108524000Y-117565000D01*
X108567303Y-117565000D01*
X108573692Y-117564674D01*
X108674327Y-117554393D01*
X108842522Y-117498659D01*
X108993342Y-117405632D01*
X109129049Y-117269926D01*
X109131945Y-117272822D01*
X109165205Y-117242884D01*
X109235276Y-117231454D01*
X109300403Y-117259721D01*
X109310001Y-117270793D01*
X109310556Y-117270239D01*
X109446344Y-117406027D01*
X109446346Y-117406028D01*
X109446348Y-117406030D01*
X109597262Y-117499115D01*
X109765574Y-117554887D01*
X109841637Y-117562658D01*
X109866253Y-117565173D01*
X109866255Y-117565173D01*
X109869455Y-117565500D01*
X110201499Y-117565499D01*
X110269619Y-117585501D01*
X110316112Y-117639156D01*
X110327499Y-117691499D01*
X110327500Y-118349710D01*
X110307498Y-118417831D01*
X110290595Y-118438805D01*
X109511805Y-119217595D01*
X109449493Y-119251621D01*
X109422710Y-119254500D01*
X106763854Y-119254500D01*
X106743064Y-119252204D01*
X106672002Y-119254438D01*
X106668044Y-119254500D01*
X106640144Y-119254500D01*
X106636219Y-119254995D01*
X106636198Y-119254997D01*
X106636124Y-119255007D01*
X106624313Y-119255936D01*
X106580108Y-119257325D01*
X106560651Y-119262978D01*
X106541301Y-119266986D01*
X106521202Y-119269525D01*
X106480093Y-119285802D01*
X106468865Y-119289646D01*
X106426405Y-119301982D01*
X106417424Y-119307293D01*
X106348606Y-119324747D01*
X106281277Y-119302224D01*
X106244175Y-119261834D01*
X106149041Y-119097057D01*
X106040354Y-118976348D01*
X106021253Y-118955134D01*
X105866752Y-118842882D01*
X105728250Y-118781217D01*
X105674155Y-118735238D01*
X105653506Y-118667310D01*
X105653500Y-118666111D01*
X105653500Y-116586000D01*
X107262000Y-116586000D01*
X107262000Y-116854302D01*
X107262325Y-116860692D01*
X107272606Y-116961327D01*
X107328340Y-117129522D01*
X107421367Y-117280342D01*
X107546657Y-117405632D01*
X107697477Y-117498659D01*
X107865672Y-117554393D01*
X107966307Y-117564674D01*
X107972697Y-117565000D01*
X108016000Y-117565000D01*
X108016000Y-116586000D01*
X107262000Y-116586000D01*
X105653500Y-116586000D01*
X105653500Y-114132249D01*
X105673502Y-114064128D01*
X105727158Y-114017635D01*
X105797432Y-114007531D01*
X105810827Y-114010206D01*
G37*
%TD.AperFunction*%
%TA.AperFunction,Conductor*%
G36*
X113039436Y-116384947D02*
G01*
X113043622Y-116386594D01*
X113132675Y-116423481D01*
X113132676Y-116423481D01*
X113246756Y-116438500D01*
X113250878Y-116438500D01*
X114575500Y-116438500D01*
X114643621Y-116458502D01*
X114690114Y-116512158D01*
X114701500Y-116564500D01*
X114701500Y-117893244D01*
X114702037Y-117897329D01*
X114702038Y-117897331D01*
X114716518Y-118007323D01*
X114775314Y-118149269D01*
X114868842Y-118271157D01*
X114990730Y-118364685D01*
X114990731Y-118364685D01*
X114990732Y-118364686D01*
X115132676Y-118423481D01*
X115246756Y-118438500D01*
X115250878Y-118438500D01*
X115469122Y-118438500D01*
X115473244Y-118438500D01*
X115573076Y-118425356D01*
X115593554Y-118422661D01*
X115626446Y-118422661D01*
X115649615Y-118425711D01*
X115746756Y-118438500D01*
X115750878Y-118438500D01*
X115969122Y-118438500D01*
X115973244Y-118438500D01*
X116073076Y-118425356D01*
X116093554Y-118422661D01*
X116126446Y-118422661D01*
X116149615Y-118425711D01*
X116246756Y-118438500D01*
X116250878Y-118438500D01*
X116469122Y-118438500D01*
X116473244Y-118438500D01*
X116573076Y-118425356D01*
X116593554Y-118422661D01*
X116626446Y-118422661D01*
X116649615Y-118425711D01*
X116746756Y-118438500D01*
X116750878Y-118438500D01*
X116969122Y-118438500D01*
X116973244Y-118438500D01*
X117073076Y-118425356D01*
X117093554Y-118422661D01*
X117126446Y-118422661D01*
X117149615Y-118425711D01*
X117246756Y-118438500D01*
X117250878Y-118438500D01*
X117469122Y-118438500D01*
X117473244Y-118438500D01*
X117573076Y-118425356D01*
X117593554Y-118422661D01*
X117626446Y-118422661D01*
X117649615Y-118425711D01*
X117746756Y-118438500D01*
X117750878Y-118438500D01*
X117969122Y-118438500D01*
X117973244Y-118438500D01*
X118073076Y-118425356D01*
X118093554Y-118422661D01*
X118126446Y-118422661D01*
X118149615Y-118425711D01*
X118246756Y-118438500D01*
X118250878Y-118438500D01*
X118469122Y-118438500D01*
X118473244Y-118438500D01*
X118573076Y-118425356D01*
X118593554Y-118422661D01*
X118626446Y-118422661D01*
X118649615Y-118425711D01*
X118746756Y-118438500D01*
X118750878Y-118438500D01*
X118969122Y-118438500D01*
X118973244Y-118438500D01*
X119073076Y-118425356D01*
X119093554Y-118422661D01*
X119126446Y-118422661D01*
X119149615Y-118425711D01*
X119246756Y-118438500D01*
X119250878Y-118438500D01*
X119469122Y-118438500D01*
X119473244Y-118438500D01*
X119573076Y-118425356D01*
X119593554Y-118422661D01*
X119626446Y-118422661D01*
X119649615Y-118425711D01*
X119746756Y-118438500D01*
X119750878Y-118438500D01*
X119969122Y-118438500D01*
X119973244Y-118438500D01*
X120084055Y-118423911D01*
X120154202Y-118434850D01*
X120207301Y-118481978D01*
X120226500Y-118548835D01*
X120226499Y-118607242D01*
X120226031Y-118618088D01*
X120221961Y-118665182D01*
X120232656Y-118729372D01*
X120233375Y-118734285D01*
X120241593Y-118799329D01*
X120248055Y-118822580D01*
X120274583Y-118882556D01*
X120276504Y-118887140D01*
X120300646Y-118948117D01*
X120313308Y-118970111D01*
X120548443Y-119501718D01*
X120557706Y-119572108D01*
X120553045Y-119591622D01*
X120518457Y-119698070D01*
X120505230Y-119823928D01*
X120498496Y-119888000D01*
X120506437Y-119963556D01*
X120518458Y-120077929D01*
X120577472Y-120259556D01*
X120672958Y-120424942D01*
X120776358Y-120539779D01*
X120800747Y-120566866D01*
X120875444Y-120621137D01*
X120887247Y-120629712D01*
X120930601Y-120685934D01*
X120936676Y-120756670D01*
X120903545Y-120819462D01*
X120902282Y-120820743D01*
X120846366Y-120876659D01*
X120753340Y-121027477D01*
X120697606Y-121195672D01*
X120687325Y-121296307D01*
X120687000Y-121302697D01*
X120687000Y-121346000D01*
X122048000Y-121346000D01*
X122116121Y-121366002D01*
X122162614Y-121419658D01*
X122174000Y-121472000D01*
X122174000Y-121728000D01*
X122153998Y-121796121D01*
X122100342Y-121842614D01*
X122048000Y-121854000D01*
X120687000Y-121854000D01*
X120687000Y-121897302D01*
X120687325Y-121903692D01*
X120697606Y-122004327D01*
X120741526Y-122136867D01*
X120743967Y-122207822D01*
X120707659Y-122268832D01*
X120644130Y-122300527D01*
X120621922Y-122302500D01*
X115490798Y-122302500D01*
X115422677Y-122282498D01*
X115376184Y-122228842D01*
X115366080Y-122158568D01*
X115385314Y-122107585D01*
X115498860Y-121933791D01*
X115589296Y-121727616D01*
X115644564Y-121509368D01*
X115663156Y-121285000D01*
X115644564Y-121060632D01*
X115589296Y-120842384D01*
X115498860Y-120636209D01*
X115375722Y-120447732D01*
X115223240Y-120282094D01*
X115223239Y-120282093D01*
X115223237Y-120282091D01*
X115045578Y-120143812D01*
X114847573Y-120036657D01*
X114698276Y-119985404D01*
X114634635Y-119963556D01*
X114412569Y-119926500D01*
X114187431Y-119926500D01*
X113965365Y-119963556D01*
X113965362Y-119963556D01*
X113965362Y-119963557D01*
X113752426Y-120036657D01*
X113554421Y-120143812D01*
X113376762Y-120282091D01*
X113224278Y-120447731D01*
X113135483Y-120583643D01*
X113081479Y-120629731D01*
X113011131Y-120639306D01*
X112946774Y-120609328D01*
X112924517Y-120583643D01*
X112913556Y-120566866D01*
X112835722Y-120447732D01*
X112683240Y-120282094D01*
X112683239Y-120282093D01*
X112683237Y-120282091D01*
X112505576Y-120143811D01*
X112459529Y-120118891D01*
X112409139Y-120068878D01*
X112393499Y-120008081D01*
X112393499Y-116978907D01*
X112413501Y-116910787D01*
X112430399Y-116889818D01*
X112906311Y-116413906D01*
X112968621Y-116379882D01*
X113039436Y-116384947D01*
G37*
%TD.AperFunction*%
%TA.AperFunction,Conductor*%
G36*
X107804121Y-120541502D02*
G01*
X107850614Y-120595158D01*
X107862000Y-120647500D01*
X107862000Y-121031000D01*
X108788884Y-121031000D01*
X108760507Y-121075156D01*
X108720000Y-121213111D01*
X108720000Y-121356889D01*
X108760507Y-121494844D01*
X108788884Y-121539000D01*
X107862000Y-121539000D01*
X107862000Y-121726500D01*
X107841998Y-121794621D01*
X107788342Y-121841114D01*
X107736000Y-121852500D01*
X107704612Y-121852500D01*
X107636491Y-121832498D01*
X107589998Y-121778842D01*
X107579302Y-121739671D01*
X107577841Y-121725772D01*
X107536778Y-121599396D01*
X107518826Y-121544145D01*
X107498750Y-121509372D01*
X107423340Y-121378758D01*
X107295551Y-121236834D01*
X107141052Y-121124584D01*
X107141051Y-121124583D01*
X106966587Y-121046907D01*
X106779786Y-121007201D01*
X106760894Y-121007201D01*
X106692773Y-120987199D01*
X106646280Y-120933543D01*
X106636176Y-120863269D01*
X106665670Y-120798689D01*
X106671799Y-120792105D01*
X106905501Y-120558404D01*
X106967813Y-120524379D01*
X106994596Y-120521500D01*
X107736000Y-120521500D01*
X107804121Y-120541502D01*
G37*
%TD.AperFunction*%
%TA.AperFunction,Conductor*%
G36*
X109736121Y-113050002D02*
G01*
X109782614Y-113103658D01*
X109794000Y-113156000D01*
X109794000Y-114517000D01*
X109837303Y-114517000D01*
X109843692Y-114516674D01*
X109944327Y-114506393D01*
X110112522Y-114450659D01*
X110263342Y-114357632D01*
X110399049Y-114221926D01*
X110401945Y-114224822D01*
X110435205Y-114194884D01*
X110505276Y-114183454D01*
X110570403Y-114211721D01*
X110580001Y-114222793D01*
X110580556Y-114222239D01*
X110716344Y-114358027D01*
X110716346Y-114358028D01*
X110716348Y-114358030D01*
X110867262Y-114451115D01*
X111035574Y-114506887D01*
X111111637Y-114514658D01*
X111136253Y-114517173D01*
X111136255Y-114517173D01*
X111139455Y-114517500D01*
X111180973Y-114517499D01*
X111249092Y-114537499D01*
X111295586Y-114591154D01*
X111305692Y-114661428D01*
X111276200Y-114726009D01*
X111270069Y-114732594D01*
X111161412Y-114841251D01*
X111099100Y-114875277D01*
X111065982Y-114875183D01*
X111066002Y-114875798D01*
X111050091Y-114876298D01*
X110986785Y-114878288D01*
X110982014Y-114878438D01*
X110978055Y-114878500D01*
X110950144Y-114878500D01*
X110946218Y-114878995D01*
X110946200Y-114878997D01*
X110946108Y-114879009D01*
X110934303Y-114879937D01*
X110890110Y-114881326D01*
X110870657Y-114886978D01*
X110851303Y-114890986D01*
X110831202Y-114893525D01*
X110790098Y-114909800D01*
X110778869Y-114913645D01*
X110736405Y-114925982D01*
X110718964Y-114936296D01*
X110701217Y-114944990D01*
X110682384Y-114952447D01*
X110646611Y-114978437D01*
X110636693Y-114984951D01*
X110598639Y-115007457D01*
X110584312Y-115021783D01*
X110569283Y-115034618D01*
X110552895Y-115046524D01*
X110547690Y-115052817D01*
X110488855Y-115092554D01*
X110450606Y-115098500D01*
X109884594Y-115098500D01*
X109816473Y-115078498D01*
X109795499Y-115061595D01*
X109322904Y-114589000D01*
X109288878Y-114526688D01*
X109285999Y-114499905D01*
X109286000Y-113156000D01*
X109306002Y-113087879D01*
X109359658Y-113041386D01*
X109412000Y-113030000D01*
X109668000Y-113030000D01*
X109736121Y-113050002D01*
G37*
%TD.AperFunction*%
%TA.AperFunction,Conductor*%
G36*
X112919121Y-101773502D02*
G01*
X112965614Y-101827158D01*
X112977000Y-101879500D01*
X112977000Y-101981000D01*
X114113000Y-101981000D01*
X114181121Y-102001002D01*
X114227614Y-102054658D01*
X114239000Y-102107000D01*
X114239000Y-102363000D01*
X114218998Y-102431121D01*
X114165342Y-102477614D01*
X114113000Y-102489000D01*
X112977000Y-102489000D01*
X112977000Y-102757302D01*
X112977325Y-102763692D01*
X112987606Y-102864327D01*
X113030532Y-102993867D01*
X113032973Y-103064822D01*
X112996665Y-103125832D01*
X112933136Y-103157527D01*
X112910928Y-103159500D01*
X110403544Y-103159500D01*
X110382759Y-103157205D01*
X110311728Y-103159438D01*
X110307770Y-103159500D01*
X110279839Y-103159500D01*
X110275927Y-103159993D01*
X110275894Y-103159996D01*
X110275796Y-103160009D01*
X110263995Y-103160937D01*
X110219805Y-103162326D01*
X110200352Y-103167978D01*
X110180998Y-103171986D01*
X110160899Y-103174525D01*
X110119791Y-103190801D01*
X110108565Y-103194644D01*
X110066103Y-103206981D01*
X110048659Y-103217297D01*
X110030910Y-103225991D01*
X110012079Y-103233446D01*
X109976320Y-103259427D01*
X109966401Y-103265943D01*
X109928330Y-103288458D01*
X109914002Y-103302786D01*
X109898975Y-103315620D01*
X109882589Y-103327525D01*
X109854406Y-103361592D01*
X109846418Y-103370369D01*
X109779450Y-103437337D01*
X109717138Y-103471363D01*
X109646323Y-103466298D01*
X109589487Y-103423751D01*
X109565007Y-103361046D01*
X109557830Y-103290787D01*
X109504392Y-103129520D01*
X109415202Y-102984922D01*
X109389728Y-102959448D01*
X109355702Y-102897136D01*
X109360767Y-102826321D01*
X109389726Y-102781260D01*
X109415600Y-102755387D01*
X109504849Y-102610692D01*
X109558324Y-102449314D01*
X109568500Y-102349711D01*
X109568499Y-101879499D01*
X109588501Y-101811379D01*
X109642156Y-101764886D01*
X109694499Y-101753500D01*
X112851000Y-101753500D01*
X112919121Y-101773502D01*
G37*
%TD.AperFunction*%
%TA.AperFunction,Conductor*%
G36*
X117976990Y-102888502D02*
G01*
X118023483Y-102942158D01*
X118033587Y-103012432D01*
X118028702Y-103033436D01*
X117978458Y-103188069D01*
X117958496Y-103378000D01*
X117965776Y-103447268D01*
X117953003Y-103517107D01*
X117929561Y-103549533D01*
X117471340Y-104007754D01*
X117455017Y-104020832D01*
X117406370Y-104072635D01*
X117403621Y-104075472D01*
X117386667Y-104092427D01*
X117386660Y-104092434D01*
X117383865Y-104095230D01*
X117381442Y-104098352D01*
X117381426Y-104098371D01*
X117381365Y-104098451D01*
X117373689Y-104107436D01*
X117343414Y-104139677D01*
X117333652Y-104157434D01*
X117322801Y-104173952D01*
X117310385Y-104189959D01*
X117292824Y-104230539D01*
X117287604Y-104241195D01*
X117266304Y-104279940D01*
X117261267Y-104299559D01*
X117254864Y-104318261D01*
X117246818Y-104336855D01*
X117239901Y-104380524D01*
X117237495Y-104392144D01*
X117226500Y-104434969D01*
X117226500Y-104455223D01*
X117224949Y-104474933D01*
X117221779Y-104494942D01*
X117225941Y-104538961D01*
X117226500Y-104550819D01*
X117226499Y-107511166D01*
X117206497Y-107579287D01*
X117152841Y-107625780D01*
X117084053Y-107636088D01*
X116977331Y-107622038D01*
X116977329Y-107622037D01*
X116973244Y-107621500D01*
X116746756Y-107621500D01*
X116742671Y-107622037D01*
X116742668Y-107622038D01*
X116626446Y-107637339D01*
X116593554Y-107637339D01*
X116477331Y-107622038D01*
X116477329Y-107622037D01*
X116473244Y-107621500D01*
X116246756Y-107621500D01*
X116242671Y-107622037D01*
X116242668Y-107622038D01*
X116124531Y-107637591D01*
X116091639Y-107637591D01*
X116009999Y-107626842D01*
X116006655Y-107629775D01*
X115989996Y-107686514D01*
X115960704Y-107718354D01*
X115936706Y-107736769D01*
X115870486Y-107762371D01*
X115800937Y-107748107D01*
X115783296Y-107736770D01*
X115759296Y-107718354D01*
X115717429Y-107661016D01*
X115711738Y-107628368D01*
X115709621Y-107626511D01*
X115640797Y-107615779D01*
X115587699Y-107568650D01*
X115568500Y-107501796D01*
X115568500Y-107447522D01*
X115588502Y-107379401D01*
X115642158Y-107332908D01*
X115654850Y-107327923D01*
X115732738Y-107302115D01*
X115883652Y-107209030D01*
X116009030Y-107083652D01*
X116102115Y-106932738D01*
X116157887Y-106764426D01*
X116168500Y-106660545D01*
X116168499Y-106059456D01*
X116157887Y-105955574D01*
X116102115Y-105787262D01*
X116009030Y-105636348D01*
X116009028Y-105636346D01*
X116009027Y-105636344D01*
X115873239Y-105500556D01*
X115876060Y-105497734D01*
X115845855Y-105464144D01*
X115834462Y-105394067D01*
X115862764Y-105328955D01*
X115873518Y-105319641D01*
X115872926Y-105319049D01*
X116008632Y-105183342D01*
X116101659Y-105032522D01*
X116157393Y-104864327D01*
X116167674Y-104763692D01*
X116168000Y-104757302D01*
X116168000Y-104714000D01*
X114807000Y-104714000D01*
X114738879Y-104693998D01*
X114692386Y-104640342D01*
X114681000Y-104588000D01*
X114681000Y-104332000D01*
X114701002Y-104263879D01*
X114754658Y-104217386D01*
X114807000Y-104206000D01*
X116168000Y-104206000D01*
X116168000Y-104162697D01*
X116167674Y-104156307D01*
X116157393Y-104055672D01*
X116101659Y-103887477D01*
X116008632Y-103736657D01*
X115955569Y-103683594D01*
X115921543Y-103621282D01*
X115926608Y-103550467D01*
X115969155Y-103493631D01*
X116035675Y-103468820D01*
X116044657Y-103468499D01*
X116185544Y-103468499D01*
X116289426Y-103457887D01*
X116457738Y-103402115D01*
X116608652Y-103309030D01*
X116734030Y-103183652D01*
X116827115Y-103032738D01*
X116835828Y-103006443D01*
X116852919Y-102954867D01*
X116893332Y-102896496D01*
X116958889Y-102869240D01*
X116972523Y-102868500D01*
X117908869Y-102868500D01*
X117976990Y-102888502D01*
G37*
%TD.AperFunction*%
%TA.AperFunction,Conductor*%
G36*
X107650802Y-102611002D02*
G01*
X107689921Y-102650852D01*
X107729083Y-102714342D01*
X107754400Y-102755387D01*
X107780271Y-102781258D01*
X107814296Y-102843568D01*
X107809232Y-102914384D01*
X107780273Y-102959447D01*
X107754796Y-102984924D01*
X107665608Y-103129519D01*
X107612169Y-103290788D01*
X107602325Y-103387142D01*
X107602000Y-103393532D01*
X107602000Y-103403500D01*
X108713000Y-103403500D01*
X108781121Y-103423502D01*
X108827614Y-103477158D01*
X108839000Y-103529500D01*
X108839000Y-103785500D01*
X108818998Y-103853621D01*
X108765342Y-103900114D01*
X108713000Y-103911500D01*
X107602001Y-103911500D01*
X107602001Y-103921465D01*
X107602326Y-103927857D01*
X107612169Y-104024212D01*
X107665607Y-104185479D01*
X107754797Y-104330077D01*
X107874922Y-104450202D01*
X108019519Y-104539391D01*
X108180788Y-104592830D01*
X108277142Y-104602674D01*
X108283530Y-104602999D01*
X108309592Y-104602999D01*
X108377713Y-104622999D01*
X108424208Y-104676653D01*
X108434314Y-104746926D01*
X108404823Y-104811508D01*
X108398692Y-104818094D01*
X108034441Y-105182346D01*
X107972128Y-105216371D01*
X107901313Y-105211307D01*
X107856250Y-105182346D01*
X107202065Y-104528161D01*
X107168039Y-104465849D01*
X107173104Y-104395034D01*
X107183920Y-104372918D01*
X107184610Y-104371797D01*
X107187115Y-104367738D01*
X107242887Y-104199426D01*
X107253500Y-104095545D01*
X107253499Y-103469456D01*
X107242887Y-103365574D01*
X107187115Y-103197262D01*
X107094030Y-103046348D01*
X107094028Y-103046346D01*
X107094027Y-103046344D01*
X107006777Y-102959094D01*
X106972751Y-102896782D01*
X106977816Y-102825967D01*
X107006773Y-102780908D01*
X107094030Y-102693652D01*
X107118286Y-102654327D01*
X107120430Y-102650852D01*
X107173216Y-102603375D01*
X107227670Y-102591000D01*
X107582681Y-102591000D01*
X107650802Y-102611002D01*
G37*
%TD.AperFunction*%
%TA.AperFunction,Conductor*%
G36*
X121034526Y-98193502D02*
G01*
X121081019Y-98247158D01*
X121091123Y-98317432D01*
X121061629Y-98382012D01*
X121055514Y-98388580D01*
X120046397Y-99397697D01*
X119043808Y-100400285D01*
X119025543Y-100415396D01*
X119018729Y-100420027D01*
X118981588Y-100462154D01*
X118976171Y-100467922D01*
X117879498Y-101564596D01*
X117817188Y-101598620D01*
X117790405Y-101601500D01*
X116972523Y-101601500D01*
X116904402Y-101581498D01*
X116857909Y-101527842D01*
X116852918Y-101515132D01*
X116844473Y-101489646D01*
X116842033Y-101418691D01*
X116874981Y-101360921D01*
X120025499Y-98210405D01*
X120087812Y-98176379D01*
X120114595Y-98173500D01*
X120966405Y-98173500D01*
X121034526Y-98193502D01*
G37*
%TD.AperFunction*%
%TA.AperFunction,Conductor*%
G36*
X121801121Y-100731002D02*
G01*
X121847614Y-100784658D01*
X121859000Y-100837000D01*
X121859000Y-102198000D01*
X121899905Y-102198000D01*
X121968026Y-102218002D01*
X122014519Y-102271658D01*
X122024623Y-102341932D01*
X121995129Y-102406512D01*
X121989000Y-102413095D01*
X121969500Y-102432595D01*
X121907188Y-102466621D01*
X121880405Y-102469500D01*
X121824513Y-102469500D01*
X121732609Y-102489035D01*
X121637711Y-102509206D01*
X121463246Y-102586883D01*
X121308747Y-102699133D01*
X121180958Y-102841057D01*
X121085472Y-103006443D01*
X121026458Y-103188070D01*
X121006496Y-103378000D01*
X121010127Y-103412553D01*
X120997354Y-103482392D01*
X120948851Y-103534238D01*
X120880018Y-103551631D01*
X120812709Y-103529049D01*
X120795722Y-103514817D01*
X120705404Y-103424499D01*
X120671378Y-103362187D01*
X120668499Y-103335404D01*
X120668499Y-103257484D01*
X120668499Y-103257483D01*
X120668499Y-103255012D01*
X120665629Y-103218534D01*
X120620269Y-103062404D01*
X120541045Y-102928444D01*
X120523500Y-102864306D01*
X120523500Y-101980095D01*
X120543502Y-101911974D01*
X120597158Y-101865481D01*
X120667432Y-101855377D01*
X120732012Y-101884871D01*
X120755421Y-101912396D01*
X120881657Y-102038632D01*
X121032477Y-102131659D01*
X121200672Y-102187393D01*
X121301307Y-102197674D01*
X121307697Y-102198000D01*
X121351000Y-102198000D01*
X121351000Y-100837000D01*
X121371002Y-100768879D01*
X121424658Y-100722386D01*
X121477000Y-100711000D01*
X121733000Y-100711000D01*
X121801121Y-100731002D01*
G37*
%TD.AperFunction*%
%TA.AperFunction,Conductor*%
G36*
X124479746Y-102528497D02*
G01*
X124536581Y-102571044D01*
X124560635Y-102630106D01*
X124562326Y-102642956D01*
X124622330Y-102787819D01*
X124717784Y-102912215D01*
X124842180Y-103007669D01*
X125002369Y-103074021D01*
X125002207Y-103074412D01*
X125051871Y-103096381D01*
X125090964Y-103155645D01*
X125096500Y-103192582D01*
X125096500Y-103825404D01*
X125076498Y-103893525D01*
X125059597Y-103914498D01*
X125017502Y-103956594D01*
X124955190Y-103990620D01*
X124928405Y-103993500D01*
X124872513Y-103993500D01*
X124777480Y-104013700D01*
X124685711Y-104033206D01*
X124511246Y-104110883D01*
X124356745Y-104223135D01*
X124228960Y-104365054D01*
X124212245Y-104394006D01*
X124160861Y-104442999D01*
X124091147Y-104456433D01*
X124063496Y-104450609D01*
X124036327Y-104441606D01*
X123935692Y-104431325D01*
X123929303Y-104431000D01*
X123886000Y-104431000D01*
X123886000Y-105792000D01*
X123865998Y-105860121D01*
X123812342Y-105906614D01*
X123760000Y-105918000D01*
X123504000Y-105918000D01*
X123435879Y-105897998D01*
X123389386Y-105844342D01*
X123378000Y-105792000D01*
X123378000Y-104431000D01*
X123334697Y-104431000D01*
X123328307Y-104431325D01*
X123227672Y-104441606D01*
X123059477Y-104497340D01*
X122908657Y-104590367D01*
X122772951Y-104726074D01*
X122770055Y-104723178D01*
X122736741Y-104753140D01*
X122666665Y-104764538D01*
X122601552Y-104736241D01*
X122591994Y-104725210D01*
X122591444Y-104725761D01*
X122455655Y-104589972D01*
X122443322Y-104582365D01*
X122304738Y-104496885D01*
X122232855Y-104473065D01*
X122174486Y-104432653D01*
X122147230Y-104367096D01*
X122159743Y-104297211D01*
X122208053Y-104245185D01*
X122221232Y-104238359D01*
X122376752Y-104169118D01*
X122531253Y-104056866D01*
X122534157Y-104053639D01*
X122594601Y-104016401D01*
X122623837Y-104012012D01*
X122638158Y-104011562D01*
X122642115Y-104011500D01*
X122666067Y-104011500D01*
X122670029Y-104011500D01*
X122674029Y-104010994D01*
X122685872Y-104010061D01*
X122730062Y-104008673D01*
X122749511Y-104003021D01*
X122768871Y-103999012D01*
X122788970Y-103996474D01*
X122830088Y-103980193D01*
X122841290Y-103976357D01*
X122883766Y-103964018D01*
X122901212Y-103953699D01*
X122918953Y-103945009D01*
X122937790Y-103937552D01*
X122973565Y-103911558D01*
X122983476Y-103905048D01*
X123021535Y-103882542D01*
X123035864Y-103868212D01*
X123050892Y-103855377D01*
X123067280Y-103843472D01*
X123095476Y-103809386D01*
X123103445Y-103800630D01*
X124346620Y-102557456D01*
X124408930Y-102523432D01*
X124479746Y-102528497D01*
G37*
%TD.AperFunction*%
%TA.AperFunction,Conductor*%
G36*
X127515527Y-99713502D02*
G01*
X127536501Y-99730405D01*
X127599595Y-99793499D01*
X127633621Y-99855811D01*
X127636500Y-99882594D01*
X127636500Y-100269403D01*
X127616498Y-100337524D01*
X127599595Y-100358498D01*
X127164894Y-100793199D01*
X127102582Y-100827225D01*
X127031767Y-100822160D01*
X126999094Y-100804066D01*
X126980545Y-100789833D01*
X126962294Y-100775828D01*
X126920427Y-100718490D01*
X126913095Y-100676421D01*
X126913269Y-100681708D01*
X126912460Y-100669376D01*
X126897673Y-100557043D01*
X126837669Y-100412180D01*
X126742215Y-100287784D01*
X126651111Y-100217876D01*
X126609244Y-100160538D01*
X126605023Y-100089667D01*
X126638718Y-100028822D01*
X126937136Y-99730404D01*
X126999449Y-99696379D01*
X127026232Y-99693500D01*
X127447406Y-99693500D01*
X127515527Y-99713502D01*
G37*
%TD.AperFunction*%
%TA.AperFunction,Conductor*%
G36*
X123959527Y-95268502D02*
G01*
X124006020Y-95322158D01*
X124016124Y-95392432D01*
X123986630Y-95457012D01*
X123980517Y-95463578D01*
X122660473Y-96783621D01*
X122398594Y-97045500D01*
X122336282Y-97079525D01*
X122265466Y-97074460D01*
X122208631Y-97031913D01*
X122183820Y-96965393D01*
X122183499Y-96956404D01*
X122183499Y-96695561D01*
X122183500Y-96116362D01*
X122176989Y-96055799D01*
X122125889Y-95918796D01*
X122067283Y-95840508D01*
X122042473Y-95773990D01*
X122057564Y-95704615D01*
X122067279Y-95689496D01*
X122125889Y-95611204D01*
X122176989Y-95474201D01*
X122183500Y-95413638D01*
X122183500Y-95374500D01*
X122203502Y-95306379D01*
X122257158Y-95259886D01*
X122309500Y-95248500D01*
X123891406Y-95248500D01*
X123959527Y-95268502D01*
G37*
%TD.AperFunction*%
%TA.AperFunction,Conductor*%
G36*
X123714310Y-80663502D02*
G01*
X123760803Y-80717158D01*
X123770907Y-80787432D01*
X123741413Y-80852012D01*
X123738041Y-80855751D01*
X123733413Y-80860678D01*
X123723652Y-80878434D01*
X123712801Y-80894952D01*
X123700385Y-80910959D01*
X123682824Y-80951539D01*
X123677604Y-80962195D01*
X123656304Y-81000940D01*
X123651267Y-81020559D01*
X123644864Y-81039261D01*
X123636818Y-81057855D01*
X123630827Y-81095676D01*
X123600414Y-81159828D01*
X123540145Y-81197353D01*
X123469155Y-81196338D01*
X123430870Y-81176830D01*
X123320962Y-81094554D01*
X123184093Y-81043505D01*
X123126936Y-81037359D01*
X123120223Y-81037000D01*
X122129000Y-81037000D01*
X122129000Y-82043000D01*
X122108998Y-82111121D01*
X122055342Y-82157614D01*
X122003000Y-82169000D01*
X121747000Y-82169000D01*
X121678879Y-82148998D01*
X121632386Y-82095342D01*
X121621000Y-82043000D01*
X121621000Y-81036999D01*
X121614048Y-81030047D01*
X121580022Y-80967735D01*
X121585087Y-80896920D01*
X121614048Y-80851857D01*
X121785500Y-80680405D01*
X121847812Y-80646379D01*
X121874595Y-80643500D01*
X123646189Y-80643500D01*
X123714310Y-80663502D01*
G37*
%TD.AperFunction*%
%TD*%
M02*
