M48
; DRILL file {KiCad 7.0.2} date Mon Sep  4 15:16:40 2023
; FORMAT={-:-/ absolute / metric / decimal}
; #@! TF.CreationDate,2023-09-04T15:16:40-04:00
; #@! TF.GenerationSoftware,Kicad,Pcbnew,7.0.2
; #@! TF.FileFunction,Plated,1,2,PTH
FMAT,2
METRIC
; #@! TA.AperFunction,Plated,PTH,ViaDrill
T1C0.400
; #@! TA.AperFunction,Plated,PTH,ComponentDrill
T2C0.500
; #@! TA.AperFunction,Plated,PTH,ComponentDrill
T3C0.800
; #@! TA.AperFunction,Plated,PTH,ComponentDrill
T4C1.000
%
G90
G05
T1
X105.41Y-119.634
X106.426Y-87.122
X106.426Y-117.602
X106.684Y-121.916
X106.934Y-85.09
X106.934Y-111.76
X107.188Y-120.904
X108.712Y-103.886
X108.712Y-106.426
X108.712Y-107.696
X109.474Y-113.284
X110.236Y-118.364
X111.252Y-79.756
X111.252Y-83.566
X112.776Y-109.22
X113.284Y-116.84
X114.046Y-102.108
X114.046Y-108.712
X115.062Y-106.426
X117.348Y-101.092
X117.348Y-103.378
X118.11Y-91.44
X118.11Y-118.872
X118.364Y-113.538
X118.618Y-105.918
X118.872Y-103.378
X119.38Y-118.872
X119.888Y-112.522
X121.412Y-119.888
X121.666Y-100.838
X121.92Y-81.788
X121.92Y-103.378
X121.92Y-121.666
X122.936Y-96.266
X122.936Y-99.06
X123.19Y-116.586
X123.952Y-107.442
X124.46Y-118.364
X124.714Y-103.124
X124.968Y-104.902
X124.968Y-116.332
X125.222Y-107.95
X125.476Y-114.554
X126.492Y-116.332
X126.746Y-103.632
X127.254Y-99.822
X127.762Y-91.948
X127.762Y-109.982
X127.762Y-112.522
X128.016Y-117.094
X128.778Y-81.026
X129.032Y-80.01
T3
X114.824Y-84.763
X116.824Y-84.763
T4
X109.22Y-121.285
X111.76Y-121.285
X114.3Y-121.285
T2
X127.412Y-107.952G85X128.112Y-107.952
G05
X127.412Y-114.552G85X128.112Y-114.552
G05
T0
M30
