%TF.GenerationSoftware,KiCad,Pcbnew,7.0.2*%
%TF.CreationDate,2023-09-04T15:16:37-04:00*%
%TF.ProjectId,skydiving-altimeter,736b7964-6976-4696-9e67-2d616c74696d,rev?*%
%TF.SameCoordinates,Original*%
%TF.FileFunction,Legend,Top*%
%TF.FilePolarity,Positive*%
%FSLAX46Y46*%
G04 Gerber Fmt 4.6, Leading zero omitted, Abs format (unit mm)*
G04 Created by KiCad (PCBNEW 7.0.2) date 2023-09-04 15:16:37*
%MOMM*%
%LPD*%
G01*
G04 APERTURE LIST*
G04 Aperture macros list*
%AMRoundRect*
0 Rectangle with rounded corners*
0 $1 Rounding radius*
0 $2 $3 $4 $5 $6 $7 $8 $9 X,Y pos of 4 corners*
0 Add a 4 corners polygon primitive as box body*
4,1,4,$2,$3,$4,$5,$6,$7,$8,$9,$2,$3,0*
0 Add four circle primitives for the rounded corners*
1,1,$1+$1,$2,$3*
1,1,$1+$1,$4,$5*
1,1,$1+$1,$6,$7*
1,1,$1+$1,$8,$9*
0 Add four rect primitives between the rounded corners*
20,1,$1+$1,$2,$3,$4,$5,0*
20,1,$1+$1,$4,$5,$6,$7,0*
20,1,$1+$1,$6,$7,$8,$9,0*
20,1,$1+$1,$8,$9,$2,$3,0*%
G04 Aperture macros list end*
%ADD10C,0.300000*%
%ADD11C,0.150000*%
%ADD12C,0.120000*%
%ADD13C,0.100000*%
%ADD14C,0.127000*%
%ADD15C,0.200000*%
%ADD16RoundRect,0.087500X-0.125000X-0.087500X0.125000X-0.087500X0.125000X0.087500X-0.125000X0.087500X0*%
%ADD17RoundRect,0.087500X-0.087500X-0.125000X0.087500X-0.125000X0.087500X0.125000X-0.087500X0.125000X0*%
%ADD18RoundRect,0.250000X-0.475000X0.250000X-0.475000X-0.250000X0.475000X-0.250000X0.475000X0.250000X0*%
%ADD19R,1.700000X1.700000*%
%ADD20O,1.700000X1.700000*%
%ADD21RoundRect,0.150000X-0.512500X-0.150000X0.512500X-0.150000X0.512500X0.150000X-0.512500X0.150000X0*%
%ADD22RoundRect,0.250000X0.250000X0.475000X-0.250000X0.475000X-0.250000X-0.475000X0.250000X-0.475000X0*%
%ADD23RoundRect,0.250000X0.450000X-0.262500X0.450000X0.262500X-0.450000X0.262500X-0.450000X-0.262500X0*%
%ADD24RoundRect,0.250000X-0.250000X-0.475000X0.250000X-0.475000X0.250000X0.475000X-0.250000X0.475000X0*%
%ADD25RoundRect,0.135000X-0.135000X-0.185000X0.135000X-0.185000X0.135000X0.185000X-0.135000X0.185000X0*%
%ADD26RoundRect,0.250000X0.262500X0.450000X-0.262500X0.450000X-0.262500X-0.450000X0.262500X-0.450000X0*%
%ADD27RoundRect,0.218750X0.256250X-0.218750X0.256250X0.218750X-0.256250X0.218750X-0.256250X-0.218750X0*%
%ADD28RoundRect,0.218750X-0.218750X-0.256250X0.218750X-0.256250X0.218750X0.256250X-0.218750X0.256250X0*%
%ADD29R,1.308000X1.308000*%
%ADD30C,1.308000*%
%ADD31R,1.350000X0.400000*%
%ADD32R,1.400000X1.600000*%
%ADD33R,1.900000X1.900000*%
%ADD34O,1.800000X0.900000*%
%ADD35R,2.350000X3.500000*%
%ADD36RoundRect,0.250000X-0.450000X0.262500X-0.450000X-0.262500X0.450000X-0.262500X0.450000X0.262500X0*%
%ADD37RoundRect,0.075000X-0.662500X-0.075000X0.662500X-0.075000X0.662500X0.075000X-0.662500X0.075000X0*%
%ADD38RoundRect,0.075000X-0.075000X-0.662500X0.075000X-0.662500X0.075000X0.662500X-0.075000X0.662500X0*%
%ADD39R,2.400000X0.740000*%
%ADD40R,1.100000X1.100000*%
%ADD41R,2.000000X1.500000*%
%ADD42R,2.000000X3.800000*%
%ADD43RoundRect,0.250000X0.475000X-0.250000X0.475000X0.250000X-0.475000X0.250000X-0.475000X-0.250000X0*%
%ADD44R,1.900000X0.400000*%
G04 APERTURE END LIST*
D10*
X114236571Y-86990500D02*
X115379429Y-86990500D01*
D11*
X110002619Y-104632142D02*
X110002619Y-104013095D01*
X110002619Y-104013095D02*
X110383571Y-104346428D01*
X110383571Y-104346428D02*
X110383571Y-104203571D01*
X110383571Y-104203571D02*
X110431190Y-104108333D01*
X110431190Y-104108333D02*
X110478809Y-104060714D01*
X110478809Y-104060714D02*
X110574047Y-104013095D01*
X110574047Y-104013095D02*
X110812142Y-104013095D01*
X110812142Y-104013095D02*
X110907380Y-104060714D01*
X110907380Y-104060714D02*
X110955000Y-104108333D01*
X110955000Y-104108333D02*
X111002619Y-104203571D01*
X111002619Y-104203571D02*
X111002619Y-104489285D01*
X111002619Y-104489285D02*
X110955000Y-104584523D01*
X110955000Y-104584523D02*
X110907380Y-104632142D01*
X110907380Y-103584523D02*
X110955000Y-103536904D01*
X110955000Y-103536904D02*
X111002619Y-103584523D01*
X111002619Y-103584523D02*
X110955000Y-103632142D01*
X110955000Y-103632142D02*
X110907380Y-103584523D01*
X110907380Y-103584523D02*
X111002619Y-103584523D01*
X110002619Y-103203571D02*
X110002619Y-102584524D01*
X110002619Y-102584524D02*
X110383571Y-102917857D01*
X110383571Y-102917857D02*
X110383571Y-102775000D01*
X110383571Y-102775000D02*
X110431190Y-102679762D01*
X110431190Y-102679762D02*
X110478809Y-102632143D01*
X110478809Y-102632143D02*
X110574047Y-102584524D01*
X110574047Y-102584524D02*
X110812142Y-102584524D01*
X110812142Y-102584524D02*
X110907380Y-102632143D01*
X110907380Y-102632143D02*
X110955000Y-102679762D01*
X110955000Y-102679762D02*
X111002619Y-102775000D01*
X111002619Y-102775000D02*
X111002619Y-103060714D01*
X111002619Y-103060714D02*
X110955000Y-103155952D01*
X110955000Y-103155952D02*
X110907380Y-103203571D01*
X110002619Y-102298809D02*
X111002619Y-101965476D01*
X111002619Y-101965476D02*
X110002619Y-101632143D01*
D10*
X116252571Y-86885000D02*
X117395429Y-86885000D01*
X116824000Y-87456428D02*
X116824000Y-86313571D01*
D11*
%TO.C,U2*%
X124968095Y-99112619D02*
X124968095Y-99922142D01*
X124968095Y-99922142D02*
X125015714Y-100017380D01*
X125015714Y-100017380D02*
X125063333Y-100065000D01*
X125063333Y-100065000D02*
X125158571Y-100112619D01*
X125158571Y-100112619D02*
X125349047Y-100112619D01*
X125349047Y-100112619D02*
X125444285Y-100065000D01*
X125444285Y-100065000D02*
X125491904Y-100017380D01*
X125491904Y-100017380D02*
X125539523Y-99922142D01*
X125539523Y-99922142D02*
X125539523Y-99112619D01*
X125968095Y-99207857D02*
X126015714Y-99160238D01*
X126015714Y-99160238D02*
X126110952Y-99112619D01*
X126110952Y-99112619D02*
X126349047Y-99112619D01*
X126349047Y-99112619D02*
X126444285Y-99160238D01*
X126444285Y-99160238D02*
X126491904Y-99207857D01*
X126491904Y-99207857D02*
X126539523Y-99303095D01*
X126539523Y-99303095D02*
X126539523Y-99398333D01*
X126539523Y-99398333D02*
X126491904Y-99541190D01*
X126491904Y-99541190D02*
X125920476Y-100112619D01*
X125920476Y-100112619D02*
X126539523Y-100112619D01*
%TO.C,C16*%
X129907380Y-90812857D02*
X129955000Y-90860476D01*
X129955000Y-90860476D02*
X130002619Y-91003333D01*
X130002619Y-91003333D02*
X130002619Y-91098571D01*
X130002619Y-91098571D02*
X129955000Y-91241428D01*
X129955000Y-91241428D02*
X129859761Y-91336666D01*
X129859761Y-91336666D02*
X129764523Y-91384285D01*
X129764523Y-91384285D02*
X129574047Y-91431904D01*
X129574047Y-91431904D02*
X129431190Y-91431904D01*
X129431190Y-91431904D02*
X129240714Y-91384285D01*
X129240714Y-91384285D02*
X129145476Y-91336666D01*
X129145476Y-91336666D02*
X129050238Y-91241428D01*
X129050238Y-91241428D02*
X129002619Y-91098571D01*
X129002619Y-91098571D02*
X129002619Y-91003333D01*
X129002619Y-91003333D02*
X129050238Y-90860476D01*
X129050238Y-90860476D02*
X129097857Y-90812857D01*
X130002619Y-89860476D02*
X130002619Y-90431904D01*
X130002619Y-90146190D02*
X129002619Y-90146190D01*
X129002619Y-90146190D02*
X129145476Y-90241428D01*
X129145476Y-90241428D02*
X129240714Y-90336666D01*
X129240714Y-90336666D02*
X129288333Y-90431904D01*
X129002619Y-89003333D02*
X129002619Y-89193809D01*
X129002619Y-89193809D02*
X129050238Y-89289047D01*
X129050238Y-89289047D02*
X129097857Y-89336666D01*
X129097857Y-89336666D02*
X129240714Y-89431904D01*
X129240714Y-89431904D02*
X129431190Y-89479523D01*
X129431190Y-89479523D02*
X129812142Y-89479523D01*
X129812142Y-89479523D02*
X129907380Y-89431904D01*
X129907380Y-89431904D02*
X129955000Y-89384285D01*
X129955000Y-89384285D02*
X130002619Y-89289047D01*
X130002619Y-89289047D02*
X130002619Y-89098571D01*
X130002619Y-89098571D02*
X129955000Y-89003333D01*
X129955000Y-89003333D02*
X129907380Y-88955714D01*
X129907380Y-88955714D02*
X129812142Y-88908095D01*
X129812142Y-88908095D02*
X129574047Y-88908095D01*
X129574047Y-88908095D02*
X129478809Y-88955714D01*
X129478809Y-88955714D02*
X129431190Y-89003333D01*
X129431190Y-89003333D02*
X129383571Y-89098571D01*
X129383571Y-89098571D02*
X129383571Y-89289047D01*
X129383571Y-89289047D02*
X129431190Y-89384285D01*
X129431190Y-89384285D02*
X129478809Y-89431904D01*
X129478809Y-89431904D02*
X129574047Y-89479523D01*
%TO.C,J3*%
X106352619Y-121618333D02*
X107066904Y-121618333D01*
X107066904Y-121618333D02*
X107209761Y-121665952D01*
X107209761Y-121665952D02*
X107305000Y-121761190D01*
X107305000Y-121761190D02*
X107352619Y-121904047D01*
X107352619Y-121904047D02*
X107352619Y-121999285D01*
X106352619Y-121237380D02*
X106352619Y-120618333D01*
X106352619Y-120618333D02*
X106733571Y-120951666D01*
X106733571Y-120951666D02*
X106733571Y-120808809D01*
X106733571Y-120808809D02*
X106781190Y-120713571D01*
X106781190Y-120713571D02*
X106828809Y-120665952D01*
X106828809Y-120665952D02*
X106924047Y-120618333D01*
X106924047Y-120618333D02*
X107162142Y-120618333D01*
X107162142Y-120618333D02*
X107257380Y-120665952D01*
X107257380Y-120665952D02*
X107305000Y-120713571D01*
X107305000Y-120713571D02*
X107352619Y-120808809D01*
X107352619Y-120808809D02*
X107352619Y-121094523D01*
X107352619Y-121094523D02*
X107305000Y-121189761D01*
X107305000Y-121189761D02*
X107257380Y-121237380D01*
%TO.C,U4*%
X106426095Y-95982619D02*
X106426095Y-96792142D01*
X106426095Y-96792142D02*
X106473714Y-96887380D01*
X106473714Y-96887380D02*
X106521333Y-96935000D01*
X106521333Y-96935000D02*
X106616571Y-96982619D01*
X106616571Y-96982619D02*
X106807047Y-96982619D01*
X106807047Y-96982619D02*
X106902285Y-96935000D01*
X106902285Y-96935000D02*
X106949904Y-96887380D01*
X106949904Y-96887380D02*
X106997523Y-96792142D01*
X106997523Y-96792142D02*
X106997523Y-95982619D01*
X107902285Y-96315952D02*
X107902285Y-96982619D01*
X107664190Y-95935000D02*
X107426095Y-96649285D01*
X107426095Y-96649285D02*
X108045142Y-96649285D01*
%TO.C,C4*%
X125309333Y-105777380D02*
X125261714Y-105825000D01*
X125261714Y-105825000D02*
X125118857Y-105872619D01*
X125118857Y-105872619D02*
X125023619Y-105872619D01*
X125023619Y-105872619D02*
X124880762Y-105825000D01*
X124880762Y-105825000D02*
X124785524Y-105729761D01*
X124785524Y-105729761D02*
X124737905Y-105634523D01*
X124737905Y-105634523D02*
X124690286Y-105444047D01*
X124690286Y-105444047D02*
X124690286Y-105301190D01*
X124690286Y-105301190D02*
X124737905Y-105110714D01*
X124737905Y-105110714D02*
X124785524Y-105015476D01*
X124785524Y-105015476D02*
X124880762Y-104920238D01*
X124880762Y-104920238D02*
X125023619Y-104872619D01*
X125023619Y-104872619D02*
X125118857Y-104872619D01*
X125118857Y-104872619D02*
X125261714Y-104920238D01*
X125261714Y-104920238D02*
X125309333Y-104967857D01*
X126166476Y-105205952D02*
X126166476Y-105872619D01*
X125928381Y-104825000D02*
X125690286Y-105539285D01*
X125690286Y-105539285D02*
X126309333Y-105539285D01*
%TO.C,R3*%
X105878333Y-105872619D02*
X105545000Y-105396428D01*
X105306905Y-105872619D02*
X105306905Y-104872619D01*
X105306905Y-104872619D02*
X105687857Y-104872619D01*
X105687857Y-104872619D02*
X105783095Y-104920238D01*
X105783095Y-104920238D02*
X105830714Y-104967857D01*
X105830714Y-104967857D02*
X105878333Y-105063095D01*
X105878333Y-105063095D02*
X105878333Y-105205952D01*
X105878333Y-105205952D02*
X105830714Y-105301190D01*
X105830714Y-105301190D02*
X105783095Y-105348809D01*
X105783095Y-105348809D02*
X105687857Y-105396428D01*
X105687857Y-105396428D02*
X105306905Y-105396428D01*
X106211667Y-104872619D02*
X106830714Y-104872619D01*
X106830714Y-104872619D02*
X106497381Y-105253571D01*
X106497381Y-105253571D02*
X106640238Y-105253571D01*
X106640238Y-105253571D02*
X106735476Y-105301190D01*
X106735476Y-105301190D02*
X106783095Y-105348809D01*
X106783095Y-105348809D02*
X106830714Y-105444047D01*
X106830714Y-105444047D02*
X106830714Y-105682142D01*
X106830714Y-105682142D02*
X106783095Y-105777380D01*
X106783095Y-105777380D02*
X106735476Y-105825000D01*
X106735476Y-105825000D02*
X106640238Y-105872619D01*
X106640238Y-105872619D02*
X106354524Y-105872619D01*
X106354524Y-105872619D02*
X106259286Y-105825000D01*
X106259286Y-105825000D02*
X106211667Y-105777380D01*
%TO.C,C1*%
X112101333Y-102475380D02*
X112053714Y-102523000D01*
X112053714Y-102523000D02*
X111910857Y-102570619D01*
X111910857Y-102570619D02*
X111815619Y-102570619D01*
X111815619Y-102570619D02*
X111672762Y-102523000D01*
X111672762Y-102523000D02*
X111577524Y-102427761D01*
X111577524Y-102427761D02*
X111529905Y-102332523D01*
X111529905Y-102332523D02*
X111482286Y-102142047D01*
X111482286Y-102142047D02*
X111482286Y-101999190D01*
X111482286Y-101999190D02*
X111529905Y-101808714D01*
X111529905Y-101808714D02*
X111577524Y-101713476D01*
X111577524Y-101713476D02*
X111672762Y-101618238D01*
X111672762Y-101618238D02*
X111815619Y-101570619D01*
X111815619Y-101570619D02*
X111910857Y-101570619D01*
X111910857Y-101570619D02*
X112053714Y-101618238D01*
X112053714Y-101618238D02*
X112101333Y-101665857D01*
X113053714Y-102570619D02*
X112482286Y-102570619D01*
X112768000Y-102570619D02*
X112768000Y-101570619D01*
X112768000Y-101570619D02*
X112672762Y-101713476D01*
X112672762Y-101713476D02*
X112577524Y-101808714D01*
X112577524Y-101808714D02*
X112482286Y-101856333D01*
%TO.C,R1*%
X119088333Y-105337619D02*
X118755000Y-104861428D01*
X118516905Y-105337619D02*
X118516905Y-104337619D01*
X118516905Y-104337619D02*
X118897857Y-104337619D01*
X118897857Y-104337619D02*
X118993095Y-104385238D01*
X118993095Y-104385238D02*
X119040714Y-104432857D01*
X119040714Y-104432857D02*
X119088333Y-104528095D01*
X119088333Y-104528095D02*
X119088333Y-104670952D01*
X119088333Y-104670952D02*
X119040714Y-104766190D01*
X119040714Y-104766190D02*
X118993095Y-104813809D01*
X118993095Y-104813809D02*
X118897857Y-104861428D01*
X118897857Y-104861428D02*
X118516905Y-104861428D01*
X120040714Y-105337619D02*
X119469286Y-105337619D01*
X119755000Y-105337619D02*
X119755000Y-104337619D01*
X119755000Y-104337619D02*
X119659762Y-104480476D01*
X119659762Y-104480476D02*
X119564524Y-104575714D01*
X119564524Y-104575714D02*
X119469286Y-104623333D01*
%TO.C,C14*%
X110609142Y-99935380D02*
X110561523Y-99983000D01*
X110561523Y-99983000D02*
X110418666Y-100030619D01*
X110418666Y-100030619D02*
X110323428Y-100030619D01*
X110323428Y-100030619D02*
X110180571Y-99983000D01*
X110180571Y-99983000D02*
X110085333Y-99887761D01*
X110085333Y-99887761D02*
X110037714Y-99792523D01*
X110037714Y-99792523D02*
X109990095Y-99602047D01*
X109990095Y-99602047D02*
X109990095Y-99459190D01*
X109990095Y-99459190D02*
X110037714Y-99268714D01*
X110037714Y-99268714D02*
X110085333Y-99173476D01*
X110085333Y-99173476D02*
X110180571Y-99078238D01*
X110180571Y-99078238D02*
X110323428Y-99030619D01*
X110323428Y-99030619D02*
X110418666Y-99030619D01*
X110418666Y-99030619D02*
X110561523Y-99078238D01*
X110561523Y-99078238D02*
X110609142Y-99125857D01*
X111561523Y-100030619D02*
X110990095Y-100030619D01*
X111275809Y-100030619D02*
X111275809Y-99030619D01*
X111275809Y-99030619D02*
X111180571Y-99173476D01*
X111180571Y-99173476D02*
X111085333Y-99268714D01*
X111085333Y-99268714D02*
X110990095Y-99316333D01*
X112418666Y-99363952D02*
X112418666Y-100030619D01*
X112180571Y-98983000D02*
X111942476Y-99697285D01*
X111942476Y-99697285D02*
X112561523Y-99697285D01*
%TO.C,R2*%
X119213333Y-102697619D02*
X118880000Y-102221428D01*
X118641905Y-102697619D02*
X118641905Y-101697619D01*
X118641905Y-101697619D02*
X119022857Y-101697619D01*
X119022857Y-101697619D02*
X119118095Y-101745238D01*
X119118095Y-101745238D02*
X119165714Y-101792857D01*
X119165714Y-101792857D02*
X119213333Y-101888095D01*
X119213333Y-101888095D02*
X119213333Y-102030952D01*
X119213333Y-102030952D02*
X119165714Y-102126190D01*
X119165714Y-102126190D02*
X119118095Y-102173809D01*
X119118095Y-102173809D02*
X119022857Y-102221428D01*
X119022857Y-102221428D02*
X118641905Y-102221428D01*
X119594286Y-101792857D02*
X119641905Y-101745238D01*
X119641905Y-101745238D02*
X119737143Y-101697619D01*
X119737143Y-101697619D02*
X119975238Y-101697619D01*
X119975238Y-101697619D02*
X120070476Y-101745238D01*
X120070476Y-101745238D02*
X120118095Y-101792857D01*
X120118095Y-101792857D02*
X120165714Y-101888095D01*
X120165714Y-101888095D02*
X120165714Y-101983333D01*
X120165714Y-101983333D02*
X120118095Y-102126190D01*
X120118095Y-102126190D02*
X119546667Y-102697619D01*
X119546667Y-102697619D02*
X120165714Y-102697619D01*
%TO.C,R4*%
X110323333Y-109047619D02*
X109990000Y-108571428D01*
X109751905Y-109047619D02*
X109751905Y-108047619D01*
X109751905Y-108047619D02*
X110132857Y-108047619D01*
X110132857Y-108047619D02*
X110228095Y-108095238D01*
X110228095Y-108095238D02*
X110275714Y-108142857D01*
X110275714Y-108142857D02*
X110323333Y-108238095D01*
X110323333Y-108238095D02*
X110323333Y-108380952D01*
X110323333Y-108380952D02*
X110275714Y-108476190D01*
X110275714Y-108476190D02*
X110228095Y-108523809D01*
X110228095Y-108523809D02*
X110132857Y-108571428D01*
X110132857Y-108571428D02*
X109751905Y-108571428D01*
X111180476Y-108380952D02*
X111180476Y-109047619D01*
X110942381Y-108000000D02*
X110704286Y-108714285D01*
X110704286Y-108714285D02*
X111323333Y-108714285D01*
%TO.C,C2*%
X107783333Y-113651380D02*
X107735714Y-113699000D01*
X107735714Y-113699000D02*
X107592857Y-113746619D01*
X107592857Y-113746619D02*
X107497619Y-113746619D01*
X107497619Y-113746619D02*
X107354762Y-113699000D01*
X107354762Y-113699000D02*
X107259524Y-113603761D01*
X107259524Y-113603761D02*
X107211905Y-113508523D01*
X107211905Y-113508523D02*
X107164286Y-113318047D01*
X107164286Y-113318047D02*
X107164286Y-113175190D01*
X107164286Y-113175190D02*
X107211905Y-112984714D01*
X107211905Y-112984714D02*
X107259524Y-112889476D01*
X107259524Y-112889476D02*
X107354762Y-112794238D01*
X107354762Y-112794238D02*
X107497619Y-112746619D01*
X107497619Y-112746619D02*
X107592857Y-112746619D01*
X107592857Y-112746619D02*
X107735714Y-112794238D01*
X107735714Y-112794238D02*
X107783333Y-112841857D01*
X108164286Y-112841857D02*
X108211905Y-112794238D01*
X108211905Y-112794238D02*
X108307143Y-112746619D01*
X108307143Y-112746619D02*
X108545238Y-112746619D01*
X108545238Y-112746619D02*
X108640476Y-112794238D01*
X108640476Y-112794238D02*
X108688095Y-112841857D01*
X108688095Y-112841857D02*
X108735714Y-112937095D01*
X108735714Y-112937095D02*
X108735714Y-113032333D01*
X108735714Y-113032333D02*
X108688095Y-113175190D01*
X108688095Y-113175190D02*
X108116667Y-113746619D01*
X108116667Y-113746619D02*
X108735714Y-113746619D01*
%TO.C,D1*%
X107846905Y-105872619D02*
X107846905Y-104872619D01*
X107846905Y-104872619D02*
X108085000Y-104872619D01*
X108085000Y-104872619D02*
X108227857Y-104920238D01*
X108227857Y-104920238D02*
X108323095Y-105015476D01*
X108323095Y-105015476D02*
X108370714Y-105110714D01*
X108370714Y-105110714D02*
X108418333Y-105301190D01*
X108418333Y-105301190D02*
X108418333Y-105444047D01*
X108418333Y-105444047D02*
X108370714Y-105634523D01*
X108370714Y-105634523D02*
X108323095Y-105729761D01*
X108323095Y-105729761D02*
X108227857Y-105825000D01*
X108227857Y-105825000D02*
X108085000Y-105872619D01*
X108085000Y-105872619D02*
X107846905Y-105872619D01*
X109370714Y-105872619D02*
X108799286Y-105872619D01*
X109085000Y-105872619D02*
X109085000Y-104872619D01*
X109085000Y-104872619D02*
X108989762Y-105015476D01*
X108989762Y-105015476D02*
X108894524Y-105110714D01*
X108894524Y-105110714D02*
X108799286Y-105158333D01*
%TO.C,D4*%
X105459405Y-87457619D02*
X105459405Y-86457619D01*
X105459405Y-86457619D02*
X105697500Y-86457619D01*
X105697500Y-86457619D02*
X105840357Y-86505238D01*
X105840357Y-86505238D02*
X105935595Y-86600476D01*
X105935595Y-86600476D02*
X105983214Y-86695714D01*
X105983214Y-86695714D02*
X106030833Y-86886190D01*
X106030833Y-86886190D02*
X106030833Y-87029047D01*
X106030833Y-87029047D02*
X105983214Y-87219523D01*
X105983214Y-87219523D02*
X105935595Y-87314761D01*
X105935595Y-87314761D02*
X105840357Y-87410000D01*
X105840357Y-87410000D02*
X105697500Y-87457619D01*
X105697500Y-87457619D02*
X105459405Y-87457619D01*
X106887976Y-86790952D02*
X106887976Y-87457619D01*
X106649881Y-86410000D02*
X106411786Y-87124285D01*
X106411786Y-87124285D02*
X107030833Y-87124285D01*
D12*
%TO.C,J2*%
X115664000Y-82546057D02*
X115664000Y-82888914D01*
X115664000Y-82888914D02*
X115641143Y-82957485D01*
X115641143Y-82957485D02*
X115595429Y-83003200D01*
X115595429Y-83003200D02*
X115526857Y-83026057D01*
X115526857Y-83026057D02*
X115481143Y-83026057D01*
X115869714Y-82591771D02*
X115892571Y-82568914D01*
X115892571Y-82568914D02*
X115938286Y-82546057D01*
X115938286Y-82546057D02*
X116052571Y-82546057D01*
X116052571Y-82546057D02*
X116098286Y-82568914D01*
X116098286Y-82568914D02*
X116121143Y-82591771D01*
X116121143Y-82591771D02*
X116144000Y-82637485D01*
X116144000Y-82637485D02*
X116144000Y-82683200D01*
X116144000Y-82683200D02*
X116121143Y-82751771D01*
X116121143Y-82751771D02*
X115846857Y-83026057D01*
X115846857Y-83026057D02*
X116144000Y-83026057D01*
D11*
%TO.C,C13*%
X106037142Y-100697380D02*
X105989523Y-100745000D01*
X105989523Y-100745000D02*
X105846666Y-100792619D01*
X105846666Y-100792619D02*
X105751428Y-100792619D01*
X105751428Y-100792619D02*
X105608571Y-100745000D01*
X105608571Y-100745000D02*
X105513333Y-100649761D01*
X105513333Y-100649761D02*
X105465714Y-100554523D01*
X105465714Y-100554523D02*
X105418095Y-100364047D01*
X105418095Y-100364047D02*
X105418095Y-100221190D01*
X105418095Y-100221190D02*
X105465714Y-100030714D01*
X105465714Y-100030714D02*
X105513333Y-99935476D01*
X105513333Y-99935476D02*
X105608571Y-99840238D01*
X105608571Y-99840238D02*
X105751428Y-99792619D01*
X105751428Y-99792619D02*
X105846666Y-99792619D01*
X105846666Y-99792619D02*
X105989523Y-99840238D01*
X105989523Y-99840238D02*
X106037142Y-99887857D01*
X106989523Y-100792619D02*
X106418095Y-100792619D01*
X106703809Y-100792619D02*
X106703809Y-99792619D01*
X106703809Y-99792619D02*
X106608571Y-99935476D01*
X106608571Y-99935476D02*
X106513333Y-100030714D01*
X106513333Y-100030714D02*
X106418095Y-100078333D01*
X107322857Y-99792619D02*
X107941904Y-99792619D01*
X107941904Y-99792619D02*
X107608571Y-100173571D01*
X107608571Y-100173571D02*
X107751428Y-100173571D01*
X107751428Y-100173571D02*
X107846666Y-100221190D01*
X107846666Y-100221190D02*
X107894285Y-100268809D01*
X107894285Y-100268809D02*
X107941904Y-100364047D01*
X107941904Y-100364047D02*
X107941904Y-100602142D01*
X107941904Y-100602142D02*
X107894285Y-100697380D01*
X107894285Y-100697380D02*
X107846666Y-100745000D01*
X107846666Y-100745000D02*
X107751428Y-100792619D01*
X107751428Y-100792619D02*
X107465714Y-100792619D01*
X107465714Y-100792619D02*
X107370476Y-100745000D01*
X107370476Y-100745000D02*
X107322857Y-100697380D01*
%TO.C,C6*%
X106259333Y-116699380D02*
X106211714Y-116747000D01*
X106211714Y-116747000D02*
X106068857Y-116794619D01*
X106068857Y-116794619D02*
X105973619Y-116794619D01*
X105973619Y-116794619D02*
X105830762Y-116747000D01*
X105830762Y-116747000D02*
X105735524Y-116651761D01*
X105735524Y-116651761D02*
X105687905Y-116556523D01*
X105687905Y-116556523D02*
X105640286Y-116366047D01*
X105640286Y-116366047D02*
X105640286Y-116223190D01*
X105640286Y-116223190D02*
X105687905Y-116032714D01*
X105687905Y-116032714D02*
X105735524Y-115937476D01*
X105735524Y-115937476D02*
X105830762Y-115842238D01*
X105830762Y-115842238D02*
X105973619Y-115794619D01*
X105973619Y-115794619D02*
X106068857Y-115794619D01*
X106068857Y-115794619D02*
X106211714Y-115842238D01*
X106211714Y-115842238D02*
X106259333Y-115889857D01*
X107116476Y-115794619D02*
X106926000Y-115794619D01*
X106926000Y-115794619D02*
X106830762Y-115842238D01*
X106830762Y-115842238D02*
X106783143Y-115889857D01*
X106783143Y-115889857D02*
X106687905Y-116032714D01*
X106687905Y-116032714D02*
X106640286Y-116223190D01*
X106640286Y-116223190D02*
X106640286Y-116604142D01*
X106640286Y-116604142D02*
X106687905Y-116699380D01*
X106687905Y-116699380D02*
X106735524Y-116747000D01*
X106735524Y-116747000D02*
X106830762Y-116794619D01*
X106830762Y-116794619D02*
X107021238Y-116794619D01*
X107021238Y-116794619D02*
X107116476Y-116747000D01*
X107116476Y-116747000D02*
X107164095Y-116699380D01*
X107164095Y-116699380D02*
X107211714Y-116604142D01*
X107211714Y-116604142D02*
X107211714Y-116366047D01*
X107211714Y-116366047D02*
X107164095Y-116270809D01*
X107164095Y-116270809D02*
X107116476Y-116223190D01*
X107116476Y-116223190D02*
X107021238Y-116175571D01*
X107021238Y-116175571D02*
X106830762Y-116175571D01*
X106830762Y-116175571D02*
X106735524Y-116223190D01*
X106735524Y-116223190D02*
X106687905Y-116270809D01*
X106687905Y-116270809D02*
X106640286Y-116366047D01*
%TO.C,J5*%
X119849619Y-112730333D02*
X120563904Y-112730333D01*
X120563904Y-112730333D02*
X120706761Y-112777952D01*
X120706761Y-112777952D02*
X120802000Y-112873190D01*
X120802000Y-112873190D02*
X120849619Y-113016047D01*
X120849619Y-113016047D02*
X120849619Y-113111285D01*
X119849619Y-111777952D02*
X119849619Y-112254142D01*
X119849619Y-112254142D02*
X120325809Y-112301761D01*
X120325809Y-112301761D02*
X120278190Y-112254142D01*
X120278190Y-112254142D02*
X120230571Y-112158904D01*
X120230571Y-112158904D02*
X120230571Y-111920809D01*
X120230571Y-111920809D02*
X120278190Y-111825571D01*
X120278190Y-111825571D02*
X120325809Y-111777952D01*
X120325809Y-111777952D02*
X120421047Y-111730333D01*
X120421047Y-111730333D02*
X120659142Y-111730333D01*
X120659142Y-111730333D02*
X120754380Y-111777952D01*
X120754380Y-111777952D02*
X120802000Y-111825571D01*
X120802000Y-111825571D02*
X120849619Y-111920809D01*
X120849619Y-111920809D02*
X120849619Y-112158904D01*
X120849619Y-112158904D02*
X120802000Y-112254142D01*
X120802000Y-112254142D02*
X120754380Y-112301761D01*
%TO.C,L1*%
X109621333Y-91736076D02*
X109316571Y-91736076D01*
X109316571Y-91736076D02*
X109316571Y-91096076D01*
X110169905Y-91736076D02*
X109804190Y-91736076D01*
X109987047Y-91736076D02*
X109987047Y-91096076D01*
X109987047Y-91096076D02*
X109926095Y-91187504D01*
X109926095Y-91187504D02*
X109865143Y-91248457D01*
X109865143Y-91248457D02*
X109804190Y-91278933D01*
%TO.C,C15*%
X117467142Y-98792380D02*
X117419523Y-98840000D01*
X117419523Y-98840000D02*
X117276666Y-98887619D01*
X117276666Y-98887619D02*
X117181428Y-98887619D01*
X117181428Y-98887619D02*
X117038571Y-98840000D01*
X117038571Y-98840000D02*
X116943333Y-98744761D01*
X116943333Y-98744761D02*
X116895714Y-98649523D01*
X116895714Y-98649523D02*
X116848095Y-98459047D01*
X116848095Y-98459047D02*
X116848095Y-98316190D01*
X116848095Y-98316190D02*
X116895714Y-98125714D01*
X116895714Y-98125714D02*
X116943333Y-98030476D01*
X116943333Y-98030476D02*
X117038571Y-97935238D01*
X117038571Y-97935238D02*
X117181428Y-97887619D01*
X117181428Y-97887619D02*
X117276666Y-97887619D01*
X117276666Y-97887619D02*
X117419523Y-97935238D01*
X117419523Y-97935238D02*
X117467142Y-97982857D01*
X118419523Y-98887619D02*
X117848095Y-98887619D01*
X118133809Y-98887619D02*
X118133809Y-97887619D01*
X118133809Y-97887619D02*
X118038571Y-98030476D01*
X118038571Y-98030476D02*
X117943333Y-98125714D01*
X117943333Y-98125714D02*
X117848095Y-98173333D01*
X119324285Y-97887619D02*
X118848095Y-97887619D01*
X118848095Y-97887619D02*
X118800476Y-98363809D01*
X118800476Y-98363809D02*
X118848095Y-98316190D01*
X118848095Y-98316190D02*
X118943333Y-98268571D01*
X118943333Y-98268571D02*
X119181428Y-98268571D01*
X119181428Y-98268571D02*
X119276666Y-98316190D01*
X119276666Y-98316190D02*
X119324285Y-98363809D01*
X119324285Y-98363809D02*
X119371904Y-98459047D01*
X119371904Y-98459047D02*
X119371904Y-98697142D01*
X119371904Y-98697142D02*
X119324285Y-98792380D01*
X119324285Y-98792380D02*
X119276666Y-98840000D01*
X119276666Y-98840000D02*
X119181428Y-98887619D01*
X119181428Y-98887619D02*
X118943333Y-98887619D01*
X118943333Y-98887619D02*
X118848095Y-98840000D01*
X118848095Y-98840000D02*
X118800476Y-98792380D01*
%TO.C,R7*%
X113237619Y-80811666D02*
X112761428Y-81144999D01*
X113237619Y-81383094D02*
X112237619Y-81383094D01*
X112237619Y-81383094D02*
X112237619Y-81002142D01*
X112237619Y-81002142D02*
X112285238Y-80906904D01*
X112285238Y-80906904D02*
X112332857Y-80859285D01*
X112332857Y-80859285D02*
X112428095Y-80811666D01*
X112428095Y-80811666D02*
X112570952Y-80811666D01*
X112570952Y-80811666D02*
X112666190Y-80859285D01*
X112666190Y-80859285D02*
X112713809Y-80906904D01*
X112713809Y-80906904D02*
X112761428Y-81002142D01*
X112761428Y-81002142D02*
X112761428Y-81383094D01*
X112237619Y-80478332D02*
X112237619Y-79811666D01*
X112237619Y-79811666D02*
X113237619Y-80240237D01*
%TO.C,C5*%
X116982380Y-105576666D02*
X117030000Y-105624285D01*
X117030000Y-105624285D02*
X117077619Y-105767142D01*
X117077619Y-105767142D02*
X117077619Y-105862380D01*
X117077619Y-105862380D02*
X117030000Y-106005237D01*
X117030000Y-106005237D02*
X116934761Y-106100475D01*
X116934761Y-106100475D02*
X116839523Y-106148094D01*
X116839523Y-106148094D02*
X116649047Y-106195713D01*
X116649047Y-106195713D02*
X116506190Y-106195713D01*
X116506190Y-106195713D02*
X116315714Y-106148094D01*
X116315714Y-106148094D02*
X116220476Y-106100475D01*
X116220476Y-106100475D02*
X116125238Y-106005237D01*
X116125238Y-106005237D02*
X116077619Y-105862380D01*
X116077619Y-105862380D02*
X116077619Y-105767142D01*
X116077619Y-105767142D02*
X116125238Y-105624285D01*
X116125238Y-105624285D02*
X116172857Y-105576666D01*
X116077619Y-104671904D02*
X116077619Y-105148094D01*
X116077619Y-105148094D02*
X116553809Y-105195713D01*
X116553809Y-105195713D02*
X116506190Y-105148094D01*
X116506190Y-105148094D02*
X116458571Y-105052856D01*
X116458571Y-105052856D02*
X116458571Y-104814761D01*
X116458571Y-104814761D02*
X116506190Y-104719523D01*
X116506190Y-104719523D02*
X116553809Y-104671904D01*
X116553809Y-104671904D02*
X116649047Y-104624285D01*
X116649047Y-104624285D02*
X116887142Y-104624285D01*
X116887142Y-104624285D02*
X116982380Y-104671904D01*
X116982380Y-104671904D02*
X117030000Y-104719523D01*
X117030000Y-104719523D02*
X117077619Y-104814761D01*
X117077619Y-104814761D02*
X117077619Y-105052856D01*
X117077619Y-105052856D02*
X117030000Y-105148094D01*
X117030000Y-105148094D02*
X116982380Y-105195713D01*
%TO.C,U1*%
X117348095Y-106642619D02*
X117348095Y-107452142D01*
X117348095Y-107452142D02*
X117395714Y-107547380D01*
X117395714Y-107547380D02*
X117443333Y-107595000D01*
X117443333Y-107595000D02*
X117538571Y-107642619D01*
X117538571Y-107642619D02*
X117729047Y-107642619D01*
X117729047Y-107642619D02*
X117824285Y-107595000D01*
X117824285Y-107595000D02*
X117871904Y-107547380D01*
X117871904Y-107547380D02*
X117919523Y-107452142D01*
X117919523Y-107452142D02*
X117919523Y-106642619D01*
X118919523Y-107642619D02*
X118348095Y-107642619D01*
X118633809Y-107642619D02*
X118633809Y-106642619D01*
X118633809Y-106642619D02*
X118538571Y-106785476D01*
X118538571Y-106785476D02*
X118443333Y-106880714D01*
X118443333Y-106880714D02*
X118348095Y-106928333D01*
%TO.C,J1*%
X123491666Y-79218619D02*
X123491666Y-79932904D01*
X123491666Y-79932904D02*
X123444047Y-80075761D01*
X123444047Y-80075761D02*
X123348809Y-80171000D01*
X123348809Y-80171000D02*
X123205952Y-80218619D01*
X123205952Y-80218619D02*
X123110714Y-80218619D01*
X124491666Y-80218619D02*
X123920238Y-80218619D01*
X124205952Y-80218619D02*
X124205952Y-79218619D01*
X124205952Y-79218619D02*
X124110714Y-79361476D01*
X124110714Y-79361476D02*
X124015476Y-79456714D01*
X124015476Y-79456714D02*
X123920238Y-79504333D01*
%TO.C,D6*%
X116286619Y-90654094D02*
X115286619Y-90654094D01*
X115286619Y-90654094D02*
X115286619Y-90415999D01*
X115286619Y-90415999D02*
X115334238Y-90273142D01*
X115334238Y-90273142D02*
X115429476Y-90177904D01*
X115429476Y-90177904D02*
X115524714Y-90130285D01*
X115524714Y-90130285D02*
X115715190Y-90082666D01*
X115715190Y-90082666D02*
X115858047Y-90082666D01*
X115858047Y-90082666D02*
X116048523Y-90130285D01*
X116048523Y-90130285D02*
X116143761Y-90177904D01*
X116143761Y-90177904D02*
X116239000Y-90273142D01*
X116239000Y-90273142D02*
X116286619Y-90415999D01*
X116286619Y-90415999D02*
X116286619Y-90654094D01*
X115286619Y-89225523D02*
X115286619Y-89415999D01*
X115286619Y-89415999D02*
X115334238Y-89511237D01*
X115334238Y-89511237D02*
X115381857Y-89558856D01*
X115381857Y-89558856D02*
X115524714Y-89654094D01*
X115524714Y-89654094D02*
X115715190Y-89701713D01*
X115715190Y-89701713D02*
X116096142Y-89701713D01*
X116096142Y-89701713D02*
X116191380Y-89654094D01*
X116191380Y-89654094D02*
X116239000Y-89606475D01*
X116239000Y-89606475D02*
X116286619Y-89511237D01*
X116286619Y-89511237D02*
X116286619Y-89320761D01*
X116286619Y-89320761D02*
X116239000Y-89225523D01*
X116239000Y-89225523D02*
X116191380Y-89177904D01*
X116191380Y-89177904D02*
X116096142Y-89130285D01*
X116096142Y-89130285D02*
X115858047Y-89130285D01*
X115858047Y-89130285D02*
X115762809Y-89177904D01*
X115762809Y-89177904D02*
X115715190Y-89225523D01*
X115715190Y-89225523D02*
X115667571Y-89320761D01*
X115667571Y-89320761D02*
X115667571Y-89511237D01*
X115667571Y-89511237D02*
X115715190Y-89606475D01*
X115715190Y-89606475D02*
X115762809Y-89654094D01*
X115762809Y-89654094D02*
X115858047Y-89701713D01*
%TO.C,U5*%
X123063095Y-89577619D02*
X123063095Y-90387142D01*
X123063095Y-90387142D02*
X123110714Y-90482380D01*
X123110714Y-90482380D02*
X123158333Y-90530000D01*
X123158333Y-90530000D02*
X123253571Y-90577619D01*
X123253571Y-90577619D02*
X123444047Y-90577619D01*
X123444047Y-90577619D02*
X123539285Y-90530000D01*
X123539285Y-90530000D02*
X123586904Y-90482380D01*
X123586904Y-90482380D02*
X123634523Y-90387142D01*
X123634523Y-90387142D02*
X123634523Y-89577619D01*
X124586904Y-89577619D02*
X124110714Y-89577619D01*
X124110714Y-89577619D02*
X124063095Y-90053809D01*
X124063095Y-90053809D02*
X124110714Y-90006190D01*
X124110714Y-90006190D02*
X124205952Y-89958571D01*
X124205952Y-89958571D02*
X124444047Y-89958571D01*
X124444047Y-89958571D02*
X124539285Y-90006190D01*
X124539285Y-90006190D02*
X124586904Y-90053809D01*
X124586904Y-90053809D02*
X124634523Y-90149047D01*
X124634523Y-90149047D02*
X124634523Y-90387142D01*
X124634523Y-90387142D02*
X124586904Y-90482380D01*
X124586904Y-90482380D02*
X124539285Y-90530000D01*
X124539285Y-90530000D02*
X124444047Y-90577619D01*
X124444047Y-90577619D02*
X124205952Y-90577619D01*
X124205952Y-90577619D02*
X124110714Y-90530000D01*
X124110714Y-90530000D02*
X124063095Y-90482380D01*
%TO.C,D3*%
X105459405Y-85552619D02*
X105459405Y-84552619D01*
X105459405Y-84552619D02*
X105697500Y-84552619D01*
X105697500Y-84552619D02*
X105840357Y-84600238D01*
X105840357Y-84600238D02*
X105935595Y-84695476D01*
X105935595Y-84695476D02*
X105983214Y-84790714D01*
X105983214Y-84790714D02*
X106030833Y-84981190D01*
X106030833Y-84981190D02*
X106030833Y-85124047D01*
X106030833Y-85124047D02*
X105983214Y-85314523D01*
X105983214Y-85314523D02*
X105935595Y-85409761D01*
X105935595Y-85409761D02*
X105840357Y-85505000D01*
X105840357Y-85505000D02*
X105697500Y-85552619D01*
X105697500Y-85552619D02*
X105459405Y-85552619D01*
X106364167Y-84552619D02*
X106983214Y-84552619D01*
X106983214Y-84552619D02*
X106649881Y-84933571D01*
X106649881Y-84933571D02*
X106792738Y-84933571D01*
X106792738Y-84933571D02*
X106887976Y-84981190D01*
X106887976Y-84981190D02*
X106935595Y-85028809D01*
X106935595Y-85028809D02*
X106983214Y-85124047D01*
X106983214Y-85124047D02*
X106983214Y-85362142D01*
X106983214Y-85362142D02*
X106935595Y-85457380D01*
X106935595Y-85457380D02*
X106887976Y-85505000D01*
X106887976Y-85505000D02*
X106792738Y-85552619D01*
X106792738Y-85552619D02*
X106507024Y-85552619D01*
X106507024Y-85552619D02*
X106411786Y-85505000D01*
X106411786Y-85505000D02*
X106364167Y-85457380D01*
%TO.C,C3*%
X120607380Y-120816666D02*
X120655000Y-120864285D01*
X120655000Y-120864285D02*
X120702619Y-121007142D01*
X120702619Y-121007142D02*
X120702619Y-121102380D01*
X120702619Y-121102380D02*
X120655000Y-121245237D01*
X120655000Y-121245237D02*
X120559761Y-121340475D01*
X120559761Y-121340475D02*
X120464523Y-121388094D01*
X120464523Y-121388094D02*
X120274047Y-121435713D01*
X120274047Y-121435713D02*
X120131190Y-121435713D01*
X120131190Y-121435713D02*
X119940714Y-121388094D01*
X119940714Y-121388094D02*
X119845476Y-121340475D01*
X119845476Y-121340475D02*
X119750238Y-121245237D01*
X119750238Y-121245237D02*
X119702619Y-121102380D01*
X119702619Y-121102380D02*
X119702619Y-121007142D01*
X119702619Y-121007142D02*
X119750238Y-120864285D01*
X119750238Y-120864285D02*
X119797857Y-120816666D01*
X119702619Y-120483332D02*
X119702619Y-119864285D01*
X119702619Y-119864285D02*
X120083571Y-120197618D01*
X120083571Y-120197618D02*
X120083571Y-120054761D01*
X120083571Y-120054761D02*
X120131190Y-119959523D01*
X120131190Y-119959523D02*
X120178809Y-119911904D01*
X120178809Y-119911904D02*
X120274047Y-119864285D01*
X120274047Y-119864285D02*
X120512142Y-119864285D01*
X120512142Y-119864285D02*
X120607380Y-119911904D01*
X120607380Y-119911904D02*
X120655000Y-119959523D01*
X120655000Y-119959523D02*
X120702619Y-120054761D01*
X120702619Y-120054761D02*
X120702619Y-120340475D01*
X120702619Y-120340475D02*
X120655000Y-120435713D01*
X120655000Y-120435713D02*
X120607380Y-120483332D01*
%TO.C,C7*%
X122388333Y-103012380D02*
X122340714Y-103060000D01*
X122340714Y-103060000D02*
X122197857Y-103107619D01*
X122197857Y-103107619D02*
X122102619Y-103107619D01*
X122102619Y-103107619D02*
X121959762Y-103060000D01*
X121959762Y-103060000D02*
X121864524Y-102964761D01*
X121864524Y-102964761D02*
X121816905Y-102869523D01*
X121816905Y-102869523D02*
X121769286Y-102679047D01*
X121769286Y-102679047D02*
X121769286Y-102536190D01*
X121769286Y-102536190D02*
X121816905Y-102345714D01*
X121816905Y-102345714D02*
X121864524Y-102250476D01*
X121864524Y-102250476D02*
X121959762Y-102155238D01*
X121959762Y-102155238D02*
X122102619Y-102107619D01*
X122102619Y-102107619D02*
X122197857Y-102107619D01*
X122197857Y-102107619D02*
X122340714Y-102155238D01*
X122340714Y-102155238D02*
X122388333Y-102202857D01*
X122721667Y-102107619D02*
X123388333Y-102107619D01*
X123388333Y-102107619D02*
X122959762Y-103107619D01*
%TO.C,R8*%
X113237619Y-84621666D02*
X112761428Y-84954999D01*
X113237619Y-85193094D02*
X112237619Y-85193094D01*
X112237619Y-85193094D02*
X112237619Y-84812142D01*
X112237619Y-84812142D02*
X112285238Y-84716904D01*
X112285238Y-84716904D02*
X112332857Y-84669285D01*
X112332857Y-84669285D02*
X112428095Y-84621666D01*
X112428095Y-84621666D02*
X112570952Y-84621666D01*
X112570952Y-84621666D02*
X112666190Y-84669285D01*
X112666190Y-84669285D02*
X112713809Y-84716904D01*
X112713809Y-84716904D02*
X112761428Y-84812142D01*
X112761428Y-84812142D02*
X112761428Y-85193094D01*
X112666190Y-84050237D02*
X112618571Y-84145475D01*
X112618571Y-84145475D02*
X112570952Y-84193094D01*
X112570952Y-84193094D02*
X112475714Y-84240713D01*
X112475714Y-84240713D02*
X112428095Y-84240713D01*
X112428095Y-84240713D02*
X112332857Y-84193094D01*
X112332857Y-84193094D02*
X112285238Y-84145475D01*
X112285238Y-84145475D02*
X112237619Y-84050237D01*
X112237619Y-84050237D02*
X112237619Y-83859761D01*
X112237619Y-83859761D02*
X112285238Y-83764523D01*
X112285238Y-83764523D02*
X112332857Y-83716904D01*
X112332857Y-83716904D02*
X112428095Y-83669285D01*
X112428095Y-83669285D02*
X112475714Y-83669285D01*
X112475714Y-83669285D02*
X112570952Y-83716904D01*
X112570952Y-83716904D02*
X112618571Y-83764523D01*
X112618571Y-83764523D02*
X112666190Y-83859761D01*
X112666190Y-83859761D02*
X112666190Y-84050237D01*
X112666190Y-84050237D02*
X112713809Y-84145475D01*
X112713809Y-84145475D02*
X112761428Y-84193094D01*
X112761428Y-84193094D02*
X112856666Y-84240713D01*
X112856666Y-84240713D02*
X113047142Y-84240713D01*
X113047142Y-84240713D02*
X113142380Y-84193094D01*
X113142380Y-84193094D02*
X113190000Y-84145475D01*
X113190000Y-84145475D02*
X113237619Y-84050237D01*
X113237619Y-84050237D02*
X113237619Y-83859761D01*
X113237619Y-83859761D02*
X113190000Y-83764523D01*
X113190000Y-83764523D02*
X113142380Y-83716904D01*
X113142380Y-83716904D02*
X113047142Y-83669285D01*
X113047142Y-83669285D02*
X112856666Y-83669285D01*
X112856666Y-83669285D02*
X112761428Y-83716904D01*
X112761428Y-83716904D02*
X112713809Y-83764523D01*
X112713809Y-83764523D02*
X112666190Y-83859761D01*
D13*
%TO.C,Y1*%
X105423571Y-111283809D02*
X104947380Y-111283809D01*
X105947380Y-110950476D02*
X105423571Y-111283809D01*
X105423571Y-111283809D02*
X105947380Y-111617142D01*
X104947380Y-112474285D02*
X104947380Y-111902857D01*
X104947380Y-112188571D02*
X105947380Y-112188571D01*
X105947380Y-112188571D02*
X105804523Y-112093333D01*
X105804523Y-112093333D02*
X105709285Y-111998095D01*
X105709285Y-111998095D02*
X105661666Y-111902857D01*
D12*
%TO.C,U2*%
X124620000Y-102710000D02*
X124620000Y-102285000D01*
X124795000Y-100490000D02*
X124620000Y-100490000D01*
X124795000Y-102710000D02*
X124620000Y-102710000D01*
X126665000Y-100490000D02*
X126840000Y-100490000D01*
X126665000Y-102710000D02*
X126840000Y-102710000D01*
X126840000Y-100490000D02*
X126840000Y-100915000D01*
X126840000Y-102710000D02*
X126840000Y-102285000D01*
%TO.C,C16*%
X130275000Y-93083748D02*
X130275000Y-93606252D01*
X128805000Y-93083748D02*
X128805000Y-93606252D01*
%TO.C,J3*%
X107890000Y-122615000D02*
X107890000Y-121285000D01*
X109220000Y-122615000D02*
X107890000Y-122615000D01*
X110490000Y-122615000D02*
X115630000Y-122615000D01*
X110490000Y-122615000D02*
X110490000Y-119955000D01*
X115630000Y-122615000D02*
X115630000Y-119955000D01*
X110490000Y-119955000D02*
X115630000Y-119955000D01*
%TO.C,U4*%
X110490000Y-95280000D02*
X108690000Y-95280000D01*
X110490000Y-95280000D02*
X111290000Y-95280000D01*
X110490000Y-98400000D02*
X109690000Y-98400000D01*
X110490000Y-98400000D02*
X111290000Y-98400000D01*
%TO.C,C4*%
X122943252Y-106399000D02*
X122420748Y-106399000D01*
X122943252Y-104929000D02*
X122420748Y-104929000D01*
%TO.C,R3*%
X105310000Y-103097064D02*
X105310000Y-102642936D01*
X106780000Y-103097064D02*
X106780000Y-102642936D01*
%TO.C,C1*%
X114673748Y-101500000D02*
X115196252Y-101500000D01*
X114673748Y-102970000D02*
X115196252Y-102970000D01*
%TO.C,R1*%
X119101359Y-105665000D02*
X119408641Y-105665000D01*
X119101359Y-106425000D02*
X119408641Y-106425000D01*
%TO.C,C14*%
X114400000Y-98483748D02*
X114400000Y-99006252D01*
X112930000Y-98483748D02*
X112930000Y-99006252D01*
%TO.C,R2*%
X119226359Y-103125000D02*
X119533641Y-103125000D01*
X119226359Y-103885000D02*
X119533641Y-103885000D01*
%TO.C,R4*%
X110717064Y-111225000D02*
X110262936Y-111225000D01*
X110717064Y-109755000D02*
X110262936Y-109755000D01*
%TO.C,C2*%
X110751252Y-114019000D02*
X110228748Y-114019000D01*
X110751252Y-112549000D02*
X110228748Y-112549000D01*
%TO.C,D1*%
X107850000Y-104355000D02*
X109320000Y-104355000D01*
X109320000Y-104355000D02*
X109320000Y-102070000D01*
X107850000Y-102070000D02*
X107850000Y-104355000D01*
%TO.C,D4*%
X107100000Y-86260000D02*
X107100000Y-87730000D01*
X107100000Y-87730000D02*
X109385000Y-87730000D01*
X109385000Y-86260000D02*
X107100000Y-86260000D01*
D14*
%TO.C,J2*%
X118774000Y-86112500D02*
X112874000Y-86112500D01*
X118774000Y-78512500D02*
X118774000Y-86112500D01*
X112874000Y-86112500D02*
X112874000Y-78512500D01*
X112874000Y-78512500D02*
X118774000Y-78512500D01*
D15*
X116924000Y-86662500D02*
G75*
G03*
X116924000Y-86662500I-100000J0D01*
G01*
D12*
%TO.C,C13*%
X106941252Y-99480000D02*
X106418748Y-99480000D01*
X106941252Y-98010000D02*
X106418748Y-98010000D01*
%TO.C,C6*%
X108958748Y-115597000D02*
X109481252Y-115597000D01*
X108958748Y-117067000D02*
X109481252Y-117067000D01*
D14*
%TO.C,J5*%
X129212000Y-115052000D02*
X128982000Y-115052000D01*
X129212000Y-115052000D02*
X129212000Y-107452000D01*
X129212000Y-107452000D02*
X128982000Y-107452000D01*
D15*
X123812000Y-112552000D02*
G75*
G03*
X123812000Y-112552000I-100000J0D01*
G01*
D14*
%TO.C,L1*%
X106305000Y-88140000D02*
X113405000Y-88140000D01*
X106305000Y-94740000D02*
X113405000Y-94740000D01*
D12*
%TO.C,C15*%
X118845000Y-95623748D02*
X118845000Y-96146252D01*
X117375000Y-95623748D02*
X117375000Y-96146252D01*
%TO.C,R7*%
X111860000Y-80417936D02*
X111860000Y-80872064D01*
X110390000Y-80417936D02*
X110390000Y-80872064D01*
%TO.C,C5*%
X115670000Y-105148748D02*
X115670000Y-105671252D01*
X114200000Y-105148748D02*
X114200000Y-105671252D01*
%TO.C,U1*%
X114500000Y-109420000D02*
X114500000Y-109870000D01*
X114500000Y-109870000D02*
X113210000Y-109870000D01*
X114500000Y-116640000D02*
X114500000Y-116190000D01*
X114950000Y-109420000D02*
X114500000Y-109420000D01*
X114950000Y-116640000D02*
X114500000Y-116640000D01*
X121270000Y-109420000D02*
X121720000Y-109420000D01*
X121270000Y-116640000D02*
X121720000Y-116640000D01*
X121720000Y-109420000D02*
X121720000Y-109870000D01*
X121720000Y-116640000D02*
X121720000Y-116190000D01*
%TO.C,J1*%
X126915000Y-87625000D02*
X125590000Y-87625000D01*
X125590000Y-87690000D02*
X125590000Y-87625000D01*
X125590000Y-87690000D02*
X122060000Y-87690000D01*
X125590000Y-81285000D02*
X125590000Y-81220000D01*
X125590000Y-81220000D02*
X122060000Y-81220000D01*
X122060000Y-87690000D02*
X122060000Y-87625000D01*
X122060000Y-81285000D02*
X122060000Y-81220000D01*
%TO.C,D6*%
X114570000Y-95545000D02*
X116570000Y-95545000D01*
X114570000Y-95545000D02*
X114570000Y-91695000D01*
X116570000Y-95545000D02*
X116570000Y-91695000D01*
%TO.C,U5*%
X119725000Y-91205000D02*
X125735000Y-91205000D01*
X121975000Y-98025000D02*
X125735000Y-98025000D01*
X125735000Y-91205000D02*
X125735000Y-92465000D01*
X125735000Y-98025000D02*
X125735000Y-96765000D01*
%TO.C,D3*%
X107100000Y-84355000D02*
X107100000Y-85825000D01*
X107100000Y-85825000D02*
X109385000Y-85825000D01*
X109385000Y-84355000D02*
X107100000Y-84355000D01*
%TO.C,C3*%
X121185000Y-120911252D02*
X121185000Y-120388748D01*
X122655000Y-120911252D02*
X122655000Y-120388748D01*
%TO.C,C7*%
X122816252Y-101700000D02*
X122293748Y-101700000D01*
X122816252Y-100230000D02*
X122293748Y-100230000D01*
%TO.C,R8*%
X111860000Y-84227936D02*
X111860000Y-84682064D01*
X110390000Y-84227936D02*
X110390000Y-84682064D01*
%TD*%
%LPC*%
D16*
%TO.C,U2*%
X124967500Y-101350000D03*
X124967500Y-101850000D03*
D17*
X125230000Y-102362500D03*
X125730000Y-102362500D03*
X126230000Y-102362500D03*
D16*
X126492500Y-101850000D03*
X126492500Y-101350000D03*
D17*
X126230000Y-100837500D03*
X125730000Y-100837500D03*
X125230000Y-100837500D03*
%TD*%
D18*
%TO.C,C16*%
X129540000Y-92395000D03*
X129540000Y-94295000D03*
%TD*%
D19*
%TO.C,J3*%
X109220000Y-121285000D03*
D20*
X111760000Y-121285000D03*
X114300000Y-121285000D03*
%TD*%
D21*
%TO.C,U4*%
X109352500Y-95890000D03*
X109352500Y-96840000D03*
X109352500Y-97790000D03*
X111627500Y-97790000D03*
X111627500Y-95890000D03*
%TD*%
D22*
%TO.C,C4*%
X123632000Y-105664000D03*
X121732000Y-105664000D03*
%TD*%
D23*
%TO.C,R3*%
X106045000Y-103782500D03*
X106045000Y-101957500D03*
%TD*%
D24*
%TO.C,C1*%
X113985000Y-102235000D03*
X115885000Y-102235000D03*
%TD*%
D25*
%TO.C,R1*%
X118745000Y-106045000D03*
X119765000Y-106045000D03*
%TD*%
D18*
%TO.C,C14*%
X113665000Y-97795000D03*
X113665000Y-99695000D03*
%TD*%
D25*
%TO.C,R2*%
X118870000Y-103505000D03*
X119890000Y-103505000D03*
%TD*%
D26*
%TO.C,R4*%
X111402500Y-110490000D03*
X109577500Y-110490000D03*
%TD*%
D22*
%TO.C,C2*%
X111440000Y-113284000D03*
X109540000Y-113284000D03*
%TD*%
D27*
%TO.C,D1*%
X108585000Y-103657500D03*
X108585000Y-102082500D03*
%TD*%
D28*
%TO.C,D4*%
X107797500Y-86995000D03*
X109372500Y-86995000D03*
%TD*%
D29*
%TO.C,J2*%
X116824000Y-84762500D03*
D30*
X114824000Y-84762500D03*
%TD*%
D22*
%TO.C,C13*%
X107630000Y-98745000D03*
X105730000Y-98745000D03*
%TD*%
D24*
%TO.C,C6*%
X108270000Y-116332000D03*
X110170000Y-116332000D03*
%TD*%
D31*
%TO.C,J5*%
X125087000Y-112552000D03*
X125087000Y-111902000D03*
X125087000Y-111252000D03*
X125087000Y-110602000D03*
X125087000Y-109952000D03*
D32*
X125312000Y-114452000D03*
X125312000Y-108052000D03*
D33*
X127762000Y-110052000D03*
X127762000Y-112452000D03*
D34*
X127762000Y-114552000D03*
X127762000Y-107952000D03*
%TD*%
D35*
%TO.C,L1*%
X106830000Y-91440000D03*
X112880000Y-91440000D03*
%TD*%
D18*
%TO.C,C15*%
X118110000Y-94935000D03*
X118110000Y-96835000D03*
%TD*%
D36*
%TO.C,R7*%
X111125000Y-79732500D03*
X111125000Y-81557500D03*
%TD*%
D18*
%TO.C,C5*%
X114935000Y-104460000D03*
X114935000Y-106360000D03*
%TD*%
D37*
%TO.C,U1*%
X113947500Y-110280000D03*
X113947500Y-110780000D03*
X113947500Y-111280000D03*
X113947500Y-111780000D03*
X113947500Y-112280000D03*
X113947500Y-112780000D03*
X113947500Y-113280000D03*
X113947500Y-113780000D03*
X113947500Y-114280000D03*
X113947500Y-114780000D03*
X113947500Y-115280000D03*
X113947500Y-115780000D03*
D38*
X115360000Y-117192500D03*
X115860000Y-117192500D03*
X116360000Y-117192500D03*
X116860000Y-117192500D03*
X117360000Y-117192500D03*
X117860000Y-117192500D03*
X118360000Y-117192500D03*
X118860000Y-117192500D03*
X119360000Y-117192500D03*
X119860000Y-117192500D03*
X120360000Y-117192500D03*
X120860000Y-117192500D03*
D37*
X122272500Y-115780000D03*
X122272500Y-115280000D03*
X122272500Y-114780000D03*
X122272500Y-114280000D03*
X122272500Y-113780000D03*
X122272500Y-113280000D03*
X122272500Y-112780000D03*
X122272500Y-112280000D03*
X122272500Y-111780000D03*
X122272500Y-111280000D03*
X122272500Y-110780000D03*
X122272500Y-110280000D03*
D38*
X120860000Y-108867500D03*
X120360000Y-108867500D03*
X119860000Y-108867500D03*
X119360000Y-108867500D03*
X118860000Y-108867500D03*
X118360000Y-108867500D03*
X117860000Y-108867500D03*
X117360000Y-108867500D03*
X116860000Y-108867500D03*
X116360000Y-108867500D03*
X115860000Y-108867500D03*
X115360000Y-108867500D03*
%TD*%
D39*
%TO.C,J1*%
X125775000Y-86995000D03*
X121875000Y-86995000D03*
X125775000Y-85725000D03*
X121875000Y-85725000D03*
X125775000Y-84455000D03*
X121875000Y-84455000D03*
X125775000Y-83185000D03*
X121875000Y-83185000D03*
X125775000Y-81915000D03*
X121875000Y-81915000D03*
%TD*%
D40*
%TO.C,D6*%
X115570000Y-94745000D03*
X115570000Y-91945000D03*
%TD*%
D41*
%TO.C,U5*%
X120675000Y-92315000D03*
X120675000Y-94615000D03*
X120675000Y-96915000D03*
D42*
X126975000Y-94615000D03*
%TD*%
D28*
%TO.C,D3*%
X107797500Y-85090000D03*
X109372500Y-85090000D03*
%TD*%
D43*
%TO.C,C3*%
X121920000Y-121600000D03*
X121920000Y-119700000D03*
%TD*%
D22*
%TO.C,C7*%
X123505000Y-100965000D03*
X121605000Y-100965000D03*
%TD*%
D36*
%TO.C,R8*%
X111125000Y-83542500D03*
X111125000Y-85367500D03*
%TD*%
D44*
%TO.C,Y1*%
X107315000Y-110490000D03*
X107315000Y-111690000D03*
X107315000Y-112890000D03*
%TD*%
%LPD*%
M02*
