%TF.GenerationSoftware,KiCad,Pcbnew,7.0.2*%
%TF.CreationDate,2023-09-04T15:16:41-04:00*%
%TF.ProjectId,skydiving-altimeter,736b7964-6976-4696-9e67-2d616c74696d,rev?*%
%TF.SameCoordinates,Original*%
%TF.FileFunction,Drillmap*%
%TF.FilePolarity,Positive*%
%FSLAX45Y45*%
G04 Gerber Fmt 4.5, Leading zero omitted, Abs format (unit mm)*
G04 Created by KiCad (PCBNEW 7.0.2) date 2023-09-04 15:16:41*
%MOMM*%
%LPD*%
G01*
G04 APERTURE LIST*
%ADD10C,0.100000*%
%ADD11C,0.200000*%
G04 APERTURE END LIST*
D10*
X10448500Y-7811500D02*
X13081000Y-7811500D01*
X13081000Y-12319000D01*
X10448500Y-12319000D01*
X10448500Y-7811500D01*
X10916400Y-8077200D02*
G75*
G03*
X10916400Y-8077200I-175000J0D01*
G01*
X12925800Y-11988800D02*
G75*
G03*
X12925800Y-11988800I-175000J0D01*
G01*
D11*
X10691119Y-12636524D02*
X10691119Y-12436524D01*
X10691119Y-12436524D02*
X10738738Y-12436524D01*
X10738738Y-12436524D02*
X10767310Y-12446048D01*
X10767310Y-12446048D02*
X10786357Y-12465095D01*
X10786357Y-12465095D02*
X10795881Y-12484143D01*
X10795881Y-12484143D02*
X10805405Y-12522238D01*
X10805405Y-12522238D02*
X10805405Y-12550809D01*
X10805405Y-12550809D02*
X10795881Y-12588905D01*
X10795881Y-12588905D02*
X10786357Y-12607952D01*
X10786357Y-12607952D02*
X10767310Y-12627000D01*
X10767310Y-12627000D02*
X10738738Y-12636524D01*
X10738738Y-12636524D02*
X10691119Y-12636524D01*
X10891119Y-12636524D02*
X10891119Y-12503190D01*
X10891119Y-12541286D02*
X10900643Y-12522238D01*
X10900643Y-12522238D02*
X10910167Y-12512714D01*
X10910167Y-12512714D02*
X10929214Y-12503190D01*
X10929214Y-12503190D02*
X10948262Y-12503190D01*
X11014929Y-12636524D02*
X11014929Y-12503190D01*
X11014929Y-12436524D02*
X11005405Y-12446048D01*
X11005405Y-12446048D02*
X11014929Y-12455571D01*
X11014929Y-12455571D02*
X11024452Y-12446048D01*
X11024452Y-12446048D02*
X11014929Y-12436524D01*
X11014929Y-12436524D02*
X11014929Y-12455571D01*
X11138738Y-12636524D02*
X11119690Y-12627000D01*
X11119690Y-12627000D02*
X11110167Y-12607952D01*
X11110167Y-12607952D02*
X11110167Y-12436524D01*
X11243500Y-12636524D02*
X11224452Y-12627000D01*
X11224452Y-12627000D02*
X11214928Y-12607952D01*
X11214928Y-12607952D02*
X11214928Y-12436524D01*
X11472071Y-12636524D02*
X11472071Y-12436524D01*
X11472071Y-12436524D02*
X11538738Y-12579381D01*
X11538738Y-12579381D02*
X11605405Y-12436524D01*
X11605405Y-12436524D02*
X11605405Y-12636524D01*
X11786357Y-12636524D02*
X11786357Y-12531762D01*
X11786357Y-12531762D02*
X11776833Y-12512714D01*
X11776833Y-12512714D02*
X11757786Y-12503190D01*
X11757786Y-12503190D02*
X11719690Y-12503190D01*
X11719690Y-12503190D02*
X11700643Y-12512714D01*
X11786357Y-12627000D02*
X11767309Y-12636524D01*
X11767309Y-12636524D02*
X11719690Y-12636524D01*
X11719690Y-12636524D02*
X11700643Y-12627000D01*
X11700643Y-12627000D02*
X11691119Y-12607952D01*
X11691119Y-12607952D02*
X11691119Y-12588905D01*
X11691119Y-12588905D02*
X11700643Y-12569857D01*
X11700643Y-12569857D02*
X11719690Y-12560333D01*
X11719690Y-12560333D02*
X11767309Y-12560333D01*
X11767309Y-12560333D02*
X11786357Y-12550809D01*
X11881595Y-12503190D02*
X11881595Y-12703190D01*
X11881595Y-12512714D02*
X11900643Y-12503190D01*
X11900643Y-12503190D02*
X11938738Y-12503190D01*
X11938738Y-12503190D02*
X11957786Y-12512714D01*
X11957786Y-12512714D02*
X11967309Y-12522238D01*
X11967309Y-12522238D02*
X11976833Y-12541286D01*
X11976833Y-12541286D02*
X11976833Y-12598428D01*
X11976833Y-12598428D02*
X11967309Y-12617476D01*
X11967309Y-12617476D02*
X11957786Y-12627000D01*
X11957786Y-12627000D02*
X11938738Y-12636524D01*
X11938738Y-12636524D02*
X11900643Y-12636524D01*
X11900643Y-12636524D02*
X11881595Y-12627000D01*
X12062548Y-12617476D02*
X12072071Y-12627000D01*
X12072071Y-12627000D02*
X12062548Y-12636524D01*
X12062548Y-12636524D02*
X12053024Y-12627000D01*
X12053024Y-12627000D02*
X12062548Y-12617476D01*
X12062548Y-12617476D02*
X12062548Y-12636524D01*
X12062548Y-12512714D02*
X12072071Y-12522238D01*
X12072071Y-12522238D02*
X12062548Y-12531762D01*
X12062548Y-12531762D02*
X12053024Y-12522238D01*
X12053024Y-12522238D02*
X12062548Y-12512714D01*
X12062548Y-12512714D02*
X12062548Y-12531762D01*
M02*
