%TF.GenerationSoftware,KiCad,Pcbnew,7.0.2*%
%TF.CreationDate,2023-06-29T20:21:03-04:00*%
%TF.ProjectId,skydiving-altimeter,736b7964-6976-4696-9e67-2d616c74696d,rev?*%
%TF.SameCoordinates,Original*%
%TF.FileFunction,Soldermask,Top*%
%TF.FilePolarity,Negative*%
%FSLAX46Y46*%
G04 Gerber Fmt 4.6, Leading zero omitted, Abs format (unit mm)*
G04 Created by KiCad (PCBNEW 7.0.2) date 2023-06-29 20:21:03*
%MOMM*%
%LPD*%
G01*
G04 APERTURE LIST*
G04 Aperture macros list*
%AMRoundRect*
0 Rectangle with rounded corners*
0 $1 Rounding radius*
0 $2 $3 $4 $5 $6 $7 $8 $9 X,Y pos of 4 corners*
0 Add a 4 corners polygon primitive as box body*
4,1,4,$2,$3,$4,$5,$6,$7,$8,$9,$2,$3,0*
0 Add four circle primitives for the rounded corners*
1,1,$1+$1,$2,$3*
1,1,$1+$1,$4,$5*
1,1,$1+$1,$6,$7*
1,1,$1+$1,$8,$9*
0 Add four rect primitives between the rounded corners*
20,1,$1+$1,$2,$3,$4,$5,0*
20,1,$1+$1,$4,$5,$6,$7,0*
20,1,$1+$1,$6,$7,$8,$9,0*
20,1,$1+$1,$8,$9,$2,$3,0*%
G04 Aperture macros list end*
%ADD10RoundRect,0.087500X-0.125000X-0.087500X0.125000X-0.087500X0.125000X0.087500X-0.125000X0.087500X0*%
%ADD11RoundRect,0.087500X-0.087500X-0.125000X0.087500X-0.125000X0.087500X0.125000X-0.087500X0.125000X0*%
%ADD12RoundRect,0.250000X-0.475000X0.250000X-0.475000X-0.250000X0.475000X-0.250000X0.475000X0.250000X0*%
%ADD13R,1.700000X1.700000*%
%ADD14O,1.700000X1.700000*%
%ADD15RoundRect,0.150000X-0.512500X-0.150000X0.512500X-0.150000X0.512500X0.150000X-0.512500X0.150000X0*%
%ADD16RoundRect,0.250000X0.250000X0.475000X-0.250000X0.475000X-0.250000X-0.475000X0.250000X-0.475000X0*%
%ADD17RoundRect,0.250000X0.450000X-0.262500X0.450000X0.262500X-0.450000X0.262500X-0.450000X-0.262500X0*%
%ADD18RoundRect,0.250000X-0.250000X-0.475000X0.250000X-0.475000X0.250000X0.475000X-0.250000X0.475000X0*%
%ADD19RoundRect,0.135000X-0.135000X-0.185000X0.135000X-0.185000X0.135000X0.185000X-0.135000X0.185000X0*%
%ADD20RoundRect,0.250000X0.262500X0.450000X-0.262500X0.450000X-0.262500X-0.450000X0.262500X-0.450000X0*%
%ADD21RoundRect,0.218750X0.256250X-0.218750X0.256250X0.218750X-0.256250X0.218750X-0.256250X-0.218750X0*%
%ADD22R,1.308000X1.308000*%
%ADD23C,1.308000*%
%ADD24R,2.350000X3.500000*%
%ADD25RoundRect,0.075000X-0.662500X-0.075000X0.662500X-0.075000X0.662500X0.075000X-0.662500X0.075000X0*%
%ADD26RoundRect,0.075000X-0.075000X-0.662500X0.075000X-0.662500X0.075000X0.662500X-0.075000X0.662500X0*%
%ADD27R,1.350000X0.400000*%
%ADD28R,1.400000X1.600000*%
%ADD29R,1.900000X1.900000*%
%ADD30O,1.800000X0.900000*%
%ADD31R,2.400000X0.740000*%
%ADD32R,1.100000X1.100000*%
%ADD33R,2.000000X1.500000*%
%ADD34R,2.000000X3.800000*%
%ADD35RoundRect,0.250000X0.475000X-0.250000X0.475000X0.250000X-0.475000X0.250000X-0.475000X-0.250000X0*%
%ADD36R,1.900000X0.400000*%
G04 APERTURE END LIST*
D10*
%TO.C,U2*%
X124967500Y-101350000D03*
X124967500Y-101850000D03*
D11*
X125230000Y-102362500D03*
X125730000Y-102362500D03*
X126230000Y-102362500D03*
D10*
X126492500Y-101850000D03*
X126492500Y-101350000D03*
D11*
X126230000Y-100837500D03*
X125730000Y-100837500D03*
X125230000Y-100837500D03*
%TD*%
D12*
%TO.C,C16*%
X129540000Y-92395000D03*
X129540000Y-94295000D03*
%TD*%
D13*
%TO.C,J3*%
X109220000Y-121285000D03*
D14*
X111760000Y-121285000D03*
X114300000Y-121285000D03*
%TD*%
D15*
%TO.C,U4*%
X109352500Y-95890000D03*
X109352500Y-96840000D03*
X109352500Y-97790000D03*
X111627500Y-97790000D03*
X111627500Y-95890000D03*
%TD*%
D16*
%TO.C,C4*%
X126045000Y-107315000D03*
X124145000Y-107315000D03*
%TD*%
D17*
%TO.C,R3*%
X106045000Y-103782500D03*
X106045000Y-101957500D03*
%TD*%
D18*
%TO.C,C1*%
X113985000Y-102235000D03*
X115885000Y-102235000D03*
%TD*%
D19*
%TO.C,R1*%
X118745000Y-106045000D03*
X119765000Y-106045000D03*
%TD*%
D12*
%TO.C,C14*%
X113665000Y-97795000D03*
X113665000Y-99695000D03*
%TD*%
D19*
%TO.C,R2*%
X118870000Y-103505000D03*
X119890000Y-103505000D03*
%TD*%
D20*
%TO.C,R4*%
X111402500Y-110490000D03*
X109577500Y-110490000D03*
%TD*%
D16*
%TO.C,C2*%
X111440000Y-114300000D03*
X109540000Y-114300000D03*
%TD*%
D21*
%TO.C,D1*%
X108585000Y-103657500D03*
X108585000Y-102082500D03*
%TD*%
D22*
%TO.C,J2*%
X116824000Y-84762500D03*
D23*
X114824000Y-84762500D03*
%TD*%
D16*
%TO.C,C13*%
X107630000Y-98745000D03*
X105730000Y-98745000D03*
%TD*%
D18*
%TO.C,C6*%
X108270000Y-117475000D03*
X110170000Y-117475000D03*
%TD*%
D24*
%TO.C,L1*%
X106830000Y-91440000D03*
X112880000Y-91440000D03*
%TD*%
D12*
%TO.C,C15*%
X118110000Y-94935000D03*
X118110000Y-96835000D03*
%TD*%
%TO.C,C5*%
X114935000Y-104460000D03*
X114935000Y-106360000D03*
%TD*%
D25*
%TO.C,U1*%
X113947500Y-110280000D03*
X113947500Y-110780000D03*
X113947500Y-111280000D03*
X113947500Y-111780000D03*
X113947500Y-112280000D03*
X113947500Y-112780000D03*
X113947500Y-113280000D03*
X113947500Y-113780000D03*
X113947500Y-114280000D03*
X113947500Y-114780000D03*
X113947500Y-115280000D03*
X113947500Y-115780000D03*
D26*
X115360000Y-117192500D03*
X115860000Y-117192500D03*
X116360000Y-117192500D03*
X116860000Y-117192500D03*
X117360000Y-117192500D03*
X117860000Y-117192500D03*
X118360000Y-117192500D03*
X118860000Y-117192500D03*
X119360000Y-117192500D03*
X119860000Y-117192500D03*
X120360000Y-117192500D03*
X120860000Y-117192500D03*
D25*
X122272500Y-115780000D03*
X122272500Y-115280000D03*
X122272500Y-114780000D03*
X122272500Y-114280000D03*
X122272500Y-113780000D03*
X122272500Y-113280000D03*
X122272500Y-112780000D03*
X122272500Y-112280000D03*
X122272500Y-111780000D03*
X122272500Y-111280000D03*
X122272500Y-110780000D03*
X122272500Y-110280000D03*
D26*
X120860000Y-108867500D03*
X120360000Y-108867500D03*
X119860000Y-108867500D03*
X119360000Y-108867500D03*
X118860000Y-108867500D03*
X118360000Y-108867500D03*
X117860000Y-108867500D03*
X117360000Y-108867500D03*
X116860000Y-108867500D03*
X116360000Y-108867500D03*
X115860000Y-108867500D03*
X115360000Y-108867500D03*
%TD*%
D27*
%TO.C,J4*%
X124960000Y-114400000D03*
X124960000Y-113750000D03*
X124960000Y-113100000D03*
X124960000Y-112450000D03*
X124960000Y-111800000D03*
D28*
X125185000Y-116300000D03*
X125185000Y-109900000D03*
D29*
X127635000Y-111900000D03*
X127635000Y-114300000D03*
D30*
X127635000Y-116400000D03*
X127635000Y-109800000D03*
%TD*%
D31*
%TO.C,J1*%
X125775000Y-86995000D03*
X121875000Y-86995000D03*
X125775000Y-85725000D03*
X121875000Y-85725000D03*
X125775000Y-84455000D03*
X121875000Y-84455000D03*
X125775000Y-83185000D03*
X121875000Y-83185000D03*
X125775000Y-81915000D03*
X121875000Y-81915000D03*
%TD*%
D32*
%TO.C,D6*%
X115570000Y-94745000D03*
X115570000Y-91945000D03*
%TD*%
D33*
%TO.C,U5*%
X120675000Y-92315000D03*
X120675000Y-94615000D03*
X120675000Y-96915000D03*
D34*
X126975000Y-94615000D03*
%TD*%
D35*
%TO.C,C3*%
X121920000Y-121600000D03*
X121920000Y-119700000D03*
%TD*%
D16*
%TO.C,C7*%
X123505000Y-100965000D03*
X121605000Y-100965000D03*
%TD*%
D36*
%TO.C,Y1*%
X107315000Y-110490000D03*
X107315000Y-111690000D03*
X107315000Y-112890000D03*
%TD*%
M02*
