%FSLAX45Y45*%
G04 Gerber Fmt 4.5, Leading zero omitted, Abs format (unit mm)*
G04 Created by KiCad (PCBNEW (6.0.2)) date 2023-04-19 08:06:54*
%MOMM*%
%LPD*%
G01*
G04 APERTURE LIST*
%TA.AperFunction,Profile*%
%ADD10C,0.100000*%
%TD*%
%ADD11C,0.200000*%
G04 APERTURE END LIST*
D10*
X10448500Y-7811500D02*
X13081000Y-7811500D01*
X13081000Y-7811500D02*
X13081000Y-12319000D01*
X13081000Y-12319000D02*
X10448500Y-12319000D01*
X10448500Y-12319000D02*
X10448500Y-7811500D01*
X10916400Y-8077200D02*
G75*
G03*
X10916400Y-8077200I-175000J0D01*
G01*
X12925800Y-11988800D02*
G75*
G03*
X12925800Y-11988800I-175000J0D01*
G01*
D11*
X10701119Y-12634476D02*
X10701119Y-12434476D01*
X10748738Y-12434476D01*
X10777310Y-12444000D01*
X10796357Y-12463048D01*
X10805881Y-12482095D01*
X10815405Y-12520190D01*
X10815405Y-12548762D01*
X10805881Y-12586857D01*
X10796357Y-12605905D01*
X10777310Y-12624952D01*
X10748738Y-12634476D01*
X10701119Y-12634476D01*
X10901119Y-12634476D02*
X10901119Y-12501143D01*
X10901119Y-12539238D02*
X10910643Y-12520190D01*
X10920167Y-12510667D01*
X10939214Y-12501143D01*
X10958262Y-12501143D01*
X11024929Y-12634476D02*
X11024929Y-12501143D01*
X11024929Y-12434476D02*
X11015405Y-12444000D01*
X11024929Y-12453524D01*
X11034452Y-12444000D01*
X11024929Y-12434476D01*
X11024929Y-12453524D01*
X11148738Y-12634476D02*
X11129690Y-12624952D01*
X11120167Y-12605905D01*
X11120167Y-12434476D01*
X11253500Y-12634476D02*
X11234452Y-12624952D01*
X11224928Y-12605905D01*
X11224928Y-12434476D01*
X11482071Y-12634476D02*
X11482071Y-12434476D01*
X11548738Y-12577333D01*
X11615405Y-12434476D01*
X11615405Y-12634476D01*
X11796357Y-12634476D02*
X11796357Y-12529714D01*
X11786833Y-12510667D01*
X11767786Y-12501143D01*
X11729690Y-12501143D01*
X11710643Y-12510667D01*
X11796357Y-12624952D02*
X11777309Y-12634476D01*
X11729690Y-12634476D01*
X11710643Y-12624952D01*
X11701119Y-12605905D01*
X11701119Y-12586857D01*
X11710643Y-12567809D01*
X11729690Y-12558286D01*
X11777309Y-12558286D01*
X11796357Y-12548762D01*
X11891595Y-12501143D02*
X11891595Y-12701143D01*
X11891595Y-12510667D02*
X11910643Y-12501143D01*
X11948738Y-12501143D01*
X11967786Y-12510667D01*
X11977309Y-12520190D01*
X11986833Y-12539238D01*
X11986833Y-12596381D01*
X11977309Y-12615428D01*
X11967786Y-12624952D01*
X11948738Y-12634476D01*
X11910643Y-12634476D01*
X11891595Y-12624952D01*
X12072548Y-12615428D02*
X12082071Y-12624952D01*
X12072548Y-12634476D01*
X12063024Y-12624952D01*
X12072548Y-12615428D01*
X12072548Y-12634476D01*
X12072548Y-12510667D02*
X12082071Y-12520190D01*
X12072548Y-12529714D01*
X12063024Y-12520190D01*
X12072548Y-12510667D01*
X12072548Y-12529714D01*
M02*
