%TF.GenerationSoftware,KiCad,Pcbnew,7.0.2*%
%TF.CreationDate,2023-09-04T15:16:37-04:00*%
%TF.ProjectId,skydiving-altimeter,736b7964-6976-4696-9e67-2d616c74696d,rev?*%
%TF.SameCoordinates,Original*%
%TF.FileFunction,Copper,L2,Bot*%
%TF.FilePolarity,Positive*%
%FSLAX46Y46*%
G04 Gerber Fmt 4.6, Leading zero omitted, Abs format (unit mm)*
G04 Created by KiCad (PCBNEW 7.0.2) date 2023-09-04 15:16:37*
%MOMM*%
%LPD*%
G01*
G04 APERTURE LIST*
G04 Aperture macros list*
%AMRoundRect*
0 Rectangle with rounded corners*
0 $1 Rounding radius*
0 $2 $3 $4 $5 $6 $7 $8 $9 X,Y pos of 4 corners*
0 Add a 4 corners polygon primitive as box body*
4,1,4,$2,$3,$4,$5,$6,$7,$8,$9,$2,$3,0*
0 Add four circle primitives for the rounded corners*
1,1,$1+$1,$2,$3*
1,1,$1+$1,$4,$5*
1,1,$1+$1,$6,$7*
1,1,$1+$1,$8,$9*
0 Add four rect primitives between the rounded corners*
20,1,$1+$1,$2,$3,$4,$5,0*
20,1,$1+$1,$4,$5,$6,$7,0*
20,1,$1+$1,$6,$7,$8,$9,0*
20,1,$1+$1,$8,$9,$2,$3,0*%
G04 Aperture macros list end*
%TA.AperFunction,ComponentPad*%
%ADD10R,1.700000X1.700000*%
%TD*%
%TA.AperFunction,ComponentPad*%
%ADD11O,1.700000X1.700000*%
%TD*%
%TA.AperFunction,ComponentPad*%
%ADD12R,1.308000X1.308000*%
%TD*%
%TA.AperFunction,ComponentPad*%
%ADD13C,1.308000*%
%TD*%
%TA.AperFunction,ComponentPad*%
%ADD14O,1.800000X0.900000*%
%TD*%
%TA.AperFunction,SMDPad,CuDef*%
%ADD15RoundRect,0.150000X0.825000X0.150000X-0.825000X0.150000X-0.825000X-0.150000X0.825000X-0.150000X0*%
%TD*%
%TA.AperFunction,SMDPad,CuDef*%
%ADD16R,0.700000X1.000000*%
%TD*%
%TA.AperFunction,SMDPad,CuDef*%
%ADD17R,0.700000X0.600000*%
%TD*%
%TA.AperFunction,SMDPad,CuDef*%
%ADD18RoundRect,0.250000X0.262500X0.450000X-0.262500X0.450000X-0.262500X-0.450000X0.262500X-0.450000X0*%
%TD*%
%TA.AperFunction,SMDPad,CuDef*%
%ADD19RoundRect,0.062500X0.350000X0.062500X-0.350000X0.062500X-0.350000X-0.062500X0.350000X-0.062500X0*%
%TD*%
%TA.AperFunction,SMDPad,CuDef*%
%ADD20RoundRect,0.062500X0.062500X0.350000X-0.062500X0.350000X-0.062500X-0.350000X0.062500X-0.350000X0*%
%TD*%
%TA.AperFunction,SMDPad,CuDef*%
%ADD21R,2.600000X2.600000*%
%TD*%
%TA.AperFunction,ViaPad*%
%ADD22C,0.800000*%
%TD*%
%TA.AperFunction,Conductor*%
%ADD23C,0.250000*%
%TD*%
G04 APERTURE END LIST*
D10*
%TO.P,J3,1,Pin_1*%
%TO.N,GND*%
X109220000Y-121285000D03*
D11*
%TO.P,J3,2,Pin_2*%
%TO.N,/LED_DI*%
X111760000Y-121285000D03*
%TO.P,J3,3,Pin_3*%
%TO.N,+5V*%
X114300000Y-121285000D03*
%TD*%
D12*
%TO.P,J2,1,Pin_1*%
%TO.N,/Power/VIN*%
X116824000Y-84762500D03*
D13*
%TO.P,J2,2,Pin_2*%
%TO.N,GND*%
X114824000Y-84762500D03*
%TD*%
D14*
%TO.P,J5,S5,SHIELD*%
%TO.N,Net-(J5-SHIELD-PadS1)*%
X127762000Y-114552000D03*
%TO.P,J5,S6,SHIELD*%
X127762000Y-107952000D03*
%TD*%
D15*
%TO.P,U6,1,NC*%
%TO.N,unconnected-(U6-NC-Pad1)*%
X123825000Y-91440000D03*
%TO.P,U6,2,A1*%
%TO.N,unconnected-(U6-A1-Pad2)*%
X123825000Y-92710000D03*
%TO.P,U6,3,A2*%
%TO.N,unconnected-(U6-A2-Pad3)*%
X123825000Y-93980000D03*
%TO.P,U6,4,GND*%
%TO.N,GND*%
X123825000Y-95250000D03*
%TO.P,U6,5,SDA*%
%TO.N,/Baro Sensor/SDA*%
X118875000Y-95250000D03*
%TO.P,U6,6,SCL*%
%TO.N,/Baro Sensor/SCL*%
X118875000Y-93980000D03*
%TO.P,U6,7,WP*%
%TO.N,unconnected-(U6-WP-Pad7)*%
X118875000Y-92710000D03*
%TO.P,U6,8,VCC*%
%TO.N,+3V3*%
X118875000Y-91440000D03*
%TD*%
D16*
%TO.P,D2,1,A*%
%TO.N,GND*%
X124555000Y-118310000D03*
D17*
%TO.P,D2,2,K*%
%TO.N,Net-(J5-VUSB)*%
X124555000Y-120010000D03*
%TO.P,D2,3,K*%
%TO.N,Net-(J5-D-)*%
X122555000Y-120010000D03*
%TO.P,D2,4,K*%
%TO.N,Net-(J5-D+)*%
X122555000Y-118110000D03*
%TD*%
D18*
%TO.P,R6,1*%
%TO.N,GND*%
X110132500Y-118520000D03*
%TO.P,R6,2*%
%TO.N,Net-(U3-VBUS)*%
X108307500Y-118520000D03*
%TD*%
%TO.P,R5,1*%
%TO.N,Net-(U3-VBUS)*%
X110132500Y-115570000D03*
%TO.P,R5,2*%
%TO.N,Net-(J5-VUSB)*%
X108307500Y-115570000D03*
%TD*%
D19*
%TO.P,U3,1,~{RI}/CLK*%
%TO.N,unconnected-(U3-~{RI}{slash}CLK-Pad1)*%
X120715000Y-116880000D03*
%TO.P,U3,2,GND*%
%TO.N,GND*%
X120715000Y-117380000D03*
%TO.P,U3,3,D+*%
%TO.N,Net-(J5-D+)*%
X120715000Y-117880000D03*
%TO.P,U3,4,D-*%
%TO.N,Net-(J5-D-)*%
X120715000Y-118380000D03*
%TO.P,U3,5,VIO*%
%TO.N,+3V3*%
X120715000Y-118880000D03*
%TO.P,U3,6,VDD*%
X120715000Y-119380000D03*
D20*
%TO.P,U3,7,VREGIN*%
%TO.N,Net-(J5-VUSB)*%
X120027500Y-120067500D03*
%TO.P,U3,8,VBUS*%
%TO.N,Net-(U3-VBUS)*%
X119527500Y-120067500D03*
%TO.P,U3,9,~{RST}*%
%TO.N,Net-(U3-~{RST})*%
X119027500Y-120067500D03*
%TO.P,U3,10,NC*%
%TO.N,unconnected-(U3-NC-Pad10)*%
X118527500Y-120067500D03*
%TO.P,U3,11,~{WAKEUP}/GPIO.3*%
%TO.N,unconnected-(U3-~{WAKEUP}{slash}GPIO.3-Pad11)*%
X118027500Y-120067500D03*
%TO.P,U3,12,RS485/GPIO.2*%
%TO.N,unconnected-(U3-RS485{slash}GPIO.2-Pad12)*%
X117527500Y-120067500D03*
D19*
%TO.P,U3,13,~{RXT}/GPIO.1*%
%TO.N,Net-(D4-K)*%
X116840000Y-119380000D03*
%TO.P,U3,14,~{TXT}/GPIO.0*%
%TO.N,Net-(D3-K)*%
X116840000Y-118880000D03*
%TO.P,U3,15,~{SUSPEND}*%
%TO.N,unconnected-(U3-~{SUSPEND}-Pad15)*%
X116840000Y-118380000D03*
%TO.P,U3,16,NC*%
%TO.N,unconnected-(U3-NC-Pad16)*%
X116840000Y-117880000D03*
%TO.P,U3,17,SUSPEND*%
%TO.N,unconnected-(U3-SUSPEND-Pad17)*%
X116840000Y-117380000D03*
%TO.P,U3,18,~{CTS}*%
%TO.N,unconnected-(U3-~{CTS}-Pad18)*%
X116840000Y-116880000D03*
D20*
%TO.P,U3,19,~{RTS}*%
%TO.N,unconnected-(U3-~{RTS}-Pad19)*%
X117527500Y-116192500D03*
%TO.P,U3,20,RXD*%
%TO.N,/STM_32/M_TX*%
X118027500Y-116192500D03*
%TO.P,U3,21,TXD*%
%TO.N,/STM_32/M_RX*%
X118527500Y-116192500D03*
%TO.P,U3,22,~{DSR}*%
%TO.N,unconnected-(U3-~{DSR}-Pad22)*%
X119027500Y-116192500D03*
%TO.P,U3,23,~{DTR}*%
%TO.N,unconnected-(U3-~{DTR}-Pad23)*%
X119527500Y-116192500D03*
%TO.P,U3,24,~{DCD}*%
%TO.N,unconnected-(U3-~{DCD}-Pad24)*%
X120027500Y-116192500D03*
D21*
%TO.P,U3,25,GND*%
%TO.N,GND*%
X118777500Y-118130000D03*
%TD*%
D18*
%TO.P,R9,1*%
%TO.N,+3V3*%
X112672500Y-107315000D03*
%TO.P,R9,2*%
%TO.N,Net-(U3-~{RST})*%
X110847500Y-107315000D03*
%TD*%
D15*
%TO.P,U7,1,NC*%
%TO.N,unconnected-(U7-NC-Pad1)*%
X115505000Y-91440000D03*
%TO.P,U7,2,A1*%
%TO.N,+3V3*%
X115505000Y-92710000D03*
%TO.P,U7,3,A2*%
%TO.N,unconnected-(U7-A2-Pad3)*%
X115505000Y-93980000D03*
%TO.P,U7,4,GND*%
%TO.N,GND*%
X115505000Y-95250000D03*
%TO.P,U7,5,SDA*%
%TO.N,/Baro Sensor/SDA*%
X110555000Y-95250000D03*
%TO.P,U7,6,SCL*%
%TO.N,/Baro Sensor/SCL*%
X110555000Y-93980000D03*
%TO.P,U7,7,WP*%
%TO.N,unconnected-(U7-WP-Pad7)*%
X110555000Y-92710000D03*
%TO.P,U7,8,VCC*%
%TO.N,+3V3*%
X110555000Y-91440000D03*
%TD*%
D22*
%TO.N,GND*%
X121920000Y-81788000D03*
X127762000Y-91948000D03*
X122936000Y-96266000D03*
X114046000Y-102108000D03*
%TO.N,+3V3*%
X121412000Y-119888000D03*
%TO.N,GND*%
X113284000Y-116840000D03*
X121666000Y-100838000D03*
X121920000Y-121666000D03*
X124714000Y-103124000D03*
X108712000Y-103886000D03*
X117348000Y-103378000D03*
X124460000Y-118364000D03*
X110236000Y-118364000D03*
X106426000Y-117602000D03*
X119380000Y-118872000D03*
X117348000Y-101092000D03*
X118110000Y-118872000D03*
X106934000Y-111760000D03*
X127254000Y-99822000D03*
X126746000Y-103632000D03*
X107188000Y-120904000D03*
X109474000Y-113284000D03*
%TO.N,+3V3*%
X115062000Y-106426000D03*
X118110000Y-91440000D03*
X111252000Y-79756000D03*
X111252000Y-83566000D03*
%TO.N,/STM_32/SWDIO*%
X128778000Y-81026000D03*
X123952000Y-107442000D03*
%TO.N,/STM_32/SWCLK*%
X129032000Y-80010000D03*
X128016000Y-117094000D03*
%TO.N,+5V*%
X105410000Y-119634000D03*
X106684299Y-121915701D03*
%TO.N,/Baro Sensor/SCL*%
X122936000Y-99060000D03*
X118618000Y-105918000D03*
X121920000Y-103378000D03*
%TO.N,/Baro Sensor/SDA*%
X124968000Y-104902000D03*
X118872000Y-103378000D03*
%TO.N,Net-(J5-D-)*%
X124968000Y-116332000D03*
%TO.N,Net-(J5-D+)*%
X123190000Y-116586000D03*
%TO.N,Net-(D3-K)*%
X114046000Y-108712000D03*
X108712000Y-106426000D03*
X106934000Y-85090000D03*
%TO.N,Net-(D4-K)*%
X112776000Y-109220000D03*
X108712000Y-107696000D03*
X106426000Y-87122000D03*
%TO.N,Net-(J5-SHIELD-PadS1)*%
X127762000Y-112522000D03*
X125476000Y-114554000D03*
X127762000Y-109982000D03*
X125222000Y-107950000D03*
%TO.N,/STM_32/M_TX*%
X118364000Y-113538000D03*
%TO.N,/STM_32/M_RX*%
X119888000Y-112522000D03*
%TO.N,Net-(J5-VUSB)*%
X126492000Y-116332000D03*
%TD*%
D23*
%TO.N,+3V3*%
X120715000Y-118880000D02*
X120715000Y-119380000D01*
%TO.N,Net-(J5-VUSB)*%
X120864000Y-120904000D02*
X120027500Y-120067500D01*
X123661000Y-120904000D02*
X120864000Y-120904000D01*
X124555000Y-120010000D02*
X123661000Y-120904000D01*
%TO.N,/STM_32/SWCLK*%
X129503000Y-115607000D02*
X128016000Y-117094000D01*
X129032000Y-80010000D02*
X129503000Y-80481000D01*
X129503000Y-80481000D02*
X129503000Y-115607000D01*
%TO.N,GND*%
X124201751Y-95250000D02*
X123825000Y-95250000D01*
X127503751Y-91948000D02*
X124201751Y-95250000D01*
X127762000Y-91948000D02*
X127503751Y-91948000D01*
X122936000Y-96139000D02*
X123825000Y-95250000D01*
X122936000Y-96266000D02*
X122936000Y-96139000D01*
%TO.N,+3V3*%
X120904000Y-119380000D02*
X121412000Y-119888000D01*
X120715000Y-119380000D02*
X120904000Y-119380000D01*
%TO.N,GND*%
X106426000Y-117602000D02*
X106426000Y-117348000D01*
X120715000Y-117380000D02*
X119527500Y-117380000D01*
X119527500Y-117380000D02*
X118777500Y-118130000D01*
X106426000Y-120142000D02*
X106426000Y-117602000D01*
X107188000Y-120904000D02*
X106426000Y-120142000D01*
%TO.N,+3V3*%
X114880000Y-92085000D02*
X111200000Y-92085000D01*
X115062000Y-106426000D02*
X114300000Y-107188000D01*
X116840000Y-92710000D02*
X115505000Y-92710000D01*
X118110000Y-91440000D02*
X116840000Y-92710000D01*
X111252000Y-90743000D02*
X111252000Y-83566000D01*
X114300000Y-107188000D02*
X112776000Y-107188000D01*
X111200000Y-92085000D02*
X110555000Y-91440000D01*
X110555000Y-91440000D02*
X111252000Y-90743000D01*
X115505000Y-92710000D02*
X114880000Y-92085000D01*
X111252000Y-83566000D02*
X111252000Y-79756000D01*
%TO.N,/STM_32/SWDIO*%
X128778000Y-102625305D02*
X123961305Y-107442000D01*
X128778000Y-81026000D02*
X128778000Y-102625305D01*
X123961305Y-107442000D02*
X123952000Y-107442000D01*
%TO.N,+5V*%
X105156000Y-119888000D02*
X105156000Y-121412000D01*
X105410000Y-119634000D02*
X105156000Y-119888000D01*
X105156000Y-121412000D02*
X105659701Y-121915701D01*
X105659701Y-121915701D02*
X106684299Y-121915701D01*
%TO.N,/Baro Sensor/SCL*%
X118230000Y-93335000D02*
X118875000Y-93980000D01*
X119251751Y-93980000D02*
X118875000Y-93980000D01*
X119380000Y-105918000D02*
X121920000Y-103378000D01*
X110555000Y-93980000D02*
X111200000Y-93335000D01*
X118618000Y-105918000D02*
X119380000Y-105918000D01*
X111200000Y-93335000D02*
X118230000Y-93335000D01*
X122936000Y-99060000D02*
X122936000Y-97664249D01*
X122936000Y-97664249D02*
X119251751Y-93980000D01*
%TO.N,/Baro Sensor/SDA*%
X111200000Y-94605000D02*
X118230000Y-94605000D01*
X119597000Y-102653000D02*
X122719000Y-102653000D01*
X118872000Y-103378000D02*
X118872000Y-95253000D01*
X118872000Y-103378000D02*
X119597000Y-102653000D01*
X110555000Y-95250000D02*
X111200000Y-94605000D01*
X118230000Y-94605000D02*
X118875000Y-95250000D01*
X122719000Y-102653000D02*
X124968000Y-104902000D01*
X118872000Y-95253000D02*
X118875000Y-95250000D01*
%TO.N,Net-(J5-D-)*%
X123230000Y-119335000D02*
X122555000Y-120010000D01*
X122555000Y-120010000D02*
X122555000Y-119460000D01*
X121475000Y-118380000D02*
X120715000Y-118380000D01*
X123230000Y-118070000D02*
X123230000Y-119335000D01*
X122555000Y-119460000D02*
X121475000Y-118380000D01*
X124968000Y-116332000D02*
X123230000Y-118070000D01*
%TO.N,Net-(J5-D+)*%
X122555000Y-118110000D02*
X122325000Y-117880000D01*
X122555000Y-117221000D02*
X122555000Y-118110000D01*
X123190000Y-116586000D02*
X122555000Y-117221000D01*
X122325000Y-117880000D02*
X120715000Y-117880000D01*
%TO.N,Net-(D3-K)*%
X116840000Y-118880000D02*
X115706396Y-118880000D01*
X112152000Y-111114000D02*
X113284000Y-109982000D01*
X114046000Y-109220000D02*
X114046000Y-108712000D01*
X105664000Y-85598000D02*
X106172000Y-85090000D01*
X112152000Y-117094000D02*
X112152000Y-111114000D01*
X108712000Y-106426000D02*
X110744000Y-104394000D01*
X106172000Y-85090000D02*
X106934000Y-85090000D01*
X112326000Y-117914000D02*
X112152000Y-117740000D01*
X112152000Y-117740000D02*
X112152000Y-117094000D01*
X110744000Y-104140000D02*
X105664000Y-99060000D01*
X112522000Y-117914000D02*
X112326000Y-117914000D01*
X105664000Y-99060000D02*
X105664000Y-85598000D01*
X110744000Y-104394000D02*
X110744000Y-104140000D01*
X113284000Y-109982000D02*
X114046000Y-109220000D01*
X114740396Y-117914000D02*
X112522000Y-117914000D01*
X115706396Y-118880000D02*
X114740396Y-117914000D01*
%TO.N,Net-(D4-K)*%
X111702000Y-118052000D02*
X111702000Y-110236000D01*
X111702000Y-110236000D02*
X111760000Y-110236000D01*
X106172000Y-98044000D02*
X111702000Y-103574000D01*
X106426000Y-87122000D02*
X106172000Y-87376000D01*
X111760000Y-110236000D02*
X112776000Y-109220000D01*
X111702000Y-103574000D02*
X111702000Y-104706000D01*
X111702000Y-104706000D02*
X108712000Y-107696000D01*
X114554000Y-118364000D02*
X112014000Y-118364000D01*
X112014000Y-118364000D02*
X111702000Y-118052000D01*
X116840000Y-119380000D02*
X115570000Y-119380000D01*
X115570000Y-119380000D02*
X114554000Y-118364000D01*
X106172000Y-87376000D02*
X106172000Y-98044000D01*
%TO.N,Net-(J5-SHIELD-PadS1)*%
X127762000Y-109982000D02*
X127762000Y-107952000D01*
X127760000Y-114554000D02*
X127762000Y-114552000D01*
X127762000Y-114552000D02*
X127762000Y-112522000D01*
X127762000Y-107952000D02*
X125222000Y-107950000D01*
X125476000Y-114554000D02*
X127760000Y-114554000D01*
X127762000Y-112522000D02*
X127762000Y-109982000D01*
%TO.N,Net-(U3-VBUS)*%
X119126000Y-121412000D02*
X116088701Y-121412000D01*
X108307500Y-118520000D02*
X108307500Y-117395000D01*
X108307500Y-117395000D02*
X110132500Y-115570000D01*
X114221701Y-119545000D02*
X109332500Y-119545000D01*
X109332500Y-119545000D02*
X108307500Y-118520000D01*
X119527500Y-120067500D02*
X119527500Y-121010500D01*
X116088701Y-121412000D02*
X114221701Y-119545000D01*
X119527500Y-121010500D02*
X119126000Y-121412000D01*
%TO.N,Net-(U3-~{RST})*%
X111252000Y-107719500D02*
X110847500Y-107315000D01*
X119027500Y-120067500D02*
X119027500Y-120528008D01*
X111506000Y-118872000D02*
X111252000Y-118618000D01*
X114300000Y-118872000D02*
X111506000Y-118872000D01*
X118750508Y-120805000D02*
X116233000Y-120805000D01*
X111252000Y-118618000D02*
X111252000Y-107719500D01*
X116233000Y-120805000D02*
X114300000Y-118872000D01*
X119027500Y-120528008D02*
X118750508Y-120805000D01*
%TO.N,/STM_32/M_TX*%
X118027500Y-113874500D02*
X118364000Y-113538000D01*
X118027500Y-116192500D02*
X118027500Y-113874500D01*
%TO.N,/STM_32/M_RX*%
X118527500Y-116192500D02*
X118527500Y-115152500D01*
X118527500Y-115152500D02*
X119634000Y-114046000D01*
X119634000Y-114046000D02*
X119634000Y-112776000D01*
X119634000Y-112776000D02*
X119888000Y-112522000D01*
%TO.N,Net-(J5-VUSB)*%
X113030000Y-121676701D02*
X113813299Y-122460000D01*
X112246701Y-120110000D02*
X113030000Y-120893299D01*
X108371827Y-120110000D02*
X112246701Y-120110000D01*
X126492000Y-116332000D02*
X126492000Y-118073000D01*
X113030000Y-120893299D02*
X113030000Y-121676701D01*
X107470000Y-116407500D02*
X107470000Y-119208173D01*
X118770000Y-122460000D02*
X120027500Y-121202500D01*
X108307500Y-115570000D02*
X107470000Y-116407500D01*
X113813299Y-122460000D02*
X118770000Y-122460000D01*
X120027500Y-121202500D02*
X120027500Y-120067500D01*
X126492000Y-118073000D02*
X124555000Y-120010000D01*
X107470000Y-119208173D02*
X108371827Y-120110000D01*
%TD*%
%TA.AperFunction,Conductor*%
%TO.N,GND*%
G36*
X130751621Y-78135502D02*
G01*
X130798114Y-78189158D01*
X130809500Y-78241500D01*
X130809500Y-123063500D01*
X130789498Y-123131621D01*
X130735842Y-123178114D01*
X130683500Y-123189500D01*
X119240595Y-123189500D01*
X119172474Y-123169498D01*
X119125981Y-123115842D01*
X119115877Y-123045568D01*
X119145371Y-122980988D01*
X119151496Y-122974408D01*
X119161360Y-122964543D01*
X119161362Y-122964542D01*
X119175691Y-122950212D01*
X119190719Y-122937377D01*
X119207107Y-122925472D01*
X119235303Y-122891386D01*
X119243272Y-122882630D01*
X120416158Y-121709744D01*
X120432479Y-121696670D01*
X120434514Y-121694502D01*
X120434518Y-121694500D01*
X120481176Y-121644812D01*
X120483868Y-121642034D01*
X120503635Y-121622269D01*
X120506097Y-121619093D01*
X120513818Y-121610051D01*
X120544086Y-121577821D01*
X120554986Y-121566215D01*
X120555656Y-121566844D01*
X120593780Y-121528931D01*
X120663196Y-121514030D01*
X120673570Y-121515235D01*
X120685853Y-121517180D01*
X120685855Y-121517181D01*
X120729534Y-121524098D01*
X120741125Y-121526498D01*
X120783970Y-121537500D01*
X120804224Y-121537500D01*
X120823934Y-121539051D01*
X120843942Y-121542220D01*
X120843942Y-121542219D01*
X120843943Y-121542220D01*
X120887961Y-121538058D01*
X120899819Y-121537500D01*
X123577147Y-121537500D01*
X123597935Y-121539795D01*
X123600907Y-121539701D01*
X123600909Y-121539702D01*
X123668985Y-121537562D01*
X123672945Y-121537500D01*
X123696894Y-121537500D01*
X123700856Y-121537500D01*
X123704856Y-121536994D01*
X123716699Y-121536061D01*
X123760889Y-121534673D01*
X123780338Y-121529021D01*
X123799698Y-121525012D01*
X123819797Y-121522474D01*
X123860915Y-121506193D01*
X123872117Y-121502357D01*
X123914593Y-121490018D01*
X123932039Y-121479699D01*
X123949780Y-121471009D01*
X123968617Y-121463552D01*
X124004392Y-121437558D01*
X124014303Y-121431048D01*
X124052362Y-121408542D01*
X124066691Y-121394212D01*
X124081719Y-121381377D01*
X124098107Y-121369472D01*
X124126298Y-121335393D01*
X124134268Y-121326634D01*
X124605500Y-120855404D01*
X124667813Y-120821379D01*
X124694596Y-120818500D01*
X124950269Y-120818500D01*
X124953638Y-120818500D01*
X125014201Y-120811989D01*
X125151204Y-120760889D01*
X125268261Y-120673261D01*
X125355889Y-120556204D01*
X125406989Y-120419201D01*
X125413500Y-120358638D01*
X125413500Y-120099593D01*
X125433502Y-120031473D01*
X125450405Y-120010499D01*
X125545848Y-119915056D01*
X125608160Y-119881030D01*
X125678975Y-119886095D01*
X125735811Y-119928642D01*
X125760590Y-119994733D01*
X125770696Y-120129594D01*
X125772198Y-120149631D01*
X125830580Y-120405417D01*
X125876133Y-120521484D01*
X125926432Y-120649643D01*
X126057614Y-120876857D01*
X126221195Y-121081981D01*
X126413521Y-121260433D01*
X126413523Y-121260434D01*
X126413525Y-121260436D01*
X126449554Y-121285000D01*
X126630296Y-121408228D01*
X126745178Y-121463552D01*
X126866676Y-121522063D01*
X126938262Y-121544144D01*
X127117385Y-121599396D01*
X127376818Y-121638500D01*
X127376820Y-121638500D01*
X127639180Y-121638500D01*
X127639182Y-121638500D01*
X127898615Y-121599396D01*
X128149323Y-121522063D01*
X128385704Y-121408228D01*
X128602479Y-121260433D01*
X128794805Y-121081981D01*
X128958386Y-120876857D01*
X129089568Y-120649643D01*
X129185420Y-120405416D01*
X129243802Y-120149630D01*
X129263408Y-119888000D01*
X129243802Y-119626370D01*
X129185420Y-119370584D01*
X129089568Y-119126357D01*
X128958386Y-118899143D01*
X128794805Y-118694019D01*
X128602479Y-118515567D01*
X128602476Y-118515565D01*
X128602474Y-118515563D01*
X128385704Y-118367772D01*
X128149324Y-118253937D01*
X128114473Y-118243187D01*
X128055275Y-118203994D01*
X128026663Y-118139018D01*
X128037722Y-118068888D01*
X128084941Y-118015870D01*
X128125409Y-117999540D01*
X128298288Y-117962794D01*
X128472752Y-117885118D01*
X128627253Y-117772866D01*
X128755040Y-117630944D01*
X128850527Y-117465556D01*
X128909542Y-117283928D01*
X128926907Y-117118702D01*
X128953920Y-117053048D01*
X128963113Y-117042789D01*
X129891658Y-116114244D01*
X129907979Y-116101170D01*
X129910014Y-116099002D01*
X129910018Y-116099000D01*
X129956676Y-116049312D01*
X129959368Y-116046534D01*
X129979135Y-116026769D01*
X129981597Y-116023593D01*
X129989318Y-116014551D01*
X130019586Y-115982321D01*
X130029345Y-115964567D01*
X130040198Y-115948045D01*
X130052614Y-115932040D01*
X130070174Y-115891459D01*
X130075388Y-115880815D01*
X130096695Y-115842060D01*
X130101732Y-115822439D01*
X130108138Y-115803730D01*
X130109325Y-115800987D01*
X130116181Y-115785145D01*
X130123096Y-115741477D01*
X130125504Y-115729852D01*
X130128752Y-115717206D01*
X130136500Y-115687030D01*
X130136499Y-115666774D01*
X130138049Y-115647066D01*
X130141220Y-115627057D01*
X130137059Y-115583036D01*
X130136500Y-115571179D01*
X130136500Y-98357473D01*
X130136500Y-80564843D01*
X130138795Y-80544065D01*
X130136562Y-80473000D01*
X130136500Y-80469042D01*
X130136500Y-80445108D01*
X130136500Y-80441144D01*
X130135995Y-80437152D01*
X130135062Y-80425306D01*
X130134586Y-80410158D01*
X130133674Y-80381111D01*
X130128019Y-80361647D01*
X130124013Y-80342307D01*
X130121474Y-80322203D01*
X130105195Y-80281087D01*
X130101356Y-80269872D01*
X130099069Y-80262001D01*
X130089019Y-80227407D01*
X130078703Y-80209964D01*
X130070007Y-80192214D01*
X130062552Y-80173383D01*
X130036554Y-80137600D01*
X130030058Y-80127710D01*
X130007542Y-80089638D01*
X129993212Y-80075308D01*
X129980383Y-80060288D01*
X129968472Y-80043893D01*
X129968469Y-80043890D01*
X129965628Y-80039980D01*
X129942255Y-79979091D01*
X129925542Y-79820072D01*
X129866527Y-79638444D01*
X129866527Y-79638443D01*
X129771041Y-79473057D01*
X129643252Y-79331133D01*
X129534021Y-79251772D01*
X129488752Y-79218882D01*
X129314288Y-79141206D01*
X129127487Y-79101500D01*
X128936513Y-79101500D01*
X128811979Y-79127970D01*
X128749711Y-79141206D01*
X128575246Y-79218883D01*
X128420747Y-79331133D01*
X128292958Y-79473057D01*
X128197472Y-79638443D01*
X128138458Y-79820070D01*
X128138457Y-79820072D01*
X128138458Y-79820072D01*
X128118496Y-80010000D01*
X128138458Y-80199928D01*
X128138459Y-80199931D01*
X128158626Y-80262001D01*
X128160653Y-80332969D01*
X128132430Y-80385246D01*
X128038958Y-80489057D01*
X127943472Y-80654443D01*
X127884458Y-80836070D01*
X127864496Y-81025999D01*
X127884458Y-81215929D01*
X127943472Y-81397556D01*
X128038958Y-81562942D01*
X128038960Y-81562944D01*
X128112137Y-81644215D01*
X128142853Y-81708220D01*
X128144500Y-81728524D01*
X128144500Y-102310709D01*
X128124498Y-102378830D01*
X128107595Y-102399804D01*
X125982483Y-104524915D01*
X125920171Y-104558941D01*
X125849355Y-104553876D01*
X125792520Y-104511329D01*
X125784269Y-104498820D01*
X125707041Y-104365057D01*
X125618750Y-104267000D01*
X125579253Y-104223134D01*
X125516999Y-104177904D01*
X125424753Y-104110883D01*
X125424752Y-104110882D01*
X125250288Y-104033206D01*
X125063487Y-103993500D01*
X125063485Y-103993500D01*
X125007595Y-103993500D01*
X124939474Y-103973498D01*
X124918500Y-103956595D01*
X123226244Y-102264339D01*
X123213171Y-102248021D01*
X123161348Y-102199356D01*
X123158506Y-102196601D01*
X123141574Y-102179669D01*
X123138770Y-102176865D01*
X123135575Y-102174386D01*
X123126554Y-102166682D01*
X123094320Y-102136413D01*
X123076567Y-102126653D01*
X123060041Y-102115797D01*
X123044041Y-102103386D01*
X123003466Y-102085828D01*
X122992804Y-102080604D01*
X122954063Y-102059305D01*
X122940313Y-102055775D01*
X122934437Y-102054266D01*
X122915731Y-102047862D01*
X122897145Y-102039819D01*
X122853475Y-102032902D01*
X122841853Y-102030495D01*
X122799030Y-102019500D01*
X122799029Y-102019500D01*
X122778776Y-102019500D01*
X122759066Y-102017949D01*
X122739057Y-102014779D01*
X122695039Y-102018941D01*
X122683181Y-102019500D01*
X119680853Y-102019500D01*
X119660060Y-102017204D01*
X119635455Y-102017977D01*
X119566740Y-102000123D01*
X119518586Y-101947953D01*
X119505500Y-101892039D01*
X119505500Y-96184500D01*
X119525502Y-96116379D01*
X119579158Y-96069886D01*
X119631500Y-96058500D01*
X119764033Y-96058500D01*
X119766502Y-96058500D01*
X119803831Y-96055562D01*
X119963601Y-96009145D01*
X120106807Y-95924453D01*
X120114457Y-95916802D01*
X120176763Y-95882777D01*
X120247579Y-95887838D01*
X120292648Y-95916801D01*
X122265595Y-97889748D01*
X122299621Y-97952060D01*
X122302500Y-97978843D01*
X122302500Y-98357473D01*
X122282498Y-98425594D01*
X122270137Y-98441783D01*
X122196958Y-98523057D01*
X122101472Y-98688443D01*
X122042458Y-98870070D01*
X122022496Y-99059999D01*
X122042458Y-99249929D01*
X122101472Y-99431556D01*
X122196958Y-99596942D01*
X122196960Y-99596944D01*
X122324747Y-99738866D01*
X122479248Y-99851118D01*
X122653712Y-99928794D01*
X122840513Y-99968500D01*
X122840515Y-99968500D01*
X123031485Y-99968500D01*
X123031487Y-99968500D01*
X123218288Y-99928794D01*
X123392752Y-99851118D01*
X123547253Y-99738866D01*
X123675040Y-99596944D01*
X123770527Y-99431556D01*
X123829542Y-99249928D01*
X123849504Y-99060000D01*
X123829542Y-98870072D01*
X123770527Y-98688444D01*
X123770527Y-98688443D01*
X123675039Y-98523054D01*
X123601863Y-98441783D01*
X123571145Y-98377776D01*
X123569499Y-98357473D01*
X123569499Y-97748092D01*
X123571795Y-97727313D01*
X123569562Y-97656249D01*
X123569500Y-97652291D01*
X123569500Y-97628357D01*
X123569500Y-97624393D01*
X123568995Y-97620401D01*
X123568062Y-97608555D01*
X123566674Y-97564360D01*
X123561020Y-97544901D01*
X123557013Y-97525555D01*
X123554474Y-97505452D01*
X123538194Y-97464335D01*
X123534353Y-97453115D01*
X123522017Y-97410654D01*
X123511706Y-97393219D01*
X123503008Y-97375464D01*
X123495552Y-97356632D01*
X123469565Y-97320865D01*
X123463047Y-97310942D01*
X123440542Y-97272887D01*
X123426212Y-97258557D01*
X123413378Y-97243530D01*
X123401472Y-97227142D01*
X123401471Y-97227141D01*
X123367394Y-97198949D01*
X123358616Y-97190961D01*
X121671656Y-95504000D01*
X122345007Y-95504000D01*
X122391318Y-95663399D01*
X122475947Y-95806501D01*
X122593498Y-95924052D01*
X122736600Y-96008681D01*
X122896247Y-96055064D01*
X122931084Y-96057806D01*
X122936013Y-96057999D01*
X123571000Y-96057999D01*
X123571000Y-95504000D01*
X124079000Y-95504000D01*
X124079000Y-96057999D01*
X124713983Y-96057999D01*
X124718917Y-96057805D01*
X124753752Y-96055064D01*
X124913398Y-96008682D01*
X125056501Y-95924052D01*
X125174052Y-95806501D01*
X125258681Y-95663399D01*
X125304993Y-95504000D01*
X124079000Y-95504000D01*
X123571000Y-95504000D01*
X122345007Y-95504000D01*
X121671656Y-95504000D01*
X120395405Y-94227749D01*
X120378342Y-94196502D01*
X122341500Y-94196502D01*
X122341692Y-94198950D01*
X122341693Y-94198958D01*
X122344438Y-94233832D01*
X122390854Y-94393599D01*
X122483650Y-94550508D01*
X122479559Y-94552926D01*
X122499023Y-94588570D01*
X122493958Y-94659385D01*
X122481737Y-94678434D01*
X122484048Y-94679801D01*
X122391318Y-94836600D01*
X122345007Y-94996000D01*
X125304992Y-94996000D01*
X125258681Y-94836600D01*
X125165952Y-94679801D01*
X125170178Y-94677301D01*
X125150976Y-94642136D01*
X125156041Y-94571321D01*
X125168579Y-94551826D01*
X125166350Y-94550508D01*
X125174453Y-94536807D01*
X125259145Y-94393601D01*
X125305562Y-94233831D01*
X125308500Y-94196502D01*
X125308500Y-93763498D01*
X125305562Y-93726169D01*
X125259145Y-93566399D01*
X125174453Y-93423193D01*
X125174452Y-93423192D01*
X125166350Y-93409492D01*
X125170566Y-93406998D01*
X125151368Y-93371957D01*
X125156332Y-93301135D01*
X125168696Y-93281895D01*
X125166350Y-93280508D01*
X125174453Y-93266807D01*
X125259145Y-93123601D01*
X125305562Y-92963831D01*
X125308500Y-92926502D01*
X125308500Y-92493498D01*
X125305562Y-92456169D01*
X125259145Y-92296399D01*
X125174453Y-92153193D01*
X125174452Y-92153192D01*
X125166350Y-92139492D01*
X125170560Y-92137001D01*
X125151329Y-92101782D01*
X125156394Y-92030967D01*
X125168690Y-92011892D01*
X125166350Y-92010508D01*
X125174453Y-91996807D01*
X125259145Y-91853601D01*
X125305562Y-91693831D01*
X125308500Y-91656502D01*
X125308500Y-91223498D01*
X125305562Y-91186169D01*
X125259145Y-91026399D01*
X125174453Y-90883193D01*
X125174451Y-90883191D01*
X125174450Y-90883189D01*
X125056810Y-90765549D01*
X125052596Y-90763057D01*
X124913601Y-90680855D01*
X124913600Y-90680854D01*
X124913599Y-90680854D01*
X124753832Y-90634438D01*
X124718958Y-90631693D01*
X124718950Y-90631692D01*
X124716502Y-90631500D01*
X122933498Y-90631500D01*
X122931050Y-90631692D01*
X122931041Y-90631693D01*
X122896167Y-90634438D01*
X122736400Y-90680854D01*
X122593189Y-90765549D01*
X122475549Y-90883189D01*
X122390854Y-91026400D01*
X122344438Y-91186167D01*
X122343511Y-91197951D01*
X122341500Y-91223498D01*
X122341500Y-91656502D01*
X122341692Y-91658950D01*
X122341693Y-91658958D01*
X122344438Y-91693832D01*
X122390854Y-91853599D01*
X122483650Y-92010508D01*
X122479433Y-92013001D01*
X122498631Y-92048041D01*
X122493667Y-92118864D01*
X122481330Y-92138120D01*
X122483650Y-92139492D01*
X122390854Y-92296400D01*
X122344438Y-92456167D01*
X122344437Y-92456169D01*
X122344438Y-92456169D01*
X122341500Y-92493498D01*
X122341500Y-92926502D01*
X122341692Y-92928950D01*
X122341693Y-92928958D01*
X122344438Y-92963832D01*
X122390854Y-93123599D01*
X122483650Y-93280508D01*
X122479438Y-93282998D01*
X122498669Y-93318216D01*
X122493604Y-93389031D01*
X122481362Y-93408138D01*
X122483650Y-93409492D01*
X122390854Y-93566400D01*
X122344438Y-93726167D01*
X122344437Y-93726169D01*
X122344438Y-93726169D01*
X122341500Y-93763498D01*
X122341500Y-94196502D01*
X120378342Y-94196502D01*
X120361379Y-94165437D01*
X120358500Y-94138654D01*
X120358500Y-93765967D01*
X120358500Y-93763498D01*
X120355562Y-93726169D01*
X120309145Y-93566399D01*
X120224453Y-93423193D01*
X120224452Y-93423192D01*
X120216350Y-93409492D01*
X120220566Y-93406998D01*
X120201368Y-93371957D01*
X120206332Y-93301135D01*
X120218696Y-93281895D01*
X120216350Y-93280508D01*
X120224453Y-93266807D01*
X120309145Y-93123601D01*
X120355562Y-92963831D01*
X120358500Y-92926502D01*
X120358500Y-92493498D01*
X120355562Y-92456169D01*
X120309145Y-92296399D01*
X120224453Y-92153193D01*
X120224452Y-92153192D01*
X120216350Y-92139492D01*
X120220560Y-92137001D01*
X120201329Y-92101782D01*
X120206394Y-92030967D01*
X120218690Y-92011892D01*
X120216350Y-92010508D01*
X120224453Y-91996807D01*
X120309145Y-91853601D01*
X120355562Y-91693831D01*
X120358500Y-91656502D01*
X120358500Y-91223498D01*
X120355562Y-91186169D01*
X120309145Y-91026399D01*
X120224453Y-90883193D01*
X120224451Y-90883191D01*
X120224450Y-90883189D01*
X120106810Y-90765549D01*
X120102596Y-90763057D01*
X119963601Y-90680855D01*
X119963600Y-90680854D01*
X119963599Y-90680854D01*
X119803832Y-90634438D01*
X119768958Y-90631693D01*
X119768950Y-90631692D01*
X119766502Y-90631500D01*
X119764033Y-90631500D01*
X118554494Y-90631500D01*
X118503246Y-90620607D01*
X118392290Y-90571207D01*
X118392288Y-90571206D01*
X118205487Y-90531500D01*
X118014513Y-90531500D01*
X117889979Y-90557970D01*
X117827711Y-90571206D01*
X117653246Y-90648883D01*
X117498747Y-90761133D01*
X117370958Y-90903057D01*
X117275472Y-91068444D01*
X117230378Y-91207230D01*
X117190304Y-91265836D01*
X117124908Y-91293473D01*
X117054951Y-91281366D01*
X117002645Y-91233360D01*
X116991280Y-91197951D01*
X116989164Y-91198566D01*
X116939145Y-91026400D01*
X116939145Y-91026399D01*
X116854453Y-90883193D01*
X116854451Y-90883191D01*
X116854450Y-90883189D01*
X116736810Y-90765549D01*
X116732596Y-90763057D01*
X116593601Y-90680855D01*
X116593600Y-90680854D01*
X116593599Y-90680854D01*
X116433832Y-90634438D01*
X116398958Y-90631693D01*
X116398950Y-90631692D01*
X116396502Y-90631500D01*
X114613498Y-90631500D01*
X114611050Y-90631692D01*
X114611041Y-90631693D01*
X114576167Y-90634438D01*
X114416400Y-90680854D01*
X114273189Y-90765549D01*
X114155549Y-90883189D01*
X114070854Y-91026400D01*
X114024438Y-91186167D01*
X114023511Y-91197951D01*
X114021500Y-91223498D01*
X114021500Y-91225967D01*
X114021500Y-91325500D01*
X114001498Y-91393621D01*
X113947842Y-91440114D01*
X113895500Y-91451500D01*
X112164500Y-91451500D01*
X112096379Y-91431498D01*
X112049886Y-91377842D01*
X112038500Y-91325500D01*
X112038500Y-91225967D01*
X112038500Y-91223498D01*
X112035562Y-91186169D01*
X111989145Y-91026399D01*
X111904453Y-90883193D01*
X111904452Y-90883192D01*
X111903046Y-90880814D01*
X111885500Y-90816675D01*
X111885500Y-90802775D01*
X111887051Y-90783063D01*
X111890220Y-90763057D01*
X111886059Y-90719036D01*
X111885500Y-90707179D01*
X111885500Y-84762499D01*
X113657021Y-84762499D01*
X113676891Y-84976930D01*
X113735823Y-85184057D01*
X113831815Y-85376836D01*
X113839833Y-85387454D01*
X114425272Y-84802016D01*
X114438835Y-84887648D01*
X114496359Y-85000545D01*
X114585955Y-85090141D01*
X114698852Y-85147665D01*
X114784480Y-85161226D01*
X114201768Y-85743939D01*
X114303831Y-85807135D01*
X114504640Y-85884928D01*
X114716327Y-85924500D01*
X114931673Y-85924500D01*
X115143359Y-85884928D01*
X115344168Y-85807135D01*
X115527259Y-85693769D01*
X115552538Y-85670725D01*
X115616355Y-85639613D01*
X115686861Y-85647942D01*
X115738293Y-85688330D01*
X115806738Y-85779761D01*
X115923794Y-85867388D01*
X115923795Y-85867388D01*
X115923796Y-85867389D01*
X116060799Y-85918489D01*
X116121362Y-85925000D01*
X116124731Y-85925000D01*
X117523269Y-85925000D01*
X117526638Y-85925000D01*
X117587201Y-85918489D01*
X117724204Y-85867389D01*
X117841261Y-85779761D01*
X117928889Y-85662704D01*
X117979989Y-85525701D01*
X117986500Y-85465138D01*
X117986500Y-84059862D01*
X117979989Y-83999299D01*
X117928889Y-83862296D01*
X117928888Y-83862294D01*
X117841261Y-83745238D01*
X117724205Y-83657611D01*
X117655702Y-83632061D01*
X117587201Y-83606511D01*
X117526638Y-83600000D01*
X116121362Y-83600000D01*
X116118013Y-83600359D01*
X116118013Y-83600360D01*
X116060799Y-83606511D01*
X115923794Y-83657611D01*
X115806738Y-83745238D01*
X115738294Y-83836670D01*
X115681459Y-83879217D01*
X115610643Y-83884282D01*
X115552541Y-83854276D01*
X115527263Y-83831232D01*
X115344168Y-83717864D01*
X115143359Y-83640071D01*
X114931673Y-83600500D01*
X114716327Y-83600500D01*
X114504640Y-83640071D01*
X114303833Y-83717864D01*
X114201769Y-83781059D01*
X114784483Y-84363772D01*
X114698852Y-84377335D01*
X114585955Y-84434859D01*
X114496359Y-84524455D01*
X114438835Y-84637352D01*
X114425273Y-84722981D01*
X113839834Y-84137543D01*
X113831815Y-84148164D01*
X113735823Y-84340942D01*
X113676891Y-84548069D01*
X113657021Y-84762499D01*
X111885500Y-84762499D01*
X111885500Y-84268524D01*
X111905502Y-84200403D01*
X111917858Y-84184220D01*
X111991040Y-84102944D01*
X112086527Y-83937556D01*
X112145542Y-83755928D01*
X112165504Y-83566000D01*
X112145542Y-83376072D01*
X112086527Y-83194444D01*
X112086527Y-83194443D01*
X111991039Y-83029054D01*
X111917863Y-82947783D01*
X111887145Y-82883776D01*
X111885499Y-82863473D01*
X111885499Y-80458525D01*
X111905501Y-80390404D01*
X111917863Y-80374214D01*
X111917864Y-80374213D01*
X111991040Y-80292944D01*
X112086527Y-80127556D01*
X112145542Y-79945928D01*
X112165504Y-79756000D01*
X112145542Y-79566072D01*
X112086527Y-79384444D01*
X112086527Y-79384443D01*
X111991041Y-79219057D01*
X111863252Y-79077133D01*
X111708753Y-78964883D01*
X111708752Y-78964882D01*
X111534288Y-78887206D01*
X111347487Y-78847500D01*
X111156513Y-78847500D01*
X111031978Y-78873970D01*
X110969711Y-78887206D01*
X110795246Y-78964883D01*
X110640747Y-79077133D01*
X110512958Y-79219057D01*
X110417472Y-79384443D01*
X110358458Y-79566070D01*
X110338496Y-79755999D01*
X110358458Y-79945929D01*
X110417472Y-80127556D01*
X110512958Y-80292942D01*
X110512960Y-80292944D01*
X110586136Y-80374214D01*
X110616853Y-80438220D01*
X110618500Y-80458524D01*
X110618500Y-82863473D01*
X110598498Y-82931594D01*
X110586137Y-82947783D01*
X110512958Y-83029057D01*
X110417472Y-83194443D01*
X110358458Y-83376070D01*
X110338496Y-83566000D01*
X110358458Y-83755929D01*
X110417472Y-83937556D01*
X110512958Y-84102942D01*
X110512960Y-84102944D01*
X110586137Y-84184215D01*
X110616853Y-84248220D01*
X110618500Y-84268524D01*
X110618500Y-90428405D01*
X110598498Y-90496526D01*
X110581595Y-90517500D01*
X110504500Y-90594595D01*
X110442188Y-90628621D01*
X110415405Y-90631500D01*
X109663498Y-90631500D01*
X109661050Y-90631692D01*
X109661041Y-90631693D01*
X109626167Y-90634438D01*
X109466400Y-90680854D01*
X109323189Y-90765549D01*
X109205549Y-90883189D01*
X109120854Y-91026400D01*
X109074438Y-91186167D01*
X109073511Y-91197951D01*
X109071500Y-91223498D01*
X109071500Y-91656502D01*
X109071692Y-91658950D01*
X109071693Y-91658958D01*
X109074438Y-91693832D01*
X109120854Y-91853599D01*
X109213650Y-92010508D01*
X109209433Y-92013001D01*
X109228631Y-92048041D01*
X109223667Y-92118864D01*
X109211330Y-92138120D01*
X109213650Y-92139492D01*
X109120854Y-92296400D01*
X109074438Y-92456167D01*
X109074437Y-92456169D01*
X109074438Y-92456169D01*
X109071500Y-92493498D01*
X109071500Y-92926502D01*
X109071692Y-92928950D01*
X109071693Y-92928958D01*
X109074438Y-92963832D01*
X109120854Y-93123599D01*
X109213650Y-93280508D01*
X109209438Y-93282998D01*
X109228670Y-93318217D01*
X109223605Y-93389032D01*
X109211335Y-93408123D01*
X109213650Y-93409492D01*
X109120854Y-93566400D01*
X109074438Y-93726167D01*
X109074437Y-93726169D01*
X109074438Y-93726169D01*
X109071500Y-93763498D01*
X109071500Y-94196502D01*
X109071692Y-94198950D01*
X109071693Y-94198958D01*
X109074438Y-94233832D01*
X109120854Y-94393599D01*
X109213650Y-94550508D01*
X109209438Y-94552998D01*
X109228669Y-94588216D01*
X109223604Y-94659031D01*
X109211362Y-94678138D01*
X109213650Y-94679492D01*
X109120854Y-94836400D01*
X109074438Y-94996167D01*
X109074437Y-94996169D01*
X109074438Y-94996169D01*
X109071500Y-95033498D01*
X109071500Y-95466502D01*
X109071692Y-95468950D01*
X109071693Y-95468958D01*
X109074438Y-95503832D01*
X109120854Y-95663599D01*
X109205549Y-95806810D01*
X109323189Y-95924450D01*
X109323191Y-95924451D01*
X109323193Y-95924453D01*
X109466399Y-96009145D01*
X109626169Y-96055562D01*
X109663498Y-96058500D01*
X109665967Y-96058500D01*
X111444033Y-96058500D01*
X111446502Y-96058500D01*
X111483831Y-96055562D01*
X111643601Y-96009145D01*
X111786807Y-95924453D01*
X111904453Y-95806807D01*
X111989145Y-95663601D01*
X112035562Y-95503831D01*
X112038500Y-95466502D01*
X112038500Y-95364499D01*
X112058502Y-95296379D01*
X112112158Y-95249886D01*
X112164500Y-95238500D01*
X113896001Y-95238500D01*
X113964122Y-95258502D01*
X114010615Y-95312158D01*
X114022001Y-95364500D01*
X114022001Y-95463983D01*
X114022194Y-95468917D01*
X114024935Y-95503752D01*
X114071317Y-95663398D01*
X114155947Y-95806501D01*
X114273498Y-95924052D01*
X114416600Y-96008681D01*
X114576247Y-96055064D01*
X114611084Y-96057806D01*
X114616013Y-96057999D01*
X115251000Y-96057999D01*
X115251000Y-95364500D01*
X115271002Y-95296379D01*
X115324658Y-95249886D01*
X115377000Y-95238500D01*
X115633000Y-95238500D01*
X115701121Y-95258502D01*
X115747614Y-95312158D01*
X115759000Y-95364500D01*
X115759000Y-96057999D01*
X116393983Y-96057999D01*
X116398917Y-96057805D01*
X116433752Y-96055064D01*
X116593398Y-96008682D01*
X116736501Y-95924052D01*
X116854052Y-95806501D01*
X116938681Y-95663399D01*
X116985064Y-95503752D01*
X116987806Y-95468914D01*
X116988000Y-95463986D01*
X116988000Y-95364500D01*
X117008002Y-95296379D01*
X117061658Y-95249886D01*
X117114000Y-95238500D01*
X117265500Y-95238500D01*
X117333621Y-95258502D01*
X117380114Y-95312158D01*
X117391500Y-95364500D01*
X117391500Y-95466502D01*
X117391692Y-95468950D01*
X117391693Y-95468958D01*
X117394438Y-95503832D01*
X117440854Y-95663599D01*
X117525549Y-95806810D01*
X117643189Y-95924450D01*
X117643191Y-95924451D01*
X117643193Y-95924453D01*
X117786399Y-96009145D01*
X117946169Y-96055562D01*
X117983498Y-96058500D01*
X118112500Y-96058500D01*
X118180621Y-96078502D01*
X118227114Y-96132158D01*
X118238500Y-96184500D01*
X118238500Y-102675473D01*
X118218498Y-102743594D01*
X118206137Y-102759783D01*
X118132958Y-102841057D01*
X118037472Y-103006443D01*
X117978458Y-103188070D01*
X117958496Y-103377999D01*
X117978458Y-103567929D01*
X118037472Y-103749556D01*
X118132958Y-103914942D01*
X118132960Y-103914944D01*
X118260747Y-104056866D01*
X118415248Y-104169118D01*
X118589712Y-104246794D01*
X118776513Y-104286500D01*
X118776515Y-104286500D01*
X118967485Y-104286500D01*
X118967487Y-104286500D01*
X119154288Y-104246794D01*
X119328752Y-104169118D01*
X119483253Y-104056866D01*
X119611040Y-103914944D01*
X119706527Y-103749556D01*
X119765542Y-103567928D01*
X119782907Y-103402704D01*
X119809919Y-103337051D01*
X119819134Y-103326770D01*
X119822525Y-103323378D01*
X119884849Y-103289372D01*
X119911596Y-103286500D01*
X120811404Y-103286500D01*
X120879525Y-103306502D01*
X120926018Y-103360158D01*
X120936122Y-103430432D01*
X120906628Y-103495012D01*
X120900499Y-103501595D01*
X119266951Y-105135142D01*
X119204639Y-105169168D01*
X119133823Y-105164103D01*
X119103795Y-105147983D01*
X119102310Y-105146904D01*
X119074752Y-105126882D01*
X118900288Y-105049206D01*
X118713487Y-105009500D01*
X118522513Y-105009500D01*
X118421190Y-105031037D01*
X118335711Y-105049206D01*
X118161246Y-105126883D01*
X118006747Y-105239133D01*
X117878958Y-105381057D01*
X117783472Y-105546443D01*
X117724458Y-105728070D01*
X117704496Y-105917999D01*
X117724458Y-106107929D01*
X117783472Y-106289556D01*
X117878958Y-106454942D01*
X117971822Y-106558078D01*
X118006747Y-106596866D01*
X118161248Y-106709118D01*
X118335712Y-106786794D01*
X118522513Y-106826500D01*
X118522515Y-106826500D01*
X118713485Y-106826500D01*
X118713487Y-106826500D01*
X118900288Y-106786794D01*
X119074752Y-106709118D01*
X119229253Y-106596866D01*
X119230644Y-106595320D01*
X119235489Y-106592335D01*
X119239967Y-106589082D01*
X119240215Y-106589423D01*
X119291086Y-106558078D01*
X119320319Y-106553689D01*
X119382709Y-106551727D01*
X119387988Y-106551562D01*
X119391945Y-106551500D01*
X119415894Y-106551500D01*
X119419856Y-106551500D01*
X119423856Y-106550994D01*
X119435699Y-106550061D01*
X119479889Y-106548673D01*
X119499338Y-106543021D01*
X119518698Y-106539012D01*
X119538797Y-106536474D01*
X119579915Y-106520193D01*
X119591117Y-106516357D01*
X119633593Y-106504018D01*
X119651039Y-106493699D01*
X119668780Y-106485009D01*
X119687617Y-106477552D01*
X119723392Y-106451558D01*
X119733303Y-106445048D01*
X119771362Y-106422542D01*
X119785691Y-106408212D01*
X119800719Y-106395377D01*
X119817107Y-106383472D01*
X119845303Y-106349386D01*
X119853272Y-106340630D01*
X121870498Y-104323405D01*
X121932811Y-104289379D01*
X121959594Y-104286500D01*
X122015485Y-104286500D01*
X122015487Y-104286500D01*
X122202288Y-104246794D01*
X122376752Y-104169118D01*
X122531253Y-104056866D01*
X122659040Y-103914944D01*
X122732864Y-103787076D01*
X122784246Y-103738084D01*
X122853960Y-103724647D01*
X122919871Y-103751034D01*
X122931078Y-103760982D01*
X124020877Y-104850781D01*
X124054903Y-104913093D01*
X124057092Y-104926705D01*
X124074458Y-105091929D01*
X124133472Y-105273556D01*
X124228958Y-105438942D01*
X124228960Y-105438944D01*
X124356747Y-105580866D01*
X124511248Y-105693118D01*
X124553445Y-105711905D01*
X124607540Y-105757883D01*
X124628190Y-105825810D01*
X124608838Y-105894118D01*
X124591292Y-105916106D01*
X124010805Y-106496595D01*
X123948492Y-106530620D01*
X123921709Y-106533500D01*
X123856513Y-106533500D01*
X123740883Y-106558078D01*
X123669711Y-106573206D01*
X123495246Y-106650883D01*
X123340747Y-106763133D01*
X123212958Y-106905057D01*
X123117472Y-107070443D01*
X123058458Y-107252070D01*
X123038496Y-107442000D01*
X123058458Y-107631929D01*
X123117472Y-107813556D01*
X123212958Y-107978942D01*
X123310918Y-108087737D01*
X123340747Y-108120866D01*
X123495248Y-108233118D01*
X123669712Y-108310794D01*
X123856513Y-108350500D01*
X123856515Y-108350500D01*
X124047485Y-108350500D01*
X124047487Y-108350500D01*
X124234288Y-108310794D01*
X124247562Y-108304883D01*
X124317926Y-108295448D01*
X124382224Y-108325554D01*
X124407930Y-108356990D01*
X124482958Y-108486942D01*
X124514589Y-108522072D01*
X124610747Y-108628866D01*
X124765248Y-108741118D01*
X124939712Y-108818794D01*
X125126513Y-108858500D01*
X125126515Y-108858500D01*
X125317485Y-108858500D01*
X125317487Y-108858500D01*
X125504288Y-108818794D01*
X125678752Y-108741118D01*
X125833253Y-108628866D01*
X125836058Y-108625750D01*
X125896501Y-108588509D01*
X125929794Y-108584057D01*
X126536852Y-108584535D01*
X126604956Y-108604591D01*
X126628075Y-108623725D01*
X126649125Y-108645869D01*
X126684440Y-108683020D01*
X126767911Y-108741118D01*
X126844437Y-108794382D01*
X126844438Y-108794382D01*
X126844439Y-108794383D01*
X127023581Y-108871259D01*
X127025555Y-108871664D01*
X127027862Y-108872139D01*
X127090562Y-108905444D01*
X127125303Y-108967360D01*
X127128499Y-108995560D01*
X127128499Y-109279474D01*
X127108497Y-109347595D01*
X127096136Y-109363784D01*
X127022958Y-109445057D01*
X126927472Y-109610443D01*
X126868458Y-109792070D01*
X126848496Y-109982000D01*
X126868458Y-110171929D01*
X126927472Y-110353556D01*
X127022958Y-110518942D01*
X127022960Y-110518944D01*
X127096135Y-110600214D01*
X127126852Y-110664221D01*
X127128499Y-110684524D01*
X127128499Y-111819474D01*
X127108497Y-111887595D01*
X127096136Y-111903783D01*
X127022960Y-111985055D01*
X126927472Y-112150444D01*
X126868458Y-112332070D01*
X126848496Y-112522000D01*
X126868458Y-112711929D01*
X126927472Y-112893556D01*
X127022958Y-113058942D01*
X127022960Y-113058944D01*
X127096137Y-113140215D01*
X127126853Y-113204220D01*
X127128500Y-113224524D01*
X127128500Y-113512479D01*
X127108498Y-113580600D01*
X127054842Y-113627093D01*
X127040221Y-113632700D01*
X126932063Y-113666635D01*
X126761613Y-113761242D01*
X126611509Y-113890103D01*
X126546793Y-113919299D01*
X126529436Y-113920500D01*
X126184200Y-113920500D01*
X126116079Y-113900498D01*
X126090565Y-113878812D01*
X126087253Y-113875133D01*
X125932753Y-113762883D01*
X125932752Y-113762882D01*
X125758288Y-113685206D01*
X125571487Y-113645500D01*
X125380513Y-113645500D01*
X125255979Y-113671970D01*
X125193711Y-113685206D01*
X125019246Y-113762883D01*
X124864747Y-113875133D01*
X124736958Y-114017057D01*
X124641472Y-114182443D01*
X124582458Y-114364070D01*
X124562496Y-114553999D01*
X124582458Y-114743929D01*
X124641472Y-114925556D01*
X124736958Y-115090942D01*
X124736960Y-115090944D01*
X124864038Y-115232079D01*
X124894755Y-115296086D01*
X124885992Y-115366539D01*
X124840529Y-115421071D01*
X124796600Y-115439635D01*
X124685714Y-115463205D01*
X124511246Y-115540883D01*
X124356747Y-115653133D01*
X124228958Y-115795057D01*
X124133471Y-115960445D01*
X124125544Y-115984843D01*
X124085469Y-116043448D01*
X124020072Y-116071083D01*
X123950116Y-116058975D01*
X123912076Y-116030215D01*
X123801252Y-115907133D01*
X123701726Y-115834823D01*
X123646752Y-115794882D01*
X123472288Y-115717206D01*
X123285487Y-115677500D01*
X123094513Y-115677500D01*
X122969979Y-115703970D01*
X122907711Y-115717206D01*
X122733246Y-115794883D01*
X122578747Y-115907133D01*
X122450958Y-116049057D01*
X122355472Y-116214443D01*
X122296458Y-116396070D01*
X122279093Y-116561291D01*
X122252079Y-116626948D01*
X122242878Y-116637215D01*
X122166335Y-116713758D01*
X122150014Y-116726835D01*
X122101359Y-116778648D01*
X122098607Y-116781488D01*
X122078865Y-116801230D01*
X122076440Y-116804355D01*
X122076428Y-116804369D01*
X122076365Y-116804451D01*
X122068689Y-116813436D01*
X122038414Y-116845677D01*
X122028652Y-116863434D01*
X122017801Y-116879952D01*
X122005385Y-116895959D01*
X121987824Y-116936539D01*
X121982604Y-116947195D01*
X121961304Y-116985940D01*
X121956267Y-117005559D01*
X121949864Y-117024261D01*
X121941818Y-117042855D01*
X121934901Y-117086524D01*
X121932495Y-117098144D01*
X121918711Y-117151833D01*
X121882397Y-117212840D01*
X121818866Y-117244529D01*
X121796669Y-117246500D01*
X121744581Y-117246500D01*
X121676460Y-117226498D01*
X121629967Y-117172842D01*
X121619659Y-117104055D01*
X121630163Y-117024261D01*
X121636000Y-116979925D01*
X121635999Y-116780076D01*
X121621303Y-116668439D01*
X121563767Y-116529536D01*
X121563766Y-116529535D01*
X121563766Y-116529534D01*
X121472242Y-116410257D01*
X121352965Y-116318733D01*
X121214060Y-116261196D01*
X121106512Y-116247038D01*
X121106511Y-116247037D01*
X121102425Y-116246500D01*
X121098303Y-116246500D01*
X120786999Y-116246500D01*
X120718878Y-116226498D01*
X120672385Y-116172842D01*
X120660999Y-116120500D01*
X120660999Y-115809199D01*
X120660999Y-115809196D01*
X120660999Y-115805076D01*
X120646303Y-115693439D01*
X120588767Y-115554536D01*
X120588766Y-115554535D01*
X120588766Y-115554534D01*
X120497242Y-115435257D01*
X120377965Y-115343733D01*
X120239060Y-115286196D01*
X120131512Y-115272038D01*
X120131511Y-115272037D01*
X120127425Y-115271500D01*
X120123302Y-115271500D01*
X119931698Y-115271500D01*
X119931683Y-115271500D01*
X119927576Y-115271501D01*
X119923492Y-115272038D01*
X119923486Y-115272039D01*
X119799493Y-115288362D01*
X119799052Y-115285014D01*
X119755108Y-115289731D01*
X119746333Y-115287154D01*
X119631512Y-115272038D01*
X119631511Y-115272037D01*
X119627425Y-115271500D01*
X119623302Y-115271500D01*
X119608592Y-115271500D01*
X119540471Y-115251498D01*
X119493978Y-115197842D01*
X119483874Y-115127568D01*
X119513368Y-115062988D01*
X119519483Y-115056419D01*
X120022658Y-114553244D01*
X120038979Y-114540170D01*
X120041014Y-114538002D01*
X120041018Y-114538000D01*
X120087676Y-114488312D01*
X120090368Y-114485534D01*
X120110134Y-114465770D01*
X120112601Y-114462588D01*
X120120308Y-114453562D01*
X120150586Y-114421321D01*
X120160343Y-114403570D01*
X120171199Y-114387043D01*
X120183613Y-114371041D01*
X120201172Y-114330461D01*
X120206392Y-114319809D01*
X120227694Y-114281061D01*
X120227695Y-114281060D01*
X120232732Y-114261439D01*
X120239138Y-114242730D01*
X120247181Y-114224144D01*
X120254096Y-114180481D01*
X120256504Y-114168853D01*
X120267500Y-114126029D01*
X120267500Y-114105775D01*
X120269051Y-114086063D01*
X120272220Y-114066057D01*
X120268059Y-114022036D01*
X120267500Y-114010179D01*
X120267500Y-113429338D01*
X120287502Y-113361217D01*
X120341158Y-113314724D01*
X120342257Y-113314229D01*
X120342869Y-113313956D01*
X120344752Y-113313118D01*
X120499253Y-113200866D01*
X120627040Y-113058944D01*
X120722527Y-112893556D01*
X120781542Y-112711928D01*
X120801504Y-112522000D01*
X120781542Y-112332072D01*
X120722527Y-112150444D01*
X120722527Y-112150443D01*
X120627041Y-111985057D01*
X120499252Y-111843133D01*
X120344753Y-111730883D01*
X120344752Y-111730882D01*
X120170288Y-111653206D01*
X119983487Y-111613500D01*
X119792513Y-111613500D01*
X119667978Y-111639970D01*
X119605711Y-111653206D01*
X119431246Y-111730883D01*
X119276747Y-111843133D01*
X119148958Y-111985057D01*
X119053472Y-112150443D01*
X118994458Y-112332070D01*
X118974496Y-112522000D01*
X118984027Y-112612692D01*
X118971254Y-112682530D01*
X118922752Y-112734376D01*
X118853919Y-112751770D01*
X118807469Y-112740968D01*
X118646288Y-112669206D01*
X118459487Y-112629500D01*
X118268513Y-112629500D01*
X118143978Y-112655970D01*
X118081711Y-112669206D01*
X117907246Y-112746883D01*
X117752747Y-112859133D01*
X117624958Y-113001057D01*
X117529472Y-113166443D01*
X117470458Y-113348070D01*
X117450496Y-113537999D01*
X117452640Y-113558404D01*
X117439867Y-113628242D01*
X117437746Y-113632270D01*
X117433805Y-113639438D01*
X117428767Y-113659060D01*
X117422364Y-113677761D01*
X117414318Y-113696355D01*
X117407401Y-113740024D01*
X117404995Y-113751644D01*
X117394000Y-113794469D01*
X117394000Y-113814723D01*
X117392449Y-113834433D01*
X117389279Y-113854444D01*
X117393440Y-113898463D01*
X117393999Y-113910319D01*
X117394000Y-115169672D01*
X117373998Y-115237793D01*
X117320342Y-115284286D01*
X117316219Y-115286081D01*
X117177033Y-115343734D01*
X117057757Y-115435257D01*
X116966233Y-115554534D01*
X116908696Y-115693439D01*
X116895342Y-115794882D01*
X116894000Y-115805075D01*
X116894000Y-115809196D01*
X116894000Y-116120500D01*
X116873998Y-116188621D01*
X116820342Y-116235114D01*
X116768000Y-116246500D01*
X116456699Y-116246500D01*
X116456683Y-116246500D01*
X116452576Y-116246501D01*
X116448492Y-116247038D01*
X116448486Y-116247039D01*
X116340940Y-116261196D01*
X116202034Y-116318733D01*
X116082757Y-116410257D01*
X115991233Y-116529534D01*
X115933696Y-116668439D01*
X115919667Y-116775010D01*
X115919000Y-116780075D01*
X115919000Y-116784196D01*
X115919000Y-116784197D01*
X115919000Y-116975801D01*
X115919000Y-116975815D01*
X115919001Y-116979924D01*
X115919538Y-116984008D01*
X115919539Y-116984013D01*
X115935862Y-117108008D01*
X115932513Y-117108448D01*
X115937234Y-117152375D01*
X115934655Y-117161160D01*
X115926063Y-117226423D01*
X115919000Y-117280075D01*
X115919000Y-117284196D01*
X115919000Y-117284197D01*
X115919000Y-117475801D01*
X115919000Y-117475815D01*
X115919001Y-117479924D01*
X115919538Y-117484008D01*
X115919539Y-117484013D01*
X115935862Y-117608008D01*
X115932513Y-117608448D01*
X115937234Y-117652375D01*
X115934655Y-117661160D01*
X115923320Y-117747262D01*
X115919000Y-117780075D01*
X115919000Y-117784196D01*
X115919000Y-117784197D01*
X115919000Y-117892509D01*
X115898998Y-117960630D01*
X115845342Y-118007123D01*
X115775068Y-118017227D01*
X115710488Y-117987733D01*
X115703905Y-117981604D01*
X115247640Y-117525339D01*
X115234567Y-117509021D01*
X115182744Y-117460356D01*
X115179902Y-117457601D01*
X115162970Y-117440669D01*
X115160166Y-117437865D01*
X115156971Y-117435386D01*
X115147950Y-117427682D01*
X115115716Y-117397413D01*
X115097963Y-117387653D01*
X115081437Y-117376797D01*
X115065437Y-117364386D01*
X115024862Y-117346828D01*
X115014200Y-117341604D01*
X114975459Y-117320305D01*
X114961709Y-117316775D01*
X114955833Y-117315266D01*
X114937127Y-117308862D01*
X114927643Y-117304758D01*
X114918541Y-117300819D01*
X114874870Y-117293901D01*
X114863249Y-117291495D01*
X114820426Y-117280500D01*
X114820425Y-117280500D01*
X114800172Y-117280500D01*
X114780462Y-117278949D01*
X114760453Y-117275779D01*
X114716435Y-117279941D01*
X114704577Y-117280500D01*
X112911500Y-117280500D01*
X112843379Y-117260498D01*
X112796886Y-117206842D01*
X112785500Y-117154500D01*
X112785500Y-111428595D01*
X112805502Y-111360474D01*
X112822405Y-111339499D01*
X113760135Y-110401770D01*
X113760136Y-110401767D01*
X113771100Y-110390804D01*
X113771104Y-110390799D01*
X114434657Y-109727245D01*
X114450978Y-109714171D01*
X114453014Y-109712002D01*
X114453018Y-109712000D01*
X114499661Y-109662328D01*
X114502353Y-109659550D01*
X114522135Y-109639770D01*
X114524613Y-109636574D01*
X114532308Y-109627563D01*
X114562586Y-109595321D01*
X114572342Y-109577571D01*
X114583195Y-109561050D01*
X114595614Y-109545041D01*
X114613175Y-109504454D01*
X114618388Y-109493813D01*
X114639695Y-109455060D01*
X114644733Y-109435434D01*
X114651136Y-109416734D01*
X114658837Y-109398939D01*
X114680834Y-109364674D01*
X114785040Y-109248944D01*
X114880527Y-109083556D01*
X114939542Y-108901928D01*
X114959504Y-108712000D01*
X114939542Y-108522072D01*
X114908931Y-108427862D01*
X114880527Y-108340443D01*
X114785041Y-108175057D01*
X114657252Y-108033133D01*
X114570743Y-107970280D01*
X114527389Y-107914057D01*
X114521314Y-107843321D01*
X114554446Y-107780529D01*
X114598420Y-107751193D01*
X114607617Y-107747552D01*
X114643392Y-107721558D01*
X114653303Y-107715048D01*
X114691362Y-107692542D01*
X114705691Y-107678212D01*
X114720719Y-107665377D01*
X114737107Y-107653472D01*
X114765298Y-107619393D01*
X114773268Y-107610634D01*
X115012499Y-107371404D01*
X115074812Y-107337379D01*
X115101595Y-107334500D01*
X115157485Y-107334500D01*
X115157487Y-107334500D01*
X115344288Y-107294794D01*
X115518752Y-107217118D01*
X115673253Y-107104866D01*
X115801040Y-106962944D01*
X115896527Y-106797556D01*
X115955542Y-106615928D01*
X115975504Y-106426000D01*
X115955542Y-106236072D01*
X115914551Y-106109916D01*
X115896527Y-106054443D01*
X115801041Y-105889057D01*
X115702589Y-105779715D01*
X115673253Y-105747134D01*
X115518752Y-105634882D01*
X115344288Y-105557206D01*
X115157487Y-105517500D01*
X114966513Y-105517500D01*
X114841978Y-105543970D01*
X114779711Y-105557206D01*
X114605246Y-105634883D01*
X114450747Y-105747133D01*
X114322958Y-105889057D01*
X114227472Y-106054443D01*
X114168458Y-106236070D01*
X114151093Y-106401291D01*
X114124079Y-106466948D01*
X114114880Y-106477214D01*
X114074501Y-106517594D01*
X114012189Y-106551620D01*
X113985404Y-106554500D01*
X113704986Y-106554500D01*
X113636865Y-106534498D01*
X113597746Y-106494648D01*
X113534030Y-106391348D01*
X113534028Y-106391346D01*
X113534027Y-106391344D01*
X113408655Y-106265972D01*
X113408652Y-106265970D01*
X113257738Y-106172885D01*
X113089426Y-106117113D01*
X113089423Y-106117112D01*
X113089421Y-106117112D01*
X112988746Y-106106826D01*
X112988725Y-106106824D01*
X112985545Y-106106500D01*
X112982339Y-106106500D01*
X112362661Y-106106500D01*
X112362641Y-106106500D01*
X112359456Y-106106501D01*
X112356279Y-106106825D01*
X112356270Y-106106826D01*
X112255573Y-106117113D01*
X112087262Y-106172885D01*
X111936346Y-106265971D01*
X111849095Y-106353222D01*
X111786783Y-106387247D01*
X111715967Y-106382181D01*
X111670905Y-106353222D01*
X111583653Y-106265971D01*
X111583652Y-106265970D01*
X111432738Y-106172885D01*
X111432736Y-106172884D01*
X111432734Y-106172883D01*
X111400020Y-106162043D01*
X111341648Y-106121629D01*
X111314393Y-106056073D01*
X111326906Y-105986188D01*
X111350555Y-105953347D01*
X112090658Y-105213244D01*
X112106979Y-105200170D01*
X112109014Y-105198002D01*
X112109018Y-105198000D01*
X112155676Y-105148312D01*
X112158368Y-105145534D01*
X112178135Y-105125769D01*
X112180597Y-105122593D01*
X112188318Y-105113551D01*
X112218586Y-105081321D01*
X112228345Y-105063567D01*
X112239198Y-105047045D01*
X112251614Y-105031040D01*
X112269174Y-104990459D01*
X112274388Y-104979815D01*
X112295695Y-104941060D01*
X112300732Y-104921439D01*
X112307138Y-104902730D01*
X112307454Y-104902000D01*
X112315181Y-104884145D01*
X112322096Y-104840477D01*
X112324504Y-104828853D01*
X112335500Y-104786029D01*
X112335500Y-104765775D01*
X112337051Y-104746063D01*
X112340220Y-104726057D01*
X112336059Y-104682036D01*
X112335500Y-104670179D01*
X112335500Y-103657853D01*
X112337795Y-103637063D01*
X112335562Y-103566014D01*
X112335500Y-103562055D01*
X112335500Y-103538107D01*
X112335500Y-103534144D01*
X112334994Y-103530147D01*
X112334061Y-103518297D01*
X112332673Y-103474111D01*
X112327021Y-103454659D01*
X112323012Y-103435299D01*
X112320474Y-103415203D01*
X112304196Y-103374090D01*
X112300350Y-103362856D01*
X112289862Y-103326756D01*
X112288018Y-103320407D01*
X112277706Y-103302970D01*
X112269008Y-103285215D01*
X112261552Y-103266383D01*
X112235565Y-103230616D01*
X112229047Y-103220693D01*
X112206542Y-103182638D01*
X112192212Y-103168308D01*
X112179378Y-103153281D01*
X112167472Y-103136893D01*
X112167471Y-103136892D01*
X112133394Y-103108700D01*
X112124616Y-103100712D01*
X106842405Y-97818500D01*
X106808379Y-97756188D01*
X106805500Y-97729405D01*
X106805500Y-88029338D01*
X106825502Y-87961217D01*
X106879158Y-87914724D01*
X106880257Y-87914229D01*
X106880869Y-87913956D01*
X106882752Y-87913118D01*
X107037253Y-87800866D01*
X107165040Y-87658944D01*
X107260527Y-87493556D01*
X107319542Y-87311928D01*
X107339504Y-87122000D01*
X107319542Y-86932072D01*
X107260527Y-86750444D01*
X107260527Y-86750443D01*
X107165041Y-86585057D01*
X107037252Y-86443133D01*
X106882753Y-86330883D01*
X106882752Y-86330882D01*
X106708288Y-86253206D01*
X106521487Y-86213500D01*
X106423500Y-86213500D01*
X106355379Y-86193498D01*
X106308886Y-86139842D01*
X106297500Y-86087500D01*
X106297500Y-85995111D01*
X106317502Y-85926990D01*
X106371158Y-85880497D01*
X106441432Y-85870393D01*
X106474749Y-85880004D01*
X106477243Y-85881114D01*
X106477248Y-85881118D01*
X106651712Y-85958794D01*
X106838513Y-85998500D01*
X106838515Y-85998500D01*
X107029485Y-85998500D01*
X107029487Y-85998500D01*
X107216288Y-85958794D01*
X107390752Y-85881118D01*
X107545253Y-85768866D01*
X107673040Y-85626944D01*
X107768527Y-85461556D01*
X107827542Y-85279928D01*
X107847504Y-85090000D01*
X107827542Y-84900072D01*
X107782842Y-84762500D01*
X107768527Y-84718443D01*
X107673041Y-84553057D01*
X107584119Y-84454299D01*
X107545253Y-84411134D01*
X107534455Y-84403289D01*
X107390753Y-84298883D01*
X107390752Y-84298882D01*
X107216288Y-84221206D01*
X107029487Y-84181500D01*
X106838513Y-84181500D01*
X106749582Y-84200403D01*
X106651711Y-84221206D01*
X106477246Y-84298883D01*
X106322745Y-84411134D01*
X106321348Y-84412687D01*
X106316490Y-84415679D01*
X106312033Y-84418918D01*
X106311785Y-84418577D01*
X106260901Y-84449925D01*
X106231672Y-84454312D01*
X106164033Y-84456438D01*
X106160075Y-84456500D01*
X106132144Y-84456500D01*
X106128232Y-84456993D01*
X106128199Y-84456996D01*
X106128101Y-84457009D01*
X106116300Y-84457937D01*
X106072110Y-84459326D01*
X106052657Y-84464978D01*
X106033303Y-84468986D01*
X106013201Y-84471526D01*
X105972084Y-84487804D01*
X105960859Y-84491647D01*
X105918408Y-84503980D01*
X105900967Y-84514295D01*
X105883219Y-84522989D01*
X105864383Y-84530447D01*
X105828614Y-84556434D01*
X105818697Y-84562948D01*
X105780637Y-84585457D01*
X105766305Y-84599788D01*
X105751281Y-84612619D01*
X105734896Y-84624524D01*
X105706711Y-84658593D01*
X105698723Y-84667370D01*
X105275336Y-85090757D01*
X105259016Y-85103833D01*
X105210370Y-85155635D01*
X105207621Y-85158472D01*
X105190667Y-85175427D01*
X105190660Y-85175434D01*
X105187865Y-85178230D01*
X105185442Y-85181352D01*
X105185426Y-85181371D01*
X105185365Y-85181451D01*
X105177689Y-85190436D01*
X105147414Y-85222677D01*
X105137652Y-85240434D01*
X105126801Y-85256952D01*
X105114385Y-85272959D01*
X105096824Y-85313539D01*
X105091604Y-85324195D01*
X105070304Y-85362940D01*
X105065267Y-85382559D01*
X105058864Y-85401261D01*
X105050818Y-85419855D01*
X105043901Y-85463524D01*
X105041495Y-85475144D01*
X105030500Y-85517969D01*
X105030500Y-85538223D01*
X105028949Y-85557933D01*
X105025471Y-85579891D01*
X105026441Y-85584935D01*
X105029941Y-85621961D01*
X105030500Y-85633819D01*
X105030500Y-98976147D01*
X105028204Y-98996935D01*
X105030438Y-99067984D01*
X105030500Y-99071943D01*
X105030500Y-99099856D01*
X105030995Y-99103774D01*
X105030997Y-99103806D01*
X105031008Y-99103888D01*
X105031937Y-99115697D01*
X105033326Y-99159892D01*
X105038977Y-99179341D01*
X105042986Y-99198696D01*
X105045525Y-99218794D01*
X105045525Y-99218796D01*
X105045526Y-99218797D01*
X105057851Y-99249928D01*
X105061801Y-99259903D01*
X105065644Y-99271130D01*
X105077980Y-99313590D01*
X105088294Y-99331030D01*
X105096987Y-99348774D01*
X105104448Y-99367617D01*
X105104449Y-99367619D01*
X105130431Y-99403380D01*
X105136948Y-99413301D01*
X105159458Y-99451363D01*
X105173778Y-99465683D01*
X105186618Y-99480716D01*
X105198526Y-99497105D01*
X105232598Y-99525292D01*
X105241377Y-99533281D01*
X109886001Y-104177906D01*
X109920026Y-104240216D01*
X109914961Y-104311031D01*
X109886000Y-104356094D01*
X108761500Y-105480595D01*
X108699188Y-105514620D01*
X108672405Y-105517500D01*
X108616513Y-105517500D01*
X108491979Y-105543970D01*
X108429711Y-105557206D01*
X108255246Y-105634883D01*
X108100747Y-105747133D01*
X107972958Y-105889057D01*
X107877472Y-106054443D01*
X107818458Y-106236070D01*
X107798496Y-106426000D01*
X107818458Y-106615929D01*
X107877472Y-106797556D01*
X107972958Y-106962942D01*
X107985336Y-106976689D01*
X108016053Y-107040697D01*
X108007290Y-107111150D01*
X107985338Y-107145309D01*
X107972958Y-107159058D01*
X107877472Y-107324444D01*
X107818458Y-107506070D01*
X107798496Y-107695999D01*
X107818458Y-107885929D01*
X107877472Y-108067556D01*
X107972958Y-108232942D01*
X108056346Y-108325554D01*
X108100747Y-108374866D01*
X108255248Y-108487118D01*
X108429712Y-108564794D01*
X108616513Y-108604500D01*
X108616515Y-108604500D01*
X108807485Y-108604500D01*
X108807487Y-108604500D01*
X108994288Y-108564794D01*
X109168752Y-108487118D01*
X109323253Y-108374866D01*
X109451040Y-108232944D01*
X109546527Y-108067556D01*
X109596038Y-107915177D01*
X109636110Y-107856573D01*
X109701506Y-107828935D01*
X109771463Y-107841042D01*
X109823770Y-107889047D01*
X109835475Y-107914482D01*
X109837112Y-107919424D01*
X109837113Y-107919426D01*
X109892885Y-108087738D01*
X109982557Y-108233118D01*
X109985972Y-108238655D01*
X110111344Y-108364027D01*
X110111346Y-108364028D01*
X110111348Y-108364030D01*
X110262262Y-108457115D01*
X110430574Y-108512887D01*
X110505307Y-108520522D01*
X110571040Y-108547343D01*
X110611839Y-108605446D01*
X110618499Y-108645869D01*
X110618500Y-114239641D01*
X110598498Y-114307762D01*
X110544842Y-114354255D01*
X110479693Y-114364988D01*
X110448746Y-114361826D01*
X110448725Y-114361824D01*
X110445545Y-114361500D01*
X110442339Y-114361500D01*
X109822661Y-114361500D01*
X109822641Y-114361500D01*
X109819456Y-114361501D01*
X109816279Y-114361825D01*
X109816270Y-114361826D01*
X109715573Y-114372113D01*
X109547262Y-114427885D01*
X109396346Y-114520971D01*
X109309094Y-114608223D01*
X109246782Y-114642248D01*
X109175966Y-114637182D01*
X109130905Y-114608223D01*
X109043652Y-114520970D01*
X108892738Y-114427885D01*
X108724426Y-114372113D01*
X108724423Y-114372112D01*
X108724421Y-114372112D01*
X108623746Y-114361826D01*
X108623725Y-114361824D01*
X108620545Y-114361500D01*
X108617339Y-114361500D01*
X107997661Y-114361500D01*
X107997641Y-114361500D01*
X107994456Y-114361501D01*
X107991279Y-114361825D01*
X107991270Y-114361826D01*
X107890573Y-114372113D01*
X107722262Y-114427885D01*
X107571344Y-114520972D01*
X107445972Y-114646344D01*
X107445970Y-114646348D01*
X107352885Y-114797262D01*
X107297113Y-114965574D01*
X107297112Y-114965578D01*
X107286826Y-115066253D01*
X107286824Y-115066275D01*
X107286500Y-115069455D01*
X107286500Y-115072659D01*
X107286500Y-115072660D01*
X107286500Y-115642903D01*
X107266498Y-115711024D01*
X107249595Y-115731998D01*
X107081337Y-115900256D01*
X107065016Y-115913333D01*
X107016370Y-115965135D01*
X107013621Y-115967972D01*
X106996667Y-115984927D01*
X106996660Y-115984934D01*
X106993865Y-115987730D01*
X106991442Y-115990852D01*
X106991426Y-115990871D01*
X106991365Y-115990951D01*
X106983689Y-115999936D01*
X106953414Y-116032177D01*
X106943652Y-116049934D01*
X106932801Y-116066452D01*
X106920385Y-116082459D01*
X106902824Y-116123039D01*
X106897604Y-116133695D01*
X106876304Y-116172440D01*
X106871267Y-116192059D01*
X106864864Y-116210761D01*
X106856818Y-116229355D01*
X106849901Y-116273024D01*
X106847495Y-116284644D01*
X106836500Y-116327469D01*
X106836500Y-116347723D01*
X106834949Y-116367433D01*
X106831779Y-116387442D01*
X106835941Y-116431461D01*
X106836500Y-116443319D01*
X106836500Y-119124320D01*
X106834204Y-119145108D01*
X106836438Y-119216157D01*
X106836500Y-119220116D01*
X106836500Y-119248029D01*
X106836995Y-119251947D01*
X106836997Y-119251979D01*
X106837008Y-119252061D01*
X106837937Y-119263870D01*
X106839326Y-119308065D01*
X106844977Y-119327514D01*
X106848986Y-119346869D01*
X106851525Y-119366967D01*
X106867801Y-119408076D01*
X106871644Y-119419303D01*
X106883980Y-119461763D01*
X106894294Y-119479203D01*
X106902987Y-119496947D01*
X106910448Y-119515790D01*
X106910449Y-119515792D01*
X106936431Y-119551553D01*
X106942948Y-119561474D01*
X106965458Y-119599536D01*
X106979778Y-119613856D01*
X106992618Y-119628889D01*
X107004526Y-119645278D01*
X107038592Y-119673460D01*
X107047372Y-119681450D01*
X107825094Y-120459172D01*
X107859120Y-120521484D01*
X107861999Y-120548267D01*
X107862000Y-121031000D01*
X108788884Y-121031000D01*
X108760507Y-121075156D01*
X108720000Y-121213111D01*
X108720000Y-121356889D01*
X108760507Y-121494844D01*
X108788884Y-121539000D01*
X107862000Y-121539000D01*
X107862000Y-122180222D01*
X107862359Y-122186936D01*
X107868505Y-122244093D01*
X107919554Y-122380962D01*
X108007095Y-122497904D01*
X108124037Y-122585445D01*
X108260906Y-122636494D01*
X108318063Y-122642640D01*
X108324777Y-122643000D01*
X108966000Y-122643000D01*
X108966000Y-121718674D01*
X109077685Y-121769680D01*
X109184237Y-121785000D01*
X109255763Y-121785000D01*
X109362315Y-121769680D01*
X109474000Y-121718674D01*
X109474000Y-122643000D01*
X110115223Y-122643000D01*
X110121936Y-122642640D01*
X110179093Y-122636494D01*
X110315962Y-122585445D01*
X110432904Y-122497904D01*
X110520445Y-122380962D01*
X110564618Y-122262530D01*
X110607164Y-122205694D01*
X110673685Y-122180883D01*
X110743059Y-122195974D01*
X110775372Y-122221222D01*
X110796427Y-122244093D01*
X110836762Y-122287908D01*
X110983377Y-122402024D01*
X111014424Y-122426189D01*
X111212426Y-122533342D01*
X111425365Y-122606444D01*
X111647431Y-122643500D01*
X111647434Y-122643500D01*
X111872566Y-122643500D01*
X111872569Y-122643500D01*
X112094635Y-122606444D01*
X112307574Y-122533342D01*
X112505576Y-122426189D01*
X112617052Y-122339423D01*
X112630332Y-122329087D01*
X112696374Y-122303030D01*
X112766020Y-122316815D01*
X112796818Y-122339423D01*
X113306051Y-122848656D01*
X113319130Y-122864981D01*
X113321298Y-122867017D01*
X113321299Y-122867018D01*
X113370950Y-122913643D01*
X113373792Y-122916398D01*
X113393529Y-122936135D01*
X113396659Y-122938563D01*
X113396731Y-122938619D01*
X113405741Y-122946314D01*
X113432721Y-122971650D01*
X113468687Y-123032861D01*
X113465850Y-123103801D01*
X113425110Y-123161946D01*
X113359402Y-123188834D01*
X113346469Y-123189500D01*
X104901000Y-123189500D01*
X104832879Y-123169498D01*
X104786386Y-123115842D01*
X104775000Y-123063500D01*
X104775000Y-122231095D01*
X104795002Y-122162974D01*
X104848658Y-122116481D01*
X104918932Y-122106377D01*
X104983512Y-122135871D01*
X104990087Y-122141991D01*
X105079190Y-122231095D01*
X105152458Y-122304363D01*
X105165535Y-122320685D01*
X105217352Y-122369344D01*
X105220194Y-122372099D01*
X105239931Y-122391836D01*
X105243061Y-122394264D01*
X105243133Y-122394320D01*
X105252143Y-122402015D01*
X105284380Y-122432287D01*
X105302127Y-122442043D01*
X105318651Y-122452897D01*
X105334660Y-122465315D01*
X105375243Y-122482876D01*
X105385894Y-122488094D01*
X105424641Y-122509396D01*
X105444261Y-122514433D01*
X105462968Y-122520838D01*
X105469581Y-122523699D01*
X105481555Y-122528882D01*
X105492206Y-122530568D01*
X105525231Y-122535799D01*
X105536826Y-122538199D01*
X105579671Y-122549201D01*
X105599925Y-122549201D01*
X105619635Y-122550752D01*
X105639643Y-122553921D01*
X105639643Y-122553920D01*
X105639644Y-122553921D01*
X105683662Y-122549759D01*
X105695520Y-122549201D01*
X105976099Y-122549201D01*
X106044220Y-122569203D01*
X106069734Y-122590889D01*
X106073045Y-122594567D01*
X106139708Y-122643000D01*
X106227547Y-122706819D01*
X106402011Y-122784495D01*
X106588812Y-122824201D01*
X106588814Y-122824201D01*
X106779784Y-122824201D01*
X106779786Y-122824201D01*
X106966587Y-122784495D01*
X107141051Y-122706819D01*
X107295552Y-122594567D01*
X107423339Y-122452645D01*
X107518826Y-122287257D01*
X107577841Y-122105629D01*
X107597803Y-121915701D01*
X107577841Y-121725773D01*
X107527486Y-121570797D01*
X107518826Y-121544144D01*
X107423340Y-121378758D01*
X107295551Y-121236834D01*
X107141052Y-121124584D01*
X107141051Y-121124583D01*
X106966587Y-121046907D01*
X106779786Y-121007201D01*
X106588812Y-121007201D01*
X106476847Y-121031000D01*
X106402010Y-121046907D01*
X106227545Y-121124584D01*
X106073045Y-121236834D01*
X106069734Y-121240513D01*
X106009287Y-121277752D01*
X105976099Y-121282201D01*
X105974296Y-121282201D01*
X105906175Y-121262199D01*
X105885200Y-121245296D01*
X105826404Y-121186499D01*
X105792379Y-121124186D01*
X105789500Y-121097404D01*
X105789500Y-120541338D01*
X105809502Y-120473217D01*
X105863158Y-120426724D01*
X105864257Y-120426229D01*
X105864869Y-120425956D01*
X105866752Y-120425118D01*
X106021253Y-120312866D01*
X106149040Y-120170944D01*
X106244527Y-120005556D01*
X106303542Y-119823928D01*
X106323504Y-119634000D01*
X106303542Y-119444072D01*
X106268763Y-119337034D01*
X106244527Y-119262443D01*
X106149041Y-119097057D01*
X106021252Y-118955133D01*
X105866753Y-118842883D01*
X105866752Y-118842882D01*
X105692288Y-118765206D01*
X105505487Y-118725500D01*
X105314513Y-118725500D01*
X105214018Y-118746861D01*
X105127711Y-118765206D01*
X104952249Y-118843327D01*
X104881882Y-118852761D01*
X104817585Y-118822654D01*
X104779771Y-118762565D01*
X104775000Y-118728220D01*
X104775000Y-85596793D01*
X104778993Y-85583193D01*
X104776039Y-85576472D01*
X104775000Y-85560322D01*
X104775000Y-80771999D01*
X105658592Y-80771999D01*
X105678198Y-81033631D01*
X105719807Y-81215928D01*
X105736580Y-81289416D01*
X105832432Y-81533643D01*
X105963614Y-81760857D01*
X106127195Y-81965981D01*
X106319521Y-82144433D01*
X106536296Y-82292228D01*
X106658841Y-82351242D01*
X106772676Y-82406063D01*
X106844637Y-82428259D01*
X107023385Y-82483396D01*
X107282818Y-82522500D01*
X107282820Y-82522500D01*
X107545180Y-82522500D01*
X107545182Y-82522500D01*
X107804615Y-82483396D01*
X108055323Y-82406063D01*
X108291704Y-82292228D01*
X108508479Y-82144433D01*
X108700805Y-81965981D01*
X108864386Y-81760857D01*
X108995568Y-81533643D01*
X109091420Y-81289416D01*
X109149802Y-81033630D01*
X109169408Y-80772000D01*
X109149802Y-80510370D01*
X109091420Y-80254584D01*
X108995568Y-80010357D01*
X108864386Y-79783143D01*
X108700805Y-79578019D01*
X108508479Y-79399567D01*
X108508476Y-79399565D01*
X108508474Y-79399563D01*
X108291704Y-79251772D01*
X108055323Y-79137936D01*
X107804618Y-79060605D01*
X107804615Y-79060604D01*
X107545182Y-79021500D01*
X107282818Y-79021500D01*
X107023385Y-79060604D01*
X107023382Y-79060604D01*
X107023381Y-79060605D01*
X106772676Y-79137936D01*
X106536295Y-79251772D01*
X106319525Y-79399563D01*
X106319519Y-79399567D01*
X106319521Y-79399567D01*
X106127195Y-79578019D01*
X106079008Y-79638444D01*
X105963612Y-79783146D01*
X105832432Y-80010356D01*
X105736580Y-80254582D01*
X105678198Y-80510368D01*
X105658592Y-80771999D01*
X104775000Y-80771999D01*
X104775000Y-78241500D01*
X104795002Y-78173379D01*
X104848658Y-78126886D01*
X104901000Y-78115500D01*
X130683500Y-78115500D01*
X130751621Y-78135502D01*
G37*
%TD.AperFunction*%
%TA.AperFunction,Conductor*%
G36*
X110549495Y-116787985D02*
G01*
X110601200Y-116836638D01*
X110618500Y-116900358D01*
X110618500Y-117190144D01*
X110598498Y-117258265D01*
X110544842Y-117304758D01*
X110479696Y-117315492D01*
X110448697Y-117312325D01*
X110442303Y-117312000D01*
X110386500Y-117312000D01*
X110386500Y-118648000D01*
X110366498Y-118716121D01*
X110312842Y-118762614D01*
X110260500Y-118774000D01*
X110004500Y-118774000D01*
X109936379Y-118753998D01*
X109889886Y-118700342D01*
X109878500Y-118648000D01*
X109878500Y-117312000D01*
X109822697Y-117312000D01*
X109816307Y-117312325D01*
X109715674Y-117322606D01*
X109562451Y-117373379D01*
X109491497Y-117375819D01*
X109430487Y-117339510D01*
X109398791Y-117275981D01*
X109406474Y-117205402D01*
X109433720Y-117164682D01*
X109783000Y-116815402D01*
X109845312Y-116781378D01*
X109872095Y-116778499D01*
X110442338Y-116778499D01*
X110445544Y-116778499D01*
X110479695Y-116775010D01*
X110549495Y-116787985D01*
G37*
%TD.AperFunction*%
%TD*%
M02*
