%TF.GenerationSoftware,KiCad,Pcbnew,(6.0.2)*%
%TF.CreationDate,2023-04-19T08:06:41-04:00*%
%TF.ProjectId,skydiving-altimeter,736b7964-6976-4696-9e67-2d616c74696d,rev?*%
%TF.SameCoordinates,Original*%
%TF.FileFunction,Legend,Top*%
%TF.FilePolarity,Positive*%
%FSLAX46Y46*%
G04 Gerber Fmt 4.6, Leading zero omitted, Abs format (unit mm)*
G04 Created by KiCad (PCBNEW (6.0.2)) date 2023-04-19 08:06:41*
%MOMM*%
%LPD*%
G01*
G04 APERTURE LIST*
G04 Aperture macros list*
%AMRoundRect*
0 Rectangle with rounded corners*
0 $1 Rounding radius*
0 $2 $3 $4 $5 $6 $7 $8 $9 X,Y pos of 4 corners*
0 Add a 4 corners polygon primitive as box body*
4,1,4,$2,$3,$4,$5,$6,$7,$8,$9,$2,$3,0*
0 Add four circle primitives for the rounded corners*
1,1,$1+$1,$2,$3*
1,1,$1+$1,$4,$5*
1,1,$1+$1,$6,$7*
1,1,$1+$1,$8,$9*
0 Add four rect primitives between the rounded corners*
20,1,$1+$1,$2,$3,$4,$5,0*
20,1,$1+$1,$4,$5,$6,$7,0*
20,1,$1+$1,$6,$7,$8,$9,0*
20,1,$1+$1,$8,$9,$2,$3,0*%
G04 Aperture macros list end*
%ADD10C,0.300000*%
%ADD11C,0.150000*%
%ADD12C,0.120000*%
%ADD13C,0.127000*%
%ADD14C,0.200000*%
%ADD15RoundRect,0.250000X-0.475000X0.250000X-0.475000X-0.250000X0.475000X-0.250000X0.475000X0.250000X0*%
%ADD16R,1.700000X1.700000*%
%ADD17O,1.700000X1.700000*%
%ADD18RoundRect,0.150000X-0.512500X-0.150000X0.512500X-0.150000X0.512500X0.150000X-0.512500X0.150000X0*%
%ADD19RoundRect,0.250000X0.250000X0.475000X-0.250000X0.475000X-0.250000X-0.475000X0.250000X-0.475000X0*%
%ADD20RoundRect,0.250000X-0.250000X-0.475000X0.250000X-0.475000X0.250000X0.475000X-0.250000X0.475000X0*%
%ADD21RoundRect,0.135000X-0.135000X-0.185000X0.135000X-0.185000X0.135000X0.185000X-0.135000X0.185000X0*%
%ADD22R,0.325000X0.300000*%
%ADD23R,0.300000X0.325000*%
%ADD24R,1.308000X1.308000*%
%ADD25C,1.308000*%
%ADD26R,2.350000X3.500000*%
%ADD27RoundRect,0.075000X-0.662500X-0.075000X0.662500X-0.075000X0.662500X0.075000X-0.662500X0.075000X0*%
%ADD28RoundRect,0.075000X-0.075000X-0.662500X0.075000X-0.662500X0.075000X0.662500X-0.075000X0.662500X0*%
%ADD29R,2.400000X0.740000*%
%ADD30R,1.100000X1.100000*%
%ADD31R,2.000000X1.500000*%
%ADD32R,2.000000X3.800000*%
%ADD33RoundRect,0.250000X0.475000X-0.250000X0.475000X0.250000X-0.475000X0.250000X-0.475000X-0.250000X0*%
G04 APERTURE END LIST*
D10*
X114236571Y-86975142D02*
X115379428Y-86975142D01*
X116252571Y-86869642D02*
X117395428Y-86869642D01*
X116824000Y-87441071D02*
X116824000Y-86298214D01*
D11*
%TO.C,C16*%
X129897142Y-90812857D02*
X129944761Y-90860476D01*
X129992380Y-91003333D01*
X129992380Y-91098571D01*
X129944761Y-91241428D01*
X129849523Y-91336666D01*
X129754285Y-91384285D01*
X129563809Y-91431904D01*
X129420952Y-91431904D01*
X129230476Y-91384285D01*
X129135238Y-91336666D01*
X129040000Y-91241428D01*
X128992380Y-91098571D01*
X128992380Y-91003333D01*
X129040000Y-90860476D01*
X129087619Y-90812857D01*
X129992380Y-89860476D02*
X129992380Y-90431904D01*
X129992380Y-90146190D02*
X128992380Y-90146190D01*
X129135238Y-90241428D01*
X129230476Y-90336666D01*
X129278095Y-90431904D01*
X128992380Y-89003333D02*
X128992380Y-89193809D01*
X129040000Y-89289047D01*
X129087619Y-89336666D01*
X129230476Y-89431904D01*
X129420952Y-89479523D01*
X129801904Y-89479523D01*
X129897142Y-89431904D01*
X129944761Y-89384285D01*
X129992380Y-89289047D01*
X129992380Y-89098571D01*
X129944761Y-89003333D01*
X129897142Y-88955714D01*
X129801904Y-88908095D01*
X129563809Y-88908095D01*
X129468571Y-88955714D01*
X129420952Y-89003333D01*
X129373333Y-89098571D01*
X129373333Y-89289047D01*
X129420952Y-89384285D01*
X129468571Y-89431904D01*
X129563809Y-89479523D01*
%TO.C,J3*%
X106342380Y-121618333D02*
X107056666Y-121618333D01*
X107199523Y-121665952D01*
X107294761Y-121761190D01*
X107342380Y-121904047D01*
X107342380Y-121999285D01*
X106342380Y-121237380D02*
X106342380Y-120618333D01*
X106723333Y-120951666D01*
X106723333Y-120808809D01*
X106770952Y-120713571D01*
X106818571Y-120665952D01*
X106913809Y-120618333D01*
X107151904Y-120618333D01*
X107247142Y-120665952D01*
X107294761Y-120713571D01*
X107342380Y-120808809D01*
X107342380Y-121094523D01*
X107294761Y-121189761D01*
X107247142Y-121237380D01*
%TO.C,U4*%
X106426095Y-95972380D02*
X106426095Y-96781904D01*
X106473714Y-96877142D01*
X106521333Y-96924761D01*
X106616571Y-96972380D01*
X106807047Y-96972380D01*
X106902285Y-96924761D01*
X106949904Y-96877142D01*
X106997523Y-96781904D01*
X106997523Y-95972380D01*
X107902285Y-96305714D02*
X107902285Y-96972380D01*
X107664190Y-95924761D02*
X107426095Y-96639047D01*
X108045142Y-96639047D01*
%TO.C,C4*%
X128357333Y-110593142D02*
X128309714Y-110640761D01*
X128166857Y-110688380D01*
X128071619Y-110688380D01*
X127928761Y-110640761D01*
X127833523Y-110545523D01*
X127785904Y-110450285D01*
X127738285Y-110259809D01*
X127738285Y-110116952D01*
X127785904Y-109926476D01*
X127833523Y-109831238D01*
X127928761Y-109736000D01*
X128071619Y-109688380D01*
X128166857Y-109688380D01*
X128309714Y-109736000D01*
X128357333Y-109783619D01*
X129214476Y-110021714D02*
X129214476Y-110688380D01*
X128976380Y-109640761D02*
X128738285Y-110355047D01*
X129357333Y-110355047D01*
%TO.C,C1*%
X112101333Y-102465142D02*
X112053714Y-102512761D01*
X111910857Y-102560380D01*
X111815619Y-102560380D01*
X111672761Y-102512761D01*
X111577523Y-102417523D01*
X111529904Y-102322285D01*
X111482285Y-102131809D01*
X111482285Y-101988952D01*
X111529904Y-101798476D01*
X111577523Y-101703238D01*
X111672761Y-101608000D01*
X111815619Y-101560380D01*
X111910857Y-101560380D01*
X112053714Y-101608000D01*
X112101333Y-101655619D01*
X113053714Y-102560380D02*
X112482285Y-102560380D01*
X112768000Y-102560380D02*
X112768000Y-101560380D01*
X112672761Y-101703238D01*
X112577523Y-101798476D01*
X112482285Y-101846095D01*
%TO.C,R1*%
X119088333Y-105327380D02*
X118755000Y-104851190D01*
X118516904Y-105327380D02*
X118516904Y-104327380D01*
X118897857Y-104327380D01*
X118993095Y-104375000D01*
X119040714Y-104422619D01*
X119088333Y-104517857D01*
X119088333Y-104660714D01*
X119040714Y-104755952D01*
X118993095Y-104803571D01*
X118897857Y-104851190D01*
X118516904Y-104851190D01*
X120040714Y-105327380D02*
X119469285Y-105327380D01*
X119755000Y-105327380D02*
X119755000Y-104327380D01*
X119659761Y-104470238D01*
X119564523Y-104565476D01*
X119469285Y-104613095D01*
%TO.C,C14*%
X110609142Y-99925142D02*
X110561523Y-99972761D01*
X110418666Y-100020380D01*
X110323428Y-100020380D01*
X110180571Y-99972761D01*
X110085333Y-99877523D01*
X110037714Y-99782285D01*
X109990095Y-99591809D01*
X109990095Y-99448952D01*
X110037714Y-99258476D01*
X110085333Y-99163238D01*
X110180571Y-99068000D01*
X110323428Y-99020380D01*
X110418666Y-99020380D01*
X110561523Y-99068000D01*
X110609142Y-99115619D01*
X111561523Y-100020380D02*
X110990095Y-100020380D01*
X111275809Y-100020380D02*
X111275809Y-99020380D01*
X111180571Y-99163238D01*
X111085333Y-99258476D01*
X110990095Y-99306095D01*
X112418666Y-99353714D02*
X112418666Y-100020380D01*
X112180571Y-98972761D02*
X111942476Y-99687047D01*
X112561523Y-99687047D01*
%TO.C,R2*%
X119213333Y-102687380D02*
X118880000Y-102211190D01*
X118641904Y-102687380D02*
X118641904Y-101687380D01*
X119022857Y-101687380D01*
X119118095Y-101735000D01*
X119165714Y-101782619D01*
X119213333Y-101877857D01*
X119213333Y-102020714D01*
X119165714Y-102115952D01*
X119118095Y-102163571D01*
X119022857Y-102211190D01*
X118641904Y-102211190D01*
X119594285Y-101782619D02*
X119641904Y-101735000D01*
X119737142Y-101687380D01*
X119975238Y-101687380D01*
X120070476Y-101735000D01*
X120118095Y-101782619D01*
X120165714Y-101877857D01*
X120165714Y-101973095D01*
X120118095Y-102115952D01*
X119546666Y-102687380D01*
X120165714Y-102687380D01*
%TO.C,C2*%
X107529333Y-110593142D02*
X107481714Y-110640761D01*
X107338857Y-110688380D01*
X107243619Y-110688380D01*
X107100761Y-110640761D01*
X107005523Y-110545523D01*
X106957904Y-110450285D01*
X106910285Y-110259809D01*
X106910285Y-110116952D01*
X106957904Y-109926476D01*
X107005523Y-109831238D01*
X107100761Y-109736000D01*
X107243619Y-109688380D01*
X107338857Y-109688380D01*
X107481714Y-109736000D01*
X107529333Y-109783619D01*
X107910285Y-109783619D02*
X107957904Y-109736000D01*
X108053142Y-109688380D01*
X108291238Y-109688380D01*
X108386476Y-109736000D01*
X108434095Y-109783619D01*
X108481714Y-109878857D01*
X108481714Y-109974095D01*
X108434095Y-110116952D01*
X107862666Y-110688380D01*
X108481714Y-110688380D01*
%TO.C,U2*%
X127508095Y-100036380D02*
X127508095Y-100845904D01*
X127555714Y-100941142D01*
X127603333Y-100988761D01*
X127698571Y-101036380D01*
X127889047Y-101036380D01*
X127984285Y-100988761D01*
X128031904Y-100941142D01*
X128079523Y-100845904D01*
X128079523Y-100036380D01*
X128508095Y-100131619D02*
X128555714Y-100084000D01*
X128650952Y-100036380D01*
X128889047Y-100036380D01*
X128984285Y-100084000D01*
X129031904Y-100131619D01*
X129079523Y-100226857D01*
X129079523Y-100322095D01*
X129031904Y-100464952D01*
X128460476Y-101036380D01*
X129079523Y-101036380D01*
D12*
%TO.C,J2*%
X115664000Y-82541142D02*
X115664000Y-82884000D01*
X115641142Y-82952571D01*
X115595428Y-82998285D01*
X115526857Y-83021142D01*
X115481142Y-83021142D01*
X115869714Y-82586857D02*
X115892571Y-82564000D01*
X115938285Y-82541142D01*
X116052571Y-82541142D01*
X116098285Y-82564000D01*
X116121142Y-82586857D01*
X116144000Y-82632571D01*
X116144000Y-82678285D01*
X116121142Y-82746857D01*
X115846857Y-83021142D01*
X116144000Y-83021142D01*
D11*
%TO.C,C13*%
X106037142Y-100687142D02*
X105989523Y-100734761D01*
X105846666Y-100782380D01*
X105751428Y-100782380D01*
X105608571Y-100734761D01*
X105513333Y-100639523D01*
X105465714Y-100544285D01*
X105418095Y-100353809D01*
X105418095Y-100210952D01*
X105465714Y-100020476D01*
X105513333Y-99925238D01*
X105608571Y-99830000D01*
X105751428Y-99782380D01*
X105846666Y-99782380D01*
X105989523Y-99830000D01*
X106037142Y-99877619D01*
X106989523Y-100782380D02*
X106418095Y-100782380D01*
X106703809Y-100782380D02*
X106703809Y-99782380D01*
X106608571Y-99925238D01*
X106513333Y-100020476D01*
X106418095Y-100068095D01*
X107322857Y-99782380D02*
X107941904Y-99782380D01*
X107608571Y-100163333D01*
X107751428Y-100163333D01*
X107846666Y-100210952D01*
X107894285Y-100258571D01*
X107941904Y-100353809D01*
X107941904Y-100591904D01*
X107894285Y-100687142D01*
X107846666Y-100734761D01*
X107751428Y-100782380D01*
X107465714Y-100782380D01*
X107370476Y-100734761D01*
X107322857Y-100687142D01*
%TO.C,C6*%
X107529333Y-114657142D02*
X107481714Y-114704761D01*
X107338857Y-114752380D01*
X107243619Y-114752380D01*
X107100761Y-114704761D01*
X107005523Y-114609523D01*
X106957904Y-114514285D01*
X106910285Y-114323809D01*
X106910285Y-114180952D01*
X106957904Y-113990476D01*
X107005523Y-113895238D01*
X107100761Y-113800000D01*
X107243619Y-113752380D01*
X107338857Y-113752380D01*
X107481714Y-113800000D01*
X107529333Y-113847619D01*
X108386476Y-113752380D02*
X108196000Y-113752380D01*
X108100761Y-113800000D01*
X108053142Y-113847619D01*
X107957904Y-113990476D01*
X107910285Y-114180952D01*
X107910285Y-114561904D01*
X107957904Y-114657142D01*
X108005523Y-114704761D01*
X108100761Y-114752380D01*
X108291238Y-114752380D01*
X108386476Y-114704761D01*
X108434095Y-114657142D01*
X108481714Y-114561904D01*
X108481714Y-114323809D01*
X108434095Y-114228571D01*
X108386476Y-114180952D01*
X108291238Y-114133333D01*
X108100761Y-114133333D01*
X108005523Y-114180952D01*
X107957904Y-114228571D01*
X107910285Y-114323809D01*
%TO.C,L1*%
X109621333Y-91729523D02*
X109316571Y-91729523D01*
X109316571Y-91089523D01*
X110169904Y-91729523D02*
X109804190Y-91729523D01*
X109987047Y-91729523D02*
X109987047Y-91089523D01*
X109926095Y-91180952D01*
X109865142Y-91241904D01*
X109804190Y-91272380D01*
%TO.C,C15*%
X117467142Y-98782142D02*
X117419523Y-98829761D01*
X117276666Y-98877380D01*
X117181428Y-98877380D01*
X117038571Y-98829761D01*
X116943333Y-98734523D01*
X116895714Y-98639285D01*
X116848095Y-98448809D01*
X116848095Y-98305952D01*
X116895714Y-98115476D01*
X116943333Y-98020238D01*
X117038571Y-97925000D01*
X117181428Y-97877380D01*
X117276666Y-97877380D01*
X117419523Y-97925000D01*
X117467142Y-97972619D01*
X118419523Y-98877380D02*
X117848095Y-98877380D01*
X118133809Y-98877380D02*
X118133809Y-97877380D01*
X118038571Y-98020238D01*
X117943333Y-98115476D01*
X117848095Y-98163095D01*
X119324285Y-97877380D02*
X118848095Y-97877380D01*
X118800476Y-98353571D01*
X118848095Y-98305952D01*
X118943333Y-98258333D01*
X119181428Y-98258333D01*
X119276666Y-98305952D01*
X119324285Y-98353571D01*
X119371904Y-98448809D01*
X119371904Y-98686904D01*
X119324285Y-98782142D01*
X119276666Y-98829761D01*
X119181428Y-98877380D01*
X118943333Y-98877380D01*
X118848095Y-98829761D01*
X118800476Y-98782142D01*
%TO.C,C7*%
X124928333Y-99642142D02*
X124880714Y-99689761D01*
X124737857Y-99737380D01*
X124642619Y-99737380D01*
X124499761Y-99689761D01*
X124404523Y-99594523D01*
X124356904Y-99499285D01*
X124309285Y-99308809D01*
X124309285Y-99165952D01*
X124356904Y-98975476D01*
X124404523Y-98880238D01*
X124499761Y-98785000D01*
X124642619Y-98737380D01*
X124737857Y-98737380D01*
X124880714Y-98785000D01*
X124928333Y-98832619D01*
X125261666Y-98737380D02*
X125928333Y-98737380D01*
X125499761Y-99737380D01*
%TO.C,C5*%
X116972142Y-105576666D02*
X117019761Y-105624285D01*
X117067380Y-105767142D01*
X117067380Y-105862380D01*
X117019761Y-106005238D01*
X116924523Y-106100476D01*
X116829285Y-106148095D01*
X116638809Y-106195714D01*
X116495952Y-106195714D01*
X116305476Y-106148095D01*
X116210238Y-106100476D01*
X116115000Y-106005238D01*
X116067380Y-105862380D01*
X116067380Y-105767142D01*
X116115000Y-105624285D01*
X116162619Y-105576666D01*
X116067380Y-104671904D02*
X116067380Y-105148095D01*
X116543571Y-105195714D01*
X116495952Y-105148095D01*
X116448333Y-105052857D01*
X116448333Y-104814761D01*
X116495952Y-104719523D01*
X116543571Y-104671904D01*
X116638809Y-104624285D01*
X116876904Y-104624285D01*
X116972142Y-104671904D01*
X117019761Y-104719523D01*
X117067380Y-104814761D01*
X117067380Y-105052857D01*
X117019761Y-105148095D01*
X116972142Y-105195714D01*
%TO.C,U1*%
X117348095Y-106632380D02*
X117348095Y-107441904D01*
X117395714Y-107537142D01*
X117443333Y-107584761D01*
X117538571Y-107632380D01*
X117729047Y-107632380D01*
X117824285Y-107584761D01*
X117871904Y-107537142D01*
X117919523Y-107441904D01*
X117919523Y-106632380D01*
X118919523Y-107632380D02*
X118348095Y-107632380D01*
X118633809Y-107632380D02*
X118633809Y-106632380D01*
X118538571Y-106775238D01*
X118443333Y-106870476D01*
X118348095Y-106918095D01*
%TO.C,J1*%
X123491666Y-79208380D02*
X123491666Y-79922666D01*
X123444047Y-80065523D01*
X123348809Y-80160761D01*
X123205952Y-80208380D01*
X123110714Y-80208380D01*
X124491666Y-80208380D02*
X123920238Y-80208380D01*
X124205952Y-80208380D02*
X124205952Y-79208380D01*
X124110714Y-79351238D01*
X124015476Y-79446476D01*
X123920238Y-79494095D01*
%TO.C,D6*%
X116276380Y-90654095D02*
X115276380Y-90654095D01*
X115276380Y-90416000D01*
X115324000Y-90273142D01*
X115419238Y-90177904D01*
X115514476Y-90130285D01*
X115704952Y-90082666D01*
X115847809Y-90082666D01*
X116038285Y-90130285D01*
X116133523Y-90177904D01*
X116228761Y-90273142D01*
X116276380Y-90416000D01*
X116276380Y-90654095D01*
X115276380Y-89225523D02*
X115276380Y-89416000D01*
X115324000Y-89511238D01*
X115371619Y-89558857D01*
X115514476Y-89654095D01*
X115704952Y-89701714D01*
X116085904Y-89701714D01*
X116181142Y-89654095D01*
X116228761Y-89606476D01*
X116276380Y-89511238D01*
X116276380Y-89320761D01*
X116228761Y-89225523D01*
X116181142Y-89177904D01*
X116085904Y-89130285D01*
X115847809Y-89130285D01*
X115752571Y-89177904D01*
X115704952Y-89225523D01*
X115657333Y-89320761D01*
X115657333Y-89511238D01*
X115704952Y-89606476D01*
X115752571Y-89654095D01*
X115847809Y-89701714D01*
%TO.C,U5*%
X123063095Y-89567380D02*
X123063095Y-90376904D01*
X123110714Y-90472142D01*
X123158333Y-90519761D01*
X123253571Y-90567380D01*
X123444047Y-90567380D01*
X123539285Y-90519761D01*
X123586904Y-90472142D01*
X123634523Y-90376904D01*
X123634523Y-89567380D01*
X124586904Y-89567380D02*
X124110714Y-89567380D01*
X124063095Y-90043571D01*
X124110714Y-89995952D01*
X124205952Y-89948333D01*
X124444047Y-89948333D01*
X124539285Y-89995952D01*
X124586904Y-90043571D01*
X124634523Y-90138809D01*
X124634523Y-90376904D01*
X124586904Y-90472142D01*
X124539285Y-90519761D01*
X124444047Y-90567380D01*
X124205952Y-90567380D01*
X124110714Y-90519761D01*
X124063095Y-90472142D01*
%TO.C,C3*%
X120597142Y-120816666D02*
X120644761Y-120864285D01*
X120692380Y-121007142D01*
X120692380Y-121102380D01*
X120644761Y-121245238D01*
X120549523Y-121340476D01*
X120454285Y-121388095D01*
X120263809Y-121435714D01*
X120120952Y-121435714D01*
X119930476Y-121388095D01*
X119835238Y-121340476D01*
X119740000Y-121245238D01*
X119692380Y-121102380D01*
X119692380Y-121007142D01*
X119740000Y-120864285D01*
X119787619Y-120816666D01*
X119692380Y-120483333D02*
X119692380Y-119864285D01*
X120073333Y-120197619D01*
X120073333Y-120054761D01*
X120120952Y-119959523D01*
X120168571Y-119911904D01*
X120263809Y-119864285D01*
X120501904Y-119864285D01*
X120597142Y-119911904D01*
X120644761Y-119959523D01*
X120692380Y-120054761D01*
X120692380Y-120340476D01*
X120644761Y-120435714D01*
X120597142Y-120483333D01*
%TO.C,C8*%
X124293333Y-104722142D02*
X124245714Y-104769761D01*
X124102857Y-104817380D01*
X124007619Y-104817380D01*
X123864761Y-104769761D01*
X123769523Y-104674523D01*
X123721904Y-104579285D01*
X123674285Y-104388809D01*
X123674285Y-104245952D01*
X123721904Y-104055476D01*
X123769523Y-103960238D01*
X123864761Y-103865000D01*
X124007619Y-103817380D01*
X124102857Y-103817380D01*
X124245714Y-103865000D01*
X124293333Y-103912619D01*
X124864761Y-104245952D02*
X124769523Y-104198333D01*
X124721904Y-104150714D01*
X124674285Y-104055476D01*
X124674285Y-104007857D01*
X124721904Y-103912619D01*
X124769523Y-103865000D01*
X124864761Y-103817380D01*
X125055238Y-103817380D01*
X125150476Y-103865000D01*
X125198095Y-103912619D01*
X125245714Y-104007857D01*
X125245714Y-104055476D01*
X125198095Y-104150714D01*
X125150476Y-104198333D01*
X125055238Y-104245952D01*
X124864761Y-104245952D01*
X124769523Y-104293571D01*
X124721904Y-104341190D01*
X124674285Y-104436428D01*
X124674285Y-104626904D01*
X124721904Y-104722142D01*
X124769523Y-104769761D01*
X124864761Y-104817380D01*
X125055238Y-104817380D01*
X125150476Y-104769761D01*
X125198095Y-104722142D01*
X125245714Y-104626904D01*
X125245714Y-104436428D01*
X125198095Y-104341190D01*
X125150476Y-104293571D01*
X125055238Y-104245952D01*
D12*
%TO.C,C16*%
X130275000Y-93083748D02*
X130275000Y-93606252D01*
X128805000Y-93083748D02*
X128805000Y-93606252D01*
%TO.C,J3*%
X115630000Y-122615000D02*
X115630000Y-119955000D01*
X110490000Y-122615000D02*
X115630000Y-122615000D01*
X110490000Y-122615000D02*
X110490000Y-119955000D01*
X107890000Y-122615000D02*
X107890000Y-121285000D01*
X109220000Y-122615000D02*
X107890000Y-122615000D01*
X110490000Y-119955000D02*
X115630000Y-119955000D01*
%TO.C,U4*%
X110490000Y-95280000D02*
X108690000Y-95280000D01*
X110490000Y-95280000D02*
X111290000Y-95280000D01*
X110490000Y-98400000D02*
X111290000Y-98400000D01*
X110490000Y-98400000D02*
X109690000Y-98400000D01*
%TO.C,C4*%
X125991252Y-111225000D02*
X125468748Y-111225000D01*
X125991252Y-109755000D02*
X125468748Y-109755000D01*
%TO.C,C1*%
X114673748Y-102970000D02*
X115196252Y-102970000D01*
X114673748Y-101500000D02*
X115196252Y-101500000D01*
%TO.C,R1*%
X119101359Y-105665000D02*
X119408641Y-105665000D01*
X119101359Y-106425000D02*
X119408641Y-106425000D01*
%TO.C,C14*%
X114400000Y-98483748D02*
X114400000Y-99006252D01*
X112930000Y-98483748D02*
X112930000Y-99006252D01*
%TO.C,R2*%
X119226359Y-103125000D02*
X119533641Y-103125000D01*
X119226359Y-103885000D02*
X119533641Y-103885000D01*
%TO.C,C2*%
X110751252Y-109755000D02*
X110228748Y-109755000D01*
X110751252Y-111225000D02*
X110228748Y-111225000D01*
%TO.C,U2*%
X127470001Y-101435000D02*
G75*
G03*
X127470001Y-101435000I-1J0D01*
G01*
D13*
%TO.C,J2*%
X118774000Y-78512500D02*
X118774000Y-86112500D01*
X118774000Y-86112500D02*
X112874000Y-86112500D01*
X112874000Y-86112500D02*
X112874000Y-78512500D01*
X112874000Y-78512500D02*
X118774000Y-78512500D01*
D14*
X116924000Y-86662500D02*
G75*
G03*
X116924000Y-86662500I-100000J0D01*
G01*
D12*
%TO.C,C13*%
X106941252Y-98010000D02*
X106418748Y-98010000D01*
X106941252Y-99480000D02*
X106418748Y-99480000D01*
%TO.C,C6*%
X110228748Y-113565000D02*
X110751252Y-113565000D01*
X110228748Y-115035000D02*
X110751252Y-115035000D01*
D13*
%TO.C,L1*%
X106305000Y-88140000D02*
X113405000Y-88140000D01*
X106305000Y-94740000D02*
X113405000Y-94740000D01*
D12*
%TO.C,C15*%
X117375000Y-95623748D02*
X117375000Y-96146252D01*
X118845000Y-95623748D02*
X118845000Y-96146252D01*
%TO.C,C7*%
X124833748Y-100230000D02*
X125356252Y-100230000D01*
X124833748Y-101700000D02*
X125356252Y-101700000D01*
%TO.C,C5*%
X115670000Y-105148748D02*
X115670000Y-105671252D01*
X114200000Y-105148748D02*
X114200000Y-105671252D01*
%TO.C,U1*%
X121720000Y-109420000D02*
X121720000Y-109870000D01*
X114500000Y-109870000D02*
X113210000Y-109870000D01*
X121270000Y-109420000D02*
X121720000Y-109420000D01*
X121720000Y-116640000D02*
X121720000Y-116190000D01*
X114500000Y-109420000D02*
X114500000Y-109870000D01*
X114500000Y-116640000D02*
X114500000Y-116190000D01*
X121270000Y-116640000D02*
X121720000Y-116640000D01*
X114950000Y-116640000D02*
X114500000Y-116640000D01*
X114950000Y-109420000D02*
X114500000Y-109420000D01*
%TO.C,J1*%
X126915000Y-87625000D02*
X125590000Y-87625000D01*
X125590000Y-87690000D02*
X122060000Y-87690000D01*
X125590000Y-81285000D02*
X125590000Y-81220000D01*
X125590000Y-81220000D02*
X122060000Y-81220000D01*
X125590000Y-87690000D02*
X125590000Y-87625000D01*
X122060000Y-81285000D02*
X122060000Y-81220000D01*
X122060000Y-87690000D02*
X122060000Y-87625000D01*
%TO.C,D6*%
X114570000Y-95545000D02*
X116570000Y-95545000D01*
X116570000Y-95545000D02*
X116570000Y-91695000D01*
X114570000Y-95545000D02*
X114570000Y-91695000D01*
%TO.C,U5*%
X121975000Y-98025000D02*
X125735000Y-98025000D01*
X119725000Y-91205000D02*
X125735000Y-91205000D01*
X125735000Y-91205000D02*
X125735000Y-92465000D01*
X125735000Y-98025000D02*
X125735000Y-96765000D01*
%TO.C,C3*%
X121185000Y-120911252D02*
X121185000Y-120388748D01*
X122655000Y-120911252D02*
X122655000Y-120388748D01*
%TO.C,C8*%
X124198748Y-105310000D02*
X124721252Y-105310000D01*
X124198748Y-106780000D02*
X124721252Y-106780000D01*
%TD*%
%LPC*%
D15*
%TO.C,C16*%
X129540000Y-92395000D03*
X129540000Y-94295000D03*
%TD*%
D16*
%TO.C,J3*%
X109220000Y-121285000D03*
D17*
X111760000Y-121285000D03*
X114300000Y-121285000D03*
%TD*%
D18*
%TO.C,U4*%
X109352500Y-95890000D03*
X109352500Y-96840000D03*
X109352500Y-97790000D03*
X111627500Y-97790000D03*
X111627500Y-95890000D03*
%TD*%
D19*
%TO.C,C4*%
X126680000Y-110490000D03*
X124780000Y-110490000D03*
%TD*%
D20*
%TO.C,C1*%
X113985000Y-102235000D03*
X115885000Y-102235000D03*
%TD*%
D21*
%TO.C,R1*%
X118745000Y-106045000D03*
X119765000Y-106045000D03*
%TD*%
D15*
%TO.C,C14*%
X113665000Y-97795000D03*
X113665000Y-99695000D03*
%TD*%
D21*
%TO.C,R2*%
X118870000Y-103505000D03*
X119890000Y-103505000D03*
%TD*%
D19*
%TO.C,C2*%
X111440000Y-110490000D03*
X109540000Y-110490000D03*
%TD*%
D22*
%TO.C,U2*%
X127520000Y-101985000D03*
X127520000Y-102485000D03*
D23*
X127770000Y-103010000D03*
X128270000Y-103010000D03*
X128770000Y-103010000D03*
D22*
X129020000Y-102485000D03*
X129020000Y-101985000D03*
X128770000Y-101460000D03*
X128270000Y-101460000D03*
X127770000Y-101460000D03*
%TD*%
D24*
%TO.C,J2*%
X116824000Y-84762500D03*
D25*
X114824000Y-84762500D03*
%TD*%
D19*
%TO.C,C13*%
X107630000Y-98745000D03*
X105730000Y-98745000D03*
%TD*%
D20*
%TO.C,C6*%
X109540000Y-114300000D03*
X111440000Y-114300000D03*
%TD*%
D26*
%TO.C,L1*%
X106830000Y-91440000D03*
X112880000Y-91440000D03*
%TD*%
D15*
%TO.C,C15*%
X118110000Y-94935000D03*
X118110000Y-96835000D03*
%TD*%
D20*
%TO.C,C7*%
X124145000Y-100965000D03*
X126045000Y-100965000D03*
%TD*%
D15*
%TO.C,C5*%
X114935000Y-104460000D03*
X114935000Y-106360000D03*
%TD*%
D27*
%TO.C,U1*%
X113947500Y-110280000D03*
X113947500Y-110780000D03*
X113947500Y-111280000D03*
X113947500Y-111780000D03*
X113947500Y-112280000D03*
X113947500Y-112780000D03*
X113947500Y-113280000D03*
X113947500Y-113780000D03*
X113947500Y-114280000D03*
X113947500Y-114780000D03*
X113947500Y-115280000D03*
X113947500Y-115780000D03*
D28*
X115360000Y-117192500D03*
X115860000Y-117192500D03*
X116360000Y-117192500D03*
X116860000Y-117192500D03*
X117360000Y-117192500D03*
X117860000Y-117192500D03*
X118360000Y-117192500D03*
X118860000Y-117192500D03*
X119360000Y-117192500D03*
X119860000Y-117192500D03*
X120360000Y-117192500D03*
X120860000Y-117192500D03*
D27*
X122272500Y-115780000D03*
X122272500Y-115280000D03*
X122272500Y-114780000D03*
X122272500Y-114280000D03*
X122272500Y-113780000D03*
X122272500Y-113280000D03*
X122272500Y-112780000D03*
X122272500Y-112280000D03*
X122272500Y-111780000D03*
X122272500Y-111280000D03*
X122272500Y-110780000D03*
X122272500Y-110280000D03*
D28*
X120860000Y-108867500D03*
X120360000Y-108867500D03*
X119860000Y-108867500D03*
X119360000Y-108867500D03*
X118860000Y-108867500D03*
X118360000Y-108867500D03*
X117860000Y-108867500D03*
X117360000Y-108867500D03*
X116860000Y-108867500D03*
X116360000Y-108867500D03*
X115860000Y-108867500D03*
X115360000Y-108867500D03*
%TD*%
D29*
%TO.C,J1*%
X125775000Y-86995000D03*
X121875000Y-86995000D03*
X125775000Y-85725000D03*
X121875000Y-85725000D03*
X125775000Y-84455000D03*
X121875000Y-84455000D03*
X125775000Y-83185000D03*
X121875000Y-83185000D03*
X125775000Y-81915000D03*
X121875000Y-81915000D03*
%TD*%
D30*
%TO.C,D6*%
X115570000Y-94745000D03*
X115570000Y-91945000D03*
%TD*%
D31*
%TO.C,U5*%
X120675000Y-92315000D03*
X120675000Y-94615000D03*
X120675000Y-96915000D03*
D32*
X126975000Y-94615000D03*
%TD*%
D33*
%TO.C,C3*%
X121920000Y-121600000D03*
X121920000Y-119700000D03*
%TD*%
D20*
%TO.C,C8*%
X123510000Y-106045000D03*
X125410000Y-106045000D03*
%TD*%
M02*
