M48
; DRILL file {KiCad 7.0.2} date Thu Jun 29 20:21:05 2023
; FORMAT={-:-/ absolute / metric / decimal}
; #@! TF.CreationDate,2023-06-29T20:21:05-04:00
; #@! TF.GenerationSoftware,Kicad,Pcbnew,7.0.2
; #@! TF.FileFunction,Plated,1,2,PTH
FMAT,2
METRIC
; #@! TA.AperFunction,Plated,PTH,ViaDrill
T1C0.400
; #@! TA.AperFunction,Plated,PTH,ComponentDrill
T2C0.500
; #@! TA.AperFunction,Plated,PTH,ComponentDrill
T3C0.800
; #@! TA.AperFunction,Plated,PTH,ComponentDrill
T4C1.000
%
G90
G05
T1
X107.315Y-111.76
X107.823Y-95.758
X109.22Y-114.3
X111.76Y-116.84
X116.205Y-111.125
X116.205Y-113.665
X117.475Y-99.695
X117.475Y-103.505
X117.475Y-111.125
X118.745Y-104.775
X120.015Y-89.535
X120.015Y-107.315
X120.015Y-114.935
X120.305Y-110.78
X120.739Y-92.315
X121.285Y-102.87
X121.285Y-104.775
X121.92Y-88.9
X121.92Y-121.412
X123.825Y-111.125
X127.254Y-99.822
X127.635Y-104.775
T3
X114.824Y-84.763
X116.824Y-84.763
T4
X109.22Y-121.285
X111.76Y-121.285
X114.3Y-121.285
T2
X127.285Y-109.8G85X127.985Y-109.8
G05
X127.285Y-116.4G85X127.985Y-116.4
G05
T0
M30
