M48
; DRILL file {KiCad (6.0.2)} date Thu Apr  6 22:38:35 2023
; FORMAT={-:-/ absolute / metric / decimal}
; #@! TF.CreationDate,2023-04-06T22:38:35-04:00
; #@! TF.GenerationSoftware,Kicad,Pcbnew,(6.0.2)
; #@! TF.FileFunction,Plated,1,2,PTH
FMAT,2
METRIC
; #@! TA.AperFunction,Plated,PTH,ViaDrill
T1C0.400
; #@! TA.AperFunction,Plated,PTH,ComponentDrill
T2C0.800
; #@! TA.AperFunction,Plated,PTH,ComponentDrill
T3C1.000
%
G90
G05
T1
X81.915Y-74.295
X84.455Y-60.96
X85.725Y-83.185
X85.725Y-90.805
X88.265Y-90.17
X88.9Y-64.77
X88.9Y-80.645
X89.535Y-76.835
X89.535Y-78.74
X90.17Y-75.565
X90.805Y-81.915
X90.805Y-84.455
X92.075Y-106.045
X92.71Y-88.9
X93.345Y-91.44
X93.98Y-104.775
X95.25Y-90.805
X102.87Y-107.95
X103.505Y-109.855
X103.505Y-106.68
X104.14Y-71.755
X105.41Y-99.695
X107.315Y-98.425
X107.95Y-109.22
X109.22Y-106.045
X109.783Y-104.847
X110.49Y-107.95
X113.03Y-106.045
X114.3Y-97.79
X114.3Y-102.235
X114.935Y-105.41
X116.205Y-86.995
X116.205Y-97.79
X116.205Y-102.235
X116.205Y-110.49
X116.645Y-108.39
X118.11Y-79.375
X118.11Y-97.79
X118.11Y-101.6
X119.7Y-88.265
X120.015Y-95.25
X120.65Y-86.995
X121.92Y-82.55
X122.555Y-100.33
X122.555Y-102.87
X123.19Y-98.425
X123.825Y-100.33
X124.46Y-79.375
X124.46Y-102.235
X125.095Y-82.55
T2
X105.045Y-58.727
X107.045Y-58.727
T3
X124.46Y-56.515
X124.46Y-59.055
T0
M30
