%TF.GenerationSoftware,KiCad,Pcbnew,7.0.2*%
%TF.CreationDate,2023-06-29T20:21:03-04:00*%
%TF.ProjectId,skydiving-altimeter,736b7964-6976-4696-9e67-2d616c74696d,rev?*%
%TF.SameCoordinates,Original*%
%TF.FileFunction,Copper,L1,Top*%
%TF.FilePolarity,Positive*%
%FSLAX46Y46*%
G04 Gerber Fmt 4.6, Leading zero omitted, Abs format (unit mm)*
G04 Created by KiCad (PCBNEW 7.0.2) date 2023-06-29 20:21:03*
%MOMM*%
%LPD*%
G01*
G04 APERTURE LIST*
G04 Aperture macros list*
%AMRoundRect*
0 Rectangle with rounded corners*
0 $1 Rounding radius*
0 $2 $3 $4 $5 $6 $7 $8 $9 X,Y pos of 4 corners*
0 Add a 4 corners polygon primitive as box body*
4,1,4,$2,$3,$4,$5,$6,$7,$8,$9,$2,$3,0*
0 Add four circle primitives for the rounded corners*
1,1,$1+$1,$2,$3*
1,1,$1+$1,$4,$5*
1,1,$1+$1,$6,$7*
1,1,$1+$1,$8,$9*
0 Add four rect primitives between the rounded corners*
20,1,$1+$1,$2,$3,$4,$5,0*
20,1,$1+$1,$4,$5,$6,$7,0*
20,1,$1+$1,$6,$7,$8,$9,0*
20,1,$1+$1,$8,$9,$2,$3,0*%
G04 Aperture macros list end*
%TA.AperFunction,SMDPad,CuDef*%
%ADD10RoundRect,0.087500X-0.125000X-0.087500X0.125000X-0.087500X0.125000X0.087500X-0.125000X0.087500X0*%
%TD*%
%TA.AperFunction,SMDPad,CuDef*%
%ADD11RoundRect,0.087500X-0.087500X-0.125000X0.087500X-0.125000X0.087500X0.125000X-0.087500X0.125000X0*%
%TD*%
%TA.AperFunction,SMDPad,CuDef*%
%ADD12RoundRect,0.250000X-0.475000X0.250000X-0.475000X-0.250000X0.475000X-0.250000X0.475000X0.250000X0*%
%TD*%
%TA.AperFunction,ComponentPad*%
%ADD13R,1.700000X1.700000*%
%TD*%
%TA.AperFunction,ComponentPad*%
%ADD14O,1.700000X1.700000*%
%TD*%
%TA.AperFunction,SMDPad,CuDef*%
%ADD15RoundRect,0.150000X-0.512500X-0.150000X0.512500X-0.150000X0.512500X0.150000X-0.512500X0.150000X0*%
%TD*%
%TA.AperFunction,SMDPad,CuDef*%
%ADD16RoundRect,0.250000X0.250000X0.475000X-0.250000X0.475000X-0.250000X-0.475000X0.250000X-0.475000X0*%
%TD*%
%TA.AperFunction,SMDPad,CuDef*%
%ADD17RoundRect,0.250000X0.450000X-0.262500X0.450000X0.262500X-0.450000X0.262500X-0.450000X-0.262500X0*%
%TD*%
%TA.AperFunction,SMDPad,CuDef*%
%ADD18RoundRect,0.250000X-0.250000X-0.475000X0.250000X-0.475000X0.250000X0.475000X-0.250000X0.475000X0*%
%TD*%
%TA.AperFunction,SMDPad,CuDef*%
%ADD19RoundRect,0.135000X-0.135000X-0.185000X0.135000X-0.185000X0.135000X0.185000X-0.135000X0.185000X0*%
%TD*%
%TA.AperFunction,SMDPad,CuDef*%
%ADD20RoundRect,0.250000X0.262500X0.450000X-0.262500X0.450000X-0.262500X-0.450000X0.262500X-0.450000X0*%
%TD*%
%TA.AperFunction,SMDPad,CuDef*%
%ADD21RoundRect,0.218750X0.256250X-0.218750X0.256250X0.218750X-0.256250X0.218750X-0.256250X-0.218750X0*%
%TD*%
%TA.AperFunction,ComponentPad*%
%ADD22R,1.308000X1.308000*%
%TD*%
%TA.AperFunction,ComponentPad*%
%ADD23C,1.308000*%
%TD*%
%TA.AperFunction,SMDPad,CuDef*%
%ADD24R,2.350000X3.500000*%
%TD*%
%TA.AperFunction,SMDPad,CuDef*%
%ADD25RoundRect,0.075000X-0.662500X-0.075000X0.662500X-0.075000X0.662500X0.075000X-0.662500X0.075000X0*%
%TD*%
%TA.AperFunction,SMDPad,CuDef*%
%ADD26RoundRect,0.075000X-0.075000X-0.662500X0.075000X-0.662500X0.075000X0.662500X-0.075000X0.662500X0*%
%TD*%
%TA.AperFunction,SMDPad,CuDef*%
%ADD27R,1.350000X0.400000*%
%TD*%
%TA.AperFunction,SMDPad,CuDef*%
%ADD28R,1.400000X1.600000*%
%TD*%
%TA.AperFunction,SMDPad,CuDef*%
%ADD29R,1.900000X1.900000*%
%TD*%
%TA.AperFunction,ComponentPad*%
%ADD30O,1.800000X0.900000*%
%TD*%
%TA.AperFunction,SMDPad,CuDef*%
%ADD31R,2.400000X0.740000*%
%TD*%
%TA.AperFunction,SMDPad,CuDef*%
%ADD32R,1.100000X1.100000*%
%TD*%
%TA.AperFunction,SMDPad,CuDef*%
%ADD33R,2.000000X1.500000*%
%TD*%
%TA.AperFunction,SMDPad,CuDef*%
%ADD34R,2.000000X3.800000*%
%TD*%
%TA.AperFunction,SMDPad,CuDef*%
%ADD35RoundRect,0.250000X0.475000X-0.250000X0.475000X0.250000X-0.475000X0.250000X-0.475000X-0.250000X0*%
%TD*%
%TA.AperFunction,SMDPad,CuDef*%
%ADD36R,1.900000X0.400000*%
%TD*%
%TA.AperFunction,ViaPad*%
%ADD37C,0.800000*%
%TD*%
%TA.AperFunction,Conductor*%
%ADD38C,0.250000*%
%TD*%
G04 APERTURE END LIST*
D10*
%TO.P,U2,1,Vdd_IO*%
%TO.N,+3V3*%
X124967500Y-101350000D03*
%TO.P,U2,2,SCL*%
%TO.N,/Baro Sensor/SCL*%
X124967500Y-101850000D03*
D11*
%TO.P,U2,3,RES*%
%TO.N,GND*%
X125230000Y-102362500D03*
%TO.P,U2,4,SDA*%
%TO.N,/Baro Sensor/SDA*%
X125730000Y-102362500D03*
%TO.P,U2,5,SA0*%
%TO.N,GND*%
X126230000Y-102362500D03*
D10*
%TO.P,U2,6,~{CS}*%
%TO.N,+3V3*%
X126492500Y-101850000D03*
%TO.P,U2,7,INT_DRDY*%
%TO.N,unconnected-(U2-INT_DRDY-Pad7)*%
X126492500Y-101350000D03*
D11*
%TO.P,U2,8,GND*%
%TO.N,GND*%
X126230000Y-100837500D03*
%TO.P,U2,9,GND*%
X125730000Y-100837500D03*
%TO.P,U2,10,VDD*%
%TO.N,+3V3*%
X125230000Y-100837500D03*
%TD*%
D12*
%TO.P,C16,1*%
%TO.N,GND*%
X129540000Y-92395000D03*
%TO.P,C16,2*%
%TO.N,+3V3*%
X129540000Y-94295000D03*
%TD*%
D13*
%TO.P,J3,1,Pin_1*%
%TO.N,GND*%
X109220000Y-121285000D03*
D14*
%TO.P,J3,2,Pin_2*%
%TO.N,/LED_DI*%
X111760000Y-121285000D03*
%TO.P,J3,3,Pin_3*%
%TO.N,+5V*%
X114300000Y-121285000D03*
%TD*%
D15*
%TO.P,U4,1,CE*%
%TO.N,/Power/VIN*%
X109352500Y-95890000D03*
%TO.P,U4,2,GND*%
%TO.N,GND*%
X109352500Y-96840000D03*
%TO.P,U4,3,VIN*%
%TO.N,/Power/VIN*%
X109352500Y-97790000D03*
%TO.P,U4,4,VOUT*%
%TO.N,+5V*%
X111627500Y-97790000D03*
%TO.P,U4,5,LX*%
%TO.N,Net-(D6-A)*%
X111627500Y-95890000D03*
%TD*%
D16*
%TO.P,C4,1*%
%TO.N,GND*%
X126045000Y-107315000D03*
%TO.P,C4,2*%
%TO.N,+3V3*%
X124145000Y-107315000D03*
%TD*%
D17*
%TO.P,R3,1*%
%TO.N,+3V3*%
X106045000Y-103782500D03*
%TO.P,R3,2*%
%TO.N,Net-(D1-A)*%
X106045000Y-101957500D03*
%TD*%
D18*
%TO.P,C1,1*%
%TO.N,GND*%
X113985000Y-102235000D03*
%TO.P,C1,2*%
%TO.N,+3V3*%
X115885000Y-102235000D03*
%TD*%
D19*
%TO.P,R1,1*%
%TO.N,/Baro Sensor/SCL*%
X118745000Y-106045000D03*
%TO.P,R1,2*%
%TO.N,+3V3*%
X119765000Y-106045000D03*
%TD*%
D12*
%TO.P,C14,1*%
%TO.N,+5V*%
X113665000Y-97795000D03*
%TO.P,C14,2*%
%TO.N,GND*%
X113665000Y-99695000D03*
%TD*%
D19*
%TO.P,R2,1*%
%TO.N,/Baro Sensor/SDA*%
X118870000Y-103505000D03*
%TO.P,R2,2*%
%TO.N,+3V3*%
X119890000Y-103505000D03*
%TD*%
D20*
%TO.P,R4,1*%
%TO.N,Net-(U1-PD0)*%
X111402500Y-110490000D03*
%TO.P,R4,2*%
%TO.N,Net-(R4-Pad2)*%
X109577500Y-110490000D03*
%TD*%
D16*
%TO.P,C2,1*%
%TO.N,Net-(U1-NRST)*%
X111440000Y-114300000D03*
%TO.P,C2,2*%
%TO.N,GND*%
X109540000Y-114300000D03*
%TD*%
D21*
%TO.P,D1,1,K*%
%TO.N,GND*%
X108585000Y-103657500D03*
%TO.P,D1,2,A*%
%TO.N,Net-(D1-A)*%
X108585000Y-102082500D03*
%TD*%
D22*
%TO.P,J2,1,Pin_1*%
%TO.N,/Power/VIN*%
X116824000Y-84762500D03*
D23*
%TO.P,J2,2,Pin_2*%
%TO.N,GND*%
X114824000Y-84762500D03*
%TD*%
D16*
%TO.P,C13,1*%
%TO.N,/Power/VIN*%
X107630000Y-98745000D03*
%TO.P,C13,2*%
%TO.N,GND*%
X105730000Y-98745000D03*
%TD*%
D18*
%TO.P,C6,1*%
%TO.N,GND*%
X108270000Y-117475000D03*
%TO.P,C6,2*%
%TO.N,+3V3*%
X110170000Y-117475000D03*
%TD*%
D24*
%TO.P,L1,1,1*%
%TO.N,/Power/VIN*%
X106830000Y-91440000D03*
%TO.P,L1,2,2*%
%TO.N,Net-(D6-A)*%
X112880000Y-91440000D03*
%TD*%
D12*
%TO.P,C15,1*%
%TO.N,+5V*%
X118110000Y-94935000D03*
%TO.P,C15,2*%
%TO.N,GND*%
X118110000Y-96835000D03*
%TD*%
%TO.P,C5,1*%
%TO.N,GND*%
X114935000Y-104460000D03*
%TO.P,C5,2*%
%TO.N,+3V3*%
X114935000Y-106360000D03*
%TD*%
D25*
%TO.P,U1,1,VBAT*%
%TO.N,unconnected-(U1-VBAT-Pad1)*%
X113947500Y-110280000D03*
%TO.P,U1,2,PC13*%
%TO.N,unconnected-(U1-PC13-Pad2)*%
X113947500Y-110780000D03*
%TO.P,U1,3,PC14*%
%TO.N,unconnected-(U1-PC14-Pad3)*%
X113947500Y-111280000D03*
%TO.P,U1,4,PC15*%
%TO.N,unconnected-(U1-PC15-Pad4)*%
X113947500Y-111780000D03*
%TO.P,U1,5,PD0*%
%TO.N,Net-(U1-PD0)*%
X113947500Y-112280000D03*
%TO.P,U1,6,PD1*%
%TO.N,Net-(U1-PD1)*%
X113947500Y-112780000D03*
%TO.P,U1,7,NRST*%
%TO.N,Net-(U1-NRST)*%
X113947500Y-113280000D03*
%TO.P,U1,8,VSSA*%
%TO.N,GND*%
X113947500Y-113780000D03*
%TO.P,U1,9,VDDA*%
%TO.N,+3V3*%
X113947500Y-114280000D03*
%TO.P,U1,10,PA0*%
%TO.N,unconnected-(U1-PA0-Pad10)*%
X113947500Y-114780000D03*
%TO.P,U1,11,PA1*%
%TO.N,/LED_DI*%
X113947500Y-115280000D03*
%TO.P,U1,12,PA2*%
%TO.N,unconnected-(U1-PA2-Pad12)*%
X113947500Y-115780000D03*
D26*
%TO.P,U1,13,PA3*%
%TO.N,unconnected-(U1-PA3-Pad13)*%
X115360000Y-117192500D03*
%TO.P,U1,14,PA4*%
%TO.N,unconnected-(U1-PA4-Pad14)*%
X115860000Y-117192500D03*
%TO.P,U1,15,PA5*%
%TO.N,unconnected-(U1-PA5-Pad15)*%
X116360000Y-117192500D03*
%TO.P,U1,16,PA6*%
%TO.N,unconnected-(U1-PA6-Pad16)*%
X116860000Y-117192500D03*
%TO.P,U1,17,PA7*%
%TO.N,unconnected-(U1-PA7-Pad17)*%
X117360000Y-117192500D03*
%TO.P,U1,18,PB0*%
%TO.N,unconnected-(U1-PB0-Pad18)*%
X117860000Y-117192500D03*
%TO.P,U1,19,PB1*%
%TO.N,unconnected-(U1-PB1-Pad19)*%
X118360000Y-117192500D03*
%TO.P,U1,20,PB2*%
%TO.N,unconnected-(U1-PB2-Pad20)*%
X118860000Y-117192500D03*
%TO.P,U1,21,PB10*%
%TO.N,unconnected-(U1-PB10-Pad21)*%
X119360000Y-117192500D03*
%TO.P,U1,22,PB11*%
%TO.N,unconnected-(U1-PB11-Pad22)*%
X119860000Y-117192500D03*
%TO.P,U1,23,VSS*%
%TO.N,GND*%
X120360000Y-117192500D03*
%TO.P,U1,24,VDD*%
%TO.N,+3V3*%
X120860000Y-117192500D03*
D25*
%TO.P,U1,25,PB12*%
%TO.N,unconnected-(U1-PB12-Pad25)*%
X122272500Y-115780000D03*
%TO.P,U1,26,PB13*%
%TO.N,unconnected-(U1-PB13-Pad26)*%
X122272500Y-115280000D03*
%TO.P,U1,27,PB14*%
%TO.N,unconnected-(U1-PB14-Pad27)*%
X122272500Y-114780000D03*
%TO.P,U1,28,PB15*%
%TO.N,unconnected-(U1-PB15-Pad28)*%
X122272500Y-114280000D03*
%TO.P,U1,29,PA8*%
%TO.N,unconnected-(U1-PA8-Pad29)*%
X122272500Y-113780000D03*
%TO.P,U1,30,PA9*%
%TO.N,unconnected-(U1-PA9-Pad30)*%
X122272500Y-113280000D03*
%TO.P,U1,31,PA10*%
%TO.N,unconnected-(U1-PA10-Pad31)*%
X122272500Y-112780000D03*
%TO.P,U1,32,PA11*%
%TO.N,Net-(J4-D-)*%
X122272500Y-112280000D03*
%TO.P,U1,33,PA12*%
%TO.N,Net-(J4-D+)*%
X122272500Y-111780000D03*
%TO.P,U1,34,PA13*%
%TO.N,/STM_32/SWDIO*%
X122272500Y-111280000D03*
%TO.P,U1,35,VSS*%
%TO.N,GND*%
X122272500Y-110780000D03*
%TO.P,U1,36,VDD*%
%TO.N,+3V3*%
X122272500Y-110280000D03*
D26*
%TO.P,U1,37,PA14*%
%TO.N,/STM_32/SWCLK*%
X120860000Y-108867500D03*
%TO.P,U1,38,PA15*%
%TO.N,unconnected-(U1-PA15-Pad38)*%
X120360000Y-108867500D03*
%TO.P,U1,39,PB3*%
%TO.N,unconnected-(U1-PB3-Pad39)*%
X119860000Y-108867500D03*
%TO.P,U1,40,PB4*%
%TO.N,unconnected-(U1-PB4-Pad40)*%
X119360000Y-108867500D03*
%TO.P,U1,41,PB5*%
%TO.N,unconnected-(U1-PB5-Pad41)*%
X118860000Y-108867500D03*
%TO.P,U1,42,PB6*%
%TO.N,/Baro Sensor/SCL*%
X118360000Y-108867500D03*
%TO.P,U1,43,PB7*%
%TO.N,/Baro Sensor/SDA*%
X117860000Y-108867500D03*
%TO.P,U1,44,BOOT0*%
%TO.N,GND*%
X117360000Y-108867500D03*
%TO.P,U1,45,PB8*%
%TO.N,unconnected-(U1-PB8-Pad45)*%
X116860000Y-108867500D03*
%TO.P,U1,46,PB9*%
%TO.N,unconnected-(U1-PB9-Pad46)*%
X116360000Y-108867500D03*
%TO.P,U1,47,VSS*%
%TO.N,GND*%
X115860000Y-108867500D03*
%TO.P,U1,48,VDD*%
%TO.N,+3V3*%
X115360000Y-108867500D03*
%TD*%
D27*
%TO.P,J4,1,VUSB*%
%TO.N,+5V*%
X124960000Y-114400000D03*
%TO.P,J4,2,D-*%
%TO.N,Net-(J4-D-)*%
X124960000Y-113750000D03*
%TO.P,J4,3,D+*%
%TO.N,Net-(J4-D+)*%
X124960000Y-113100000D03*
%TO.P,J4,4,ID*%
%TO.N,unconnected-(J4-ID-Pad4)*%
X124960000Y-112450000D03*
%TO.P,J4,5,GND*%
%TO.N,GND*%
X124960000Y-111800000D03*
D28*
%TO.P,J4,S1,SHIELD*%
X125185000Y-116300000D03*
%TO.P,J4,S2,SHIELD*%
X125185000Y-109900000D03*
D29*
%TO.P,J4,S3,SHIELD*%
X127635000Y-111900000D03*
%TO.P,J4,S4,SHIELD*%
X127635000Y-114300000D03*
D30*
%TO.P,J4,S5,SHIELD*%
X127635000Y-116400000D03*
%TO.P,J4,S6,SHIELD*%
X127635000Y-109800000D03*
%TD*%
D31*
%TO.P,J1,1,VTref*%
%TO.N,+3V3*%
X125775000Y-86995000D03*
%TO.P,J1,2,SWDIO/TMS*%
%TO.N,/STM_32/SWDIO*%
X121875000Y-86995000D03*
%TO.P,J1,3,GND*%
%TO.N,GND*%
X125775000Y-85725000D03*
%TO.P,J1,4,SWDCLK/TCK*%
%TO.N,/STM_32/SWCLK*%
X121875000Y-85725000D03*
%TO.P,J1,5,GND*%
%TO.N,GND*%
X125775000Y-84455000D03*
%TO.P,J1,6,SWO/TDO*%
%TO.N,unconnected-(J1-SWO{slash}TDO-Pad6)*%
X121875000Y-84455000D03*
%TO.P,J1,7,KEY*%
%TO.N,unconnected-(J1-KEY-Pad7)*%
X125775000Y-83185000D03*
%TO.P,J1,8,NC/TDI*%
%TO.N,unconnected-(J1-NC{slash}TDI-Pad8)*%
X121875000Y-83185000D03*
%TO.P,J1,9,GNDDetect*%
%TO.N,GND*%
X125775000Y-81915000D03*
%TO.P,J1,10,~{RESET}*%
X121875000Y-81915000D03*
%TD*%
D32*
%TO.P,D6,1,K*%
%TO.N,+5V*%
X115570000Y-94745000D03*
%TO.P,D6,2,A*%
%TO.N,Net-(D6-A)*%
X115570000Y-91945000D03*
%TD*%
D33*
%TO.P,U5,1,GND*%
%TO.N,GND*%
X120675000Y-92315000D03*
%TO.P,U5,2,VOUT*%
%TO.N,+3V3*%
X120675000Y-94615000D03*
%TO.P,U5,3,VIN*%
%TO.N,+5V*%
X120675000Y-96915000D03*
D34*
%TO.P,U5,4,VOUT*%
%TO.N,+3V3*%
X126975000Y-94615000D03*
%TD*%
D35*
%TO.P,C3,1*%
%TO.N,GND*%
X121920000Y-121600000D03*
%TO.P,C3,2*%
%TO.N,+3V3*%
X121920000Y-119700000D03*
%TD*%
D16*
%TO.P,C7,1*%
%TO.N,+3V3*%
X123505000Y-100965000D03*
%TO.P,C7,2*%
%TO.N,GND*%
X121605000Y-100965000D03*
%TD*%
D36*
%TO.P,Y1,1,1*%
%TO.N,Net-(R4-Pad2)*%
X107315000Y-110490000D03*
%TO.P,Y1,2,2*%
%TO.N,GND*%
X107315000Y-111690000D03*
%TO.P,Y1,3,3*%
%TO.N,Net-(U1-PD1)*%
X107315000Y-112890000D03*
%TD*%
D37*
%TO.N,GND*%
X117475000Y-111125000D03*
X120305000Y-110780000D03*
X107315000Y-111760000D03*
X107823000Y-95758000D03*
X127254000Y-99822000D03*
X120739500Y-92315000D03*
X116205000Y-111125000D03*
X116205000Y-113665000D03*
X109220000Y-114300000D03*
X121285000Y-102870000D03*
X120015000Y-114935000D03*
X121920000Y-121412000D03*
%TO.N,/STM_32/SWDIO*%
X123825000Y-111125000D03*
X121920000Y-88900000D03*
%TO.N,/STM_32/SWCLK*%
X120015000Y-107315000D03*
X120015000Y-89535000D03*
%TO.N,+5V*%
X117475000Y-99695000D03*
%TO.N,/LED_DI*%
X111760000Y-116840000D03*
%TO.N,/Baro Sensor/SCL*%
X121285000Y-104775000D03*
X118745000Y-104775000D03*
%TO.N,/Baro Sensor/SDA*%
X127635000Y-104775000D03*
X117475000Y-103505000D03*
%TD*%
D38*
%TO.N,GND*%
X120360000Y-115280000D02*
X120015000Y-114935000D01*
X126238500Y-100837500D02*
X127254000Y-99822000D01*
X122272500Y-110780000D02*
X120305000Y-110780000D01*
X125730000Y-100837500D02*
X126230000Y-100837500D01*
X115860000Y-110780000D02*
X116205000Y-111125000D01*
X108905000Y-96840000D02*
X107823000Y-95758000D01*
X117360000Y-111010000D02*
X117475000Y-111125000D01*
X125230000Y-102362500D02*
X125230000Y-102735000D01*
X117360000Y-108867500D02*
X117360000Y-111010000D01*
X120360000Y-117192500D02*
X120360000Y-115280000D01*
X126230000Y-100837500D02*
X126238500Y-100837500D01*
X115860000Y-108867500D02*
X115860000Y-110780000D01*
X125230000Y-102735000D02*
X124460000Y-103505000D01*
X127127500Y-102362500D02*
X127635000Y-102870000D01*
X116090000Y-113780000D02*
X116205000Y-113665000D01*
X126230000Y-102362500D02*
X127127500Y-102362500D01*
X113947500Y-113780000D02*
X116090000Y-113780000D01*
X109352500Y-96840000D02*
X108905000Y-96840000D01*
%TO.N,+3V3*%
X128270000Y-101600000D02*
X128270000Y-99695000D01*
X114935000Y-108442500D02*
X115360000Y-108867500D01*
X108270000Y-119700000D02*
X106045000Y-117475000D01*
X109220000Y-119700000D02*
X108270000Y-119700000D01*
X120860000Y-117192500D02*
X120860000Y-118640000D01*
X128270000Y-99695000D02*
X127635000Y-99060000D01*
X106045000Y-112395000D02*
X106045000Y-109855000D01*
X107315000Y-108585000D02*
X112615480Y-103284520D01*
X119765000Y-106045000D02*
X120335000Y-106045000D01*
X115885000Y-102235000D02*
X115984520Y-102334520D01*
X120335000Y-106045000D02*
X121605000Y-107315000D01*
X115984520Y-102334520D02*
X115984520Y-105310480D01*
X121651827Y-99380000D02*
X119890000Y-101141827D01*
X126975000Y-94615000D02*
X126975000Y-95910000D01*
X115984520Y-105310480D02*
X114935000Y-106360000D01*
X113947500Y-114280000D02*
X113144315Y-114280000D01*
X107315000Y-105052500D02*
X106045000Y-103782500D01*
X106045000Y-109855000D02*
X107315000Y-108585000D01*
X110170000Y-117475000D02*
X110170000Y-118750000D01*
X126492500Y-101850000D02*
X128020000Y-101850000D01*
X127635000Y-99060000D02*
X125730000Y-99060000D01*
X123505000Y-99380000D02*
X121651827Y-99380000D01*
X115885000Y-102235000D02*
X118569859Y-102235000D01*
X118569859Y-102235000D02*
X118657429Y-102322571D01*
X119890000Y-101141827D02*
X119890000Y-103505000D01*
X113144315Y-114280000D02*
X110170000Y-117254315D01*
X124582500Y-100965000D02*
X124967500Y-101350000D01*
X124145000Y-107315000D02*
X124145000Y-108407500D01*
X119839859Y-103505000D02*
X119890000Y-103505000D01*
X119890000Y-105920000D02*
X119765000Y-106045000D01*
X124967500Y-101350000D02*
X124967500Y-101100000D01*
X126975000Y-94615000D02*
X129220000Y-94615000D01*
X121605000Y-107315000D02*
X124145000Y-107315000D01*
X114935000Y-106360000D02*
X114935000Y-108442500D01*
X107315000Y-108585000D02*
X107315000Y-105052500D01*
X120860000Y-118640000D02*
X121920000Y-119700000D01*
X114835480Y-103284520D02*
X115885000Y-102235000D01*
X125730000Y-99060000D02*
X125230000Y-99560000D01*
X125775000Y-86995000D02*
X125775000Y-93415000D01*
X125775000Y-93415000D02*
X126975000Y-94615000D01*
X119890000Y-103505000D02*
X119890000Y-105920000D01*
X118657429Y-102322571D02*
X119839859Y-103505000D01*
X124967500Y-101100000D02*
X125230000Y-100837500D01*
X124145000Y-108407500D02*
X122272500Y-110280000D01*
X113927500Y-114300000D02*
X113947500Y-114280000D01*
X126975000Y-94615000D02*
X120675000Y-94615000D01*
X123505000Y-100965000D02*
X124582500Y-100965000D01*
X112615480Y-103284520D02*
X114835480Y-103284520D01*
X126975000Y-95910000D02*
X123505000Y-99380000D01*
X128020000Y-101850000D02*
X128270000Y-101600000D01*
X129220000Y-94615000D02*
X129540000Y-94295000D01*
X123505000Y-99380000D02*
X123505000Y-100965000D01*
X121920000Y-119700000D02*
X109220000Y-119700000D01*
X110170000Y-118750000D02*
X109220000Y-119700000D01*
X110170000Y-117254315D02*
X110170000Y-117475000D01*
X125230000Y-99560000D02*
X125230000Y-100837500D01*
X106045000Y-117475000D02*
X106045000Y-112395000D01*
%TO.N,Net-(U1-NRST)*%
X111440000Y-114300000D02*
X112124315Y-114300000D01*
X112124315Y-114300000D02*
X113144315Y-113280000D01*
X113144315Y-113280000D02*
X113947500Y-113280000D01*
%TO.N,/STM_32/SWDIO*%
X121875000Y-88855000D02*
X121920000Y-88900000D01*
X123075006Y-111280000D02*
X122272500Y-111280000D01*
X121875000Y-86995000D02*
X121875000Y-88855000D01*
X123825000Y-111125000D02*
X123230006Y-111125000D01*
X123230006Y-111125000D02*
X123075006Y-111280000D01*
%TO.N,/STM_32/SWCLK*%
X121875000Y-85725000D02*
X120925978Y-85725000D01*
X120110006Y-107315000D02*
X120860000Y-108064994D01*
X120015000Y-86635978D02*
X120015000Y-89535000D01*
X120015000Y-107315000D02*
X120110006Y-107315000D01*
X120860000Y-108064994D02*
X120860000Y-108867500D01*
X120925978Y-85725000D02*
X120015000Y-86635978D01*
%TO.N,Net-(D1-A)*%
X108460000Y-101957500D02*
X108585000Y-102082500D01*
X106045000Y-101957500D02*
X108460000Y-101957500D01*
%TO.N,Net-(D6-A)*%
X115065000Y-91440000D02*
X115570000Y-91945000D01*
X112880000Y-91440000D02*
X112880000Y-94637500D01*
X112880000Y-91440000D02*
X115065000Y-91440000D01*
X112880000Y-94637500D02*
X111627500Y-95890000D01*
%TO.N,Net-(U1-PD0)*%
X111402500Y-110490000D02*
X111402500Y-110538185D01*
X113144315Y-112280000D02*
X113947500Y-112280000D01*
X111402500Y-110538185D02*
X113144315Y-112280000D01*
%TO.N,Net-(R4-Pad2)*%
X109577500Y-110490000D02*
X107315000Y-110490000D01*
%TO.N,+5V*%
X123839315Y-121218858D02*
X122503173Y-122555000D01*
X118695000Y-94935000D02*
X120675000Y-96915000D01*
X113665000Y-97795000D02*
X115570000Y-95890000D01*
X113660000Y-97790000D02*
X113665000Y-97795000D01*
X118110000Y-94935000D02*
X118695000Y-94935000D01*
X115570000Y-122555000D02*
X114300000Y-121285000D01*
X123839315Y-115520685D02*
X123839315Y-121218858D01*
X111627500Y-97790000D02*
X113660000Y-97790000D01*
X117920000Y-94745000D02*
X118110000Y-94935000D01*
X120675000Y-96915000D02*
X117895000Y-99695000D01*
X115570000Y-95890000D02*
X115570000Y-94745000D01*
X117895000Y-99695000D02*
X117475000Y-99695000D01*
X124960000Y-114400000D02*
X123839315Y-115520685D01*
X115570000Y-94745000D02*
X117920000Y-94745000D01*
X122503173Y-122555000D02*
X115570000Y-122555000D01*
%TO.N,/LED_DI*%
X113947500Y-115280000D02*
X113144994Y-115280000D01*
X111760000Y-116664994D02*
X111760000Y-116840000D01*
X113144994Y-115280000D02*
X111760000Y-116664994D01*
%TO.N,/Baro Sensor/SCL*%
X124210000Y-101850000D02*
X121285000Y-104775000D01*
X118745000Y-107315000D02*
X118360000Y-107700000D01*
X118745000Y-104775000D02*
X118745000Y-106045000D01*
X118745000Y-106045000D02*
X118745000Y-107315000D01*
X118360000Y-107700000D02*
X118360000Y-108867500D01*
X124967500Y-101850000D02*
X124210000Y-101850000D01*
%TO.N,/Baro Sensor/SDA*%
X125730000Y-102870000D02*
X125730000Y-102362500D01*
X118870000Y-103505000D02*
X117759511Y-104615489D01*
X117860000Y-108064994D02*
X117860000Y-108867500D01*
X117475000Y-103505000D02*
X118870000Y-103505000D01*
X117759511Y-104615489D02*
X117759511Y-107964505D01*
X127635000Y-104775000D02*
X125730000Y-102870000D01*
X117759511Y-107964505D02*
X117860000Y-108064994D01*
%TO.N,/Power/VIN*%
X115845489Y-85741011D02*
X112528989Y-85741011D01*
X112528989Y-85741011D02*
X106830000Y-91440000D01*
X116824000Y-84762500D02*
X115845489Y-85741011D01*
X109352500Y-95890000D02*
X109736072Y-95890000D01*
X109736072Y-95890000D02*
X110339520Y-96493448D01*
X106830000Y-96035000D02*
X108585000Y-97790000D01*
X110175000Y-97790000D02*
X109352500Y-97790000D01*
X106830000Y-91440000D02*
X106830000Y-96035000D01*
X109352500Y-97790000D02*
X108585000Y-97790000D01*
X110339520Y-96493448D02*
X110339520Y-97625480D01*
X108585000Y-97790000D02*
X107630000Y-98745000D01*
X110339520Y-97625480D02*
X110175000Y-97790000D01*
%TO.N,Net-(J4-D-)*%
X123510000Y-113350000D02*
X123910000Y-113750000D01*
X123510000Y-112715000D02*
X123510000Y-113350000D01*
X122272500Y-112280000D02*
X123075000Y-112280000D01*
X123910000Y-113750000D02*
X124960000Y-113750000D01*
X123075000Y-112280000D02*
X123510000Y-112715000D01*
%TO.N,Net-(J4-D+)*%
X124035000Y-113100000D02*
X124960000Y-113100000D01*
X123960000Y-112285305D02*
X123960000Y-113025000D01*
X123454695Y-111780000D02*
X123960000Y-112285305D01*
X122272500Y-111780000D02*
X123454695Y-111780000D01*
X123960000Y-113025000D02*
X124035000Y-113100000D01*
%TO.N,Net-(U1-PD1)*%
X113947500Y-112780000D02*
X107425000Y-112780000D01*
X107425000Y-112780000D02*
X107315000Y-112890000D01*
%TD*%
%TA.AperFunction,Conductor*%
%TO.N,GND*%
G36*
X104983511Y-104506648D02*
G01*
X104990094Y-104512777D01*
X105121344Y-104644027D01*
X105121346Y-104644028D01*
X105121348Y-104644030D01*
X105272262Y-104737115D01*
X105440574Y-104792887D01*
X105507319Y-104799706D01*
X105541253Y-104803173D01*
X105541255Y-104803173D01*
X105544455Y-104803500D01*
X106117904Y-104803499D01*
X106186025Y-104823501D01*
X106206999Y-104840404D01*
X106644594Y-105277999D01*
X106678620Y-105340311D01*
X106681499Y-105367094D01*
X106681500Y-108270403D01*
X106661498Y-108338524D01*
X106644595Y-108359498D01*
X105656336Y-109347757D01*
X105640016Y-109360833D01*
X105591370Y-109412635D01*
X105588621Y-109415472D01*
X105571667Y-109432427D01*
X105571660Y-109432434D01*
X105568865Y-109435230D01*
X105566442Y-109438352D01*
X105566426Y-109438371D01*
X105566365Y-109438451D01*
X105558689Y-109447436D01*
X105528414Y-109479677D01*
X105518652Y-109497434D01*
X105507801Y-109513952D01*
X105495385Y-109529959D01*
X105477824Y-109570539D01*
X105472604Y-109581195D01*
X105451304Y-109619940D01*
X105446267Y-109639559D01*
X105439864Y-109658261D01*
X105431818Y-109676855D01*
X105424901Y-109720524D01*
X105422495Y-109732144D01*
X105411500Y-109774969D01*
X105411500Y-109795223D01*
X105409949Y-109814933D01*
X105406779Y-109834942D01*
X105410941Y-109878961D01*
X105411500Y-109890819D01*
X105411500Y-117391147D01*
X105409204Y-117411935D01*
X105411438Y-117482984D01*
X105411500Y-117486943D01*
X105411500Y-117514856D01*
X105411995Y-117518774D01*
X105411997Y-117518806D01*
X105412008Y-117518888D01*
X105412937Y-117530697D01*
X105414326Y-117574892D01*
X105419977Y-117594341D01*
X105423986Y-117613696D01*
X105426525Y-117633794D01*
X105426525Y-117633796D01*
X105426526Y-117633797D01*
X105441303Y-117671121D01*
X105442801Y-117674903D01*
X105446644Y-117686130D01*
X105458980Y-117728590D01*
X105469294Y-117746030D01*
X105477987Y-117763774D01*
X105480294Y-117769600D01*
X105485449Y-117782619D01*
X105511431Y-117818380D01*
X105517948Y-117828301D01*
X105540458Y-117866363D01*
X105554778Y-117880683D01*
X105567618Y-117895716D01*
X105579526Y-117912105D01*
X105613598Y-117940292D01*
X105622378Y-117948282D01*
X107762751Y-120088655D01*
X107775835Y-120104985D01*
X107827666Y-120153657D01*
X107830509Y-120156413D01*
X107846968Y-120172872D01*
X107880994Y-120235184D01*
X107875930Y-120305995D01*
X107868505Y-120325902D01*
X107862359Y-120383063D01*
X107862000Y-120389777D01*
X107862000Y-121031000D01*
X108788884Y-121031000D01*
X108760507Y-121075156D01*
X108720000Y-121213111D01*
X108720000Y-121356889D01*
X108760507Y-121494844D01*
X108788884Y-121539000D01*
X107862000Y-121539000D01*
X107862000Y-122180222D01*
X107862359Y-122186936D01*
X107868505Y-122244093D01*
X107919554Y-122380962D01*
X108007095Y-122497904D01*
X108124037Y-122585445D01*
X108260906Y-122636494D01*
X108318063Y-122642640D01*
X108324777Y-122643000D01*
X108966000Y-122643000D01*
X108966000Y-121718674D01*
X109077685Y-121769680D01*
X109184237Y-121785000D01*
X109255763Y-121785000D01*
X109362315Y-121769680D01*
X109474000Y-121718674D01*
X109474000Y-122643000D01*
X110115223Y-122643000D01*
X110121936Y-122642640D01*
X110179093Y-122636494D01*
X110315962Y-122585445D01*
X110432904Y-122497904D01*
X110520445Y-122380962D01*
X110564618Y-122262530D01*
X110607164Y-122205694D01*
X110673685Y-122180883D01*
X110743059Y-122195974D01*
X110775372Y-122221222D01*
X110796427Y-122244093D01*
X110836762Y-122287908D01*
X110956317Y-122380962D01*
X111014424Y-122426189D01*
X111212426Y-122533342D01*
X111425365Y-122606444D01*
X111647431Y-122643500D01*
X111647434Y-122643500D01*
X111872566Y-122643500D01*
X111872569Y-122643500D01*
X112094635Y-122606444D01*
X112307574Y-122533342D01*
X112505576Y-122426189D01*
X112683240Y-122287906D01*
X112835722Y-122122268D01*
X112924518Y-121986354D01*
X112978521Y-121940268D01*
X113048869Y-121930693D01*
X113113226Y-121960670D01*
X113135480Y-121986353D01*
X113224277Y-122122267D01*
X113224278Y-122122268D01*
X113376762Y-122287908D01*
X113496317Y-122380962D01*
X113554424Y-122426189D01*
X113752426Y-122533342D01*
X113965365Y-122606444D01*
X114187431Y-122643500D01*
X114187434Y-122643500D01*
X114412566Y-122643500D01*
X114412569Y-122643500D01*
X114634635Y-122606444D01*
X114634637Y-122606443D01*
X114644934Y-122604725D01*
X114645473Y-122607960D01*
X114698822Y-122605545D01*
X114757924Y-122638828D01*
X115062751Y-122943655D01*
X115075834Y-122959984D01*
X115088255Y-122971648D01*
X115124222Y-123032860D01*
X115121385Y-123103800D01*
X115080646Y-123161945D01*
X115014939Y-123188834D01*
X115002004Y-123189500D01*
X104901000Y-123189500D01*
X104832879Y-123169498D01*
X104786386Y-123115842D01*
X104775000Y-123063500D01*
X104775000Y-113856704D01*
X104774999Y-104601868D01*
X104795001Y-104533751D01*
X104848657Y-104487258D01*
X104918931Y-104477154D01*
X104983511Y-104506648D01*
G37*
%TD.AperFunction*%
%TA.AperFunction,Conductor*%
G36*
X130751621Y-78135502D02*
G01*
X130798114Y-78189158D01*
X130809500Y-78241500D01*
X130809499Y-91563335D01*
X130789497Y-91631456D01*
X130735841Y-91677949D01*
X130665567Y-91688053D01*
X130600987Y-91658559D01*
X130594403Y-91652430D01*
X130488339Y-91546365D01*
X130337522Y-91453340D01*
X130169327Y-91397606D01*
X130068692Y-91387325D01*
X130062303Y-91387000D01*
X129794000Y-91387000D01*
X129794000Y-92523000D01*
X129773998Y-92591121D01*
X129720342Y-92637614D01*
X129668000Y-92649000D01*
X129412000Y-92649000D01*
X129343879Y-92628998D01*
X129297386Y-92575342D01*
X129286000Y-92523000D01*
X129286000Y-91387000D01*
X129017697Y-91387000D01*
X129011307Y-91387325D01*
X128910672Y-91397606D01*
X128742477Y-91453340D01*
X128591657Y-91546367D01*
X128466367Y-91671657D01*
X128373340Y-91822477D01*
X128317606Y-91990672D01*
X128307325Y-92091307D01*
X128307000Y-92097697D01*
X128307000Y-92114636D01*
X128286998Y-92182757D01*
X128233342Y-92229250D01*
X128163068Y-92239354D01*
X128136968Y-92232692D01*
X128114580Y-92224341D01*
X128084201Y-92213011D01*
X128023638Y-92206500D01*
X128020269Y-92206500D01*
X126534500Y-92206500D01*
X126466379Y-92186498D01*
X126419886Y-92132842D01*
X126408500Y-92080500D01*
X126408500Y-87999500D01*
X126428502Y-87931379D01*
X126482158Y-87884886D01*
X126534500Y-87873500D01*
X127020269Y-87873500D01*
X127023638Y-87873500D01*
X127084201Y-87866989D01*
X127221204Y-87815889D01*
X127338261Y-87728261D01*
X127425889Y-87611204D01*
X127476989Y-87474201D01*
X127483500Y-87413638D01*
X127483500Y-86576362D01*
X127476989Y-86515799D01*
X127435033Y-86403313D01*
X127429969Y-86332501D01*
X127435035Y-86315251D01*
X127476494Y-86204095D01*
X127482640Y-86146936D01*
X127483000Y-86140222D01*
X127483000Y-85979000D01*
X124067000Y-85979000D01*
X124067000Y-86140222D01*
X124067359Y-86146936D01*
X124073505Y-86204093D01*
X124114965Y-86315252D01*
X124120029Y-86386068D01*
X124114965Y-86403316D01*
X124094631Y-86457833D01*
X124073011Y-86515799D01*
X124066500Y-86576362D01*
X124066500Y-87413638D01*
X124066860Y-87416986D01*
X124073011Y-87474200D01*
X124124111Y-87611205D01*
X124211738Y-87728261D01*
X124328794Y-87815888D01*
X124328795Y-87815888D01*
X124328796Y-87815889D01*
X124465799Y-87866989D01*
X124526362Y-87873500D01*
X125015500Y-87873500D01*
X125083621Y-87893502D01*
X125130114Y-87947158D01*
X125141500Y-87999500D01*
X125141500Y-93331147D01*
X125139204Y-93351935D01*
X125141438Y-93422984D01*
X125141500Y-93426943D01*
X125141500Y-93454856D01*
X125141995Y-93458774D01*
X125141997Y-93458806D01*
X125142008Y-93458888D01*
X125142937Y-93470697D01*
X125144326Y-93514892D01*
X125149977Y-93534341D01*
X125153986Y-93553696D01*
X125156525Y-93573794D01*
X125172801Y-93614903D01*
X125176644Y-93626130D01*
X125188980Y-93668590D01*
X125199294Y-93686030D01*
X125207987Y-93703774D01*
X125215448Y-93722617D01*
X125215449Y-93722619D01*
X125241431Y-93758380D01*
X125247947Y-93768298D01*
X125261585Y-93791359D01*
X125279046Y-93860173D01*
X125256531Y-93927505D01*
X125201188Y-93971976D01*
X125153133Y-93981500D01*
X122309500Y-93981500D01*
X122241379Y-93961498D01*
X122194886Y-93907842D01*
X122183500Y-93855500D01*
X122183500Y-93819730D01*
X122183500Y-93816362D01*
X122176989Y-93755799D01*
X122125889Y-93618796D01*
X122066971Y-93540091D01*
X122042161Y-93473572D01*
X122057252Y-93404198D01*
X122066972Y-93389074D01*
X122125445Y-93310962D01*
X122176494Y-93174093D01*
X122182640Y-93116936D01*
X122183000Y-93110222D01*
X122183000Y-92569000D01*
X119167000Y-92569000D01*
X119167000Y-93110222D01*
X119167359Y-93116936D01*
X119173505Y-93174093D01*
X119224553Y-93310960D01*
X119283028Y-93389072D01*
X119307839Y-93455592D01*
X119292748Y-93524967D01*
X119283028Y-93540091D01*
X119224111Y-93618794D01*
X119177370Y-93744111D01*
X119173011Y-93755799D01*
X119166500Y-93816362D01*
X119166499Y-93819712D01*
X119166499Y-93819731D01*
X119166499Y-93926734D01*
X119146496Y-93994855D01*
X119092840Y-94041347D01*
X119022566Y-94051450D01*
X118974355Y-94033975D01*
X118907738Y-93992885D01*
X118739426Y-93937113D01*
X118739423Y-93937112D01*
X118739421Y-93937112D01*
X118638746Y-93926826D01*
X118638725Y-93926824D01*
X118635545Y-93926500D01*
X118632339Y-93926500D01*
X117587661Y-93926500D01*
X117587641Y-93926500D01*
X117584456Y-93926501D01*
X117581279Y-93926825D01*
X117581270Y-93926826D01*
X117480573Y-93937113D01*
X117375362Y-93971976D01*
X117312262Y-93992885D01*
X117161626Y-94085799D01*
X117150371Y-94092741D01*
X117084224Y-94111500D01*
X116719058Y-94111500D01*
X116650937Y-94091498D01*
X116604444Y-94037842D01*
X116601002Y-94029532D01*
X116587333Y-93992885D01*
X116570889Y-93948796D01*
X116570888Y-93948794D01*
X116483261Y-93831738D01*
X116366205Y-93744111D01*
X116274444Y-93709886D01*
X116229201Y-93693011D01*
X116168638Y-93686500D01*
X114971362Y-93686500D01*
X114968013Y-93686859D01*
X114968013Y-93686860D01*
X114910799Y-93693011D01*
X114773794Y-93744111D01*
X114656738Y-93831738D01*
X114569111Y-93948794D01*
X114518011Y-94085798D01*
X114518011Y-94085799D01*
X114511500Y-94146362D01*
X114511500Y-95343638D01*
X114518011Y-95404201D01*
X114543561Y-95472702D01*
X114569111Y-95541205D01*
X114656737Y-95658260D01*
X114682786Y-95677760D01*
X114725332Y-95734596D01*
X114730396Y-95805412D01*
X114696371Y-95867723D01*
X114254324Y-96309770D01*
X113814498Y-96749596D01*
X113752186Y-96783621D01*
X113725403Y-96786500D01*
X113142661Y-96786500D01*
X113142641Y-96786500D01*
X113139456Y-96786501D01*
X113136279Y-96786825D01*
X113136270Y-96786826D01*
X113035573Y-96797113D01*
X112867262Y-96852885D01*
X112716346Y-96945971D01*
X112615893Y-97046424D01*
X112553581Y-97080449D01*
X112482765Y-97075383D01*
X112462659Y-97065782D01*
X112403601Y-97030855D01*
X112403600Y-97030854D01*
X112403599Y-97030854D01*
X112243832Y-96984438D01*
X112208958Y-96981693D01*
X112208950Y-96981692D01*
X112206502Y-96981500D01*
X111099020Y-96981500D01*
X111030899Y-96961498D01*
X110984406Y-96907842D01*
X110973020Y-96855500D01*
X110973020Y-96824500D01*
X110993022Y-96756379D01*
X111046678Y-96709886D01*
X111099020Y-96698500D01*
X112204033Y-96698500D01*
X112206502Y-96698500D01*
X112243831Y-96695562D01*
X112403601Y-96649145D01*
X112546807Y-96564453D01*
X112664453Y-96446807D01*
X112749145Y-96303601D01*
X112795562Y-96143831D01*
X112798500Y-96106502D01*
X112798500Y-95673498D01*
X112798392Y-95672128D01*
X112815669Y-95603424D01*
X112835159Y-95578243D01*
X113268658Y-95144744D01*
X113284979Y-95131670D01*
X113287014Y-95129502D01*
X113287018Y-95129500D01*
X113333676Y-95079812D01*
X113336368Y-95077034D01*
X113356134Y-95057270D01*
X113358601Y-95054088D01*
X113366308Y-95045062D01*
X113396586Y-95012821D01*
X113406343Y-94995070D01*
X113417199Y-94978543D01*
X113429613Y-94962541D01*
X113447172Y-94921961D01*
X113452392Y-94911309D01*
X113473694Y-94872561D01*
X113473695Y-94872560D01*
X113478732Y-94852939D01*
X113485138Y-94834230D01*
X113493181Y-94815645D01*
X113500096Y-94771976D01*
X113502496Y-94760381D01*
X113513500Y-94717530D01*
X113513500Y-94697269D01*
X113515051Y-94677558D01*
X113518219Y-94657555D01*
X113514059Y-94613545D01*
X113513500Y-94601688D01*
X113513500Y-93824500D01*
X113533502Y-93756379D01*
X113587158Y-93709886D01*
X113639500Y-93698500D01*
X114100269Y-93698500D01*
X114103638Y-93698500D01*
X114164201Y-93691989D01*
X114301204Y-93640889D01*
X114418261Y-93553261D01*
X114505889Y-93436204D01*
X114556989Y-93299201D01*
X114563500Y-93238638D01*
X114563499Y-93040180D01*
X114583502Y-92972059D01*
X114637158Y-92925566D01*
X114707432Y-92915462D01*
X114765009Y-92939312D01*
X114773794Y-92945888D01*
X114773795Y-92945888D01*
X114773796Y-92945889D01*
X114910799Y-92996989D01*
X114971362Y-93003500D01*
X114974731Y-93003500D01*
X116165269Y-93003500D01*
X116168638Y-93003500D01*
X116229201Y-92996989D01*
X116366204Y-92945889D01*
X116483261Y-92858261D01*
X116570889Y-92741204D01*
X116621989Y-92604201D01*
X116628500Y-92543638D01*
X116628500Y-92061000D01*
X119167000Y-92061000D01*
X120421000Y-92061000D01*
X120421000Y-91057000D01*
X120929000Y-91057000D01*
X120929000Y-92061000D01*
X122183000Y-92061000D01*
X122183000Y-91519777D01*
X122182640Y-91513063D01*
X122176494Y-91455906D01*
X122125445Y-91319037D01*
X122037904Y-91202095D01*
X121920962Y-91114554D01*
X121784093Y-91063505D01*
X121726936Y-91057359D01*
X121720223Y-91057000D01*
X120929000Y-91057000D01*
X120421000Y-91057000D01*
X119629777Y-91057000D01*
X119623063Y-91057359D01*
X119565906Y-91063505D01*
X119429037Y-91114554D01*
X119312095Y-91202095D01*
X119224554Y-91319037D01*
X119173505Y-91455906D01*
X119167359Y-91513063D01*
X119167000Y-91519777D01*
X119167000Y-92061000D01*
X116628500Y-92061000D01*
X116628500Y-91346362D01*
X116621989Y-91285799D01*
X116570889Y-91148796D01*
X116507041Y-91063505D01*
X116483261Y-91031738D01*
X116366205Y-90944111D01*
X116297702Y-90918561D01*
X116229201Y-90893011D01*
X116168638Y-90886500D01*
X116165269Y-90886500D01*
X115407155Y-90886500D01*
X115357113Y-90876137D01*
X115349455Y-90872823D01*
X115338795Y-90867600D01*
X115300061Y-90846305D01*
X115291460Y-90844096D01*
X115280437Y-90841266D01*
X115261731Y-90834862D01*
X115243145Y-90826819D01*
X115199475Y-90819902D01*
X115187853Y-90817495D01*
X115145030Y-90806500D01*
X115145029Y-90806500D01*
X115124776Y-90806500D01*
X115105066Y-90804949D01*
X115085057Y-90801779D01*
X115041039Y-90805941D01*
X115029181Y-90806500D01*
X114689500Y-90806500D01*
X114621379Y-90786498D01*
X114574886Y-90732842D01*
X114563500Y-90680500D01*
X114563500Y-89644730D01*
X114563500Y-89644729D01*
X114563500Y-89641362D01*
X114556989Y-89580799D01*
X114539907Y-89535000D01*
X119101496Y-89535000D01*
X119106310Y-89580799D01*
X119121458Y-89724929D01*
X119180472Y-89906556D01*
X119275958Y-90071942D01*
X119275960Y-90071944D01*
X119403747Y-90213866D01*
X119558248Y-90326118D01*
X119732712Y-90403794D01*
X119919513Y-90443500D01*
X119919515Y-90443500D01*
X120110485Y-90443500D01*
X120110487Y-90443500D01*
X120297288Y-90403794D01*
X120471752Y-90326118D01*
X120626253Y-90213866D01*
X120754040Y-90071944D01*
X120849527Y-89906556D01*
X120908542Y-89724928D01*
X120928504Y-89535000D01*
X120921679Y-89470068D01*
X120934451Y-89400233D01*
X120982953Y-89348386D01*
X121051785Y-89330991D01*
X121119095Y-89353572D01*
X121156108Y-89393900D01*
X121180958Y-89436942D01*
X121269249Y-89534999D01*
X121308747Y-89578866D01*
X121463248Y-89691118D01*
X121637712Y-89768794D01*
X121824513Y-89808500D01*
X121824515Y-89808500D01*
X122015485Y-89808500D01*
X122015487Y-89808500D01*
X122202288Y-89768794D01*
X122376752Y-89691118D01*
X122531253Y-89578866D01*
X122659040Y-89436944D01*
X122754527Y-89271556D01*
X122813542Y-89089928D01*
X122833504Y-88900000D01*
X122813542Y-88710072D01*
X122754527Y-88528444D01*
X122754527Y-88528443D01*
X122659039Y-88363054D01*
X122540864Y-88231807D01*
X122510147Y-88167800D01*
X122508500Y-88147497D01*
X122508500Y-87999500D01*
X122528502Y-87931379D01*
X122582158Y-87884886D01*
X122634500Y-87873500D01*
X123120269Y-87873500D01*
X123123638Y-87873500D01*
X123184201Y-87866989D01*
X123321204Y-87815889D01*
X123438261Y-87728261D01*
X123525889Y-87611204D01*
X123576989Y-87474201D01*
X123583500Y-87413638D01*
X123583500Y-86576362D01*
X123576989Y-86515799D01*
X123535300Y-86404029D01*
X123530236Y-86333216D01*
X123535302Y-86315966D01*
X123576989Y-86204201D01*
X123583500Y-86143638D01*
X123583500Y-85306362D01*
X123576989Y-85245799D01*
X123535300Y-85134029D01*
X123530236Y-85063216D01*
X123535300Y-85045970D01*
X123576989Y-84934201D01*
X123583500Y-84873638D01*
X123583500Y-84709000D01*
X124067000Y-84709000D01*
X124067000Y-84870222D01*
X124067359Y-84876936D01*
X124073505Y-84934093D01*
X124115232Y-85045968D01*
X124120296Y-85116784D01*
X124115232Y-85134032D01*
X124073505Y-85245906D01*
X124067359Y-85303063D01*
X124067000Y-85309777D01*
X124067000Y-85471000D01*
X125521000Y-85471000D01*
X125521000Y-84709000D01*
X126029000Y-84709000D01*
X126029000Y-85471000D01*
X127483000Y-85471000D01*
X127483000Y-85309777D01*
X127482640Y-85303063D01*
X127476494Y-85245906D01*
X127434768Y-85134031D01*
X127429704Y-85063215D01*
X127434768Y-85045967D01*
X127476494Y-84934093D01*
X127482640Y-84876936D01*
X127483000Y-84870222D01*
X127483000Y-84709000D01*
X126029000Y-84709000D01*
X125521000Y-84709000D01*
X124067000Y-84709000D01*
X123583500Y-84709000D01*
X123583500Y-84036362D01*
X123576989Y-83975799D01*
X123535300Y-83864029D01*
X123530236Y-83793217D01*
X123535297Y-83775979D01*
X123576989Y-83664201D01*
X123583500Y-83603638D01*
X124066500Y-83603638D01*
X124073011Y-83664201D01*
X124084036Y-83693761D01*
X124114964Y-83776683D01*
X124120028Y-83847499D01*
X124114964Y-83864746D01*
X124073505Y-83975904D01*
X124067359Y-84033063D01*
X124067000Y-84039777D01*
X124067000Y-84201000D01*
X127483000Y-84201000D01*
X127483000Y-84039777D01*
X127482640Y-84033063D01*
X127476494Y-83975908D01*
X127435034Y-83864748D01*
X127429969Y-83793932D01*
X127435035Y-83776682D01*
X127446763Y-83745238D01*
X127476989Y-83664201D01*
X127483500Y-83603638D01*
X127483500Y-82766362D01*
X127476989Y-82705799D01*
X127435033Y-82593313D01*
X127429969Y-82522501D01*
X127435035Y-82505251D01*
X127476494Y-82394095D01*
X127482640Y-82336936D01*
X127483000Y-82330222D01*
X127483000Y-82169000D01*
X124067000Y-82169000D01*
X124067000Y-82330222D01*
X124067359Y-82336936D01*
X124073505Y-82394093D01*
X124114965Y-82505252D01*
X124120029Y-82576068D01*
X124114965Y-82593316D01*
X124073011Y-82705799D01*
X124066500Y-82766362D01*
X124066500Y-83603638D01*
X123583500Y-83603638D01*
X123583500Y-82766362D01*
X123576989Y-82705799D01*
X123535033Y-82593313D01*
X123529969Y-82522501D01*
X123535035Y-82505251D01*
X123576494Y-82394095D01*
X123582640Y-82336936D01*
X123583000Y-82330222D01*
X123583000Y-82169000D01*
X120167000Y-82169000D01*
X120167000Y-82330222D01*
X120167359Y-82336936D01*
X120173505Y-82394093D01*
X120214965Y-82505252D01*
X120220029Y-82576068D01*
X120214965Y-82593316D01*
X120173011Y-82705799D01*
X120166500Y-82766362D01*
X120166500Y-83603638D01*
X120173011Y-83664201D01*
X120203237Y-83745238D01*
X120214698Y-83775967D01*
X120219762Y-83846782D01*
X120214698Y-83864031D01*
X120173010Y-83975799D01*
X120173011Y-83975799D01*
X120166500Y-84036362D01*
X120166500Y-84873638D01*
X120173011Y-84934201D01*
X120186321Y-84969885D01*
X120214698Y-85045968D01*
X120219762Y-85116784D01*
X120214698Y-85134032D01*
X120197009Y-85181459D01*
X120173011Y-85245799D01*
X120166500Y-85306362D01*
X120166500Y-85309729D01*
X120166500Y-85309730D01*
X120166500Y-85536381D01*
X120146498Y-85604502D01*
X120129595Y-85625477D01*
X119626333Y-86128738D01*
X119610016Y-86141810D01*
X119561370Y-86193613D01*
X119558621Y-86196450D01*
X119541667Y-86213405D01*
X119541660Y-86213412D01*
X119538865Y-86216208D01*
X119536442Y-86219330D01*
X119536426Y-86219349D01*
X119536365Y-86219429D01*
X119528689Y-86228414D01*
X119498414Y-86260655D01*
X119488652Y-86278412D01*
X119477801Y-86294930D01*
X119465385Y-86310937D01*
X119447824Y-86351517D01*
X119442604Y-86362173D01*
X119421304Y-86400918D01*
X119416267Y-86420537D01*
X119409864Y-86439239D01*
X119401818Y-86457833D01*
X119394901Y-86501502D01*
X119392495Y-86513122D01*
X119381500Y-86555947D01*
X119381500Y-86576201D01*
X119379949Y-86595911D01*
X119376779Y-86615920D01*
X119380941Y-86659939D01*
X119381500Y-86671797D01*
X119381500Y-88832473D01*
X119361498Y-88900594D01*
X119349137Y-88916783D01*
X119275958Y-88998057D01*
X119180472Y-89163443D01*
X119121458Y-89345070D01*
X119116326Y-89393900D01*
X119101496Y-89535000D01*
X114539907Y-89535000D01*
X114505889Y-89443796D01*
X114500760Y-89436944D01*
X114418261Y-89326738D01*
X114301205Y-89239111D01*
X114216554Y-89207538D01*
X114164201Y-89188011D01*
X114103638Y-89181500D01*
X111656362Y-89181500D01*
X111653013Y-89181859D01*
X111653013Y-89181860D01*
X111595799Y-89188011D01*
X111458794Y-89239111D01*
X111341738Y-89326738D01*
X111254111Y-89443794D01*
X111220093Y-89535000D01*
X111203011Y-89580799D01*
X111196500Y-89641362D01*
X111196500Y-93238638D01*
X111203011Y-93299201D01*
X111220115Y-93345058D01*
X111254111Y-93436205D01*
X111341738Y-93553261D01*
X111458794Y-93640888D01*
X111458795Y-93640888D01*
X111458796Y-93640889D01*
X111595799Y-93691989D01*
X111656362Y-93698500D01*
X112120500Y-93698500D01*
X112188621Y-93718502D01*
X112235114Y-93772158D01*
X112246500Y-93824500D01*
X112246500Y-94322905D01*
X112226498Y-94391026D01*
X112209595Y-94412000D01*
X111577000Y-95044595D01*
X111514688Y-95078621D01*
X111487905Y-95081500D01*
X111048498Y-95081500D01*
X111046050Y-95081692D01*
X111046041Y-95081693D01*
X111011167Y-95084438D01*
X110851400Y-95130854D01*
X110708189Y-95215549D01*
X110579291Y-95344448D01*
X110575810Y-95340967D01*
X110546498Y-95368307D01*
X110476641Y-95380974D01*
X110411025Y-95353862D01*
X110401865Y-95343291D01*
X110400709Y-95344448D01*
X110271810Y-95215549D01*
X110150878Y-95144030D01*
X110128601Y-95130855D01*
X110128600Y-95130854D01*
X110128599Y-95130854D01*
X109968832Y-95084438D01*
X109933958Y-95081693D01*
X109933950Y-95081692D01*
X109931502Y-95081500D01*
X108773498Y-95081500D01*
X108771050Y-95081692D01*
X108771041Y-95081693D01*
X108736167Y-95084438D01*
X108576400Y-95130854D01*
X108433189Y-95215549D01*
X108315549Y-95333189D01*
X108230854Y-95476400D01*
X108184438Y-95636167D01*
X108184437Y-95636169D01*
X108184438Y-95636169D01*
X108181500Y-95673498D01*
X108181500Y-96106502D01*
X108181692Y-96108950D01*
X108181693Y-96108958D01*
X108184438Y-96143832D01*
X108190728Y-96165482D01*
X108190525Y-96236478D01*
X108151972Y-96296094D01*
X108087307Y-96325403D01*
X108017062Y-96315099D01*
X107980636Y-96289730D01*
X107500405Y-95809499D01*
X107466379Y-95747187D01*
X107463500Y-95720404D01*
X107463500Y-93824500D01*
X107483502Y-93756379D01*
X107537158Y-93709886D01*
X107589500Y-93698500D01*
X108050269Y-93698500D01*
X108053638Y-93698500D01*
X108114201Y-93691989D01*
X108251204Y-93640889D01*
X108368261Y-93553261D01*
X108455889Y-93436204D01*
X108506989Y-93299201D01*
X108513500Y-93238638D01*
X108513500Y-90704593D01*
X108533502Y-90636473D01*
X108550405Y-90615499D01*
X112754488Y-86411416D01*
X112816800Y-86377390D01*
X112843583Y-86374511D01*
X115761636Y-86374511D01*
X115782424Y-86376806D01*
X115785396Y-86376712D01*
X115785398Y-86376713D01*
X115853474Y-86374573D01*
X115857434Y-86374511D01*
X115881383Y-86374511D01*
X115885345Y-86374511D01*
X115889345Y-86374005D01*
X115901188Y-86373072D01*
X115945378Y-86371684D01*
X115964827Y-86366032D01*
X115984187Y-86362023D01*
X116004286Y-86359485D01*
X116045404Y-86343204D01*
X116056606Y-86339368D01*
X116099082Y-86327029D01*
X116116528Y-86316710D01*
X116134269Y-86308020D01*
X116153106Y-86300563D01*
X116188881Y-86274569D01*
X116198792Y-86268059D01*
X116236851Y-86245553D01*
X116251180Y-86231223D01*
X116266208Y-86218388D01*
X116282596Y-86206483D01*
X116310787Y-86172404D01*
X116318757Y-86163645D01*
X116520499Y-85961904D01*
X116582812Y-85927879D01*
X116609595Y-85925000D01*
X117523269Y-85925000D01*
X117526638Y-85925000D01*
X117587201Y-85918489D01*
X117724204Y-85867389D01*
X117841261Y-85779761D01*
X117928889Y-85662704D01*
X117979989Y-85525701D01*
X117986500Y-85465138D01*
X117986500Y-84059862D01*
X117979989Y-83999299D01*
X117928889Y-83862296D01*
X117928888Y-83862294D01*
X117841261Y-83745238D01*
X117724205Y-83657611D01*
X117655702Y-83632061D01*
X117587201Y-83606511D01*
X117526638Y-83600000D01*
X116121362Y-83600000D01*
X116118013Y-83600359D01*
X116118013Y-83600360D01*
X116060799Y-83606511D01*
X115923794Y-83657611D01*
X115806738Y-83745238D01*
X115738294Y-83836670D01*
X115681459Y-83879217D01*
X115610643Y-83884282D01*
X115552541Y-83854276D01*
X115527263Y-83831232D01*
X115344168Y-83717864D01*
X115143359Y-83640071D01*
X114931673Y-83600500D01*
X114716327Y-83600500D01*
X114504640Y-83640071D01*
X114303833Y-83717864D01*
X114201768Y-83781059D01*
X114784481Y-84363772D01*
X114698852Y-84377335D01*
X114585955Y-84434859D01*
X114496359Y-84524455D01*
X114438835Y-84637352D01*
X114425272Y-84722981D01*
X113839834Y-84137543D01*
X113831815Y-84148164D01*
X113735823Y-84340942D01*
X113676891Y-84548069D01*
X113657021Y-84762499D01*
X113676239Y-84969885D01*
X113662608Y-85039561D01*
X113613472Y-85090806D01*
X113550777Y-85107511D01*
X112612843Y-85107511D01*
X112592053Y-85105215D01*
X112520991Y-85107449D01*
X112517033Y-85107511D01*
X112489133Y-85107511D01*
X112485208Y-85108006D01*
X112485187Y-85108008D01*
X112485113Y-85108018D01*
X112473302Y-85108947D01*
X112429098Y-85110336D01*
X112409642Y-85115989D01*
X112390290Y-85119997D01*
X112370189Y-85122537D01*
X112329083Y-85138811D01*
X112317859Y-85142654D01*
X112275394Y-85154992D01*
X112257949Y-85165308D01*
X112240206Y-85174000D01*
X112221373Y-85181457D01*
X112185605Y-85207444D01*
X112175686Y-85213960D01*
X112137625Y-85236469D01*
X112123300Y-85250794D01*
X112108273Y-85263628D01*
X112091883Y-85275536D01*
X112063690Y-85309615D01*
X112055702Y-85318392D01*
X108221731Y-89152362D01*
X108159419Y-89186388D01*
X108119168Y-89188545D01*
X108056988Y-89181860D01*
X108056985Y-89181859D01*
X108053638Y-89181500D01*
X105606362Y-89181500D01*
X105603013Y-89181859D01*
X105603013Y-89181860D01*
X105545799Y-89188011D01*
X105408794Y-89239111D01*
X105291738Y-89326738D01*
X105204111Y-89443794D01*
X105170093Y-89535000D01*
X105153011Y-89580799D01*
X105146500Y-89641362D01*
X105146500Y-93238638D01*
X105153011Y-93299201D01*
X105170115Y-93345058D01*
X105204111Y-93436205D01*
X105291738Y-93553261D01*
X105408794Y-93640888D01*
X105408795Y-93640888D01*
X105408796Y-93640889D01*
X105545799Y-93691989D01*
X105606362Y-93698500D01*
X106070500Y-93698500D01*
X106138621Y-93718502D01*
X106185114Y-93772158D01*
X106196500Y-93824500D01*
X106196499Y-95951147D01*
X106194204Y-95971933D01*
X106196438Y-96042984D01*
X106196500Y-96046943D01*
X106196500Y-96074856D01*
X106196995Y-96078774D01*
X106196997Y-96078806D01*
X106197008Y-96078888D01*
X106197937Y-96090697D01*
X106199326Y-96134892D01*
X106204977Y-96154341D01*
X106208986Y-96173696D01*
X106211525Y-96193794D01*
X106211525Y-96193796D01*
X106211526Y-96193797D01*
X106226271Y-96231040D01*
X106227801Y-96234903D01*
X106231644Y-96246130D01*
X106243980Y-96288590D01*
X106243982Y-96288593D01*
X106252149Y-96302404D01*
X106254294Y-96306030D01*
X106262987Y-96323774D01*
X106265261Y-96329516D01*
X106270449Y-96342619D01*
X106296431Y-96378380D01*
X106302948Y-96388301D01*
X106325458Y-96426363D01*
X106339778Y-96440683D01*
X106352618Y-96455716D01*
X106364526Y-96472105D01*
X106398598Y-96500292D01*
X106407378Y-96508282D01*
X107228071Y-97328975D01*
X107262097Y-97391287D01*
X107257032Y-97462102D01*
X107214485Y-97518938D01*
X107178609Y-97537674D01*
X107057265Y-97577883D01*
X106906344Y-97670972D01*
X106770556Y-97806761D01*
X106767735Y-97803940D01*
X106734126Y-97834152D01*
X106664047Y-97845534D01*
X106598940Y-97817222D01*
X106589639Y-97806483D01*
X106589049Y-97807074D01*
X106453342Y-97671367D01*
X106302522Y-97578340D01*
X106134327Y-97522606D01*
X106033692Y-97512325D01*
X106027303Y-97512000D01*
X105984000Y-97512000D01*
X105984000Y-99978000D01*
X106027303Y-99978000D01*
X106033692Y-99977674D01*
X106134327Y-99967393D01*
X106302522Y-99911659D01*
X106453342Y-99818632D01*
X106589049Y-99682926D01*
X106591945Y-99685822D01*
X106625205Y-99655884D01*
X106695276Y-99644454D01*
X106760403Y-99672721D01*
X106770001Y-99683793D01*
X106770556Y-99683239D01*
X106906344Y-99819027D01*
X106906346Y-99819028D01*
X106906348Y-99819030D01*
X107057262Y-99912115D01*
X107225574Y-99967887D01*
X107301637Y-99975658D01*
X107326253Y-99978173D01*
X107326255Y-99978173D01*
X107329455Y-99978500D01*
X107930544Y-99978499D01*
X108034426Y-99967887D01*
X108091424Y-99949000D01*
X112432000Y-99949000D01*
X112432000Y-99992302D01*
X112432325Y-99998692D01*
X112442606Y-100099327D01*
X112498340Y-100267522D01*
X112591367Y-100418342D01*
X112716657Y-100543632D01*
X112867477Y-100636659D01*
X113035672Y-100692393D01*
X113136307Y-100702674D01*
X113142697Y-100703000D01*
X113411000Y-100703000D01*
X113411000Y-99949000D01*
X113919000Y-99949000D01*
X113919000Y-100703000D01*
X114187303Y-100703000D01*
X114193692Y-100702674D01*
X114294327Y-100692393D01*
X114462522Y-100636659D01*
X114613342Y-100543632D01*
X114738632Y-100418342D01*
X114831659Y-100267522D01*
X114887393Y-100099327D01*
X114897674Y-99998692D01*
X114898000Y-99992302D01*
X114898000Y-99949000D01*
X113919000Y-99949000D01*
X113411000Y-99949000D01*
X112432000Y-99949000D01*
X108091424Y-99949000D01*
X108202738Y-99912115D01*
X108353652Y-99819030D01*
X108479030Y-99693652D01*
X108572115Y-99542738D01*
X108627887Y-99374426D01*
X108638500Y-99270545D01*
X108638499Y-98724145D01*
X108658501Y-98656025D01*
X108712156Y-98609532D01*
X108769452Y-98598243D01*
X108771012Y-98598304D01*
X108773498Y-98598500D01*
X108775985Y-98598500D01*
X109929033Y-98598500D01*
X109931502Y-98598500D01*
X109968831Y-98595562D01*
X110128601Y-98549145D01*
X110271807Y-98464453D01*
X110305394Y-98430865D01*
X110348102Y-98402809D01*
X110374915Y-98392193D01*
X110386117Y-98388357D01*
X110428593Y-98376018D01*
X110446039Y-98365699D01*
X110463775Y-98357011D01*
X110482617Y-98349552D01*
X110482619Y-98349550D01*
X110484949Y-98348628D01*
X110555650Y-98342150D01*
X110618629Y-98374925D01*
X110620425Y-98376686D01*
X110708189Y-98464450D01*
X110708191Y-98464451D01*
X110708193Y-98464453D01*
X110851399Y-98549145D01*
X111011169Y-98595562D01*
X111048498Y-98598500D01*
X111050967Y-98598500D01*
X112204033Y-98598500D01*
X112206502Y-98598500D01*
X112243831Y-98595562D01*
X112403601Y-98549145D01*
X112456377Y-98517933D01*
X112525190Y-98500474D01*
X112592521Y-98522990D01*
X112609609Y-98537292D01*
X112726761Y-98654444D01*
X112723939Y-98657265D01*
X112754139Y-98690844D01*
X112765538Y-98760920D01*
X112737243Y-98826034D01*
X112726481Y-98835358D01*
X112727074Y-98835951D01*
X112591367Y-98971657D01*
X112498340Y-99122477D01*
X112442606Y-99290672D01*
X112432325Y-99391307D01*
X112432000Y-99397697D01*
X112432000Y-99441000D01*
X114898000Y-99441000D01*
X114898000Y-99397697D01*
X114897674Y-99391307D01*
X114887393Y-99290672D01*
X114831659Y-99122477D01*
X114738632Y-98971657D01*
X114602926Y-98835951D01*
X114605821Y-98833055D01*
X114575869Y-98799761D01*
X114564458Y-98729687D01*
X114592744Y-98664569D01*
X114603791Y-98654996D01*
X114603239Y-98654444D01*
X114739027Y-98518655D01*
X114739026Y-98518655D01*
X114739030Y-98518652D01*
X114832115Y-98367738D01*
X114887887Y-98199426D01*
X114898500Y-98095545D01*
X114898499Y-97509593D01*
X114918501Y-97441473D01*
X114935404Y-97420499D01*
X115266903Y-97089000D01*
X116877000Y-97089000D01*
X116877000Y-97132302D01*
X116877325Y-97138692D01*
X116887606Y-97239327D01*
X116943340Y-97407522D01*
X117036367Y-97558342D01*
X117161657Y-97683632D01*
X117312477Y-97776659D01*
X117480672Y-97832393D01*
X117581307Y-97842674D01*
X117587697Y-97843000D01*
X117856000Y-97843000D01*
X117856000Y-97089000D01*
X116877000Y-97089000D01*
X115266903Y-97089000D01*
X115409933Y-96945970D01*
X115958658Y-96397245D01*
X115974980Y-96384169D01*
X115977014Y-96382001D01*
X115977018Y-96382000D01*
X116023661Y-96332328D01*
X116026353Y-96329550D01*
X116046135Y-96309770D01*
X116048613Y-96306574D01*
X116056308Y-96297563D01*
X116086586Y-96265321D01*
X116096342Y-96247571D01*
X116107195Y-96231050D01*
X116119614Y-96215041D01*
X116137175Y-96174454D01*
X116142388Y-96163813D01*
X116163695Y-96125060D01*
X116168733Y-96105434D01*
X116175137Y-96086732D01*
X116178567Y-96078806D01*
X116183181Y-96068145D01*
X116190096Y-96024481D01*
X116192504Y-96012853D01*
X116203500Y-95970030D01*
X116203500Y-95949775D01*
X116205051Y-95930063D01*
X116208220Y-95910057D01*
X116207700Y-95904557D01*
X116221202Y-95834857D01*
X116270244Y-95783521D01*
X116289106Y-95774645D01*
X116366204Y-95745889D01*
X116483261Y-95658261D01*
X116570889Y-95541204D01*
X116601002Y-95460467D01*
X116643549Y-95403632D01*
X116710069Y-95378821D01*
X116719058Y-95378500D01*
X116809075Y-95378500D01*
X116877196Y-95398502D01*
X116923689Y-95452158D01*
X116928675Y-95464856D01*
X116942885Y-95507738D01*
X117035728Y-95658260D01*
X117035972Y-95658655D01*
X117171761Y-95794444D01*
X117168939Y-95797265D01*
X117199139Y-95830844D01*
X117210538Y-95900920D01*
X117182243Y-95966034D01*
X117171481Y-95975358D01*
X117172074Y-95975951D01*
X117036367Y-96111657D01*
X116943340Y-96262477D01*
X116887606Y-96430672D01*
X116877325Y-96531307D01*
X116877000Y-96537697D01*
X116877000Y-96581000D01*
X118238000Y-96581000D01*
X118306121Y-96601002D01*
X118352614Y-96654658D01*
X118364000Y-96707000D01*
X118364000Y-97843000D01*
X118546904Y-97843000D01*
X118615025Y-97863002D01*
X118661518Y-97916658D01*
X118671622Y-97986932D01*
X118642128Y-98051512D01*
X118636004Y-98058090D01*
X118264768Y-98429326D01*
X117895049Y-98799045D01*
X117832737Y-98833070D01*
X117770316Y-98828605D01*
X117770241Y-98828960D01*
X117767688Y-98828417D01*
X117761921Y-98828005D01*
X117757773Y-98826309D01*
X117695107Y-98812989D01*
X117570487Y-98786500D01*
X117379513Y-98786500D01*
X117254978Y-98812970D01*
X117192711Y-98826206D01*
X117018246Y-98903883D01*
X116863747Y-99016133D01*
X116735958Y-99158057D01*
X116640472Y-99323443D01*
X116581458Y-99505070D01*
X116561496Y-99695000D01*
X116581458Y-99884929D01*
X116640472Y-100066556D01*
X116735958Y-100231942D01*
X116829269Y-100335574D01*
X116863747Y-100373866D01*
X117018248Y-100486118D01*
X117192712Y-100563794D01*
X117379513Y-100603500D01*
X117379515Y-100603500D01*
X117570485Y-100603500D01*
X117570487Y-100603500D01*
X117757288Y-100563794D01*
X117931752Y-100486118D01*
X118086253Y-100373866D01*
X118168959Y-100282010D01*
X118191509Y-100266350D01*
X118189736Y-100263910D01*
X118202613Y-100254553D01*
X118202617Y-100254552D01*
X118238397Y-100228554D01*
X118248303Y-100222048D01*
X118286362Y-100199542D01*
X118300691Y-100185212D01*
X118315719Y-100172377D01*
X118332107Y-100160472D01*
X118360303Y-100126386D01*
X118368262Y-100117640D01*
X120275501Y-98210402D01*
X120337811Y-98176379D01*
X120364594Y-98173500D01*
X121720269Y-98173500D01*
X121723638Y-98173500D01*
X121784201Y-98166989D01*
X121921204Y-98115889D01*
X122038261Y-98028261D01*
X122125889Y-97911204D01*
X122176989Y-97774201D01*
X122183500Y-97713638D01*
X122183500Y-96116362D01*
X122176989Y-96055799D01*
X122125889Y-95918796D01*
X122067283Y-95840508D01*
X122042473Y-95773990D01*
X122057564Y-95704615D01*
X122067279Y-95689496D01*
X122125889Y-95611204D01*
X122176989Y-95474201D01*
X122183500Y-95413638D01*
X122183500Y-95374500D01*
X122203502Y-95306379D01*
X122257158Y-95259886D01*
X122309500Y-95248500D01*
X125340500Y-95248500D01*
X125408621Y-95268502D01*
X125455114Y-95322158D01*
X125466500Y-95374500D01*
X125466500Y-96470404D01*
X125446498Y-96538525D01*
X125429595Y-96559499D01*
X123279500Y-98709595D01*
X123217188Y-98743620D01*
X123190405Y-98746500D01*
X121735681Y-98746500D01*
X121714891Y-98744204D01*
X121643829Y-98746438D01*
X121639871Y-98746500D01*
X121611971Y-98746500D01*
X121608046Y-98746995D01*
X121608025Y-98746997D01*
X121607951Y-98747007D01*
X121596140Y-98747936D01*
X121551936Y-98749325D01*
X121532480Y-98754978D01*
X121513128Y-98758986D01*
X121493027Y-98761526D01*
X121451921Y-98777800D01*
X121440697Y-98781643D01*
X121398232Y-98793981D01*
X121380787Y-98804297D01*
X121363044Y-98812989D01*
X121344211Y-98820446D01*
X121308443Y-98846433D01*
X121298524Y-98852949D01*
X121260463Y-98875458D01*
X121246138Y-98889783D01*
X121231111Y-98902617D01*
X121214721Y-98914525D01*
X121186528Y-98948604D01*
X121178540Y-98957381D01*
X119501336Y-100634584D01*
X119485016Y-100647660D01*
X119436370Y-100699462D01*
X119433621Y-100702299D01*
X119416667Y-100719254D01*
X119416660Y-100719261D01*
X119413865Y-100722057D01*
X119411442Y-100725179D01*
X119411426Y-100725198D01*
X119411365Y-100725278D01*
X119403689Y-100734263D01*
X119373414Y-100766504D01*
X119363652Y-100784261D01*
X119352801Y-100800779D01*
X119340385Y-100816786D01*
X119322824Y-100857366D01*
X119317604Y-100868022D01*
X119296304Y-100906767D01*
X119291267Y-100926386D01*
X119284864Y-100945088D01*
X119276818Y-100963682D01*
X119269901Y-101007351D01*
X119267495Y-101018971D01*
X119256500Y-101061796D01*
X119256500Y-101082050D01*
X119254949Y-101101760D01*
X119251779Y-101121769D01*
X119255941Y-101165788D01*
X119256500Y-101177646D01*
X119256500Y-101719593D01*
X119236498Y-101787714D01*
X119182842Y-101834207D01*
X119112568Y-101844311D01*
X119047988Y-101814817D01*
X119044248Y-101811444D01*
X119012189Y-101781339D01*
X119009346Y-101778583D01*
X118992441Y-101761678D01*
X118989631Y-101758868D01*
X118986433Y-101756387D01*
X118977415Y-101748685D01*
X118945179Y-101718413D01*
X118927429Y-101708655D01*
X118910903Y-101697799D01*
X118894904Y-101685389D01*
X118894903Y-101685388D01*
X118854327Y-101667829D01*
X118843669Y-101662607D01*
X118804919Y-101641304D01*
X118785300Y-101636267D01*
X118766595Y-101629863D01*
X118748008Y-101621820D01*
X118704338Y-101614902D01*
X118692721Y-101612496D01*
X118649891Y-101601500D01*
X118649889Y-101601500D01*
X118629639Y-101601500D01*
X118609928Y-101599949D01*
X118589919Y-101596779D01*
X118545898Y-101600941D01*
X118534041Y-101601500D01*
X116972523Y-101601500D01*
X116904402Y-101581498D01*
X116857909Y-101527842D01*
X116852919Y-101515133D01*
X116827116Y-101437264D01*
X116806741Y-101404231D01*
X116734030Y-101286348D01*
X116734028Y-101286346D01*
X116734027Y-101286344D01*
X116608655Y-101160972D01*
X116608652Y-101160970D01*
X116457738Y-101067885D01*
X116289426Y-101012113D01*
X116289423Y-101012112D01*
X116289421Y-101012112D01*
X116188746Y-101001826D01*
X116188725Y-101001824D01*
X116185545Y-101001500D01*
X116182339Y-101001500D01*
X115587661Y-101001500D01*
X115587641Y-101001500D01*
X115584456Y-101001501D01*
X115581279Y-101001825D01*
X115581270Y-101001826D01*
X115480573Y-101012113D01*
X115312262Y-101067885D01*
X115161344Y-101160972D01*
X115025556Y-101296761D01*
X115022735Y-101293940D01*
X114989126Y-101324152D01*
X114919047Y-101335534D01*
X114853940Y-101307222D01*
X114844639Y-101296483D01*
X114844049Y-101297074D01*
X114708342Y-101161367D01*
X114557522Y-101068340D01*
X114389327Y-101012606D01*
X114288692Y-101002325D01*
X114282303Y-101002000D01*
X114239000Y-101002000D01*
X114239000Y-102363000D01*
X114218998Y-102431121D01*
X114165342Y-102477614D01*
X114113000Y-102489000D01*
X112977000Y-102489000D01*
X112977000Y-102525020D01*
X112956998Y-102593141D01*
X112903342Y-102639634D01*
X112851000Y-102651020D01*
X112699334Y-102651020D01*
X112678544Y-102648724D01*
X112607482Y-102650958D01*
X112603524Y-102651020D01*
X112575624Y-102651020D01*
X112571699Y-102651515D01*
X112571678Y-102651517D01*
X112571604Y-102651527D01*
X112559793Y-102652456D01*
X112515588Y-102653845D01*
X112496131Y-102659498D01*
X112476781Y-102663506D01*
X112456682Y-102666045D01*
X112415573Y-102682322D01*
X112404345Y-102686166D01*
X112361888Y-102698501D01*
X112344444Y-102708817D01*
X112326697Y-102717510D01*
X112307864Y-102724966D01*
X112272091Y-102750957D01*
X112262173Y-102757471D01*
X112224119Y-102779977D01*
X112209792Y-102794303D01*
X112194763Y-102807138D01*
X112178374Y-102819045D01*
X112150181Y-102853124D01*
X112142193Y-102861901D01*
X108163595Y-106840499D01*
X108101283Y-106874525D01*
X108030468Y-106869460D01*
X107973632Y-106826913D01*
X107948821Y-106760393D01*
X107948500Y-106751404D01*
X107948500Y-105136353D01*
X107950795Y-105115563D01*
X107948562Y-105044513D01*
X107948500Y-105040554D01*
X107948500Y-105016607D01*
X107948500Y-105016606D01*
X107948500Y-105012644D01*
X107947994Y-105008647D01*
X107947061Y-104996797D01*
X107945673Y-104952610D01*
X107940020Y-104933156D01*
X107936012Y-104913798D01*
X107933474Y-104893703D01*
X107917190Y-104852577D01*
X107913359Y-104841388D01*
X107901018Y-104798907D01*
X107890704Y-104781468D01*
X107882008Y-104763716D01*
X107881998Y-104763692D01*
X107874552Y-104744883D01*
X107861476Y-104726886D01*
X107837618Y-104660021D01*
X107853697Y-104590869D01*
X107904610Y-104541388D01*
X107974192Y-104527287D01*
X108004678Y-104537364D01*
X108005541Y-104534760D01*
X108180788Y-104592830D01*
X108277143Y-104602674D01*
X108283531Y-104602999D01*
X108330998Y-104602999D01*
X108330999Y-104602998D01*
X108331000Y-103911500D01*
X108839000Y-103911500D01*
X108839000Y-104602999D01*
X108886465Y-104602999D01*
X108892857Y-104602673D01*
X108989212Y-104592830D01*
X109150479Y-104539392D01*
X109295077Y-104450202D01*
X109415202Y-104330077D01*
X109504391Y-104185480D01*
X109557830Y-104024211D01*
X109567674Y-103927857D01*
X109568000Y-103921467D01*
X109568000Y-103911500D01*
X108839000Y-103911500D01*
X108331000Y-103911500D01*
X107602001Y-103911500D01*
X107602001Y-103921465D01*
X107602326Y-103927857D01*
X107612169Y-104024212D01*
X107657824Y-104161992D01*
X107660264Y-104232947D01*
X107623955Y-104293957D01*
X107560426Y-104325652D01*
X107489846Y-104317969D01*
X107449124Y-104290719D01*
X107290404Y-104131999D01*
X107256378Y-104069687D01*
X107253499Y-104042904D01*
X107253499Y-103472661D01*
X107253499Y-103469456D01*
X107242887Y-103365574D01*
X107187115Y-103197262D01*
X107094030Y-103046348D01*
X107094028Y-103046346D01*
X107094027Y-103046344D01*
X107006777Y-102959094D01*
X106972751Y-102896782D01*
X106977816Y-102825967D01*
X107006773Y-102780908D01*
X107094030Y-102693652D01*
X107118583Y-102653846D01*
X107120430Y-102650852D01*
X107173216Y-102603375D01*
X107227670Y-102591000D01*
X107582681Y-102591000D01*
X107650802Y-102611002D01*
X107689921Y-102650852D01*
X107725635Y-102708752D01*
X107754400Y-102755387D01*
X107780271Y-102781258D01*
X107814296Y-102843568D01*
X107809232Y-102914384D01*
X107780273Y-102959447D01*
X107754796Y-102984924D01*
X107665608Y-103129519D01*
X107612169Y-103290788D01*
X107602325Y-103387142D01*
X107602000Y-103393532D01*
X107602000Y-103403500D01*
X109567999Y-103403500D01*
X109567999Y-103393534D01*
X109567673Y-103387142D01*
X109557830Y-103290787D01*
X109504392Y-103129520D01*
X109415202Y-102984922D01*
X109389728Y-102959448D01*
X109355702Y-102897136D01*
X109360767Y-102826321D01*
X109389726Y-102781260D01*
X109415600Y-102755387D01*
X109504849Y-102610692D01*
X109558324Y-102449314D01*
X109568500Y-102349711D01*
X109568499Y-101981000D01*
X112977000Y-101981000D01*
X113731000Y-101981000D01*
X113731000Y-101002000D01*
X113687697Y-101002000D01*
X113681307Y-101002325D01*
X113580672Y-101012606D01*
X113412477Y-101068340D01*
X113261657Y-101161367D01*
X113136367Y-101286657D01*
X113043340Y-101437477D01*
X112987606Y-101605672D01*
X112977325Y-101706307D01*
X112977000Y-101712697D01*
X112977000Y-101981000D01*
X109568499Y-101981000D01*
X109568499Y-101815290D01*
X109558324Y-101715686D01*
X109504849Y-101554308D01*
X109415600Y-101409613D01*
X109415598Y-101409611D01*
X109415597Y-101409609D01*
X109295390Y-101289402D01*
X109249745Y-101261248D01*
X109223039Y-101244775D01*
X109150689Y-101200149D01*
X108989313Y-101146675D01*
X108892912Y-101136826D01*
X108892891Y-101136824D01*
X108889711Y-101136500D01*
X108886505Y-101136500D01*
X108283495Y-101136500D01*
X108283475Y-101136500D01*
X108280290Y-101136501D01*
X108277111Y-101136825D01*
X108277106Y-101136826D01*
X108180696Y-101146675D01*
X108180686Y-101146676D01*
X108019308Y-101200151D01*
X107874613Y-101289400D01*
X107874612Y-101289400D01*
X107862078Y-101297132D01*
X107861185Y-101295685D01*
X107814605Y-101321121D01*
X107787822Y-101324000D01*
X107227670Y-101324000D01*
X107159549Y-101303998D01*
X107120430Y-101264148D01*
X107094028Y-101221345D01*
X106968655Y-101095972D01*
X106962165Y-101091969D01*
X106817738Y-101002885D01*
X106649426Y-100947113D01*
X106649423Y-100947112D01*
X106649421Y-100947112D01*
X106548746Y-100936826D01*
X106548725Y-100936824D01*
X106545545Y-100936500D01*
X106542339Y-100936500D01*
X105547661Y-100936500D01*
X105547641Y-100936500D01*
X105544456Y-100936501D01*
X105541279Y-100936825D01*
X105541270Y-100936826D01*
X105440573Y-100947113D01*
X105272262Y-101002885D01*
X105121346Y-101095970D01*
X104990094Y-101227223D01*
X104927782Y-101261248D01*
X104856966Y-101256183D01*
X104800131Y-101213636D01*
X104775320Y-101147115D01*
X104775000Y-101138155D01*
X104774999Y-99891164D01*
X104795002Y-99823044D01*
X104848658Y-99776551D01*
X104918932Y-99766448D01*
X104983513Y-99795941D01*
X104990095Y-99802070D01*
X105006657Y-99818632D01*
X105157477Y-99911659D01*
X105325672Y-99967393D01*
X105426307Y-99977674D01*
X105432697Y-99978000D01*
X105476000Y-99978000D01*
X105476000Y-97512000D01*
X105432697Y-97512000D01*
X105426307Y-97512325D01*
X105325672Y-97522606D01*
X105157477Y-97578340D01*
X105006657Y-97671367D01*
X104990095Y-97687930D01*
X104927783Y-97721956D01*
X104856968Y-97716891D01*
X104800132Y-97674344D01*
X104775321Y-97607824D01*
X104775000Y-97598835D01*
X104775000Y-80771999D01*
X105658592Y-80771999D01*
X105678198Y-81033631D01*
X105736580Y-81289417D01*
X105819141Y-81499777D01*
X105832432Y-81533643D01*
X105963614Y-81760857D01*
X106127195Y-81965981D01*
X106319521Y-82144433D01*
X106536296Y-82292228D01*
X106629133Y-82336936D01*
X106772676Y-82406063D01*
X106844637Y-82428259D01*
X107023385Y-82483396D01*
X107282818Y-82522500D01*
X107282820Y-82522500D01*
X107545180Y-82522500D01*
X107545182Y-82522500D01*
X107804615Y-82483396D01*
X108055323Y-82406063D01*
X108291704Y-82292228D01*
X108508479Y-82144433D01*
X108700805Y-81965981D01*
X108864386Y-81760857D01*
X108922038Y-81661000D01*
X120167000Y-81661000D01*
X121621000Y-81661000D01*
X121621000Y-81037000D01*
X122129000Y-81037000D01*
X122129000Y-81661000D01*
X123583000Y-81661000D01*
X124067000Y-81661000D01*
X125521000Y-81661000D01*
X125521000Y-81037000D01*
X126029000Y-81037000D01*
X126029000Y-81661000D01*
X127483000Y-81661000D01*
X127483000Y-81499777D01*
X127482640Y-81493063D01*
X127476494Y-81435906D01*
X127425445Y-81299037D01*
X127337904Y-81182095D01*
X127220962Y-81094554D01*
X127084093Y-81043505D01*
X127026936Y-81037359D01*
X127020223Y-81037000D01*
X126029000Y-81037000D01*
X125521000Y-81037000D01*
X124529777Y-81037000D01*
X124523063Y-81037359D01*
X124465906Y-81043505D01*
X124329037Y-81094554D01*
X124212095Y-81182095D01*
X124124554Y-81299037D01*
X124073505Y-81435906D01*
X124067359Y-81493063D01*
X124067000Y-81499777D01*
X124067000Y-81661000D01*
X123583000Y-81661000D01*
X123583000Y-81499777D01*
X123582640Y-81493063D01*
X123576494Y-81435906D01*
X123525445Y-81299037D01*
X123437904Y-81182095D01*
X123320962Y-81094554D01*
X123184093Y-81043505D01*
X123126936Y-81037359D01*
X123120223Y-81037000D01*
X122129000Y-81037000D01*
X121621000Y-81037000D01*
X120629777Y-81037000D01*
X120623063Y-81037359D01*
X120565906Y-81043505D01*
X120429037Y-81094554D01*
X120312095Y-81182095D01*
X120224554Y-81299037D01*
X120173505Y-81435906D01*
X120167359Y-81493063D01*
X120167000Y-81499777D01*
X120167000Y-81661000D01*
X108922038Y-81661000D01*
X108995568Y-81533643D01*
X109091420Y-81289416D01*
X109149802Y-81033630D01*
X109169408Y-80772000D01*
X109149802Y-80510370D01*
X109091420Y-80254584D01*
X108995568Y-80010357D01*
X108864386Y-79783143D01*
X108700805Y-79578019D01*
X108508479Y-79399567D01*
X108508476Y-79399565D01*
X108508474Y-79399563D01*
X108291704Y-79251772D01*
X108055323Y-79137936D01*
X107804618Y-79060605D01*
X107804615Y-79060604D01*
X107545182Y-79021500D01*
X107282818Y-79021500D01*
X107023385Y-79060604D01*
X107023382Y-79060604D01*
X107023381Y-79060605D01*
X106772676Y-79137936D01*
X106536295Y-79251772D01*
X106319525Y-79399563D01*
X106319519Y-79399567D01*
X106319521Y-79399567D01*
X106127195Y-79578019D01*
X105963614Y-79783143D01*
X105963612Y-79783146D01*
X105832432Y-80010356D01*
X105736580Y-80254582D01*
X105678198Y-80510368D01*
X105658592Y-80771999D01*
X104775000Y-80771999D01*
X104775000Y-78241500D01*
X104795002Y-78173379D01*
X104848658Y-78126886D01*
X104901000Y-78115500D01*
X130683500Y-78115500D01*
X130751621Y-78135502D01*
G37*
%TD.AperFunction*%
%TA.AperFunction,Conductor*%
G36*
X130727532Y-95009317D02*
G01*
X130784368Y-95051864D01*
X130809179Y-95118384D01*
X130809500Y-95127373D01*
X130809500Y-123063500D01*
X130789498Y-123131621D01*
X130735842Y-123178114D01*
X130683500Y-123189500D01*
X123068766Y-123189500D01*
X123000645Y-123169498D01*
X122954152Y-123115842D01*
X122944048Y-123045568D01*
X122973542Y-122980988D01*
X122979671Y-122974405D01*
X123573114Y-122380962D01*
X124227973Y-121726102D01*
X124244294Y-121713028D01*
X124246329Y-121710860D01*
X124246333Y-121710858D01*
X124292991Y-121661170D01*
X124295683Y-121658392D01*
X124315449Y-121638628D01*
X124317916Y-121635446D01*
X124325623Y-121626420D01*
X124355901Y-121594179D01*
X124365658Y-121576428D01*
X124376514Y-121559901D01*
X124388928Y-121543899D01*
X124406487Y-121503319D01*
X124411707Y-121492667D01*
X124433009Y-121453919D01*
X124433010Y-121453918D01*
X124438047Y-121434297D01*
X124444453Y-121415588D01*
X124447638Y-121408228D01*
X124452496Y-121397003D01*
X124459411Y-121353335D01*
X124461819Y-121341711D01*
X124472815Y-121298887D01*
X124472815Y-121278633D01*
X124474366Y-121258923D01*
X124474858Y-121255814D01*
X124477535Y-121238915D01*
X124473373Y-121194893D01*
X124472814Y-121183034D01*
X124472814Y-119888000D01*
X125752592Y-119888000D01*
X125772198Y-120149631D01*
X125830580Y-120405417D01*
X125891248Y-120559996D01*
X125926432Y-120649643D01*
X126057614Y-120876857D01*
X126221195Y-121081981D01*
X126413521Y-121260433D01*
X126413523Y-121260434D01*
X126413525Y-121260436D01*
X126469924Y-121298888D01*
X126630296Y-121408228D01*
X126752841Y-121467242D01*
X126866676Y-121522063D01*
X126937464Y-121543898D01*
X127117385Y-121599396D01*
X127376818Y-121638500D01*
X127376820Y-121638500D01*
X127639180Y-121638500D01*
X127639182Y-121638500D01*
X127898615Y-121599396D01*
X128149323Y-121522063D01*
X128385704Y-121408228D01*
X128602479Y-121260433D01*
X128794805Y-121081981D01*
X128958386Y-120876857D01*
X129089568Y-120649643D01*
X129185420Y-120405416D01*
X129243802Y-120149630D01*
X129263408Y-119888000D01*
X129243802Y-119626370D01*
X129185420Y-119370584D01*
X129089568Y-119126357D01*
X128958386Y-118899143D01*
X128794805Y-118694019D01*
X128602479Y-118515567D01*
X128602476Y-118515565D01*
X128602474Y-118515563D01*
X128385704Y-118367772D01*
X128149323Y-118253936D01*
X127898618Y-118176605D01*
X127898615Y-118176604D01*
X127639182Y-118137500D01*
X127376818Y-118137500D01*
X127117385Y-118176604D01*
X127117382Y-118176604D01*
X127117381Y-118176605D01*
X126866676Y-118253936D01*
X126630295Y-118367772D01*
X126413525Y-118515563D01*
X126377885Y-118548632D01*
X126221195Y-118694019D01*
X126069306Y-118884482D01*
X126057612Y-118899146D01*
X125926432Y-119126356D01*
X125830580Y-119370582D01*
X125772198Y-119626368D01*
X125752592Y-119888000D01*
X124472814Y-119888000D01*
X124472815Y-117734000D01*
X124492817Y-117665879D01*
X124546473Y-117619386D01*
X124598815Y-117608000D01*
X124931000Y-117608000D01*
X124931000Y-116554000D01*
X125439000Y-116554000D01*
X125439000Y-117608000D01*
X125930223Y-117608000D01*
X125936936Y-117607640D01*
X125994093Y-117601494D01*
X126130962Y-117550445D01*
X126247904Y-117462904D01*
X126335445Y-117345962D01*
X126388274Y-117204322D01*
X126430820Y-117147486D01*
X126497341Y-117122675D01*
X126566715Y-117137766D01*
X126578310Y-117144938D01*
X126717680Y-117241943D01*
X126896732Y-117318780D01*
X127087581Y-117358000D01*
X127381000Y-117358000D01*
X127381000Y-116654000D01*
X127889000Y-116654000D01*
X127889000Y-117358000D01*
X128130390Y-117358000D01*
X128136769Y-117357676D01*
X128278843Y-117343228D01*
X128464737Y-117284903D01*
X128635100Y-117190345D01*
X128782931Y-117063435D01*
X128902194Y-116909360D01*
X128987998Y-116734436D01*
X129008826Y-116654000D01*
X127889000Y-116654000D01*
X127381000Y-116654000D01*
X126313000Y-116654000D01*
X126244879Y-116633998D01*
X126198386Y-116580342D01*
X126194227Y-116561226D01*
X126187001Y-116554000D01*
X125439000Y-116554000D01*
X124931000Y-116554000D01*
X124931000Y-116400000D01*
X127030102Y-116400000D01*
X127049505Y-116497545D01*
X127104760Y-116580240D01*
X127187455Y-116635495D01*
X127260376Y-116650000D01*
X128009624Y-116650000D01*
X128082545Y-116635495D01*
X128165240Y-116580240D01*
X128220495Y-116497545D01*
X128239898Y-116400000D01*
X128220495Y-116302455D01*
X128165240Y-116219760D01*
X128082545Y-116164505D01*
X128009624Y-116150000D01*
X127260376Y-116150000D01*
X127187455Y-116164505D01*
X127104760Y-116219760D01*
X127049505Y-116302455D01*
X127030102Y-116400000D01*
X124931000Y-116400000D01*
X124931000Y-116172000D01*
X124951002Y-116103879D01*
X125004658Y-116057386D01*
X125057000Y-116046000D01*
X126307000Y-116046000D01*
X126375121Y-116066002D01*
X126421614Y-116119658D01*
X126425772Y-116138773D01*
X126432999Y-116146000D01*
X127381000Y-116146000D01*
X127381000Y-114554000D01*
X127889000Y-114554000D01*
X127889000Y-116146000D01*
X129012520Y-116146000D01*
X128949533Y-115975926D01*
X128855928Y-115825753D01*
X128836869Y-115757363D01*
X128857810Y-115689525D01*
X128887349Y-115658234D01*
X128947905Y-115612903D01*
X129035445Y-115495962D01*
X129086494Y-115359093D01*
X129092640Y-115301936D01*
X129093000Y-115295222D01*
X129093000Y-114554000D01*
X127889000Y-114554000D01*
X127381000Y-114554000D01*
X127381000Y-112154000D01*
X127889000Y-112154000D01*
X127889000Y-114046000D01*
X129093000Y-114046000D01*
X129093000Y-113304777D01*
X129092640Y-113298063D01*
X129086494Y-113240908D01*
X129050362Y-113144033D01*
X129045297Y-113073217D01*
X129050362Y-113055967D01*
X129086494Y-112959091D01*
X129092640Y-112901936D01*
X129093000Y-112895222D01*
X129093000Y-112154000D01*
X127889000Y-112154000D01*
X127381000Y-112154000D01*
X126263000Y-112154000D01*
X126194879Y-112133998D01*
X126148386Y-112080342D01*
X126137000Y-112028000D01*
X126137000Y-111999999D01*
X126133211Y-111996210D01*
X126077997Y-111979998D01*
X126045249Y-111949508D01*
X126031697Y-111931405D01*
X125998261Y-111886739D01*
X125998262Y-111886739D01*
X125998260Y-111886737D01*
X125918284Y-111826868D01*
X125875737Y-111770032D01*
X125870673Y-111699217D01*
X125904698Y-111636904D01*
X125967010Y-111602879D01*
X125993793Y-111600000D01*
X126084809Y-111600000D01*
X126152930Y-111620002D01*
X126173904Y-111636905D01*
X126182999Y-111646000D01*
X127381000Y-111646000D01*
X127381000Y-110054000D01*
X127889000Y-110054000D01*
X127889000Y-111646000D01*
X129093000Y-111646000D01*
X129093000Y-110904777D01*
X129092640Y-110898063D01*
X129086494Y-110840906D01*
X129035445Y-110704037D01*
X128947904Y-110587095D01*
X128885359Y-110540275D01*
X128842812Y-110483440D01*
X128837747Y-110412624D01*
X128861231Y-110362281D01*
X128902194Y-110309360D01*
X128987998Y-110134436D01*
X129008826Y-110054000D01*
X127889000Y-110054000D01*
X127381000Y-110054000D01*
X126432999Y-110054000D01*
X126422192Y-110064806D01*
X126412998Y-110096121D01*
X126359342Y-110142614D01*
X126307000Y-110154000D01*
X123977000Y-110154000D01*
X123951404Y-110179596D01*
X123889091Y-110213621D01*
X123862309Y-110216500D01*
X123729512Y-110216500D01*
X123663940Y-110230437D01*
X123593150Y-110225034D01*
X123536518Y-110182217D01*
X123512823Y-110123636D01*
X123501316Y-110036229D01*
X123502187Y-110036114D01*
X123496550Y-109983674D01*
X123528330Y-109920187D01*
X123531424Y-109916979D01*
X123648403Y-109800000D01*
X127030102Y-109800000D01*
X127049505Y-109897545D01*
X127104760Y-109980240D01*
X127187455Y-110035495D01*
X127260376Y-110050000D01*
X128009624Y-110050000D01*
X128082545Y-110035495D01*
X128165240Y-109980240D01*
X128220495Y-109897545D01*
X128239898Y-109800000D01*
X128220495Y-109702455D01*
X128165240Y-109619760D01*
X128082545Y-109564505D01*
X128009624Y-109550000D01*
X127260376Y-109550000D01*
X127187455Y-109564505D01*
X127104760Y-109619760D01*
X127049505Y-109702455D01*
X127030102Y-109800000D01*
X123648403Y-109800000D01*
X123800609Y-109647794D01*
X123862918Y-109613772D01*
X123933733Y-109618836D01*
X123976000Y-109646000D01*
X124931000Y-109646000D01*
X124931000Y-108591999D01*
X124914842Y-108575841D01*
X124901752Y-108571998D01*
X124855259Y-108518342D01*
X124845155Y-108448068D01*
X124874649Y-108383488D01*
X124880778Y-108376905D01*
X125004444Y-108253239D01*
X125007266Y-108256061D01*
X125040826Y-108225869D01*
X125110900Y-108214458D01*
X125176019Y-108242744D01*
X125185356Y-108253520D01*
X125185951Y-108252926D01*
X125321658Y-108388633D01*
X125384388Y-108427325D01*
X125431867Y-108480110D01*
X125443270Y-108550185D01*
X125439000Y-108560012D01*
X125439000Y-109646000D01*
X126187001Y-109646000D01*
X126197807Y-109635193D01*
X126207002Y-109603879D01*
X126260658Y-109557386D01*
X126313000Y-109546000D01*
X127381000Y-109546000D01*
X127381000Y-108842000D01*
X127889000Y-108842000D01*
X127889000Y-109546000D01*
X129012520Y-109546000D01*
X128949533Y-109375926D01*
X128846469Y-109210578D01*
X128712231Y-109069359D01*
X128552319Y-108958056D01*
X128373267Y-108881219D01*
X128182419Y-108842000D01*
X127889000Y-108842000D01*
X127381000Y-108842000D01*
X127139610Y-108842000D01*
X127133230Y-108842323D01*
X126991156Y-108856771D01*
X126805262Y-108915096D01*
X126634902Y-109009652D01*
X126589059Y-109049008D01*
X126524343Y-109078203D01*
X126454116Y-109067775D01*
X126400675Y-109021036D01*
X126388930Y-108997436D01*
X126335445Y-108854037D01*
X126256735Y-108748893D01*
X126231924Y-108682373D01*
X126247015Y-108612999D01*
X126297217Y-108562797D01*
X126351142Y-108547570D01*
X126345508Y-108548000D01*
X126449327Y-108537393D01*
X126617522Y-108481659D01*
X126768342Y-108388632D01*
X126893632Y-108263342D01*
X126986659Y-108112522D01*
X127042393Y-107944327D01*
X127052674Y-107843692D01*
X127053000Y-107837302D01*
X127053000Y-107569000D01*
X125917000Y-107569000D01*
X125848879Y-107548998D01*
X125802386Y-107495342D01*
X125791000Y-107443000D01*
X125791000Y-106082000D01*
X126299000Y-106082000D01*
X126299000Y-107061000D01*
X127053000Y-107061000D01*
X127053000Y-106792697D01*
X127052674Y-106786307D01*
X127042393Y-106685672D01*
X126986659Y-106517477D01*
X126893632Y-106366657D01*
X126768342Y-106241367D01*
X126617522Y-106148340D01*
X126449327Y-106092606D01*
X126348692Y-106082325D01*
X126342303Y-106082000D01*
X126299000Y-106082000D01*
X125791000Y-106082000D01*
X125747697Y-106082000D01*
X125741307Y-106082325D01*
X125640672Y-106092606D01*
X125472477Y-106148340D01*
X125321657Y-106241367D01*
X125185951Y-106377074D01*
X125183055Y-106374178D01*
X125149741Y-106404140D01*
X125079665Y-106415538D01*
X125014552Y-106387241D01*
X125004994Y-106376210D01*
X125004444Y-106376761D01*
X124868655Y-106240972D01*
X124868652Y-106240970D01*
X124717738Y-106147885D01*
X124549426Y-106092113D01*
X124549423Y-106092112D01*
X124549421Y-106092112D01*
X124448746Y-106081826D01*
X124448725Y-106081824D01*
X124445545Y-106081500D01*
X124442339Y-106081500D01*
X123847661Y-106081500D01*
X123847641Y-106081500D01*
X123844456Y-106081501D01*
X123841279Y-106081825D01*
X123841270Y-106081826D01*
X123740573Y-106092113D01*
X123572262Y-106147885D01*
X123421344Y-106240972D01*
X123295972Y-106366344D01*
X123202883Y-106517264D01*
X123177081Y-106595133D01*
X123136668Y-106653504D01*
X123071111Y-106680760D01*
X123057477Y-106681500D01*
X121919595Y-106681500D01*
X121851474Y-106661498D01*
X121830500Y-106644595D01*
X121083777Y-105897872D01*
X121049751Y-105835560D01*
X121054816Y-105764745D01*
X121097363Y-105707909D01*
X121163883Y-105683098D01*
X121176270Y-105683955D01*
X121176270Y-105683500D01*
X121380485Y-105683500D01*
X121380487Y-105683500D01*
X121567288Y-105643794D01*
X121741752Y-105566118D01*
X121896253Y-105453866D01*
X122024040Y-105311944D01*
X122119527Y-105146556D01*
X122178542Y-104964928D01*
X122195907Y-104799702D01*
X122222920Y-104734048D01*
X122232113Y-104723789D01*
X124355946Y-102599957D01*
X124418256Y-102565933D01*
X124489072Y-102570998D01*
X124545907Y-102613545D01*
X124561448Y-102640836D01*
X124622330Y-102787819D01*
X124717784Y-102912215D01*
X124842180Y-103007669D01*
X124987044Y-103067673D01*
X125060573Y-103077353D01*
X125125501Y-103106075D01*
X125152570Y-103138117D01*
X125154281Y-103141009D01*
X125162987Y-103158774D01*
X125170448Y-103177617D01*
X125170449Y-103177619D01*
X125196431Y-103213380D01*
X125202948Y-103223301D01*
X125225458Y-103261363D01*
X125239778Y-103275683D01*
X125252618Y-103290716D01*
X125264526Y-103307105D01*
X125298598Y-103335292D01*
X125307378Y-103343282D01*
X126687877Y-104723782D01*
X126721903Y-104786094D01*
X126724092Y-104799706D01*
X126741458Y-104964929D01*
X126800472Y-105146556D01*
X126895958Y-105311942D01*
X126895960Y-105311944D01*
X127023747Y-105453866D01*
X127178248Y-105566118D01*
X127352712Y-105643794D01*
X127539513Y-105683500D01*
X127539515Y-105683500D01*
X127730485Y-105683500D01*
X127730487Y-105683500D01*
X127917288Y-105643794D01*
X128091752Y-105566118D01*
X128246253Y-105453866D01*
X128374040Y-105311944D01*
X128469527Y-105146556D01*
X128528542Y-104964928D01*
X128548504Y-104775000D01*
X128528542Y-104585072D01*
X128480542Y-104437344D01*
X128469527Y-104403443D01*
X128374041Y-104238057D01*
X128246252Y-104096133D01*
X128091753Y-103983883D01*
X128091752Y-103983882D01*
X127917288Y-103906206D01*
X127730487Y-103866500D01*
X127730485Y-103866500D01*
X127674595Y-103866500D01*
X127606474Y-103846498D01*
X127585499Y-103829595D01*
X126788180Y-103032275D01*
X126754155Y-102969963D01*
X126759220Y-102899147D01*
X126777314Y-102866475D01*
X126837669Y-102787819D01*
X126897673Y-102642955D01*
X126904243Y-102593054D01*
X126932965Y-102528127D01*
X126992231Y-102489035D01*
X127029165Y-102483500D01*
X127936147Y-102483500D01*
X127956935Y-102485795D01*
X127959907Y-102485701D01*
X127959909Y-102485702D01*
X128027985Y-102483562D01*
X128031945Y-102483500D01*
X128055894Y-102483500D01*
X128059856Y-102483500D01*
X128063856Y-102482994D01*
X128075699Y-102482061D01*
X128119889Y-102480673D01*
X128139338Y-102475021D01*
X128158698Y-102471012D01*
X128178797Y-102468474D01*
X128219915Y-102452193D01*
X128231117Y-102448357D01*
X128273593Y-102436018D01*
X128291039Y-102425699D01*
X128308780Y-102417009D01*
X128327617Y-102409552D01*
X128363392Y-102383558D01*
X128373303Y-102377048D01*
X128411362Y-102354542D01*
X128425691Y-102340212D01*
X128440719Y-102327377D01*
X128457107Y-102315472D01*
X128485303Y-102281386D01*
X128493272Y-102272630D01*
X128658658Y-102107244D01*
X128674979Y-102094170D01*
X128677014Y-102092002D01*
X128677018Y-102092000D01*
X128723676Y-102042312D01*
X128726368Y-102039534D01*
X128746134Y-102019770D01*
X128748601Y-102016588D01*
X128756308Y-102007562D01*
X128786586Y-101975321D01*
X128796343Y-101957570D01*
X128807199Y-101941043D01*
X128819613Y-101925041D01*
X128837172Y-101884461D01*
X128842392Y-101873809D01*
X128858609Y-101844311D01*
X128863695Y-101835060D01*
X128868732Y-101815439D01*
X128875138Y-101796730D01*
X128883181Y-101778145D01*
X128890096Y-101734476D01*
X128892496Y-101722881D01*
X128903500Y-101680030D01*
X128903500Y-101659769D01*
X128905051Y-101640058D01*
X128908219Y-101620057D01*
X128906318Y-101599949D01*
X128904059Y-101576045D01*
X128903500Y-101564188D01*
X128903500Y-99778853D01*
X128905795Y-99758062D01*
X128903562Y-99687000D01*
X128903500Y-99683042D01*
X128903500Y-99659108D01*
X128903500Y-99655144D01*
X128902995Y-99651152D01*
X128902062Y-99639306D01*
X128901000Y-99605499D01*
X128900674Y-99595111D01*
X128895019Y-99575647D01*
X128891013Y-99556307D01*
X128888474Y-99536203D01*
X128872195Y-99495087D01*
X128868356Y-99483872D01*
X128867222Y-99479970D01*
X128856019Y-99441407D01*
X128845703Y-99423964D01*
X128837007Y-99406214D01*
X128829552Y-99387383D01*
X128803554Y-99351600D01*
X128797058Y-99341710D01*
X128774542Y-99303638D01*
X128760212Y-99289308D01*
X128747378Y-99274281D01*
X128735472Y-99257893D01*
X128735471Y-99257892D01*
X128701400Y-99229705D01*
X128692621Y-99221717D01*
X128142242Y-98671337D01*
X128129169Y-98655019D01*
X128105087Y-98632405D01*
X128077347Y-98606355D01*
X128074505Y-98603600D01*
X128057574Y-98586669D01*
X128054770Y-98583865D01*
X128051575Y-98581386D01*
X128042554Y-98573682D01*
X128010320Y-98543413D01*
X127992567Y-98533653D01*
X127976041Y-98522797D01*
X127960041Y-98510386D01*
X127919466Y-98492828D01*
X127908804Y-98487604D01*
X127870063Y-98466305D01*
X127856313Y-98462775D01*
X127850437Y-98461266D01*
X127831731Y-98454862D01*
X127813145Y-98446819D01*
X127769475Y-98439902D01*
X127757853Y-98437495D01*
X127715030Y-98426500D01*
X127715029Y-98426500D01*
X127694776Y-98426500D01*
X127675066Y-98424949D01*
X127655057Y-98421779D01*
X127611039Y-98425941D01*
X127599181Y-98426500D01*
X125813854Y-98426500D01*
X125793064Y-98424204D01*
X125722002Y-98426438D01*
X125718044Y-98426500D01*
X125690144Y-98426500D01*
X125686219Y-98426995D01*
X125686198Y-98426997D01*
X125686124Y-98427007D01*
X125674309Y-98427936D01*
X125660621Y-98428366D01*
X125591906Y-98410513D01*
X125543751Y-98358343D01*
X125531446Y-98288421D01*
X125558897Y-98222946D01*
X125567546Y-98213358D01*
X126720502Y-97060402D01*
X126782812Y-97026379D01*
X126809595Y-97023500D01*
X128020269Y-97023500D01*
X128023638Y-97023500D01*
X128084201Y-97016989D01*
X128221204Y-96965889D01*
X128338261Y-96878261D01*
X128425889Y-96761204D01*
X128476989Y-96624201D01*
X128483500Y-96563638D01*
X128483500Y-95374500D01*
X128503502Y-95306379D01*
X128557158Y-95259886D01*
X128609500Y-95248500D01*
X128756287Y-95248500D01*
X128795919Y-95254895D01*
X128910574Y-95292887D01*
X128971693Y-95299131D01*
X129011253Y-95303173D01*
X129011255Y-95303173D01*
X129014455Y-95303500D01*
X130065544Y-95303499D01*
X130169426Y-95292887D01*
X130337738Y-95237115D01*
X130488652Y-95144030D01*
X130514298Y-95118384D01*
X130594405Y-95038278D01*
X130656717Y-95004252D01*
X130727532Y-95009317D01*
G37*
%TD.AperFunction*%
%TA.AperFunction,Conductor*%
G36*
X120788162Y-120353502D02*
G01*
X120827281Y-120393353D01*
X120845968Y-120423649D01*
X120845970Y-120423652D01*
X120929387Y-120507069D01*
X120981762Y-120559444D01*
X120978939Y-120562266D01*
X121009139Y-120595844D01*
X121020538Y-120665920D01*
X120992243Y-120731034D01*
X120981481Y-120740358D01*
X120982074Y-120740951D01*
X120846367Y-120876657D01*
X120753340Y-121027477D01*
X120697606Y-121195672D01*
X120687325Y-121296307D01*
X120687000Y-121302697D01*
X120687000Y-121346000D01*
X122048000Y-121346000D01*
X122116121Y-121366002D01*
X122162614Y-121419658D01*
X122174000Y-121472000D01*
X122174000Y-121728000D01*
X122153998Y-121796121D01*
X122100342Y-121842614D01*
X122048000Y-121854000D01*
X120686999Y-121854000D01*
X120656404Y-121884595D01*
X120594092Y-121918621D01*
X120567309Y-121921500D01*
X115884595Y-121921500D01*
X115816474Y-121901498D01*
X115795500Y-121884595D01*
X115649866Y-121738961D01*
X115615840Y-121676649D01*
X115616816Y-121618936D01*
X115644564Y-121509368D01*
X115663156Y-121285000D01*
X115644564Y-121060632D01*
X115589296Y-120842384D01*
X115498860Y-120636209D01*
X115428434Y-120528414D01*
X115407922Y-120460447D01*
X115427411Y-120392178D01*
X115480715Y-120345283D01*
X115533918Y-120333500D01*
X120720041Y-120333500D01*
X120788162Y-120353502D01*
G37*
%TD.AperFunction*%
%TA.AperFunction,Conductor*%
G36*
X108500770Y-113623390D02*
G01*
X108534798Y-113685701D01*
X108537026Y-113725295D01*
X108532325Y-113771307D01*
X108532000Y-113777697D01*
X108532000Y-114046000D01*
X109668000Y-114046000D01*
X109736121Y-114066002D01*
X109782614Y-114119658D01*
X109794000Y-114172000D01*
X109794000Y-115533000D01*
X109837303Y-115533000D01*
X109843692Y-115532674D01*
X109944327Y-115522393D01*
X110112522Y-115466659D01*
X110263342Y-115373632D01*
X110399049Y-115237926D01*
X110401945Y-115240822D01*
X110435205Y-115210884D01*
X110505276Y-115199454D01*
X110570403Y-115227721D01*
X110580001Y-115238793D01*
X110580556Y-115238239D01*
X110716344Y-115374027D01*
X110716346Y-115374028D01*
X110716348Y-115374030D01*
X110747499Y-115393244D01*
X110851643Y-115457481D01*
X110899121Y-115510267D01*
X110910524Y-115580342D01*
X110882231Y-115645458D01*
X110874591Y-115653817D01*
X110323813Y-116204595D01*
X110261501Y-116238621D01*
X110234718Y-116241500D01*
X109872661Y-116241500D01*
X109872641Y-116241500D01*
X109869456Y-116241501D01*
X109866279Y-116241825D01*
X109866270Y-116241826D01*
X109765573Y-116252113D01*
X109597262Y-116307885D01*
X109446344Y-116400972D01*
X109310556Y-116536761D01*
X109307735Y-116533940D01*
X109274126Y-116564152D01*
X109204047Y-116575534D01*
X109138940Y-116547222D01*
X109129639Y-116536483D01*
X109129049Y-116537074D01*
X108993342Y-116401367D01*
X108842522Y-116308340D01*
X108674327Y-116252606D01*
X108573692Y-116242325D01*
X108567303Y-116242000D01*
X108524000Y-116242000D01*
X108524000Y-117603000D01*
X108503998Y-117671121D01*
X108450342Y-117717614D01*
X108398000Y-117729000D01*
X107247095Y-117729000D01*
X107178974Y-117708998D01*
X107158004Y-117692099D01*
X106715404Y-117249499D01*
X106699842Y-117221000D01*
X107262000Y-117221000D01*
X108016000Y-117221000D01*
X108016000Y-116242000D01*
X107972697Y-116242000D01*
X107966307Y-116242325D01*
X107865672Y-116252606D01*
X107697477Y-116308340D01*
X107546657Y-116401367D01*
X107421367Y-116526657D01*
X107328340Y-116677477D01*
X107272606Y-116845672D01*
X107262325Y-116946307D01*
X107262000Y-116952697D01*
X107262000Y-117221000D01*
X106699842Y-117221000D01*
X106681379Y-117187187D01*
X106678500Y-117160404D01*
X106678500Y-114554000D01*
X108532000Y-114554000D01*
X108532000Y-114822302D01*
X108532325Y-114828692D01*
X108542606Y-114929327D01*
X108598340Y-115097522D01*
X108691367Y-115248342D01*
X108816657Y-115373632D01*
X108967477Y-115466659D01*
X109135672Y-115522393D01*
X109236307Y-115532674D01*
X109242697Y-115533000D01*
X109286000Y-115533000D01*
X109286000Y-114554000D01*
X108532000Y-114554000D01*
X106678500Y-114554000D01*
X106678500Y-113724500D01*
X106698502Y-113656379D01*
X106752158Y-113609886D01*
X106804500Y-113598500D01*
X108310269Y-113598500D01*
X108313638Y-113598500D01*
X108374201Y-113591989D01*
X108374202Y-113591988D01*
X108389936Y-113590297D01*
X108390207Y-113592820D01*
X108438457Y-113589368D01*
X108500770Y-113623390D01*
G37*
%TD.AperFunction*%
%TA.AperFunction,Conductor*%
G36*
X113655262Y-103938022D02*
G01*
X113701755Y-103991678D01*
X113712489Y-104056826D01*
X113702325Y-104156307D01*
X113702000Y-104162697D01*
X113702000Y-104206000D01*
X115063000Y-104206000D01*
X115131121Y-104226002D01*
X115177614Y-104279658D01*
X115189000Y-104332000D01*
X115189000Y-104588000D01*
X115168998Y-104656121D01*
X115115342Y-104702614D01*
X115063000Y-104714000D01*
X113702000Y-104714000D01*
X113702000Y-104757302D01*
X113702325Y-104763692D01*
X113712606Y-104864327D01*
X113768340Y-105032522D01*
X113861367Y-105183342D01*
X113997074Y-105319049D01*
X113994177Y-105321945D01*
X114024124Y-105355225D01*
X114035542Y-105425298D01*
X114007264Y-105490420D01*
X113996209Y-105500004D01*
X113996761Y-105500556D01*
X113860972Y-105636344D01*
X113830468Y-105685799D01*
X113767885Y-105787262D01*
X113712113Y-105955574D01*
X113712112Y-105955578D01*
X113701826Y-106056253D01*
X113701824Y-106056275D01*
X113701500Y-106059455D01*
X113701500Y-106062659D01*
X113701500Y-106062660D01*
X113701500Y-106657338D01*
X113701500Y-106657357D01*
X113701501Y-106660544D01*
X113701825Y-106663721D01*
X113701826Y-106663729D01*
X113704058Y-106685574D01*
X113712113Y-106764426D01*
X113767885Y-106932738D01*
X113843664Y-107055595D01*
X113860972Y-107083655D01*
X113986344Y-107209027D01*
X113986346Y-107209028D01*
X113986348Y-107209030D01*
X114137262Y-107302115D01*
X114215134Y-107327919D01*
X114273504Y-107368331D01*
X114300760Y-107433887D01*
X114301500Y-107447522D01*
X114301500Y-108358647D01*
X114299204Y-108379435D01*
X114301438Y-108450484D01*
X114301500Y-108454443D01*
X114301500Y-108482356D01*
X114301995Y-108486274D01*
X114301997Y-108486306D01*
X114302008Y-108486388D01*
X114302937Y-108498197D01*
X114304326Y-108542392D01*
X114309977Y-108561841D01*
X114313986Y-108581196D01*
X114316525Y-108601294D01*
X114332801Y-108642403D01*
X114336644Y-108653630D01*
X114348980Y-108696090D01*
X114359294Y-108713530D01*
X114367987Y-108731274D01*
X114375448Y-108750117D01*
X114375449Y-108750119D01*
X114401431Y-108785880D01*
X114407948Y-108795801D01*
X114430458Y-108833863D01*
X114444778Y-108848183D01*
X114457618Y-108863216D01*
X114469526Y-108879605D01*
X114503598Y-108907792D01*
X114512367Y-108915771D01*
X114594032Y-108997436D01*
X114664595Y-109067999D01*
X114698620Y-109130311D01*
X114701499Y-109157094D01*
X114701500Y-109495500D01*
X114681498Y-109563620D01*
X114627843Y-109610113D01*
X114575500Y-109621500D01*
X113246756Y-109621500D01*
X113242671Y-109622037D01*
X113242668Y-109622038D01*
X113132676Y-109636518D01*
X112990730Y-109695314D01*
X112868842Y-109788842D01*
X112775314Y-109910730D01*
X112716518Y-110052676D01*
X112707012Y-110124886D01*
X112701500Y-110166756D01*
X112701500Y-110393244D01*
X112702037Y-110397329D01*
X112702038Y-110397331D01*
X112717339Y-110513554D01*
X112717339Y-110546447D01*
X112702912Y-110656027D01*
X112674189Y-110720954D01*
X112614924Y-110760045D01*
X112543932Y-110760890D01*
X112488895Y-110728675D01*
X112460402Y-110700182D01*
X112426378Y-110637869D01*
X112423499Y-110611088D01*
X112423499Y-109992661D01*
X112423499Y-109992660D01*
X112423499Y-109989456D01*
X112412887Y-109885574D01*
X112357115Y-109717262D01*
X112264030Y-109566348D01*
X112264028Y-109566346D01*
X112264027Y-109566344D01*
X112138655Y-109440972D01*
X112129346Y-109435230D01*
X111987738Y-109347885D01*
X111819426Y-109292113D01*
X111819423Y-109292112D01*
X111819421Y-109292112D01*
X111718746Y-109281826D01*
X111718725Y-109281824D01*
X111715545Y-109281500D01*
X111712339Y-109281500D01*
X111092661Y-109281500D01*
X111092641Y-109281500D01*
X111089456Y-109281501D01*
X111086279Y-109281825D01*
X111086270Y-109281826D01*
X110985573Y-109292113D01*
X110817262Y-109347885D01*
X110666344Y-109440972D01*
X110579095Y-109528222D01*
X110516783Y-109562248D01*
X110445968Y-109557183D01*
X110400905Y-109528222D01*
X110313655Y-109440972D01*
X110304346Y-109435230D01*
X110162738Y-109347885D01*
X109994426Y-109292113D01*
X109994423Y-109292112D01*
X109994421Y-109292112D01*
X109893746Y-109281826D01*
X109893725Y-109281824D01*
X109890545Y-109281500D01*
X109887339Y-109281500D01*
X109267661Y-109281500D01*
X109267641Y-109281500D01*
X109264456Y-109281501D01*
X109261279Y-109281825D01*
X109261270Y-109281826D01*
X109160573Y-109292113D01*
X108992262Y-109347885D01*
X108841344Y-109440972D01*
X108715972Y-109566344D01*
X108622885Y-109717262D01*
X108615792Y-109738667D01*
X108575376Y-109797037D01*
X108509819Y-109824291D01*
X108452156Y-109817087D01*
X108446381Y-109814933D01*
X108374201Y-109788011D01*
X108313638Y-109781500D01*
X108310269Y-109781500D01*
X107318595Y-109781500D01*
X107250474Y-109761498D01*
X107203981Y-109707842D01*
X107193877Y-109637568D01*
X107223371Y-109572988D01*
X107229499Y-109566405D01*
X107339873Y-109456030D01*
X107703660Y-109092242D01*
X107719981Y-109079168D01*
X107722015Y-109077001D01*
X107722018Y-109077000D01*
X107768676Y-109027312D01*
X107771366Y-109024536D01*
X107791134Y-109004770D01*
X107791133Y-109004769D01*
X107828025Y-108967879D01*
X107828038Y-108967864D01*
X109077549Y-107718354D01*
X112840978Y-103954925D01*
X112903291Y-103920899D01*
X112930074Y-103918020D01*
X113587141Y-103918020D01*
X113655262Y-103938022D01*
G37*
%TD.AperFunction*%
%TA.AperFunction,Conductor*%
G36*
X117419065Y-109986892D02*
G01*
X117436700Y-109998225D01*
X117460703Y-110016644D01*
X117502570Y-110073979D01*
X117508261Y-110106631D01*
X117510000Y-110108156D01*
X117591639Y-110097409D01*
X117624530Y-110097409D01*
X117666833Y-110102977D01*
X117746756Y-110113500D01*
X117750878Y-110113500D01*
X117969122Y-110113500D01*
X117973244Y-110113500D01*
X118073076Y-110100356D01*
X118093554Y-110097661D01*
X118126446Y-110097661D01*
X118149615Y-110100711D01*
X118246756Y-110113500D01*
X118250878Y-110113500D01*
X118469122Y-110113500D01*
X118473244Y-110113500D01*
X118573076Y-110100356D01*
X118593554Y-110097661D01*
X118626446Y-110097661D01*
X118649615Y-110100711D01*
X118746756Y-110113500D01*
X118750878Y-110113500D01*
X118969122Y-110113500D01*
X118973244Y-110113500D01*
X119073076Y-110100356D01*
X119093554Y-110097661D01*
X119126446Y-110097661D01*
X119149615Y-110100711D01*
X119246756Y-110113500D01*
X119250878Y-110113500D01*
X119469122Y-110113500D01*
X119473244Y-110113500D01*
X119573076Y-110100356D01*
X119593554Y-110097661D01*
X119626446Y-110097661D01*
X119649615Y-110100711D01*
X119746756Y-110113500D01*
X119750878Y-110113500D01*
X119969122Y-110113500D01*
X119973244Y-110113500D01*
X120073076Y-110100356D01*
X120093554Y-110097661D01*
X120126446Y-110097661D01*
X120149615Y-110100711D01*
X120246756Y-110113500D01*
X120250878Y-110113500D01*
X120469122Y-110113500D01*
X120473244Y-110113500D01*
X120573076Y-110100356D01*
X120593554Y-110097661D01*
X120626446Y-110097661D01*
X120649615Y-110100711D01*
X120746756Y-110113500D01*
X120750878Y-110113500D01*
X120900500Y-110113500D01*
X120968621Y-110133502D01*
X121015114Y-110187158D01*
X121026500Y-110239499D01*
X121026500Y-110393244D01*
X121027037Y-110397329D01*
X121027038Y-110397331D01*
X121042591Y-110515468D01*
X121042591Y-110548361D01*
X121031842Y-110629999D01*
X121034774Y-110633341D01*
X121091514Y-110650002D01*
X121123353Y-110679294D01*
X121141771Y-110703296D01*
X121167371Y-110769516D01*
X121153106Y-110839064D01*
X121141772Y-110856701D01*
X121123356Y-110880702D01*
X121066018Y-110922571D01*
X121033368Y-110928261D01*
X121031842Y-110930000D01*
X121042591Y-111011639D01*
X121042591Y-111044532D01*
X121041518Y-111052676D01*
X121041519Y-111052676D01*
X121026500Y-111166756D01*
X121026500Y-111393244D01*
X121027037Y-111397329D01*
X121027038Y-111397331D01*
X121042339Y-111513554D01*
X121042339Y-111546446D01*
X121027038Y-111662668D01*
X121026500Y-111666756D01*
X121026500Y-111893244D01*
X121027037Y-111897329D01*
X121027038Y-111897331D01*
X121042339Y-112013553D01*
X121042339Y-112046445D01*
X121027038Y-112162668D01*
X121026500Y-112166756D01*
X121026500Y-112393244D01*
X121027037Y-112397329D01*
X121027038Y-112397331D01*
X121042339Y-112513554D01*
X121042339Y-112546446D01*
X121041518Y-112552676D01*
X121041519Y-112552676D01*
X121026500Y-112666756D01*
X121026500Y-112893244D01*
X121027037Y-112897329D01*
X121027038Y-112897331D01*
X121042339Y-113013553D01*
X121042339Y-113046445D01*
X121027038Y-113162668D01*
X121026500Y-113166756D01*
X121026500Y-113393244D01*
X121027037Y-113397329D01*
X121027038Y-113397331D01*
X121042339Y-113513554D01*
X121042339Y-113546446D01*
X121035486Y-113598500D01*
X121026500Y-113666756D01*
X121026500Y-113893244D01*
X121027037Y-113897329D01*
X121027038Y-113897331D01*
X121042339Y-114013554D01*
X121042339Y-114046446D01*
X121027038Y-114162668D01*
X121026500Y-114166756D01*
X121026500Y-114393244D01*
X121027037Y-114397329D01*
X121027038Y-114397331D01*
X121042339Y-114513554D01*
X121042339Y-114546446D01*
X121030628Y-114635403D01*
X121026500Y-114666756D01*
X121026500Y-114893244D01*
X121027037Y-114897329D01*
X121027038Y-114897331D01*
X121042339Y-115013553D01*
X121042339Y-115046445D01*
X121027038Y-115162668D01*
X121026500Y-115166756D01*
X121026500Y-115393244D01*
X121027037Y-115397329D01*
X121027038Y-115397331D01*
X121042339Y-115513554D01*
X121042339Y-115546446D01*
X121033590Y-115612903D01*
X121026500Y-115666756D01*
X121026500Y-115670876D01*
X121026500Y-115670877D01*
X121026500Y-115820500D01*
X121006498Y-115888621D01*
X120952842Y-115935114D01*
X120900500Y-115946500D01*
X120746756Y-115946500D01*
X120742671Y-115947037D01*
X120742668Y-115947038D01*
X120624532Y-115962591D01*
X120591639Y-115962591D01*
X120510000Y-115951842D01*
X120506657Y-115954774D01*
X120489998Y-116011513D01*
X120460702Y-116043356D01*
X120436701Y-116061772D01*
X120370481Y-116087371D01*
X120300932Y-116073105D01*
X120283293Y-116061769D01*
X120259294Y-116043353D01*
X120217428Y-115986014D01*
X120211738Y-115953368D01*
X120209999Y-115951842D01*
X120128361Y-115962591D01*
X120095468Y-115962591D01*
X119977331Y-115947038D01*
X119977329Y-115947037D01*
X119973244Y-115946500D01*
X119746756Y-115946500D01*
X119742671Y-115947037D01*
X119742668Y-115947038D01*
X119626446Y-115962339D01*
X119593554Y-115962339D01*
X119477331Y-115947038D01*
X119477329Y-115947037D01*
X119473244Y-115946500D01*
X119246756Y-115946500D01*
X119242671Y-115947037D01*
X119242668Y-115947038D01*
X119126446Y-115962339D01*
X119093554Y-115962339D01*
X118977331Y-115947038D01*
X118977329Y-115947037D01*
X118973244Y-115946500D01*
X118746756Y-115946500D01*
X118742671Y-115947037D01*
X118742668Y-115947038D01*
X118626446Y-115962339D01*
X118593554Y-115962339D01*
X118477331Y-115947038D01*
X118477329Y-115947037D01*
X118473244Y-115946500D01*
X118246756Y-115946500D01*
X118242671Y-115947037D01*
X118242668Y-115947038D01*
X118126446Y-115962339D01*
X118093554Y-115962339D01*
X117977331Y-115947038D01*
X117977329Y-115947037D01*
X117973244Y-115946500D01*
X117746756Y-115946500D01*
X117742671Y-115947037D01*
X117742668Y-115947038D01*
X117626446Y-115962339D01*
X117593554Y-115962339D01*
X117477331Y-115947038D01*
X117477329Y-115947037D01*
X117473244Y-115946500D01*
X117246756Y-115946500D01*
X117242671Y-115947037D01*
X117242668Y-115947038D01*
X117126446Y-115962339D01*
X117093554Y-115962339D01*
X116977331Y-115947038D01*
X116977329Y-115947037D01*
X116973244Y-115946500D01*
X116746756Y-115946500D01*
X116742671Y-115947037D01*
X116742668Y-115947038D01*
X116626446Y-115962339D01*
X116593554Y-115962339D01*
X116477331Y-115947038D01*
X116477329Y-115947037D01*
X116473244Y-115946500D01*
X116246756Y-115946500D01*
X116242671Y-115947037D01*
X116242668Y-115947038D01*
X116126446Y-115962339D01*
X116093554Y-115962339D01*
X115977331Y-115947038D01*
X115977329Y-115947037D01*
X115973244Y-115946500D01*
X115746756Y-115946500D01*
X115742671Y-115947037D01*
X115742668Y-115947038D01*
X115626446Y-115962339D01*
X115593554Y-115962339D01*
X115477331Y-115947038D01*
X115477329Y-115947037D01*
X115473244Y-115946500D01*
X115319500Y-115946500D01*
X115251379Y-115926498D01*
X115204886Y-115872842D01*
X115193500Y-115820500D01*
X115193500Y-115670877D01*
X115193500Y-115670876D01*
X115193500Y-115666756D01*
X115178481Y-115552676D01*
X115177661Y-115546446D01*
X115177661Y-115513554D01*
X115180356Y-115493076D01*
X115193500Y-115393244D01*
X115193500Y-115166756D01*
X115178481Y-115052676D01*
X115177661Y-115046445D01*
X115177661Y-115013553D01*
X115184282Y-114963261D01*
X115193500Y-114893244D01*
X115193500Y-114666756D01*
X115178481Y-114552676D01*
X115177661Y-114546446D01*
X115177661Y-114513554D01*
X115186368Y-114447413D01*
X115193500Y-114393244D01*
X115193500Y-114166756D01*
X115178481Y-114052676D01*
X115178480Y-114052674D01*
X115177408Y-114044529D01*
X115177408Y-114011634D01*
X115188156Y-113929999D01*
X115185225Y-113926658D01*
X115128486Y-113909998D01*
X115096645Y-113880704D01*
X115078229Y-113856704D01*
X115052628Y-113790484D01*
X115066892Y-113720935D01*
X115078229Y-113703296D01*
X115096645Y-113679296D01*
X115153983Y-113637429D01*
X115186631Y-113631738D01*
X115188156Y-113629999D01*
X115177408Y-113548358D01*
X115177408Y-113515463D01*
X115178478Y-113507329D01*
X115178481Y-113507324D01*
X115193500Y-113393244D01*
X115193500Y-113166756D01*
X115181185Y-113073217D01*
X115177661Y-113046445D01*
X115177661Y-113013553D01*
X115184831Y-112959091D01*
X115193500Y-112893244D01*
X115193500Y-112666756D01*
X115178481Y-112552676D01*
X115177661Y-112546446D01*
X115177661Y-112513554D01*
X115180356Y-112493076D01*
X115193500Y-112393244D01*
X115193500Y-112166756D01*
X115178481Y-112052676D01*
X115177661Y-112046445D01*
X115177661Y-112013553D01*
X115180272Y-111993717D01*
X115193500Y-111893244D01*
X115193500Y-111666756D01*
X115178481Y-111552676D01*
X115177661Y-111546446D01*
X115177661Y-111513554D01*
X115180356Y-111493076D01*
X115193500Y-111393244D01*
X115193500Y-111166756D01*
X115178481Y-111052676D01*
X115177661Y-111046445D01*
X115177661Y-111013553D01*
X115187993Y-110935072D01*
X115193500Y-110893244D01*
X115193500Y-110666756D01*
X115178481Y-110552676D01*
X115177661Y-110546446D01*
X115177661Y-110513554D01*
X115181625Y-110483440D01*
X115193500Y-110393244D01*
X115193500Y-110239499D01*
X115213502Y-110171379D01*
X115267158Y-110124886D01*
X115319500Y-110113500D01*
X115469122Y-110113500D01*
X115473244Y-110113500D01*
X115587324Y-110098481D01*
X115587328Y-110098479D01*
X115595465Y-110097408D01*
X115628357Y-110097408D01*
X115710000Y-110108155D01*
X115713342Y-110105225D01*
X115730002Y-110048486D01*
X115759294Y-110016646D01*
X115783295Y-109998228D01*
X115849512Y-109972628D01*
X115919061Y-109986891D01*
X115936703Y-109998228D01*
X115960702Y-110016643D01*
X116002569Y-110073981D01*
X116008259Y-110106629D01*
X116009999Y-110108155D01*
X116091639Y-110097409D01*
X116124530Y-110097409D01*
X116166833Y-110102977D01*
X116246756Y-110113500D01*
X116250878Y-110113500D01*
X116469122Y-110113500D01*
X116473244Y-110113500D01*
X116573076Y-110100356D01*
X116593554Y-110097661D01*
X116626446Y-110097661D01*
X116649615Y-110100711D01*
X116746756Y-110113500D01*
X116750878Y-110113500D01*
X116969122Y-110113500D01*
X116973244Y-110113500D01*
X117087324Y-110098481D01*
X117087328Y-110098479D01*
X117095465Y-110097408D01*
X117128357Y-110097408D01*
X117210000Y-110108155D01*
X117213342Y-110105225D01*
X117230002Y-110048486D01*
X117259296Y-110016645D01*
X117283296Y-109998229D01*
X117349516Y-109972628D01*
X117419065Y-109986892D01*
G37*
%TD.AperFunction*%
%TA.AperFunction,Conductor*%
G36*
X121801121Y-100731002D02*
G01*
X121847614Y-100784658D01*
X121859000Y-100837000D01*
X121859000Y-102198000D01*
X121902303Y-102198000D01*
X121908692Y-102197674D01*
X122009327Y-102187393D01*
X122177522Y-102131659D01*
X122328342Y-102038632D01*
X122464049Y-101902926D01*
X122466945Y-101905822D01*
X122500205Y-101875884D01*
X122570276Y-101864454D01*
X122635403Y-101892721D01*
X122645001Y-101903793D01*
X122645556Y-101903239D01*
X122781344Y-102039027D01*
X122781346Y-102039028D01*
X122781348Y-102039030D01*
X122858309Y-102086500D01*
X122905787Y-102139286D01*
X122917190Y-102209361D01*
X122888897Y-102274477D01*
X122881257Y-102282836D01*
X121334498Y-103829596D01*
X121272188Y-103863620D01*
X121245405Y-103866500D01*
X121189513Y-103866500D01*
X121002712Y-103906206D01*
X121002710Y-103906206D01*
X121002709Y-103906207D01*
X120825237Y-103985222D01*
X120754870Y-103994656D01*
X120690573Y-103964549D01*
X120652760Y-103904460D01*
X120652991Y-103834962D01*
X120665629Y-103791466D01*
X120668500Y-103754989D01*
X120668499Y-103255012D01*
X120665629Y-103218534D01*
X120620269Y-103062404D01*
X120541045Y-102928444D01*
X120523500Y-102864306D01*
X120523500Y-101980095D01*
X120543502Y-101911974D01*
X120597158Y-101865481D01*
X120667432Y-101855377D01*
X120732012Y-101884871D01*
X120755421Y-101912396D01*
X120881657Y-102038632D01*
X121032477Y-102131659D01*
X121200672Y-102187393D01*
X121301307Y-102197674D01*
X121307697Y-102198000D01*
X121351000Y-102198000D01*
X121351000Y-100837000D01*
X121371002Y-100768879D01*
X121424658Y-100722386D01*
X121477000Y-100711000D01*
X121733000Y-100711000D01*
X121801121Y-100731002D01*
G37*
%TD.AperFunction*%
%TA.AperFunction,Conductor*%
G36*
X127388527Y-99713502D02*
G01*
X127409501Y-99730405D01*
X127599595Y-99920499D01*
X127633621Y-99982811D01*
X127636500Y-100009594D01*
X127636500Y-101090500D01*
X127616498Y-101158621D01*
X127562842Y-101205114D01*
X127510500Y-101216500D01*
X127323086Y-101216500D01*
X127254965Y-101196498D01*
X127208472Y-101142842D01*
X127198164Y-101106949D01*
X127198160Y-101106913D01*
X127138105Y-100961928D01*
X127042572Y-100837428D01*
X126962294Y-100775828D01*
X126920427Y-100718490D01*
X126913095Y-100676421D01*
X126913269Y-100681708D01*
X126912460Y-100669376D01*
X126897673Y-100557043D01*
X126837669Y-100412180D01*
X126742215Y-100287784D01*
X126617819Y-100192330D01*
X126472957Y-100132326D01*
X126405000Y-100123379D01*
X126404999Y-100123380D01*
X126404999Y-100545920D01*
X126384997Y-100614041D01*
X126331341Y-100660534D01*
X126295446Y-100670842D01*
X126197447Y-100683744D01*
X126127298Y-100672805D01*
X126074199Y-100625677D01*
X126055000Y-100558822D01*
X126055000Y-100123381D01*
X126054999Y-100123380D01*
X126005944Y-100129838D01*
X125935796Y-100118898D01*
X125882698Y-100071769D01*
X125863500Y-100004916D01*
X125863500Y-99874595D01*
X125883502Y-99806474D01*
X125900405Y-99785499D01*
X125955501Y-99730404D01*
X126017814Y-99696379D01*
X126044596Y-99693500D01*
X127320406Y-99693500D01*
X127388527Y-99713502D01*
G37*
%TD.AperFunction*%
%TD*%
M02*
