M48
; DRILL file {KiCad (6.0.2)} date Wed Apr 19 08:06:52 2023
; FORMAT={-:-/ absolute / metric / decimal}
; #@! TF.CreationDate,2023-04-19T08:06:52-04:00
; #@! TF.GenerationSoftware,Kicad,Pcbnew,(6.0.2)
; #@! TF.FileFunction,Plated,1,2,PTH
FMAT,2
METRIC
; #@! TA.AperFunction,Plated,PTH,ViaDrill
T1C0.400
; #@! TA.AperFunction,Plated,PTH,ComponentDrill
T2C0.800
; #@! TA.AperFunction,Plated,PTH,ComponentDrill
T3C1.000
%
G90
G05
T1
X107.823Y-95.758
X109.22Y-110.49
X109.22Y-114.3
X111.76Y-116.84
X116.205Y-111.125
X116.205Y-113.665
X117.475Y-99.695
X117.475Y-103.505
X117.475Y-111.125
X118.745Y-104.775
X120.015Y-89.535
X120.015Y-107.315
X120.015Y-114.935
X120.305Y-110.78
X121.285Y-104.775
X121.92Y-88.9
X121.92Y-100.965
X121.92Y-121.412
X123.19Y-102.87
X124.46Y-112.395
X125.73Y-102.87
X126.365Y-104.14
X127.635Y-104.775
X129.54Y-99.695
T2
X114.824Y-84.763
X116.824Y-84.763
T3
X109.22Y-121.285
X111.76Y-121.285
X114.3Y-121.285
T0
M30
