%TF.GenerationSoftware,KiCad,Pcbnew,7.0.2*%
%TF.CreationDate,2023-09-04T15:16:37-04:00*%
%TF.ProjectId,skydiving-altimeter,736b7964-6976-4696-9e67-2d616c74696d,rev?*%
%TF.SameCoordinates,Original*%
%TF.FileFunction,Paste,Bot*%
%TF.FilePolarity,Positive*%
%FSLAX46Y46*%
G04 Gerber Fmt 4.6, Leading zero omitted, Abs format (unit mm)*
G04 Created by KiCad (PCBNEW 7.0.2) date 2023-09-04 15:16:37*
%MOMM*%
%LPD*%
G01*
G04 APERTURE LIST*
G04 Aperture macros list*
%AMRoundRect*
0 Rectangle with rounded corners*
0 $1 Rounding radius*
0 $2 $3 $4 $5 $6 $7 $8 $9 X,Y pos of 4 corners*
0 Add a 4 corners polygon primitive as box body*
4,1,4,$2,$3,$4,$5,$6,$7,$8,$9,$2,$3,0*
0 Add four circle primitives for the rounded corners*
1,1,$1+$1,$2,$3*
1,1,$1+$1,$4,$5*
1,1,$1+$1,$6,$7*
1,1,$1+$1,$8,$9*
0 Add four rect primitives between the rounded corners*
20,1,$1+$1,$2,$3,$4,$5,0*
20,1,$1+$1,$4,$5,$6,$7,0*
20,1,$1+$1,$6,$7,$8,$9,0*
20,1,$1+$1,$8,$9,$2,$3,0*%
G04 Aperture macros list end*
%ADD10RoundRect,0.150000X0.825000X0.150000X-0.825000X0.150000X-0.825000X-0.150000X0.825000X-0.150000X0*%
%ADD11R,0.700000X1.000000*%
%ADD12R,0.700000X0.600000*%
%ADD13RoundRect,0.250000X0.262500X0.450000X-0.262500X0.450000X-0.262500X-0.450000X0.262500X-0.450000X0*%
%ADD14RoundRect,0.250000X0.275000X0.275000X-0.275000X0.275000X-0.275000X-0.275000X0.275000X-0.275000X0*%
%ADD15RoundRect,0.062500X0.350000X0.062500X-0.350000X0.062500X-0.350000X-0.062500X0.350000X-0.062500X0*%
%ADD16RoundRect,0.062500X0.062500X0.350000X-0.062500X0.350000X-0.062500X-0.350000X0.062500X-0.350000X0*%
G04 APERTURE END LIST*
D10*
%TO.C,U6*%
X123825000Y-91440000D03*
X123825000Y-92710000D03*
X123825000Y-93980000D03*
X123825000Y-95250000D03*
X118875000Y-95250000D03*
X118875000Y-93980000D03*
X118875000Y-92710000D03*
X118875000Y-91440000D03*
%TD*%
D11*
%TO.C,D2*%
X124555000Y-118310000D03*
D12*
X124555000Y-120010000D03*
X122555000Y-120010000D03*
X122555000Y-118110000D03*
%TD*%
D13*
%TO.C,R6*%
X110132500Y-118520000D03*
X108307500Y-118520000D03*
%TD*%
%TO.C,R5*%
X110132500Y-115570000D03*
X108307500Y-115570000D03*
%TD*%
D14*
%TO.C,U3*%
X119427500Y-118780000D03*
X119427500Y-117480000D03*
X118127500Y-118780000D03*
X118127500Y-117480000D03*
D15*
X120715000Y-116880000D03*
X120715000Y-117380000D03*
X120715000Y-117880000D03*
X120715000Y-118380000D03*
X120715000Y-118880000D03*
X120715000Y-119380000D03*
D16*
X120027500Y-120067500D03*
X119527500Y-120067500D03*
X119027500Y-120067500D03*
X118527500Y-120067500D03*
X118027500Y-120067500D03*
X117527500Y-120067500D03*
D15*
X116840000Y-119380000D03*
X116840000Y-118880000D03*
X116840000Y-118380000D03*
X116840000Y-117880000D03*
X116840000Y-117380000D03*
X116840000Y-116880000D03*
D16*
X117527500Y-116192500D03*
X118027500Y-116192500D03*
X118527500Y-116192500D03*
X119027500Y-116192500D03*
X119527500Y-116192500D03*
X120027500Y-116192500D03*
%TD*%
D13*
%TO.C,R9*%
X112672500Y-107315000D03*
X110847500Y-107315000D03*
%TD*%
D10*
%TO.C,U7*%
X115505000Y-91440000D03*
X115505000Y-92710000D03*
X115505000Y-93980000D03*
X115505000Y-95250000D03*
X110555000Y-95250000D03*
X110555000Y-93980000D03*
X110555000Y-92710000D03*
X110555000Y-91440000D03*
%TD*%
M02*
